<?xml version="1.0" encoding="UTF-8" standalone="no"?>
<!DOCTYPE svg PUBLIC "-//W3C//DTD SVG 1.1//EN" "http://www.w3.org/Graphics/SVG/1.1/DTD/svg11.dtd">
<!-- Generated by graphviz version 2.40.1 (20161225.0304)
 -->
<!-- Title: %0 Pages: 1 -->
<svg xmlns="http://www.w3.org/2000/svg" xmlns:xlink="http://www.w3.org/1999/xlink" width="1236pt" height="402pt" viewBox="0.00 0.00 1236.10 401.72">
  <g id="graph0" class="graph" transform="scale(1 1) rotate(0) translate(4 397.7181)">
    <title>%0</title>
    <g id="a_graph0">
      <a xlink:title=" ">
        <polygon fill="#ffffff" stroke="transparent" points="-4,4 -4,-397.7181 1232.103,-397.7181 1232.103,4 -4,4"/>
        <text text-anchor="middle" x="614.0515" y="-8.2" font-family="Arial" font-size="14.00" fill="#000000">-.-</text>
      </a>
    </g>
    <!-- 1 -->
    <g id="node1" class="node">
      <title>1</title>
      <g id="a_node1">
        <a xlink:title="’Increased knowledge’">
          <path fill="#f1faf9" stroke="#05aa99" stroke-width=".5" d="M235.3477,-269.7678C235.3477,-269.7678 11.884,-269.7678 11.884,-269.7678 5.884,-269.7678 -.116,-263.7678 -.116,-257.7678 -.116,-257.7678 -.116,-231.0263 -.116,-231.0263 -.116,-225.0263 5.884,-219.0263 11.884,-219.0263 11.884,-219.0263 235.3477,-219.0263 235.3477,-219.0263 241.3477,-219.0263 247.3477,-225.0263 247.3477,-231.0263 247.3477,-231.0263 247.3477,-257.7678 247.3477,-257.7678 247.3477,-263.7678 241.3477,-269.7678 235.3477,-269.7678"/>
          <text text-anchor="middle" x="123.6159" y="-238.6794" font-family="Helvetica,sans-Serif" font-size="19.06" fill="#000000">Increased knowledge (17)</text>
        </a>
      </g>
    </g>
    <!-- 2 -->
    <g id="node2" class="node">
      <title>2</title>
      <g id="a_node2">
        <a xlink:title="’Diet improved’">
          <path fill="#05aa99" stroke="#05aa99" stroke-width=".5" d="M1215.9796,-289.7514C1215.9796,-289.7514 1086.4735,-289.7514 1086.4735,-289.7514 1080.4735,-289.7514 1074.4735,-283.7514 1074.4735,-277.7514 1074.4735,-277.7514 1074.4735,-255.0428 1074.4735,-255.0428 1074.4735,-249.0428 1080.4735,-243.0428 1086.4735,-243.0428 1086.4735,-243.0428 1215.9796,-243.0428 1215.9796,-243.0428 1221.9796,-243.0428 1227.9796,-249.0428 1227.9796,-255.0428 1227.9796,-255.0428 1227.9796,-277.7514 1227.9796,-277.7514 1227.9796,-283.7514 1221.9796,-289.7514 1215.9796,-289.7514"/>
          <text text-anchor="middle" x="1151.2265" y="-261.8089" font-family="Helvetica,sans-Serif" font-size="15.29" fill="#000000">Diet improved (16)</text>
        </a>
      </g>
    </g>
    <!-- 3 -->
    <g id="node3" class="node">
      <title>3</title>
      <g id="a_node3">
        <a xlink:title="’Farm production’">
          <path fill="#97dcd5" stroke="#05aa99" stroke-width=".5" d="M668.388,-155.3971C668.388,-155.3971 478.0235,-155.3971 478.0235,-155.3971 472.0235,-155.3971 466.0235,-149.3971 466.0235,-143.3971 466.0235,-143.3971 466.0235,-115.3971 466.0235,-115.3971 466.0235,-109.3971 472.0235,-103.3971 478.0235,-103.3971 478.0235,-103.3971 668.388,-103.3971 668.388,-103.3971 674.388,-103.3971 680.388,-109.3971 680.388,-115.3971 680.388,-115.3971 680.388,-143.3971 680.388,-143.3971 680.388,-149.3971 674.388,-155.3971 668.388,-155.3971"/>
          <text text-anchor="middle" x="573.2057" y="-123.3971" font-family="Helvetica,sans-Serif" font-size="20.00" fill="#000000">Farm production (16)</text>
        </a>
      </g>
    </g>
    <!-- 4 -->
    <g id="node4" class="node">
      <title>4</title>
      <g id="a_node4">
        <a xlink:title="’Food consumption quantity’">
          <path fill="#05aa99" stroke="#05aa99" stroke-width=".5" d="M1206.7691,-139.2798C1206.7691,-139.2798 1095.6839,-139.2798 1095.6839,-139.2798 1089.6839,-139.2798 1083.6839,-133.2798 1083.6839,-127.2798 1083.6839,-127.2798 1083.6839,-91.5144 1083.6839,-91.5144 1083.6839,-85.5144 1089.6839,-79.5144 1095.6839,-79.5144 1095.6839,-79.5144 1206.7691,-79.5144 1206.7691,-79.5144 1212.7691,-79.5144 1218.7691,-85.5144 1218.7691,-91.5144 1218.7691,-91.5144 1218.7691,-127.2798 1218.7691,-127.2798 1218.7691,-133.2798 1212.7691,-139.2798 1206.7691,-139.2798"/>
          <text text-anchor="middle" x="1151.2265" y="-113.3198" font-family="Helvetica,sans-Serif" font-size="13.08" fill="#000000">Food consumption</text>
          <text text-anchor="middle" x="1151.2265" y="-97.629" font-family="Helvetica,sans-Serif" font-size="13.08" fill="#000000">quantity (15)</text>
        </a>
      </g>
    </g>
    <!-- 5 -->
    <g id="node5" class="node">
      <title>5</title>
      <g id="a_node5">
        <a xlink:title="’Improved/new farming techniques’">
          <path fill="#8bd7d0" stroke="#05aa99" stroke-width=".5" d="M426.6816,-146.0536C426.6816,-146.0536 286.4148,-146.0536 286.4148,-146.0536 280.4148,-146.0536 274.4148,-140.0536 274.4148,-134.0536 274.4148,-134.0536 274.4148,-96.7406 274.4148,-96.7406 274.4148,-90.7406 280.4148,-84.7406 286.4148,-84.7406 286.4148,-84.7406 426.6816,-84.7406 426.6816,-84.7406 432.6816,-84.7406 438.6816,-90.7406 438.6816,-96.7406 438.6816,-96.7406 438.6816,-134.0536 438.6816,-134.0536 438.6816,-140.0536 432.6816,-146.0536 426.6816,-146.0536"/>
          <text text-anchor="middle" x="356.5482" y="-119.5416" font-family="Helvetica,sans-Serif" font-size="13.82" fill="#000000">Improved/new farming</text>
          <text text-anchor="middle" x="356.5482" y="-102.9635" font-family="Helvetica,sans-Serif" font-size="13.82" fill="#000000">techniques (14)</text>
        </a>
      </g>
    </g>
    <!-- 6 -->
    <g id="node6" class="node">
      <title>6</title>
      <g id="a_node6">
        <a xlink:title="’Income’">
          <path fill="#68ccc1" stroke="#05aa99" stroke-width=".5" d="M824.1715,-257.2662C824.1715,-257.2662 740.3152,-257.2662 740.3152,-257.2662 734.3152,-257.2662 728.3152,-251.2662 728.3152,-245.2662 728.3152,-245.2662 728.3152,-223.528 728.3152,-223.528 728.3152,-217.528 734.3152,-211.528 740.3152,-211.528 740.3152,-211.528 824.1715,-211.528 824.1715,-211.528 830.1715,-211.528 836.1715,-217.528 836.1715,-223.528 836.1715,-223.528 836.1715,-245.2662 836.1715,-245.2662 836.1715,-251.2662 830.1715,-257.2662 824.1715,-257.2662"/>
          <text text-anchor="middle" x="782.2433" y="-229.9299" font-family="Helvetica,sans-Serif" font-size="14.89" fill="#000000">Income (14)</text>
        </a>
      </g>
    </g>
    <!-- 7 -->
    <g id="node7" class="node">
      <title>7</title>
      <g id="a_node7">
        <a xlink:title="’Planted new crop/vegetable varieties’">
          <path fill="#9fded8" stroke="#05aa99" stroke-width=".5" d="M410.4306,-286.6504C410.4306,-286.6504 302.6659,-286.6504 302.6659,-286.6504 296.6659,-286.6504 290.6659,-280.6504 290.6659,-274.6504 290.6659,-274.6504 290.6659,-214.1438 290.6659,-214.1438 290.6659,-208.1438 296.6659,-202.1438 302.6659,-202.1438 302.6659,-202.1438 410.4306,-202.1438 410.4306,-202.1438 416.4306,-202.1438 422.4306,-208.1438 422.4306,-214.1438 422.4306,-214.1438 422.4306,-274.6504 422.4306,-274.6504 422.4306,-280.6504 416.4306,-286.6504 410.4306,-286.6504"/>
          <text text-anchor="middle" x="356.5482" y="-258.5853" font-family="Helvetica,sans-Serif" font-size="15.76" fill="#000000">Planted new</text>
          <text text-anchor="middle" x="356.5482" y="-239.6677" font-family="Helvetica,sans-Serif" font-size="15.76" fill="#000000">crop/vegetable</text>
          <text text-anchor="middle" x="356.5482" y="-220.75" font-family="Helvetica,sans-Serif" font-size="15.76" fill="#000000">varieties (14)</text>
        </a>
      </g>
    </g>
    <!-- 8 -->
    <g id="node8" class="node">
      <title>8</title>
      <g id="a_node8">
        <a xlink:title="’Ability to buy food’">
          <path fill="#aae2dc" stroke="#05aa99" stroke-width=".5" d="M1035.5558,-181.7345C1035.5558,-181.7345 895.7343,-181.7345 895.7343,-181.7345 889.7343,-181.7345 883.7343,-175.7345 883.7343,-169.7345 883.7343,-169.7345 883.7343,-149.0597 883.7343,-149.0597 883.7343,-143.0597 889.7343,-137.0597 895.7343,-137.0597 895.7343,-137.0597 1035.5558,-137.0597 1035.5558,-137.0597 1041.5558,-137.0597 1047.5558,-143.0597 1047.5558,-149.0597 1047.5558,-149.0597 1047.5558,-169.7345 1047.5558,-169.7345 1047.5558,-175.7345 1041.5558,-181.7345 1035.5558,-181.7345"/>
          <text text-anchor="middle" x="965.645" y="-155.3131" font-family="Helvetica,sans-Serif" font-size="13.61" fill="#000000">Ability to buy food (12)</text>
        </a>
      </g>
    </g>
    <!-- 9 -->
    <g id="node9" class="node">
      <title>9</title>
      <g id="a_node9">
        <a xlink:title="’Broken taboo’">
          <path fill="#8ad7cf" stroke="#05aa99" stroke-width=".5" d="M620.5656,-393.5406C620.5656,-393.5406 525.8458,-393.5406 525.8458,-393.5406 519.8458,-393.5406 513.8458,-387.5406 513.8458,-381.5406 513.8458,-381.5406 513.8458,-363.2536 513.8458,-363.2536 513.8458,-357.2536 519.8458,-351.2536 525.8458,-351.2536 525.8458,-351.2536 620.5656,-351.2536 620.5656,-351.2536 626.5656,-351.2536 632.5656,-357.2536 632.5656,-363.2536 632.5656,-363.2536 632.5656,-381.5406 632.5656,-381.5406 632.5656,-387.5406 626.5656,-393.5406 620.5656,-393.5406"/>
          <text text-anchor="middle" x="573.2057" y="-368.7366" font-family="Helvetica,sans-Serif" font-size="12.20" fill="#000000">Broken taboo (6)</text>
        </a>
      </g>
    </g>
    <!-- 10 -->
    <g id="node10" class="node">
      <title>10</title>
      <g id="a_node10">
        <a xlink:title="’Produced enough food to eat and/or sell’">
          <path fill="#05aa99" stroke="#05aa99" stroke-width=".5" d="M845.137,-117.6974C845.137,-117.6974 719.3496,-117.6974 719.3496,-117.6974 713.3496,-117.6974 707.3496,-111.6974 707.3496,-105.6974 707.3496,-105.6974 707.3496,-73.0967 707.3496,-73.0967 707.3496,-67.0967 713.3496,-61.0967 719.3496,-61.0967 719.3496,-61.0967 845.137,-61.0967 845.137,-61.0967 851.137,-61.0967 857.137,-67.0967 857.137,-73.0967 857.137,-73.0967 857.137,-105.6974 857.137,-105.6974 857.137,-111.6974 851.137,-117.6974 845.137,-117.6974"/>
          <text text-anchor="middle" x="782.2433" y="-92.9971" font-family="Helvetica,sans-Serif" font-size="12.00" fill="#000000">Produced enough food</text>
          <text text-anchor="middle" x="782.2433" y="-78.5971" font-family="Helvetica,sans-Serif" font-size="12.00" fill="#000000">to eat and/or sell (6)</text>
        </a>
      </g>
    </g>
    <!-- 1&#45;&gt;1 -->
    <g id="edge15" class="edge">
      <title>1-&gt;1</title>
      <path fill="none" stroke="#05aa99" stroke-width="2.64" d="M80.2858,-269.8276C78.36,-279.66 92.8034,-287.8324 123.6159,-287.8324 148.651,-287.8324 162.88,-282.4373 166.3028,-275.1403"/>
      <polygon fill="#05aa99" stroke="#05aa99" stroke-width="2.64" points="168.0822,-275.0017 166.9459,-269.8276 164.6076,-274.581 168.0822,-275.0017"/>
      <text text-anchor="middle" x="120.5734" y="-277.0321" font-family="Helvetica,sans-Serif" font-size="12.00" fill="#000000">6</text>
    </g>
    <!-- 1&#45;&gt;2 -->
    <g id="edge12" class="edge">
      <title>1-&gt;2</title>
      <path fill="none" stroke="#05aa99" stroke-width="3.6" d="M187.9291,-269.86C214.2887,-279.3216 245.3408,-289.2411 274.2317,-295.3971 404.7603,-323.2096 439.7469,-323.3971 573.2057,-323.3971 573.2057,-323.3971 573.2057,-323.3971 782.2433,-323.3971 881.7829,-323.3971 994.6751,-302.8866 1069.0829,-286.4725"/>
      <polygon fill="#05aa99" stroke="#05aa99" stroke-width="3.6" points="1069.8711,-288.0902 1074.373,-285.2981 1069.1125,-284.6734 1069.8711,-288.0902"/>
      <text text-anchor="middle" x="595.9952" y="-312.5971" font-family="Helvetica,sans-Serif" font-size="12.00" fill="#000000">8</text>
    </g>
    <!-- 1&#45;&gt;3 -->
    <g id="edge13" class="edge">
      <title>1-&gt;3</title>
      <path fill="none" stroke="#05aa99" stroke-width="5.04" d="M193.2109,-218.9584C218.5227,-210.2049 247.4822,-200.7625 274.2317,-193.3971 309.0908,-183.7988 391.514,-166.2922 461.0072,-152.0122"/>
      <polygon fill="#05aa99" stroke="#05aa99" stroke-width="5.04" points="461.5331,-154.1553 465.9875,-150.9898 460.6462,-149.8354 461.5331,-154.1553"/>
      <text text-anchor="middle" x="321.8434" y="-169.4579" font-family="Helvetica,sans-Serif" font-size="12.00" fill="#000000">11</text>
    </g>
    <!-- 1&#45;&gt;5 -->
    <g id="edge14" class="edge">
      <title>1-&gt;5</title>
      <path fill="none" stroke="#05aa99" stroke-width="5.52" d="M169.0379,-218.9336C198.8982,-202.2263 238.8482,-179.9351 274.2317,-160.3971 281.1981,-156.5505 288.5037,-152.5329 295.7654,-148.5499"/>
      <polygon fill="#05aa99" stroke="#05aa99" stroke-width="5.52" points="297.0543,-150.5975 300.2778,-146.0762 294.7324,-146.3621 297.0543,-150.5975"/>
      <text text-anchor="middle" x="227.8931" y="-171.5808" font-family="Helvetica,sans-Serif" font-size="12.00" fill="#000000">12</text>
    </g>
    <!-- 1&#45;&gt;7 -->
    <g id="edge16" class="edge">
      <title>1-&gt;7</title>
      <path fill="none" stroke="#05aa99" stroke-width="6" d="M247.2434,-244.3971C260.3917,-244.3971 273.4177,-244.3971 285.6479,-244.3971"/>
      <polygon fill="#05aa99" stroke="#05aa99" stroke-width="6" points="285.8388,-247.0222 290.8387,-244.3971 285.8387,-241.7722 285.8388,-247.0222"/>
      <text text-anchor="middle" x="262.2244" y="-233.5971" font-family="Helvetica,sans-Serif" font-size="12.00" fill="#000000">13</text>
    </g>
    <!-- 1&#45;&gt;9 -->
    <g id="edge11" class="edge">
      <title>1-&gt;9</title>
      <path fill="none" stroke="#05aa99" stroke-width="2.16" d="M155.5751,-269.9432C184.6982,-291.7442 229.8237,-321.9452 274.2317,-337.3971 351.7639,-364.3746 446.7158,-371.4229 508.5174,-372.842"/>
      <polygon fill="#05aa99" stroke="#05aa99" stroke-width="2.16" points="508.6146,-374.5943 513.6499,-372.9486 508.6873,-371.095 508.6146,-374.5943"/>
      <text text-anchor="middle" x="324.233" y="-341.7006" font-family="Helvetica,sans-Serif" font-size="12.00" fill="#000000">5</text>
    </g>
    <!-- 3&#45;&gt;2 -->
    <g id="edge4" class="edge">
      <title>3-&gt;2</title>
      <path fill="none" stroke="#05aa99" stroke-width="3.12" d="M680.6537,-154.0579C776.8274,-176.2487 921.6347,-209.9505 1047.3501,-240.3971 1054.4701,-242.1215 1061.8594,-243.931 1069.2664,-245.7587"/>
      <polygon fill="#05aa99" stroke="#05aa99" stroke-width="3.12" points="1069.1203,-247.5251 1074.3941,-247.0261 1069.9601,-244.1274 1069.1203,-247.5251"/>
      <text text-anchor="middle" x="881.1511" y="-189.1818" font-family="Helvetica,sans-Serif" font-size="12.00" fill="#000000">7</text>
    </g>
    <!-- 3&#45;&gt;4 -->
    <g id="edge5" class="edge">
      <title>3-&gt;4</title>
      <path fill="none" stroke="#05aa99" stroke-width="4.56" d="M607.1818,-103.2236C633.0969,-84.9955 670.5289,-62.2537 707.5467,-52.3971 835.5199,-18.3222 989.8691,-54.9347 1078.6719,-83.1818"/>
      <polygon fill="#05aa99" stroke="#05aa99" stroke-width="4.56" points="1078.2671,-85.1471 1083.6376,-84.7744 1079.4857,-81.3477 1078.2671,-85.1471"/>
      <text text-anchor="middle" x="840.8413" y="-28.4" font-family="Helvetica,sans-Serif" font-size="12.00" fill="#000000">10</text>
    </g>
    <!-- 3&#45;&gt;6 -->
    <g id="edge6" class="edge">
      <title>3-&gt;6</title>
      <path fill="none" stroke="#05aa99" stroke-width="6" d="M625.1465,-155.4871C657.7618,-171.8698 699.6134,-192.8919 731.9172,-209.1182"/>
      <polygon fill="#05aa99" stroke="#05aa99" stroke-width="6" points="730.9655,-211.5777 736.6118,-211.4763 733.3221,-206.8862 730.9655,-211.5777"/>
      <text text-anchor="middle" x="674.1546" y="-172.6547" font-family="Helvetica,sans-Serif" font-size="12.00" fill="#000000">13</text>
    </g>
    <!-- 3&#45;&gt;10 -->
    <g id="edge7" class="edge">
      <title>3-&gt;10</title>
      <path fill="none" stroke="#05aa99" stroke-width="2.64" d="M680.4801,-108.8698C687.8919,-107.4515 695.2852,-106.0368 702.5108,-104.6542"/>
      <polygon fill="#05aa99" stroke="#05aa99" stroke-width="2.64" points="702.9025,-106.361 707.4845,-103.7024 702.2446,-102.9234 702.9025,-106.361"/>
      <text text-anchor="middle" x="690.64" y="-95.4874" font-family="Helvetica,sans-Serif" font-size="12.00" fill="#000000">6</text>
    </g>
    <!-- 5&#45;&gt;3 -->
    <g id="edge8" class="edge">
      <title>5-&gt;3</title>
      <path fill="none" stroke="#05aa99" stroke-width="5.52" d="M438.7661,-120.7099C445.9635,-121.1749 453.3245,-121.6506 460.7114,-122.1279"/>
      <polygon fill="#05aa99" stroke="#05aa99" stroke-width="5.52" points="460.6825,-124.546 465.8278,-122.4585 460.994,-119.7261 460.6825,-124.546"/>
      <text text-anchor="middle" x="445.4042" y="-110.7699" font-family="Helvetica,sans-Serif" font-size="12.00" fill="#000000">12</text>
    </g>
    <!-- 6&#45;&gt;2 -->
    <g id="edge10" class="edge">
      <title>6-&gt;2</title>
      <path fill="none" stroke="#05aa99" stroke-width="1.2" d="M836.2918,-239.0844C897.5753,-244.3992 998.1739,-253.1236 1069.1586,-259.2798"/>
      <polygon fill="#05aa99" stroke="#05aa99" stroke-width="1.2" points="1069.0848,-261.0299 1074.2173,-259.7185 1069.3873,-257.5429 1069.0848,-261.0299"/>
      <text text-anchor="middle" x="952.1103" y="-238.618" font-family="Helvetica,sans-Serif" font-size="12.00" fill="#000000">3</text>
    </g>
    <!-- 6&#45;&gt;8 -->
    <g id="edge9" class="edge">
      <title>6-&gt;8</title>
      <path fill="none" stroke="#05aa99" stroke-width="5.04" d="M836.2779,-212.3003C858.3745,-203.2641 884.0027,-192.7838 906.5912,-183.5465"/>
      <polygon fill="#05aa99" stroke="#05aa99" stroke-width="5.04" points="907.5695,-185.5287 911.3629,-181.5952 905.9002,-181.4468 907.5695,-185.5287"/>
      <text text-anchor="middle" x="867.3908" y="-186.0491" font-family="Helvetica,sans-Serif" font-size="12.00" fill="#000000">11</text>
    </g>
    <!-- 7&#45;&gt;2 -->
    <g id="edge17" class="edge">
      <title>7-&gt;2</title>
      <path fill="none" stroke="#05aa99" stroke-width="1.68" d="M422.4251,-250.1252C436.7402,-251.2848 451.8056,-252.4404 465.8647,-253.3971 573.186,-260.6999 600.016,-263.5072 707.5467,-266.3971 833.6251,-269.7855 979.929,-268.8394 1069.0083,-267.7174"/>
      <polygon fill="#05aa99" stroke="#05aa99" stroke-width="1.68" points="1069.2858,-269.4641 1074.263,-267.6502 1069.241,-265.9644 1069.2858,-269.4641"/>
      <text text-anchor="middle" x="744.6874" y="-270.9294" font-family="Helvetica,sans-Serif" font-size="12.00" fill="#000000">4</text>
    </g>
    <!-- 7&#45;&gt;3 -->
    <g id="edge18" class="edge">
      <title>7-&gt;3</title>
      <path fill="none" stroke="#05aa99" stroke-width="5.52" d="M419.093,-201.9995C425.7776,-197.423 432.4686,-192.8228 438.8647,-188.3971 450.9312,-180.0479 452.8832,-176.2374 465.8647,-169.3971 473.8811,-165.173 482.4442,-161.1855 491.1055,-157.4841"/>
      <polygon fill="#05aa99" stroke="#05aa99" stroke-width="5.52" points="492.2517,-159.622 495.9245,-155.4575 490.3793,-155.1697 492.2517,-159.622"/>
      <text text-anchor="middle" x="448.8578" y="-164.8845" font-family="Helvetica,sans-Serif" font-size="12.00" fill="#000000">12</text>
    </g>
    <!-- 7&#45;&gt;4 -->
    <g id="edge19" class="edge">
      <title>7-&gt;4</title>
      <path fill="none" stroke="#05aa99" stroke-width="1.68" d="M422.5817,-226.6204C521.8998,-200.6265 716.0028,-152.703 883.9399,-128.3971 949.3941,-118.9238 1024.5796,-114.1127 1078.5028,-111.7071"/>
      <polygon fill="#05aa99" stroke="#05aa99" stroke-width="1.68" points="1078.7351,-113.4487 1083.6538,-111.4817 1078.582,-109.9521 1078.7351,-113.4487"/>
      <text text-anchor="middle" x="746.5549" y="-140.5213" font-family="Helvetica,sans-Serif" font-size="12.00" fill="#000000">4</text>
    </g>
    <!-- 7&#45;&gt;6 -->
    <g id="edge20" class="edge">
      <title>7-&gt;6</title>
      <path fill="none" stroke="#05aa99" stroke-width="1.2" d="M422.596,-242.8456C504.9766,-240.9104 644.5604,-237.6314 723.4194,-235.7789"/>
      <polygon fill="#05aa99" stroke="#05aa99" stroke-width="1.2" points="723.5672,-237.526 728.5246,-235.659 723.4849,-234.027 723.5672,-237.526"/>
      <text text-anchor="middle" x="572.283" y="-228.4509" font-family="Helvetica,sans-Serif" font-size="12.00" fill="#000000">3</text>
    </g>
    <!-- 8&#45;&gt;2 -->
    <g id="edge1" class="edge">
      <title>8-&gt;2</title>
      <path fill="none" stroke="#05aa99" stroke-width="4.08" d="M1019.9512,-181.6392C1029.2369,-185.9178 1038.679,-190.5776 1047.3501,-195.3971 1071.1361,-208.6176 1096.3711,-225.7846 1116.0121,-239.9265"/>
      <polygon fill="#05aa99" stroke="#05aa99" stroke-width="4.08" points="1115.2724,-241.5946 1120.3695,-243.0802 1117.3656,-238.7026 1115.2724,-241.5946"/>
      <text text-anchor="middle" x="1068.2101" y="-198.9927" font-family="Helvetica,sans-Serif" font-size="12.00" fill="#000000">9</text>
    </g>
    <!-- 8&#45;&gt;4 -->
    <g id="edge2" class="edge">
      <title>8-&gt;4</title>
      <path fill="none" stroke="#05aa99" stroke-width="4.08" d="M1047.584,-137.3208C1057.9311,-134.5331 1068.4607,-131.6961 1078.6487,-128.9513"/>
      <polygon fill="#05aa99" stroke="#05aa99" stroke-width="4.08" points="1079.2568,-130.6362 1083.6203,-127.6118 1078.328,-127.1891 1079.2568,-130.6362"/>
      <text text-anchor="middle" x="1062.2761" y="-121.6638" font-family="Helvetica,sans-Serif" font-size="12.00" fill="#000000">9</text>
    </g>
    <!-- 9&#45;&gt;2 -->
    <g id="edge3" class="edge">
      <title>9-&gt;2</title>
      <path fill="none" stroke="#05aa99" stroke-width="2.16" d="M632.8553,-377.7029C724.7401,-383.7554 905.1679,-387.1531 1047.3501,-337.3971 1074.761,-327.8048 1101.7165,-309.0273 1121.2971,-293.1917"/>
      <polygon fill="#05aa99" stroke="#05aa99" stroke-width="2.16" points="1122.8538,-294.1783 1125.6102,-289.6545 1120.6344,-291.472 1122.8538,-294.1783"/>
      <text text-anchor="middle" x="880.4438" y="-362.1476" font-family="Helvetica,sans-Serif" font-size="12.00" fill="#000000">5</text>
    </g>
  </g>
</svg>
