<?xml version="1.0" encoding="UTF-8" standalone="no"?>
<!DOCTYPE svg PUBLIC "-//W3C//DTD SVG 1.1//EN"
 "http://www.w3.org/Graphics/SVG/1.1/DTD/svg11.dtd">
<!-- Generated by graphviz version 2.38.0 (20140413.2041)
 -->
<!-- Title: foo Pages: 1 -->
<svg width="500pt" height="170pt"
 viewBox="0.00 0.00 500.00 170.00" xmlns="http://www.w3.org/2000/svg" xmlns:xlink="http://www.w3.org/1999/xlink">
<g id="graph0" class="graph" transform="scale(1 1) rotate(0) translate(4 166)">
<title>foo</title>
<g id="a_graph0"><a xlink:title=" ">
<polygon fill="#d9d9d9" stroke="none" points="-4,4 -4,-166 496,-166 496,4 -4,4"/>
<text text-anchor="start" x="154" y="-7.2" font-family="tahoma" font-size="11.00" fill="#525252">You don&#39;t have to stick to this format</text>
</a>
</g>
<!-- improved student classwork -->
<g id="node1" class="node"><title>improved student classwork</title>
<polygon fill="#fee6ce" stroke="#fee6ce" points="316,-110 190,-110 190,-72 316,-72 316,-110"/>
<text text-anchor="start" x="198" y="-94.8" font-family="Helvetica,sans-Serif" font-size="14.00">improved student</text>
<text text-anchor="start" x="221.5" y="-79.8" font-family="Helvetica,sans-Serif" font-size="14.00">classwork</text>
</g>
<!-- improved student exam results -->
<g id="node2" class="node"><title>improved student exam results</title>
<polygon fill="#fee6ce" stroke="#fee6ce" points="492,-136 366,-136 366,-98 492,-98 492,-136"/>
<text text-anchor="start" x="374" y="-120.8" font-family="Helvetica,sans-Serif" font-size="14.00">improved student</text>
<text text-anchor="start" x="388.5" y="-105.8" font-family="Helvetica,sans-Serif" font-size="14.00">exam results</text>
</g>
<!-- improved student classwork&#45;&gt;improved student exam results -->
<g id="edge1" class="edge"><title>improved student classwork&#45;&gt;improved student exam results</title>
<path fill="none" stroke="#737373" stroke-width="2" d="M316.327,-100.313C329.148,-102.229 342.749,-104.261 355.884,-106.224"/>
<polygon fill="#737373" stroke="#737373" stroke-width="2" points="355.409,-109.692 365.816,-107.708 356.443,-102.769 355.409,-109.692"/>
</g>
<!-- student workshop 1 held -->
<g id="node3" class="node"><title>student workshop 1 held</title>
<polygon fill="#fee6ce" stroke="#fee6ce" points="140,-110 0,-110 0,-72 140,-72 140,-110"/>
<text text-anchor="start" x="8" y="-94.8" font-family="Helvetica,sans-Serif" font-size="14.00">student workshop 1</text>
<text text-anchor="start" x="56" y="-79.8" font-family="Helvetica,sans-Serif" font-size="14.00">held</text>
</g>
<!-- student workshop 1 held&#45;&gt;improved student classwork -->
<g id="edge2" class="edge"><title>student workshop 1 held&#45;&gt;improved student classwork</title>
<path fill="none" stroke="#737373" stroke-width="2" d="M140.203,-91C153.118,-91 166.646,-91 179.652,-91"/>
<polygon fill="#737373" stroke="#737373" stroke-width="2" points="179.949,-94.5001 189.949,-91 179.949,-87.5001 179.949,-94.5001"/>
</g>
<!-- students receive laptops -->
<g id="node4" class="node"><title>students receive laptops</title>
<polygon fill="#fee6ce" stroke="#fee6ce" points="130.5,-58 9.5,-58 9.5,-20 130.5,-20 130.5,-58"/>
<text text-anchor="start" x="17.5" y="-42.8" font-family="Helvetica,sans-Serif" font-size="14.00">students receive</text>
<text text-anchor="start" x="46.5" y="-27.8" font-family="Helvetica,sans-Serif" font-size="14.00">laptops</text>
</g>
<!-- students receive laptops&#45;&gt;improved student classwork -->
<g id="edge3" class="edge"><title>students receive laptops&#45;&gt;improved student classwork</title>
<path fill="none" stroke="#737373" stroke-width="2" d="M130.517,-56.0988C146.302,-60.6338 163.518,-65.5798 179.895,-70.2847"/>
<polygon fill="#737373" stroke="#737373" stroke-width="2" points="179.385,-73.7798 189.963,-73.1772 181.318,-67.0519 179.385,-73.7798"/>
</g>
<!-- improved student exam skills -->
<g id="node5" class="node"><title>improved student exam skills</title>
<polygon fill="#fee6ce" stroke="#fee6ce" points="316,-162 190,-162 190,-124 316,-124 316,-162"/>
<text text-anchor="start" x="198" y="-146.8" font-family="Helvetica,sans-Serif" font-size="14.00">improved student</text>
<text text-anchor="start" x="218" y="-131.8" font-family="Helvetica,sans-Serif" font-size="14.00">exam skills</text>
</g>
<!-- improved student exam skills&#45;&gt;improved student exam results -->
<g id="edge4" class="edge"><title>improved student exam skills&#45;&gt;improved student exam results</title>
<path fill="none" stroke="#737373" stroke-width="2" d="M316.327,-133.687C329.148,-131.771 342.749,-129.739 355.884,-127.776"/>
<polygon fill="#737373" stroke="#737373" stroke-width="2" points="356.443,-131.231 365.816,-126.292 355.409,-124.308 356.443,-131.231"/>
</g>
<!-- student workshop 2 held -->
<g id="node6" class="node"><title>student workshop 2 held</title>
<polygon fill="#fee6ce" stroke="#fee6ce" points="140,-162 0,-162 0,-124 140,-124 140,-162"/>
<text text-anchor="start" x="8" y="-146.8" font-family="Helvetica,sans-Serif" font-size="14.00">student workshop 2</text>
<text text-anchor="start" x="56" y="-131.8" font-family="Helvetica,sans-Serif" font-size="14.00">held</text>
</g>
<!-- student workshop 2 held&#45;&gt;improved student exam skills -->
<g id="edge5" class="edge"><title>student workshop 2 held&#45;&gt;improved student exam skills</title>
<path fill="none" stroke="#737373" stroke-width="2" d="M140.203,-143C153.118,-143 166.646,-143 179.652,-143"/>
<polygon fill="#737373" stroke="#737373" stroke-width="2" points="179.949,-146.5 189.949,-143 179.949,-139.5 179.949,-146.5"/>
</g>
</g>
</svg>
