<?xml version="1.0" encoding="UTF-8" standalone="no"?>
<!DOCTYPE svg PUBLIC "-//W3C//DTD SVG 1.1//EN"
 "http://www.w3.org/Graphics/SVG/1.1/DTD/svg11.dtd">
<!-- Generated by graphviz version 2.38.0 (20140413.2041)
 -->
<!-- Title: foo Pages: 1 -->
<svg width="340pt" height="253pt"
 viewBox="0.00 0.00 340.00 253.00" xmlns="http://www.w3.org/2000/svg" xmlns:xlink="http://www.w3.org/1999/xlink">
<g id="graph0" class="graph" transform="scale(1 1) rotate(0) translate(4 249)">
<title>foo</title>
<g id="a_graph0"><a xlink:title=" ">
<polygon fill="white" stroke="none" points="-4,4 -4,-249 336,-249 336,4 -4,4"/>
</a>
</g>
<g id="clust1" class="cluster"><title>cluster_ConsequenceVariable</title>
<g id="a_clust1"><a xlink:title=" ">
<path fill="#efedf5" stroke="#efedf5" d="M230,-8C230,-8 312,-8 312,-8 318,-8 324,-14 324,-20 324,-20 324,-208 324,-208 324,-214 318,-220 312,-220 312,-220 230,-220 230,-220 224,-220 218,-214 218,-208 218,-208 218,-20 218,-20 218,-14 224,-8 230,-8"/>
<text text-anchor="start" x="226" y="-204.8" font-family="arial" font-size="14.00">Consequence</text>
<text text-anchor="start" x="245" y="-189.8" font-family="arial" font-size="14.00">Variable</text>
</a>
</g>
</g>
<g id="clust2" class="cluster"><title>cluster_InfluenceVariables</title>
<g id="a_clust2"><a xlink:title=" ">
<path fill="#efedf5" stroke="#efedf5" d="M20,-33C20,-33 109,-33 109,-33 115,-33 121,-39 121,-45 121,-45 121,-225 121,-225 121,-231 115,-237 109,-237 109,-237 20,-237 20,-237 14,-237 8,-231 8,-225 8,-225 8,-45 8,-45 8,-39 14,-33 20,-33"/>
<text text-anchor="start" x="16.5" y="-221.8" font-family="arial" font-size="14.00">Influence</text>
<text text-anchor="start" x="16" y="-206.8" font-family="arial" font-size="14.00">Variables</text>
</a>
</g>
</g>
<!-- Student feels they live up to expectations -->
<g id="node1" class="node"><title>Student feels they live up to expectations</title>
<polygon fill="#e5f5e0" stroke="#e5f5e0" stroke-width="2" points="113,-191 16,-191 16,-123 113,-123 113,-191"/>
<text text-anchor="start" x="40" y="-175.8" font-family="arial" font-size="14.00">Student</text>
<text text-anchor="start" x="33.5" y="-160.8" font-family="arial" font-size="14.00">feels they</text>
<text text-anchor="start" x="36" y="-145.8" font-family="arial" font-size="14.00">live up to</text>
<text text-anchor="start" x="24" y="-130.8" font-family="arial" font-size="14.00">expectations</text>
</g>
<!-- Student satisfaction with school. Function: &#39;same direction&#39;//(Evidence: see the research from 2015) -->
<g id="node2" class="node"><title>Student satisfaction with school. Function: &#39;same direction&#39;//(Evidence: see the research from 2015)</title>
<polygon fill="#e5f5e0" stroke="#e5f5e0" stroke-width="2" points="316,-174 226,-174 226,-16 316,-16 316,-174"/>
<text text-anchor="start" x="246.5" y="-158.8" font-family="arial" font-size="14.00">Student</text>
<text text-anchor="start" x="235" y="-143.8" font-family="arial" font-size="14.00">satisfaction</text>
<text text-anchor="start" x="234" y="-128.8" font-family="arial" font-size="14.00">with school.</text>
<text text-anchor="start" x="242" y="-113.8" font-family="arial" font-size="14.00">Function:</text>
<text text-anchor="start" x="251.5" y="-98.8" font-family="arial" font-size="14.00">&#39;same</text>
<text text-anchor="start" x="242" y="-83.8" font-family="arial" font-size="14.00">direction&#39;</text>
<text text-anchor="start" x="237" y="-68.8" font-family="arial" font-size="14.00">(Evidence:</text>
<text text-anchor="start" x="247" y="-53.8" font-family="arial" font-size="14.00">see the</text>
<text text-anchor="start" x="243" y="-38.8" font-family="arial" font-size="14.00">research</text>
<text text-anchor="start" x="235.5" y="-23.8" font-family="arial" font-size="14.00">from 2015)</text>
</g>
<!-- Student feels they live up to expectations&#45;&gt;Student satisfaction with school. Function: &#39;same direction&#39;//(Evidence: see the research from 2015) -->
<g id="edge1" class="edge"><title>Student feels they live up to expectations&#45;&gt;Student satisfaction with school. Function: &#39;same direction&#39;//(Evidence: see the research from 2015)</title>
<path fill="none" stroke="#41ab5d" d="M113.188,-142.542C143.992,-133.203 184.14,-121.031 216.1,-111.341"/>
<polygon fill="#41ab5d" stroke="#41ab5d" points="217.182,-114.671 225.737,-108.42 215.151,-107.972 217.182,-114.671"/>
<text text-anchor="start" x="140" y="-196.8" font-family="Times New Roman,serif" font-size="14.00">(Evidence:</text>
<text text-anchor="start" x="160" y="-181.8" font-family="Times New Roman,serif" font-size="14.00">see</text>
<text text-anchor="start" x="142" y="-166.8" font-family="Times New Roman,serif" font-size="14.00">additional</text>
<text text-anchor="start" x="146" y="-151.8" font-family="Times New Roman,serif" font-size="14.00">research</text>
<text text-anchor="start" x="138" y="-136.8" font-family="Times New Roman,serif" font-size="14.00">from 2016)</text>
</g>
<!-- Student feels supported and liked -->
<g id="node3" class="node"><title>Student feels supported and liked</title>
<polygon fill="#e5f5e0" stroke="#e5f5e0" stroke-width="2" points="105,-109 24,-109 24,-41 105,-41 105,-109"/>
<text text-anchor="start" x="40" y="-93.8" font-family="arial" font-size="14.00">Student</text>
<text text-anchor="start" x="48.5" y="-78.8" font-family="arial" font-size="14.00">feels</text>
<text text-anchor="start" x="32" y="-63.8" font-family="arial" font-size="14.00">supported</text>
<text text-anchor="start" x="36" y="-48.8" font-family="arial" font-size="14.00">and liked</text>
</g>
<!-- Student feels supported and liked&#45;&gt;Student satisfaction with school. Function: &#39;same direction&#39;//(Evidence: see the research from 2015) -->
<g id="edge2" class="edge"><title>Student feels supported and liked&#45;&gt;Student satisfaction with school. Function: &#39;same direction&#39;//(Evidence: see the research from 2015)</title>
<path fill="none" stroke="#41ab5d" d="M105.415,-78.9037C136.942,-81.987 181.253,-86.3206 215.957,-89.7146"/>
<polygon fill="#41ab5d" stroke="#41ab5d" points="215.638,-93.2 225.931,-90.6901 216.32,-86.2333 215.638,-93.2"/>
</g>
</g>
</svg>
