<?xml version="1.0" encoding="UTF-8" standalone="no"?>
<!DOCTYPE svg PUBLIC "-//W3C//DTD SVG 1.1//EN"
 "http://www.w3.org/Graphics/SVG/1.1/DTD/svg11.dtd">
<!-- Generated by graphviz version 2.38.0 (20140413.2041)
 -->
<!-- Title: foo Pages: 1 -->
<svg width="521pt" height="187pt"
 viewBox="0.00 0.00 521.00 187.00" xmlns="http://www.w3.org/2000/svg" xmlns:xlink="http://www.w3.org/1999/xlink">
<g id="graph0" class="graph" transform="scale(1 1) rotate(0) translate(4 183)">
<title>foo</title>
<g id="a_graph0"><a xlink:title=" ">
<polygon fill="white" stroke="none" points="-4,4 -4,-183 517,-183 517,4 -4,4"/>
</a>
</g>
<!-- axsxdf -->
<!-- ~ Effectiveness of volunteer work (Influence: medium excitement level is best) -->
<g id="node2" class="node"><title>~ Effectiveness of volunteer work (Influence: medium excitement level is best)</title>
<polygon fill="#e5f5e0" stroke="#e5f5e0" stroke-width="2" points="320,-179 182,-179 182,-96 320,-96 320,-179"/>
<text text-anchor="start" x="201" y="-163.8" font-family="arial" font-size="14.00">~ Effectiveness</text>
<text text-anchor="start" x="197" y="-148.8" font-family="arial" font-size="14.00">of volunteer work</text>
<text text-anchor="start" x="190" y="-133.8" font-family="arial" font-size="14.00">(Influence: medium</text>
<text text-anchor="start" x="192.5" y="-118.8" font-family="arial" font-size="14.00">excitement level is</text>
<text text-anchor="start" x="234.5" y="-103.8" font-family="arial" font-size="14.00">best)</text>
</g>
<!-- axsxdf&#45;&gt;~ Effectiveness of volunteer work (Influence: medium excitement level is best) -->
<g id="edge1" class="edge"><title>axsxdf&#45;&gt;~ Effectiveness of volunteer work (Influence: medium excitement level is best)</title>
<path fill="none" stroke="#41ab5d" stroke-width="0" d="M71.5236,-117.019C85.6592,-118.641 130.521,-123.789 171.726,-128.518"/>
<polygon fill="#41ab5d" stroke="#41ab5d" stroke-width="0" points="171.491,-132.014 181.825,-129.677 172.289,-125.059 171.491,-132.014"/>
</g>
<!-- ~ Excitement level of volunteers !self -->
<g id="node3" class="node"><title>~ Excitement level of volunteers !self</title>
<polygon fill="#e5f5e0" stroke="#e5f5e0" stroke-width="2" points="132,-81.5 0,-81.5 0,-43.5 132,-43.5 132,-81.5"/>
<text text-anchor="start" x="8" y="-66.3" font-family="arial" font-size="14.00">~ Excitement level</text>
<text text-anchor="start" x="17.5" y="-51.3" font-family="arial" font-size="14.00">of volunteers ↺</text>
</g>
<!-- ~ Excitement level of volunteers !self&#45;&gt;~ Effectiveness of volunteer work (Influence: medium excitement level is best) -->
<g id="edge2" class="edge"><title>~ Excitement level of volunteers !self&#45;&gt;~ Effectiveness of volunteer work (Influence: medium excitement level is best)</title>
<path fill="none" stroke="#41ab5d" d="M113.652,-81.6197C131.479,-88.9256 152.322,-97.4681 172.272,-105.644"/>
<polygon fill="#41ab5d" stroke="#41ab5d" points="171.087,-108.941 181.667,-109.495 173.742,-102.464 171.087,-108.941"/>
</g>
<!-- ~ Staff observation of excitement level -->
<g id="node5" class="node"><title>~ Staff observation of excitement level</title>
<polygon fill="#e5f5e0" stroke="#e5f5e0" stroke-width="2" points="319,-81.5 183,-81.5 183,-43.5 319,-43.5 319,-81.5"/>
<text text-anchor="start" x="191" y="-66.3" font-family="arial" font-size="14.00">~ Staff observation</text>
<text text-anchor="start" x="191.5" y="-51.3" font-family="arial" font-size="14.00">of excitement level</text>
</g>
<!-- ~ Excitement level of volunteers !self&#45;&gt;~ Staff observation of excitement level -->
<g id="edge5" class="edge"><title>~ Excitement level of volunteers !self&#45;&gt;~ Staff observation of excitement level</title>
<path fill="none" stroke="#41ab5d" d="M132.034,-62.5C145.133,-62.5 159.023,-62.5 172.498,-62.5"/>
<polygon fill="#41ab5d" stroke="#41ab5d" points="172.702,-66.0001 182.702,-62.5 172.702,-59.0001 172.702,-66.0001"/>
</g>
<!-- ~ Inspirational input from staff (Influence: optimise excitement level) !optimise -->
<g id="node4" class="node"><title>~ Inspirational input from staff (Influence: optimise excitement level) !optimise</title>
<polygon fill="#e5f5e0" stroke="#e5f5e0" stroke-width="2" points="513,-83 370,-83 370,-0 513,-0 513,-83"/>
<text text-anchor="start" x="397.5" y="-67.8" font-family="arial" font-size="14.00">~ Inspirational</text>
<text text-anchor="start" x="394" y="-52.8" font-family="arial" font-size="14.00">input from staff</text>
<text text-anchor="start" x="408" y="-37.8" font-family="arial" font-size="14.00">(Influence:</text>
<text text-anchor="start" x="378" y="-22.8" font-family="arial" font-size="14.00">optimise excitement</text>
<text text-anchor="start" x="417" y="-7.8" font-family="arial" font-size="14.00">level) 🞕</text>
</g>
<!-- ~ Inspirational input from staff (Influence: optimise excitement level) !optimise&#45;&gt;~ Excitement level of volunteers !self -->
<g id="edge3" class="edge"><title>~ Inspirational input from staff (Influence: optimise excitement level) !optimise&#45;&gt;~ Excitement level of volunteers !self</title>
<path fill="none" stroke="#41ab5d" d="M369.78,-35.1833C317.697,-31.7321 245.234,-29.4409 182,-36.5 169.031,-37.9477 155.39,-40.2868 142.216,-42.9834"/>
<polygon fill="#41ab5d" stroke="#41ab5d" points="141.302,-39.5994 132.251,-45.1064 142.761,-46.4457 141.302,-39.5994"/>
</g>
<!-- ~ Staff observation of excitement level&#45;&gt;~ Inspirational input from staff (Influence: optimise excitement level) !optimise -->
<g id="edge4" class="edge"><title>~ Staff observation of excitement level&#45;&gt;~ Inspirational input from staff (Influence: optimise excitement level) !optimise</title>
<path fill="none" stroke="#41ab5d" d="M319.254,-55.0075C332.314,-53.5526 346.129,-52.0135 359.574,-50.5156"/>
<polygon fill="#41ab5d" stroke="#41ab5d" points="360.214,-53.966 369.765,-49.3802 359.439,-47.0091 360.214,-53.966"/>
</g>
</g>
</svg>
