<?xml version="1.0" encoding="UTF-8" standalone="no"?>
<!DOCTYPE svg PUBLIC "-//W3C//DTD SVG 1.1//EN"
 "http://www.w3.org/Graphics/SVG/1.1/DTD/svg11.dtd">
<!-- Generated by graphviz version 2.38.0 (20140413.2041)
 -->
<!-- Title: foo Pages: 1 -->
<svg width="1038pt" height="249pt"
 viewBox="0.00 0.00 1038.00 249.00" xmlns="http://www.w3.org/2000/svg" xmlns:xlink="http://www.w3.org/1999/xlink">
<g id="graph0" class="graph" transform="scale(1 1) rotate(0) translate(4 245)">
<title>foo</title>
<g id="a_graph0"><a xlink:title=" ">
<polygon fill="white" stroke="none" points="-4,4 -4,-245 1034,-245 1034,4 -4,4"/>
</a>
</g>
<g id="clust1" class="cluster"><title>cluster_Foreachof20teachers</title>
<g id="a_clust1"><a xlink:title=" ">
<path fill="#fee6ce" stroke="#dadaeb" d="M20,-94C20,-94 708,-94 708,-94 714,-94 720,-100 720,-106 720,-106 720,-221 720,-221 720,-227 714,-233 708,-233 708,-233 20,-233 20,-233 14,-233 8,-227 8,-221 8,-221 8,-106 8,-106 8,-100 14,-94 20,-94"/>
<text text-anchor="start" x="16" y="-217.8" font-family="arial" font-size="14.00">For each of 20 teachers</text>
</a>
</g>
</g>
<!-- Teaching quality ((improved)) !lohi &#160;&#160;Teacher: !heart -->
<g id="node1" class="node"><title>Teaching quality ((improved)) !lohi &#160;&#160;Teacher: !heart</title>
<polygon fill="#e5f5e0" stroke="#e5f5e0" stroke-width="2" points="712,-202 496,-202 496,-166 712,-166 712,-202"/>
<text text-anchor="start" x="504" y="-187.8" font-family="arial" font-size="14.00">Teaching quality </text>
<text text-anchor="start" x="610" y="-187.8" font-family="arial" font-size="14.00" fill="green">((improved))</text>
<text text-anchor="start" x="688" y="-187.8" font-family="arial" font-size="14.00"> ◪</text>
<text text-anchor="start" x="569" y="-173.8" font-family="arial" font-size="14.00">Teacher: </text>
<text text-anchor="start" x="630" y="-173.8" font-family="arial" font-size="14.00" fill="orange">♥</text>
</g>
<!-- Average teaching quality ((improved)) !noyes &#160;&#160;Ministry: !heart -->
<g id="node2" class="node"><title>Average teaching quality ((improved)) !noyes &#160;&#160;Ministry: !heart</title>
<polygon fill="none" stroke="#e5f5e0" stroke-width="2" stroke-dasharray="5,2" points="1030,-227 762,-227 762,-191 1030,-191 1030,-227"/>
<text text-anchor="start" x="770" y="-212.8" font-family="arial" font-size="14.00">Average teaching quality </text>
<text text-anchor="start" x="928" y="-212.8" font-family="arial" font-size="14.00" fill="green">((improved))</text>
<text text-anchor="start" x="1006" y="-212.8" font-family="arial" font-size="14.00"> ◨</text>
<text text-anchor="start" x="864" y="-198.8" font-family="arial" font-size="14.00">Ministry: </text>
<text text-anchor="start" x="919" y="-198.8" font-family="arial" font-size="14.00" fill="orange">♥</text>
</g>
<!-- Teaching quality ((improved)) !lohi &#160;&#160;Teacher: !heart&#45;&gt;Average teaching quality ((improved)) !noyes &#160;&#160;Ministry: !heart -->
<g id="edge1" class="edge"><title>Teaching quality ((improved)) !lohi &#160;&#160;Teacher: !heart&#45;&gt;Average teaching quality ((improved)) !noyes &#160;&#160;Ministry: !heart</title>
<path fill="none" stroke="#41ab5d" stroke-dasharray="5,2" d="M712.161,-193.238C725.019,-194.346 738.303,-195.492 751.57,-196.635"/>
<polygon fill="#41ab5d" stroke="#41ab5d" points="751.44,-200.137 761.704,-197.509 752.042,-193.163 751.44,-200.137"/>
</g>
<!-- ((More)) outstanding teachers !lohi &#160;&#160;Trainer: !heart -->
<g id="node3" class="node"><title>((More)) outstanding teachers !lohi &#160;&#160;Trainer: !heart</title>
<polygon fill="none" stroke="#e5f5e0" stroke-width="2" stroke-dasharray="5,2" points="1005,-177 787,-177 787,-141 1005,-141 1005,-177"/>
<text text-anchor="start" x="795" y="-162.8" font-family="arial" font-size="14.00" fill="green">((More))</text>
<text text-anchor="start" x="846" y="-162.8" font-family="arial" font-size="14.00"> outstanding teachers ◪</text>
<text text-anchor="start" x="865.5" y="-148.8" font-family="arial" font-size="14.00">Trainer: </text>
<text text-anchor="start" x="917.5" y="-148.8" font-family="arial" font-size="14.00" fill="orange">♥</text>
</g>
<!-- Teaching quality ((improved)) !lohi &#160;&#160;Teacher: !heart&#45;&gt;((More)) outstanding teachers !lohi &#160;&#160;Trainer: !heart -->
<g id="edge2" class="edge"><title>Teaching quality ((improved)) !lohi &#160;&#160;Teacher: !heart&#45;&gt;((More)) outstanding teachers !lohi &#160;&#160;Trainer: !heart</title>
<path fill="none" stroke="#41ab5d" stroke-dasharray="5,2" d="M712.161,-174.762C733.194,-172.949 755.369,-171.037 776.74,-169.195"/>
<polygon fill="#41ab5d" stroke="#41ab5d" points="777.164,-172.671 786.826,-168.325 776.563,-165.697 777.164,-172.671"/>
</g>
<!-- tr -->
<g id="node4" class="node"><title>tr</title>
<polygon fill="#e5f5e0" stroke="#e5f5e0" stroke-width="2" points="383.5,-174 256.5,-174 256.5,-136 383.5,-136 383.5,-174"/>
<text text-anchor="start" x="264.5" y="-158.8" font-family="arial" font-size="14.00">Teacher receives</text>
<text text-anchor="start" x="289.5" y="-143.8" font-family="arial" font-size="14.00">training ◨</text>
</g>
<!-- tr&#45;&gt;Teaching quality ((improved)) !lohi &#160;&#160;Teacher: !heart -->
<g id="edge3" class="edge"><title>tr&#45;&gt;Teaching quality ((improved)) !lohi &#160;&#160;Teacher: !heart</title>
<path fill="none" stroke="#41ab5d" d="M383.585,-161.436C413.639,-164.527 450.663,-168.334 485.68,-171.935"/>
<polygon fill="#41ab5d" stroke="#41ab5d" points="485.677,-175.453 495.983,-172.995 486.393,-168.49 485.677,-175.453"/>
</g>
<!-- Pay ((increased)) &#160;&#160;Teacher: !heart &#160;&#160;Ministry: !frown -->
<g id="node6" class="node"><title>Pay ((increased)) &#160;&#160;Teacher: !heart &#160;&#160;Ministry: !frown</title>
<polygon fill="#e5f5e0" stroke="#e5f5e0" stroke-width="2" points="666.5,-152 541.5,-152 541.5,-102 666.5,-102 666.5,-152"/>
<text text-anchor="start" x="549.5" y="-137.8" font-family="arial" font-size="14.00">Pay </text>
<text text-anchor="start" x="577.5" y="-137.8" font-family="arial" font-size="14.00" fill="green">((increased))</text>
<text text-anchor="start" x="569" y="-123.8" font-family="arial" font-size="14.00">Teacher: </text>
<text text-anchor="start" x="630" y="-123.8" font-family="arial" font-size="14.00" fill="orange">♥</text>
<text text-anchor="start" x="570.5" y="-109.8" font-family="arial" font-size="14.00">Ministry: ☹</text>
</g>
<!-- tr&#45;&gt;Pay ((increased)) &#160;&#160;Teacher: !heart &#160;&#160;Ministry: !frown -->
<g id="edge5" class="edge"><title>tr&#45;&gt;Pay ((increased)) &#160;&#160;Teacher: !heart &#160;&#160;Ministry: !frown</title>
<path fill="none" stroke="#41ab5d" d="M383.585,-148.786C427.182,-144.457 485.445,-138.672 530.976,-134.151"/>
<polygon fill="#41ab5d" stroke="#41ab5d" points="531.471,-137.62 541.076,-133.149 530.779,-130.654 531.471,-137.62"/>
</g>
<!-- Teacher: &#160;!do &#160;&#160;Attends course !noyes -->
<g id="node5" class="node"><title>Teacher: &#160;!do &#160;&#160;Attends course !noyes</title>
<polygon fill="#e5f5e0" stroke="#e5f5e0" stroke-width="2" points="144,-173 16,-173 16,-137 144,-137 144,-173"/>
<text text-anchor="start" x="40" y="-158.8" font-family="arial" font-size="14.00">Teacher: &#160;</text>
<text text-anchor="start" x="104" y="-158.8" font-family="arial" font-size="14.00" fill="green">▶ </text>
<text text-anchor="start" x="24" y="-144.8" font-family="arial" font-size="14.00">Attends course ◨</text>
</g>
<!-- Teacher: &#160;!do &#160;&#160;Attends course !noyes&#45;&gt;tr -->
<g id="edge4" class="edge"><title>Teacher: &#160;!do &#160;&#160;Attends course !noyes&#45;&gt;tr</title>
<path fill="none" stroke="#41ab5d" d="M144.155,-155C175.469,-155 213.456,-155 246.012,-155"/>
<polygon fill="#41ab5d" stroke="#41ab5d" points="246.376,-158.5 256.376,-155 246.376,-151.5 246.376,-158.5"/>
</g>
<!-- Ministry: !do &#160;&#160;Provides in&#45;service teacher training !noyes -->
<g id="node7" class="node"><title>Ministry: !do &#160;&#160;Provides in&#45;service teacher training !noyes</title>
<polygon fill="#e5f5e0" stroke="#e5f5e0" stroke-width="2" points="446,-86 194,-86 194,-50 446,-50 446,-86"/>
<text text-anchor="start" x="284.5" y="-71.8" font-family="arial" font-size="14.00">Ministry: </text>
<text text-anchor="start" x="339.5" y="-71.8" font-family="arial" font-size="14.00" fill="green">▶ </text>
<text text-anchor="start" x="202" y="-57.8" font-family="arial" font-size="14.00">Provides in&#45;service teacher training ◨</text>
</g>
<!-- Ministry: !do &#160;&#160;Provides in&#45;service teacher training !noyes&#45;&gt;Pay ((increased)) &#160;&#160;Teacher: !heart &#160;&#160;Ministry: !frown -->
<g id="edge6" class="edge"><title>Ministry: !do &#160;&#160;Provides in&#45;service teacher training !noyes&#45;&gt;Pay ((increased)) &#160;&#160;Teacher: !heart &#160;&#160;Ministry: !frown</title>
<path fill="none" stroke="#41ab5d" d="M421.029,-86.006C429.485,-87.6493 437.896,-89.3262 446,-91 473.926,-96.7682 504.516,-103.653 531.216,-109.85"/>
<polygon fill="#41ab5d" stroke="#41ab5d" points="530.711,-113.326 541.244,-112.187 532.3,-106.509 530.711,-113.326"/>
</g>
<!-- Trainer: !do &#160;&#160;Provides pro&#45;bono training !noyes !heart -->
<g id="node8" class="node"><title>Trainer: !do &#160;&#160;Provides pro&#45;bono training !noyes !heart</title>
<polygon fill="#e5f5e0" stroke="#e5f5e0" stroke-width="2" points="425.5,-36 214.5,-36 214.5,-0 425.5,-0 425.5,-36"/>
<text text-anchor="start" x="286" y="-21.8" font-family="arial" font-size="14.00">Trainer: </text>
<text text-anchor="start" x="338" y="-21.8" font-family="arial" font-size="14.00" fill="green">▶ </text>
<text text-anchor="start" x="222.5" y="-7.8" font-family="arial" font-size="14.00">Provides pro&#45;bono training ◨ </text>
<text text-anchor="start" x="408.5" y="-7.8" font-family="arial" font-size="14.00" fill="orange">♥</text>
</g>
<!-- Trainer: !do &#160;&#160;Provides pro&#45;bono training !noyes !heart&#45;&gt;Pay ((increased)) &#160;&#160;Teacher: !heart &#160;&#160;Ministry: !frown -->
<g id="edge7" class="edge"><title>Trainer: !do &#160;&#160;Provides pro&#45;bono training !noyes !heart&#45;&gt;Pay ((increased)) &#160;&#160;Teacher: !heart &#160;&#160;Ministry: !frown</title>
<path fill="none" stroke="#41ab5d" d="M423.992,-36.0636C431.511,-38.1535 438.917,-40.4599 446,-43 484.402,-56.7719 524.934,-78.6682 555.195,-96.6524"/>
<polygon fill="#41ab5d" stroke="#41ab5d" points="553.47,-99.6993 563.844,-101.852 557.077,-93.7 553.47,-99.6993"/>
</g>
</g>
</svg>
