<?xml version="1.0" encoding="UTF-8" standalone="no"?>
<!DOCTYPE svg PUBLIC "-//W3C//DTD SVG 1.1//EN"
 "http://www.w3.org/Graphics/SVG/1.1/DTD/svg11.dtd">
<!-- Generated by graphviz version 2.38.0 (20140413.2041)
 -->
<!-- Title: foo Pages: 1 -->
<svg width="519pt" height="187pt"
 viewBox="0.00 0.00 519.00 187.00" xmlns="http://www.w3.org/2000/svg" xmlns:xlink="http://www.w3.org/1999/xlink">
<g id="graph0" class="graph" transform="scale(1 1) rotate(0) translate(4 183)">
<title>foo</title>
<g id="a_graph0"><a xlink:title=" ">
<polygon fill="white" stroke="none" points="-4,4 -4,-183 515,-183 515,4 -4,4"/>
</a>
</g>
<!-- axsxdf -->
<!-- ~ Effectiveness of volunteer work (Function: medium excitement level is best) -->
<g id="node2" class="node"><title>~ Effectiveness of volunteer work (Function: medium excitement level is best)</title>
<polygon fill="#e5f5e0" stroke="#e5f5e0" stroke-width="2" points="317,-179 183,-179 183,-96 317,-96 317,-179"/>
<text text-anchor="start" x="200" y="-163.8" font-family="arial" font-size="14.00">~ Effectiveness</text>
<text text-anchor="start" x="196" y="-148.8" font-family="arial" font-size="14.00">of volunteer work</text>
<text text-anchor="start" x="191" y="-133.8" font-family="arial" font-size="14.00">(Function: medium</text>
<text text-anchor="start" x="191.5" y="-118.8" font-family="arial" font-size="14.00">excitement level is</text>
<text text-anchor="start" x="233.5" y="-103.8" font-family="arial" font-size="14.00">best)</text>
</g>
<!-- axsxdf&#45;&gt;~ Effectiveness of volunteer work (Function: medium excitement level is best) -->
<g id="edge1" class="edge"><title>axsxdf&#45;&gt;~ Effectiveness of volunteer work (Function: medium excitement level is best)</title>
<path fill="none" stroke="#41ab5d" stroke-width="0" d="M71.4989,-117.019C85.709,-118.659 131.14,-123.901 172.479,-128.671"/>
<polygon fill="#41ab5d" stroke="#41ab5d" stroke-width="0" points="172.267,-132.169 182.602,-129.839 173.069,-125.215 172.267,-132.169"/>
</g>
<!-- ~ Excitement level of volunteers !self -->
<g id="node3" class="node"><title>~ Excitement level of volunteers !self</title>
<polygon fill="#e5f5e0" stroke="#e5f5e0" stroke-width="2" points="132,-81.5 0,-81.5 0,-43.5 132,-43.5 132,-81.5"/>
<text text-anchor="start" x="8" y="-66.3" font-family="arial" font-size="14.00">~ Excitement level</text>
<text text-anchor="start" x="17.5" y="-51.3" font-family="arial" font-size="14.00">of volunteers ↺</text>
</g>
<!-- ~ Excitement level of volunteers !self&#45;&gt;~ Effectiveness of volunteer work (Function: medium excitement level is best) -->
<g id="edge2" class="edge"><title>~ Excitement level of volunteers !self&#45;&gt;~ Effectiveness of volunteer work (Function: medium excitement level is best)</title>
<path fill="none" stroke="#41ab5d" d="M113.397,-81.6197C131.663,-89.1469 153.114,-97.9866 173.497,-106.386"/>
<polygon fill="#41ab5d" stroke="#41ab5d" points="172.192,-109.634 182.771,-110.208 174.859,-103.162 172.192,-109.634"/>
</g>
<!-- ~ Staff observation of excitement level -->
<g id="node5" class="node"><title>~ Staff observation of excitement level</title>
<polygon fill="#e5f5e0" stroke="#e5f5e0" stroke-width="2" points="318,-81.5 182,-81.5 182,-43.5 318,-43.5 318,-81.5"/>
<text text-anchor="start" x="190" y="-66.3" font-family="arial" font-size="14.00">~ Staff observation</text>
<text text-anchor="start" x="190.5" y="-51.3" font-family="arial" font-size="14.00">of excitement level</text>
</g>
<!-- ~ Excitement level of volunteers !self&#45;&gt;~ Staff observation of excitement level -->
<g id="edge5" class="edge"><title>~ Excitement level of volunteers !self&#45;&gt;~ Staff observation of excitement level</title>
<path fill="none" stroke="#41ab5d" d="M132.192,-62.5C144.908,-62.5 158.358,-62.5 171.429,-62.5"/>
<polygon fill="#41ab5d" stroke="#41ab5d" points="171.81,-66.0001 181.81,-62.5 171.81,-59.0001 171.81,-66.0001"/>
</g>
<!-- ~ Inspirational input from staff (Function: optimise excitement level) !optimise -->
<g id="node4" class="node"><title>~ Inspirational input from staff (Function: optimise excitement level) !optimise</title>
<polygon fill="#e5f5e0" stroke="#e5f5e0" stroke-width="2" points="511,-83 368,-83 368,-0 511,-0 511,-83"/>
<text text-anchor="start" x="395.5" y="-67.8" font-family="arial" font-size="14.00">~ Inspirational</text>
<text text-anchor="start" x="407.5" y="-52.8" font-family="arial" font-size="14.00">input from</text>
<text text-anchor="start" x="392.5" y="-37.8" font-family="arial" font-size="14.00">staff (Function:</text>
<text text-anchor="start" x="376" y="-22.8" font-family="arial" font-size="14.00">optimise excitement</text>
<text text-anchor="start" x="415" y="-7.8" font-family="arial" font-size="14.00">level) 🞕</text>
</g>
<!-- ~ Inspirational input from staff (Function: optimise excitement level) !optimise&#45;&gt;~ Excitement level of volunteers !self -->
<g id="edge3" class="edge"><title>~ Inspirational input from staff (Function: optimise excitement level) !optimise&#45;&gt;~ Excitement level of volunteers !self</title>
<path fill="none" stroke="#41ab5d" d="M367.78,-35.1796C316.14,-31.7649 244.524,-29.5202 182,-36.5 169.031,-37.9477 155.39,-40.2868 142.216,-42.9834"/>
<polygon fill="#41ab5d" stroke="#41ab5d" points="141.302,-39.5994 132.251,-45.1064 142.761,-46.4457 141.302,-39.5994"/>
</g>
<!-- ~ Staff observation of excitement level&#45;&gt;~ Inspirational input from staff (Function: optimise excitement level) !optimise -->
<g id="edge4" class="edge"><title>~ Staff observation of excitement level&#45;&gt;~ Inspirational input from staff (Function: optimise excitement level) !optimise</title>
<path fill="none" stroke="#41ab5d" d="M318.162,-54.9778C330.974,-53.5429 344.508,-52.0272 357.693,-50.5504"/>
<polygon fill="#41ab5d" stroke="#41ab5d" points="358.142,-54.022 367.69,-49.4307 357.363,-47.0655 358.142,-54.022"/>
</g>
</g>
</svg>
