<?xml version="1.0" encoding="UTF-8" standalone="no"?>
<!DOCTYPE svg PUBLIC "-//W3C//DTD SVG 1.1//EN"
 "http://www.w3.org/Graphics/SVG/1.1/DTD/svg11.dtd">
<!-- Generated by graphviz version 2.38.0 (20140413.2041)
 -->
<!-- Title: foo Pages: 1 -->
<svg width="463pt" height="81pt"
 viewBox="0.00 0.00 463.00 81.00" xmlns="http://www.w3.org/2000/svg" xmlns:xlink="http://www.w3.org/1999/xlink">
<g id="graph0" class="graph" transform="scale(1 1) rotate(0) translate(4 77)">
<title>foo</title>
<g id="a_graph0"><a xlink:title=" ">
<polygon fill="#c7e9c0" stroke="none" points="-4,4 -4,-77 459,-77 459,4 -4,4"/>
<text text-anchor="start" x="189.5" y="-7.2" font-family="tahoma" font-size="11.00" fill="#238b45">Try this instead</text>
</a>
</g>
<!-- For each student: ///(Ana, Bob, Carla) ///Achievement -->
<g id="node1" class="node"><title>For each student: ///(Ana, Bob, Carla) ///Achievement</title>
<polygon fill="#f7fcf5" stroke="#f7fcf5" points="295,-73 164,-73 164,-20 295,-20 295,-73"/>
<text text-anchor="start" x="172" y="-57.8" font-family="Helvetica,sans-Serif" font-size="14.00" fill="#006d2c">For each student: </text>
<text text-anchor="start" x="173.5" y="-42.8" font-family="Helvetica,sans-Serif" font-size="14.00" fill="#006d2c">(Ana, Bob, Carla) </text>
<text text-anchor="start" x="188" y="-27.8" font-family="Helvetica,sans-Serif" font-size="14.00" fill="#006d2c">Achievement</text>
</g>
<!-- Teacher: Pride -->
<g id="node2" class="node"><title>Teacher: Pride</title>
<polygon fill="#f7fcf5" stroke="#f7fcf5" points="455,-64.5 345,-64.5 345,-28.5 455,-28.5 455,-64.5"/>
<text text-anchor="start" x="353" y="-42.8" font-family="Helvetica,sans-Serif" font-size="14.00" fill="#006d2c">Teacher: Pride</text>
</g>
<!-- For each student: ///(Ana, Bob, Carla) ///Achievement&#45;&gt;Teacher: Pride -->
<g id="edge1" class="edge"><title>For each student: ///(Ana, Bob, Carla) ///Achievement&#45;&gt;Teacher: Pride</title>
<path fill="none" stroke="#41ab5d" stroke-width="2" d="M295.165,-46.5C308.127,-46.5 321.743,-46.5 334.693,-46.5"/>
<polygon fill="#41ab5d" stroke="#41ab5d" stroke-width="2" points="334.911,-50.0001 344.91,-46.5 334.91,-43.0001 334.911,-50.0001"/>
</g>
<!-- Teacher: Ability -->
<g id="node3" class="node"><title>Teacher: Ability</title>
<polygon fill="#f7fcf5" stroke="#f7fcf5" points="114,-64.5 0,-64.5 0,-28.5 114,-28.5 114,-64.5"/>
<text text-anchor="start" x="8" y="-42.8" font-family="Helvetica,sans-Serif" font-size="14.00" fill="#006d2c">Teacher: Ability</text>
</g>
<!-- Teacher: Ability&#45;&gt;For each student: ///(Ana, Bob, Carla) ///Achievement -->
<g id="edge2" class="edge"><title>Teacher: Ability&#45;&gt;For each student: ///(Ana, Bob, Carla) ///Achievement</title>
<path fill="none" stroke="#41ab5d" stroke-width="2" d="M114.301,-46.5C126.977,-46.5 140.622,-46.5 153.916,-46.5"/>
<polygon fill="#41ab5d" stroke="#41ab5d" stroke-width="2" points="153.992,-50.0001 163.992,-46.5 153.992,-43.0001 153.992,-50.0001"/>
</g>
</g>
</svg>
