<?xml version="1.0" encoding="UTF-8" standalone="no"?>
<!DOCTYPE svg PUBLIC "-//W3C//DTD SVG 1.1//EN"
 "http://www.w3.org/Graphics/SVG/1.1/DTD/svg11.dtd">
<!-- Generated by graphviz version 2.38.0 (20140413.2041)
 -->
<!-- Title: foo Pages: 1 -->
<svg width="892pt" height="499pt"
 viewBox="0.00 0.00 892.00 499.00" xmlns="http://www.w3.org/2000/svg" xmlns:xlink="http://www.w3.org/1999/xlink">
<g id="graph0" class="graph" transform="scale(1 1) rotate(0) translate(4 495)">
<title>foo</title>
<g id="a_graph0"><a xlink:title=" ">
<polygon fill="#deebf7" stroke="none" points="-4,4 -4,-495 888,-495 888,4 -4,4"/>
</a>
</g>
<!-- Simple -->
<g id="node1" class="node"><title>Simple</title>
<polygon fill="#000000" fill-opacity="0.062745" stroke="#000000" stroke-opacity="0.062745" points="618,-396.5 552,-396.5 552,-360.5 618,-360.5 618,-396.5"/>
<text text-anchor="start" x="560" y="-374.8" font-family="verdana" font-size="14.00">Simple</text>
</g>
<!-- Variables -->
<g id="node2" class="node"><title>Variables</title>
<polygon fill="#000000" fill-opacity="0.062745" stroke="#000000" stroke-opacity="0.062745" points="542.5,-491 459.5,-491 459.5,-455 542.5,-455 542.5,-491"/>
<text text-anchor="start" x="467.5" y="-469.3" font-family="verdana" font-size="14.00">Variables</text>
</g>
<!-- Simple&#45;&gt;Variables -->
<g id="edge1" class="edge"><title>Simple&#45;&gt;Variables</title>
<path fill="none" stroke="#6baed6" d="M569.2,-396.899C554.087,-413.541 531.439,-438.481 516.445,-454.992"/>
</g>
<!-- Ordered -->
<g id="node3" class="node"><title>Ordered</title>
<polygon fill="#000000" fill-opacity="0.062745" stroke="#000000" stroke-opacity="0.062745" points="360,-301 286,-301 286,-265 360,-265 360,-301"/>
<text text-anchor="start" x="294" y="-279.3" font-family="verdana" font-size="14.00">Ordered</text>
</g>
<!-- Ordered&#45;&gt;Simple -->
<g id="edge2" class="edge"><title>Ordered&#45;&gt;Simple</title>
<path fill="none" stroke="#6baed6" d="M360.335,-299.614C362.581,-300.447 364.815,-301.249 367,-302 444.71,-328.712 469.992,-318.441 545,-352 550.262,-354.354 555.637,-357.328 560.67,-360.406"/>
</g>
<!-- Continuous -->
<g id="node4" class="node"><title>Continuous</title>
<polygon fill="#000000" fill-opacity="0.062745" stroke="#000000" stroke-opacity="0.062745" points="248,-213 150,-213 150,-177 248,-177 248,-213"/>
<text text-anchor="start" x="158" y="-191.3" font-family="verdana" font-size="14.00">Continuous</text>
</g>
<!-- Continuous&#45;&gt;Ordered -->
<g id="edge3" class="edge"><title>Continuous&#45;&gt;Ordered</title>
<path fill="none" stroke="#6baed6" d="M223.795,-213.197C245.422,-228.196 276.633,-249.843 298.248,-264.833"/>
</g>
<!-- Lo&#45;hi -->
<g id="node5" class="node"><title>Lo&#45;hi</title>
<polygon fill="#000000" fill-opacity="0.062745" stroke="#000000" stroke-opacity="0.062745" points="94,-125 40,-125 40,-89 94,-89 94,-125"/>
<text text-anchor="start" x="48" y="-103.3" font-family="verdana" font-size="14.00">Lo&#45;hi</text>
</g>
<!-- Lo&#45;hi&#45;&gt;Continuous -->
<g id="edge4" class="edge"><title>Lo&#45;hi&#45;&gt;Continuous</title>
<path fill="none" stroke="#6baed6" d="M93.3949,-125.197C116.417,-140.196 149.642,-161.843 172.651,-176.833"/>
</g>
<!-- Anchored lo&#45;hi &#160;///e.g. approval -->
<g id="node6" class="node"><title>Anchored lo&#45;hi &#160;///e.g. approval</title>
<polygon fill="#000000" fill-opacity="0.062745" stroke="#000000" stroke-opacity="0.062745" points="134,-38 0,-38 0,-0 134,-0 134,-38"/>
<text text-anchor="start" x="8" y="-22.8" font-family="verdana" font-size="14.00">Anchored lo&#45;hi &#160;</text>
<text text-anchor="start" x="19" y="-7.8" font-family="verdana" font-size="14.00">e.g. approval</text>
</g>
<!-- Anchored lo&#45;hi &#160;///e.g. approval&#45;&gt;Lo&#45;hi -->
<g id="edge5" class="edge"><title>Anchored lo&#45;hi &#160;///e.g. approval&#45;&gt;Lo&#45;hi</title>
<path fill="none" stroke="#6baed6" d="M67,-38.2384C67,-53.2273 67,-74.3055 67,-88.9578"/>
</g>
<!-- Counting numbers ///e.g. number of visitors -->
<g id="node7" class="node"><title>Counting numbers ///e.g. number of visitors</title>
<polygon fill="#000000" fill-opacity="0.062745" stroke="#000000" stroke-opacity="0.062745" points="290,-126 108,-126 108,-88 290,-88 290,-126"/>
<text text-anchor="start" x="130" y="-110.8" font-family="verdana" font-size="14.00">Counting numbers </text>
<text text-anchor="start" x="116" y="-95.8" font-family="verdana" font-size="14.00">e.g. number of visitors</text>
</g>
<!-- Counting numbers ///e.g. number of visitors&#45;&gt;Continuous -->
<g id="edge6" class="edge"><title>Counting numbers ///e.g. number of visitors&#45;&gt;Continuous</title>
<path fill="none" stroke="#6baed6" d="M199,-126.238C199,-141.227 199,-162.306 199,-176.958"/>
</g>
<!-- Rational numbers ///e.g. length -->
<g id="node8" class="node"><title>Rational numbers ///e.g. length</title>
<polygon fill="#000000" fill-opacity="0.062745" stroke="#000000" stroke-opacity="0.062745" points="452,-126 304,-126 304,-88 452,-88 452,-126"/>
<text text-anchor="start" x="312" y="-110.8" font-family="verdana" font-size="14.00">Rational numbers </text>
<text text-anchor="start" x="338.5" y="-95.8" font-family="verdana" font-size="14.00">e.g. length</text>
</g>
<!-- Rational numbers ///e.g. length&#45;&gt;Continuous -->
<g id="edge7" class="edge"><title>Rational numbers ///e.g. length&#45;&gt;Continuous</title>
<path fill="none" stroke="#6baed6" d="M340.476,-126.028C309.311,-141.002 265.278,-162.157 234.646,-176.874"/>
</g>
<!-- Ordinal ///e.g. alert level -->
<g id="node9" class="node"><title>Ordinal ///e.g. alert level</title>
<polygon fill="#000000" fill-opacity="0.062745" stroke="#000000" stroke-opacity="0.062745" points="383.5,-214 262.5,-214 262.5,-176 383.5,-176 383.5,-214"/>
<text text-anchor="start" x="294" y="-198.8" font-family="verdana" font-size="14.00">Ordinal </text>
<text text-anchor="start" x="270.5" y="-183.8" font-family="verdana" font-size="14.00">e.g. alert level</text>
</g>
<!-- Ordinal ///e.g. alert level&#45;&gt;Ordered -->
<g id="edge8" class="edge"><title>Ordinal ///e.g. alert level&#45;&gt;Ordered</title>
<path fill="none" stroke="#6baed6" d="M323,-214.238C323,-229.227 323,-250.306 323,-264.958"/>
</g>
<!-- Binary (false/true) ///e.g. the law is passed -->
<g id="node10" class="node"><title>Binary (false/true) ///e.g. the law is passed</title>
<polygon fill="#000000" fill-opacity="0.062745" stroke="#000000" stroke-opacity="0.062745" points="572,-214 398,-214 398,-176 572,-176 572,-214"/>
<text text-anchor="start" x="415.5" y="-198.8" font-family="verdana" font-size="14.00">Binary (false/true) </text>
<text text-anchor="start" x="406" y="-183.8" font-family="verdana" font-size="14.00">e.g. the law is passed</text>
</g>
<!-- Binary (false/true) ///e.g. the law is passed&#45;&gt;Ordered -->
<g id="edge9" class="edge"><title>Binary (false/true) ///e.g. the law is passed&#45;&gt;Ordered</title>
<path fill="none" stroke="#6baed6" d="M451.039,-214.028C422.834,-229.002 382.984,-250.157 355.26,-264.874"/>
</g>
<!-- Cyclic ///e.g. seasons -->
<g id="node11" class="node"><title>Cyclic ///e.g. seasons</title>
<polygon fill="#000000" fill-opacity="0.062745" stroke="#000000" stroke-opacity="0.062745" points="481.5,-302 374.5,-302 374.5,-264 481.5,-264 481.5,-302"/>
<text text-anchor="start" x="404" y="-286.8" font-family="verdana" font-size="14.00">Cyclic </text>
<text text-anchor="start" x="382.5" y="-271.8" font-family="verdana" font-size="14.00">e.g. seasons</text>
</g>
<!-- Cyclic ///e.g. seasons&#45;&gt;Simple -->
<g id="edge10" class="edge"><title>Cyclic ///e.g. seasons&#45;&gt;Simple</title>
<path fill="none" stroke="#6baed6" d="M459.99,-302.121C483.625,-315.623 516.506,-334.648 545,-352 549.361,-354.656 553.956,-357.521 558.415,-360.338"/>
</g>
<!-- Hierarchical ///e.g. species taxonomy -->
<g id="node12" class="node"><title>Hierarchical ///e.g. species taxonomy</title>
<polygon fill="#000000" fill-opacity="0.062745" stroke="#000000" stroke-opacity="0.062745" points="674,-302 496,-302 496,-264 674,-264 674,-302"/>
<text text-anchor="start" x="539.5" y="-286.8" font-family="verdana" font-size="14.00">Hierarchical </text>
<text text-anchor="start" x="504" y="-271.8" font-family="verdana" font-size="14.00">e.g. species taxonomy</text>
</g>
<!-- Hierarchical ///e.g. species taxonomy&#45;&gt;Simple -->
<g id="edge11" class="edge"><title>Hierarchical ///e.g. species taxonomy&#45;&gt;Simple</title>
<path fill="none" stroke="#6baed6" d="M585,-302.028C585,-318.903 585,-343.93 585,-360.473"/>
</g>
<!-- Nominal ///e.g. gender -->
<g id="node13" class="node"><title>Nominal ///e.g. gender</title>
<polygon fill="#000000" fill-opacity="0.062745" stroke="#000000" stroke-opacity="0.062745" points="787.5,-302 688.5,-302 688.5,-264 787.5,-264 787.5,-302"/>
<text text-anchor="start" x="705.5" y="-286.8" font-family="verdana" font-size="14.00">Nominal </text>
<text text-anchor="start" x="696.5" y="-271.8" font-family="verdana" font-size="14.00">e.g. gender</text>
</g>
<!-- Nominal ///e.g. gender&#45;&gt;Simple -->
<g id="edge12" class="edge"><title>Nominal ///e.g. gender&#45;&gt;Simple</title>
<path fill="none" stroke="#6baed6" d="M708.5,-302.028C680.886,-318.903 639.933,-343.93 612.862,-360.473"/>
</g>
<!-- Binary ///e.g. heads/tails -->
<g id="node14" class="node"><title>Binary ///e.g. heads/tails</title>
<polygon fill="#000000" fill-opacity="0.062745" stroke="#000000" stroke-opacity="0.062745" points="802,-214 674,-214 674,-176 802,-176 802,-214"/>
<text text-anchor="start" x="712" y="-198.8" font-family="verdana" font-size="14.00">Binary </text>
<text text-anchor="start" x="682" y="-183.8" font-family="verdana" font-size="14.00">e.g. heads/tails</text>
</g>
<!-- Binary ///e.g. heads/tails&#45;&gt;Nominal ///e.g. gender -->
<g id="edge13" class="edge"><title>Binary ///e.g. heads/tails&#45;&gt;Nominal ///e.g. gender</title>
<path fill="none" stroke="#6baed6" d="M738,-214.238C738,-228.833 738,-249.2 738,-263.788"/>
</g>
<!-- Narrative -->
<g id="node15" class="node"><title>Narrative</title>
<polygon fill="#000000" fill-opacity="0.062745" stroke="#000000" stroke-opacity="0.062745" points="884,-301 802,-301 802,-265 884,-265 884,-301"/>
<text text-anchor="start" x="810" y="-279.3" font-family="verdana" font-size="14.00">Narrative</text>
</g>
<!-- Narrative&#45;&gt;Simple -->
<g id="edge14" class="edge"><title>Narrative&#45;&gt;Simple</title>
<path fill="none" stroke="#6baed6" d="M801.904,-299.453C799.57,-300.318 797.256,-301.172 795,-302 732.629,-324.905 659.578,-351.005 618.149,-365.74"/>
</g>
<!-- Combinations e.g. quantity of teachers completing the course x the standard they reached -->
<g id="node16" class="node"><title>Combinations e.g. quantity of teachers completing the course x the standard they reached</title>
<polygon fill="#000000" fill-opacity="0.062745" stroke="#000000" stroke-opacity="0.062745" points="538,-405 296,-405 296,-352 538,-352 538,-405"/>
<text text-anchor="start" x="309.5" y="-389.8" font-family="verdana" font-size="14.00">Combinations e.g. quantity of</text>
<text text-anchor="start" x="304" y="-374.8" font-family="verdana" font-size="14.00">teachers completing the course</text>
<text text-anchor="start" x="316" y="-359.8" font-family="verdana" font-size="14.00">x the standard they reached</text>
</g>
<!-- Combinations e.g. quantity of teachers completing the course x the standard they reached&#45;&gt;Variables -->
<g id="edge15" class="edge"><title>Combinations e.g. quantity of teachers completing the course x the standard they reached&#45;&gt;Variables</title>
<path fill="none" stroke="#6baed6" d="M440.399,-405.266C454.768,-421.09 472.777,-440.922 485.416,-454.839"/>
</g>
</g>
</svg>
