<?xml version="1.0" encoding="UTF-8" standalone="no"?>
<!DOCTYPE svg PUBLIC "-//W3C//DTD SVG 1.1//EN"
 "http://www.w3.org/Graphics/SVG/1.1/DTD/svg11.dtd">
<!-- Generated by graphviz version 2.38.0 (20140413.2041)
 -->
<!-- Title: foo Pages: 1 -->
<svg width="330pt" height="76pt"
 viewBox="0.00 0.00 330.00 76.00" xmlns="http://www.w3.org/2000/svg" xmlns:xlink="http://www.w3.org/1999/xlink">
<g id="graph0" class="graph" transform="scale(1 1) rotate(0) translate(4 72)">
<title>foo</title>
<g id="a_graph0"><a xlink:title=" ">
<polygon fill="#d9d9d9" stroke="none" points="-4,4 -4,-72 326,-72 326,4 -4,4"/>
<text text-anchor="start" x="47.5" y="-7.2" font-family="tahoma" font-size="11.00" fill="#525252">These are not Variables. This is not a Theory.</text>
</a>
</g>
<!-- NGO Network -->
<g id="node1" class="node"><title>NGO Network</title>
<polygon fill="#fee6ce" stroke="#fee6ce" points="104,-56 0,-56 0,-20 104,-20 104,-56"/>
<text text-anchor="start" x="8" y="-34.3" font-family="Helvetica,sans-Serif" font-size="14.00">NGO Network</text>
</g>
<!-- President -->
<g id="node2" class="node"><title>President</title>
<polygon fill="#fee6ce" stroke="#fee6ce" points="322,-56 245,-56 245,-20 322,-20 322,-56"/>
<text text-anchor="start" x="253" y="-34.3" font-family="Helvetica,sans-Serif" font-size="14.00">President</text>
</g>
<!-- NGO Network&#45;&gt;President -->
<g id="edge1" class="edge"><title>NGO Network&#45;&gt;President</title>
<path fill="none" stroke="#737373" stroke-width="2" d="M104.219,-38C143.222,-38 196.525,-38 234.667,-38"/>
<polygon fill="#737373" stroke="#737373" stroke-width="2" points="234.999,-41.5001 244.998,-38 234.998,-34.5001 234.999,-41.5001"/>
<text text-anchor="start" x="135" y="-56.8" font-family="Helvetica,sans-Serif" font-size="14.00" fill="#cd5c5c">(lobby about</text>
<text text-anchor="start" x="129" y="-41.8" font-family="Helvetica,sans-Serif" font-size="14.00" fill="#cd5c5c">proposed law)</text>
</g>
</g>
</svg>
