<?xml version="1.0" encoding="UTF-8" standalone="no"?>
<!DOCTYPE svg PUBLIC "-//W3C//DTD SVG 1.1//EN"
 "http://www.w3.org/Graphics/SVG/1.1/DTD/svg11.dtd">
<!-- Generated by graphviz version 2.38.0 (20140413.2041)
 -->
<!-- Title: foo Pages: 1 -->
<svg width="578pt" height="58pt"
 viewBox="0.00 0.00 578.00 58.00" xmlns="http://www.w3.org/2000/svg" xmlns:xlink="http://www.w3.org/1999/xlink">
<g id="graph0" class="graph" transform="scale(1 1) rotate(0) translate(4 54)">
<title>foo</title>
<g id="a_graph0"><a xlink:title=" ">
<polygon fill="white" stroke="none" points="-4,4 -4,-54 574,-54 574,4 -4,4"/>
</a>
</g>
<!-- Extent to which teachers use creative techniques -->
<g id="node1" class="node"><title>Extent to which teachers use creative techniques</title>
<polygon fill="white" stroke="white" points="404,-44 228,-44 228,-6 404,-6 404,-44"/>
<text text-anchor="start" x="236" y="-28.8" font-family="Times New Roman,serif" font-size="14.00">Extent to which teachers use</text>
<text text-anchor="start" x="263" y="-13.8" font-family="Times New Roman,serif" font-size="14.00">creative techniques</text>
</g>
<!-- Student academic achievement !heart -->
<g id="node2" class="node"><title>Student academic achievement !heart</title>
<polygon fill="white" stroke="white" points="570,-43 454,-43 454,-7 570,-7 570,-43"/>
<text text-anchor="start" x="462" y="-28.8" font-family="Times New Roman,serif" font-size="14.00">Student academic</text>
<text text-anchor="start" x="471" y="-14.8" font-family="Times New Roman,serif" font-size="14.00">achievement </text>
<text text-anchor="start" x="544" y="-14.8" font-family="Times New Roman,serif" font-size="14.00" fill="orange">♥</text>
</g>
<!-- Extent to which teachers use creative techniques&#45;&gt;Student academic achievement !heart -->
<g id="edge1" class="edge"><title>Extent to which teachers use creative techniques&#45;&gt;Student academic achievement !heart</title>
<path fill="none" stroke="black" d="M404.069,-25C417.422,-25 431.029,-25 443.862,-25"/>
<polygon fill="black" stroke="black" points="443.97,-28.5001 453.97,-25 443.97,-21.5001 443.97,-28.5001"/>
</g>
<!-- !do Amount of training which teachers receive on the new teaching method -->
<g id="node3" class="node"><title>!do Amount of training which teachers receive on the new teaching method</title>
<polygon fill="white" stroke="white" points="178,-50 0,-50 0,-0 178,-0 178,-50"/>
<text text-anchor="start" x="8" y="-35.8" font-family="Times New Roman,serif" font-size="14.00" fill="darkgreen">▶ </text>
<text text-anchor="start" x="24" y="-35.8" font-family="Times New Roman,serif" font-size="14.00"> Amount of training which</text>
<text text-anchor="start" x="12" y="-21.8" font-family="Times New Roman,serif" font-size="14.00">teachers receive on the new</text>
<text text-anchor="start" x="43" y="-7.8" font-family="Times New Roman,serif" font-size="14.00">teaching method</text>
</g>
<!-- !do Amount of training which teachers receive on the new teaching method&#45;&gt;Extent to which teachers use creative techniques -->
<g id="edge2" class="edge"><title>!do Amount of training which teachers receive on the new teaching method&#45;&gt;Extent to which teachers use creative techniques</title>
<path fill="none" stroke="black" d="M178.28,-25C191.103,-25 204.367,-25 217.362,-25"/>
<polygon fill="black" stroke="black" points="217.712,-28.5001 227.712,-25 217.712,-21.5001 217.712,-28.5001"/>
</g>
</g>
</svg>
