<?xml version="1.0" encoding="UTF-8" standalone="no"?>
<!DOCTYPE svg PUBLIC "-//W3C//DTD SVG 1.1//EN"
 "http://www.w3.org/Graphics/SVG/1.1/DTD/svg11.dtd">
<!-- Generated by graphviz version 2.38.0 (20140413.2041)
 -->
<!-- Title: foo Pages: 1 -->
<svg width="582pt" height="81pt"
 viewBox="0.00 0.00 582.00 81.00" xmlns="http://www.w3.org/2000/svg" xmlns:xlink="http://www.w3.org/1999/xlink">
<g id="graph0" class="graph" transform="scale(1 1) rotate(0) translate(4 77)">
<title>foo</title>
<g id="a_graph0"><a xlink:title=" ">
<polygon fill="#d9d9d9" stroke="none" points="-4,4 -4,-77 578,-77 578,4 -4,4"/>
<text text-anchor="start" x="8" y="-7.2" font-family="tahoma" font-size="11.00" fill="#525252">In most ordinary Theories of Change, you usually can&#39;t tell if a Variable stretches across time, is repeated, or not.</text>
</a>
</g>
<!-- Voter hears speeches -->
<g id="node1" class="node"><title>Voter hears speeches</title>
<polygon fill="#fee6ce" stroke="#fee6ce" points="250.5,-65.5 160.5,-65.5 160.5,-27.5 250.5,-27.5 250.5,-65.5"/>
<text text-anchor="start" x="168.5" y="-50.3" font-family="Helvetica,sans-Serif" font-size="14.00">Voter hears</text>
<text text-anchor="start" x="173.5" y="-35.3" font-family="Helvetica,sans-Serif" font-size="14.00">speeches</text>
</g>
<!-- Voter decides to vote for Tory party -->
<g id="node2" class="node"><title>Voter decides to vote for Tory party</title>
<polygon fill="#fee6ce" stroke="#fee6ce" points="413.5,-73 300.5,-73 300.5,-20 413.5,-20 413.5,-73"/>
<text text-anchor="start" x="312" y="-57.8" font-family="Helvetica,sans-Serif" font-size="14.00">Voter decides</text>
<text text-anchor="start" x="308.5" y="-42.8" font-family="Helvetica,sans-Serif" font-size="14.00">to vote for Tory</text>
<text text-anchor="start" x="341.5" y="-27.8" font-family="Helvetica,sans-Serif" font-size="14.00">party</text>
</g>
<!-- Voter hears speeches&#45;&gt;Voter decides to vote for Tory party -->
<g id="edge1" class="edge"><title>Voter hears speeches&#45;&gt;Voter decides to vote for Tory party</title>
<path fill="none" stroke="#737373" stroke-width="2" d="M250.546,-46.5C262.969,-46.5 276.762,-46.5 290.166,-46.5"/>
<polygon fill="#737373" stroke="#737373" stroke-width="2" points="290.312,-50.0001 300.312,-46.5 290.312,-43.0001 290.312,-50.0001"/>
</g>
</g>
</svg>
