<?xml version="1.0" encoding="UTF-8" standalone="no"?>
<!DOCTYPE svg PUBLIC "-//W3C//DTD SVG 1.1//EN"
 "http://www.w3.org/Graphics/SVG/1.1/DTD/svg11.dtd">
<!-- Generated by graphviz version 2.38.0 (20140413.2041)
 -->
<!-- Title: foo Pages: 1 -->
<svg width="254pt" height="69pt"
 viewBox="0.00 0.00 254.00 69.00" xmlns="http://www.w3.org/2000/svg" xmlns:xlink="http://www.w3.org/1999/xlink">
<g id="graph0" class="graph" transform="scale(1 1) rotate(0) translate(4 65)">
<title>foo</title>
<g id="a_graph0"><a xlink:title=" ">
<polygon fill="white" stroke="none" points="-4,4 -4,-65 250,-65 250,4 -4,4"/>
</a>
</g>
<!-- axsxdf -->
<!-- Subjective temperature !lohi (Influence: !plus) -->
<g id="node2" class="node"><title>Subjective temperature !lohi (Influence: !plus)</title>
<polygon fill="#e5f5e0" stroke="#e5f5e0" stroke-width="2" points="246,-53 138,-53 138,-0 246,-0 246,-53"/>
<text text-anchor="start" x="158.5" y="-37.8" font-family="arial" font-size="14.00">Subjective</text>
<text text-anchor="start" x="146" y="-22.8" font-family="arial" font-size="14.00">temperature ◪</text>
<text text-anchor="start" x="148.5" y="-7.8" font-family="arial" font-size="14.00">(Influence: ⊕)</text>
</g>
<!-- axsxdf&#45;&gt;Subjective temperature !lohi (Influence: !plus) -->
<g id="edge1" class="edge"><title>axsxdf&#45;&gt;Subjective temperature !lohi (Influence: !plus)</title>
<path fill="none" stroke="#41ab5d" stroke-width="0" d="M48.143,-59.9855C55.2645,-58.8042 73.1649,-55.749 88,-52.5 100.993,-49.6545 114.839,-46.3489 128.027,-43.0682"/>
<polygon fill="#41ab5d" stroke="#41ab5d" stroke-width="0" points="129.113,-46.4041 137.958,-40.5723 127.407,-39.6152 129.113,-46.4041"/>
</g>
<!-- Strength of sunshine !lohi -->
<g id="node3" class="node"><title>Strength of sunshine !lohi</title>
<polygon fill="#e5f5e0" stroke="#e5f5e0" stroke-width="2" points="88,-45.5 0,-45.5 0,-7.5 88,-7.5 88,-45.5"/>
<text text-anchor="start" x="9" y="-30.3" font-family="arial" font-size="14.00">Strength of</text>
<text text-anchor="start" x="8" y="-15.3" font-family="arial" font-size="14.00">sunshine ◪</text>
</g>
<!-- Strength of sunshine !lohi&#45;&gt;Subjective temperature !lohi (Influence: !plus) -->
<g id="edge2" class="edge"><title>Strength of sunshine !lohi&#45;&gt;Subjective temperature !lohi (Influence: !plus)</title>
<path fill="none" stroke="#41ab5d" d="M88.0152,-26.5C100.482,-26.5 114.362,-26.5 127.791,-26.5"/>
<polygon fill="#41ab5d" stroke="#41ab5d" points="127.942,-30.0001 137.942,-26.5 127.942,-23.0001 127.942,-30.0001"/>
</g>
</g>
</svg>
