<?xml version="1.0" encoding="UTF-8" standalone="no"?>
<!DOCTYPE svg PUBLIC "-//W3C//DTD SVG 1.1//EN"
 "http://www.w3.org/Graphics/SVG/1.1/DTD/svg11.dtd">
<!-- Generated by graphviz version 2.38.0 (20140413.2041)
 -->
<!-- Title: foo Pages: 1 -->
<svg width="399pt" height="260pt"
 viewBox="0.00 0.00 399.00 260.00" xmlns="http://www.w3.org/2000/svg" xmlns:xlink="http://www.w3.org/1999/xlink">
<g id="graph0" class="graph" transform="scale(1 1) rotate(0) translate(4 256)">
<title>foo</title>
<g id="a_graph0"><a xlink:title=" ">
<polygon fill="#d9d9d9" stroke="none" points="-4,4 -4,-256 395,-256 395,4 -4,4"/>
<text text-anchor="start" x="103.5" y="-7.2" font-family="tahoma" font-size="11.00" fill="#525252">You don&#39;t have to stick to this format</text>
</a>
</g>
<!-- Output: improved student classwork -->
<g id="node1" class="node"><title>Output: improved student classwork</title>
<polygon fill="#fdd0a2" stroke="#fdd0a2" points="229,-170 150,-170 150,-102 229,-102 229,-170"/>
<text text-anchor="start" x="166.5" y="-154.8" font-family="Helvetica,sans-Serif" font-size="14.00">Output:</text>
<text text-anchor="start" x="159.5" y="-139.8" font-family="Helvetica,sans-Serif" font-size="14.00">improved</text>
<text text-anchor="start" x="166" y="-124.8" font-family="Helvetica,sans-Serif" font-size="14.00">student</text>
<text text-anchor="start" x="158" y="-109.8" font-family="Helvetica,sans-Serif" font-size="14.00">classwork</text>
</g>
<!-- Outcome: improved student exam results -->
<g id="node2" class="node"><title>Outcome: improved student exam results</title>
<polygon fill="#fd8d3c" stroke="#fd8d3c" points="391,-211 290,-211 290,-143 391,-143 391,-211"/>
<text text-anchor="start" x="309" y="-195.8" font-family="Helvetica,sans-Serif" font-size="14.00">Outcome:</text>
<text text-anchor="start" x="310.5" y="-180.8" font-family="Helvetica,sans-Serif" font-size="14.00">improved</text>
<text text-anchor="start" x="298" y="-165.8" font-family="Helvetica,sans-Serif" font-size="14.00">student exam</text>
<text text-anchor="start" x="319" y="-150.8" font-family="Helvetica,sans-Serif" font-size="14.00">results</text>
</g>
<!-- Output: improved student classwork&#45;&gt;Outcome: improved student exam results -->
<g id="edge1" class="edge"><title>Output: improved student classwork&#45;&gt;Outcome: improved student exam results</title>
<path fill="none" stroke="#737373" stroke-width="2" d="M229.259,-146.665C244.756,-150.93 262.958,-155.938 280.055,-160.643"/>
<polygon fill="#737373" stroke="#737373" stroke-width="2" points="279.395,-164.091 289.965,-163.37 281.252,-157.342 279.395,-164.091"/>
</g>
<!-- Activity: student workshop 1 held -->
<g id="node3" class="node"><title>Activity: student workshop 1 held</title>
<polygon fill="#fff5eb" stroke="#fff5eb" points="89,-170 0,-170 0,-102 89,-102 89,-170"/>
<text text-anchor="start" x="20" y="-154.8" font-family="Helvetica,sans-Serif" font-size="14.00">Activity:</text>
<text text-anchor="start" x="21" y="-139.8" font-family="Helvetica,sans-Serif" font-size="14.00">student</text>
<text text-anchor="start" x="8" y="-124.8" font-family="Helvetica,sans-Serif" font-size="14.00">workshop 1</text>
<text text-anchor="start" x="30.5" y="-109.8" font-family="Helvetica,sans-Serif" font-size="14.00">held</text>
</g>
<!-- Activity: student workshop 1 held&#45;&gt;Output: improved student classwork -->
<g id="edge2" class="edge"><title>Activity: student workshop 1 held&#45;&gt;Output: improved student classwork</title>
<path fill="none" stroke="#737373" stroke-width="2" d="M89.1817,-136C105.083,-136 123.158,-136 139.491,-136"/>
<polygon fill="#737373" stroke="#737373" stroke-width="2" points="139.932,-139.5 149.932,-136 139.932,-132.5 139.932,-139.5"/>
</g>
<!-- Activity: students given laptops -->
<g id="node4" class="node"><title>Activity: students given laptops</title>
<polygon fill="#fff5eb" stroke="#fff5eb" points="80,-88 9,-88 9,-20 80,-20 80,-88"/>
<text text-anchor="start" x="20" y="-72.8" font-family="Helvetica,sans-Serif" font-size="14.00">Activity:</text>
<text text-anchor="start" x="17" y="-57.8" font-family="Helvetica,sans-Serif" font-size="14.00">students</text>
<text text-anchor="start" x="27.5" y="-42.8" font-family="Helvetica,sans-Serif" font-size="14.00">given</text>
<text text-anchor="start" x="21" y="-27.8" font-family="Helvetica,sans-Serif" font-size="14.00">laptops</text>
</g>
<!-- Activity: students given laptops&#45;&gt;Output: improved student classwork -->
<g id="edge3" class="edge"><title>Activity: students given laptops&#45;&gt;Output: improved student classwork</title>
<path fill="none" stroke="#737373" stroke-width="2" d="M80.1163,-73.8499C98.3949,-84.3313 121.102,-97.3522 141.003,-108.764"/>
<polygon fill="#737373" stroke="#737373" stroke-width="2" points="139.507,-111.941 149.923,-113.879 142.989,-105.868 139.507,-111.941"/>
</g>
<!-- Output: improved student exam skills -->
<g id="node5" class="node"><title>Output: improved student exam skills</title>
<polygon fill="#fdd0a2" stroke="#fdd0a2" points="240,-252 139,-252 139,-184 240,-184 240,-252"/>
<text text-anchor="start" x="166.5" y="-236.8" font-family="Helvetica,sans-Serif" font-size="14.00">Output:</text>
<text text-anchor="start" x="159.5" y="-221.8" font-family="Helvetica,sans-Serif" font-size="14.00">improved</text>
<text text-anchor="start" x="147" y="-206.8" font-family="Helvetica,sans-Serif" font-size="14.00">student exam</text>
<text text-anchor="start" x="174" y="-191.8" font-family="Helvetica,sans-Serif" font-size="14.00">skills</text>
</g>
<!-- Output: improved student exam skills&#45;&gt;Outcome: improved student exam results -->
<g id="edge4" class="edge"><title>Output: improved student exam skills&#45;&gt;Outcome: improved student exam results</title>
<path fill="none" stroke="#737373" stroke-width="2" d="M240.115,-204.348C252.865,-200.839 266.714,-197.028 279.911,-193.397"/>
<polygon fill="#737373" stroke="#737373" stroke-width="2" points="281.135,-196.69 289.848,-190.663 279.278,-189.941 281.135,-196.69"/>
</g>
<!-- Activity: student workshop 2 held -->
<g id="node6" class="node"><title>Activity: student workshop 2 held</title>
<polygon fill="#fff5eb" stroke="#fff5eb" points="89,-252 0,-252 0,-184 89,-184 89,-252"/>
<text text-anchor="start" x="20" y="-236.8" font-family="Helvetica,sans-Serif" font-size="14.00">Activity:</text>
<text text-anchor="start" x="21" y="-221.8" font-family="Helvetica,sans-Serif" font-size="14.00">student</text>
<text text-anchor="start" x="8" y="-206.8" font-family="Helvetica,sans-Serif" font-size="14.00">workshop 2</text>
<text text-anchor="start" x="30.5" y="-191.8" font-family="Helvetica,sans-Serif" font-size="14.00">held</text>
</g>
<!-- Activity: student workshop 2 held&#45;&gt;Output: improved student exam skills -->
<g id="edge5" class="edge"><title>Activity: student workshop 2 held&#45;&gt;Output: improved student exam skills</title>
<path fill="none" stroke="#737373" stroke-width="2" d="M89.1817,-218C101.683,-218 115.529,-218 128.814,-218"/>
<polygon fill="#737373" stroke="#737373" stroke-width="2" points="128.834,-221.5 138.834,-218 128.834,-214.5 128.834,-221.5"/>
</g>
</g>
</svg>
