<?xml version="1.0" encoding="UTF-8" standalone="no"?>
<!DOCTYPE svg PUBLIC "-//W3C//DTD SVG 1.1//EN"
 "http://www.w3.org/Graphics/SVG/1.1/DTD/svg11.dtd">
<!-- Generated by graphviz version 2.38.0 (20140413.2041)
 -->
<!-- Title: foo Pages: 1 -->
<svg width="586pt" height="170pt"
 viewBox="0.00 0.00 586.00 170.00" xmlns="http://www.w3.org/2000/svg" xmlns:xlink="http://www.w3.org/1999/xlink">
<g id="graph0" class="graph" transform="scale(1 1) rotate(0) translate(4 166)">
<title>foo</title>
<g id="a_graph0"><a xlink:title=" ">
<polygon fill="#c7e9c0" stroke="none" points="-4,4 -4,-166 582,-166 582,4 -4,4"/>
<text text-anchor="start" x="156" y="-7.2" font-family="tahoma" font-size="11.00" fill="#238b45">None of the Variables are expressed using Differences</text>
</a>
</g>
<!-- Output: student classwork scores -->
<g id="node1" class="node"><title>Output: student classwork scores</title>
<polygon fill="#fdd0a2" stroke="#fdd0a2" points="348.5,-110 222.5,-110 222.5,-72 348.5,-72 348.5,-110"/>
<text text-anchor="start" x="237" y="-94.8" font-family="Helvetica,sans-Serif" font-size="14.00" fill="#006d2c">Output: student</text>
<text text-anchor="start" x="230.5" y="-79.8" font-family="Helvetica,sans-Serif" font-size="14.00" fill="#006d2c">classwork scores</text>
</g>
<!-- Outcome: student exam results -->
<g id="node2" class="node"><title>Outcome: student exam results</title>
<polygon fill="#fd8d3c" stroke="#fd8d3c" points="578,-136 411,-136 411,-98 578,-98 578,-136"/>
<text text-anchor="start" x="419" y="-120.8" font-family="Helvetica,sans-Serif" font-size="14.00" fill="#006d2c">Outcome: student exam</text>
<text text-anchor="start" x="473" y="-105.8" font-family="Helvetica,sans-Serif" font-size="14.00" fill="#006d2c">results</text>
</g>
<!-- Output: student classwork scores&#45;&gt;Outcome: student exam results -->
<g id="edge1" class="edge"><title>Output: student classwork scores&#45;&gt;Outcome: student exam results</title>
<path fill="none" stroke="#41ab5d" stroke-width="2" d="M348.607,-98.8009C364.933,-100.851 382.905,-103.109 400.47,-105.315"/>
<polygon fill="#41ab5d" stroke="#41ab5d" stroke-width="2" points="400.391,-108.833 410.749,-106.606 401.263,-101.887 400.391,-108.833"/>
</g>
<!-- Activity: student workshop 1 held !noyes  -->
<g id="node3" class="node"><title>Activity: student workshop 1 held !noyes </title>
<polygon fill="#fff5eb" stroke="#fff5eb" points="147.5,-110 12.5,-110 12.5,-72 147.5,-72 147.5,-110"/>
<text text-anchor="start" x="30.5" y="-94.8" font-family="Helvetica,sans-Serif" font-size="14.00" fill="#006d2c">Activity: student</text>
<text text-anchor="start" x="20.5" y="-79.8" font-family="Helvetica,sans-Serif" font-size="14.00" fill="#006d2c">workshop 1 held ◨</text>
</g>
<!-- Activity: student workshop 1 held !noyes &#45;&gt;Output: student classwork scores -->
<g id="edge2" class="edge"><title>Activity: student workshop 1 held !noyes &#45;&gt;Output: student classwork scores</title>
<path fill="none" stroke="#41ab5d" stroke-width="2" d="M147.634,-91C168.254,-91 191.068,-91 212.061,-91"/>
<polygon fill="#41ab5d" stroke="#41ab5d" stroke-width="2" points="212.203,-94.5001 222.203,-91 212.203,-87.5001 212.203,-94.5001"/>
</g>
<!-- Activity: students given laptops !noyes  -->
<g id="node4" class="node"><title>Activity: students given laptops !noyes </title>
<polygon fill="#fff5eb" stroke="#fff5eb" points="160,-58 0,-58 0,-20 160,-20 160,-58"/>
<text text-anchor="start" x="8" y="-42.8" font-family="Helvetica,sans-Serif" font-size="14.00" fill="#006d2c">Activity: students given</text>
<text text-anchor="start" x="49" y="-27.8" font-family="Helvetica,sans-Serif" font-size="14.00" fill="#006d2c">laptops ◨</text>
</g>
<!-- Activity: students given laptops !noyes &#45;&gt;Output: student classwork scores -->
<g id="edge3" class="edge"><title>Activity: students given laptops !noyes &#45;&gt;Output: student classwork scores</title>
<path fill="none" stroke="#41ab5d" stroke-width="2" d="M155.62,-58.0676C174.178,-62.8096 194.035,-67.8836 212.465,-72.5931"/>
<polygon fill="#41ab5d" stroke="#41ab5d" stroke-width="2" points="211.694,-76.0083 222.249,-75.0931 213.427,-69.2262 211.694,-76.0083"/>
</g>
<!-- Output: student exam skills -->
<g id="node5" class="node"><title>Output: student exam skills</title>
<polygon fill="#fdd0a2" stroke="#fdd0a2" points="361,-162 210,-162 210,-124 361,-124 361,-162"/>
<text text-anchor="start" x="218" y="-146.8" font-family="Helvetica,sans-Serif" font-size="14.00" fill="#006d2c">Output: student exam</text>
<text text-anchor="start" x="270" y="-131.8" font-family="Helvetica,sans-Serif" font-size="14.00" fill="#006d2c">skills</text>
</g>
<!-- Output: student exam skills&#45;&gt;Outcome: student exam results -->
<g id="edge4" class="edge"><title>Output: student exam skills&#45;&gt;Outcome: student exam results</title>
<path fill="none" stroke="#41ab5d" stroke-width="2" d="M361.232,-133.613C374.059,-132.002 387.527,-130.311 400.757,-128.649"/>
<polygon fill="#41ab5d" stroke="#41ab5d" stroke-width="2" points="401.328,-132.105 410.814,-127.386 400.456,-125.159 401.328,-132.105"/>
</g>
<!-- Activity: student workshop 2 held !noyes  -->
<g id="node6" class="node"><title>Activity: student workshop 2 held !noyes </title>
<polygon fill="#fff5eb" stroke="#fff5eb" points="147.5,-162 12.5,-162 12.5,-124 147.5,-124 147.5,-162"/>
<text text-anchor="start" x="30.5" y="-146.8" font-family="Helvetica,sans-Serif" font-size="14.00" fill="#006d2c">Activity: student</text>
<text text-anchor="start" x="20.5" y="-131.8" font-family="Helvetica,sans-Serif" font-size="14.00" fill="#006d2c">workshop 2 held ◨</text>
</g>
<!-- Activity: student workshop 2 held !noyes &#45;&gt;Output: student exam skills -->
<g id="edge5" class="edge"><title>Activity: student workshop 2 held !noyes &#45;&gt;Output: student exam skills</title>
<path fill="none" stroke="#41ab5d" stroke-width="2" d="M147.634,-143C164.3,-143 182.399,-143 199.813,-143"/>
<polygon fill="#41ab5d" stroke="#41ab5d" stroke-width="2" points="199.97,-146.5 209.97,-143 199.97,-139.5 199.97,-146.5"/>
</g>
</g>
</svg>
