<?xml version="1.0" encoding="UTF-8" standalone="no"?>
<!DOCTYPE svg PUBLIC "-//W3C//DTD SVG 1.1//EN"
 "http://www.w3.org/Graphics/SVG/1.1/DTD/svg11.dtd">
<!-- Generated by graphviz version 2.38.0 (20140413.2041)
 -->
<!-- Title: foo Pages: 1 -->
<svg width="335pt" height="231pt"
 viewBox="0.00 0.00 335.00 231.00" xmlns="http://www.w3.org/2000/svg" xmlns:xlink="http://www.w3.org/1999/xlink">
<g id="graph0" class="graph" transform="scale(1 1) rotate(0) translate(4 227)">
<title>foo</title>
<g id="a_graph0"><a xlink:title=" ">
<polygon fill="white" stroke="none" points="-4,4 -4,-227 331,-227 331,4 -4,4"/>
</a>
</g>
<g id="clust1" class="cluster"><title>cluster_ConsequenceVariable</title>
<g id="a_clust1"><a xlink:title=" ">
<path fill="#efedf5" stroke="#efedf5" d="M225,-8C225,-8 307,-8 307,-8 313,-8 319,-14 319,-20 319,-20 319,-194 319,-194 319,-200 313,-206 307,-206 307,-206 225,-206 225,-206 219,-206 213,-200 213,-194 213,-194 213,-20 213,-20 213,-14 219,-8 225,-8"/>
<text text-anchor="start" x="221" y="-190.8" font-family="arial" font-size="14.00">Consequence</text>
<text text-anchor="start" x="240" y="-175.8" font-family="arial" font-size="14.00">Variable</text>
</a>
</g>
</g>
<g id="clust2" class="cluster"><title>cluster_InfluenceVariables</title>
<g id="a_clust2"><a xlink:title=" ">
<path fill="#efedf5" stroke="#efedf5" d="M20,-11C20,-11 109,-11 109,-11 115,-11 121,-17 121,-23 121,-23 121,-203 121,-203 121,-209 115,-215 109,-215 109,-215 20,-215 20,-215 14,-215 8,-209 8,-203 8,-203 8,-23 8,-23 8,-17 14,-11 20,-11"/>
<text text-anchor="start" x="16.5" y="-199.8" font-family="arial" font-size="14.00">Influence</text>
<text text-anchor="start" x="16" y="-184.8" font-family="arial" font-size="14.00">Variables</text>
</a>
</g>
</g>
<!-- Student feels they live up to expectations -->
<g id="node1" class="node"><title>Student feels they live up to expectations</title>
<polygon fill="#e5f5e0" stroke="#e5f5e0" stroke-width="2" points="113,-169 16,-169 16,-101 113,-101 113,-169"/>
<text text-anchor="start" x="40" y="-153.8" font-family="arial" font-size="14.00">Student</text>
<text text-anchor="start" x="33.5" y="-138.8" font-family="arial" font-size="14.00">feels they</text>
<text text-anchor="start" x="36" y="-123.8" font-family="arial" font-size="14.00">live up to</text>
<text text-anchor="start" x="24" y="-108.8" font-family="arial" font-size="14.00">expectations</text>
</g>
<!-- Student satisfaction with school. Influence: &#39;up&#45;up&#39;//(Evidence: see the research from 2015) -->
<g id="node2" class="node"><title>Student satisfaction with school. Influence: &#39;up&#45;up&#39;//(Evidence: see the research from 2015)</title>
<polygon fill="#e5f5e0" stroke="#e5f5e0" stroke-width="2" points="311,-159.5 221,-159.5 221,-16.5 311,-16.5 311,-159.5"/>
<text text-anchor="start" x="241.5" y="-144.3" font-family="arial" font-size="14.00">Student</text>
<text text-anchor="start" x="230" y="-129.3" font-family="arial" font-size="14.00">satisfaction</text>
<text text-anchor="start" x="229" y="-114.3" font-family="arial" font-size="14.00">with school.</text>
<text text-anchor="start" x="234.5" y="-99.3" font-family="arial" font-size="14.00">Influence:</text>
<text text-anchor="start" x="244.5" y="-84.3" font-family="arial" font-size="14.00">&#39;up&#45;up&#39;</text>
<text text-anchor="start" x="232" y="-69.3" font-family="arial" font-size="14.00">(Evidence:</text>
<text text-anchor="start" x="242" y="-54.3" font-family="arial" font-size="14.00">see the</text>
<text text-anchor="start" x="238" y="-39.3" font-family="arial" font-size="14.00">research</text>
<text text-anchor="start" x="230.5" y="-24.3" font-family="arial" font-size="14.00">from 2015)</text>
</g>
<!-- Student feels they live up to expectations&#45;&gt;Student satisfaction with school. Influence: &#39;up&#45;up&#39;//(Evidence: see the research from 2015) -->
<g id="edge1" class="edge"><title>Student feels they live up to expectations&#45;&gt;Student satisfaction with school. Influence: &#39;up&#45;up&#39;//(Evidence: see the research from 2015)</title>
<path fill="none" stroke="#41ab5d" d="M113.032,-123.802C142.439,-116.874 180.277,-107.96 210.841,-100.759"/>
<polygon fill="#41ab5d" stroke="#41ab5d" points="211.973,-104.088 220.904,-98.3885 210.368,-97.2749 211.973,-104.088"/>
<text text-anchor="start" x="139.5" y="-180.8" font-family="Times New Roman,serif" font-size="14.00">Evidence:</text>
<text text-anchor="start" x="157.5" y="-165.8" font-family="Times New Roman,serif" font-size="14.00">see</text>
<text text-anchor="start" x="139.5" y="-150.8" font-family="Times New Roman,serif" font-size="14.00">additional</text>
<text text-anchor="start" x="143.5" y="-135.8" font-family="Times New Roman,serif" font-size="14.00">research</text>
<text text-anchor="start" x="138" y="-120.8" font-family="Times New Roman,serif" font-size="14.00">from 2016</text>
</g>
<!-- Student feels supported and liked -->
<g id="node3" class="node"><title>Student feels supported and liked</title>
<polygon fill="#e5f5e0" stroke="#e5f5e0" stroke-width="2" points="105,-87 24,-87 24,-19 105,-19 105,-87"/>
<text text-anchor="start" x="40" y="-71.8" font-family="arial" font-size="14.00">Student</text>
<text text-anchor="start" x="48.5" y="-56.8" font-family="arial" font-size="14.00">feels</text>
<text text-anchor="start" x="32" y="-41.8" font-family="arial" font-size="14.00">supported</text>
<text text-anchor="start" x="36" y="-26.8" font-family="arial" font-size="14.00">and liked</text>
</g>
<!-- Student feels supported and liked&#45;&gt;Student satisfaction with school. Influence: &#39;up&#45;up&#39;//(Evidence: see the research from 2015) -->
<g id="edge2" class="edge"><title>Student feels supported and liked&#45;&gt;Student satisfaction with school. Influence: &#39;up&#45;up&#39;//(Evidence: see the research from 2015)</title>
<path fill="none" stroke="#41ab5d" d="M105.392,-59.9987C135.586,-65.2957 177.39,-72.6298 210.641,-78.4634"/>
<polygon fill="#41ab5d" stroke="#41ab5d" points="210.209,-81.9409 220.664,-80.2217 211.419,-75.0462 210.209,-81.9409"/>
</g>
</g>
</svg>
