<?xml version="1.0" encoding="UTF-8" standalone="no"?>
<!DOCTYPE svg PUBLIC "-//W3C//DTD SVG 1.1//EN"
 "http://www.w3.org/Graphics/SVG/1.1/DTD/svg11.dtd">
<!-- Generated by graphviz version 2.38.0 (20140413.2041)
 -->
<!-- Title: foo Pages: 1 -->
<svg width="420pt" height="98pt"
 viewBox="0.00 0.00 420.00 98.00" xmlns="http://www.w3.org/2000/svg" xmlns:xlink="http://www.w3.org/1999/xlink">
<g id="graph0" class="graph" transform="scale(1 1) rotate(0) translate(4 94)">
<title>foo</title>
<g id="a_graph0"><a xlink:title=" ">
<polygon fill="white" stroke="none" points="-4,4 -4,-94 416,-94 416,4 -4,4"/>
</a>
</g>
<!-- How much student feels that they live up to expectations -->
<g id="node1" class="node"><title>How much student feels that they live up to expectations</title>
<polygon fill="#e5f5e0" stroke="#e5f5e0" stroke-width="2" points="194,-90 0,-90 0,-52 194,-52 194,-90"/>
<text text-anchor="start" x="8" y="-74.8" font-family="arial" font-size="14.00">How much student feels that</text>
<text text-anchor="start" x="11.5" y="-59.8" font-family="arial" font-size="14.00">they live up to expectations</text>
</g>
<!-- Student satisfaction with school -->
<g id="node2" class="node"><title>Student satisfaction with school</title>
<polygon fill="#e5f5e0" stroke="#e5f5e0" stroke-width="2" points="412,-64 244,-64 244,-26 412,-26 412,-64"/>
<text text-anchor="start" x="252" y="-48.8" font-family="arial" font-size="14.00">Student satisfaction with</text>
<text text-anchor="start" x="306.5" y="-33.8" font-family="arial" font-size="14.00">school</text>
</g>
<!-- How much student feels that they live up to expectations&#45;&gt;Student satisfaction with school -->
<g id="edge1" class="edge"><title>How much student feels that they live up to expectations&#45;&gt;Student satisfaction with school</title>
<path fill="none" stroke="#41ab5d" d="M194.121,-60.0867C207.289,-58.5917 220.789,-57.0589 233.901,-55.5702"/>
<polygon fill="#41ab5d" stroke="#41ab5d" points="234.299,-59.0475 243.841,-54.4417 233.51,-52.0922 234.299,-59.0475"/>
</g>
<!-- How much student feels supported and liked -->
<g id="node3" class="node"><title>How much student feels supported and liked</title>
<polygon fill="#e5f5e0" stroke="#e5f5e0" stroke-width="2" points="181,-38 13,-38 13,-0 181,-0 181,-38"/>
<text text-anchor="start" x="21" y="-22.8" font-family="arial" font-size="14.00">How much student feels</text>
<text text-anchor="start" x="34.5" y="-7.8" font-family="arial" font-size="14.00">supported and liked</text>
</g>
<!-- How much student feels supported and liked&#45;&gt;Student satisfaction with school -->
<g id="edge2" class="edge"><title>How much student feels supported and liked&#45;&gt;Student satisfaction with school</title>
<path fill="none" stroke="#41ab5d" d="M181.322,-28.4601C198.32,-30.39 216.31,-32.4325 233.631,-34.3992"/>
<polygon fill="#41ab5d" stroke="#41ab5d" points="233.409,-37.8963 243.74,-35.5469 234.199,-30.941 233.409,-37.8963"/>
</g>
</g>
</svg>
