<?xml version="1.0" encoding="UTF-8" standalone="no"?>
<!DOCTYPE svg PUBLIC "-//W3C//DTD SVG 1.1//EN"
 "http://www.w3.org/Graphics/SVG/1.1/DTD/svg11.dtd">
<!-- Generated by graphviz version 2.38.0 (20140413.2041)
 -->
<!-- Title: foo Pages: 1 -->
<svg width="372pt" height="81pt"
 viewBox="0.00 0.00 372.00 81.00" xmlns="http://www.w3.org/2000/svg" xmlns:xlink="http://www.w3.org/1999/xlink">
<g id="graph0" class="graph" transform="scale(1 1) rotate(0) translate(4 77)">
<title>foo</title>
<g id="a_graph0"><a xlink:title=" ">
<polygon fill="#c7e9c0" stroke="none" points="-4,4 -4,-77 368,-77 368,4 -4,4"/>
<text text-anchor="start" x="144" y="-7.2" font-family="tahoma" font-size="11.00" fill="#238b45">Try this instead</text>
</a>
</g>
<!-- ~ For each day: Voter hears the day&#39;s speeches -->
<g id="node1" class="node"><title>~ For each day: Voter hears the day&#39;s speeches</title>
<polygon fill="#f7fcf5" stroke="#f7fcf5" points="150,-73 0,-73 0,-20 150,-20 150,-73"/>
<text text-anchor="start" x="25.5" y="-57.8" font-family="Helvetica,sans-Serif" font-size="14.00" fill="#006d2c">~ For each day:</text>
<text text-anchor="start" x="8" y="-42.8" font-family="Helvetica,sans-Serif" font-size="14.00" fill="#006d2c">Voter hears the day&#39;s</text>
<text text-anchor="start" x="43" y="-27.8" font-family="Helvetica,sans-Serif" font-size="14.00" fill="#006d2c">speeches</text>
</g>
<!-- day Election Thursday: Voter decides to vote for Tory party -->
<g id="node2" class="node"><title>day Election Thursday: Voter decides to vote for Tory party</title>
<polygon fill="#f7fcf5" stroke="#f7fcf5" points="364,-73 200,-73 200,-20 364,-20 364,-73"/>
<text text-anchor="start" x="208" y="-57.8" font-family="Helvetica,sans-Serif" font-size="14.00" fill="#006d2c">day=Election Thursday:</text>
<text text-anchor="start" x="214" y="-42.8" font-family="Helvetica,sans-Serif" font-size="14.00" fill="#006d2c">Voter decides to vote</text>
<text text-anchor="start" x="239.5" y="-27.8" font-family="Helvetica,sans-Serif" font-size="14.00" fill="#006d2c">for Tory party</text>
</g>
<!-- ~ For each day: Voter hears the day&#39;s speeches&#45;&gt;day Election Thursday: Voter decides to vote for Tory party -->
<g id="edge1" class="edge"><title>~ For each day: Voter hears the day&#39;s speeches&#45;&gt;day Election Thursday: Voter decides to vote for Tory party</title>
<path fill="none" stroke="#41ab5d" stroke-width="2" d="M150.01,-46.5C162.896,-46.5 176.435,-46.5 189.719,-46.5"/>
<polygon fill="#41ab5d" stroke="#41ab5d" stroke-width="2" points="189.813,-50.0001 199.813,-46.5 189.813,-43.0001 189.813,-50.0001"/>
</g>
</g>
</svg>
