<?xml version="1.0" encoding="UTF-8" standalone="no"?>
<!DOCTYPE svg PUBLIC "-//W3C//DTD SVG 1.1//EN"
 "http://www.w3.org/Graphics/SVG/1.1/DTD/svg11.dtd">
<!-- Generated by graphviz version 2.38.0 (20140413.2041)
 -->
<!-- Title: foo Pages: 1 -->
<svg width="422pt" height="98pt"
 viewBox="0.00 0.00 422.00 98.00" xmlns="http://www.w3.org/2000/svg" xmlns:xlink="http://www.w3.org/1999/xlink">
<g id="graph0" class="graph" transform="scale(1 1) rotate(0) translate(4 94)">
<title>foo</title>
<g id="a_graph0"><a xlink:title=" ">
<polygon fill="white" stroke="none" points="-4,4 -4,-94 418,-94 418,4 -4,4"/>
</a>
</g>
<!-- Student feels they live up to expectations -->
<g id="node1" class="node"><title>Student feels they live up to expectations</title>
<polygon fill="#e5f5e0" stroke="#e5f5e0" stroke-width="2" points="193.5,-90 2.5,-90 2.5,-52 193.5,-52 193.5,-90"/>
<text text-anchor="start" x="10.5" y="-74.8" font-family="arial" font-size="14.00">Student feels they live up to</text>
<text text-anchor="start" x="57.5" y="-59.8" font-family="arial" font-size="14.00">expectations</text>
</g>
<!-- Student satisfaction with school -->
<g id="node2" class="node"><title>Student satisfaction with school</title>
<polygon fill="#e5f5e0" stroke="#e5f5e0" stroke-width="2" points="414,-64 246,-64 246,-26 414,-26 414,-64"/>
<text text-anchor="start" x="254" y="-48.8" font-family="arial" font-size="14.00">Student satisfaction with</text>
<text text-anchor="start" x="308.5" y="-33.8" font-family="arial" font-size="14.00">school</text>
</g>
<!-- Student feels they live up to expectations&#45;&gt;Student satisfaction with school -->
<g id="edge1" class="edge"><title>Student feels they live up to expectations&#45;&gt;Student satisfaction with school</title>
<path fill="none" stroke="#41ab5d" d="M193.545,-60.3122C207.504,-58.7344 221.877,-57.1095 235.808,-55.5348"/>
<polygon fill="#41ab5d" stroke="#41ab5d" points="236.317,-58.9996 245.861,-54.3984 235.531,-52.0439 236.317,-58.9996"/>
</g>
<!-- Student feels supported and liked -->
<g id="node3" class="node"><title>Student feels supported and liked</title>
<polygon fill="#e5f5e0" stroke="#e5f5e0" stroke-width="2" points="196,-38 0,-38 0,-0 196,-0 196,-38"/>
<text text-anchor="start" x="8" y="-22.8" font-family="arial" font-size="14.00">Student feels supported and</text>
<text text-anchor="start" x="83" y="-7.8" font-family="arial" font-size="14.00">liked</text>
</g>
<!-- Student feels supported and liked&#45;&gt;Student satisfaction with school -->
<g id="edge2" class="edge"><title>Student feels supported and liked&#45;&gt;Student satisfaction with school</title>
<path fill="none" stroke="#41ab5d" d="M196.207,-29.9887C209.397,-31.4796 222.906,-33.0068 236.018,-34.489"/>
<polygon fill="#41ab5d" stroke="#41ab5d" points="235.627,-37.967 245.956,-35.6125 236.413,-31.0113 235.627,-37.967"/>
</g>
</g>
</svg>
