<?xml version="1.0" encoding="UTF-8" standalone="no"?>
<!DOCTYPE svg PUBLIC "-//W3C//DTD SVG 1.1//EN"
 "http://www.w3.org/Graphics/SVG/1.1/DTD/svg11.dtd">
<!-- Generated by graphviz version 2.38.0 (20140413.2041)
 -->
<!-- Title: foo Pages: 1 -->
<svg width="811pt" height="269pt"
 viewBox="0.00 0.00 811.33 269.00" xmlns="http://www.w3.org/2000/svg" xmlns:xlink="http://www.w3.org/1999/xlink">
<g id="graph0" class="graph" transform="scale(1 1) rotate(0) translate(4 265)">
<title>foo</title>
<g id="a_graph0"><a xlink:title=" ">
<polygon fill="#d9d9d9" stroke="none" points="-4,4 -4,-265 807.333,-265 807.333,4 -4,4"/>
<text text-anchor="start" x="346.167" y="-7.2" font-family="tahoma" font-size="11.00" fill="#525252">An (over&#45;)simplification</text>
</a>
</g>
<g id="clust3" class="cluster"><title>cluster_Outputlevel</title>
<g id="a_clust3"><a xlink:title=" ">
<path fill="#ffffff" fill-opacity="0.313725" stroke="#ffffff" stroke-opacity="0.313725" d="M244.108,-28C244.108,-28 387.406,-28 387.406,-28 393.406,-28 399.406,-34 399.406,-40 399.406,-40 399.406,-241 399.406,-241 399.406,-247 393.406,-253 387.406,-253 387.406,-253 244.108,-253 244.108,-253 238.108,-253 232.108,-247 232.108,-241 232.108,-241 232.108,-40 232.108,-40 232.108,-34 238.108,-28 244.108,-28"/>
<text text-anchor="start" x="240.108" y="-237.8" font-family="Helvetica,sans-Serif" font-size="14.00">Output level</text>
</a>
</g>
</g>
<g id="clust2" class="cluster"><title>cluster_Outcomelevel</title>
<g id="a_clust2"><a xlink:title=" ">
<path fill="#ffffff" fill-opacity="0.313725" stroke="#ffffff" stroke-opacity="0.313725" d="M462.65,-78C462.65,-78 611.977,-78 611.977,-78 617.977,-78 623.977,-84 623.977,-90 623.977,-90 623.977,-191 623.977,-191 623.977,-197 617.977,-203 611.977,-203 611.977,-203 462.65,-203 462.65,-203 456.65,-203 450.65,-197 450.65,-191 450.65,-191 450.65,-90 450.65,-90 450.65,-84 456.65,-78 462.65,-78"/>
<text text-anchor="start" x="458.65" y="-187.8" font-family="Helvetica,sans-Serif" font-size="14.00">Outcome level</text>
</a>
</g>
</g>
<g id="clust1" class="cluster"><title>cluster_Goallevel</title>
<g id="a_clust1"><a xlink:title=" ">
<path fill="#ffffff" fill-opacity="0.313725" stroke="#ffffff" stroke-opacity="0.313725" d="M687.222,-103C687.222,-103 783.797,-103 783.797,-103 789.797,-103 795.797,-109 795.797,-115 795.797,-115 795.797,-166 795.797,-166 795.797,-172 789.797,-178 783.797,-178 783.797,-178 687.222,-178 687.222,-178 681.222,-178 675.222,-172 675.222,-166 675.222,-166 675.222,-115 675.222,-115 675.222,-109 681.222,-103 687.222,-103"/>
<text text-anchor="start" x="683.222" y="-162.8" font-family="Helvetica,sans-Serif" font-size="14.00">Goal level</text>
</a>
</g>
</g>
<g id="clust4" class="cluster"><title>cluster_Inputlevel</title>
<g id="a_clust4"><a xlink:title=" ">
<path fill="#ffffff" fill-opacity="0.313725" stroke="#ffffff" stroke-opacity="0.313725" d="M24.0575,-28C24.0575,-28 168.863,-28 168.863,-28 174.863,-28 180.863,-34 180.863,-40 180.863,-40 180.863,-241 180.863,-241 180.863,-247 174.863,-253 168.863,-253 168.863,-253 24.0575,-253 24.0575,-253 18.0575,-253 12.0575,-247 12.0575,-241 12.0575,-241 12.0575,-40 12.0575,-40 12.0575,-34 18.0575,-28 24.0575,-28"/>
<text text-anchor="start" x="20.0575" y="-237.8" font-family="Helvetica,sans-Serif" font-size="14.00">Input level</text>
</a>
</g>
</g>
<!-- 1.1 Outcome -->
<g id="node1" class="node"><title>1.1 Outcome</title>
<polygon fill="#fee6ce" stroke="#fee6ce" points="587.297,-172 488.297,-172 488.297,-136 587.297,-136 587.297,-172"/>
<text text-anchor="start" x="496.297" y="-150.3" font-family="Helvetica,sans-Serif" font-size="14.00">1.1 Outcome</text>
</g>
<!-- 1 Goal -->
<g id="node2" class="node"><title>1 Goal</title>
<polygon fill="#fee6ce" stroke="#fee6ce" points="764.297,-147 705.297,-147 705.297,-111 764.297,-111 764.297,-147"/>
<text text-anchor="start" x="713.297" y="-125.3" font-family="Helvetica,sans-Serif" font-size="14.00">1 Goal</text>
</g>
<!-- 1.1 Outcome&#45;&gt;1 Goal -->
<g id="edge1" class="edge"><title>1.1 Outcome&#45;&gt;1 Goal</title>
<path fill="none" stroke="#737373" stroke-width="2" d="M587.501,-147.756C620.744,-143.494 664.184,-137.925 695.071,-133.965"/>
<polygon fill="#737373" stroke="#737373" stroke-width="2" points="695.557,-137.431 705.031,-132.688 694.667,-130.488 695.557,-137.431"/>
</g>
<!-- 1.2 Outcome -->
<g id="node3" class="node"><title>1.2 Outcome</title>
<polygon fill="#fee6ce" stroke="#fee6ce" points="587.297,-122 488.297,-122 488.297,-86 587.297,-86 587.297,-122"/>
<text text-anchor="start" x="496.297" y="-100.3" font-family="Helvetica,sans-Serif" font-size="14.00">1.2 Outcome</text>
</g>
<!-- 1.2 Outcome&#45;&gt;1 Goal -->
<g id="edge2" class="edge"><title>1.2 Outcome&#45;&gt;1 Goal</title>
<path fill="none" stroke="#737373" stroke-width="2" d="M587.501,-110.244C620.744,-114.506 664.184,-120.075 695.071,-124.035"/>
<polygon fill="#737373" stroke="#737373" stroke-width="2" points="694.667,-127.512 705.031,-125.312 695.557,-120.569 694.667,-127.512"/>
</g>
<!-- 1.1.a Output -->
<g id="node4" class="node"><title>1.1.a Output</title>
<polygon fill="#fee6ce" stroke="#fee6ce" points="362.797,-222 268.797,-222 268.797,-186 362.797,-186 362.797,-222"/>
<text text-anchor="start" x="276.797" y="-200.3" font-family="Helvetica,sans-Serif" font-size="14.00">1.1.a Output</text>
</g>
<!-- 1.1.a Output&#45;&gt;1.1 Outcome -->
<g id="edge3" class="edge"><title>1.1.a Output&#45;&gt;1.1 Outcome</title>
<path fill="none" stroke="#737373" stroke-width="2" d="M362.917,-193.518C396.431,-185.901 442.053,-175.533 478.157,-167.327"/>
<polygon fill="#737373" stroke="#737373" stroke-width="2" points="479.094,-170.704 488.069,-165.075 477.542,-163.878 479.094,-170.704"/>
</g>
<!-- 1.1.b Output -->
<g id="node5" class="node"><title>1.1.b Output</title>
<polygon fill="#fee6ce" stroke="#fee6ce" points="363.297,-172 268.297,-172 268.297,-136 363.297,-136 363.297,-172"/>
<text text-anchor="start" x="276.297" y="-150.3" font-family="Helvetica,sans-Serif" font-size="14.00">1.1.b Output</text>
</g>
<!-- 1.1.b Output&#45;&gt;1.1 Outcome -->
<g id="edge4" class="edge"><title>1.1.b Output&#45;&gt;1.1 Outcome</title>
<path fill="none" stroke="#737373" stroke-width="2" d="M363.454,-154C396.745,-154 441.78,-154 477.602,-154"/>
<polygon fill="#737373" stroke="#737373" stroke-width="2" points="477.921,-157.5 487.921,-154 477.921,-150.5 477.921,-157.5"/>
</g>
<!-- 1.2.a Output -->
<g id="node6" class="node"><title>1.2.a Output</title>
<polygon fill="#fee6ce" stroke="#fee6ce" points="362.797,-122 268.797,-122 268.797,-86 362.797,-86 362.797,-122"/>
<text text-anchor="start" x="276.797" y="-100.3" font-family="Helvetica,sans-Serif" font-size="14.00">1.2.a Output</text>
</g>
<!-- 1.2.a Output&#45;&gt;1.2 Outcome -->
<g id="edge5" class="edge"><title>1.2.a Output&#45;&gt;1.2 Outcome</title>
<path fill="none" stroke="#737373" stroke-width="2" d="M362.917,-104C396.288,-104 441.663,-104 477.693,-104"/>
<polygon fill="#737373" stroke="#737373" stroke-width="2" points="478.069,-107.5 488.069,-104 478.069,-100.5 478.069,-107.5"/>
</g>
<!-- 1.2.b Output -->
<g id="node7" class="node"><title>1.2.b Output</title>
<polygon fill="#fee6ce" stroke="#fee6ce" points="363.297,-72 268.297,-72 268.297,-36 363.297,-36 363.297,-72"/>
<text text-anchor="start" x="276.297" y="-50.3" font-family="Helvetica,sans-Serif" font-size="14.00">1.2.b Output</text>
</g>
<!-- 1.2.b Output&#45;&gt;1.2 Outcome -->
<g id="edge6" class="edge"><title>1.2.b Output&#45;&gt;1.2 Outcome</title>
<path fill="none" stroke="#737373" stroke-width="2" d="M363.454,-64.6037C396.888,-72.2025 442.167,-82.493 478.063,-90.6512"/>
<polygon fill="#737373" stroke="#737373" stroke-width="2" points="477.394,-94.0884 487.921,-92.8917 478.945,-87.2625 477.394,-94.0884"/>
</g>
<!-- 1.1.a.1 Input -->
<g id="node8" class="node"><title>1.1.a.1 Input</title>
<polygon fill="#fee6ce" stroke="#fee6ce" points="144.297,-222 49.2974,-222 49.2974,-186 144.297,-186 144.297,-222"/>
<text text-anchor="start" x="57.2974" y="-200.3" font-family="Helvetica,sans-Serif" font-size="14.00">1.1.a.1 Input</text>
</g>
<!-- 1.1.a.1 Input&#45;&gt;1.1.a Output -->
<g id="edge7" class="edge"><title>1.1.a.1 Input&#45;&gt;1.1.a Output</title>
<path fill="none" stroke="#737373" stroke-width="2" d="M144.349,-204C177.786,-204 223.028,-204 258.498,-204"/>
<polygon fill="#737373" stroke="#737373" stroke-width="2" points="258.695,-207.5 268.695,-204 258.695,-200.5 258.695,-207.5"/>
</g>
<!-- 1.1.b.1 Input -->
<g id="node9" class="node"><title>1.1.b.1 Input</title>
<polygon fill="#fee6ce" stroke="#fee6ce" points="144.797,-172 48.7974,-172 48.7974,-136 144.797,-136 144.797,-172"/>
<text text-anchor="start" x="56.7974" y="-150.3" font-family="Helvetica,sans-Serif" font-size="14.00">1.1.b.1 Input</text>
</g>
<!-- 1.1.b.1 Input&#45;&gt;1.1.b Output -->
<g id="edge8" class="edge"><title>1.1.b.1 Input&#45;&gt;1.1.b Output</title>
<path fill="none" stroke="#737373" stroke-width="2" d="M144.883,-154C178.125,-154 222.834,-154 258.047,-154"/>
<polygon fill="#737373" stroke="#737373" stroke-width="2" points="258.177,-157.5 268.177,-154 258.177,-150.5 258.177,-157.5"/>
</g>
<!-- 1.2.a.1 Input -->
<g id="node10" class="node"><title>1.2.a.1 Input</title>
<polygon fill="#fee6ce" stroke="#fee6ce" points="144.297,-122 49.2974,-122 49.2974,-86 144.297,-86 144.297,-122"/>
<text text-anchor="start" x="57.2974" y="-100.3" font-family="Helvetica,sans-Serif" font-size="14.00">1.2.a.1 Input</text>
</g>
<!-- 1.2.a.1 Input&#45;&gt;1.2.a Output -->
<g id="edge9" class="edge"><title>1.2.a.1 Input&#45;&gt;1.2.a Output</title>
<path fill="none" stroke="#737373" stroke-width="2" d="M144.349,-104C177.786,-104 223.028,-104 258.498,-104"/>
<polygon fill="#737373" stroke="#737373" stroke-width="2" points="258.695,-107.5 268.695,-104 258.695,-100.5 258.695,-107.5"/>
</g>
<!-- 1.2.b.1 Input -->
<g id="node11" class="node"><title>1.2.b.1 Input</title>
<polygon fill="#fee6ce" stroke="#fee6ce" points="144.797,-72 48.7974,-72 48.7974,-36 144.797,-36 144.797,-72"/>
<text text-anchor="start" x="56.7974" y="-50.3" font-family="Helvetica,sans-Serif" font-size="14.00">1.2.b.1 Input</text>
</g>
<!-- 1.2.b.1 Input&#45;&gt;1.2.b Output -->
<g id="edge10" class="edge"><title>1.2.b.1 Input&#45;&gt;1.2.b Output</title>
<path fill="none" stroke="#737373" stroke-width="2" d="M144.883,-54C178.125,-54 222.834,-54 258.047,-54"/>
<polygon fill="#737373" stroke="#737373" stroke-width="2" points="258.177,-57.5001 268.177,-54 258.177,-50.5001 258.177,-57.5001"/>
</g>
</g>
</svg>
