<?xml version="1.0" encoding="UTF-8" standalone="no"?>
<!DOCTYPE svg PUBLIC "-//W3C//DTD SVG 1.1//EN"
 "http://www.w3.org/Graphics/SVG/1.1/DTD/svg11.dtd">
<!-- Generated by graphviz version 2.38.0 (20140413.2041)
 -->
<!-- Title: foo Pages: 1 -->
<svg width="433pt" height="72pt"
 viewBox="0.00 0.00 433.00 72.00" xmlns="http://www.w3.org/2000/svg" xmlns:xlink="http://www.w3.org/1999/xlink">
<g id="graph0" class="graph" transform="scale(1 1) rotate(0) translate(4 68)">
<title>foo</title>
<g id="a_graph0"><a xlink:title=" ">
<polygon fill="white" stroke="none" points="-4,4 -4,-68 429,-68 429,4 -4,4"/>
</a>
</g>
<!-- Teaching quality *low&#45;&#45;* -->
<g id="node1" class="node"><title>Teaching quality *low&#45;&#45;*</title>
<polygon fill="#e5f5e0" stroke="#e5f5e0" stroke-width="2" points="205,-58.5 130,-58.5 130,-5.5 205,-5.5 205,-58.5"/>
<text text-anchor="start" x="138" y="-43.3" font-family="arial" font-size="14.00">Teaching</text>
<text text-anchor="start" x="147.5" y="-28.3" font-family="arial" font-size="14.00">quality</text>
<text text-anchor="start" x="145" y="-13.3" font-family="arial" font-size="14.00" fill="darkgreen">*low&#45;&#45;* </text>
</g>
<!-- Students achievement !heart &#160;&#160;*low&#45;&#45;* -->
<g id="node2" class="node"><title>Students achievement !heart &#160;&#160;*low&#45;&#45;*</title>
<polygon fill="#e5f5e0" stroke="#e5f5e0" stroke-width="2" points="425,-50 255,-50 255,-14 425,-14 425,-50"/>
<text text-anchor="start" x="263" y="-35.8" font-family="arial" font-size="14.00">Students achievement </text>
<text text-anchor="start" x="408" y="-35.8" font-family="arial" font-size="14.00" fill="orange">♥</text>
<text text-anchor="start" x="317.5" y="-21.8" font-family="arial" font-size="14.00" fill="darkgreen">*low&#45;&#45;* </text>
</g>
<!-- Teaching quality *low&#45;&#45;*&#45;&gt;Students achievement !heart &#160;&#160;*low&#45;&#45;* -->
<g id="edge1" class="edge"><title>Teaching quality *low&#45;&#45;*&#45;&gt;Students achievement !heart &#160;&#160;*low&#45;&#45;*</title>
<path fill="none" stroke="#41ab5d" d="M205.077,-32C216.887,-32 230.572,-32 244.592,-32"/>
<polygon fill="#41ab5d" stroke="#41ab5d" points="244.837,-35.5001 254.837,-32 244.837,-28.5001 244.837,-35.5001"/>
</g>
<!-- !do Quality of teacher training *low&#45;&#45;* -->
<g id="node3" class="node"><title>!do Quality of teacher training *low&#45;&#45;*</title>
<polygon fill="#e5f5e0" stroke="#e5f5e0" stroke-width="2" points="80,-64 0,-64 0,-0 80,-0 80,-64"/>
<text text-anchor="start" x="8.5" y="-49.8" font-family="arial" font-size="14.00" fill="green">▶ </text>
<text text-anchor="start" x="24.5" y="-49.8" font-family="arial" font-size="14.00"> Quality</text>
<text text-anchor="start" x="8" y="-35.8" font-family="arial" font-size="14.00">of teacher</text>
<text text-anchor="start" x="17" y="-21.8" font-family="arial" font-size="14.00">training</text>
<text text-anchor="start" x="17.5" y="-7.8" font-family="arial" font-size="14.00" fill="darkgreen">*low&#45;&#45;* </text>
</g>
<!-- !do Quality of teacher training *low&#45;&#45;*&#45;&gt;Teaching quality *low&#45;&#45;* -->
<g id="edge2" class="edge"><title>!do Quality of teacher training *low&#45;&#45;*&#45;&gt;Teaching quality *low&#45;&#45;*</title>
<path fill="none" stroke="#41ab5d" d="M80.021,-32C92.5119,-32 106.474,-32 119.474,-32"/>
<polygon fill="#41ab5d" stroke="#41ab5d" points="119.646,-35.5001 129.646,-32 119.646,-28.5001 119.646,-35.5001"/>
</g>
</g>
</svg>
