<?xml version="1.0" encoding="UTF-8" standalone="no"?>
<!DOCTYPE svg PUBLIC "-//W3C//DTD SVG 1.1//EN"
 "http://www.w3.org/Graphics/SVG/1.1/DTD/svg11.dtd">
<!-- Generated by graphviz version 2.38.0 (20140413.2041)
 -->
<!-- Title: foo Pages: 1 -->
<svg width="390pt" height="115pt"
 viewBox="0.00 0.00 390.00 115.00" xmlns="http://www.w3.org/2000/svg" xmlns:xlink="http://www.w3.org/1999/xlink">
<g id="graph0" class="graph" transform="scale(1 1) rotate(0) translate(4 111)">
<title>foo</title>
<g id="a_graph0"><a xlink:title=" ">
<polygon fill="#d9d9d9" stroke="none" points="-4,4 -4,-111 386,-111 386,4 -4,4"/>
<text text-anchor="start" x="167" y="-7.2" font-family="tahoma" font-size="11.00" fill="#525252">Confusing</text>
</a>
</g>
<!-- Intervention -->
<g id="node1" class="node"><title>Intervention</title>
<polygon fill="#fee6ce" stroke="#fee6ce" points="119.5,-107 29.5,-107 29.5,-71 119.5,-71 119.5,-107"/>
<text text-anchor="start" x="37.5" y="-85.3" font-family="Helvetica,sans-Serif" font-size="14.00">Intervention</text>
</g>
<!-- Mortality -->
<g id="node2" class="node"><title>Mortality</title>
<polygon fill="#fee6ce" stroke="#fee6ce" points="382,-81 314,-81 314,-45 382,-45 382,-81"/>
<text text-anchor="start" x="322" y="-59.3" font-family="Helvetica,sans-Serif" font-size="14.00">Mortality</text>
</g>
<!-- Intervention&#45;&gt;Mortality -->
<g id="edge1" class="edge"><title>Intervention&#45;&gt;Mortality</title>
<path fill="none" stroke="#737373" stroke-width="2" d="M119.727,-85.9577C162.951,-82.8226 230.587,-77.4863 289,-71 293.799,-70.4671 298.814,-69.8566 303.799,-69.2155"/>
<polygon fill="#737373" stroke="#737373" stroke-width="2" points="304.46,-72.6585 313.912,-67.872 303.539,-65.7195 304.46,-72.6585"/>
<text text-anchor="start" x="174" y="-85.8" font-family="Helvetica,sans-Serif" font-size="14.00" fill="#cd5c5c">negative influence</text>
</g>
<!-- Presence of bacteria -->
<g id="node3" class="node"><title>Presence of bacteria</title>
<polygon fill="#fee6ce" stroke="#fee6ce" points="149,-56 0,-56 0,-20 149,-20 149,-56"/>
<text text-anchor="start" x="8" y="-34.3" font-family="Helvetica,sans-Serif" font-size="14.00">Presence of bacteria</text>
</g>
<!-- Presence of bacteria&#45;&gt;Mortality -->
<g id="edge2" class="edge"><title>Presence of bacteria&#45;&gt;Mortality</title>
<path fill="none" stroke="#737373" stroke-width="2" d="M149.286,-32.2158C190.72,-30.5955 243.156,-31.268 289,-40.2 294.048,-41.1835 299.22,-42.5877 304.298,-44.2226"/>
<polygon fill="#737373" stroke="#737373" stroke-width="2" points="303.291,-47.5789 313.886,-47.6009 305.618,-40.9767 303.291,-47.5789"/>
<text text-anchor="start" x="176.5" y="-46.6" font-family="Helvetica,sans-Serif" font-size="14.00" fill="#cd5c5c">positive influence</text>
</g>
</g>
</svg>
