<?xml version="1.0" encoding="UTF-8" standalone="no"?>
<!DOCTYPE svg PUBLIC "-//W3C//DTD SVG 1.1//EN"
 "http://www.w3.org/Graphics/SVG/1.1/DTD/svg11.dtd">
<!-- Generated by graphviz version 2.38.0 (20140413.2041)
 -->
<!-- Title: foo Pages: 1 -->
<svg width="537pt" height="134pt"
 viewBox="0.00 0.00 537.00 134.00" xmlns="http://www.w3.org/2000/svg" xmlns:xlink="http://www.w3.org/1999/xlink">
<g id="graph0" class="graph" transform="scale(1 1) rotate(0) translate(4 130)">
<title>foo</title>
<g id="a_graph0"><a xlink:title=" ">
<polygon fill="white" stroke="none" points="-4,4 -4,-130 533,-130 533,4 -4,4"/>
</a>
</g>
<!-- S -->
<g id="node1" class="node"><title>S</title>
<polygon fill="#e5f5e0" stroke="#e5f5e0" stroke-width="2" points="529,-93 358,-93 358,-55 529,-55 529,-93"/>
<text text-anchor="start" x="426.5" y="-77.8" font-family="arial" font-size="14.00">Shop</text>
<text text-anchor="start" x="366" y="-62.8" font-family="arial" font-size="14.00">(Influence: Downstream)</text>
</g>
<!-- S&#45;&gt;S -->
<g id="edge1" class="edge"><title>S&#45;&gt;S</title>
<path fill="none" stroke="#41ab5d" d="M419.22,-93.3208C418.141,-100.791 426.234,-107 443.5,-107 452.672,-107 459.256,-105.248 463.251,-102.485"/>
<polygon fill="#41ab5d" stroke="#41ab5d" points="466.487,-103.837 467.78,-93.3208 460.212,-100.735 466.487,-103.837"/>
<text text-anchor="start" x="423.5" y="-110.8" font-family="Times New Roman,serif" font-size="14.00">delay:1</text>
</g>
<!-- W -->
<g id="node2" class="node"><title>W</title>
<polygon fill="#e5f5e0" stroke="#e5f5e0" stroke-width="2" points="268,-38 115,-38 115,-0 268,-0 268,-38"/>
<text text-anchor="start" x="154.5" y="-22.8" font-family="arial" font-size="14.00">Warehouse</text>
<text text-anchor="start" x="123" y="-7.8" font-family="arial" font-size="14.00">(Influence: Upstream)</text>
</g>
<!-- W&#45;&gt;S -->
<g id="edge2" class="edge"><title>W&#45;&gt;S</title>
<path fill="none" stroke="#41ab5d" d="M268.187,-35.6511C293.291,-41.174 321.556,-47.3923 347.902,-53.1885"/>
<polygon fill="#41ab5d" stroke="#41ab5d" points="347.377,-56.6566 357.895,-55.387 348.881,-49.82 347.377,-56.6566"/>
<text text-anchor="start" x="293" y="-53.8" font-family="Times New Roman,serif" font-size="14.00">delay:1</text>
</g>
<!-- W&#45;&gt;W -->
<g id="edge3" class="edge"><title>W&#45;&gt;W</title>
<path fill="none" stroke="#41ab5d" d="M172.45,-38.3208C171.603,-45.791 177.953,-52 191.5,-52 198.485,-52 203.557,-50.3492 206.715,-47.726"/>
<polygon fill="#41ab5d" stroke="#41ab5d" points="210.015,-48.9022 210.55,-38.3208 203.533,-46.259 210.015,-48.9022"/>
<text text-anchor="start" x="171.5" y="-55.8" font-family="Times New Roman,serif" font-size="14.00">delay:1</text>
</g>
<!-- Valve 2 -->
<g id="node3" class="node"><title>Valve 2</title>
<polygon fill="#e5f5e0" stroke="#e5f5e0" stroke-width="2" points="64,-87 0,-87 0,-51 64,-51 64,-87"/>
<text text-anchor="start" x="8" y="-65.3" font-family="arial" font-size="14.00">Valve 2</text>
</g>
<!-- Valve 2&#45;&gt;S -->
<g id="edge4" class="edge"><title>Valve 2&#45;&gt;S</title>
<path fill="none" stroke="#41ab5d" d="M64.0845,-73.2214C79.3855,-75.0924 98.1257,-77.0767 115,-78 193.281,-82.283 282.236,-80.7924 347.662,-78.5048"/>
<polygon fill="#41ab5d" stroke="#41ab5d" points="348.089,-81.9918 357.955,-78.1316 347.835,-74.9964 348.089,-81.9918"/>
</g>
<!-- Valve 2&#45;&gt;W -->
<g id="edge5" class="edge"><title>Valve 2&#45;&gt;W</title>
<path fill="none" stroke="#41ab5d" d="M64.1169,-59.1216C80.3728,-53.961 100.966,-47.4234 120.786,-41.1314"/>
<polygon fill="#41ab5d" stroke="#41ab5d" points="121.959,-44.4313 130.431,-38.0695 119.841,-37.7594 121.959,-44.4313"/>
</g>
</g>
</svg>
