<?xml version="1.0" encoding="UTF-8" standalone="no"?>
<!DOCTYPE svg PUBLIC "-//W3C//DTD SVG 1.1//EN"
 "http://www.w3.org/Graphics/SVG/1.1/DTD/svg11.dtd">
<!-- Generated by graphviz version 2.38.0 (20140413.2041)
 -->
<!-- Title: foo Pages: 1 -->
<svg width="384pt" height="144pt"
 viewBox="0.00 0.00 384.00 144.00" xmlns="http://www.w3.org/2000/svg" xmlns:xlink="http://www.w3.org/1999/xlink">
<g id="graph0" class="graph" transform="scale(1 1) rotate(0) translate(4 140)">
<title>foo</title>
<g id="a_graph0"><a xlink:title=" ">
<polygon fill="white" stroke="none" points="-4,4 -4,-140 380,-140 380,4 -4,4"/>
</a>
</g>
<!-- Number of staff -->
<g id="node1" class="node"><title>Number of staff</title>
<polygon fill="#e5f5e0" stroke="#e5f5e0" stroke-width="2" points="138.5,-136 23.5,-136 23.5,-100 138.5,-100 138.5,-136"/>
<text text-anchor="start" x="31.5" y="-114.3" font-family="arial" font-size="14.00">Number of staff</text>
</g>
<!-- Success of intervention -->
<g id="node2" class="node"><title>Success of intervention</title>
<polygon fill="#e5f5e0" stroke="#e5f5e0" stroke-width="2" points="376,-86 212,-86 212,-50 376,-50 376,-86"/>
<text text-anchor="start" x="220" y="-64.3" font-family="arial" font-size="14.00">Success of intervention</text>
</g>
<!-- Number of staff&#45;&gt;Success of intervention -->
<g id="edge1" class="edge"><title>Number of staff&#45;&gt;Success of intervention</title>
<path fill="none" stroke="#41ab5d" d="M138.581,-100.455C162.411,-93.0665 187.704,-85.2237 201.185,-81.0434"/>
<polygon fill="#41ab5d" stroke="#41ab5d" points="202.485,-84.3047 211,-78 200.412,-77.6188 202.485,-84.3047"/>
</g>
<!-- Quality of management -->
<g id="node3" class="node"><title>Quality of management</title>
<polygon fill="#e5f5e0" stroke="#e5f5e0" stroke-width="2" points="162,-86 0,-86 0,-50 162,-50 162,-86"/>
<text text-anchor="start" x="8" y="-64.3" font-family="arial" font-size="14.00">Quality of management</text>
</g>
<!-- Quality of management&#45;&gt;Success of intervention -->
<g id="edge2" class="edge"><title>Quality of management&#45;&gt;Success of intervention</title>
<path fill="none" stroke="#41ab5d" d="M162.231,-74.2194C177.602,-75.411 191.703,-76.5041 200.746,-77.2051"/>
<polygon fill="#41ab5d" stroke="#41ab5d" points="200.759,-80.7166 211,-78 201.3,-73.7375 200.759,-80.7166"/>
</g>
<!-- Other factors -->
<g id="node4" class="node"><title>Other factors</title>
<polygon fill="#e5f5e0" stroke="#e5f5e0" stroke-width="2" points="130.5,-36 31.5,-36 31.5,-0 130.5,-0 130.5,-36"/>
<text text-anchor="start" x="39.5" y="-14.3" font-family="arial" font-size="14.00">Other factors</text>
</g>
<!-- Other factors&#45;&gt;Success of intervention -->
<g id="edge3" class="edge"><title>Other factors&#45;&gt;Success of intervention</title>
<path fill="none" stroke="#41ab5d" d="M130.673,-29.5338C153.336,-34.9042 180.985,-41.4562 206.997,-47.6201"/>
<polygon fill="#41ab5d" stroke="#41ab5d" points="206.334,-51.06 216.872,-49.9602 207.948,-44.2486 206.334,-51.06"/>
</g>
</g>
</svg>
