<?xml version="1.0" encoding="UTF-8" standalone="no"?>
<!DOCTYPE svg PUBLIC "-//W3C//DTD SVG 1.1//EN"
 "http://www.w3.org/Graphics/SVG/1.1/DTD/svg11.dtd">
<!-- Generated by graphviz version 2.38.0 (20140413.2041)
 -->
<!-- Title: foo Pages: 1 -->
<svg width="457pt" height="44pt"
 viewBox="0.00 0.00 457.00 44.00" xmlns="http://www.w3.org/2000/svg" xmlns:xlink="http://www.w3.org/1999/xlink">
<g id="graph0" class="graph" transform="scale(1 1) rotate(0) translate(4 40)">
<title>foo</title>
<g id="a_graph0"><a xlink:title=" ">
<polygon fill="white" stroke="none" points="-4,4 -4,-40 453,-40 453,4 -4,4"/>
</a>
</g>
<!-- About ((50%_)) of constituents supported the law !lohi -->
<g id="node1" class="node"><title>About ((50%_)) of constituents supported the law !lohi</title>
<polygon fill="#e5f5e0" stroke="#e5f5e0" stroke-width="2" points="211,-36 0,-36 0,-0 211,-0 211,-36"/>
<text text-anchor="start" x="8" y="-21.8" font-family="arial" font-size="14.00">About </text>
<text text-anchor="start" x="50" y="-21.8" font-family="arial" font-size="14.00" fill="green">((50%_))</text>
<text text-anchor="start" x="106" y="-21.8" font-family="arial" font-size="14.00"> of constituents</text>
<text text-anchor="start" x="42" y="-7.8" font-family="arial" font-size="14.00">supported the law ◪</text>
</g>
<!-- The law was ((passed_)) !noyes -->
<g id="node2" class="node"><title>The law was ((passed_)) !noyes</title>
<polygon fill="#e5f5e0" stroke="#e5f5e0" stroke-width="2" points="449,-36 261,-36 261,-0 449,-0 449,-36"/>
<text text-anchor="start" x="269" y="-15.3" font-family="arial" font-size="14.00">The law was </text>
<text text-anchor="start" x="351" y="-15.3" font-family="arial" font-size="14.00" fill="green">((passed_))</text>
<text text-anchor="start" x="425" y="-15.3" font-family="arial" font-size="14.00"> ◨</text>
</g>
<!-- About ((50%_)) of constituents supported the law !lohi&#45;&gt;The law was ((passed_)) !noyes -->
<g id="edge1" class="edge"><title>About ((50%_)) of constituents supported the law !lohi&#45;&gt;The law was ((passed_)) !noyes</title>
<path fill="none" stroke="#41ab5d" d="M211.104,-18C224.116,-18 237.418,-18 250.415,-18"/>
<polygon fill="#41ab5d" stroke="#41ab5d" points="250.762,-21.5001 260.762,-18 250.762,-14.5001 250.762,-21.5001"/>
</g>
</g>
</svg>
