<?xml version="1.0" encoding="UTF-8" standalone="no"?>
<!DOCTYPE svg PUBLIC "-//W3C//DTD SVG 1.1//EN"
 "http://www.w3.org/Graphics/SVG/1.1/DTD/svg11.dtd">
<!-- Generated by graphviz version 2.38.0 (20140413.2041)
 -->
<!-- Title: foo Pages: 1 -->
<svg width="525pt" height="610pt"
 viewBox="0.00 0.00 524.73 610.32" xmlns="http://www.w3.org/2000/svg" xmlns:xlink="http://www.w3.org/1999/xlink">
<g id="graph0" class="graph" transform="scale(1 1) rotate(0) translate(4 606.318)">
<title>foo</title>
<g id="a_graph0"><a xlink:title=" ">
<polygon fill="white" stroke="none" points="-4,4 -4,-606.318 520.735,-606.318 520.735,4 -4,4"/>
</a>
</g>
<!-- b -->
<g id="node1" class="node"><title>b</title>
<ellipse fill="#c7e9c0" stroke="#c7e9c0" stroke-width="2" cx="310.704" cy="-278.193" rx="27" ry="27.6545"/>
<text text-anchor="start" x="302.704" y="-271.293" font-family="arial" font-size="28.00">b</text>
</g>
<!-- a -->
<g id="node2" class="node"><title>a</title>
<ellipse fill="#c7e9c0" stroke="#c7e9c0" stroke-width="2" cx="189.28" cy="-278.193" rx="27" ry="27.6545"/>
<text text-anchor="start" x="181.28" y="-271.293" font-family="arial" font-size="28.00">a</text>
</g>
<!-- b&#45;&gt;a -->
<g id="edge1" class="edge"><title>b&#45;&gt;a</title>
<path fill="none" stroke="#41ab5d" d="M283.454,-278.193C266.659,-278.193 244.896,-278.193 226.523,-278.193"/>
<polygon fill="#41ab5d" stroke="#41ab5d" points="226.439,-274.693 216.439,-278.193 226.439,-281.693 226.439,-274.693"/>
</g>
<!-- c -->
<g id="node3" class="node"><title>c</title>
<ellipse fill="#fcbba1" stroke="#fcbba1" stroke-width="2" cx="310.704" cy="-488.504" rx="27" ry="27.6545"/>
<text text-anchor="start" x="303.204" y="-481.604" font-family="arial" font-size="28.00">c</text>
</g>
<!-- c&#45;&gt;a -->
<g id="edge2" class="edge"><title>c&#45;&gt;a</title>
<path fill="none" stroke="#41ab5d" d="M296.775,-464.379C274.954,-426.584 232.674,-353.353 208.144,-310.866"/>
<polygon fill="#41ab5d" stroke="#41ab5d" points="211.078,-308.947 203.047,-302.037 205.016,-312.447 211.078,-308.947"/>
</g>
<!-- d -->
<g id="node4" class="node"><title>d</title>
<ellipse fill="#c6dbef" stroke="#c6dbef" stroke-width="2" cx="371.415" cy="-383.348" rx="27" ry="27.6545"/>
<text text-anchor="start" x="363.415" y="-376.448" font-family="arial" font-size="28.00">d</text>
</g>
<!-- d&#45;&gt;b -->
<g id="edge3" class="edge"><title>d&#45;&gt;b</title>
<path fill="none" stroke="#41ab5d" d="M357.639,-359.487C349.333,-345.101 338.639,-326.578 329.557,-310.847"/>
<polygon fill="#41ab5d" stroke="#41ab5d" points="332.457,-308.87 324.426,-301.96 326.395,-312.37 332.457,-308.87"/>
</g>
<!-- d&#45;&gt;c -->
<g id="edge4" class="edge"><title>d&#45;&gt;c</title>
<path fill="none" stroke="#41ab5d" d="M357.639,-407.21C349.333,-421.596 338.639,-440.119 329.557,-455.85"/>
<polygon fill="#41ab5d" stroke="#41ab5d" points="326.395,-454.327 324.426,-464.737 332.457,-457.827 326.395,-454.327"/>
</g>
<!-- e -->
<g id="node5" class="node"><title>e</title>
<ellipse fill="#c6dbef" stroke="#c6dbef" stroke-width="2" cx="128.569" cy="-383.348" rx="27" ry="27.6545"/>
<text text-anchor="start" x="120.569" y="-376.448" font-family="arial" font-size="28.00">e</text>
</g>
<!-- e&#45;&gt;b -->
<g id="edge5" class="edge"><title>e&#45;&gt;b</title>
<path fill="none" stroke="#41ab5d" d="M152.38,-369.601C184.647,-350.971 242.369,-317.646 278.487,-296.793"/>
<polygon fill="#41ab5d" stroke="#41ab5d" points="280.265,-299.808 287.175,-291.777 276.765,-293.746 280.265,-299.808"/>
</g>
<!-- e&#45;&gt;c -->
<g id="edge6" class="edge"><title>e&#45;&gt;c</title>
<path fill="none" stroke="#41ab5d" d="M152.38,-397.096C184.647,-415.726 242.369,-449.051 278.487,-469.904"/>
<polygon fill="#41ab5d" stroke="#41ab5d" points="276.765,-472.951 287.175,-474.92 280.265,-466.889 276.765,-472.951"/>
</g>
<!-- f -->
<g id="node6" class="node"><title>f</title>
<ellipse fill="#c6dbef" stroke="#c6dbef" stroke-width="2" cx="189.28" cy="-488.504" rx="27" ry="27.6545"/>
<text text-anchor="start" x="185.28" y="-481.604" font-family="arial" font-size="28.00">f</text>
</g>
<!-- f&#45;&gt;b -->
<g id="edge7" class="edge"><title>f&#45;&gt;b</title>
<path fill="none" stroke="#41ab5d" d="M203.209,-464.379C225.03,-426.584 267.31,-353.353 291.84,-310.866"/>
<polygon fill="#41ab5d" stroke="#41ab5d" points="294.968,-312.447 296.937,-302.037 288.906,-308.947 294.968,-312.447"/>
</g>
<!-- f&#45;&gt;c -->
<g id="edge8" class="edge"><title>f&#45;&gt;c</title>
<path fill="none" stroke="#41ab5d" d="M216.53,-488.504C233.325,-488.504 255.088,-488.504 273.461,-488.504"/>
<polygon fill="#41ab5d" stroke="#41ab5d" points="273.545,-492.004 283.545,-488.504 273.545,-485.004 273.545,-492.004"/>
</g>
<!-- g -->
<g id="node7" class="node"><title>g</title>
<ellipse fill="#c7e9c0" stroke="#c7e9c0" stroke-width="2" cx="346.704" cy="-215.839" rx="27" ry="27.6545"/>
<text text-anchor="start" x="338.704" y="-208.939" font-family="arial" font-size="28.00">g</text>
</g>
<!-- g&#45;&gt;b -->
<g id="edge9" class="edge"><title>g&#45;&gt;b</title>
<path fill="none" stroke="#41ab5d" d="M332.888,-239.768C331.76,-241.721 330.609,-243.715 329.454,-245.716"/>
<polygon fill="#41ab5d" stroke="#41ab5d" points="326.392,-244.02 324.423,-254.43 332.454,-247.52 326.392,-244.02"/>
</g>
<!-- h -->
<g id="node8" class="node"><title>h</title>
<ellipse fill="#c7e9c0" stroke="#c7e9c0" stroke-width="2" cx="386.72" cy="-27.5772" rx="27" ry="27.6545"/>
<text text-anchor="start" x="378.72" y="-20.6772" font-family="arial" font-size="28.00">h</text>
</g>
<!-- h&#45;&gt;b -->
<g id="edge10" class="edge"><title>h&#45;&gt;b</title>
<path fill="none" stroke="#41ab5d" d="M378.729,-53.9237C365.041,-99.0482 337.096,-191.18 321.623,-242.195"/>
<polygon fill="#41ab5d" stroke="#41ab5d" points="318.255,-241.238 318.702,-251.823 324.954,-243.27 318.255,-241.238"/>
</g>
<!-- i -->
<g id="node9" class="node"><title>i</title>
<ellipse fill="#dadaeb" stroke="#dadaeb" stroke-width="2" cx="465.004" cy="-203.405" rx="27" ry="27.6545"/>
<text text-anchor="start" x="462.004" y="-196.505" font-family="arial" font-size="28.00">i</text>
</g>
<!-- i&#45;&gt;g -->
<g id="edge11" class="edge"><title>i&#45;&gt;g</title>
<path fill="none" stroke="#41ab5d" d="M437.863,-206.258C421.933,-207.932 401.57,-210.072 384.132,-211.905"/>
<polygon fill="#41ab5d" stroke="#41ab5d" points="383.297,-208.473 373.718,-213 384.029,-215.435 383.297,-208.473"/>
</g>
<!-- i&#45;&gt;h -->
<g id="edge12" class="edge"><title>i&#45;&gt;h</title>
<path fill="none" stroke="#41ab5d" d="M453.787,-178.213C440.185,-147.661 417.193,-96.0202 401.984,-61.8612"/>
<polygon fill="#41ab5d" stroke="#41ab5d" points="405.18,-60.4341 397.915,-52.7223 398.785,-63.2813 405.18,-60.4341"/>
</g>
<!-- j -->
<g id="node10" class="node"><title>j</title>
<ellipse fill="#dadaeb" stroke="#dadaeb" stroke-width="2" cx="298.322" cy="-107.171" rx="27" ry="27.6545"/>
<text text-anchor="start" x="294.822" y="-100.271" font-family="arial" font-size="28.00">j</text>
</g>
<!-- j&#45;&gt;g -->
<g id="edge13" class="edge"><title>j&#45;&gt;g</title>
<path fill="none" stroke="#41ab5d" d="M309.543,-132.375C315.97,-146.809 324.13,-165.138 331.166,-180.94"/>
<polygon fill="#41ab5d" stroke="#41ab5d" points="328.111,-182.684 335.376,-190.395 334.506,-179.836 328.111,-182.684"/>
</g>
<!-- j&#45;&gt;h -->
<g id="edge14" class="edge"><title>j&#45;&gt;h</title>
<path fill="none" stroke="#41ab5d" d="M318.824,-88.7107C330.651,-78.0622 345.691,-64.5201 358.608,-52.8894"/>
<polygon fill="#41ab5d" stroke="#41ab5d" points="361.239,-55.23 366.329,-45.9376 356.555,-50.0279 361.239,-55.23"/>
</g>
<!-- k -->
<g id="node11" class="node"><title>k</title>
<ellipse fill="#dadaeb" stroke="#dadaeb" stroke-width="2" cx="489.735" cy="-87.0529" rx="27" ry="27.6545"/>
<text text-anchor="start" x="482.235" y="-80.1529" font-family="arial" font-size="28.00">k</text>
</g>
<!-- k&#45;&gt;g -->
<g id="edge15" class="edge"><title>k&#45;&gt;g</title>
<path fill="none" stroke="#41ab5d" d="M469.242,-105.505C444.389,-127.883 402.38,-165.707 374.593,-190.727"/>
<polygon fill="#41ab5d" stroke="#41ab5d" points="372.248,-188.129 367.159,-197.421 376.932,-193.331 372.248,-188.129"/>
</g>
<!-- k&#45;&gt;h -->
<g id="edge16" class="edge"><title>k&#45;&gt;h</title>
<path fill="none" stroke="#41ab5d" d="M466.101,-73.408C452.229,-65.3989 434.497,-55.1613 419.312,-46.3942"/>
<polygon fill="#41ab5d" stroke="#41ab5d" points="420.654,-43.1276 410.244,-41.1586 417.154,-49.1898 420.654,-43.1276"/>
</g>
<!-- l -->
<g id="node12" class="node"><title>l</title>
<ellipse fill="#e5f5e0" stroke="#e5f5e0" stroke-width="2" cx="470.993" cy="-383.348" rx="27" ry="27.6545"/>
<text text-anchor="start" x="467.993" y="-376.448" font-family="arial" font-size="28.00">l</text>
</g>
<!-- l&#45;&gt;d -->
<g id="edge17" class="edge"><title>l&#45;&gt;d</title>
<path fill="none" stroke="#41ab5d" d="M443.783,-383.348C433.025,-383.348 420.484,-383.348 408.892,-383.348"/>
<polygon fill="#41ab5d" stroke="#41ab5d" points="408.592,-379.849 398.592,-383.348 408.592,-386.849 408.592,-379.849"/>
</g>
<!-- m -->
<g id="node13" class="node"><title>m</title>
<ellipse fill="#e5f5e0" stroke="#e5f5e0" stroke-width="2" cx="28.2843" cy="-383.348" rx="28.0702" ry="27.6545"/>
<text text-anchor="start" x="16.2843" y="-376.448" font-family="arial" font-size="28.00">m</text>
</g>
<!-- m&#45;&gt;e -->
<g id="edge18" class="edge"><title>m&#45;&gt;e</title>
<path fill="none" stroke="#41ab5d" d="M56.7535,-383.348C67.4826,-383.348 79.851,-383.348 91.2672,-383.348"/>
<polygon fill="#41ab5d" stroke="#41ab5d" points="91.4096,-386.849 101.41,-383.348 91.4095,-379.849 91.4096,-386.849"/>
</g>
<!-- n -->
<g id="node14" class="node"><title>n</title>
<ellipse fill="#e5f5e0" stroke="#e5f5e0" stroke-width="2" cx="139.492" cy="-574.741" rx="27" ry="27.6545"/>
<text text-anchor="start" x="131.492" y="-567.841" font-family="arial" font-size="28.00">n</text>
</g>
<!-- n&#45;&gt;f -->
<g id="edge19" class="edge"><title>n&#45;&gt;f</title>
<path fill="none" stroke="#41ab5d" d="M153.361,-550.719C158.648,-541.561 164.766,-530.964 170.439,-521.139"/>
<polygon fill="#41ab5d" stroke="#41ab5d" points="173.517,-522.807 175.486,-512.397 167.455,-519.307 173.517,-522.807"/>
</g>
</g>
</svg>
