<?xml version="1.0" encoding="UTF-8" standalone="no"?>
<!DOCTYPE svg PUBLIC "-//W3C//DTD SVG 1.1//EN"
 "http://www.w3.org/Graphics/SVG/1.1/DTD/svg11.dtd">
<!-- Generated by graphviz version 2.38.0 (20140413.2041)
 -->
<!-- Title: foo Pages: 1 -->
<svg width="426pt" height="64pt"
 viewBox="0.00 0.00 426.00 64.00" xmlns="http://www.w3.org/2000/svg" xmlns:xlink="http://www.w3.org/1999/xlink">
<g id="graph0" class="graph" transform="scale(1 1) rotate(0) translate(4 60)">
<title>foo</title>
<g id="a_graph0"><a xlink:title=" ">
<polygon fill="#d9d9d9" stroke="none" points="-4,4 -4,-60 422,-60 422,4 -4,4"/>
<text text-anchor="start" x="134" y="-7.2" font-family="tahoma" font-size="11.00" fill="#525252">formally correct but not helpful</text>
</a>
</g>
<!-- ((50%_)) &#160;of constituents supported the law -->
<g id="node1" class="node"><title>((50%_)) &#160;of constituents supported the law</title>
<polygon fill="#fee6ce" stroke="#fee6ce" points="169,-56 0,-56 0,-20 169,-20 169,-56"/>
<text text-anchor="start" x="8" y="-41.8" font-family="Helvetica,sans-Serif" font-size="14.00" fill="green">((50%_))</text>
<text text-anchor="start" x="64" y="-41.8" font-family="Helvetica,sans-Serif" font-size="14.00"> of constituents</text>
<text text-anchor="start" x="28.5" y="-27.8" font-family="Helvetica,sans-Serif" font-size="14.00">supported the law</text>
</g>
<!-- Member of Parliament: voted ((for_)) the law -->
<g id="node2" class="node"><title>Member of Parliament: voted ((for_)) the law</title>
<polygon fill="#fee6ce" stroke="#fee6ce" points="418,-56 219,-56 219,-20 418,-20 418,-56"/>
<text text-anchor="start" x="227" y="-41.8" font-family="Helvetica,sans-Serif" font-size="14.00">Member of Parliament: voted</text>
<text text-anchor="start" x="272.5" y="-27.8" font-family="Helvetica,sans-Serif" font-size="14.00" fill="green">((for_))</text>
<text text-anchor="start" x="316.5" y="-27.8" font-family="Helvetica,sans-Serif" font-size="14.00"> the law</text>
</g>
<!-- ((50%_)) &#160;of constituents supported the law&#45;&gt;Member of Parliament: voted ((for_)) the law -->
<g id="edge1" class="edge"><title>((50%_)) &#160;of constituents supported the law&#45;&gt;Member of Parliament: voted ((for_)) the law</title>
<path fill="none" stroke="#737373" stroke-width="2" d="M169.257,-38C182.082,-38 195.479,-38 208.748,-38"/>
<polygon fill="#737373" stroke="#737373" stroke-width="2" points="208.859,-41.5001 218.859,-38 208.859,-34.5001 208.859,-41.5001"/>
</g>
</g>
</svg>
