<?xml version="1.0" encoding="UTF-8" standalone="no"?>
<!DOCTYPE svg PUBLIC "-//W3C//DTD SVG 1.1//EN"
 "http://www.w3.org/Graphics/SVG/1.1/DTD/svg11.dtd">
<!-- Generated by graphviz version 2.38.0 (20140413.2041)
 -->
<!-- Title: foo Pages: 1 -->
<svg width="475pt" height="153pt"
 viewBox="0.00 0.00 475.00 153.00" xmlns="http://www.w3.org/2000/svg" xmlns:xlink="http://www.w3.org/1999/xlink">
<g id="graph0" class="graph" transform="scale(1 1) rotate(0) translate(4 149)">
<title>foo</title>
<g id="a_graph0"><a xlink:title=" ">
<polygon fill="white" stroke="none" points="-4,4 -4,-149 471,-149 471,4 -4,4"/>
</a>
</g>
<g id="clust2" class="cluster"><title>cluster_InfluenceVariables</title>
<g id="a_clust2"><a xlink:title=" ">
<path fill="#efedf5" stroke="#efedf5" d="M20,-8C20,-8 206,-8 206,-8 212,-8 218,-14 218,-20 218,-20 218,-125 218,-125 218,-131 212,-137 206,-137 206,-137 20,-137 20,-137 14,-137 8,-131 8,-125 8,-125 8,-20 8,-20 8,-14 14,-8 20,-8"/>
<text text-anchor="start" x="16" y="-121.8" font-family="arial" font-size="14.00">Influence Variables</text>
</a>
</g>
</g>
<g id="clust1" class="cluster"><title>cluster_ConsequenceVariable</title>
<g id="a_clust1"><a xlink:title=" ">
<path fill="#efedf5" stroke="#efedf5" d="M264,-21C264,-21 447,-21 447,-21 453,-21 459,-27 459,-33 459,-33 459,-86 459,-86 459,-92 453,-98 447,-98 447,-98 264,-98 264,-98 258,-98 252,-92 252,-86 252,-86 252,-33 252,-33 252,-27 258,-21 264,-21"/>
<text text-anchor="start" x="260" y="-82.8" font-family="arial" font-size="14.00">Consequence Variable</text>
</a>
</g>
</g>
<!-- How much student feels that they live up to expectations -->
<g id="node1" class="node"><title>How much student feels that they live up to expectations</title>
<polygon fill="#e5f5e0" stroke="#e5f5e0" stroke-width="2" points="210,-106 16,-106 16,-68 210,-68 210,-106"/>
<text text-anchor="start" x="24" y="-90.8" font-family="arial" font-size="14.00">How much student feels that</text>
<text text-anchor="start" x="27.5" y="-75.8" font-family="arial" font-size="14.00">they live up to expectations</text>
</g>
<!-- Student satisfaction with school. Influence: &#39;all up&#45;up&#39; -->
<g id="node2" class="node"><title>Student satisfaction with school. Influence: &#39;all up&#45;up&#39;</title>
<polygon fill="#e5f5e0" stroke="#e5f5e0" stroke-width="2" points="451,-67 260,-67 260,-29 451,-29 451,-67"/>
<text text-anchor="start" x="279.5" y="-51.8" font-family="arial" font-size="14.00">Student satisfaction with</text>
<text text-anchor="start" x="268" y="-36.8" font-family="arial" font-size="14.00">school. Influence: &#39;all up&#45;up&#39;</text>
</g>
<!-- How much student feels that they live up to expectations&#45;&gt;Student satisfaction with school. Influence: &#39;all up&#45;up&#39; -->
<g id="edge1" class="edge"><title>How much student feels that they live up to expectations&#45;&gt;Student satisfaction with school. Influence: &#39;all up&#45;up&#39;</title>
<path fill="none" stroke="#41ab5d" d="M210.089,-71.418C223.121,-69.3046 236.549,-67.1272 249.724,-64.9906"/>
<polygon fill="#41ab5d" stroke="#41ab5d" points="250.429,-68.4221 259.74,-63.3665 249.309,-61.5124 250.429,-68.4221"/>
</g>
<!-- How much student feels supported and liked -->
<g id="node3" class="node"><title>How much student feels supported and liked</title>
<polygon fill="#e5f5e0" stroke="#e5f5e0" stroke-width="2" points="197,-54 29,-54 29,-16 197,-16 197,-54"/>
<text text-anchor="start" x="37" y="-38.8" font-family="arial" font-size="14.00">How much student feels</text>
<text text-anchor="start" x="50.5" y="-23.8" font-family="arial" font-size="14.00">supported and liked</text>
</g>
<!-- How much student feels supported and liked&#45;&gt;Student satisfaction with school. Influence: &#39;all up&#45;up&#39; -->
<g id="edge2" class="edge"><title>How much student feels supported and liked&#45;&gt;Student satisfaction with school. Influence: &#39;all up&#45;up&#39;</title>
<path fill="none" stroke="#41ab5d" d="M197.103,-39.4921C214.014,-40.4062 232.012,-41.379 249.568,-42.328"/>
<polygon fill="#41ab5d" stroke="#41ab5d" points="249.667,-45.8384 259.841,-42.8833 250.045,-38.8486 249.667,-45.8384"/>
</g>
</g>
</svg>
