<?xml version="1.0" encoding="UTF-8" standalone="no"?>
<!DOCTYPE svg PUBLIC "-//W3C//DTD SVG 1.1//EN"
 "http://www.w3.org/Graphics/SVG/1.1/DTD/svg11.dtd">
<!-- Generated by graphviz version 2.38.0 (20140413.2041)
 -->
<!-- Title: foo Pages: 1 -->
<svg width="334pt" height="216pt"
 viewBox="0.00 0.00 334.00 216.00" xmlns="http://www.w3.org/2000/svg" xmlns:xlink="http://www.w3.org/1999/xlink">
<g id="graph0" class="graph" transform="scale(1 1) rotate(0) translate(4 212)">
<title>foo</title>
<g id="a_graph0"><a xlink:title=" ">
<polygon fill="white" stroke="none" points="-4,4 -4,-212 330,-212 330,4 -4,4"/>
</a>
</g>
<!-- b -->
<g id="node1" class="node"><title>b</title>
<polygon fill="#d9d9d9" stroke="#d9d9d9" stroke-width="2" points="190,-122 136,-122 136,-86 190,-86 190,-122"/>
<text text-anchor="start" x="158.5" y="-100.3" font-family="arial" font-size="14.00">b</text>
</g>
<!-- a -->
<g id="node2" class="node"><title>a</title>
<polygon fill="#d9d9d9" stroke="#d9d9d9" stroke-width="2" points="156,-208 102,-208 102,-172 156,-172 156,-208"/>
<text text-anchor="start" x="125" y="-186.3" font-family="arial" font-size="14.00">a</text>
</g>
<!-- b&#45;&gt;a -->
<g id="edge1" class="edge"><title>b&#45;&gt;a</title>
<path fill="none" stroke="#41ab5d" d="M155.955,-122.405C151.274,-133.97 145.038,-149.376 139.744,-162.457"/>
<polygon fill="#41ab5d" stroke="#41ab5d" points="136.427,-161.322 135.919,-171.905 142.916,-163.949 136.427,-161.322"/>
</g>
<!-- c -->
<g id="node3" class="node"><title>c</title>
<polygon fill="#d9d9d9" stroke="#d9d9d9" stroke-width="2" points="122,-122 68,-122 68,-86 122,-86 122,-122"/>
<text text-anchor="start" x="91" y="-100.3" font-family="arial" font-size="14.00">c</text>
</g>
<!-- c&#45;&gt;a -->
<g id="edge2" class="edge"><title>c&#45;&gt;a</title>
<path fill="none" stroke="#41ab5d" d="M102.045,-122.405C106.726,-133.97 112.962,-149.376 118.256,-162.457"/>
<polygon fill="#41ab5d" stroke="#41ab5d" points="115.084,-163.949 122.081,-171.905 121.573,-161.322 115.084,-163.949"/>
</g>
<!-- d -->
<g id="node4" class="node"><title>d</title>
<polygon fill="#d9d9d9" stroke="#d9d9d9" stroke-width="2" points="54,-36 0,-36 0,-0 54,-0 54,-36"/>
<text text-anchor="start" x="22.5" y="-14.3" font-family="arial" font-size="14.00">d</text>
</g>
<!-- d&#45;&gt;b -->
<g id="edge3" class="edge"><title>d&#45;&gt;b</title>
<path fill="none" stroke="#41ab5d" d="M54.1948,-35.7968C75.135,-48.7305 104.268,-66.7242 127.118,-80.8379"/>
<polygon fill="#41ab5d" stroke="#41ab5d" points="125.505,-83.9552 135.852,-86.2323 129.184,-77.9996 125.505,-83.9552"/>
</g>
<!-- d&#45;&gt;c -->
<g id="edge4" class="edge"><title>d&#45;&gt;c</title>
<path fill="none" stroke="#41ab5d" d="M41.0896,-36.4049C50.8187,-48.4231 63.906,-64.5898 74.7495,-77.9847"/>
<polygon fill="#41ab5d" stroke="#41ab5d" points="72.1487,-80.3346 81.1611,-85.9048 77.5894,-75.9302 72.1487,-80.3346"/>
</g>
<!-- e -->
<g id="node5" class="node"><title>e</title>
<polygon fill="#d9d9d9" stroke="#d9d9d9" stroke-width="2" points="122,-36 68,-36 68,-0 122,-0 122,-36"/>
<text text-anchor="start" x="90.5" y="-14.3" font-family="arial" font-size="14.00">e</text>
</g>
<!-- e&#45;&gt;b -->
<g id="edge5" class="edge"><title>e&#45;&gt;b</title>
<path fill="none" stroke="#41ab5d" d="M109.09,-36.4049C118.819,-48.4231 131.906,-64.5898 142.75,-77.9847"/>
<polygon fill="#41ab5d" stroke="#41ab5d" points="140.149,-80.3346 149.161,-85.9048 145.589,-75.9302 140.149,-80.3346"/>
</g>
<!-- e&#45;&gt;c -->
<g id="edge6" class="edge"><title>e&#45;&gt;c</title>
<path fill="none" stroke="#41ab5d" d="M95,-36.4049C95,-47.7428 95,-62.7729 95,-75.6847"/>
<polygon fill="#41ab5d" stroke="#41ab5d" points="91.5001,-75.9048 95,-85.9048 98.5001,-75.9049 91.5001,-75.9048"/>
</g>
<!-- f -->
<g id="node6" class="node"><title>f</title>
<polygon fill="#d9d9d9" stroke="#d9d9d9" stroke-width="2" points="190,-36 136,-36 136,-0 190,-0 190,-36"/>
<text text-anchor="start" x="160.5" y="-14.3" font-family="arial" font-size="14.00">f</text>
</g>
<!-- f&#45;&gt;b -->
<g id="edge7" class="edge"><title>f&#45;&gt;b</title>
<path fill="none" stroke="#41ab5d" d="M163,-36.4049C163,-47.7428 163,-62.7729 163,-75.6847"/>
<polygon fill="#41ab5d" stroke="#41ab5d" points="159.5,-75.9048 163,-85.9048 166.5,-75.9049 159.5,-75.9048"/>
</g>
<!-- f&#45;&gt;c -->
<g id="edge8" class="edge"><title>f&#45;&gt;c</title>
<path fill="none" stroke="#41ab5d" d="M148.91,-36.4049C139.181,-48.4231 126.094,-64.5898 115.25,-77.9847"/>
<polygon fill="#41ab5d" stroke="#41ab5d" points="112.411,-75.9302 108.839,-85.9048 117.851,-80.3346 112.411,-75.9302"/>
</g>
<!-- g -->
<g id="node7" class="node"><title>g</title>
<polygon fill="#d9d9d9" stroke="#d9d9d9" stroke-width="2" points="326,-36 272,-36 272,-0 326,-0 326,-36"/>
<text text-anchor="start" x="294.5" y="-14.3" font-family="arial" font-size="14.00">g</text>
</g>
<!-- g&#45;&gt;b -->
<g id="edge9" class="edge"><title>g&#45;&gt;b</title>
<path fill="none" stroke="#41ab5d" d="M271.805,-35.7968C250.865,-48.7305 221.732,-66.7242 198.882,-80.8379"/>
<polygon fill="#41ab5d" stroke="#41ab5d" points="196.816,-77.9996 190.148,-86.2323 200.495,-83.9552 196.816,-77.9996"/>
</g>
<!-- h -->
<g id="node8" class="node"><title>h</title>
<polygon fill="#d9d9d9" stroke="#d9d9d9" stroke-width="2" points="258,-36 204,-36 204,-0 258,-0 258,-36"/>
<text text-anchor="start" x="227" y="-14.3" font-family="arial" font-size="14.00">h</text>
</g>
<!-- h&#45;&gt;b -->
<g id="edge10" class="edge"><title>h&#45;&gt;b</title>
<path fill="none" stroke="#41ab5d" d="M216.91,-36.4049C207.181,-48.4231 194.094,-64.5898 183.25,-77.9847"/>
<polygon fill="#41ab5d" stroke="#41ab5d" points="180.411,-75.9302 176.839,-85.9048 185.851,-80.3346 180.411,-75.9302"/>
</g>
</g>
</svg>
