<?xml version="1.0" encoding="UTF-8" standalone="no"?>
<!DOCTYPE svg PUBLIC "-//W3C//DTD SVG 1.1//EN"
 "http://www.w3.org/Graphics/SVG/1.1/DTD/svg11.dtd">
<!-- Generated by graphviz version 2.38.0 (20140413.2041)
 -->
<!-- Title: foo Pages: 1 -->
<svg width="270pt" height="144pt"
 viewBox="0.00 0.00 270.00 144.00" xmlns="http://www.w3.org/2000/svg" xmlns:xlink="http://www.w3.org/1999/xlink">
<g id="graph0" class="graph" transform="scale(1 1) rotate(0) translate(4 140)">
<title>foo</title>
<g id="a_graph0"><a xlink:title=" ">
<polygon fill="white" stroke="none" points="-4,4 -4,-140 266,-140 266,4 -4,4"/>
</a>
</g>
<!-- Employment -->
<g id="node1" class="node"><title>Employment</title>
<polygon fill="#e5f5e0" stroke="#e5f5e0" stroke-width="2" points="96,-86 0,-86 0,-50 96,-50 96,-86"/>
<text text-anchor="start" x="8" y="-64.3" font-family="arial" font-size="14.00">Employment</text>
</g>
<!-- Income -->
<g id="node2" class="node"><title>Income</title>
<polygon fill="#e5f5e0" stroke="#e5f5e0" stroke-width="2" points="236.5,-136 171.5,-136 171.5,-100 236.5,-100 236.5,-136"/>
<text text-anchor="start" x="179.5" y="-114.3" font-family="arial" font-size="14.00">Income</text>
</g>
<!-- Employment&#45;&gt;Income -->
<g id="edge1" class="edge"><title>Employment&#45;&gt;Income</title>
<path fill="none" stroke="#41ab5d" d="M96.0419,-83.2733C117.022,-90.0851 141.518,-98.0383 161.769,-104.613"/>
<polygon fill="#41ab5d" stroke="#41ab5d" points="160.744,-107.96 171.336,-107.72 162.906,-101.302 160.744,-107.96"/>
</g>
<!-- Status -->
<g id="node3" class="node"><title>Status</title>
<polygon fill="#e5f5e0" stroke="#e5f5e0" stroke-width="2" points="232,-86 176,-86 176,-50 232,-50 232,-86"/>
<text text-anchor="start" x="184" y="-64.3" font-family="arial" font-size="14.00">Status</text>
</g>
<!-- Employment&#45;&gt;Status -->
<g id="edge2" class="edge"><title>Employment&#45;&gt;Status</title>
<path fill="none" stroke="#41ab5d" d="M96.0419,-68C118.44,-68 144.845,-68 165.815,-68"/>
<polygon fill="#41ab5d" stroke="#41ab5d" points="165.933,-71.5001 175.933,-68 165.933,-64.5001 165.933,-71.5001"/>
</g>
<!-- Life expectancy -->
<g id="node4" class="node"><title>Life expectancy</title>
<polygon fill="#e5f5e0" stroke="#e5f5e0" stroke-width="2" points="262,-36 146,-36 146,-0 262,-0 262,-36"/>
<text text-anchor="start" x="154" y="-14.3" font-family="arial" font-size="14.00">Life expectancy</text>
</g>
<!-- Employment&#45;&gt;Life expectancy -->
<g id="edge3" class="edge"><title>Employment&#45;&gt;Life expectancy</title>
<path fill="none" stroke="#41ab5d" d="M96.0419,-52.7267C109.194,-48.4565 123.727,-43.7378 137.731,-39.1913"/>
<polygon fill="#41ab5d" stroke="#41ab5d" points="138.887,-42.4958 147.317,-36.0788 136.725,-35.838 138.887,-42.4958"/>
</g>
</g>
</svg>
