<?xml version="1.0" encoding="UTF-8" standalone="no"?>
<!DOCTYPE svg PUBLIC "-//W3C//DTD SVG 1.1//EN"
 "http://www.w3.org/Graphics/SVG/1.1/DTD/svg11.dtd">
<!-- Generated by graphviz version 2.38.0 (20140413.2041)
 -->
<!-- Title: foo Pages: 1 -->
<svg width="298pt" height="66pt"
 viewBox="0.00 0.00 298.00 66.00" xmlns="http://www.w3.org/2000/svg" xmlns:xlink="http://www.w3.org/1999/xlink">
<g id="graph0" class="graph" transform="scale(1 1) rotate(0) translate(4 62)">
<title>foo</title>
<g id="a_graph0"><a xlink:title=" ">
<polygon fill="#c7e9c0" stroke="none" points="-4,4 -4,-62 294,-62 294,4 -4,4"/>
<text text-anchor="start" x="107" y="-7.2" font-family="tahoma" font-size="11.00" fill="#238b45">Try this instead</text>
</a>
</g>
<!-- Patient has been vaccinated !noyes -->
<g id="node1" class="node"><title>Patient has been vaccinated !noyes</title>
<polygon fill="#f7fcf5" stroke="#f7fcf5" points="122,-58 7.10543e-015,-58 7.10543e-015,-20 122,-20 122,-58"/>
<text text-anchor="start" x="8" y="-42.8" font-family="Helvetica,sans-Serif" font-size="14.00" fill="#006d2c">Patient has been</text>
<text text-anchor="start" x="19.5" y="-27.8" font-family="Helvetica,sans-Serif" font-size="14.00" fill="#006d2c">vaccinated ◨</text>
</g>
<!-- Patient dies &#160;!noyes -->
<g id="node2" class="node"><title>Patient dies &#160;!noyes</title>
<polygon fill="#f7fcf5" stroke="#f7fcf5" points="290,-57 184,-57 184,-21 290,-21 290,-57"/>
<text text-anchor="start" x="192" y="-35.3" font-family="Helvetica,sans-Serif" font-size="14.00" fill="#006d2c">Patient dies ◨</text>
</g>
<!-- Patient has been vaccinated !noyes&#45;&gt;Patient dies &#160;!noyes -->
<g id="edge1" class="edge"><title>Patient has been vaccinated !noyes&#45;&gt;Patient dies &#160;!noyes</title>
<path fill="none" stroke="#41ab5d" stroke-width="2" d="M122.368,-39C138.95,-39 156.961,-39 173.652,-39"/>
<polygon fill="#41ab5d" stroke="#41ab5d" stroke-width="2" points="173.85,-42.5001 183.85,-39 173.849,-35.5001 173.85,-42.5001"/>
<text text-anchor="start" x="147" y="-42.8" font-family="Helvetica,sans-Serif" font-size="14.00" fill="#cd5c5c">⇅</text>
</g>
</g>
</svg>
