<?xml version="1.0" encoding="UTF-8" standalone="no"?>
<!DOCTYPE svg PUBLIC "-//W3C//DTD SVG 1.1//EN"
 "http://www.w3.org/Graphics/SVG/1.1/DTD/svg11.dtd">
<!-- Generated by graphviz version 2.38.0 (20140413.2041)
 -->
<!-- Title: foo Pages: 1 -->
<svg width="460pt" height="213pt"
 viewBox="0.00 0.00 460.00 213.00" xmlns="http://www.w3.org/2000/svg" xmlns:xlink="http://www.w3.org/1999/xlink">
<g id="graph0" class="graph" transform="scale(1 1) rotate(0) translate(4 209)">
<title>foo</title>
<g id="a_graph0"><a xlink:title=" ">
<polygon fill="#c7e9c0" stroke="none" points="-4,4 -4,-209 456,-209 456,4 -4,4"/>
<text text-anchor="start" x="117.5" y="-7.2" font-family="tahoma" font-size="11.00" fill="#238b45">All Variables are expressed using Differences</text>
</a>
</g>
<!-- Output: ((improved)) student classwork scores -->
<g id="node1" class="node"><title>Output: ((improved)) student classwork scores</title>
<polygon fill="#fdd0a2" stroke="#fdd0a2" points="301,-123 172,-123 172,-55 301,-55 301,-123"/>
<text text-anchor="start" x="213.5" y="-107.8" font-family="Helvetica,sans-Serif" font-size="14.00" fill="#006d2c">Output:</text>
<text text-anchor="start" x="197.5" y="-92.8" font-family="Helvetica,sans-Serif" font-size="14.00" fill="green">((improved))</text>
<text text-anchor="start" x="180" y="-77.8" font-family="Helvetica,sans-Serif" font-size="14.00" fill="#006d2c">student classwork</text>
<text text-anchor="start" x="214.5" y="-62.8" font-family="Helvetica,sans-Serif" font-size="14.00" fill="#006d2c">scores</text>
</g>
<!-- Outcome: ((improved)) student exam results -->
<g id="node2" class="node"><title>Outcome: ((improved)) student exam results</title>
<polygon fill="#fd8d3c" stroke="#fd8d3c" points="452,-164 351,-164 351,-96 452,-96 452,-164"/>
<text text-anchor="start" x="370" y="-148.8" font-family="Helvetica,sans-Serif" font-size="14.00" fill="#006d2c">Outcome:</text>
<text text-anchor="start" x="362.5" y="-133.8" font-family="Helvetica,sans-Serif" font-size="14.00" fill="green">((improved))</text>
<text text-anchor="start" x="359" y="-118.8" font-family="Helvetica,sans-Serif" font-size="14.00" fill="#006d2c">student exam</text>
<text text-anchor="start" x="380" y="-103.8" font-family="Helvetica,sans-Serif" font-size="14.00" fill="#006d2c">results</text>
</g>
<!-- Output: ((improved)) student classwork scores&#45;&gt;Outcome: ((improved)) student exam results -->
<g id="edge1" class="edge"><title>Output: ((improved)) student classwork scores&#45;&gt;Outcome: ((improved)) student exam results</title>
<path fill="none" stroke="#41ab5d" stroke-width="2" d="M301.454,-105.087C314.403,-108.344 327.973,-111.757 340.77,-114.976"/>
<polygon fill="#41ab5d" stroke="#41ab5d" stroke-width="2" points="340.289,-118.464 350.841,-117.509 341.997,-111.675 340.289,-118.464"/>
</g>
<!-- Activity: student workshop 1 ((held)) -->
<g id="node3" class="node"><title>Activity: student workshop 1 ((held))</title>
<polygon fill="#fff5eb" stroke="#fff5eb" points="118.5,-123.5 3.5,-123.5 3.5,-70.5 118.5,-70.5 118.5,-123.5"/>
<text text-anchor="start" x="11.5" y="-108.3" font-family="Helvetica,sans-Serif" font-size="14.00" fill="#006d2c">Activity: student</text>
<text text-anchor="start" x="24.5" y="-93.3" font-family="Helvetica,sans-Serif" font-size="14.00" fill="#006d2c">workshop 1</text>
<text text-anchor="start" x="38" y="-78.3" font-family="Helvetica,sans-Serif" font-size="14.00" fill="green">((held))</text>
</g>
<!-- Activity: student workshop 1 ((held))&#45;&gt;Output: ((improved)) student classwork scores -->
<g id="edge2" class="edge"><title>Activity: student workshop 1 ((held))&#45;&gt;Output: ((improved)) student classwork scores</title>
<path fill="none" stroke="#41ab5d" stroke-width="2" d="M118.81,-94.3805C132.489,-93.7498 147.299,-93.0669 161.63,-92.4061"/>
<polygon fill="#41ab5d" stroke="#41ab5d" stroke-width="2" points="162.129,-95.8869 171.957,-91.9299 161.806,-88.8943 162.129,-95.8869"/>
</g>
<!-- Activity: students ((given)) laptops -->
<g id="node4" class="node"><title>Activity: students ((given)) laptops</title>
<polygon fill="#fff5eb" stroke="#fff5eb" points="122,-56 7.10543e-015,-56 7.10543e-015,-20 122,-20 122,-56"/>
<text text-anchor="start" x="8" y="-41.8" font-family="Helvetica,sans-Serif" font-size="14.00" fill="#006d2c">Activity: students</text>
<text text-anchor="start" x="9.5" y="-27.8" font-family="Helvetica,sans-Serif" font-size="14.00" fill="green">((given))</text>
<text text-anchor="start" x="61.5" y="-27.8" font-family="Helvetica,sans-Serif" font-size="14.00" fill="#006d2c"> laptops</text>
</g>
<!-- Activity: students ((given)) laptops&#45;&gt;Output: ((improved)) student classwork scores -->
<g id="edge3" class="edge"><title>Activity: students ((given)) laptops&#45;&gt;Output: ((improved)) student classwork scores</title>
<path fill="none" stroke="#41ab5d" stroke-width="2" d="M122.195,-55.6942C135.111,-59.4909 148.896,-63.5431 162.245,-67.4668"/>
<polygon fill="#41ab5d" stroke="#41ab5d" stroke-width="2" points="161.287,-70.8334 171.869,-70.2957 163.262,-64.1175 161.287,-70.8334"/>
</g>
<!-- Output: ((improved)) student exam skills -->
<g id="node5" class="node"><title>Output: ((improved)) student exam skills</title>
<polygon fill="#fdd0a2" stroke="#fdd0a2" points="287,-205 186,-205 186,-137 287,-137 287,-205"/>
<text text-anchor="start" x="213.5" y="-189.8" font-family="Helvetica,sans-Serif" font-size="14.00" fill="#006d2c">Output:</text>
<text text-anchor="start" x="197.5" y="-174.8" font-family="Helvetica,sans-Serif" font-size="14.00" fill="green">((improved))</text>
<text text-anchor="start" x="194" y="-159.8" font-family="Helvetica,sans-Serif" font-size="14.00" fill="#006d2c">student exam</text>
<text text-anchor="start" x="221" y="-144.8" font-family="Helvetica,sans-Serif" font-size="14.00" fill="#006d2c">skills</text>
</g>
<!-- Output: ((improved)) student exam skills&#45;&gt;Outcome: ((improved)) student exam results -->
<g id="edge4" class="edge"><title>Output: ((improved)) student exam skills&#45;&gt;Outcome: ((improved)) student exam results</title>
<path fill="none" stroke="#41ab5d" stroke-width="2" d="M287.291,-158.476C304.118,-154.243 323.081,-149.474 340.607,-145.065"/>
<polygon fill="#41ab5d" stroke="#41ab5d" stroke-width="2" points="341.889,-148.352 350.733,-142.518 340.181,-141.563 341.889,-148.352"/>
</g>
<!-- Activity: student workshop 2 ((held)) -->
<g id="node6" class="node"><title>Activity: student workshop 2 ((held))</title>
<polygon fill="#fff5eb" stroke="#fff5eb" points="118.5,-197.5 3.5,-197.5 3.5,-144.5 118.5,-144.5 118.5,-197.5"/>
<text text-anchor="start" x="11.5" y="-182.3" font-family="Helvetica,sans-Serif" font-size="14.00" fill="#006d2c">Activity: student</text>
<text text-anchor="start" x="24.5" y="-167.3" font-family="Helvetica,sans-Serif" font-size="14.00" fill="#006d2c">workshop 2</text>
<text text-anchor="start" x="38" y="-152.3" font-family="Helvetica,sans-Serif" font-size="14.00" fill="green">((held))</text>
</g>
<!-- Activity: student workshop 2 ((held))&#45;&gt;Output: ((improved)) student exam skills -->
<g id="edge5" class="edge"><title>Activity: student workshop 2 ((held))&#45;&gt;Output: ((improved)) student exam skills</title>
<path fill="none" stroke="#41ab5d" stroke-width="2" d="M118.81,-171C137.072,-171 157.351,-171 175.813,-171"/>
<polygon fill="#41ab5d" stroke="#41ab5d" stroke-width="2" points="175.858,-174.5 185.858,-171 175.858,-167.5 175.858,-174.5"/>
</g>
</g>
</svg>
