<?xml version="1.0" encoding="UTF-8" standalone="no"?>
<!DOCTYPE svg PUBLIC "-//W3C//DTD SVG 1.1//EN"
 "http://www.w3.org/Graphics/SVG/1.1/DTD/svg11.dtd">
<!-- Generated by graphviz version 2.38.0 (20140413.2041)
 -->
<!-- Title: foo Pages: 1 -->
<svg width="585pt" height="145pt"
 viewBox="0.00 0.00 585.00 145.00" xmlns="http://www.w3.org/2000/svg" xmlns:xlink="http://www.w3.org/1999/xlink">
<g id="graph0" class="graph" transform="scale(1 1) rotate(0) translate(4 141)">
<title>foo</title>
<g id="a_graph0"><a xlink:title=" ">
<polygon fill="white" stroke="none" points="-4,4 -4,-141 581,-141 581,4 -4,4"/>
</a>
</g>
<!-- S -->
<g id="node1" class="node"><title>S</title>
<polygon fill="#e5f5e0" stroke="#e5f5e0" stroke-width="2" points="577,-93 408,-93 408,-55 577,-55 577,-93"/>
<text text-anchor="start" x="475.5" y="-77.8" font-family="arial" font-size="14.00">Shop</text>
<text text-anchor="start" x="416" y="-62.8" font-family="arial" font-size="14.00">(Influence: downstream)</text>
</g>
<!-- S&#45;&gt;S -->
<g id="edge1" class="edge"><title>S&#45;&gt;S</title>
<path fill="none" stroke="#41ab5d" d="M468.594,-93.3208C467.531,-100.791 475.5,-107 492.5,-107 501.531,-107 508.014,-105.248 511.947,-102.485"/>
<polygon fill="#41ab5d" stroke="#41ab5d" points="515.178,-103.844 516.406,-93.3208 508.884,-100.781 515.178,-103.844"/>
<text text-anchor="start" x="472.5" y="-110.8" font-family="Times New Roman,serif" font-size="14.00">delay:1</text>
</g>
<!-- W -->
<g id="node2" class="node"><title>W</title>
<polygon fill="#e5f5e0" stroke="#e5f5e0" stroke-width="2" points="318,-38 167,-38 167,-0 318,-0 318,-38"/>
<text text-anchor="start" x="205.5" y="-22.8" font-family="arial" font-size="14.00">Warehouse</text>
<text text-anchor="start" x="175" y="-7.8" font-family="arial" font-size="14.00">(Influence: upstream)</text>
</g>
<!-- W&#45;&gt;S -->
<g id="edge2" class="edge"><title>W&#45;&gt;S</title>
<path fill="none" stroke="#41ab5d" d="M318.244,-35.5764C343.284,-41.1296 371.524,-47.3925 397.825,-53.2253"/>
<polygon fill="#41ab5d" stroke="#41ab5d" points="397.279,-56.6891 407.799,-55.4373 398.794,-49.8551 397.279,-56.6891"/>
<text text-anchor="start" x="343" y="-53.8" font-family="Times New Roman,serif" font-size="14.00">delay:1</text>
</g>
<!-- W&#45;&gt;W -->
<g id="edge3" class="edge"><title>W&#45;&gt;W</title>
<path fill="none" stroke="#41ab5d" d="M223.823,-38.3208C222.993,-45.791 229.219,-52 242.5,-52 249.348,-52 254.32,-50.3492 257.417,-47.726"/>
<polygon fill="#41ab5d" stroke="#41ab5d" points="260.714,-48.9056 261.177,-38.3208 254.215,-46.307 260.714,-48.9056"/>
<text text-anchor="start" x="222.5" y="-55.8" font-family="Times New Roman,serif" font-size="14.00">delay:1</text>
</g>
<!-- Valve 2 -->
<g id="node3" class="node"><title>Valve 2</title>
<polygon fill="#e5f5e0" stroke="#e5f5e0" stroke-width="2" points="90,-87 26,-87 26,-51 90,-51 90,-87"/>
<text text-anchor="start" x="34" y="-65.3" font-family="arial" font-size="14.00">Valve 2</text>
</g>
<!-- Valve 2&#45;&gt;S -->
<g id="edge4" class="edge"><title>Valve 2&#45;&gt;S</title>
<path fill="none" stroke="#41ab5d" d="M90.1494,-72.2859C111.701,-74.3899 141.058,-76.9209 167,-78 244.613,-81.2283 332.749,-79.819 397.562,-77.8311"/>
<polygon fill="#41ab5d" stroke="#41ab5d" points="397.875,-81.323 407.759,-77.5077 397.653,-74.3266 397.875,-81.323"/>
</g>
<!-- Valve 2&#45;&gt;W -->
<g id="edge5" class="edge"><title>Valve 2&#45;&gt;W</title>
<path fill="none" stroke="#41ab5d" d="M90.3729,-60.4047C110.254,-54.9578 136.924,-47.6509 162.324,-40.692"/>
<polygon fill="#41ab5d" stroke="#41ab5d" points="163.26,-44.0646 171.98,-38.0466 161.41,-37.3134 163.26,-44.0646"/>
</g>
<!-- !form2 -->
<g id="node4" class="node"><title>!form2</title>
<polygon fill="#e5f5e0" stroke="#e5f5e0" stroke-width="2" points="116,-137 0,-137 0,-101 116,-101 116,-137"/>
<text text-anchor="start" x="8" y="-115.3" font-family="arial" font-size="14.00">┇ For each: m2</text>
</g>
</g>
</svg>
