<?xml version="1.0" encoding="UTF-8" standalone="no"?>
<!DOCTYPE svg PUBLIC "-//W3C//DTD SVG 1.1//EN"
 "http://www.w3.org/Graphics/SVG/1.1/DTD/svg11.dtd">
<!-- Generated by graphviz version 2.38.0 (20140413.2041)
 -->
<!-- Title: foo Pages: 1 -->
<svg width="455pt" height="101pt"
 viewBox="0.00 0.00 455.00 101.00" xmlns="http://www.w3.org/2000/svg" xmlns:xlink="http://www.w3.org/1999/xlink">
<g id="graph0" class="graph" transform="scale(1 1) rotate(0) translate(4 97)">
<title>foo</title>
<g id="a_graph0"><a xlink:title=" ">
<polygon fill="white" stroke="none" points="-4,4 -4,-97 451,-97 451,4 -4,4"/>
</a>
</g>
<g id="clust2" class="cluster"><title>cluster_InfluenceVariable</title>
<g id="a_clust2"><a xlink:title=" ">
<path fill="#efedf5" stroke="#efedf5" d="M20,-8C20,-8 203,-8 203,-8 209,-8 215,-14 215,-20 215,-20 215,-73 215,-73 215,-79 209,-85 203,-85 203,-85 20,-85 20,-85 14,-85 8,-79 8,-73 8,-73 8,-20 8,-20 8,-14 14,-8 20,-8"/>
<text text-anchor="start" x="16" y="-69.8" font-family="arial" font-size="14.00">Influence Variable</text>
</a>
</g>
</g>
<g id="clust1" class="cluster"><title>cluster_ConsequenceVariable</title>
<g id="a_clust1"><a xlink:title=" ">
<path fill="#efedf5" stroke="#efedf5" d="M261,-8C261,-8 427,-8 427,-8 433,-8 439,-14 439,-20 439,-20 439,-73 439,-73 439,-79 433,-85 427,-85 427,-85 261,-85 261,-85 255,-85 249,-79 249,-73 249,-73 249,-20 249,-20 249,-14 255,-8 261,-8"/>
<text text-anchor="start" x="257" y="-69.8" font-family="arial" font-size="14.00">Consequence Variable</text>
</a>
</g>
</g>
<!-- Student feels they live up to expectations -->
<g id="node1" class="node"><title>Student feels they live up to expectations</title>
<polygon fill="#e5f5e0" stroke="#e5f5e0" stroke-width="2" points="207,-54 16,-54 16,-16 207,-16 207,-54"/>
<text text-anchor="start" x="24" y="-38.8" font-family="arial" font-size="14.00">Student feels they live up to</text>
<text text-anchor="start" x="71" y="-23.8" font-family="arial" font-size="14.00">expectations</text>
</g>
<!-- Student satisfaction with school. Influence: &#39;up&#45;up&#39; -->
<g id="node2" class="node"><title>Student satisfaction with school. Influence: &#39;up&#45;up&#39;</title>
<polygon fill="#e5f5e0" stroke="#e5f5e0" stroke-width="2" points="431,-54 257,-54 257,-16 431,-16 431,-54"/>
<text text-anchor="start" x="268" y="-38.8" font-family="arial" font-size="14.00">Student satisfaction with</text>
<text text-anchor="start" x="265" y="-23.8" font-family="arial" font-size="14.00">school. Influence: &#39;up&#45;up&#39;</text>
</g>
<!-- Student feels they live up to expectations&#45;&gt;Student satisfaction with school. Influence: &#39;up&#45;up&#39; -->
<g id="edge1" class="edge"><title>Student feels they live up to expectations&#45;&gt;Student satisfaction with school. Influence: &#39;up&#45;up&#39;</title>
<path fill="none" stroke="#41ab5d" d="M207.251,-35C220.184,-35 233.473,-35 246.438,-35"/>
<polygon fill="#41ab5d" stroke="#41ab5d" points="246.753,-38.5001 256.753,-35 246.753,-31.5001 246.753,-38.5001"/>
</g>
</g>
</svg>
