<?xml version="1.0" encoding="UTF-8" standalone="no"?>
<!DOCTYPE svg PUBLIC "-//W3C//DTD SVG 1.1//EN"
 "http://www.w3.org/Graphics/SVG/1.1/DTD/svg11.dtd">
<!-- Generated by graphviz version 2.38.0 (20140413.2041)
 -->
<!-- Title: foo Pages: 1 -->
<svg width="470pt" height="207pt"
 viewBox="0.00 0.00 470.00 207.00" xmlns="http://www.w3.org/2000/svg" xmlns:xlink="http://www.w3.org/1999/xlink">
<g id="graph0" class="graph" transform="scale(1 1) rotate(0) translate(4 203)">
<title>foo</title>
<g id="a_graph0"><a xlink:title=" ">
<polygon fill="white" stroke="none" points="-4,4 -4,-203 466,-203 466,4 -4,4"/>
</a>
</g>
<g id="clust1" class="cluster"><title>cluster_AsimpleTheory</title>
<g id="a_clust1"><a xlink:title=" ">
<path fill="#efedf5" stroke="#efedf5" d="M20,-8C20,-8 442,-8 442,-8 448,-8 454,-14 454,-20 454,-20 454,-179 454,-179 454,-185 448,-191 442,-191 442,-191 20,-191 20,-191 14,-191 8,-185 8,-179 8,-179 8,-20 8,-20 8,-14 14,-8 20,-8"/>
<text text-anchor="start" x="16" y="-175.8" font-family="arial" font-size="14.00">A simple Theory</text>
</a>
</g>
</g>
<g id="clust2" class="cluster"><title>cluster_ConsequenceorChildVariable</title>
<g id="a_clust2"><a xlink:title=" ">
<path fill="white" stroke="white" d="M274,-42C274,-42 434,-42 434,-42 440,-42 446,-48 446,-54 446,-54 446,-122 446,-122 446,-128 440,-134 434,-134 434,-134 274,-134 274,-134 268,-134 262,-128 262,-122 262,-122 262,-54 262,-54 262,-48 268,-42 274,-42"/>
<text text-anchor="start" x="270" y="-118.8" font-family="arial" font-size="14.00">Consequence (or &#39;Child&#39;)</text>
<text text-anchor="start" x="322.5" y="-103.8" font-family="arial" font-size="14.00">Variable</text>
</a>
</g>
</g>
<g id="clust3" class="cluster"><title>cluster_InfluenceorParentVariables</title>
<g id="a_clust3"><a xlink:title=" ">
<path fill="white" stroke="white" d="M28,-16C28,-16 216,-16 216,-16 222,-16 228,-22 228,-28 228,-28 228,-148 228,-148 228,-154 222,-160 216,-160 216,-160 28,-160 28,-160 22,-160 16,-154 16,-148 16,-148 16,-28 16,-28 16,-22 22,-16 28,-16"/>
<text text-anchor="start" x="24" y="-144.8" font-family="arial" font-size="14.00">Influence (or &#39;Parent&#39;)</text>
<text text-anchor="start" x="62" y="-129.8" font-family="arial" font-size="14.00">Variables</text>
</a>
</g>
</g>
<!-- Student feels they live up to expectations -->
<g id="node1" class="node"><title>Student feels they live up to expectations</title>
<polygon fill="#e5f5e0" stroke="#e5f5e0" stroke-width="2" points="217.5,-114 26.5,-114 26.5,-76 217.5,-76 217.5,-114"/>
<text text-anchor="start" x="34.5" y="-98.8" font-family="arial" font-size="14.00">Student feels they live up to</text>
<text text-anchor="start" x="81.5" y="-83.8" font-family="arial" font-size="14.00">expectations</text>
</g>
<!-- Student satisfaction with school -->
<g id="node2" class="node"><title>Student satisfaction with school</title>
<polygon fill="#e5f5e0" stroke="#e5f5e0" stroke-width="2" points="438,-88 270,-88 270,-50 438,-50 438,-88"/>
<text text-anchor="start" x="278" y="-72.8" font-family="arial" font-size="14.00">Student satisfaction with</text>
<text text-anchor="start" x="332.5" y="-57.8" font-family="arial" font-size="14.00">school</text>
</g>
<!-- Student feels they live up to expectations&#45;&gt;Student satisfaction with school -->
<g id="edge1" class="edge"><title>Student feels they live up to expectations&#45;&gt;Student satisfaction with school</title>
<path fill="none" stroke="#41ab5d" d="M217.545,-84.3122C231.504,-82.7344 245.877,-81.1095 259.808,-79.5348"/>
<polygon fill="#41ab5d" stroke="#41ab5d" points="260.317,-82.9996 269.861,-78.3984 259.531,-76.0439 260.317,-82.9996"/>
</g>
<!-- Student feels supported and liked -->
<g id="node3" class="node"><title>Student feels supported and liked</title>
<polygon fill="#e5f5e0" stroke="#e5f5e0" stroke-width="2" points="220,-62 24,-62 24,-24 220,-24 220,-62"/>
<text text-anchor="start" x="32" y="-46.8" font-family="arial" font-size="14.00">Student feels supported and</text>
<text text-anchor="start" x="107" y="-31.8" font-family="arial" font-size="14.00">liked</text>
</g>
<!-- Student feels supported and liked&#45;&gt;Student satisfaction with school -->
<g id="edge2" class="edge"><title>Student feels supported and liked&#45;&gt;Student satisfaction with school</title>
<path fill="none" stroke="#41ab5d" d="M220.207,-53.9887C233.397,-55.4796 246.906,-57.0068 260.018,-58.489"/>
<polygon fill="#41ab5d" stroke="#41ab5d" points="259.627,-61.967 269.956,-59.6125 260.413,-55.0113 259.627,-61.967"/>
</g>
</g>
</svg>
