<?xml version="1.0" encoding="UTF-8" standalone="no"?>
<!DOCTYPE svg PUBLIC "-//W3C//DTD SVG 1.1//EN"
 "http://www.w3.org/Graphics/SVG/1.1/DTD/svg11.dtd">
<!-- Generated by graphviz version 2.38.0 (20140413.2041)
 -->
<!-- Title: foo Pages: 1 -->
<svg width="442pt" height="188pt"
 viewBox="0.00 0.00 442.00 188.00" xmlns="http://www.w3.org/2000/svg" xmlns:xlink="http://www.w3.org/1999/xlink">
<g id="graph0" class="graph" transform="scale(1 1) rotate(0) translate(4 184)">
<title>foo</title>
<g id="a_graph0"><a xlink:title=" ">
<polygon fill="#c7e9c0" stroke="none" points="-4,4 -4,-184 438,-184 438,4 -4,4"/>
<text text-anchor="start" x="173.5" y="-7.2" font-family="tahoma" font-size="11.00" fill="#238b45">Another possibility</text>
</a>
</g>
<g id="clust1" class="cluster"><title>cluster_Teachersinwholecountryhaveskills</title>
<g id="a_clust1"><a xlink:title=" ">
<path fill="#e5f5e0" stroke="green" d="M260,-28C260,-28 417,-28 417,-28 423,-28 429,-34 429,-40 429,-40 429,-160 429,-160 429,-166 423,-172 417,-172 417,-172 260,-172 260,-172 254,-172 248,-166 248,-160 248,-160 248,-40 248,-40 248,-34 254,-28 260,-28"/>
<text text-anchor="start" x="256" y="-156.8" font-family="Helvetica,sans-Serif" font-size="14.00">Teachers in whole country</text>
<text text-anchor="start" x="306" y="-141.8" font-family="Helvetica,sans-Serif" font-size="14.00">have skills</text>
</a>
</g>
</g>
<!-- Workshops delivered in North Region -->
<g id="node1" class="node"><title>Workshops delivered in North Region</title>
<polygon fill="#f7fcf5" stroke="#f7fcf5" points="204.5,-126 1.5,-126 1.5,-88 204.5,-88 204.5,-126"/>
<text text-anchor="start" x="9.5" y="-110.8" font-family="Helvetica,sans-Serif" font-size="14.00" fill="#006d2c">Workshops delivered in North</text>
<text text-anchor="start" x="80" y="-95.8" font-family="Helvetica,sans-Serif" font-size="14.00" fill="#006d2c">Region</text>
</g>
<!-- n -->
<g id="node2" class="node"><title>n</title>
<polygon fill="#f7fcf5" stroke="#f7fcf5" points="418,-126 259,-126 259,-88 418,-88 418,-126"/>
<text text-anchor="start" x="267" y="-110.8" font-family="Helvetica,sans-Serif" font-size="14.00" fill="#006d2c">Teachers have skills in</text>
<text text-anchor="start" x="296.5" y="-95.8" font-family="Helvetica,sans-Serif" font-size="14.00" fill="#006d2c">North Region</text>
</g>
<!-- Workshops delivered in North Region&#45;&gt;n -->
<g id="edge1" class="edge"><title>Workshops delivered in North Region&#45;&gt;n</title>
<path fill="none" stroke="#41ab5d" stroke-width="2" d="M204.719,-107C219.32,-107 234.261,-107 248.607,-107"/>
<polygon fill="#41ab5d" stroke="#41ab5d" stroke-width="2" points="248.934,-110.5 258.934,-107 248.934,-103.5 248.934,-110.5"/>
</g>
<!-- Workshops delivered in South Region -->
<g id="node3" class="node"><title>Workshops delivered in South Region</title>
<polygon fill="#f7fcf5" stroke="#f7fcf5" points="206,-74 0,-74 0,-36 206,-36 206,-74"/>
<text text-anchor="start" x="8" y="-58.8" font-family="Helvetica,sans-Serif" font-size="14.00" fill="#006d2c">Workshops delivered in South</text>
<text text-anchor="start" x="80" y="-43.8" font-family="Helvetica,sans-Serif" font-size="14.00" fill="#006d2c">Region</text>
</g>
<!-- s -->
<g id="node4" class="node"><title>s</title>
<polygon fill="#f7fcf5" stroke="#f7fcf5" points="418,-74 259,-74 259,-36 418,-36 418,-74"/>
<text text-anchor="start" x="267" y="-58.8" font-family="Helvetica,sans-Serif" font-size="14.00" fill="#006d2c">Teachers have skills in</text>
<text text-anchor="start" x="295" y="-43.8" font-family="Helvetica,sans-Serif" font-size="14.00" fill="#006d2c">South Region</text>
</g>
<!-- Workshops delivered in South Region&#45;&gt;s -->
<g id="edge2" class="edge"><title>Workshops delivered in South Region&#45;&gt;s</title>
<path fill="none" stroke="#41ab5d" stroke-width="2" d="M206.077,-55C220.297,-55 234.812,-55 248.76,-55"/>
<polygon fill="#41ab5d" stroke="#41ab5d" stroke-width="2" points="248.804,-58.5001 258.804,-55 248.804,-51.5001 248.804,-58.5001"/>
</g>
</g>
</svg>
