<?xml version="1.0" encoding="UTF-8" standalone="no"?>
<!DOCTYPE svg PUBLIC "-//W3C//DTD SVG 1.1//EN"
 "http://www.w3.org/Graphics/SVG/1.1/DTD/svg11.dtd">
<!-- Generated by graphviz version 2.38.0 (20140413.2041)
 -->
<!-- Title: foo Pages: 1 -->
<svg width="1213pt" height="610pt"
 viewBox="0.00 0.00 1212.64 610.32" xmlns="http://www.w3.org/2000/svg" xmlns:xlink="http://www.w3.org/1999/xlink">
<g id="graph0" class="graph" transform="scale(1 1) rotate(0) translate(4 606.318)">
<title>foo</title>
<g id="a_graph0"><a xlink:title=" ">
<polygon fill="white" stroke="none" points="-4,4 -4,-606.318 1208.64,-606.318 1208.64,4 -4,4"/>
</a>
</g>
<!-- b -->
<g id="node1" class="node"><title>b</title>
<ellipse fill="#c7e9c0" stroke="#c7e9c0" stroke-width="2" cx="724.326" cy="-278.193" rx="27" ry="27.6545"/>
<text text-anchor="start" x="716.326" y="-271.293" font-family="arial" font-size="28.00">b</text>
</g>
<!-- a -->
<g id="node2" class="node"><title>a</title>
<ellipse fill="#c7e9c0" stroke="#c7e9c0" stroke-width="2" cx="441.259" cy="-278.193" rx="27" ry="27.6545"/>
<text text-anchor="start" x="433.259" y="-271.293" font-family="arial" font-size="28.00">a</text>
</g>
<!-- b&#45;&gt;a -->
<g id="edge1" class="edge"><title>b&#45;&gt;a</title>
<path fill="none" stroke="#41ab5d" d="M697.185,-278.193C646.249,-278.193 536.275,-278.193 478.477,-278.193"/>
<polygon fill="#41ab5d" stroke="#41ab5d" points="478.318,-274.693 468.318,-278.193 478.318,-281.693 478.318,-274.693"/>
</g>
<!-- c -->
<g id="node3" class="node"><title>c</title>
<ellipse fill="#fcbba1" stroke="#fcbba1" stroke-width="2" cx="724.326" cy="-488.504" rx="27" ry="27.6545"/>
<text text-anchor="start" x="716.826" y="-481.604" font-family="arial" font-size="28.00">c</text>
</g>
<!-- c&#45;&gt;a -->
<g id="edge2" class="edge"><title>c&#45;&gt;a</title>
<path fill="none" stroke="#41ab5d" d="M702.114,-472.001C651.783,-434.607 528.978,-343.365 471.658,-300.779"/>
<polygon fill="#41ab5d" stroke="#41ab5d" points="473.482,-297.773 463.367,-294.619 469.307,-303.392 473.482,-297.773"/>
</g>
<!-- d -->
<g id="node4" class="node"><title>d</title>
<ellipse fill="#c6dbef" stroke="#c6dbef" stroke-width="2" cx="865.86" cy="-383.348" rx="27" ry="27.6545"/>
<text text-anchor="start" x="857.86" y="-376.448" font-family="arial" font-size="28.00">d</text>
</g>
<!-- d&#45;&gt;b -->
<g id="edge3" class="edge"><title>d&#45;&gt;b</title>
<path fill="none" stroke="#41ab5d" d="M843.745,-366.918C819.753,-349.092 781.298,-320.522 754.532,-300.635"/>
<polygon fill="#41ab5d" stroke="#41ab5d" points="756.4,-297.662 746.286,-294.508 752.225,-303.281 756.4,-297.662"/>
</g>
<!-- d&#45;&gt;c -->
<g id="edge4" class="edge"><title>d&#45;&gt;c</title>
<path fill="none" stroke="#41ab5d" d="M843.745,-399.779C819.753,-417.605 781.298,-446.175 754.532,-466.062"/>
<polygon fill="#41ab5d" stroke="#41ab5d" points="752.225,-463.416 746.286,-472.189 756.4,-469.035 752.225,-463.416"/>
</g>
<!-- e -->
<g id="node5" class="node"><title>e</title>
<ellipse fill="#c6dbef" stroke="#c6dbef" stroke-width="2" cx="299.725" cy="-383.348" rx="27" ry="27.6545"/>
<text text-anchor="start" x="291.725" y="-376.448" font-family="arial" font-size="28.00">e</text>
</g>
<!-- e&#45;&gt;b -->
<g id="edge5" class="edge"><title>e&#45;&gt;b</title>
<path fill="none" stroke="#41ab5d" d="M325.965,-376.85C398.95,-358.775 604.466,-307.877 688.171,-287.147"/>
<polygon fill="#41ab5d" stroke="#41ab5d" points="689.125,-290.516 697.99,-284.715 687.442,-283.722 689.125,-290.516"/>
</g>
<!-- e&#45;&gt;c -->
<g id="edge6" class="edge"><title>e&#45;&gt;c</title>
<path fill="none" stroke="#41ab5d" d="M325.965,-389.847C398.95,-407.922 604.466,-458.82 688.171,-479.55"/>
<polygon fill="#41ab5d" stroke="#41ab5d" points="687.442,-482.975 697.99,-481.982 689.125,-476.181 687.442,-482.975"/>
</g>
<!-- f -->
<g id="node6" class="node"><title>f</title>
<ellipse fill="#c6dbef" stroke="#c6dbef" stroke-width="2" cx="441.259" cy="-488.504" rx="27" ry="27.6545"/>
<text text-anchor="start" x="437.259" y="-481.604" font-family="arial" font-size="28.00">f</text>
</g>
<!-- f&#45;&gt;b -->
<g id="edge7" class="edge"><title>f&#45;&gt;b</title>
<path fill="none" stroke="#41ab5d" d="M463.47,-472.001C513.802,-434.607 636.607,-343.365 693.927,-300.779"/>
<polygon fill="#41ab5d" stroke="#41ab5d" points="696.278,-303.392 702.218,-294.619 692.103,-297.773 696.278,-303.392"/>
</g>
<!-- f&#45;&gt;c -->
<g id="edge8" class="edge"><title>f&#45;&gt;c</title>
<path fill="none" stroke="#41ab5d" d="M468.4,-488.504C519.336,-488.504 629.31,-488.504 687.108,-488.504"/>
<polygon fill="#41ab5d" stroke="#41ab5d" points="687.267,-492.004 697.267,-488.504 687.267,-485.004 687.267,-492.004"/>
</g>
<!-- g -->
<g id="node7" class="node"><title>g</title>
<ellipse fill="#c7e9c0" stroke="#c7e9c0" stroke-width="2" cx="808.251" cy="-215.839" rx="27" ry="27.6545"/>
<text text-anchor="start" x="800.251" y="-208.939" font-family="arial" font-size="28.00">g</text>
</g>
<!-- g&#45;&gt;b -->
<g id="edge9" class="edge"><title>g&#45;&gt;b</title>
<path fill="none" stroke="#41ab5d" d="M786.201,-232.222C776.467,-239.453 764.873,-248.068 754.366,-255.874"/>
<polygon fill="#41ab5d" stroke="#41ab5d" points="752.169,-253.146 746.229,-261.919 756.344,-258.765 752.169,-253.146"/>
</g>
<!-- h -->
<g id="node8" class="node"><title>h</title>
<ellipse fill="#c7e9c0" stroke="#c7e9c0" stroke-width="2" cx="901.539" cy="-27.5772" rx="27" ry="27.6545"/>
<text text-anchor="start" x="893.539" y="-20.6772" font-family="arial" font-size="28.00">h</text>
</g>
<!-- h&#45;&gt;b -->
<g id="edge10" class="edge"><title>h&#45;&gt;b</title>
<path fill="none" stroke="#41ab5d" d="M885.5,-50.2596C853.606,-95.3646 782.192,-196.359 746.097,-247.405"/>
<polygon fill="#41ab5d" stroke="#41ab5d" points="743.117,-245.556 740.201,-255.742 748.833,-249.598 743.117,-245.556"/>
</g>
<!-- i -->
<g id="node9" class="node"><title>i</title>
<ellipse fill="#dadaeb" stroke="#dadaeb" stroke-width="2" cx="1084.04" cy="-203.405" rx="27" ry="27.6545"/>
<text text-anchor="start" x="1081.04" y="-196.505" font-family="arial" font-size="28.00">i</text>
</g>
<!-- i&#45;&gt;g -->
<g id="edge11" class="edge"><title>i&#45;&gt;g</title>
<path fill="none" stroke="#41ab5d" d="M1056.84,-204.631C1007.18,-206.87 901.764,-211.623 845.486,-214.16"/>
<polygon fill="#41ab5d" stroke="#41ab5d" points="845.078,-210.675 835.245,-214.622 845.393,-217.668 845.078,-210.675"/>
</g>
<!-- i&#45;&gt;h -->
<g id="edge12" class="edge"><title>i&#45;&gt;h</title>
<path fill="none" stroke="#41ab5d" d="M1064.16,-184.254C1031.39,-152.678 965.953,-89.6374 928.856,-53.8962"/>
<polygon fill="#41ab5d" stroke="#41ab5d" points="931.022,-51.1227 921.392,-46.7049 926.165,-56.1637 931.022,-51.1227"/>
</g>
<!-- j -->
<g id="node10" class="node"><title>j</title>
<ellipse fill="#dadaeb" stroke="#dadaeb" stroke-width="2" cx="695.461" cy="-107.171" rx="27" ry="27.6545"/>
<text text-anchor="start" x="691.961" y="-100.271" font-family="arial" font-size="28.00">j</text>
</g>
<!-- j&#45;&gt;g -->
<g id="edge13" class="edge"><title>j&#45;&gt;g</title>
<path fill="none" stroke="#41ab5d" d="M715.107,-126.1C733.352,-143.678 760.686,-170.012 781.03,-189.613"/>
<polygon fill="#41ab5d" stroke="#41ab5d" points="778.821,-192.345 788.451,-196.763 783.678,-187.304 778.821,-192.345"/>
</g>
<!-- j&#45;&gt;h -->
<g id="edge14" class="edge"><title>j&#45;&gt;h</title>
<path fill="none" stroke="#41ab5d" d="M720.73,-97.4115C757.347,-83.269 825.289,-57.0273 866.656,-41.05"/>
<polygon fill="#41ab5d" stroke="#41ab5d" points="867.996,-44.2847 876.063,-37.4168 865.473,-37.7549 867.996,-44.2847"/>
</g>
<!-- k -->
<g id="node11" class="node"><title>k</title>
<ellipse fill="#dadaeb" stroke="#dadaeb" stroke-width="2" cx="1141.69" cy="-87.0529" rx="27" ry="27.6545"/>
<text text-anchor="start" x="1134.19" y="-80.1529" font-family="arial" font-size="28.00">k</text>
</g>
<!-- k&#45;&gt;g -->
<g id="edge15" class="edge"><title>k&#45;&gt;g</title>
<path fill="none" stroke="#41ab5d" d="M1116.36,-96.8385C1057.26,-119.665 910.194,-176.465 842.881,-202.464"/>
<polygon fill="#41ab5d" stroke="#41ab5d" points="841.616,-199.2 833.548,-206.068 844.138,-205.73 841.616,-199.2"/>
</g>
<!-- k&#45;&gt;h -->
<g id="edge16" class="edge"><title>k&#45;&gt;h</title>
<path fill="none" stroke="#41ab5d" d="M1115.07,-80.4607C1071.86,-69.7592 986.394,-48.5923 937.712,-36.5357"/>
<polygon fill="#41ab5d" stroke="#41ab5d" points="938.458,-33.1149 927.91,-34.1082 936.775,-39.9096 938.458,-33.1149"/>
</g>
<!-- l -->
<g id="node12" class="node"><title>l</title>
<ellipse fill="#e5f5e0" stroke="#e5f5e0" stroke-width="2" cx="1098" cy="-383.348" rx="27" ry="27.6545"/>
<text text-anchor="start" x="1095" y="-376.448" font-family="arial" font-size="28.00">l</text>
</g>
<!-- l&#45;&gt;d -->
<g id="edge17" class="edge"><title>l&#45;&gt;d</title>
<path fill="none" stroke="#41ab5d" d="M1070.92,-383.348C1029.44,-383.348 950.083,-383.348 903.184,-383.348"/>
<polygon fill="#41ab5d" stroke="#41ab5d" points="903.13,-379.849 893.13,-383.348 903.13,-386.849 903.13,-379.849"/>
</g>
<!-- m -->
<g id="node13" class="node"><title>m</title>
<ellipse fill="#e5f5e0" stroke="#e5f5e0" stroke-width="2" cx="65.9375" cy="-383.348" rx="28.0702" ry="27.6545"/>
<text text-anchor="start" x="53.9375" y="-376.448" font-family="arial" font-size="28.00">m</text>
</g>
<!-- m&#45;&gt;e -->
<g id="edge18" class="edge"><title>m&#45;&gt;e</title>
<path fill="none" stroke="#41ab5d" d="M94.6044,-383.348C136.798,-383.348 215.655,-383.348 262.343,-383.348"/>
<polygon fill="#41ab5d" stroke="#41ab5d" points="262.635,-386.849 272.635,-383.348 262.635,-379.849 262.635,-386.849"/>
</g>
<!-- n -->
<g id="node14" class="node"><title>n</title>
<ellipse fill="#e5f5e0" stroke="#e5f5e0" stroke-width="2" cx="325.189" cy="-574.741" rx="27" ry="27.6545"/>
<text text-anchor="start" x="317.189" y="-567.841" font-family="arial" font-size="28.00">n</text>
</g>
<!-- n&#45;&gt;f -->
<g id="edge19" class="edge"><title>n&#45;&gt;f</title>
<path fill="none" stroke="#41ab5d" d="M347.294,-558.317C365.366,-544.891 391.1,-525.771 411.07,-510.934"/>
<polygon fill="#41ab5d" stroke="#41ab5d" points="413.296,-513.64 419.236,-504.867 409.122,-508.021 413.296,-513.64"/>
</g>
</g>
</svg>
