<?xml version="1.0" encoding="UTF-8" standalone="no"?>
<!DOCTYPE svg PUBLIC "-//W3C//DTD SVG 1.1//EN"
 "http://www.w3.org/Graphics/SVG/1.1/DTD/svg11.dtd">
<!-- Generated by graphviz version 2.38.0 (20140413.2041)
 -->
<!-- Title: foo Pages: 1 -->
<svg width="177pt" height="94pt"
 viewBox="0.00 0.00 177.00 94.00" xmlns="http://www.w3.org/2000/svg" xmlns:xlink="http://www.w3.org/1999/xlink">
<g id="graph0" class="graph" transform="scale(1 1) rotate(0) translate(4 90)">
<title>foo</title>
<g id="a_graph0"><a xlink:title=" ">
<polygon fill="white" stroke="none" points="-4,4 -4,-90 173,-90 173,4 -4,4"/>
</a>
</g>
<!-- Spark -->
<g id="node1" class="node"><title>Spark</title>
<polygon fill="#e5f5e0" stroke="#e5f5e0" stroke-width="2" points="59.5,-86 5.5,-86 5.5,-50 59.5,-50 59.5,-86"/>
<text text-anchor="start" x="14" y="-64.3" font-family="arial" font-size="14.00">Spark</text>
</g>
<!-- Fire -->
<g id="node2" class="node"><title>Fire</title>
<polygon fill="#e5f5e0" stroke="#e5f5e0" stroke-width="2" points="169,-61 115,-61 115,-25 169,-25 169,-61"/>
<text text-anchor="start" x="129.5" y="-39.3" font-family="arial" font-size="14.00">Fire</text>
</g>
<!-- Spark&#45;&gt;Fire -->
<g id="edge1" class="edge"><title>Spark&#45;&gt;Fire</title>
<path fill="none" stroke="#41ab5d" d="M59.8587,-59.8141C75.0822,-55.0863 93.3276,-49.42 104.275,-46.0202"/>
<polygon fill="#41ab5d" stroke="#41ab5d" points="105.488,-49.3085 114,-43 103.412,-42.6234 105.488,-49.3085"/>
<text text-anchor="middle" x="102.897" y="-49.386" font-family="Times New Roman,serif" font-size="14.00">AND</text>
</g>
<!-- Oxygen -->
<g id="node3" class="node"><title>Oxygen</title>
<polygon fill="#e5f5e0" stroke="#e5f5e0" stroke-width="2" points="65,-36 0,-36 0,-0 65,-0 65,-36"/>
<text text-anchor="start" x="8" y="-14.3" font-family="arial" font-size="14.00">Oxygen</text>
</g>
<!-- Oxygen&#45;&gt;Fire -->
<g id="edge2" class="edge"><title>Oxygen&#45;&gt;Fire</title>
<path fill="none" stroke="#41ab5d" d="M65.3157,-27.8807C79.2031,-32.1935 94.4931,-36.942 104.164,-39.9455"/>
<polygon fill="#41ab5d" stroke="#41ab5d" points="103.412,-43.3766 114,-43 105.488,-36.6916 103.412,-43.3766"/>
</g>
</g>
</svg>
