<?xml version="1.0" encoding="UTF-8" standalone="no"?>
<!DOCTYPE svg PUBLIC "-//W3C//DTD SVG 1.1//EN"
 "http://www.w3.org/Graphics/SVG/1.1/DTD/svg11.dtd">
<!-- Generated by graphviz version 2.38.0 (20140413.2041)
 -->
<!-- Title: foo Pages: 1 -->
<svg width="1079pt" height="276pt"
 viewBox="0.00 0.00 1079.00 275.75" xmlns="http://www.w3.org/2000/svg" xmlns:xlink="http://www.w3.org/1999/xlink">
<g id="graph0" class="graph" transform="scale(1 1) rotate(0) translate(4 271.75)">
<title>foo</title>
<g id="a_graph0"><a xlink:title=" ">
<polygon fill="white" stroke="none" points="-4,4 -4,-271.75 1075,-271.75 1075,4 -4,4"/>
</a>
</g>
<g id="clust1" class="cluster"><title>cluster_Foreachof20teachers</title>
<g id="a_clust1"><a xlink:title=" ">
<path fill="#fee6ce" stroke="#dadaeb" d="M88,-104.434C88,-104.434 742,-104.434 742,-104.434 748,-104.434 754,-110.434 754,-116.434 754,-116.434 754,-246.862 754,-246.862 754,-252.862 748,-258.862 742,-258.862 742,-258.862 88,-258.862 88,-258.862 82,-258.862 76,-252.862 76,-246.862 76,-246.862 76,-116.434 76,-116.434 76,-110.434 82,-104.434 88,-104.434"/>
<text text-anchor="start" x="84" y="-243.662" font-family="arial" font-size="14.00">For each of 20 teachers</text>
</a>
</g>
</g>
<!-- Teaching quality ((improved)) !lohi &#160;&#160;Teacher: !heart -->
<g id="node1" class="node"><title>Teaching quality ((improved)) !lohi &#160;&#160;Teacher: !heart</title>
<polygon fill="#e5f5e0" stroke="#e5f5e0" stroke-width="2" points="745.5,-151.32 522.5,-151.32 522.5,-115.32 745.5,-115.32 745.5,-151.32"/>
<text text-anchor="start" x="530.5" y="-137.12" font-family="arial" font-size="14.00">Teaching quality &#160;</text>
<text text-anchor="start" x="640.5" y="-137.12" font-family="arial" font-size="14.00" fill="darkgreen">((improved))</text>
<text text-anchor="start" x="718.5" y="-137.12" font-family="arial" font-size="14.00"> &#160;◪</text>
<text text-anchor="start" x="599" y="-123.12" font-family="arial" font-size="14.00">Teacher: </text>
<text text-anchor="start" x="660" y="-123.12" font-family="arial" font-size="14.00" fill="orange">♥</text>
</g>
<!-- Average teaching quality ((improved)) !noyes &#160;&#160;Ministry: !heart -->
<g id="node2" class="node"><title>Average teaching quality ((improved)) !noyes &#160;&#160;Ministry: !heart</title>
<polygon fill="none" stroke="#e5f5e0" stroke-width="2" stroke-dasharray="5,2" points="1070.5,-179.32 795.5,-179.32 795.5,-143.32 1070.5,-143.32 1070.5,-179.32"/>
<text text-anchor="start" x="803.5" y="-165.12" font-family="arial" font-size="14.00">Average teaching quality &#160;</text>
<text text-anchor="start" x="965.5" y="-165.12" font-family="arial" font-size="14.00" fill="darkgreen">((improved))</text>
<text text-anchor="start" x="1043.5" y="-165.12" font-family="arial" font-size="14.00"> &#160;◨</text>
<text text-anchor="start" x="901" y="-151.12" font-family="arial" font-size="14.00">Ministry: </text>
<text text-anchor="start" x="956" y="-151.12" font-family="arial" font-size="14.00" fill="orange">♥</text>
</g>
<!-- Teaching quality ((improved)) !lohi &#160;&#160;Teacher: !heart&#45;&gt;Average teaching quality ((improved)) !noyes &#160;&#160;Ministry: !heart -->
<g id="edge1" class="edge"><title>Teaching quality ((improved)) !lohi &#160;&#160;Teacher: !heart&#45;&gt;Average teaching quality ((improved)) !noyes &#160;&#160;Ministry: !heart</title>
<path fill="none" stroke="#41ab5d" stroke-dasharray="5,2" d="M745.592,-143.746C758.537,-144.966 771.894,-146.225 785.233,-147.483"/>
<polygon fill="#41ab5d" stroke="#41ab5d" points="785.138,-150.989 795.422,-148.443 785.795,-144.02 785.138,-150.989"/>
</g>
<!-- ((More)) outstanding teachers !lohi &#160;&#160;Trainer: !heart -->
<g id="node3" class="node"><title>((More)) outstanding teachers !lohi &#160;&#160;Trainer: !heart</title>
<polygon fill="none" stroke="#e5f5e0" stroke-width="2" stroke-dasharray="5,2" points="1045.5,-123.32 820.5,-123.32 820.5,-87.3195 1045.5,-87.3195 1045.5,-123.32"/>
<text text-anchor="start" x="828.5" y="-109.12" font-family="arial" font-size="14.00"> </text>
<text text-anchor="start" x="832.5" y="-109.12" font-family="arial" font-size="14.00" fill="darkgreen">((More))</text>
<text text-anchor="start" x="883.5" y="-109.12" font-family="arial" font-size="14.00"> &#160;outstanding teachers ◪</text>
<text text-anchor="start" x="902.5" y="-95.1195" font-family="arial" font-size="14.00">Trainer: </text>
<text text-anchor="start" x="954.5" y="-95.1195" font-family="arial" font-size="14.00" fill="orange">♥</text>
</g>
<!-- Teaching quality ((improved)) !lohi &#160;&#160;Teacher: !heart&#45;&gt;((More)) outstanding teachers !lohi &#160;&#160;Trainer: !heart -->
<g id="edge2" class="edge"><title>Teaching quality ((improved)) !lohi &#160;&#160;Teacher: !heart&#45;&gt;((More)) outstanding teachers !lohi &#160;&#160;Trainer: !heart</title>
<path fill="none" stroke="#41ab5d" stroke-dasharray="5,2" d="M745.592,-122.893C766.664,-120.907 788.827,-118.817 810.224,-116.8"/>
<polygon fill="#41ab5d" stroke="#41ab5d" points="810.698,-120.271 820.325,-115.848 810.041,-113.302 810.698,-120.271"/>
</g>
<!-- tr -->
<g id="node4" class="node"><title>tr</title>
<polygon fill="#e5f5e0" stroke="#e5f5e0" stroke-width="2" points="472.5,-153.32 345.5,-153.32 345.5,-115.32 472.5,-115.32 472.5,-153.32"/>
<text text-anchor="start" x="353.5" y="-138.12" font-family="arial" font-size="14.00">Teacher receives</text>
<text text-anchor="start" x="378.5" y="-123.12" font-family="arial" font-size="14.00">training ◨</text>
</g>
<!-- tr&#45;&gt;Teaching quality ((improved)) !lohi &#160;&#160;Teacher: !heart -->
<g id="edge3" class="edge"><title>tr&#45;&gt;Teaching quality ((improved)) !lohi &#160;&#160;Teacher: !heart</title>
<path fill="none" stroke="#41ab5d" d="M472.711,-134.038C485.03,-133.983 498.339,-133.923 511.837,-133.863"/>
<polygon fill="#41ab5d" stroke="#41ab5d" points="512.2,-137.361 522.184,-133.816 512.168,-130.361 512.2,-137.361"/>
</g>
<!-- Pay increased &#160;&#160;Teacher: !heart &#160;&#160;Ministry: !frown -->
<g id="node6" class="node"><title>Pay increased &#160;&#160;Teacher: !heart &#160;&#160;Ministry: !frown</title>
<polygon fill="#e5f5e0" stroke="#e5f5e0" stroke-width="2" points="687.5,-221.32 580.5,-221.32 580.5,-171.32 687.5,-171.32 687.5,-221.32"/>
<text text-anchor="start" x="588.5" y="-207.12" font-family="arial" font-size="14.00">Pay increased</text>
<text text-anchor="start" x="599" y="-193.12" font-family="arial" font-size="14.00">Teacher: </text>
<text text-anchor="start" x="660" y="-193.12" font-family="arial" font-size="14.00" fill="orange">♥</text>
<text text-anchor="start" x="600.5" y="-179.12" font-family="arial" font-size="14.00">Ministry: ☹</text>
</g>
<!-- tr&#45;&gt;Pay increased &#160;&#160;Teacher: !heart &#160;&#160;Ministry: !frown -->
<g id="edge5" class="edge"><title>tr&#45;&gt;Pay increased &#160;&#160;Teacher: !heart &#160;&#160;Ministry: !frown</title>
<path fill="none" stroke="#41ab5d" d="M472.711,-151.755C503.283,-160.255 539.951,-170.449 570.496,-178.942"/>
<polygon fill="#41ab5d" stroke="#41ab5d" points="569.61,-182.328 580.182,-181.635 571.485,-175.584 569.61,-182.328"/>
</g>
<!-- Teacher: &#160;!do &#160;&#160;Attends course !noyes -->
<g id="node5" class="node"><title>Teacher: &#160;!do &#160;&#160;Attends course !noyes</title>
<polygon fill="#e5f5e0" stroke="#e5f5e0" stroke-width="2" points="212,-152.32 84,-152.32 84,-116.32 212,-116.32 212,-152.32"/>
<text text-anchor="start" x="108" y="-138.12" font-family="arial" font-size="14.00">Teacher: &#160;</text>
<text text-anchor="start" x="172" y="-138.12" font-family="arial" font-size="14.00" fill="darkgreen">▶ </text>
<text text-anchor="start" x="92" y="-124.12" font-family="arial" font-size="14.00">Attends course ◨</text>
</g>
<!-- Teacher: &#160;!do &#160;&#160;Attends course !noyes&#45;&gt;tr -->
<g id="edge4" class="edge"><title>Teacher: &#160;!do &#160;&#160;Attends course !noyes&#45;&gt;tr</title>
<path fill="none" stroke="#41ab5d" d="M212.027,-134.32C249.14,-134.32 296.245,-134.32 334.971,-134.32"/>
<polygon fill="#41ab5d" stroke="#41ab5d" points="335.139,-137.82 345.139,-134.32 335.139,-130.82 335.139,-137.82"/>
</g>
<!-- Ministry: !do &#160;&#160;Provides in&#45;service teacher training course!noyes -->
<g id="node7" class="node"><title>Ministry: !do &#160;&#160;Provides in&#45;service teacher training course!noyes</title>
<polygon fill="#e5f5e0" stroke="#e5f5e0" stroke-width="2" points="296,-93.3195 0,-93.3195 0,-57.3195 296,-57.3195 296,-93.3195"/>
<text text-anchor="start" x="112.5" y="-79.1195" font-family="arial" font-size="14.00">Ministry: </text>
<text text-anchor="start" x="167.5" y="-79.1195" font-family="arial" font-size="14.00" fill="darkgreen">▶ </text>
<text text-anchor="start" x="8" y="-65.1195" font-family="arial" font-size="14.00">Provides in&#45;service teacher training course◨</text>
</g>
<!-- Ministry: !do &#160;&#160;Provides in&#45;service teacher training course!noyes&#45;&gt;tr -->
<g id="edge6" class="edge"><title>Ministry: !do &#160;&#160;Provides in&#45;service teacher training course!noyes&#45;&gt;tr</title>
<path fill="none" stroke="#41ab5d" d="M258.847,-93.3623C271.418,-95.8372 284.016,-98.5034 296,-101.32 309.656,-104.528 324.114,-108.414 337.941,-112.376"/>
<polygon fill="#41ab5d" stroke="#41ab5d" points="337.298,-115.834 347.878,-115.266 339.253,-109.112 337.298,-115.834"/>
</g>
<!-- Trainer: !do &#160;&#160;Provides pro&#45;bono training course !noyes !heart -->
<g id="node8" class="node"><title>Trainer: !do &#160;&#160;Provides pro&#45;bono training course !noyes !heart</title>
<polygon fill="#e5f5e0" stroke="#e5f5e0" stroke-width="2" points="277,-38.3195 19,-38.3195 19,-2.3195 277,-2.3195 277,-38.3195"/>
<text text-anchor="start" x="114" y="-24.1195" font-family="arial" font-size="14.00">Trainer: </text>
<text text-anchor="start" x="166" y="-24.1195" font-family="arial" font-size="14.00" fill="darkgreen">▶ </text>
<text text-anchor="start" x="27" y="-10.1195" font-family="arial" font-size="14.00">Provides pro&#45;bono training course ◨ </text>
<text text-anchor="start" x="260" y="-10.1195" font-family="arial" font-size="14.00" fill="orange">♥</text>
</g>
<!-- Trainer: !do &#160;&#160;Provides pro&#45;bono training course !noyes !heart&#45;&gt;tr -->
<g id="edge7" class="edge"><title>Trainer: !do &#160;&#160;Provides pro&#45;bono training course !noyes !heart&#45;&gt;tr</title>
<path fill="none" stroke="#41ab5d" d="M263.347,-38.4136C274.599,-41.7419 285.666,-45.6745 296,-50.3195 327.846,-64.633 359.217,-89.3317 380.62,-108.254"/>
<polygon fill="#41ab5d" stroke="#41ab5d" points="378.543,-111.094 388.314,-115.189 383.23,-105.894 378.543,-111.094"/>
</g>
</g>
</svg>
