<?xml version="1.0" encoding="UTF-8" standalone="no"?>
<!DOCTYPE svg PUBLIC "-//W3C//DTD SVG 1.1//EN"
 "http://www.w3.org/Graphics/SVG/1.1/DTD/svg11.dtd">
<!-- Generated by graphviz version 2.38.0 (20140413.2041)
 -->
<!-- Title: foo Pages: 1 -->
<svg width="1051pt" height="199pt"
 viewBox="0.00 0.00 1051.00 199.00" xmlns="http://www.w3.org/2000/svg" xmlns:xlink="http://www.w3.org/1999/xlink">
<g id="graph0" class="graph" transform="scale(1 1) rotate(0) translate(4 195)">
<title>foo</title>
<g id="a_graph0"><a xlink:title=" ">
<polygon fill="white" stroke="none" points="-4,4 -4,-195 1047,-195 1047,4 -4,4"/>
</a>
</g>
<g id="clust1" class="cluster"><title>cluster_Foreachof20teachers</title>
<g id="a_clust1"><a xlink:title=" ">
<path fill="#fee6ce" stroke="#dadaeb" d="M20,-8C20,-8 714,-8 714,-8 720,-8 726,-14 726,-20 726,-20 726,-171 726,-171 726,-177 720,-183 714,-183 714,-183 20,-183 20,-183 14,-183 8,-177 8,-171 8,-171 8,-20 8,-20 8,-14 14,-8 20,-8"/>
<text text-anchor="start" x="16" y="-167.8" font-family="arial" font-size="14.00">For each of 20 teachers</text>
</a>
</g>
</g>
<!-- Teaching quality ((improved)) !lohi &#160;&#160;Teacher: !heart -->
<g id="node1" class="node"><title>Teaching quality ((improved)) !lohi &#160;&#160;Teacher: !heart</title>
<polygon fill="#e5f5e0" stroke="#e5f5e0" stroke-width="2" points="718,-70 495,-70 495,-34 718,-34 718,-70"/>
<text text-anchor="start" x="503" y="-55.8" font-family="arial" font-size="14.00">Teaching quality &#160;</text>
<text text-anchor="start" x="613" y="-55.8" font-family="arial" font-size="14.00" fill="darkgreen">((improved))</text>
<text text-anchor="start" x="691" y="-55.8" font-family="arial" font-size="14.00"> &#160;◪</text>
<text text-anchor="start" x="571.5" y="-41.8" font-family="arial" font-size="14.00">Teacher: </text>
<text text-anchor="start" x="632.5" y="-41.8" font-family="arial" font-size="14.00" fill="orange">♥</text>
</g>
<!-- Average teaching quality ((improved)) !noyes &#160;&#160;Ministry: !heart -->
<g id="node2" class="node"><title>Average teaching quality ((improved)) !noyes &#160;&#160;Ministry: !heart</title>
<polygon fill="none" stroke="#e5f5e0" stroke-width="2" stroke-dasharray="5,2" points="1043,-95 768,-95 768,-59 1043,-59 1043,-95"/>
<text text-anchor="start" x="776" y="-80.8" font-family="arial" font-size="14.00">Average teaching quality &#160;</text>
<text text-anchor="start" x="938" y="-80.8" font-family="arial" font-size="14.00" fill="darkgreen">((improved))</text>
<text text-anchor="start" x="1016" y="-80.8" font-family="arial" font-size="14.00"> &#160;◨</text>
<text text-anchor="start" x="873.5" y="-66.8" font-family="arial" font-size="14.00">Ministry: </text>
<text text-anchor="start" x="928.5" y="-66.8" font-family="arial" font-size="14.00" fill="orange">♥</text>
</g>
<!-- Teaching quality ((improved)) !lohi &#160;&#160;Teacher: !heart&#45;&gt;Average teaching quality ((improved)) !noyes &#160;&#160;Ministry: !heart -->
<g id="edge1" class="edge"><title>Teaching quality ((improved)) !lohi &#160;&#160;Teacher: !heart&#45;&gt;Average teaching quality ((improved)) !noyes &#160;&#160;Ministry: !heart</title>
<path fill="none" stroke="#41ab5d" stroke-dasharray="5,2" d="M718.092,-61.3091C731.037,-62.3987 744.394,-63.5231 757.733,-64.6459"/>
<polygon fill="#41ab5d" stroke="#41ab5d" points="757.664,-68.1523 767.922,-65.5035 758.251,-61.177 757.664,-68.1523"/>
</g>
<!-- ((More)) outstanding teachers !lohi &#160;&#160;Trainer: !heart -->
<g id="node3" class="node"><title>((More)) outstanding teachers !lohi &#160;&#160;Trainer: !heart</title>
<polygon fill="none" stroke="#e5f5e0" stroke-width="2" stroke-dasharray="5,2" points="1018,-45 793,-45 793,-9 1018,-9 1018,-45"/>
<text text-anchor="start" x="801" y="-30.8" font-family="arial" font-size="14.00"> </text>
<text text-anchor="start" x="805" y="-30.8" font-family="arial" font-size="14.00" fill="darkgreen">((More))</text>
<text text-anchor="start" x="856" y="-30.8" font-family="arial" font-size="14.00"> &#160;outstanding teachers ◪</text>
<text text-anchor="start" x="875" y="-16.8" font-family="arial" font-size="14.00">Trainer: </text>
<text text-anchor="start" x="927" y="-16.8" font-family="arial" font-size="14.00" fill="orange">♥</text>
</g>
<!-- Teaching quality ((improved)) !lohi &#160;&#160;Teacher: !heart&#45;&gt;((More)) outstanding teachers !lohi &#160;&#160;Trainer: !heart -->
<g id="edge2" class="edge"><title>Teaching quality ((improved)) !lohi &#160;&#160;Teacher: !heart&#45;&gt;((More)) outstanding teachers !lohi &#160;&#160;Trainer: !heart</title>
<path fill="none" stroke="#41ab5d" stroke-dasharray="5,2" d="M718.092,-42.6909C739.164,-40.9172 761.327,-39.0516 782.724,-37.2505"/>
<polygon fill="#41ab5d" stroke="#41ab5d" points="783.154,-40.7268 792.825,-36.4002 782.567,-33.7514 783.154,-40.7268"/>
</g>
<!-- tr -->
<g id="node4" class="node"><title>tr</title>
<polygon fill="#e5f5e0" stroke="#e5f5e0" stroke-width="2" points="445,-103 318,-103 318,-65 445,-65 445,-103"/>
<text text-anchor="start" x="326" y="-87.8" font-family="arial" font-size="14.00">Teacher receives</text>
<text text-anchor="start" x="351" y="-72.8" font-family="arial" font-size="14.00">training ◨</text>
</g>
<!-- tr&#45;&gt;Teaching quality ((improved)) !lohi &#160;&#160;Teacher: !heart -->
<g id="edge3" class="edge"><title>tr&#45;&gt;Teaching quality ((improved)) !lohi &#160;&#160;Teacher: !heart</title>
<path fill="none" stroke="#41ab5d" d="M445.211,-75.0011C457.651,-73.216 471.1,-71.2861 484.735,-69.3296"/>
<polygon fill="#41ab5d" stroke="#41ab5d" points="485.283,-72.7869 494.684,-67.9019 484.288,-65.8579 485.283,-72.7869"/>
</g>
<!-- Pay ((increased)) &#160;&#160;Teacher: !heart &#160;&#160;Ministry: !frown -->
<g id="node6" class="node"><title>Pay ((increased)) &#160;&#160;Teacher: !heart &#160;&#160;Ministry: !frown</title>
<polygon fill="#e5f5e0" stroke="#e5f5e0" stroke-width="2" points="673,-134 540,-134 540,-84 673,-84 673,-134"/>
<text text-anchor="start" x="548" y="-119.8" font-family="arial" font-size="14.00">Pay &#160;</text>
<text text-anchor="start" x="580" y="-119.8" font-family="arial" font-size="14.00" fill="darkgreen">((increased))</text>
<text text-anchor="start" x="661" y="-119.8" font-family="arial" font-size="14.00"> </text>
<text text-anchor="start" x="571.5" y="-105.8" font-family="arial" font-size="14.00">Teacher: </text>
<text text-anchor="start" x="632.5" y="-105.8" font-family="arial" font-size="14.00" fill="orange">♥</text>
<text text-anchor="start" x="573" y="-91.8" font-family="arial" font-size="14.00">Ministry: ☹</text>
</g>
<!-- tr&#45;&gt;Pay ((increased)) &#160;&#160;Teacher: !heart &#160;&#160;Ministry: !frown -->
<g id="edge5" class="edge"><title>tr&#45;&gt;Pay ((increased)) &#160;&#160;Teacher: !heart &#160;&#160;Ministry: !frown</title>
<path fill="none" stroke="#41ab5d" d="M445.211,-91.0304C471.485,-93.9759 502.262,-97.4262 529.784,-100.512"/>
<polygon fill="#41ab5d" stroke="#41ab5d" points="529.435,-103.994 539.762,-101.63 530.215,-97.0379 529.435,-103.994"/>
</g>
<!-- Teacher: &#160;!do &#160;&#160;Attends course !noyes -->
<g id="node5" class="node"><title>Teacher: &#160;!do &#160;&#160;Attends course !noyes</title>
<polygon fill="#e5f5e0" stroke="#e5f5e0" stroke-width="2" points="206,-152 78,-152 78,-116 206,-116 206,-152"/>
<text text-anchor="start" x="102" y="-137.8" font-family="arial" font-size="14.00">Teacher: &#160;</text>
<text text-anchor="start" x="166" y="-137.8" font-family="arial" font-size="14.00" fill="darkgreen">▶ </text>
<text text-anchor="start" x="86" y="-123.8" font-family="arial" font-size="14.00">Attends course ◨</text>
</g>
<!-- Teacher: &#160;!do &#160;&#160;Attends course !noyes&#45;&gt;tr -->
<g id="edge4" class="edge"><title>Teacher: &#160;!do &#160;&#160;Attends course !noyes&#45;&gt;tr</title>
<path fill="none" stroke="#41ab5d" d="M206.003,-121.671C225.859,-117.713 247.862,-113.251 268,-109 280.87,-106.283 294.549,-103.313 307.773,-100.399"/>
<polygon fill="#41ab5d" stroke="#41ab5d" points="308.767,-103.764 317.775,-98.1866 307.256,-96.929 308.767,-103.764"/>
</g>
<!-- Ministry: !do &#160;&#160;Provides in&#45;service teacher training !noyes -->
<g id="node7" class="node"><title>Ministry: !do &#160;&#160;Provides in&#45;service teacher training !noyes</title>
<polygon fill="#e5f5e0" stroke="#e5f5e0" stroke-width="2" points="268,-102 16,-102 16,-66 268,-66 268,-102"/>
<text text-anchor="start" x="106.5" y="-87.8" font-family="arial" font-size="14.00">Ministry: </text>
<text text-anchor="start" x="161.5" y="-87.8" font-family="arial" font-size="14.00" fill="darkgreen">▶ </text>
<text text-anchor="start" x="24" y="-73.8" font-family="arial" font-size="14.00">Provides in&#45;service teacher training ◨</text>
</g>
<!-- Ministry: !do &#160;&#160;Provides in&#45;service teacher training !noyes&#45;&gt;tr -->
<g id="edge6" class="edge"><title>Ministry: !do &#160;&#160;Provides in&#45;service teacher training !noyes&#45;&gt;tr</title>
<path fill="none" stroke="#41ab5d" d="M268.01,-84C281.677,-84 295.234,-84 307.953,-84"/>
<polygon fill="#41ab5d" stroke="#41ab5d" points="307.96,-87.5001 317.96,-84 307.96,-80.5001 307.96,-87.5001"/>
</g>
<!-- Trainer: !do &#160;&#160;Provides pro&#45;bono training !noyes !heart -->
<g id="node8" class="node"><title>Trainer: !do &#160;&#160;Provides pro&#45;bono training !noyes !heart</title>
<polygon fill="#e5f5e0" stroke="#e5f5e0" stroke-width="2" points="247.5,-52 36.5,-52 36.5,-16 247.5,-16 247.5,-52"/>
<text text-anchor="start" x="108" y="-37.8" font-family="arial" font-size="14.00">Trainer: </text>
<text text-anchor="start" x="160" y="-37.8" font-family="arial" font-size="14.00" fill="darkgreen">▶ </text>
<text text-anchor="start" x="44.5" y="-23.8" font-family="arial" font-size="14.00">Provides pro&#45;bono training ◨ </text>
<text text-anchor="start" x="230.5" y="-23.8" font-family="arial" font-size="14.00" fill="orange">♥</text>
</g>
<!-- Trainer: !do &#160;&#160;Provides pro&#45;bono training !noyes !heart&#45;&gt;tr -->
<g id="edge7" class="edge"><title>Trainer: !do &#160;&#160;Provides pro&#45;bono training !noyes !heart&#45;&gt;tr</title>
<path fill="none" stroke="#41ab5d" d="M234.187,-52.003C245.58,-54.3213 257.065,-56.6917 268,-59 280.87,-61.7167 294.549,-64.6867 307.773,-67.6009"/>
<polygon fill="#41ab5d" stroke="#41ab5d" points="307.256,-71.071 317.775,-69.8134 308.767,-64.2362 307.256,-71.071"/>
</g>
</g>
</svg>
