<?xml version="1.0" encoding="UTF-8" standalone="no"?>
<!DOCTYPE svg PUBLIC "-//W3C//DTD SVG 1.1//EN"
 "http://www.w3.org/Graphics/SVG/1.1/DTD/svg11.dtd">
<!-- Generated by graphviz version 2.38.0 (20140413.2041)
 -->
<!-- Title: foo Pages: 1 -->
<svg width="166pt" height="144pt"
 viewBox="0.00 0.00 166.00 144.00" xmlns="http://www.w3.org/2000/svg" xmlns:xlink="http://www.w3.org/1999/xlink">
<g id="graph0" class="graph" transform="scale(1 1) rotate(0) translate(4 140)">
<title>foo</title>
<g id="a_graph0"><a xlink:title=" ">
<polygon fill="white" stroke="none" points="-4,4 -4,-140 162,-140 162,4 -4,4"/>
</a>
</g>
<!-- A -->
<g id="node1" class="node"><title>A</title>
<polygon fill="#e5f5e0" stroke="#e5f5e0" stroke-width="2" points="54,-136 0,-136 0,-100 54,-100 54,-136"/>
<text text-anchor="start" x="22" y="-114.3" font-family="arial" font-size="14.00">A</text>
</g>
<!-- X !minus -->
<g id="node2" class="node"><title>X !minus</title>
<polygon fill="#e5f5e0" stroke="#e5f5e0" stroke-width="2" points="158,-86 104,-86 104,-50 158,-50 158,-86"/>
<text text-anchor="start" x="118.5" y="-64.3" font-family="arial" font-size="14.00">X ⊖</text>
</g>
<!-- A&#45;&gt;X !minus -->
<g id="edge1" class="edge"><title>A&#45;&gt;X !minus</title>
<path fill="none" stroke="#41ab5d" d="M54.0028,-105.254C66.2567,-99.2467 81.0684,-91.9861 94.3489,-85.476"/>
<polygon fill="#41ab5d" stroke="#41ab5d" points="96.2513,-88.4414 103.69,-80.8971 93.1702,-82.156 96.2513,-88.4414"/>
</g>
<!-- B -->
<g id="node3" class="node"><title>B</title>
<polygon fill="#e5f5e0" stroke="#e5f5e0" stroke-width="2" points="54,-86 0,-86 0,-50 54,-50 54,-86"/>
<text text-anchor="start" x="22" y="-64.3" font-family="arial" font-size="14.00">B</text>
</g>
<!-- B&#45;&gt;X !minus -->
<g id="edge2" class="edge"><title>B&#45;&gt;X !minus</title>
<path fill="none" stroke="#41ab5d" d="M54.0028,-68C66.0187,-68 80.4941,-68 93.5735,-68"/>
<polygon fill="#41ab5d" stroke="#41ab5d" points="93.69,-71.5001 103.69,-68 93.69,-64.5001 93.69,-71.5001"/>
</g>
<!-- C -->
<g id="node4" class="node"><title>C</title>
<polygon fill="#e5f5e0" stroke="#e5f5e0" stroke-width="2" points="54,-36 0,-36 0,-0 54,-0 54,-36"/>
<text text-anchor="start" x="21.5" y="-14.3" font-family="arial" font-size="14.00">C</text>
</g>
<!-- C&#45;&gt;X !minus -->
<g id="edge3" class="edge"><title>C&#45;&gt;X !minus</title>
<path fill="none" stroke="#41ab5d" d="M54.0028,-30.7465C66.2567,-36.7533 81.0684,-44.0139 94.3489,-50.524"/>
<polygon fill="#41ab5d" stroke="#41ab5d" points="93.1702,-53.844 103.69,-55.1029 96.2513,-47.5586 93.1702,-53.844"/>
</g>
</g>
</svg>
