<?xml version="1.0" encoding="UTF-8" standalone="no"?>
<!DOCTYPE svg PUBLIC "-//W3C//DTD SVG 1.1//EN"
 "http://www.w3.org/Graphics/SVG/1.1/DTD/svg11.dtd">
<!-- Generated by graphviz version 2.38.0 (20140413.2041)
 -->
<!-- Title: foo Pages: 1 -->
<svg width="440pt" height="121pt"
 viewBox="0.00 0.00 440.00 121.00" xmlns="http://www.w3.org/2000/svg" xmlns:xlink="http://www.w3.org/1999/xlink">
<g id="graph0" class="graph" transform="scale(1 1) rotate(0) translate(4 117)">
<title>foo</title>
<g id="a_graph0"><a xlink:title=" ">
<polygon fill="white" stroke="none" points="-4,4 -4,-117 436,-117 436,4 -4,4"/>
</a>
</g>
<!-- Teaching quality ((20% improvement)). Influence: partial control -->
<g id="node1" class="node"><title>Teaching quality ((20% improvement)). Influence: partial control</title>
<polygon fill="#e5f5e0" stroke="#e5f5e0" stroke-width="2" points="270,-109.5 158,-109.5 158,-3.5 270,-3.5 270,-109.5"/>
<text text-anchor="start" x="184.5" y="-95.3" font-family="arial" font-size="14.00">Teaching</text>
<text text-anchor="start" x="194" y="-81.3" font-family="arial" font-size="14.00">quality</text>
<text text-anchor="start" x="194.5" y="-67.3" font-family="arial" font-size="14.00" fill="green">((20%</text>
<text text-anchor="start" x="166" y="-53.3" font-family="arial" font-size="14.00" fill="green">improvement))</text>
<text text-anchor="start" x="258" y="-53.3" font-family="arial" font-size="14.00">.</text>
<text text-anchor="start" x="182.5" y="-39.3" font-family="arial" font-size="14.00">Influence:</text>
<text text-anchor="start" x="195" y="-25.3" font-family="arial" font-size="14.00">partial</text>
<text text-anchor="start" x="192.5" y="-11.3" font-family="arial" font-size="14.00">control</text>
</g>
<!-- Student achievement !heart ((10% improvement)). Influence: partial control -->
<g id="node2" class="node"><title>Student achievement !heart ((10% improvement)). Influence: partial control</title>
<polygon fill="#e5f5e0" stroke="#e5f5e0" stroke-width="2" points="432,-109.5 320,-109.5 320,-3.5 432,-3.5 432,-109.5"/>
<text text-anchor="start" x="351.5" y="-95.3" font-family="arial" font-size="14.00">Student</text>
<text text-anchor="start" x="329" y="-81.3" font-family="arial" font-size="14.00">achievement </text>
<text text-anchor="start" x="414" y="-81.3" font-family="arial" font-size="14.00" fill="orange">♥</text>
<text text-anchor="start" x="356.5" y="-67.3" font-family="arial" font-size="14.00" fill="green">((10%</text>
<text text-anchor="start" x="328" y="-53.3" font-family="arial" font-size="14.00" fill="green">improvement))</text>
<text text-anchor="start" x="420" y="-53.3" font-family="arial" font-size="14.00">.</text>
<text text-anchor="start" x="344.5" y="-39.3" font-family="arial" font-size="14.00">Influence:</text>
<text text-anchor="start" x="357" y="-25.3" font-family="arial" font-size="14.00">partial</text>
<text text-anchor="start" x="354.5" y="-11.3" font-family="arial" font-size="14.00">control</text>
</g>
<!-- Teaching quality ((20% improvement)). Influence: partial control&#45;&gt;Student achievement !heart ((10% improvement)). Influence: partial control -->
<g id="edge1" class="edge"><title>Teaching quality ((20% improvement)). Influence: partial control&#45;&gt;Student achievement !heart ((10% improvement)). Influence: partial control</title>
<path fill="none" stroke="#41ab5d" d="M270.063,-56.5C282.759,-56.5 296.387,-56.5 309.479,-56.5"/>
<polygon fill="#41ab5d" stroke="#41ab5d" points="309.836,-60.0001 319.836,-56.5 309.836,-53.0001 309.836,-60.0001"/>
</g>
<!-- !rwedge Quality of teacher training ((50% improvement)) -->
<g id="node3" class="node"><title>!rwedge Quality of teacher training ((50% improvement))</title>
<polygon fill="#e5f5e0" stroke="#e5f5e0" stroke-width="2" points="108,-113 0,-113 0,-0 108,-0 108,-113"/>
<text text-anchor="start" x="46.5" y="-97.8" font-family="arial" font-size="14.00">►</text>
<text text-anchor="start" x="32.5" y="-82.8" font-family="arial" font-size="14.00">Quality</text>
<text text-anchor="start" x="47.5" y="-67.8" font-family="arial" font-size="14.00">of</text>
<text text-anchor="start" x="30" y="-52.8" font-family="arial" font-size="14.00">teacher</text>
<text text-anchor="start" x="31" y="-37.8" font-family="arial" font-size="14.00">training</text>
<text text-anchor="start" x="34.5" y="-22.8" font-family="arial" font-size="14.00" fill="green">((50%</text>
<text text-anchor="start" x="8" y="-7.8" font-family="arial" font-size="14.00" fill="green">improvement))</text>
</g>
<!-- !rwedge Quality of teacher training ((50% improvement))&#45;&gt;Teaching quality ((20% improvement)). Influence: partial control -->
<g id="edge2" class="edge"><title>!rwedge Quality of teacher training ((50% improvement))&#45;&gt;Teaching quality ((20% improvement)). Influence: partial control</title>
<path fill="none" stroke="#41ab5d" d="M108.051,-56.5C120.839,-56.5 134.647,-56.5 147.915,-56.5"/>
<polygon fill="#41ab5d" stroke="#41ab5d" points="147.929,-60.0001 157.929,-56.5 147.929,-53.0001 147.929,-60.0001"/>
</g>
</g>
</svg>
