<?xml version="1.0" encoding="UTF-8" standalone="no"?>
<!DOCTYPE svg PUBLIC "-//W3C//DTD SVG 1.1//EN"
 "http://www.w3.org/Graphics/SVG/1.1/DTD/svg11.dtd">
<!-- Generated by graphviz version 2.38.0 (20140413.2041)
 -->
<!-- Title: foo Pages: 1 -->
<svg width="288pt" height="94pt"
 viewBox="0.00 0.00 288.00 94.00" xmlns="http://www.w3.org/2000/svg" xmlns:xlink="http://www.w3.org/1999/xlink">
<g id="graph0" class="graph" transform="scale(1 1) rotate(0) translate(4 90)">
<title>foo</title>
<g id="a_graph0"><a xlink:title=" ">
<polygon fill="white" stroke="none" points="-4,4 -4,-90 284,-90 284,4 -4,4"/>
</a>
</g>
<!-- Rising !135 -->
<g id="node1" class="node"><title>Rising !135</title>
<polygon fill="#e5f5e0" stroke="#e5f5e0" stroke-width="2" points="87,-86 1,-86 1,-50 87,-50 87,-86"/>
<text text-anchor="start" x="9" y="-64.3" font-family="Arial narrow" font-size="14.00">Rising ▂▅▇</text>
</g>
<!-- Staying the same !333 -->
<g id="node2" class="node"><title>Staying the same !333</title>
<polygon fill="#e5f5e0" stroke="#e5f5e0" stroke-width="2" points="280,-61 138,-61 138,-25 280,-25 280,-61"/>
<text text-anchor="start" x="146" y="-39.3" font-family="Arial narrow" font-size="14.00">Staying the same ▅▅▅</text>
</g>
<!-- Rising !135&#45;&gt;Staying the same !333 -->
<g id="edge1" class="edge"><title>Rising !135&#45;&gt;Staying the same !333</title>
<path fill="none" stroke="#41ab5d" d="M87.4008,-61.4968C99.7733,-59.5992 113.721,-57.4599 127.626,-55.3273"/>
<polygon fill="#41ab5d" stroke="#41ab5d" points="128.366,-58.7549 137.719,-53.7792 127.304,-51.8358 128.366,-58.7549"/>
</g>
<!-- Falling !531 -->
<g id="node3" class="node"><title>Falling !531</title>
<polygon fill="#e5f5e0" stroke="#e5f5e0" stroke-width="2" points="88,-36 0,-36 0,-0 88,-0 88,-36"/>
<text text-anchor="start" x="8" y="-14.3" font-family="Arial narrow" font-size="14.00">Falling ▇▅▂</text>
</g>
<!-- Falling !531&#45;&gt;Staying the same !333 -->
<g id="edge2" class="edge"><title>Falling !531&#45;&gt;Staying the same !333</title>
<path fill="none" stroke="#41ab5d" d="M88.2531,-24.6339C100.472,-26.508 114.174,-28.6096 127.827,-30.7036"/>
<polygon fill="#41ab5d" stroke="#41ab5d" points="127.323,-34.167 137.738,-32.2236 128.384,-27.2479 127.323,-34.167"/>
</g>
</g>
</svg>
