<?xml version="1.0" encoding="UTF-8" standalone="no"?>
<!DOCTYPE svg PUBLIC "-//W3C//DTD SVG 1.1//EN"
 "http://www.w3.org/Graphics/SVG/1.1/DTD/svg11.dtd">
<!-- Generated by graphviz version 2.38.0 (20140413.2041)
 -->
<!-- Title: foo Pages: 1 -->
<svg width="425pt" height="80pt"
 viewBox="0.00 0.00 425.00 79.50" xmlns="http://www.w3.org/2000/svg" xmlns:xlink="http://www.w3.org/1999/xlink">
<g id="graph0" class="graph" transform="scale(1 1) rotate(0) translate(4 75.5)">
<title>foo</title>
<g id="a_graph0"><a xlink:title=" ">
<polygon fill="#c7e9c0" stroke="none" points="-4,4 -4,-75.5 421,-75.5 421,4 -4,4"/>
<text text-anchor="start" x="170.5" y="-7.2" font-family="tahoma" font-size="11.00" fill="#238b45">Try this instead</text>
</a>
</g>
<!-- axsxdf -->
<!-- ~Temperature of sea !self -->
<g id="node2" class="node"><title>~Temperature of sea !self</title>
<polygon fill="#f7fcf5" stroke="#f7fcf5" points="417,-56 252,-56 252,-20 417,-20 417,-56"/>
<text text-anchor="start" x="260" y="-34.3" font-family="Helvetica,sans-Serif" font-size="14.00" fill="#006d2c">~Temperature of sea ↺</text>
</g>
<!-- axsxdf&#45;&gt;~Temperature of sea !self -->
<g id="edge1" class="edge"><title>axsxdf&#45;&gt;~Temperature of sea !self</title>
<path fill="none" stroke="#41ab5d" stroke-width="0" d="M113.441,-70.4875C132.064,-69.563 170.068,-67.2999 202,-63 214.847,-61.2701 228.339,-59.1071 241.584,-56.7819"/>
<polygon fill="#41ab5d" stroke="#41ab5d" stroke-width="0" points="242.425,-60.1869 251.651,-54.9766 241.19,-53.2969 242.425,-60.1869"/>
</g>
<!-- ~Incoming sunshine onto sea -->
<g id="node3" class="node"><title>~Incoming sunshine onto sea</title>
<polygon fill="#f7fcf5" stroke="#f7fcf5" points="202,-56 0,-56 0,-20 202,-20 202,-56"/>
<text text-anchor="start" x="8" y="-34.3" font-family="Helvetica,sans-Serif" font-size="14.00" fill="#006d2c">~Incoming sunshine onto sea</text>
</g>
<!-- ~Incoming sunshine onto sea&#45;&gt;~Temperature of sea !self -->
<g id="edge2" class="edge"><title>~Incoming sunshine onto sea&#45;&gt;~Temperature of sea !self</title>
<path fill="none" stroke="#41ab5d" stroke-width="2" d="M202.193,-38C215.306,-38 228.691,-38 241.657,-38"/>
<polygon fill="#41ab5d" stroke="#41ab5d" stroke-width="2" points="241.953,-41.5001 251.953,-38 241.953,-34.5001 241.953,-41.5001"/>
</g>
</g>
</svg>
