<?xml version="1.0" encoding="UTF-8" standalone="no"?>
<!DOCTYPE svg PUBLIC "-//W3C//DTD SVG 1.1//EN"
 "http://www.w3.org/Graphics/SVG/1.1/DTD/svg11.dtd">
<!-- Generated by graphviz version 2.38.0 (20140413.2041)
 -->
<!-- Title: foo Pages: 1 -->
<svg width="383pt" height="96pt"
 viewBox="0.00 0.00 383.00 96.00" xmlns="http://www.w3.org/2000/svg" xmlns:xlink="http://www.w3.org/1999/xlink">
<g id="graph0" class="graph" transform="scale(1 1) rotate(0) translate(4 92)">
<title>foo</title>
<g id="a_graph0"><a xlink:title=" ">
<polygon fill="#c7e9c0" stroke="none" points="-4,4 -4,-92 379,-92 379,4 -4,4"/>
<text text-anchor="start" x="37.5" y="-7.2" font-family="tahoma" font-size="11.00" fill="#238b45">Now we are not mixing Variables with and without Differences</text>
</a>
</g>
<!-- Percentage Eaccinated -->
<g id="node1" class="node"><title>Percentage Eaccinated</title>
<polygon fill="#f7fcf5" stroke="#f7fcf5" points="230,-73 140,-73 140,-35 230,-35 230,-73"/>
<text text-anchor="start" x="148" y="-57.8" font-family="Helvetica,sans-Serif" font-size="14.00" fill="#006d2c">Percentage</text>
<text text-anchor="start" x="149.5" y="-42.8" font-family="Helvetica,sans-Serif" font-size="14.00" fill="#006d2c">Eaccinated</text>
</g>
<!-- !ud (Opposite of) Mortality -->
<g id="node2" class="node"><title>!ud (Opposite of) Mortality</title>
<polygon fill="#f7fcf5" stroke="#f7fcf5" points="375,-73 280,-73 280,-35 375,-35 375,-73"/>
<text text-anchor="start" x="288" y="-57.8" font-family="Helvetica,sans-Serif" font-size="14.00" fill="#006d2c">⇅ (Opposite</text>
<text text-anchor="start" x="291" y="-42.8" font-family="Helvetica,sans-Serif" font-size="14.00" fill="#006d2c">of) Mortality</text>
</g>
<!-- Percentage Eaccinated&#45;&gt;!ud (Opposite of) Mortality -->
<g id="edge1" class="edge"><title>Percentage Eaccinated&#45;&gt;!ud (Opposite of) Mortality</title>
<path fill="none" stroke="#41ab5d" stroke-width="2" d="M230.07,-54C242.516,-54 256.241,-54 269.338,-54"/>
<polygon fill="#41ab5d" stroke="#41ab5d" stroke-width="2" points="269.67,-57.5001 279.67,-54 269.67,-50.5001 269.67,-57.5001"/>
</g>
<!-- Quality and extent of vaccination programme -->
<g id="node3" class="node"><title>Quality and extent of vaccination programme</title>
<polygon fill="#f7fcf5" stroke="#f7fcf5" points="90,-88 0,-88 0,-20 90,-20 90,-88"/>
<text text-anchor="start" x="10" y="-72.8" font-family="Helvetica,sans-Serif" font-size="14.00" fill="#006d2c">Quality and</text>
<text text-anchor="start" x="17.5" y="-57.8" font-family="Helvetica,sans-Serif" font-size="14.00" fill="#006d2c">extent of</text>
<text text-anchor="start" x="10" y="-42.8" font-family="Helvetica,sans-Serif" font-size="14.00" fill="#006d2c">vaccination</text>
<text text-anchor="start" x="8" y="-27.8" font-family="Helvetica,sans-Serif" font-size="14.00" fill="#006d2c">programme</text>
</g>
<!-- Quality and extent of vaccination programme&#45;&gt;Percentage Eaccinated -->
<g id="edge2" class="edge"><title>Quality and extent of vaccination programme&#45;&gt;Percentage Eaccinated</title>
<path fill="none" stroke="#41ab5d" stroke-width="2" d="M90.0435,-54C102.616,-54 116.467,-54 129.581,-54"/>
<polygon fill="#41ab5d" stroke="#41ab5d" stroke-width="2" points="129.902,-57.5001 139.902,-54 129.902,-50.5001 129.902,-57.5001"/>
</g>
</g>
</svg>
