<?xml version="1.0" encoding="UTF-8" standalone="no"?>
<!DOCTYPE svg PUBLIC "-//W3C//DTD SVG 1.1//EN"
 "http://www.w3.org/Graphics/SVG/1.1/DTD/svg11.dtd">
<!-- Generated by graphviz version 2.38.0 (20140413.2041)
 -->
<!-- Title: foo Pages: 1 -->
<svg width="255pt" height="94pt"
 viewBox="0.00 0.00 255.00 94.00" xmlns="http://www.w3.org/2000/svg" xmlns:xlink="http://www.w3.org/1999/xlink">
<g id="graph0" class="graph" transform="scale(1 1) rotate(0) translate(4 90)">
<title>foo</title>
<g id="a_graph0"><a xlink:title=" ">
<polygon fill="white" stroke="none" points="-4,4 -4,-90 251,-90 251,4 -4,4"/>
</a>
</g>
<!-- My flamethrower -->
<g id="node1" class="node"><title>My flamethrower</title>
<polygon fill="#e5f5e0" stroke="#e5f5e0" stroke-width="2" points="125.5,-86 5.5,-86 5.5,-50 125.5,-50 125.5,-86"/>
<text text-anchor="start" x="13.5" y="-64.3" font-family="arial" font-size="14.00">My flamethrower</text>
</g>
<!-- Fire -->
<g id="node2" class="node"><title>Fire</title>
<polygon fill="#e5f5e0" stroke="#e5f5e0" stroke-width="2" points="247,-61 193,-61 193,-25 247,-25 247,-61"/>
<text text-anchor="start" x="207.5" y="-39.3" font-family="arial" font-size="14.00">Fire</text>
</g>
<!-- My flamethrower&#45;&gt;Fire -->
<g id="edge1" class="edge"><title>My flamethrower&#45;&gt;Fire</title>
<path fill="none" stroke="#41ab5d" d="M125.575,-56.232C147.191,-51.9261 169.39,-47.5039 181.866,-45.0187"/>
<polygon fill="#41ab5d" stroke="#41ab5d" points="182.876,-48.3863 192,-43 181.509,-41.5212 182.876,-48.3863"/>
<text text-anchor="start" x="156" y="-53.8" font-family="Times New Roman,serif" font-size="14.00">⇈</text>
<text text-anchor="middle" x="179.906" y="-48.173" font-family="Times New Roman,serif" font-size="14.00">OR</text>
</g>
<!-- Your flamethrower -->
<g id="node3" class="node"><title>Your flamethrower</title>
<polygon fill="#e5f5e0" stroke="#e5f5e0" stroke-width="2" points="131,-36 0,-36 0,-0 131,-0 131,-36"/>
<text text-anchor="start" x="8" y="-14.3" font-family="arial" font-size="14.00">Your flamethrower</text>
</g>
<!-- Your flamethrower&#45;&gt;Fire -->
<g id="edge2" class="edge"><title>Your flamethrower&#45;&gt;Fire</title>
<path fill="none" stroke="#41ab5d" d="M131.172,-21.9309C143.576,-23.7219 156.329,-26.2994 168,-30 173.42,-31.7187 179.033,-34.6826 183.466,-37.3466"/>
<polygon fill="#41ab5d" stroke="#41ab5d" points="181.73,-40.3952 192,-43 185.596,-34.5595 181.73,-40.3952"/>
<text text-anchor="start" x="156" y="-33.8" font-family="Times New Roman,serif" font-size="14.00">⇈</text>
</g>
</g>
</svg>
