<?xml version="1.0" encoding="UTF-8" standalone="no"?>
<!DOCTYPE svg PUBLIC "-//W3C//DTD SVG 1.1//EN"
 "http://www.w3.org/Graphics/SVG/1.1/DTD/svg11.dtd">
<!-- Generated by graphviz version 2.38.0 (20140413.2041)
 -->
<!-- Title: foo Pages: 1 -->
<svg width="291pt" height="96pt"
 viewBox="0.00 0.00 291.00 96.00" xmlns="http://www.w3.org/2000/svg" xmlns:xlink="http://www.w3.org/1999/xlink">
<g id="graph0" class="graph" transform="scale(1 1) rotate(0) translate(4 92)">
<title>foo</title>
<g id="a_graph0"><a xlink:title=" ">
<polygon fill="#c7e9c0" stroke="none" points="-4,4 -4,-92 287,-92 287,4 -4,4"/>
<text text-anchor="start" x="103.5" y="-7.2" font-family="tahoma" font-size="11.00" fill="#238b45">Try this instead</text>
</a>
</g>
<!-- ~ For each day: Voter hears the day&#39;s speeches -->
<g id="node1" class="node"><title>~ For each day: Voter hears the day&#39;s speeches</title>
<polygon fill="#f7fcf5" stroke="#f7fcf5" points="116,-80.5 0,-80.5 0,-27.5 116,-27.5 116,-80.5"/>
<text text-anchor="start" x="8.5" y="-65.3" font-family="Helvetica,sans-Serif" font-size="14.00" fill="#006d2c">~ For each day:</text>
<text text-anchor="start" x="9.5" y="-50.3" font-family="Helvetica,sans-Serif" font-size="14.00" fill="#006d2c">Voter hears the</text>
<text text-anchor="start" x="8" y="-35.3" font-family="Helvetica,sans-Serif" font-size="14.00" fill="#006d2c">day&#39;s speeches</text>
</g>
<!-- day Election Thursday: Voter decides to vote for Tory party -->
<g id="node2" class="node"><title>day Election Thursday: Voter decides to vote for Tory party</title>
<polygon fill="#f7fcf5" stroke="#f7fcf5" points="283,-88 166,-88 166,-20 283,-20 283,-88"/>
<text text-anchor="start" x="183.5" y="-72.8" font-family="Helvetica,sans-Serif" font-size="14.00" fill="#006d2c">day=Election</text>
<text text-anchor="start" x="174" y="-57.8" font-family="Helvetica,sans-Serif" font-size="14.00" fill="#006d2c">Thursday: Voter</text>
<text text-anchor="start" x="175.5" y="-42.8" font-family="Helvetica,sans-Serif" font-size="14.00" fill="#006d2c">decides to vote</text>
<text text-anchor="start" x="182" y="-27.8" font-family="Helvetica,sans-Serif" font-size="14.00" fill="#006d2c">for Tory party</text>
</g>
<!-- ~ For each day: Voter hears the day&#39;s speeches&#45;&gt;day Election Thursday: Voter decides to vote for Tory party -->
<g id="edge1" class="edge"><title>~ For each day: Voter hears the day&#39;s speeches&#45;&gt;day Election Thursday: Voter decides to vote for Tory party</title>
<path fill="none" stroke="#41ab5d" stroke-width="2" d="M116.072,-54C128.939,-54 142.716,-54 155.966,-54"/>
<polygon fill="#41ab5d" stroke="#41ab5d" stroke-width="2" points="155.971,-57.5001 165.971,-54 155.971,-50.5001 155.971,-57.5001"/>
</g>
</g>
</svg>
