<?xml version="1.0" encoding="UTF-8" standalone="no"?>
<!DOCTYPE svg PUBLIC "-//W3C//DTD SVG 1.1//EN"
 "http://www.w3.org/Graphics/SVG/1.1/DTD/svg11.dtd">
<!-- Generated by graphviz version 2.38.0 (20140413.2041)
 -->
<!-- Title: foo Pages: 1 -->
<svg width="511pt" height="166pt"
 viewBox="0.00 0.00 511.00 166.00" xmlns="http://www.w3.org/2000/svg" xmlns:xlink="http://www.w3.org/1999/xlink">
<g id="graph0" class="graph" transform="scale(1 1) rotate(0) translate(4 162)">
<title>foo</title>
<g id="a_graph0"><a xlink:title=" ">
<polygon fill="#d9d9d9" stroke="none" points="-4,4 -4,-162 507,-162 507,4 -4,4"/>
<text text-anchor="start" x="159.5" y="-7.2" font-family="tahoma" font-size="11.00" fill="#525252">You don&#39;t have to stick to this format</text>
</a>
</g>
<!-- improved student classwork -->
<g id="node1" class="node"><title>improved student classwork</title>
<polygon fill="#fee6ce" stroke="#fee6ce" points="327,-106 201,-106 201,-68 327,-68 327,-106"/>
<text text-anchor="start" x="209" y="-90.8" font-family="Helvetica,sans-Serif" font-size="14.00">improved student</text>
<text text-anchor="start" x="232.5" y="-75.8" font-family="Helvetica,sans-Serif" font-size="14.00">classwork</text>
</g>
<!-- improved student exam results -->
<g id="node2" class="node"><title>improved student exam results</title>
<polygon fill="#fee6ce" stroke="#fee6ce" points="503,-132 377,-132 377,-94 503,-94 503,-132"/>
<text text-anchor="start" x="385" y="-116.8" font-family="Helvetica,sans-Serif" font-size="14.00">improved student</text>
<text text-anchor="start" x="399.5" y="-101.8" font-family="Helvetica,sans-Serif" font-size="14.00">exam results</text>
</g>
<!-- improved student classwork&#45;&gt;improved student exam results -->
<g id="edge1" class="edge"><title>improved student classwork&#45;&gt;improved student exam results</title>
<path fill="none" stroke="#737373" stroke-width="2" d="M327.327,-96.3132C340.148,-98.229 353.749,-100.261 366.884,-102.224"/>
<polygon fill="#737373" stroke="#737373" stroke-width="2" points="366.409,-105.692 376.816,-103.708 367.443,-98.7687 366.409,-105.692"/>
</g>
<!-- !do student workshop 1 held -->
<g id="node3" class="node"><title>!do student workshop 1 held</title>
<polygon fill="#fee6ce" stroke="#fee6ce" points="151,-106 0,-106 0,-70 151,-70 151,-106"/>
<text text-anchor="start" x="8" y="-91.8" font-family="Courier,monospace" font-size="14.00">▶ </text>
<text text-anchor="start" x="28" y="-91.8" font-family="Helvetica,sans-Serif" font-size="14.00"> student workshop</text>
<text text-anchor="start" x="55.5" y="-77.8" font-family="Helvetica,sans-Serif" font-size="14.00">1 held</text>
</g>
<!-- !do student workshop 1 held&#45;&gt;improved student classwork -->
<g id="edge2" class="edge"><title>!do student workshop 1 held&#45;&gt;improved student classwork</title>
<path fill="none" stroke="#737373" stroke-width="2" d="M151.014,-87.6005C164.063,-87.5305 177.623,-87.4578 190.614,-87.3881"/>
<polygon fill="#737373" stroke="#737373" stroke-width="2" points="190.909,-90.8867 200.89,-87.333 190.871,-83.8868 190.909,-90.8867"/>
</g>
<!-- !do students receive laptops -->
<g id="node4" class="node"><title>!do students receive laptops</title>
<polygon fill="#fee6ce" stroke="#fee6ce" points="148,-56 3,-56 3,-20 148,-20 148,-56"/>
<text text-anchor="start" x="11" y="-41.8" font-family="Courier,monospace" font-size="14.00">▶ </text>
<text text-anchor="start" x="31" y="-41.8" font-family="Helvetica,sans-Serif" font-size="14.00"> students receive</text>
<text text-anchor="start" x="52" y="-27.8" font-family="Helvetica,sans-Serif" font-size="14.00">laptops</text>
</g>
<!-- !do students receive laptops&#45;&gt;improved student classwork -->
<g id="edge3" class="edge"><title>!do students receive laptops&#45;&gt;improved student classwork</title>
<path fill="none" stroke="#737373" stroke-width="2" d="M145.151,-56.037C160.146,-59.9768 176.055,-64.1566 191.17,-68.1279"/>
<polygon fill="#737373" stroke="#737373" stroke-width="2" points="190.41,-71.5468 200.971,-70.7029 192.189,-64.7766 190.41,-71.5468"/>
</g>
<!-- improved student exam skills -->
<g id="node5" class="node"><title>improved student exam skills</title>
<polygon fill="#fee6ce" stroke="#fee6ce" points="327,-158 201,-158 201,-120 327,-120 327,-158"/>
<text text-anchor="start" x="209" y="-142.8" font-family="Helvetica,sans-Serif" font-size="14.00">improved student</text>
<text text-anchor="start" x="229" y="-127.8" font-family="Helvetica,sans-Serif" font-size="14.00">exam skills</text>
</g>
<!-- improved student exam skills&#45;&gt;improved student exam results -->
<g id="edge4" class="edge"><title>improved student exam skills&#45;&gt;improved student exam results</title>
<path fill="none" stroke="#737373" stroke-width="2" d="M327.327,-129.687C340.148,-127.771 353.749,-125.739 366.884,-123.776"/>
<polygon fill="#737373" stroke="#737373" stroke-width="2" points="367.443,-127.231 376.816,-122.292 366.409,-120.308 367.443,-127.231"/>
</g>
<!-- !do student workshop 2 held -->
<g id="node6" class="node"><title>!do student workshop 2 held</title>
<polygon fill="#fee6ce" stroke="#fee6ce" points="151,-157 0,-157 0,-121 151,-121 151,-157"/>
<text text-anchor="start" x="8" y="-142.8" font-family="Courier,monospace" font-size="14.00">▶ </text>
<text text-anchor="start" x="28" y="-142.8" font-family="Helvetica,sans-Serif" font-size="14.00"> student workshop</text>
<text text-anchor="start" x="55.5" y="-128.8" font-family="Helvetica,sans-Serif" font-size="14.00">2 held</text>
</g>
<!-- !do student workshop 2 held&#45;&gt;improved student exam skills -->
<g id="edge5" class="edge"><title>!do student workshop 2 held&#45;&gt;improved student exam skills</title>
<path fill="none" stroke="#737373" stroke-width="2" d="M151.014,-139C164.063,-139 177.623,-139 190.614,-139"/>
<polygon fill="#737373" stroke="#737373" stroke-width="2" points="190.89,-142.5 200.89,-139 190.89,-135.5 190.89,-142.5"/>
</g>
</g>
</svg>
