<?xml version="1.0" encoding="UTF-8" standalone="no"?>
<!DOCTYPE svg PUBLIC "-//W3C//DTD SVG 1.1//EN"
 "http://www.w3.org/Graphics/SVG/1.1/DTD/svg11.dtd">
<!-- Generated by graphviz version 2.38.0 (20140413.2041)
 -->
<!-- Title: foo Pages: 1 -->
<svg width="538pt" height="145pt"
 viewBox="0.00 0.00 538.00 145.00" xmlns="http://www.w3.org/2000/svg" xmlns:xlink="http://www.w3.org/1999/xlink">
<g id="graph0" class="graph" transform="scale(1 1) rotate(0) translate(4 141)">
<title>foo</title>
<g id="a_graph0"><a xlink:title=" ">
<polygon fill="white" stroke="none" points="-4,4 -4,-141 534,-141 534,4 -4,4"/>
</a>
</g>
<!--  &#160;a -->
<g id="node1" class="node"><title> &#160;a</title>
<polygon fill="white" stroke="black" stroke-width="2" points="54,-137 0,-137 0,-101 54,-101 54,-137"/>
<text text-anchor="start" x="23" y="-115.3" font-family="arial" font-size="14.00" fill="white">a</text>
</g>
<!-- d -->
<g id="node2" class="node"><title>d</title>
<polygon fill="black" stroke="black" stroke-width="2" points="88,-36 34,-36 34,-0 88,-0 88,-36"/>
<text text-anchor="start" x="56.5" y="-14.3" font-family="arial" font-size="14.00">d</text>
</g>
<!--  &#160;a&#45;&gt;d -->
<g id="edge1" class="edge"><title> &#160;a&#45;&gt;d</title>
<path fill="none" stroke="#41ab5d" d="M34.2105,-100.822C41.15,-84.2897 51.3909,-59.8923 56.9872,-46.5599"/>
<polygon fill="#41ab5d" stroke="#41ab5d" points="60.3568,-47.5753 61,-37 53.9023,-44.866 60.3568,-47.5753"/>
<text text-anchor="start" x="51" y="-64.8" font-family="Times New Roman,serif" font-size="14.00">↘</text>
</g>
<!--  b -->
<g id="node3" class="node"><title> b</title>
<polygon fill="white" stroke="black" stroke-width="2" points="122,-137 68,-137 68,-101 122,-101 122,-137"/>
<text text-anchor="start" x="90.5" y="-115.3" font-family="arial" font-size="14.00" fill="white">b</text>
</g>
<!--  b&#45;&gt;d -->
<g id="edge2" class="edge"><title> b&#45;&gt;d</title>
<path fill="none" stroke="#41ab5d" d="M87.7895,-100.822C80.85,-84.2897 70.6091,-59.8923 65.0128,-46.5599"/>
<polygon fill="#41ab5d" stroke="#41ab5d" points="68.0977,-44.866 61,-37 61.6432,-47.5753 68.0977,-44.866"/>
<text text-anchor="start" x="77" y="-64.8" font-family="Times New Roman,serif" font-size="14.00">↓</text>
</g>
<!--  &#160;a1 -->
<g id="node4" class="node"><title> &#160;a1</title>
<polygon fill="white" stroke="black" stroke-width="2" points="190,-137 136,-137 136,-101 190,-101 190,-137"/>
<text text-anchor="start" x="155" y="-115.3" font-family="arial" font-size="14.00" fill="white">a1</text>
</g>
<!-- d1 -->
<g id="node5" class="node"><title>d1</title>
<polygon fill="black" stroke="black" stroke-width="2" points="224,-36 170,-36 170,-0 224,-0 224,-36"/>
<text text-anchor="start" x="188.5" y="-14.3" font-family="arial" font-size="14.00">d1</text>
</g>
<!--  &#160;a1&#45;&gt;d1 -->
<g id="edge3" class="edge"><title> &#160;a1&#45;&gt;d1</title>
<path fill="none" stroke="#41ab5d" d="M170.211,-100.822C177.15,-84.2897 187.391,-59.8923 192.987,-46.5599"/>
<polygon fill="#41ab5d" stroke="#41ab5d" points="196.357,-47.5753 197,-37 189.902,-44.866 196.357,-47.5753"/>
<text text-anchor="start" x="187" y="-64.8" font-family="Times New Roman,serif" font-size="14.00">↘</text>
</g>
<!--  b1 -->
<g id="node6" class="node"><title> b1</title>
<polygon fill="black" stroke="black" stroke-width="2" points="258,-137 204,-137 204,-101 258,-101 258,-137"/>
<text text-anchor="start" x="222.5" y="-115.3" font-family="arial" font-size="14.00">b1</text>
</g>
<!--  b1&#45;&gt;d1 -->
<g id="edge4" class="edge"><title> b1&#45;&gt;d1</title>
<path fill="none" stroke="#41ab5d" d="M223.789,-100.822C216.85,-84.2897 206.609,-59.8923 201.013,-46.5599"/>
<polygon fill="#41ab5d" stroke="#41ab5d" points="204.098,-44.866 197,-37 197.643,-47.5753 204.098,-44.866"/>
<text text-anchor="start" x="213" y="-64.8" font-family="Times New Roman,serif" font-size="14.00">↓</text>
</g>
<!--  &#160;a2 -->
<g id="node7" class="node"><title> &#160;a2</title>
<polygon fill="black" stroke="black" stroke-width="2" points="326,-137 272,-137 272,-101 326,-101 326,-137"/>
<text text-anchor="start" x="291" y="-115.3" font-family="arial" font-size="14.00">a2</text>
</g>
<!-- d2 -->
<g id="node8" class="node"><title>d2</title>
<polygon fill="black" stroke="black" stroke-width="2" points="360,-36 306,-36 306,-0 360,-0 360,-36"/>
<text text-anchor="start" x="324.5" y="-14.3" font-family="arial" font-size="14.00">d2</text>
</g>
<!--  &#160;a2&#45;&gt;d2 -->
<g id="edge5" class="edge"><title> &#160;a2&#45;&gt;d2</title>
<path fill="none" stroke="#41ab5d" d="M306.211,-100.822C313.15,-84.2897 323.391,-59.8923 328.987,-46.5599"/>
<polygon fill="#41ab5d" stroke="#41ab5d" points="332.357,-47.5753 333,-37 325.902,-44.866 332.357,-47.5753"/>
<text text-anchor="start" x="322" y="-64.8" font-family="Times New Roman,serif" font-size="14.00">↘</text>
</g>
<!--  b2 -->
<g id="node9" class="node"><title> b2</title>
<polygon fill="white" stroke="black" stroke-width="2" points="394,-137 340,-137 340,-101 394,-101 394,-137"/>
<text text-anchor="start" x="358.5" y="-115.3" font-family="arial" font-size="14.00" fill="white">b2</text>
</g>
<!--  b2&#45;&gt;d2 -->
<g id="edge6" class="edge"><title> b2&#45;&gt;d2</title>
<path fill="none" stroke="#41ab5d" d="M359.789,-100.822C352.85,-84.2897 342.609,-59.8923 337.013,-46.5599"/>
<polygon fill="#41ab5d" stroke="#41ab5d" points="340.098,-44.866 333,-37 333.643,-47.5753 340.098,-44.866"/>
<text text-anchor="start" x="348" y="-64.8" font-family="Times New Roman,serif" font-size="14.00">↓</text>
</g>
<!--  &#160;a3 -->
<g id="node10" class="node"><title> &#160;a3</title>
<polygon fill="black" stroke="black" stroke-width="2" points="462,-137 408,-137 408,-101 462,-101 462,-137"/>
<text text-anchor="start" x="427" y="-115.3" font-family="arial" font-size="14.00">a3</text>
</g>
<!-- d3 -->
<g id="node11" class="node"><title>d3</title>
<polygon fill="black" stroke="black" stroke-width="2" points="496,-36 442,-36 442,-0 496,-0 496,-36"/>
<text text-anchor="start" x="460.5" y="-14.3" font-family="arial" font-size="14.00">d3</text>
</g>
<!--  &#160;a3&#45;&gt;d3 -->
<g id="edge7" class="edge"><title> &#160;a3&#45;&gt;d3</title>
<path fill="none" stroke="#41ab5d" d="M442.211,-100.822C449.15,-84.2897 459.391,-59.8923 464.987,-46.5599"/>
<polygon fill="#41ab5d" stroke="#41ab5d" points="468.357,-47.5753 469,-37 461.902,-44.866 468.357,-47.5753"/>
<text text-anchor="start" x="458" y="-64.8" font-family="Times New Roman,serif" font-size="14.00">↘</text>
</g>
<!--  b3 -->
<g id="node12" class="node"><title> b3</title>
<polygon fill="black" stroke="black" stroke-width="2" points="530,-137 476,-137 476,-101 530,-101 530,-137"/>
<text text-anchor="start" x="494.5" y="-115.3" font-family="arial" font-size="14.00">b3</text>
</g>
<!--  b3&#45;&gt;d3 -->
<g id="edge8" class="edge"><title> b3&#45;&gt;d3</title>
<path fill="none" stroke="#41ab5d" d="M495.789,-100.822C488.85,-84.2897 478.609,-59.8923 473.013,-46.5599"/>
<polygon fill="#41ab5d" stroke="#41ab5d" points="476.098,-44.866 469,-37 469.643,-47.5753 476.098,-44.866"/>
<text text-anchor="start" x="484" y="-64.8" font-family="Times New Roman,serif" font-size="14.00">↓</text>
</g>
</g>
</svg>
