<?xml version="1.0" encoding="UTF-8" standalone="no"?>
<!DOCTYPE svg PUBLIC "-//W3C//DTD SVG 1.1//EN"
 "http://www.w3.org/Graphics/SVG/1.1/DTD/svg11.dtd">
<!-- Generated by graphviz version 2.38.0 (20140413.2041)
 -->
<!-- Title: foo Pages: 1 -->
<svg width="303pt" height="195pt"
 viewBox="0.00 0.00 303.00 195.00" xmlns="http://www.w3.org/2000/svg" xmlns:xlink="http://www.w3.org/1999/xlink">
<g id="graph0" class="graph" transform="scale(1 1) rotate(0) translate(4 191)">
<title>foo</title>
<g id="a_graph0"><a xlink:title=" ">
<polygon fill="white" stroke="none" points="-4,4 -4,-191 299,-191 299,4 -4,4"/>
</a>
</g>
<!-- day Monday: Voter hears the day&#39;s speeches -->
<g id="node1" class="node"><title>day Monday: Voter hears the day&#39;s speeches</title>
<polygon fill="#efedf5" stroke="#efedf5" stroke-width="2" points="122,-187 6,-187 6,-134 122,-134 122,-187"/>
<text text-anchor="start" x="21.5" y="-171.8" font-family="arial" font-size="14.00">day=Monday:</text>
<text text-anchor="start" x="15.5" y="-156.8" font-family="arial" font-size="14.00">Voter hears the</text>
<text text-anchor="start" x="14" y="-141.8" font-family="arial" font-size="14.00">day&#39;s speeches</text>
</g>
<!-- day Election Thursday: Voter decides to vote for Tory party -->
<g id="node2" class="node"><title>day Election Thursday: Voter decides to vote for Tory party</title>
<polygon fill="#e5f5e0" stroke="#e5f5e0" stroke-width="2" points="295,-127.5 178,-127.5 178,-59.5 295,-59.5 295,-127.5"/>
<text text-anchor="start" x="195.5" y="-112.3" font-family="arial" font-size="14.00">day=Election</text>
<text text-anchor="start" x="186" y="-97.3" font-family="arial" font-size="14.00">Thursday: Voter</text>
<text text-anchor="start" x="187.5" y="-82.3" font-family="arial" font-size="14.00">decides to vote</text>
<text text-anchor="start" x="194" y="-67.3" font-family="arial" font-size="14.00">for Tory party</text>
</g>
<!-- day Monday: Voter hears the day&#39;s speeches&#45;&gt;day Election Thursday: Voter decides to vote for Tory party -->
<g id="edge1" class="edge"><title>day Monday: Voter hears the day&#39;s speeches&#45;&gt;day Election Thursday: Voter decides to vote for Tory party</title>
<path fill="none" stroke="#41ab5d" d="M122.248,-138.004C137.07,-132.179 153.161,-125.856 168.436,-119.854"/>
<polygon fill="#41ab5d" stroke="#41ab5d" points="169.795,-123.08 177.822,-116.165 167.235,-116.565 169.795,-123.08"/>
</g>
<!-- day Tuesday: Voter hears the day&#39;s speeches -->
<g id="node3" class="node"><title>day Tuesday: Voter hears the day&#39;s speeches</title>
<polygon fill="#efedf5" stroke="#efedf5" stroke-width="2" points="122,-120 6,-120 6,-67 122,-67 122,-120"/>
<text text-anchor="start" x="19" y="-104.8" font-family="arial" font-size="14.00">day=Tuesday:</text>
<text text-anchor="start" x="15.5" y="-89.8" font-family="arial" font-size="14.00">Voter hears the</text>
<text text-anchor="start" x="14" y="-74.8" font-family="arial" font-size="14.00">day&#39;s speeches</text>
</g>
<!-- day Tuesday: Voter hears the day&#39;s speeches&#45;&gt;day Election Thursday: Voter decides to vote for Tory party -->
<g id="edge2" class="edge"><title>day Tuesday: Voter hears the day&#39;s speeches&#45;&gt;day Election Thursday: Voter decides to vote for Tory party</title>
<path fill="none" stroke="#41ab5d" d="M122.248,-93.5C136.79,-93.5 152.554,-93.5 167.57,-93.5"/>
<polygon fill="#41ab5d" stroke="#41ab5d" points="167.822,-97.0001 177.822,-93.5 167.822,-90.0001 167.822,-97.0001"/>
</g>
<!-- day Wednesday: Voter hears the day&#39;s speeches -->
<g id="node4" class="node"><title>day Wednesday: Voter hears the day&#39;s speeches</title>
<polygon fill="#efedf5" stroke="#efedf5" stroke-width="2" points="128,-53 0,-53 0,-0 128,-0 128,-53"/>
<text text-anchor="start" x="8" y="-37.8" font-family="arial" font-size="14.00">day=Wednesday:</text>
<text text-anchor="start" x="15.5" y="-22.8" font-family="arial" font-size="14.00">Voter hears the</text>
<text text-anchor="start" x="14" y="-7.8" font-family="arial" font-size="14.00">day&#39;s speeches</text>
</g>
<!-- day Wednesday: Voter hears the day&#39;s speeches&#45;&gt;day Election Thursday: Voter decides to vote for Tory party -->
<g id="edge3" class="edge"><title>day Wednesday: Voter hears the day&#39;s speeches&#45;&gt;day Election Thursday: Voter decides to vote for Tory party</title>
<path fill="none" stroke="#41ab5d" d="M128.003,-51.258C141.133,-56.4173 155.019,-61.8741 168.294,-67.0906"/>
<polygon fill="#41ab5d" stroke="#41ab5d" points="167.245,-70.4388 177.832,-70.8388 169.805,-63.9238 167.245,-70.4388"/>
</g>
</g>
</svg>
