<?xml version="1.0" encoding="UTF-8" standalone="no"?>
<!DOCTYPE svg PUBLIC "-//W3C//DTD SVG 1.1//EN"
 "http://www.w3.org/Graphics/SVG/1.1/DTD/svg11.dtd">
<!-- Generated by graphviz version 2.38.0 (20140413.2041)
 -->
<!-- Title: foo Pages: 1 -->
<svg width="237pt" height="134pt"
 viewBox="0.00 0.00 237.00 133.50" xmlns="http://www.w3.org/2000/svg" xmlns:xlink="http://www.w3.org/1999/xlink">
<g id="graph0" class="graph" transform="scale(1 1) rotate(0) translate(4 129.5)">
<title>foo</title>
<g id="a_graph0"><a xlink:title=" ">
<polygon fill="#d9d9d9" stroke="none" points="-4,4 -4,-129.5 233,-129.5 233,4 -4,4"/>
<text text-anchor="start" x="72" y="-7.2" font-family="tahoma" font-size="11.00" fill="#525252">This is misleading</text>
</a>
</g>
<!-- axsxdf -->
<!-- Subjective temperature -->
<g id="node2" class="node"><title>Subjective temperature</title>
<polygon fill="#fee6ce" stroke="#fee6ce" points="229,-84 136,-84 136,-46 229,-46 229,-84"/>
<text text-anchor="start" x="149" y="-68.8" font-family="Helvetica,sans-Serif" font-size="14.00">Subjective</text>
<text text-anchor="start" x="144" y="-53.8" font-family="Helvetica,sans-Serif" font-size="14.00">temperature</text>
</g>
<!-- axsxdf&#45;&gt;Subjective temperature -->
<g id="edge1" class="edge"><title>axsxdf&#45;&gt;Subjective temperature</title>
<path fill="none" stroke="#737373" stroke-width="0" d="M49.5807,-124.493C57.766,-123.626 73.4192,-121.499 86,-117 105.648,-109.974 126.133,-99.3215 143.068,-89.4836"/>
<polygon fill="#737373" stroke="#737373" stroke-width="0" points="145.273,-92.2453 152.084,-84.1302 141.699,-86.2263 145.273,-92.2453"/>
</g>
<!-- Strength of sunshine -->
<g id="node3" class="node"><title>Strength of sunshine</title>
<polygon fill="#fee6ce" stroke="#fee6ce" points="86,-110 0,-110 0,-72 86,-72 86,-110"/>
<text text-anchor="start" x="8" y="-94.8" font-family="Helvetica,sans-Serif" font-size="14.00">Strength of</text>
<text text-anchor="start" x="14.5" y="-79.8" font-family="Helvetica,sans-Serif" font-size="14.00">sunshine</text>
</g>
<!-- Strength of sunshine&#45;&gt;Subjective temperature -->
<g id="edge2" class="edge"><title>Strength of sunshine&#45;&gt;Subjective temperature</title>
<path fill="none" stroke="#737373" stroke-width="2" d="M86.0017,-83.0579C98.5886,-80.6778 112.593,-78.0297 125.912,-75.5112"/>
<polygon fill="#737373" stroke="#737373" stroke-width="2" points="126.754,-78.9141 135.929,-73.617 125.453,-72.036 126.754,-78.9141"/>
</g>
<!-- Strength of wind -->
<g id="node4" class="node"><title>Strength of wind</title>
<polygon fill="#fee6ce" stroke="#fee6ce" points="86,-58 0,-58 0,-20 86,-20 86,-58"/>
<text text-anchor="start" x="8" y="-42.8" font-family="Helvetica,sans-Serif" font-size="14.00">Strength of</text>
<text text-anchor="start" x="28.5" y="-27.8" font-family="Helvetica,sans-Serif" font-size="14.00">wind</text>
</g>
<!-- Strength of wind&#45;&gt;Subjective temperature -->
<g id="edge3" class="edge"><title>Strength of wind&#45;&gt;Subjective temperature</title>
<path fill="none" stroke="#737373" stroke-width="2" d="M86.0017,-46.9421C98.5886,-49.3222 112.593,-51.9703 125.912,-54.4888"/>
<polygon fill="#737373" stroke="#737373" stroke-width="2" points="125.453,-57.964 135.929,-56.383 126.754,-51.0859 125.453,-57.964"/>
</g>
</g>
</svg>
