<?xml version="1.0" encoding="UTF-8" standalone="no"?>
<!DOCTYPE svg PUBLIC "-//W3C//DTD SVG 1.1//EN"
 "http://www.w3.org/Graphics/SVG/1.1/DTD/svg11.dtd">
<!-- Generated by graphviz version 2.38.0 (20140413.2041)
 -->
<!-- Title: foo Pages: 1 -->
<svg width="430pt" height="46pt"
 viewBox="0.00 0.00 430.00 46.00" xmlns="http://www.w3.org/2000/svg" xmlns:xlink="http://www.w3.org/1999/xlink">
<g id="graph0" class="graph" transform="scale(1 1) rotate(0) translate(4 42)">
<title>foo</title>
<g id="a_graph0"><a xlink:title=" ">
<polygon fill="white" stroke="none" points="-4,4 -4,-42 426,-42 426,4 -4,4"/>
</a>
</g>
<!-- ~ Teachers complete creativity training -->
<g id="node1" class="node"><title>~ Teachers complete creativity training</title>
<polygon fill="#e5f5e0" stroke="#e5f5e0" stroke-width="2" points="210,-38 0,-38 0,-0 210,-0 210,-38"/>
<text text-anchor="start" x="8" y="-22.8" font-family="arial" font-size="14.00">~ Teachers complete creativity</text>
<text text-anchor="start" x="82" y="-7.8" font-family="arial" font-size="14.00">training</text>
</g>
<!-- ~ Improved creativity in students (Delay: ??) -->
<g id="node2" class="node"><title>~ Improved creativity in students (Delay: ??)</title>
<polygon fill="#e5f5e0" stroke="#e5f5e0" stroke-width="2" points="422,-38 260,-38 260,-0 422,-0 422,-38"/>
<text text-anchor="start" x="268" y="-22.8" font-family="arial" font-size="14.00">~ Improved creativity in</text>
<text text-anchor="start" x="277.5" y="-7.8" font-family="arial" font-size="14.00">students (Delay: ??)</text>
</g>
<!-- ~ Teachers complete creativity training&#45;&gt;~ Improved creativity in students (Delay: ??) -->
<g id="edge1" class="edge"><title>~ Teachers complete creativity training&#45;&gt;~ Improved creativity in students (Delay: ??)</title>
<path fill="none" stroke="#41ab5d" d="M210.339,-19C223.418,-19 236.71,-19 249.552,-19"/>
<polygon fill="#41ab5d" stroke="#41ab5d" points="249.742,-22.5001 259.742,-19 249.742,-15.5001 249.742,-22.5001"/>
</g>
</g>
</svg>
