<?xml version="1.0" encoding="UTF-8" standalone="no"?>
<!DOCTYPE svg PUBLIC "-//W3C//DTD SVG 1.1//EN"
 "http://www.w3.org/Graphics/SVG/1.1/DTD/svg11.dtd">
<!-- Generated by graphviz version 2.38.0 (20140413.2041)
 -->
<!-- Title: foo Pages: 1 -->
<svg width="266pt" height="134pt"
 viewBox="0.00 0.00 266.00 133.50" xmlns="http://www.w3.org/2000/svg" xmlns:xlink="http://www.w3.org/1999/xlink">
<g id="graph0" class="graph" transform="scale(1 1) rotate(0) translate(4 129.5)">
<title>foo</title>
<g id="a_graph0"><a xlink:title=" ">
<polygon fill="#c7e9c0" stroke="none" points="-4,4 -4,-129.5 262,-129.5 262,4 -4,4"/>
<text text-anchor="start" x="91" y="-7.2" font-family="tahoma" font-size="11.00" fill="#238b45">Try this instead</text>
</a>
</g>
<!-- axsxdf -->
<!-- Subjective temperature -->
<g id="node2" class="node"><title>Subjective temperature</title>
<polygon fill="#f7fcf5" stroke="#f7fcf5" points="258,-84 165,-84 165,-46 258,-46 258,-84"/>
<text text-anchor="start" x="178" y="-68.8" font-family="Helvetica,sans-Serif" font-size="14.00" fill="#006d2c">Subjective</text>
<text text-anchor="start" x="173" y="-53.8" font-family="Helvetica,sans-Serif" font-size="14.00" fill="#006d2c">temperature</text>
</g>
<!-- axsxdf&#45;&gt;Subjective temperature -->
<g id="edge1" class="edge"><title>axsxdf&#45;&gt;Subjective temperature</title>
<path fill="none" stroke="#41ab5d" stroke-width="0" d="M48.2422,-124.488C55.9003,-123.5 72.4935,-121.059 86,-117 111.518,-109.331 138.939,-98.2111 161.534,-88.2206"/>
<polygon fill="#41ab5d" stroke="#41ab5d" stroke-width="0" points="163.209,-91.3054 170.903,-84.0214 160.346,-84.9177 163.209,-91.3054"/>
</g>
<!-- Strength of sunshine -->
<g id="node3" class="node"><title>Strength of sunshine</title>
<polygon fill="#f7fcf5" stroke="#f7fcf5" points="86,-110 0,-110 0,-72 86,-72 86,-110"/>
<text text-anchor="start" x="8" y="-94.8" font-family="Helvetica,sans-Serif" font-size="14.00" fill="#006d2c">Strength of</text>
<text text-anchor="start" x="14.5" y="-79.8" font-family="Helvetica,sans-Serif" font-size="14.00" fill="#006d2c">sunshine</text>
</g>
<!-- Strength of sunshine&#45;&gt;Subjective temperature -->
<g id="edge2" class="edge"><title>Strength of sunshine&#45;&gt;Subjective temperature</title>
<path fill="none" stroke="#41ab5d" stroke-width="2" d="M86.015,-84.4391C106.9,-81.1777 132.418,-77.193 154.901,-73.6822"/>
<polygon fill="#41ab5d" stroke="#41ab5d" stroke-width="2" points="155.649,-77.1078 164.989,-72.1068 154.569,-70.1916 155.649,-77.1078"/>
</g>
<!-- Strength of wind -->
<g id="node4" class="node"><title>Strength of wind</title>
<polygon fill="#f7fcf5" stroke="#f7fcf5" points="86,-58 0,-58 0,-20 86,-20 86,-58"/>
<text text-anchor="start" x="8" y="-42.8" font-family="Helvetica,sans-Serif" font-size="14.00" fill="#006d2c">Strength of</text>
<text text-anchor="start" x="28.5" y="-27.8" font-family="Helvetica,sans-Serif" font-size="14.00" fill="#006d2c">wind</text>
</g>
<!-- Strength of wind&#45;&gt;Subjective temperature -->
<g id="edge3" class="edge"><title>Strength of wind&#45;&gt;Subjective temperature</title>
<path fill="none" stroke="#41ab5d" stroke-width="2" d="M86.015,-45.5609C106.9,-48.8223 132.418,-52.807 154.901,-56.3178"/>
<polygon fill="#41ab5d" stroke="#41ab5d" stroke-width="2" points="154.569,-59.8084 164.989,-57.8932 155.649,-52.8922 154.569,-59.8084"/>
<text text-anchor="start" x="111" y="-57.8" font-family="Helvetica,sans-Serif" font-size="14.00" fill="#cd5c5c">!narr</text>
</g>
</g>
</svg>
