<?xml version="1.0" encoding="UTF-8" standalone="no"?>
<!DOCTYPE svg PUBLIC "-//W3C//DTD SVG 1.1//EN"
 "http://www.w3.org/Graphics/SVG/1.1/DTD/svg11.dtd">
<!-- Generated by graphviz version 2.38.0 (20140413.2041)
 -->
<!-- Title: foo Pages: 1 -->
<svg width="537pt" height="280pt"
 viewBox="0.00 0.00 537.00 280.00" xmlns="http://www.w3.org/2000/svg" xmlns:xlink="http://www.w3.org/1999/xlink">
<g id="graph0" class="graph" transform="scale(1 1) rotate(0) translate(4 276)">
<title>foo</title>
<g id="a_graph0"><a xlink:title=" ">
<polygon fill="#c7e9c0" stroke="none" points="-4,4 -4,-276 533,-276 533,4 -4,4"/>
<text text-anchor="start" x="226.5" y="-7.2" font-family="tahoma" font-size="11.00" fill="#238b45">Try this instead</text>
</a>
</g>
<!-- improved student classwork -->
<g id="node1" class="node"><title>improved student classwork</title>
<polygon fill="#f7fcf5" stroke="#f7fcf5" points="236,-122 157,-122 157,-69 236,-69 236,-122"/>
<text text-anchor="start" x="166.5" y="-106.8" font-family="Helvetica,sans-Serif" font-size="14.00" fill="#006d2c">improved</text>
<text text-anchor="start" x="173" y="-91.8" font-family="Helvetica,sans-Serif" font-size="14.00" fill="#006d2c">student</text>
<text text-anchor="start" x="165" y="-76.8" font-family="Helvetica,sans-Serif" font-size="14.00" fill="#006d2c">classwork</text>
</g>
<!-- improved student exam results -->
<g id="node2" class="node"><title>improved student exam results</title>
<polygon fill="#f7fcf5" stroke="#f7fcf5" points="382,-204.5 306,-204.5 306,-136.5 382,-136.5 382,-204.5"/>
<text text-anchor="start" x="314" y="-189.3" font-family="Helvetica,sans-Serif" font-size="14.00" fill="#006d2c">improved</text>
<text text-anchor="start" x="320.5" y="-174.3" font-family="Helvetica,sans-Serif" font-size="14.00" fill="#006d2c">student</text>
<text text-anchor="start" x="326.5" y="-159.3" font-family="Helvetica,sans-Serif" font-size="14.00" fill="#006d2c">exam</text>
<text text-anchor="start" x="322.5" y="-144.3" font-family="Helvetica,sans-Serif" font-size="14.00" fill="#006d2c">results</text>
</g>
<!-- improved student classwork&#45;&gt;improved student exam results -->
<g id="edge1" class="edge"><title>improved student classwork&#45;&gt;improved student exam results</title>
<path fill="none" stroke="#41ab5d" stroke-width="2" d="M236.109,-115.402C254.715,-124.992 277.174,-136.569 296.693,-146.631"/>
<polygon fill="#41ab5d" stroke="#41ab5d" stroke-width="2" points="295.227,-149.812 305.719,-151.283 298.434,-143.59 295.227,-149.812"/>
</g>
<!-- improved student employment prospects -->
<g id="node8" class="node"><title>improved student employment prospects</title>
<polygon fill="#f7fcf5" stroke="#f7fcf5" points="529,-204.5 434,-204.5 434,-136.5 529,-136.5 529,-204.5"/>
<text text-anchor="start" x="451.5" y="-189.3" font-family="Helvetica,sans-Serif" font-size="14.00" fill="#006d2c">improved</text>
<text text-anchor="start" x="458" y="-174.3" font-family="Helvetica,sans-Serif" font-size="14.00" fill="#006d2c">student</text>
<text text-anchor="start" x="442" y="-159.3" font-family="Helvetica,sans-Serif" font-size="14.00" fill="#006d2c">employment</text>
<text text-anchor="start" x="449.5" y="-144.3" font-family="Helvetica,sans-Serif" font-size="14.00" fill="#006d2c">prospects</text>
</g>
<!-- improved student exam results&#45;&gt;improved student employment prospects -->
<g id="edge11" class="edge"><title>improved student exam results&#45;&gt;improved student employment prospects</title>
<path fill="none" stroke="#41ab5d" stroke-width="2" d="M382.026,-170.5C394.889,-170.5 409.626,-170.5 423.714,-170.5"/>
<polygon fill="#41ab5d" stroke="#41ab5d" stroke-width="2" points="423.821,-174 433.821,-170.5 423.821,-167 423.821,-174"/>
</g>
<!-- student workshop 1 held -->
<g id="node3" class="node"><title>student workshop 1 held</title>
<polygon fill="#f7fcf5" stroke="#f7fcf5" points="89,-140 0,-140 0,-87 89,-87 89,-140"/>
<text text-anchor="start" x="21" y="-124.8" font-family="Helvetica,sans-Serif" font-size="14.00" fill="#006d2c">student</text>
<text text-anchor="start" x="8" y="-109.8" font-family="Helvetica,sans-Serif" font-size="14.00" fill="#006d2c">workshop 1</text>
<text text-anchor="start" x="30.5" y="-94.8" font-family="Helvetica,sans-Serif" font-size="14.00" fill="#006d2c">held</text>
</g>
<!-- student workshop 1 held&#45;&gt;improved student classwork -->
<g id="edge2" class="edge"><title>student workshop 1 held&#45;&gt;improved student classwork</title>
<path fill="none" stroke="#41ab5d" stroke-width="2" d="M89.2894,-108.245C107.311,-106.083 128.259,-103.569 146.765,-101.348"/>
<polygon fill="#41ab5d" stroke="#41ab5d" stroke-width="2" points="147.249,-104.815 156.761,-100.149 146.415,-97.8652 147.249,-104.815"/>
</g>
<!-- students receive laptops -->
<g id="node4" class="node"><title>students receive laptops</title>
<polygon fill="#f7fcf5" stroke="#f7fcf5" points="80,-73 9,-73 9,-20 80,-20 80,-73"/>
<text text-anchor="start" x="17" y="-57.8" font-family="Helvetica,sans-Serif" font-size="14.00" fill="#006d2c">students</text>
<text text-anchor="start" x="21" y="-42.8" font-family="Helvetica,sans-Serif" font-size="14.00" fill="#006d2c">receive</text>
<text text-anchor="start" x="21" y="-27.8" font-family="Helvetica,sans-Serif" font-size="14.00" fill="#006d2c">laptops</text>
</g>
<!-- students receive laptops&#45;&gt;improved student classwork -->
<g id="edge3" class="edge"><title>students receive laptops&#45;&gt;improved student classwork</title>
<path fill="none" stroke="#41ab5d" stroke-width="2" d="M80.29,-57.8647C100.179,-64.3617 125.423,-72.6083 147.21,-79.7251"/>
<polygon fill="#41ab5d" stroke="#41ab5d" stroke-width="2" points="146.352,-83.1269 156.944,-82.9052 148.526,-76.4729 146.352,-83.1269"/>
</g>
<!-- students more able to write good CV -->
<g id="node9" class="node"><title>students more able to write good CV</title>
<polygon fill="#f7fcf5" stroke="#f7fcf5" points="384,-101.5 304,-101.5 304,-33.5 384,-33.5 384,-101.5"/>
<text text-anchor="start" x="316.5" y="-86.3" font-family="Helvetica,sans-Serif" font-size="14.00" fill="#006d2c">students</text>
<text text-anchor="start" x="312" y="-71.3" font-family="Helvetica,sans-Serif" font-size="14.00" fill="#006d2c">more able</text>
<text text-anchor="start" x="321" y="-56.3" font-family="Helvetica,sans-Serif" font-size="14.00" fill="#006d2c">to write</text>
<text text-anchor="start" x="315" y="-41.3" font-family="Helvetica,sans-Serif" font-size="14.00" fill="#006d2c">good CV</text>
</g>
<!-- students receive laptops&#45;&gt;students more able to write good CV -->
<g id="edge10" class="edge"><title>students receive laptops&#45;&gt;students more able to write good CV</title>
<path fill="none" stroke="#41ab5d" stroke-width="2" d="M80.2093,-48.9501C132.951,-52.673 233.494,-59.7702 293.767,-64.0247"/>
<polygon fill="#41ab5d" stroke="#41ab5d" stroke-width="2" points="293.584,-67.5205 303.806,-64.7334 294.077,-60.5378 293.584,-67.5205"/>
</g>
<!-- improved student exam skills -->
<g id="node5" class="node"><title>improved student exam skills</title>
<polygon fill="#f7fcf5" stroke="#f7fcf5" points="234.5,-204.5 158.5,-204.5 158.5,-136.5 234.5,-136.5 234.5,-204.5"/>
<text text-anchor="start" x="166.5" y="-189.3" font-family="Helvetica,sans-Serif" font-size="14.00" fill="#006d2c">improved</text>
<text text-anchor="start" x="173" y="-174.3" font-family="Helvetica,sans-Serif" font-size="14.00" fill="#006d2c">student</text>
<text text-anchor="start" x="179" y="-159.3" font-family="Helvetica,sans-Serif" font-size="14.00" fill="#006d2c">exam</text>
<text text-anchor="start" x="181" y="-144.3" font-family="Helvetica,sans-Serif" font-size="14.00" fill="#006d2c">skills</text>
</g>
<!-- improved student exam skills&#45;&gt;improved student exam results -->
<g id="edge4" class="edge"><title>improved student exam skills&#45;&gt;improved student exam results</title>
<path fill="none" stroke="#41ab5d" stroke-width="2" d="M234.592,-170.5C253.234,-170.5 276.025,-170.5 295.891,-170.5"/>
<polygon fill="#41ab5d" stroke="#41ab5d" stroke-width="2" points="295.976,-174 305.975,-170.5 295.975,-167 295.976,-174"/>
</g>
<!-- student workshop 2 held -->
<g id="node6" class="node"><title>student workshop 2 held</title>
<polygon fill="#f7fcf5" stroke="#f7fcf5" points="89,-239 0,-239 0,-186 89,-186 89,-239"/>
<text text-anchor="start" x="21" y="-223.8" font-family="Helvetica,sans-Serif" font-size="14.00" fill="#006d2c">student</text>
<text text-anchor="start" x="8" y="-208.8" font-family="Helvetica,sans-Serif" font-size="14.00" fill="#006d2c">workshop 2</text>
<text text-anchor="start" x="30.5" y="-193.8" font-family="Helvetica,sans-Serif" font-size="14.00" fill="#006d2c">held</text>
</g>
<!-- student workshop 2 held&#45;&gt;improved student exam skills -->
<g id="edge5" class="edge"><title>student workshop 2 held&#45;&gt;improved student exam skills</title>
<path fill="none" stroke="#41ab5d" stroke-width="2" d="M89.2894,-200.239C107.761,-195.067 129.307,-189.034 148.146,-183.759"/>
<polygon fill="#41ab5d" stroke="#41ab5d" stroke-width="2" points="149.323,-187.064 158.008,-180.998 147.435,-180.324 149.323,-187.064"/>
</g>
<!-- improved student self&#45;confidence -->
<g id="node7" class="node"><title>improved student self&#45;confidence</title>
<polygon fill="#f7fcf5" stroke="#f7fcf5" points="254,-272 139,-272 139,-219 254,-219 254,-272"/>
<text text-anchor="start" x="166.5" y="-256.8" font-family="Helvetica,sans-Serif" font-size="14.00" fill="#006d2c">improved</text>
<text text-anchor="start" x="173" y="-241.8" font-family="Helvetica,sans-Serif" font-size="14.00" fill="#006d2c">student</text>
<text text-anchor="start" x="147" y="-226.8" font-family="Helvetica,sans-Serif" font-size="14.00" fill="#006d2c">self&#45;confidence</text>
</g>
<!-- student workshop 2 held&#45;&gt;improved student self&#45;confidence -->
<g id="edge7" class="edge"><title>student workshop 2 held&#45;&gt;improved student self&#45;confidence</title>
<path fill="none" stroke="#41ab5d" stroke-width="2" d="M89.2894,-222.134C101.624,-224.847 115.33,-227.863 128.685,-230.801"/>
<polygon fill="#41ab5d" stroke="#41ab5d" stroke-width="2" points="128.282,-234.296 138.801,-233.026 129.786,-227.459 128.282,-234.296"/>
</g>
<!-- improved student self&#45;confidence&#45;&gt;improved student exam results -->
<g id="edge6" class="edge"><title>improved student self&#45;confidence&#45;&gt;improved student exam results</title>
<path fill="none" stroke="#41ab5d" stroke-width="2" d="M249.208,-218.847C264.63,-210.897 281.433,-202.236 296.501,-194.469"/>
<polygon fill="#41ab5d" stroke="#41ab5d" stroke-width="2" points="298.346,-197.455 305.631,-189.763 295.138,-191.233 298.346,-197.455"/>
</g>
<!-- improved student self&#45;confidence&#45;&gt;improved student employment prospects -->
<g id="edge8" class="edge"><title>improved student self&#45;confidence&#45;&gt;improved student employment prospects</title>
<path fill="none" stroke="#41ab5d" stroke-width="2" d="M254.168,-238.498C291.534,-233.072 341.28,-224.297 384,-211.5 397.33,-207.507 411.304,-202.243 424.349,-196.823"/>
<polygon fill="#41ab5d" stroke="#41ab5d" stroke-width="2" points="425.827,-199.997 433.66,-192.864 423.088,-193.555 425.827,-199.997"/>
</g>
<!-- students more able to write good CV&#45;&gt;improved student employment prospects -->
<g id="edge9" class="edge"><title>students more able to write good CV&#45;&gt;improved student employment prospects</title>
<path fill="none" stroke="#41ab5d" stroke-width="2" d="M384.192,-97.2919C397.652,-107.523 412.952,-119.153 427.332,-130.084"/>
<polygon fill="#41ab5d" stroke="#41ab5d" stroke-width="2" points="425.592,-133.159 435.672,-136.424 429.829,-127.586 425.592,-133.159"/>
</g>
</g>
</svg>
