<?xml version="1.0" encoding="UTF-8" standalone="no"?>
<!DOCTYPE svg PUBLIC "-//W3C//DTD SVG 1.1//EN"
 "http://www.w3.org/Graphics/SVG/1.1/DTD/svg11.dtd">
<!-- Generated by graphviz version 2.38.0 (20140413.2041)
 -->
<!-- Title: foo Pages: 1 -->
<svg width="656pt" height="182pt"
 viewBox="0.00 0.00 656.00 182.00" xmlns="http://www.w3.org/2000/svg" xmlns:xlink="http://www.w3.org/1999/xlink">
<g id="graph0" class="graph" transform="scale(1 1) rotate(0) translate(4 178)">
<title>foo</title>
<g id="a_graph0"><a xlink:title=" ">
<polygon fill="white" stroke="none" points="-4,4 -4,-178 652,-178 652,4 -4,4"/>
</a>
</g>
<g id="clust1" class="cluster"><title>cluster_Teachingsubproject</title>
<g id="a_clust1"><a xlink:title=" ">
<path fill="#fcfbfd" stroke="#dadaeb" d="M20,-8C20,-8 375,-8 375,-8 381,-8 387,-14 387,-20 387,-20 387,-71 387,-71 387,-77 381,-83 375,-83 375,-83 20,-83 20,-83 14,-83 8,-77 8,-71 8,-71 8,-20 8,-20 8,-14 14,-8 20,-8"/>
<text text-anchor="start" x="16" y="-67.8" font-family="arial" font-size="14.00">Teaching sub&#45;project</text>
</a>
</g>
</g>
<g id="clust2" class="cluster"><title>cluster_Anxietyreductionsubproject</title>
<g id="a_clust2"><a xlink:title=" ">
<path fill="#fcfbfd" stroke="#dadaeb" d="M23.5,-91C23.5,-91 371.5,-91 371.5,-91 377.5,-91 383.5,-97 383.5,-103 383.5,-103 383.5,-154 383.5,-154 383.5,-160 377.5,-166 371.5,-166 371.5,-166 23.5,-166 23.5,-166 17.5,-166 11.5,-160 11.5,-154 11.5,-154 11.5,-103 11.5,-103 11.5,-97 17.5,-91 23.5,-91"/>
<text text-anchor="start" x="19.5" y="-150.8" font-family="arial" font-size="14.00">Anxiety reduction sub&#45;project</text>
</a>
</g>
</g>
<!-- ((Increased)) &#160;subject knowledge -->
<g id="node1" class="node"><title>((Increased)) &#160;subject knowledge</title>
<polygon fill="#e5f5e0" stroke="#e5f5e0" stroke-width="2" points="379,-52 231,-52 231,-16 379,-16 379,-52"/>
<text text-anchor="start" x="239" y="-37.8" font-family="arial" font-size="14.00" fill="green">((Increased))</text>
<text text-anchor="start" x="321" y="-37.8" font-family="arial" font-size="14.00"> subject</text>
<text text-anchor="start" x="270.5" y="-23.8" font-family="arial" font-size="14.00">knowledge</text>
</g>
<!-- ((Improved)) &#160;exam performance -->
<g id="node2" class="node"><title>((Improved)) &#160;exam performance</title>
<polygon fill="#e5f5e0" stroke="#e5f5e0" stroke-width="2" points="648,-93 429,-93 429,-57 648,-57 648,-93"/>
<text text-anchor="start" x="437" y="-72.3" font-family="arial" font-size="14.00" fill="green">((Improved))</text>
<text text-anchor="start" x="516" y="-72.3" font-family="arial" font-size="14.00"> exam performance</text>
</g>
<!-- ((Increased)) &#160;subject knowledge&#45;&gt;((Improved)) &#160;exam performance -->
<g id="edge1" class="edge"><title>((Increased)) &#160;subject knowledge&#45;&gt;((Improved)) &#160;exam performance</title>
<path fill="none" stroke="#41ab5d" d="M379.248,-46.9727C393.918,-49.5707 409.645,-52.3561 425.286,-55.1262"/>
<polygon fill="#41ab5d" stroke="#41ab5d" points="425.082,-58.6446 435.54,-56.9422 426.303,-51.7519 425.082,-58.6446"/>
</g>
<!-- !do teaching intervention -->
<g id="node3" class="node"><title>!do teaching intervention</title>
<polygon fill="#e5f5e0" stroke="#e5f5e0" stroke-width="2" points="181,-52 16,-52 16,-16 181,-16 181,-52"/>
<text text-anchor="start" x="24" y="-31.3" font-family="arial" font-size="14.00" fill="green">▶ </text>
<text text-anchor="start" x="40" y="-31.3" font-family="arial" font-size="14.00"> teaching intervention</text>
</g>
<!-- !do teaching intervention&#45;&gt;((Increased)) &#160;subject knowledge -->
<g id="edge2" class="edge"><title>!do teaching intervention&#45;&gt;((Increased)) &#160;subject knowledge</title>
<path fill="none" stroke="#41ab5d" d="M181.205,-34C194.11,-34 207.47,-34 220.416,-34"/>
<polygon fill="#41ab5d" stroke="#41ab5d" points="220.694,-37.5001 230.694,-34 220.694,-30.5001 220.694,-37.5001"/>
</g>
<!-- ((Reduced)) &#160;anxiety -->
<g id="node4" class="node"><title>((Reduced)) &#160;anxiety</title>
<polygon fill="#e5f5e0" stroke="#e5f5e0" stroke-width="2" points="375.5,-135 234.5,-135 234.5,-99 375.5,-99 375.5,-135"/>
<text text-anchor="start" x="242.5" y="-114.3" font-family="arial" font-size="14.00" fill="green">((Reduced))</text>
<text text-anchor="start" x="319.5" y="-114.3" font-family="arial" font-size="14.00"> anxiety</text>
</g>
<!-- ((Reduced)) &#160;anxiety&#45;&gt;((Improved)) &#160;exam performance -->
<g id="edge3" class="edge"><title>((Reduced)) &#160;anxiety&#45;&gt;((Improved)) &#160;exam performance</title>
<path fill="none" stroke="#41ab5d" d="M375.772,-104.342C392.284,-101.346 410.287,-98.0796 428.09,-94.8498"/>
<polygon fill="#41ab5d" stroke="#41ab5d" points="428.734,-98.2901 437.949,-93.0611 427.485,-91.4025 428.734,-98.2901"/>
</g>
<!-- !do Anxiety intervention -->
<g id="node5" class="node"><title>!do Anxiety intervention</title>
<polygon fill="#e5f5e0" stroke="#e5f5e0" stroke-width="2" points="177.5,-135 19.5,-135 19.5,-99 177.5,-99 177.5,-135"/>
<text text-anchor="start" x="27.5" y="-114.3" font-family="arial" font-size="14.00" fill="green">▶ </text>
<text text-anchor="start" x="43.5" y="-114.3" font-family="arial" font-size="14.00"> Anxiety intervention</text>
</g>
<!-- !do Anxiety intervention&#45;&gt;((Reduced)) &#160;anxiety -->
<g id="edge4" class="edge"><title>!do Anxiety intervention&#45;&gt;((Reduced)) &#160;anxiety</title>
<path fill="none" stroke="#41ab5d" d="M177.688,-117C192.804,-117 208.665,-117 223.843,-117"/>
<polygon fill="#41ab5d" stroke="#41ab5d" points="224.224,-120.5 234.224,-117 224.224,-113.5 224.224,-120.5"/>
</g>
</g>
</svg>
