<?xml version="1.0" encoding="UTF-8" standalone="no"?>
<!DOCTYPE svg PUBLIC "-//W3C//DTD SVG 1.1//EN"
 "http://www.w3.org/Graphics/SVG/1.1/DTD/svg11.dtd">
<!-- Generated by graphviz version 2.38.0 (20140413.2041)
 -->
<!-- Title: foo Pages: 1 -->
<svg width="476pt" height="91pt"
 viewBox="0.00 0.00 476.00 90.50" xmlns="http://www.w3.org/2000/svg" xmlns:xlink="http://www.w3.org/1999/xlink">
<g id="graph0" class="graph" transform="scale(1 1) rotate(0) translate(4 86.5)">
<title>foo</title>
<g id="a_graph0"><a xlink:title=" ">
<polygon fill="white" stroke="none" points="-4,4 -4,-86.5 472,-86.5 472,4 -4,4"/>
</a>
</g>
<!-- Legislators have more favourable views -->
<g id="node1" class="node"><title>Legislators have more favourable views</title>
<polygon fill="#e5f5e0" stroke="#e5f5e0" stroke-width="2" points="339,-68 253,-68 253,-0 339,-0 339,-68"/>
<text text-anchor="start" x="261" y="-52.8" font-family="arial" font-size="14.00">Legislators</text>
<text text-anchor="start" x="262.5" y="-37.8" font-family="arial" font-size="14.00">have more</text>
<text text-anchor="start" x="262.5" y="-22.8" font-family="arial" font-size="14.00">favourable</text>
<text text-anchor="start" x="278" y="-7.8" font-family="arial" font-size="14.00">views</text>
</g>
<!-- Law on same&#45;sex marriage is passed -->
<g id="node2" class="node"><title>Law on same&#45;sex marriage is passed</title>
<polygon fill="#e5f5e0" stroke="#e5f5e0" stroke-width="2" points="468,-68 389,-68 389,-0 468,-0 468,-68"/>
<text text-anchor="start" x="405.5" y="-52.8" font-family="arial" font-size="14.00">Law on</text>
<text text-anchor="start" x="397" y="-37.8" font-family="arial" font-size="14.00">same&#45;sex</text>
<text text-anchor="start" x="400.5" y="-22.8" font-family="arial" font-size="14.00">marriage</text>
<text text-anchor="start" x="397.5" y="-7.8" font-family="arial" font-size="14.00">is passed</text>
</g>
<!-- Legislators have more favourable views&#45;&gt;Law on same&#45;sex marriage is passed -->
<g id="edge1" class="edge"><title>Legislators have more favourable views&#45;&gt;Law on same&#45;sex marriage is passed</title>
<path fill="none" stroke="#41ab5d" d="M339.009,-34C351.591,-34 365.499,-34 378.49,-34"/>
<polygon fill="#41ab5d" stroke="#41ab5d" points="378.669,-37.5001 388.669,-34 378.669,-30.5001 378.669,-37.5001"/>
</g>
<!-- axsxdf -->
<!-- axsxdf&#45;&gt;Legislators have more favourable views -->
<g id="edge2" class="edge"><title>axsxdf&#45;&gt;Legislators have more favourable views</title>
<path fill="none" stroke="#41ab5d" stroke-width="0" d="M66.0009,-81.6226C98.4343,-80.6931 155.417,-77.5447 203,-67 216.202,-64.0744 230.099,-59.7727 242.979,-55.2349"/>
<polygon fill="#41ab5d" stroke="#41ab5d" stroke-width="0" points="244.399,-58.4429 252.603,-51.7378 242.008,-51.8638 244.399,-58.4429"/>
</g>
<!-- Public opinion improves -->
<g id="node4" class="node"><title>Public opinion improves</title>
<polygon fill="#e5f5e0" stroke="#e5f5e0" stroke-width="2" points="203,-60.5 128,-60.5 128,-7.5 203,-7.5 203,-60.5"/>
<text text-anchor="start" x="145.5" y="-45.3" font-family="arial" font-size="14.00">Public</text>
<text text-anchor="start" x="142.5" y="-30.3" font-family="arial" font-size="14.00">opinion</text>
<text text-anchor="start" x="136" y="-15.3" font-family="arial" font-size="14.00">improves</text>
</g>
<!-- axsxdf&#45;&gt;Public opinion improves -->
<g id="edge5" class="edge"><title>axsxdf&#45;&gt;Public opinion improves</title>
<path fill="none" stroke="#41ab5d" stroke-width="0" d="M43.2107,-81.4542C49.8284,-80.2827 65.4204,-77.2816 78,-73 91.4272,-68.4298 105.607,-62.5222 118.515,-56.6937"/>
<polygon fill="#41ab5d" stroke="#41ab5d" stroke-width="0" points="120.04,-59.8449 127.66,-52.4839 117.113,-53.4863 120.04,-59.8449"/>
</g>
<!-- Public opinion improves&#45;&gt;Legislators have more favourable views -->
<g id="edge3" class="edge"><title>Public opinion improves&#45;&gt;Legislators have more favourable views</title>
<path fill="none" stroke="#41ab5d" d="M203.323,-34C215.495,-34 229.284,-34 242.402,-34"/>
<polygon fill="#41ab5d" stroke="#41ab5d" points="242.735,-37.5001 252.735,-34 242.735,-30.5001 242.735,-37.5001"/>
</g>
<!-- !do Our campaign is launched -->
<g id="node5" class="node"><title>!do Our campaign is launched</title>
<polygon fill="#e5f5e0" stroke="#e5f5e0" stroke-width="2" points="78,-66 0,-66 0,-2 78,-2 78,-66"/>
<text text-anchor="start" x="17" y="-51.8" font-family="arial" font-size="14.00" fill="green">▶ </text>
<text text-anchor="start" x="33" y="-51.8" font-family="arial" font-size="14.00"> Our</text>
<text text-anchor="start" x="8" y="-37.8" font-family="arial" font-size="14.00">campaign</text>
<text text-anchor="start" x="33.5" y="-23.8" font-family="arial" font-size="14.00">is</text>
<text text-anchor="start" x="10" y="-9.8" font-family="arial" font-size="14.00">launched</text>
</g>
<!-- !do Our campaign is launched&#45;&gt;Public opinion improves -->
<g id="edge4" class="edge"><title>!do Our campaign is launched&#45;&gt;Public opinion improves</title>
<path fill="none" stroke="#41ab5d" d="M78.0306,-34C90.5572,-34 104.634,-34 117.734,-34"/>
<polygon fill="#41ab5d" stroke="#41ab5d" points="117.982,-37.5001 127.982,-34 117.982,-30.5001 117.982,-37.5001"/>
</g>
</g>
</svg>
