<?xml version="1.0" encoding="UTF-8" standalone="no"?>
<!DOCTYPE svg PUBLIC "-//W3C//DTD SVG 1.1//EN"
 "http://www.w3.org/Graphics/SVG/1.1/DTD/svg11.dtd">
<!-- Generated by graphviz version 2.38.0 (20140413.2041)
 -->
<!-- Title: foo Pages: 1 -->
<svg width="395pt" height="144pt"
 viewBox="0.00 0.00 395.00 144.00" xmlns="http://www.w3.org/2000/svg" xmlns:xlink="http://www.w3.org/1999/xlink">
<g id="graph0" class="graph" transform="scale(1 1) rotate(0) translate(4 140)">
<title>foo</title>
<g id="a_graph0"><a xlink:title=" ">
<polygon fill="white" stroke="none" points="-4,4 -4,-140 391,-140 391,4 -4,4"/>
</a>
</g>
<!-- Capacity of data analysis -->
<g id="node1" class="node"><title>Capacity of data analysis</title>
<polygon fill="#e5f5e0" stroke="#e5f5e0" stroke-width="2" points="173,-136 0,-136 0,-100 173,-100 173,-136"/>
<text text-anchor="start" x="8" y="-114.3" font-family="arial" font-size="14.00">Capacity of data analysis</text>
</g>
<!-- Success of intervention -->
<g id="node2" class="node"><title>Success of intervention</title>
<polygon fill="#e5f5e0" stroke="#e5f5e0" stroke-width="2" points="387,-86 223,-86 223,-50 387,-50 387,-86"/>
<text text-anchor="start" x="231" y="-64.3" font-family="arial" font-size="14.00">Success of intervention</text>
</g>
<!-- Capacity of data analysis&#45;&gt;Success of intervention -->
<g id="edge1" class="edge"><title>Capacity of data analysis&#45;&gt;Success of intervention</title>
<path fill="none" stroke="#41ab5d" d="M150.139,-99.9281C157.85,-97.6318 165.613,-95.2855 173,-93 186.679,-88.7681 202.4,-83.576 212.267,-80.2772"/>
<polygon fill="#41ab5d" stroke="#41ab5d" points="213.64,-83.5081 222,-77 211.406,-76.874 213.64,-83.5081"/>
</g>
<!-- Quantity of data -->
<g id="node3" class="node"><title>Quantity of data</title>
<polygon fill="#e5f5e0" stroke="#e5f5e0" stroke-width="2" points="144,-86 29,-86 29,-50 144,-50 144,-86"/>
<text text-anchor="start" x="37" y="-64.3" font-family="arial" font-size="14.00">Quantity of data</text>
</g>
<!-- Quantity of data&#45;&gt;Success of intervention -->
<g id="edge2" class="edge"><title>Quantity of data&#45;&gt;Success of intervention</title>
<path fill="none" stroke="#41ab5d" d="M144.15,-71.7907C169.709,-73.5009 197.362,-75.3514 211.841,-76.3202"/>
<polygon fill="#41ab5d" stroke="#41ab5d" points="211.789,-79.8244 222,-77 212.256,-72.8401 211.789,-79.8244"/>
</g>
<!-- Other factors -->
<g id="node4" class="node"><title>Other factors</title>
<polygon fill="#e5f5e0" stroke="#e5f5e0" stroke-width="2" points="136,-36 37,-36 37,-0 136,-0 136,-36"/>
<text text-anchor="start" x="45" y="-14.3" font-family="arial" font-size="14.00">Other factors</text>
</g>
<!-- Other factors&#45;&gt;Success of intervention -->
<g id="edge3" class="edge"><title>Other factors&#45;&gt;Success of intervention</title>
<path fill="none" stroke="#41ab5d" d="M136.087,-29.221C159.626,-34.6573 188.639,-41.3578 215.888,-47.6508"/>
<polygon fill="#41ab5d" stroke="#41ab5d" points="215.303,-51.1077 225.834,-49.9477 216.878,-44.2872 215.303,-51.1077"/>
</g>
</g>
</svg>
