<?xml version="1.0" encoding="UTF-8" standalone="no"?>
<!DOCTYPE svg PUBLIC "-//W3C//DTD SVG 1.1//EN"
 "http://www.w3.org/Graphics/SVG/1.1/DTD/svg11.dtd">
<!-- Generated by graphviz version 2.38.0 (20140413.2041)
 -->
<!-- Title: foo Pages: 1 -->
<svg width="401pt" height="245pt"
 viewBox="0.00 0.00 401.00 245.00" xmlns="http://www.w3.org/2000/svg" xmlns:xlink="http://www.w3.org/1999/xlink">
<g id="graph0" class="graph" transform="scale(1 1) rotate(0) translate(4 241)">
<title>foo</title>
<g id="a_graph0"><a xlink:title=" ">
<polygon fill="#c7e9c0" stroke="none" points="-4,4 -4,-241 397,-241 397,4 -4,4"/>
<text text-anchor="start" x="158.5" y="-7.2" font-family="tahoma" font-size="11.00" fill="#238b45">Try this instead</text>
</a>
</g>
<!-- axsxdf -->
<!-- improved student exam results -->
<g id="node2" class="node"><title>improved student exam results</title>
<polygon fill="#f7fcf5" stroke="#f7fcf5" points="393,-149 292,-149 292,-96 393,-96 393,-149"/>
<text text-anchor="start" x="312.5" y="-133.8" font-family="Helvetica,sans-Serif" font-size="14.00" fill="#006d2c">improved</text>
<text text-anchor="start" x="300" y="-118.8" font-family="Helvetica,sans-Serif" font-size="14.00" fill="#006d2c">student exam</text>
<text text-anchor="start" x="321" y="-103.8" font-family="Helvetica,sans-Serif" font-size="14.00" fill="#006d2c">results</text>
</g>
<!-- axsxdf&#45;&gt;improved student exam results -->
<g id="edge1" class="edge"><title>axsxdf&#45;&gt;improved student exam results</title>
<path fill="none" stroke="#41ab5d" stroke-width="0" d="M50.2399,-235.983C72.5502,-233.423 169.028,-220.95 241,-189.5 261.476,-180.552 282.32,-167.445 299.676,-155.19"/>
<polygon fill="#41ab5d" stroke="#41ab5d" stroke-width="0" points="301.833,-157.951 307.9,-149.265 297.74,-152.271 301.833,-157.951"/>
</g>
<!-- improved student classwork -->
<g id="node4" class="node"><title>improved student classwork</title>
<polygon fill="#f7fcf5" stroke="#f7fcf5" points="230,-149 151,-149 151,-96 230,-96 230,-149"/>
<text text-anchor="start" x="160.5" y="-133.8" font-family="Helvetica,sans-Serif" font-size="14.00" fill="#006d2c">improved</text>
<text text-anchor="start" x="167" y="-118.8" font-family="Helvetica,sans-Serif" font-size="14.00" fill="#006d2c">student</text>
<text text-anchor="start" x="159" y="-103.8" font-family="Helvetica,sans-Serif" font-size="14.00" fill="#006d2c">classwork</text>
</g>
<!-- axsxdf&#45;&gt;improved student classwork -->
<g id="edge4" class="edge"><title>axsxdf&#45;&gt;improved student classwork</title>
<path fill="none" stroke="#41ab5d" stroke-width="0" d="M48.8269,-235.989C59.6424,-234.174 94.3017,-227.115 115,-208.5 132.592,-192.678 124.827,-179.655 140,-161.5 141.482,-159.727 143.057,-157.98 144.698,-156.269"/>
<polygon fill="#41ab5d" stroke="#41ab5d" stroke-width="0" points="147.465,-158.464 152.248,-149.01 142.613,-153.418 147.465,-158.464"/>
</g>
<!-- improved student exam skills -->
<g id="node6" class="node"><title>improved student exam skills</title>
<polygon fill="#f7fcf5" stroke="#f7fcf5" points="241,-79 140,-79 140,-26 241,-26 241,-79"/>
<text text-anchor="start" x="160.5" y="-63.8" font-family="Helvetica,sans-Serif" font-size="14.00" fill="#006d2c">improved</text>
<text text-anchor="start" x="148" y="-48.8" font-family="Helvetica,sans-Serif" font-size="14.00" fill="#006d2c">student exam</text>
<text text-anchor="start" x="175" y="-33.8" font-family="Helvetica,sans-Serif" font-size="14.00" fill="#006d2c">skills</text>
</g>
<!-- axsxdf&#45;&gt;improved student exam skills -->
<g id="edge8" class="edge"><title>axsxdf&#45;&gt;improved student exam skills</title>
<path fill="none" stroke="#41ab5d" stroke-width="0" d="M47.837,-235.944C54.9932,-234.127 76.8548,-227.706 89,-214.5 129.896,-170.033 102.802,-136.104 140,-88.5 140.466,-87.9034 140.945,-87.3122 141.435,-86.7264"/>
<polygon fill="#41ab5d" stroke="#41ab5d" stroke-width="0" points="144.011,-89.0964 148.357,-79.434 138.934,-84.2771 144.011,-89.0964"/>
</g>
<!-- students receive laptops -->
<g id="node3" class="node"><title>students receive laptops</title>
<polygon fill="#f7fcf5" stroke="#f7fcf5" points="80,-207 9,-207 9,-154 80,-154 80,-207"/>
<text text-anchor="start" x="17" y="-191.8" font-family="Helvetica,sans-Serif" font-size="14.00" fill="#006d2c">students</text>
<text text-anchor="start" x="21" y="-176.8" font-family="Helvetica,sans-Serif" font-size="14.00" fill="#006d2c">receive</text>
<text text-anchor="start" x="21" y="-161.8" font-family="Helvetica,sans-Serif" font-size="14.00" fill="#006d2c">laptops</text>
</g>
<!-- students receive laptops&#45;&gt;improved student exam results -->
<g id="edge2" class="edge"><title>students receive laptops&#45;&gt;improved student exam results</title>
<path fill="none" stroke="#000000" stroke-width="2" d="M80.1012,-178.074C119.446,-174.855 185.429,-168.057 241,-155.5 254.549,-152.438 268.866,-148.305 282.313,-144.001"/>
<polygon fill="#000000" stroke="#000000" stroke-width="2" points="283.516,-147.29 291.928,-140.849 281.335,-140.638 283.516,-147.29"/>
<text text-anchor="start" x="188" y="-175.3" font-family="Helvetica,sans-Serif" font-size="14.00" fill="#cd5c5c">(</text>
</g>
<!-- students receive laptops&#45;&gt;improved student classwork -->
<g id="edge6" class="edge"><title>students receive laptops&#45;&gt;improved student classwork</title>
<path fill="none" stroke="#41ab5d" stroke-width="2" d="M80.3584,-166.46C98.7537,-159.051 121.603,-149.847 141.634,-141.779"/>
<polygon fill="#41ab5d" stroke="#41ab5d" stroke-width="2" points="142.942,-145.026 150.911,-138.043 140.327,-138.533 142.942,-145.026"/>
</g>
<!-- improved student classwork&#45;&gt;improved student exam results -->
<g id="edge3" class="edge"><title>improved student classwork&#45;&gt;improved student exam results</title>
<path fill="none" stroke="#41ab5d" stroke-width="2" d="M230.129,-122.5C245.875,-122.5 264.443,-122.5 281.858,-122.5"/>
<polygon fill="#41ab5d" stroke="#41ab5d" stroke-width="2" points="281.948,-126 291.948,-122.5 281.948,-119 281.948,-126"/>
</g>
<!-- student workshop 1 held -->
<g id="node5" class="node"><title>student workshop 1 held</title>
<polygon fill="#f7fcf5" stroke="#f7fcf5" points="89,-140 0,-140 0,-87 89,-87 89,-140"/>
<text text-anchor="start" x="21" y="-124.8" font-family="Helvetica,sans-Serif" font-size="14.00" fill="#006d2c">student</text>
<text text-anchor="start" x="8" y="-109.8" font-family="Helvetica,sans-Serif" font-size="14.00" fill="#006d2c">workshop 1</text>
<text text-anchor="start" x="30.5" y="-94.8" font-family="Helvetica,sans-Serif" font-size="14.00" fill="#006d2c">held</text>
</g>
<!-- student workshop 1 held&#45;&gt;improved student classwork -->
<g id="edge5" class="edge"><title>student workshop 1 held&#45;&gt;improved student classwork</title>
<path fill="none" stroke="#41ab5d" stroke-width="2" d="M89.0955,-116.225C105.411,-117.244 124.043,-118.409 140.792,-119.456"/>
<polygon fill="#41ab5d" stroke="#41ab5d" stroke-width="2" points="140.74,-122.959 150.939,-120.09 141.177,-115.973 140.74,-122.959"/>
</g>
<!-- improved student exam skills&#45;&gt;improved student exam results -->
<g id="edge7" class="edge"><title>improved student exam skills&#45;&gt;improved student exam results</title>
<path fill="none" stroke="#41ab5d" stroke-width="2" d="M241.031,-75.6146C254.274,-81.7947 268.719,-88.5357 282.421,-94.9299"/>
<polygon fill="#41ab5d" stroke="#41ab5d" stroke-width="2" points="281.223,-98.2329 291.765,-99.2901 284.183,-91.8896 281.223,-98.2329"/>
</g>
<!-- student workshop 2 held -->
<g id="node7" class="node"><title>student workshop 2 held</title>
<polygon fill="#f7fcf5" stroke="#f7fcf5" points="89,-73 0,-73 0,-20 89,-20 89,-73"/>
<text text-anchor="start" x="21" y="-57.8" font-family="Helvetica,sans-Serif" font-size="14.00" fill="#006d2c">student</text>
<text text-anchor="start" x="8" y="-42.8" font-family="Helvetica,sans-Serif" font-size="14.00" fill="#006d2c">workshop 2</text>
<text text-anchor="start" x="30.5" y="-27.8" font-family="Helvetica,sans-Serif" font-size="14.00" fill="#006d2c">held</text>
</g>
<!-- student workshop 2 held&#45;&gt;improved student exam skills -->
<g id="edge9" class="edge"><title>student workshop 2 held&#45;&gt;improved student exam skills</title>
<path fill="none" stroke="#41ab5d" stroke-width="2" d="M89.0955,-48.3165C101.827,-48.8469 115.969,-49.4362 129.526,-50.0011"/>
<polygon fill="#41ab5d" stroke="#41ab5d" stroke-width="2" points="129.609,-53.5075 139.746,-50.4269 129.9,-46.5135 129.609,-53.5075"/>
</g>
</g>
</svg>
