<?xml version="1.0" encoding="UTF-8" standalone="no"?>
<!DOCTYPE svg PUBLIC "-//W3C//DTD SVG 1.1//EN"
 "http://www.w3.org/Graphics/SVG/1.1/DTD/svg11.dtd">
<!-- Generated by graphviz version 2.38.0 (20140413.2041)
 -->
<!-- Title: foo Pages: 1 -->
<svg width="536pt" height="58pt"
 viewBox="0.00 0.00 536.00 58.00" xmlns="http://www.w3.org/2000/svg" xmlns:xlink="http://www.w3.org/1999/xlink">
<g id="graph0" class="graph" transform="scale(1 1) rotate(0) translate(4 54)">
<title>foo</title>
<g id="a_graph0"><a xlink:title=" ">
<polygon fill="white" stroke="none" points="-4,4 -4,-54 532,-54 532,4 -4,4"/>
</a>
</g>
<!-- Teacher behaviour in classroom !rich -->
<g id="node1" class="node"><title>Teacher behaviour in classroom !rich</title>
<polygon fill="white" stroke="white" points="362,-44 228,-44 228,-6 362,-6 362,-44"/>
<text text-anchor="start" x="236" y="-28.8" font-family="Times New Roman,serif" font-size="14.00">Teacher behaviour in</text>
<text text-anchor="start" x="258.5" y="-13.8" font-family="Times New Roman,serif" font-size="14.00">classroom ♛</text>
</g>
<!-- Student academic achievement !heart -->
<g id="node2" class="node"><title>Student academic achievement !heart</title>
<polygon fill="white" stroke="white" points="528,-43 412,-43 412,-7 528,-7 528,-43"/>
<text text-anchor="start" x="420" y="-28.8" font-family="Times New Roman,serif" font-size="14.00">Student academic</text>
<text text-anchor="start" x="429" y="-14.8" font-family="Times New Roman,serif" font-size="14.00">achievement </text>
<text text-anchor="start" x="502" y="-14.8" font-family="Times New Roman,serif" font-size="14.00" fill="orange">♥</text>
</g>
<!-- Teacher behaviour in classroom !rich&#45;&gt;Student academic achievement !heart -->
<g id="edge1" class="edge"><title>Teacher behaviour in classroom !rich&#45;&gt;Student academic achievement !heart</title>
<path fill="none" stroke="black" d="M362.392,-25C375.249,-25 388.733,-25 401.621,-25"/>
<polygon fill="black" stroke="black" points="401.806,-28.5001 411.806,-25 401.806,-21.5001 401.806,-28.5001"/>
</g>
<!-- !do Amount of training which teachers receive on the new teaching method -->
<g id="node3" class="node"><title>!do Amount of training which teachers receive on the new teaching method</title>
<polygon fill="white" stroke="white" points="178,-50 0,-50 0,-0 178,-0 178,-50"/>
<text text-anchor="start" x="8" y="-35.8" font-family="Times New Roman,serif" font-size="14.00" fill="darkgreen">▶ </text>
<text text-anchor="start" x="24" y="-35.8" font-family="Times New Roman,serif" font-size="14.00"> Amount of training which</text>
<text text-anchor="start" x="12" y="-21.8" font-family="Times New Roman,serif" font-size="14.00">teachers receive on the new</text>
<text text-anchor="start" x="43" y="-7.8" font-family="Times New Roman,serif" font-size="14.00">teaching method</text>
</g>
<!-- !do Amount of training which teachers receive on the new teaching method&#45;&gt;Teacher behaviour in classroom !rich -->
<g id="edge2" class="edge"><title>!do Amount of training which teachers receive on the new teaching method&#45;&gt;Teacher behaviour in classroom !rich</title>
<path fill="none" stroke="black" d="M178.291,-25C191.376,-25 204.768,-25 217.583,-25"/>
<polygon fill="black" stroke="black" points="217.721,-28.5001 227.721,-25 217.721,-21.5001 217.721,-28.5001"/>
</g>
</g>
</svg>
