<?xml version="1.0" encoding="UTF-8" standalone="no"?>
<!DOCTYPE svg PUBLIC "-//W3C//DTD SVG 1.1//EN"
 "http://www.w3.org/Graphics/SVG/1.1/DTD/svg11.dtd">
<!-- Generated by graphviz version 2.38.0 (20140413.2041)
 -->
<!-- Title: foo Pages: 1 -->
<svg width="419pt" height="44pt"
 viewBox="0.00 0.00 419.00 44.00" xmlns="http://www.w3.org/2000/svg" xmlns:xlink="http://www.w3.org/1999/xlink">
<g id="graph0" class="graph" transform="scale(1 1) rotate(0) translate(4 40)">
<title>foo</title>
<g id="a_graph0"><a xlink:title=" ">
<polygon fill="white" stroke="none" points="-4,4 -4,-40 415,-40 415,4 -4,4"/>
</a>
</g>
<!-- Encouragement -->
<g id="node1" class="node"><title>Encouragement</title>
<polygon fill="#e5f5e0" stroke="#e5f5e0" stroke-width="2" points="244,-36 127,-36 127,-0 244,-0 244,-36"/>
<text text-anchor="start" x="135" y="-14.3" font-family="arial" font-size="14.00">Encouragement</text>
</g>
<!-- Performance -->
<g id="node2" class="node"><title>Performance</title>
<polygon fill="#e5f5e0" stroke="#e5f5e0" stroke-width="2" points="411,-36 312,-36 312,-0 411,-0 411,-36"/>
<text text-anchor="start" x="320" y="-14.3" font-family="arial" font-size="14.00">Performance</text>
</g>
<!-- Encouragement&#45;&gt;Performance -->
<g id="edge1" class="edge"><title>Encouragement&#45;&gt;Performance</title>
<path fill="none" stroke="#41ab5d" d="M244.439,-18C262.874,-18 283.275,-18 301.765,-18"/>
<polygon fill="#41ab5d" stroke="#41ab5d" points="301.816,-21.5001 311.816,-18 301.816,-14.5001 301.816,-21.5001"/>
<text text-anchor="start" x="269" y="-21.8" font-family="Times New Roman,serif" font-size="14.00">⊕?</text>
</g>
<!-- Gender -->
<g id="node3" class="node"><title>Gender</title>
<polygon fill="#e5f5e0" stroke="#e5f5e0" stroke-width="2" points="65,-36 0,-36 0,-0 65,-0 65,-36"/>
<text text-anchor="start" x="8" y="-14.3" font-family="arial" font-size="14.00">Gender</text>
</g>
<!-- Gender&#45;&gt;Encouragement -->
<g id="edge2" class="edge"><title>Gender&#45;&gt;Encouragement</title>
<path fill="none" stroke="#41ab5d" d="M65.1545,-18C80.189,-18 98.7732,-18 116.763,-18"/>
<polygon fill="#41ab5d" stroke="#41ab5d" points="116.962,-21.5001 126.962,-18 116.962,-14.5001 116.962,-21.5001"/>
<text text-anchor="start" x="90" y="-21.8" font-family="Times New Roman,serif" font-size="14.00">⊕</text>
</g>
</g>
</svg>
