<?xml version="1.0" encoding="UTF-8" standalone="no"?>
<!DOCTYPE svg PUBLIC "-//W3C//DTD SVG 1.1//EN"
 "http://www.w3.org/Graphics/SVG/1.1/DTD/svg11.dtd">
<!-- Generated by graphviz version 2.38.0 (20140413.2041)
 -->
<!-- Title: foo Pages: 1 -->
<svg width="237pt" height="76pt"
 viewBox="0.00 0.00 237.00 76.00" xmlns="http://www.w3.org/2000/svg" xmlns:xlink="http://www.w3.org/1999/xlink">
<g id="graph0" class="graph" transform="scale(1 1) rotate(0) translate(4 72)">
<title>foo</title>
<g id="a_graph0"><a xlink:title=" ">
<polygon fill="white" stroke="none" points="-4,4 -4,-72 233,-72 233,4 -4,4"/>
</a>
</g>
<!-- Student satisfaction with school at age 15 -->
<g id="node1" class="node"><title>Student satisfaction with school at age 15</title>
<polygon fill="#e5f5e0" stroke="#e5f5e0" stroke-width="2" points="88,-68 0,-68 0,-0 88,-0 88,-68"/>
<text text-anchor="start" x="19.5" y="-52.8" font-family="arial" font-size="14.00">Student</text>
<text text-anchor="start" x="8" y="-37.8" font-family="arial" font-size="14.00">satisfaction</text>
<text text-anchor="start" x="9" y="-22.8" font-family="arial" font-size="14.00">with school</text>
<text text-anchor="start" x="14" y="-7.8" font-family="arial" font-size="14.00">at age 15</text>
</g>
<!-- Student wellbeing at age 25 -->
<g id="node2" class="node"><title>Student wellbeing at age 25</title>
<polygon fill="#e5f5e0" stroke="#e5f5e0" stroke-width="2" points="229,-60.5 138,-60.5 138,-7.5 229,-7.5 229,-60.5"/>
<text text-anchor="start" x="159" y="-45.3" font-family="arial" font-size="14.00">Student</text>
<text text-anchor="start" x="146" y="-30.3" font-family="arial" font-size="14.00">wellbeing at</text>
<text text-anchor="start" x="161" y="-15.3" font-family="arial" font-size="14.00">age 25</text>
</g>
<!-- Student satisfaction with school at age 15&#45;&gt;Student wellbeing at age 25 -->
<g id="edge1" class="edge"><title>Student satisfaction with school at age 15&#45;&gt;Student wellbeing at age 25</title>
<path fill="none" stroke="#41ab5d" d="M88.1286,-34C100.558,-34 114.29,-34 127.342,-34"/>
<polygon fill="#41ab5d" stroke="#41ab5d" points="127.626,-37.5001 137.626,-34 127.626,-30.5001 127.626,-37.5001"/>
</g>
</g>
</svg>
