<?xml version="1.0" encoding="UTF-8" standalone="no"?>
<!DOCTYPE svg PUBLIC "-//W3C//DTD SVG 1.1//EN"
 "http://www.w3.org/Graphics/SVG/1.1/DTD/svg11.dtd">
<!-- Generated by graphviz version 2.38.0 (20140413.2041)
 -->
<!-- Title: foo Pages: 1 -->
<svg width="568pt" height="94pt"
 viewBox="0.00 0.00 568.00 94.00" xmlns="http://www.w3.org/2000/svg" xmlns:xlink="http://www.w3.org/1999/xlink">
<g id="graph0" class="graph" transform="scale(1 1) rotate(0) translate(4 90)">
<title>foo</title>
<g id="a_graph0"><a xlink:title=" ">
<polygon fill="white" stroke="none" points="-4,4 -4,-90 564,-90 564,4 -4,4"/>
</a>
</g>
<!-- Enough representatives of Party A convinced !tick -->
<g id="node1" class="node"><title>Enough representatives of Party A convinced !tick</title>
<polygon fill="#e5f5e0" stroke="#e5f5e0" stroke-width="2" points="380,-36 197,-36 197,-0 380,-0 380,-36"/>
<text text-anchor="start" x="205" y="-21.8" font-family="arial" font-size="14.00">Enough representatives of</text>
<text text-anchor="start" x="223.5" y="-7.8" font-family="arial" font-size="14.00">Party A convinced </text>
<text text-anchor="start" x="341.5" y="-7.8" font-family="arial" font-size="14.00" fill="green">✔</text>
</g>
<!-- Law is passed !tick -->
<g id="node2" class="node"><title>Law is passed !tick</title>
<polygon fill="#e5f5e0" stroke="#e5f5e0" stroke-width="2" points="560,-61 437,-61 437,-25 560,-25 560,-61"/>
<text text-anchor="start" x="445" y="-40.3" font-family="arial" font-size="14.00">Law is passed </text>
<text text-anchor="start" x="540" y="-40.3" font-family="arial" font-size="14.00" fill="green">✔</text>
</g>
<!-- Enough representatives of Party A convinced !tick&#45;&gt;Law is passed !tick -->
<g id="edge1" class="edge"><title>Enough representatives of Party A convinced !tick&#45;&gt;Law is passed !tick</title>
<path fill="none" stroke="#41ab5d" d="M380.127,-28.8926C395.693,-30.7636 411.665,-32.6833 426.618,-34.4805"/>
<polygon fill="#41ab5d" stroke="#41ab5d" points="426.443,-37.9846 436.79,-35.7031 427.279,-31.0347 426.443,-37.9846"/>
</g>
<!-- Lobbying Party A !tick -->
<g id="node3" class="node"><title>Lobbying Party A !tick</title>
<polygon fill="#e5f5e0" stroke="#e5f5e0" stroke-width="2" points="140,-36 0,-36 0,-0 140,-0 140,-36"/>
<text text-anchor="start" x="8" y="-15.3" font-family="arial" font-size="14.00">Lobbying Party A </text>
<text text-anchor="start" x="120" y="-15.3" font-family="arial" font-size="14.00" fill="green">✔</text>
</g>
<!-- Lobbying Party A !tick&#45;&gt;Enough representatives of Party A convinced !tick -->
<g id="edge2" class="edge"><title>Lobbying Party A !tick&#45;&gt;Enough representatives of Party A convinced !tick</title>
<path fill="none" stroke="#41ab5d" d="M140.097,-18C154.918,-18 170.871,-18 186.615,-18"/>
<polygon fill="#41ab5d" stroke="#41ab5d" points="186.917,-21.5001 196.917,-18 186.917,-14.5001 186.917,-21.5001"/>
<text text-anchor="middle" x="183.322" y="-20.6393" font-family="Times New Roman,serif" font-size="14.00">OR</text>
</g>
<!-- Enough representatives of B convinced !cross -->
<g id="node4" class="node"><title>Enough representatives of B convinced !cross</title>
<polygon fill="#e5f5e0" stroke="#e5f5e0" stroke-width="2" points="387,-86 190,-86 190,-50 387,-50 387,-86"/>
<text text-anchor="start" x="198" y="-71.8" font-family="arial" font-size="14.00">Enough representatives of B</text>
<text text-anchor="start" x="248" y="-57.8" font-family="arial" font-size="14.00">convinced </text>
<text text-anchor="start" x="317" y="-57.8" font-family="arial" font-size="14.00" fill="orange">✘</text>
</g>
<!-- Enough representatives of B convinced !cross&#45;&gt;Law is passed !tick -->
<g id="edge3" class="edge"><title>Enough representatives of B convinced !cross&#45;&gt;Law is passed !tick</title>
<path fill="none" stroke="#41ab5d" d="M387.105,-56.2686C400.514,-54.657 414.065,-53.0282 426.863,-51.49"/>
<polygon fill="#41ab5d" stroke="#41ab5d" points="427.437,-54.9464 436.948,-50.2779 426.601,-47.9964 427.437,-54.9464"/>
</g>
<!-- Lobbying Party B !cross -->
<g id="node5" class="node"><title>Lobbying Party B !cross</title>
<polygon fill="#e5f5e0" stroke="#e5f5e0" stroke-width="2" points="140,-86 0,-86 0,-50 140,-50 140,-86"/>
<text text-anchor="start" x="8" y="-65.3" font-family="arial" font-size="14.00">Lobbying Party B </text>
<text text-anchor="start" x="120" y="-65.3" font-family="arial" font-size="14.00" fill="orange">✘</text>
</g>
<!-- Lobbying Party B !cross&#45;&gt;Enough representatives of B convinced !cross -->
<g id="edge4" class="edge"><title>Lobbying Party B !cross&#45;&gt;Enough representatives of B convinced !cross</title>
<path fill="none" stroke="#41ab5d" d="M140.097,-68C152.72,-68 166.163,-68 179.599,-68"/>
<polygon fill="#41ab5d" stroke="#41ab5d" points="179.859,-71.5001 189.859,-68 179.859,-64.5001 179.859,-71.5001"/>
</g>
</g>
</svg>
