<?xml version="1.0" encoding="UTF-8" standalone="no"?>
<!DOCTYPE svg PUBLIC "-//W3C//DTD SVG 1.1//EN"
 "http://www.w3.org/Graphics/SVG/1.1/DTD/svg11.dtd">
<!-- Generated by graphviz version 2.38.0 (20140413.2041)
 -->
<!-- Title: foo Pages: 1 -->
<svg width="495pt" height="168pt"
 viewBox="0.00 0.00 495.00 168.00" xmlns="http://www.w3.org/2000/svg" xmlns:xlink="http://www.w3.org/1999/xlink">
<g id="graph0" class="graph" transform="scale(1 1) rotate(0) translate(4 164)">
<title>foo</title>
<g id="a_graph0"><a xlink:title=" ">
<polygon fill="white" stroke="none" points="-4,4 -4,-164 491,-164 491,4 -4,4"/>
</a>
</g>
<!-- Legislators have more favourable views !heart -->
<g id="node1" class="node"><title>Legislators have more favourable views !heart</title>
<polygon fill="#e5f5e0" stroke="#e5f5e0" stroke-width="2" points="358,-122 272,-122 272,-54 358,-54 358,-122"/>
<text text-anchor="start" x="280" y="-106.8" font-family="arial" font-size="14.00">Legislators</text>
<text text-anchor="start" x="281.5" y="-91.8" font-family="arial" font-size="14.00">have more</text>
<text text-anchor="start" x="281.5" y="-76.8" font-family="arial" font-size="14.00">favourable</text>
<text text-anchor="start" x="291" y="-61.8" font-family="arial" font-size="14.00">views ♥</text>
</g>
<!-- Law on same&#45;sex marriage is passed !heart -->
<g id="node2" class="node"><title>Law on same&#45;sex marriage is passed !heart</title>
<polygon fill="#e5f5e0" stroke="#e5f5e0" stroke-width="2" points="487,-129.5 408,-129.5 408,-46.5 487,-46.5 487,-129.5"/>
<text text-anchor="start" x="424.5" y="-114.3" font-family="arial" font-size="14.00">Law on</text>
<text text-anchor="start" x="416" y="-99.3" font-family="arial" font-size="14.00">same&#45;sex</text>
<text text-anchor="start" x="419.5" y="-84.3" font-family="arial" font-size="14.00">marriage</text>
<text text-anchor="start" x="442" y="-69.3" font-family="arial" font-size="14.00">is</text>
<text text-anchor="start" x="417.5" y="-54.3" font-family="arial" font-size="14.00">passed ♥</text>
</g>
<!-- Legislators have more favourable views !heart&#45;&gt;Law on same&#45;sex marriage is passed !heart -->
<g id="edge1" class="edge"><title>Legislators have more favourable views !heart&#45;&gt;Law on same&#45;sex marriage is passed !heart</title>
<path fill="none" stroke="#41ab5d" d="M358.009,-88C370.591,-88 384.499,-88 397.49,-88"/>
<polygon fill="#41ab5d" stroke="#41ab5d" points="397.669,-91.5001 407.669,-88 397.669,-84.5001 397.669,-91.5001"/>
</g>
<!-- Other campaign &#160;lobbies legislators -->
<g id="node3" class="node"><title>Other campaign &#160;lobbies legislators</title>
<polygon fill="#e5f5e0" stroke="#e5f5e0" stroke-width="2" points="219,-160 138,-160 138,-92 219,-92 219,-160"/>
<text text-anchor="start" x="160.5" y="-144.8" font-family="arial" font-size="14.00">Other</text>
<text text-anchor="start" x="147.5" y="-129.8" font-family="arial" font-size="14.00">campaign</text>
<text text-anchor="start" x="155" y="-114.8" font-family="arial" font-size="14.00">lobbies</text>
<text text-anchor="start" x="146" y="-99.8" font-family="arial" font-size="14.00">legislators</text>
</g>
<!-- Other campaign &#160;lobbies legislators&#45;&gt;Legislators have more favourable views !heart -->
<g id="edge2" class="edge"><title>Other campaign &#160;lobbies legislators&#45;&gt;Legislators have more favourable views !heart</title>
<path fill="none" stroke="#41ab5d" d="M219.127,-114.804C232.6,-110.998 247.864,-106.685 262.148,-102.65"/>
<polygon fill="#41ab5d" stroke="#41ab5d" points="263.175,-105.996 271.847,-99.9094 261.272,-99.2602 263.175,-105.996"/>
</g>
<!-- Public opinion improves !heart -->
<g id="node4" class="node"><title>Public opinion improves !heart</title>
<polygon fill="#e5f5e0" stroke="#e5f5e0" stroke-width="2" points="222,-77.5 135,-77.5 135,-24.5 222,-24.5 222,-77.5"/>
<text text-anchor="start" x="158.5" y="-62.3" font-family="arial" font-size="14.00">Public</text>
<text text-anchor="start" x="155.5" y="-47.3" font-family="arial" font-size="14.00">opinion</text>
<text text-anchor="start" x="143" y="-32.3" font-family="arial" font-size="14.00">improves ♥</text>
</g>
<!-- Public opinion improves !heart&#45;&gt;Legislators have more favourable views !heart -->
<g id="edge3" class="edge"><title>Public opinion improves !heart&#45;&gt;Legislators have more favourable views !heart</title>
<path fill="none" stroke="#41ab5d" d="M222.057,-62.707C234.69,-66.1825 248.674,-70.0294 261.844,-73.6522"/>
<polygon fill="#41ab5d" stroke="#41ab5d" points="261.15,-77.0913 271.72,-76.3691 263.007,-70.342 261.15,-77.0913"/>
</g>
<!-- !do Our campaign is launched -->
<g id="node5" class="node"><title>!do Our campaign is launched</title>
<polygon fill="#e5f5e0" stroke="#e5f5e0" stroke-width="2" points="81.5,-116 3.5,-116 3.5,-52 81.5,-52 81.5,-116"/>
<text text-anchor="start" x="20.5" y="-101.8" font-family="arial" font-size="14.00" fill="green">▶ </text>
<text text-anchor="start" x="36.5" y="-101.8" font-family="arial" font-size="14.00"> Our</text>
<text text-anchor="start" x="11.5" y="-87.8" font-family="arial" font-size="14.00">campaign</text>
<text text-anchor="start" x="37" y="-73.8" font-family="arial" font-size="14.00">is</text>
<text text-anchor="start" x="13.5" y="-59.8" font-family="arial" font-size="14.00">launched</text>
</g>
<!-- !do Our campaign is launched&#45;&gt;Public opinion improves !heart -->
<g id="edge4" class="edge"><title>!do Our campaign is launched&#45;&gt;Public opinion improves !heart</title>
<path fill="none" stroke="#41ab5d" d="M81.5406,-74.6318C94.9943,-71.3186 110.377,-67.5303 124.827,-63.9717"/>
<polygon fill="#41ab5d" stroke="#41ab5d" points="125.774,-67.3432 134.647,-61.5534 124.1,-60.5463 125.774,-67.3432"/>
</g>
<!-- Celebrities speak out -->
<g id="node6" class="node"><title>Celebrities speak out</title>
<polygon fill="#e5f5e0" stroke="#e5f5e0" stroke-width="2" points="85,-38 0,-38 0,-0 85,-0 85,-38"/>
<text text-anchor="start" x="8" y="-22.8" font-family="arial" font-size="14.00">Celebrities</text>
<text text-anchor="start" x="11.5" y="-7.8" font-family="arial" font-size="14.00">speak out</text>
</g>
<!-- Celebrities speak out&#45;&gt;Public opinion improves !heart -->
<g id="edge5" class="edge"><title>Celebrities speak out&#45;&gt;Public opinion improves !heart</title>
<path fill="none" stroke="#41ab5d" d="M85.1639,-28.9496C97.7757,-31.9614 111.792,-35.3086 125.016,-38.4665"/>
<polygon fill="#41ab5d" stroke="#41ab5d" points="124.398,-41.9173 134.938,-40.8358 126.024,-35.1087 124.398,-41.9173"/>
</g>
</g>
</svg>
