<?xml version="1.0" encoding="UTF-8" standalone="no"?>
<!DOCTYPE svg PUBLIC "-//W3C//DTD SVG 1.1//EN"
 "http://www.w3.org/Graphics/SVG/1.1/DTD/svg11.dtd">
<!-- Generated by graphviz version 2.38.0 (20140413.2041)
 -->
<!-- Title: foo Pages: 1 -->
<svg width="249pt" height="82pt"
 viewBox="0.00 0.00 249.00 81.50" xmlns="http://www.w3.org/2000/svg" xmlns:xlink="http://www.w3.org/1999/xlink">
<g id="graph0" class="graph" transform="scale(1 1) rotate(0) translate(4 77.5)">
<title>foo</title>
<g id="a_graph0"><a xlink:title=" ">
<polygon fill="#c7e9c0" stroke="none" points="-4,4 -4,-77.5 245,-77.5 245,4 -4,4"/>
<text text-anchor="start" x="82.5" y="-7.2" font-family="tahoma" font-size="11.00" fill="#238b45">Try this instead</text>
</a>
</g>
<!-- axsxdf -->
<!-- Subjective temperature -->
<g id="node2" class="node"><title>Subjective temperature</title>
<polygon fill="#f7fcf5" stroke="#f7fcf5" points="241,-58 148,-58 148,-20 241,-20 241,-58"/>
<text text-anchor="start" x="161" y="-42.8" font-family="Helvetica,sans-Serif" font-size="14.00" fill="#006d2c">Subjective</text>
<text text-anchor="start" x="156" y="-27.8" font-family="Helvetica,sans-Serif" font-size="14.00" fill="#006d2c">temperature</text>
</g>
<!-- axsxdf&#45;&gt;Subjective temperature -->
<g id="edge1" class="edge"><title>axsxdf&#45;&gt;Subjective temperature</title>
<path fill="none" stroke="#41ab5d" stroke-width="0" d="M47.0616,-72.4436C54.0005,-71.1768 71.4521,-67.9578 86,-65 102.487,-61.6479 106.624,-60.8595 123,-57 127.745,-55.8816 132.662,-54.6914 137.591,-53.4763"/>
<polygon fill="#41ab5d" stroke="#41ab5d" stroke-width="0" points="138.817,-56.7778 147.673,-50.9625 137.124,-49.9857 138.817,-56.7778"/>
</g>
<!-- Strength of wind -->
<g id="node3" class="node"><title>Strength of wind</title>
<polygon fill="#f7fcf5" stroke="#f7fcf5" points="86,-58 0,-58 0,-20 86,-20 86,-58"/>
<text text-anchor="start" x="8" y="-42.8" font-family="Helvetica,sans-Serif" font-size="14.00" fill="#006d2c">Strength of</text>
<text text-anchor="start" x="28.5" y="-27.8" font-family="Helvetica,sans-Serif" font-size="14.00" fill="#006d2c">wind</text>
</g>
<!-- Strength of wind&#45;&gt;Subjective temperature -->
<g id="edge2" class="edge"><title>Strength of wind&#45;&gt;Subjective temperature</title>
<path fill="none" stroke="blue" stroke-width="2" d="M86.0419,-39C101.991,-39 120.415,-39 137.453,-39"/>
<polygon fill="blue" stroke="blue" stroke-width="2" points="137.848,-42.5001 147.848,-39 137.848,-35.5001 137.848,-42.5001"/>
<text text-anchor="start" x="111" y="-42.8" font-family="Helvetica,sans-Serif" font-size="14.00" fill="#cd5c5c">⊖</text>
</g>
</g>
</svg>
