<?xml version="1.0" encoding="UTF-8" standalone="no"?>
<!DOCTYPE svg PUBLIC "-//W3C//DTD SVG 1.1//EN"
 "http://www.w3.org/Graphics/SVG/1.1/DTD/svg11.dtd">
<!-- Generated by graphviz version 2.38.0 (20140413.2041)
 -->
<!-- Title: foo Pages: 1 -->
<svg width="189pt" height="94pt"
 viewBox="0.00 0.00 189.00 94.00" xmlns="http://www.w3.org/2000/svg" xmlns:xlink="http://www.w3.org/1999/xlink">
<g id="graph0" class="graph" transform="scale(1 1) rotate(0) translate(4 90)">
<title>foo</title>
<g id="a_graph0"><a xlink:title=" ">
<polygon fill="white" stroke="none" points="-4,4 -4,-90 185,-90 185,4 -4,4"/>
</a>
</g>
<!-- Spark -->
<g id="node1" class="node"><title>Spark</title>
<polygon fill="#e5f5e0" stroke="#e5f5e0" stroke-width="2" points="59.5,-86 5.5,-86 5.5,-50 59.5,-50 59.5,-86"/>
<text text-anchor="start" x="14" y="-64.3" font-family="arial" font-size="14.00">Spark</text>
</g>
<!-- Fire -->
<g id="node2" class="node"><title>Fire</title>
<polygon fill="#e5f5e0" stroke="#e5f5e0" stroke-width="2" points="181,-61 127,-61 127,-25 181,-25 181,-61"/>
<text text-anchor="start" x="141.5" y="-39.3" font-family="arial" font-size="14.00">Fire</text>
</g>
<!-- Spark&#45;&gt;Fire -->
<g id="edge1" class="edge"><title>Spark&#45;&gt;Fire</title>
<path fill="none" stroke="#41ab5d" d="M59.7248,-62.5136C76.536,-58.9967 98.5823,-54.3845 117.02,-50.5271"/>
<polygon fill="#41ab5d" stroke="#41ab5d" points="117.765,-53.9472 126.836,-48.4736 116.332,-47.0955 117.765,-53.9472"/>
<text text-anchor="start" x="90" y="-58.8" font-family="Times New Roman,serif" font-size="14.00">⇈</text>
<text text-anchor="middle" x="114.828" y="-53.7623" font-family="Times New Roman,serif" font-size="14.00">AND</text>
</g>
<!-- Oxygen -->
<g id="node3" class="node"><title>Oxygen</title>
<polygon fill="#e5f5e0" stroke="#e5f5e0" stroke-width="2" points="65,-36 0,-36 0,-0 65,-0 65,-36"/>
<text text-anchor="start" x="8" y="-14.3" font-family="arial" font-size="14.00">Oxygen</text>
</g>
<!-- Oxygen&#45;&gt;Fire -->
<g id="edge2" class="edge"><title>Oxygen&#45;&gt;Fire</title>
<path fill="none" stroke="#41ab5d" d="M65.2101,-24.6339C81.1286,-27.9642 100.481,-32.0128 116.961,-35.4605"/>
<polygon fill="#41ab5d" stroke="#41ab5d" points="116.29,-38.8958 126.795,-37.5178 117.723,-32.0441 116.29,-38.8958"/>
<text text-anchor="start" x="90" y="-34.8" font-family="Times New Roman,serif" font-size="14.00">⇈</text>
</g>
</g>
</svg>
