<?xml version="1.0" encoding="UTF-8" standalone="no"?>
<!DOCTYPE svg PUBLIC "-//W3C//DTD SVG 1.1//EN"
 "http://www.w3.org/Graphics/SVG/1.1/DTD/svg11.dtd">
<!-- Generated by graphviz version 2.38.0 (20140413.2041)
 -->
<!-- Title: foo Pages: 1 -->
<svg width="1042pt" height="219pt"
 viewBox="0.00 0.00 1042.00 219.00" xmlns="http://www.w3.org/2000/svg" xmlns:xlink="http://www.w3.org/1999/xlink">
<g id="graph0" class="graph" transform="scale(1 1) rotate(0) translate(4 215)">
<title>foo</title>
<g id="a_graph0"><a xlink:title=" ">
<polygon fill="#deebf7" stroke="none" points="-4,4 -4,-215 1038,-215 1038,4 -4,4"/>
</a>
</g>
<!-- Ordered -->
<g id="node1" class="node"><title>Ordered</title>
<polygon fill="#000000" fill-opacity="0.062745" stroke="#000000" stroke-opacity="0.062745" points="901,-111 827,-111 827,-75 901,-75 901,-111"/>
<text text-anchor="start" x="835" y="-89.3" font-family="verdana" font-size="14.00">Ordered</text>
</g>
<!-- Variables -->
<g id="node2" class="node"><title>Variables</title>
<polygon fill="#000000" fill-opacity="0.062745" stroke="#000000" stroke-opacity="0.062745" points="1034,-111 951,-111 951,-75 1034,-75 1034,-111"/>
<text text-anchor="start" x="959" y="-89.3" font-family="verdana" font-size="14.00">Variables</text>
</g>
<!-- Ordered&#45;&gt;Variables -->
<g id="edge1" class="edge"><title>Ordered&#45;&gt;Variables</title>
<path fill="none" stroke="#6baed6" d="M901.25,-93C913.463,-93 927.329,-93 940.465,-93"/>
<polygon fill="#6baed6" stroke="#6baed6" points="940.797,-96.5001 950.797,-93 940.797,-89.5001 940.797,-96.5001"/>
</g>
<!-- Continuous -->
<g id="node3" class="node"><title>Continuous</title>
<polygon fill="#000000" fill-opacity="0.062745" stroke="#000000" stroke-opacity="0.062745" points="775.5,-186 677.5,-186 677.5,-150 775.5,-150 775.5,-186"/>
<text text-anchor="start" x="685.5" y="-164.3" font-family="verdana" font-size="14.00">Continuous</text>
</g>
<!-- Continuous&#45;&gt;Ordered -->
<g id="edge2" class="edge"><title>Continuous&#45;&gt;Ordered</title>
<path fill="none" stroke="#6baed6" d="M763.854,-149.948C768.302,-147.649 772.769,-145.296 777,-143 792.588,-134.542 809.508,-124.824 824.183,-116.218"/>
<polygon fill="#6baed6" stroke="#6baed6" points="826.159,-119.117 832.998,-111.025 822.606,-113.085 826.159,-119.117"/>
</g>
<!-- Lo&#45;hi -->
<g id="node4" class="node"><title>Lo&#45;hi</title>
<polygon fill="#000000" fill-opacity="0.062745" stroke="#000000" stroke-opacity="0.062745" points="626,-186 572,-186 572,-150 626,-150 626,-186"/>
<text text-anchor="start" x="580" y="-164.3" font-family="verdana" font-size="14.00">Lo&#45;hi</text>
</g>
<!-- Lo&#45;hi&#45;&gt;Continuous -->
<g id="edge3" class="edge"><title>Lo&#45;hi&#45;&gt;Continuous</title>
<path fill="none" stroke="#6baed6" d="M626.004,-168C637.963,-168 652.671,-168 667.075,-168"/>
<polygon fill="#6baed6" stroke="#6baed6" points="667.465,-171.5 677.465,-168 667.465,-164.5 667.465,-171.5"/>
</g>
<!-- Anchored lo&#45;hi -->
<g id="node5" class="node"><title>Anchored lo&#45;hi</title>
<polygon fill="#000000" fill-opacity="0.062745" stroke="#000000" stroke-opacity="0.062745" points="518.5,-211 395.5,-211 395.5,-175 518.5,-175 518.5,-211"/>
<text text-anchor="start" x="403.5" y="-189.3" font-family="verdana" font-size="14.00">Anchored lo&#45;hi</text>
</g>
<!-- Anchored lo&#45;hi&#45;&gt;Lo&#45;hi -->
<g id="edge4" class="edge"><title>Anchored lo&#45;hi&#45;&gt;Lo&#45;hi</title>
<path fill="none" stroke="#6baed6" d="M518.592,-182.18C533.286,-179.556 548.544,-176.831 561.711,-174.48"/>
<polygon fill="#6baed6" stroke="#6baed6" points="562.543,-177.887 571.772,-172.684 561.313,-170.996 562.543,-177.887"/>
</g>
<!-- Counting numbers -->
<g id="node6" class="node"><title>Counting numbers</title>
<polygon fill="#000000" fill-opacity="0.062745" stroke="#000000" stroke-opacity="0.062745" points="342,-211 193,-211 193,-175 342,-175 342,-211"/>
<text text-anchor="start" x="201" y="-189.3" font-family="verdana" font-size="14.00">Counting numbers</text>
</g>
<!-- Counting numbers&#45;&gt;Anchored lo&#45;hi -->
<g id="edge5" class="edge"><title>Counting numbers&#45;&gt;Anchored lo&#45;hi</title>
<path fill="none" stroke="#6baed6" d="M342.067,-193C356.267,-193 371.115,-193 385.224,-193"/>
<polygon fill="#6baed6" stroke="#6baed6" points="385.347,-196.5 395.347,-193 385.347,-189.5 385.347,-196.5"/>
</g>
<!-- Rational numbers -->
<g id="node7" class="node"><title>Rational numbers</title>
<polygon fill="#000000" fill-opacity="0.062745" stroke="#000000" stroke-opacity="0.062745" points="143,-211 0,-211 0,-175 143,-175 143,-211"/>
<text text-anchor="start" x="8" y="-189.3" font-family="verdana" font-size="14.00">Rational numbers</text>
</g>
<!-- Rational numbers&#45;&gt;Counting numbers -->
<g id="edge6" class="edge"><title>Rational numbers&#45;&gt;Counting numbers</title>
<path fill="none" stroke="#6baed6" d="M143.087,-193C155.951,-193 169.485,-193 182.687,-193"/>
<polygon fill="#6baed6" stroke="#6baed6" points="182.702,-196.5 192.702,-193 182.702,-189.5 182.702,-196.5"/>
</g>
<!-- Binary (no/yes) -->
<g id="node8" class="node"><title>Binary (no/yes)</title>
<polygon fill="#000000" fill-opacity="0.062745" stroke="#000000" stroke-opacity="0.062745" points="522,-161 392,-161 392,-125 522,-125 522,-161"/>
<text text-anchor="start" x="400" y="-139.3" font-family="verdana" font-size="14.00">Binary (no/yes)</text>
</g>
<!-- Binary (no/yes)&#45;&gt;Lo&#45;hi -->
<g id="edge7" class="edge"><title>Binary (no/yes)&#45;&gt;Lo&#45;hi</title>
<path fill="none" stroke="#6baed6" d="M522.264,-154.476C535.829,-156.898 549.684,-159.372 561.772,-161.531"/>
<polygon fill="#6baed6" stroke="#6baed6" points="561.428,-165.025 571.888,-163.337 562.659,-158.134 561.428,-165.025"/>
</g>
<!-- Cyclic -->
<g id="node9" class="node"><title>Cyclic</title>
<polygon fill="#000000" fill-opacity="0.062745" stroke="#000000" stroke-opacity="0.062745" points="756,-136 697,-136 697,-100 756,-100 756,-136"/>
<text text-anchor="start" x="705" y="-114.3" font-family="verdana" font-size="14.00">Cyclic</text>
</g>
<!-- Cyclic&#45;&gt;Ordered -->
<g id="edge8" class="edge"><title>Cyclic&#45;&gt;Ordered</title>
<path fill="none" stroke="#6baed6" d="M756.236,-112.698C773.781,-109.461 796.621,-105.247 816.67,-101.548"/>
<polygon fill="#6baed6" stroke="#6baed6" points="817.356,-104.981 826.555,-99.7242 816.086,-98.0968 817.356,-104.981"/>
</g>
<!-- Hierarchical -->
<g id="node10" class="node"><title>Hierarchical</title>
<polygon fill="#000000" fill-opacity="0.062745" stroke="#000000" stroke-opacity="0.062745" points="777,-86 676,-86 676,-50 777,-50 777,-86"/>
<text text-anchor="start" x="684" y="-64.3" font-family="verdana" font-size="14.00">Hierarchical</text>
</g>
<!-- Hierarchical&#45;&gt;Ordered -->
<g id="edge9" class="edge"><title>Hierarchical&#45;&gt;Ordered</title>
<path fill="none" stroke="#6baed6" d="M777.186,-77.1671C790.178,-79.5642 804.127,-82.1378 816.923,-84.4986"/>
<polygon fill="#6baed6" stroke="#6baed6" points="816.428,-87.9664 826.897,-86.3389 817.698,-81.0826 816.428,-87.9664"/>
</g>
<!-- Nominal -->
<g id="node11" class="node"><title>Nominal</title>
<polygon fill="#000000" fill-opacity="0.062745" stroke="#000000" stroke-opacity="0.062745" points="764.5,-36 688.5,-36 688.5,-0 764.5,-0 764.5,-36"/>
<text text-anchor="start" x="696.5" y="-14.3" font-family="verdana" font-size="14.00">Nominal</text>
</g>
<!-- Nominal&#45;&gt;Ordered -->
<g id="edge10" class="edge"><title>Nominal&#45;&gt;Ordered</title>
<path fill="none" stroke="#6baed6" d="M763.854,-36.0517C768.302,-38.3515 772.769,-40.7042 777,-43 792.588,-51.4582 809.508,-61.1758 824.183,-69.7815"/>
<polygon fill="#6baed6" stroke="#6baed6" points="822.606,-72.9146 832.998,-74.975 826.159,-66.8834 822.606,-72.9146"/>
</g>
</g>
</svg>
