<?xml version="1.0" encoding="UTF-8" standalone="no"?>
<!DOCTYPE svg PUBLIC "-//W3C//DTD SVG 1.1//EN"
 "http://www.w3.org/Graphics/SVG/1.1/DTD/svg11.dtd">
<!-- Generated by graphviz version 2.38.0 (20140413.2041)
 -->
<!-- Title: foo Pages: 1 -->
<svg width="790pt" height="182pt"
 viewBox="0.00 0.00 790.00 182.00" xmlns="http://www.w3.org/2000/svg" xmlns:xlink="http://www.w3.org/1999/xlink">
<g id="graph0" class="graph" transform="scale(1 1) rotate(0) translate(4 178)">
<title>foo</title>
<g id="a_graph0"><a xlink:title=" ">
<polygon fill="white" stroke="none" points="-4,4 -4,-178 786,-178 786,4 -4,4"/>
</a>
</g>
<g id="clust1" class="cluster"><title>cluster_Floodingsubproject</title>
<g id="a_clust1"><a xlink:title=" ">
<path fill="#fcfbfd" stroke="#fdd0a2" d="M20,-8C20,-8 490,-8 490,-8 496,-8 502,-14 502,-20 502,-20 502,-71 502,-71 502,-77 496,-83 490,-83 490,-83 20,-83 20,-83 14,-83 8,-77 8,-71 8,-71 8,-20 8,-20 8,-14 14,-8 20,-8"/>
<text text-anchor="start" x="16" y="-67.8" font-family="arial" font-size="14.00">Flooding sub&#45;project</text>
</a>
</g>
</g>
<g id="clust2" class="cluster"><title>cluster_Livelihoodssubproject</title>
<g id="a_clust2"><a xlink:title=" ">
<path fill="#fcfbfd" stroke="#fdd0a2" d="M29,-91C29,-91 482,-91 482,-91 488,-91 494,-97 494,-103 494,-103 494,-154 494,-154 494,-160 488,-166 482,-166 482,-166 29,-166 29,-166 23,-166 17,-160 17,-154 17,-154 17,-103 17,-103 17,-97 23,-91 29,-91"/>
<text text-anchor="start" x="25" y="-150.8" font-family="arial" font-size="14.00">Livelihoods sub&#45;project</text>
</a>
</g>
</g>
<!--  Flood risk///((low rather_than high)) !lohi !frown -->
<g id="node1" class="node"><title> Flood risk///((low rather_than high)) !lohi !frown</title>
<polygon fill="#e5f5e0" stroke="#e5f5e0" stroke-width="2" points="494,-52 296,-52 296,-16 494,-16 494,-52"/>
<text text-anchor="start" x="361.5" y="-37.8" font-family="arial" font-size="14.00"> Flood risk</text>
<text text-anchor="start" x="304" y="-23.8" font-family="arial" font-size="14.00"> </text>
<text text-anchor="start" x="308" y="-23.8" font-family="arial" font-size="14.00" fill="darkgreen">((low rather_than high))</text>
<text text-anchor="start" x="452" y="-23.8" font-family="arial" font-size="14.00"> &#160;◪ ☹</text>
</g>
<!-- ((Improved)) &#160;village resilience !lohi -->
<g id="node2" class="node"><title>((Improved)) &#160;village resilience !lohi</title>
<polygon fill="none" stroke="#41ab5d" stroke-width="2" stroke-dasharray="5,2" points="782,-99 556,-99 556,-63 782,-63 782,-99"/>
<text text-anchor="start" x="564" y="-78.3" font-family="arial" font-size="14.00"> </text>
<text text-anchor="start" x="568" y="-78.3" font-family="arial" font-size="14.00" fill="darkgreen">((Improved))</text>
<text text-anchor="start" x="647" y="-78.3" font-family="arial" font-size="14.00"> &#160;village resilience ◪</text>
</g>
<!--  Flood risk///((low rather_than high)) !lohi !frown&#45;&gt;((Improved)) &#160;village resilience !lohi -->
<g id="edge1" class="edge"><title> Flood risk///((low rather_than high)) !lohi !frown&#45;&gt;((Improved)) &#160;village resilience !lohi</title>
<path fill="none" stroke="#41ab5d" stroke-dasharray="5,2" d="M494.198,-50.9681C513.464,-54.2972 533.83,-57.8162 553.573,-61.2277"/>
<polygon fill="#41ab5d" stroke="#41ab5d" points="553.068,-64.6923 563.518,-62.9462 554.26,-57.7945 553.068,-64.6923"/>
<text text-anchor="start" x="519" y="-60.8" font-family="Times New Roman,serif" font-size="14.00">⊖</text>
</g>
<!--  !do Preparedness intervention !tick -->
<g id="node3" class="node"><title> !do Preparedness intervention !tick</title>
<polygon fill="#e5f5e0" stroke="#e5f5e0" stroke-width="2" points="234,-52 16,-52 16,-16 234,-16 234,-52"/>
<text text-anchor="start" x="24" y="-31.3" font-family="arial" font-size="14.00" fill="darkgreen">▶ </text>
<text text-anchor="start" x="40" y="-31.3" font-family="arial" font-size="14.00"> Preparedness intervention </text>
<text text-anchor="start" x="214" y="-31.3" font-family="arial" font-size="14.00" fill="green">✔</text>
</g>
<!--  !do Preparedness intervention !tick&#45;&gt; Flood risk///((low rather_than high)) !lohi !frown -->
<g id="edge2" class="edge"><title> !do Preparedness intervention !tick&#45;&gt; Flood risk///((low rather_than high)) !lohi !frown</title>
<path fill="none" stroke="#41ab5d" d="M234.233,-34C251.076,-34 268.483,-34 285.335,-34"/>
<polygon fill="#41ab5d" stroke="#41ab5d" points="285.746,-37.5001 295.746,-34 285.746,-30.5001 285.746,-37.5001"/>
<text text-anchor="start" x="259" y="-37.8" font-family="Times New Roman,serif" font-size="14.00">⊖</text>
</g>
<!--  Average family income ///(($5 rather_than $4)) !lohi !heart -->
<g id="node4" class="node"><title> Average family income ///(($5 rather_than $4)) !lohi !heart</title>
<polygon fill="#e5f5e0" stroke="#e5f5e0" stroke-width="2" points="486,-135 304,-135 304,-99 486,-99 486,-135"/>
<text text-anchor="start" x="319" y="-120.8" font-family="arial" font-size="14.00"> Average family income </text>
<text text-anchor="start" x="312" y="-106.8" font-family="arial" font-size="14.00"> </text>
<text text-anchor="start" x="316" y="-106.8" font-family="arial" font-size="14.00" fill="darkgreen">(($5 rather_than $4))</text>
<text text-anchor="start" x="446" y="-106.8" font-family="arial" font-size="14.00"> &#160;◪ </text>
<text text-anchor="start" x="469" y="-106.8" font-family="arial" font-size="14.00" fill="orange">♥</text>
</g>
<!--  Average family income ///(($5 rather_than $4)) !lohi !heart&#45;&gt;((Improved)) &#160;village resilience !lohi -->
<g id="edge3" class="edge"><title> Average family income ///(($5 rather_than $4)) !lohi !heart&#45;&gt;((Improved)) &#160;village resilience !lohi</title>
<path fill="none" stroke="#41ab5d" stroke-dasharray="5,2" d="M486.194,-105.063C505.244,-102.541 525.652,-99.8402 545.661,-97.1919"/>
<polygon fill="#41ab5d" stroke="#41ab5d" points="546.306,-100.637 555.76,-95.8553 545.387,-93.6977 546.306,-100.637"/>
<text text-anchor="start" x="519" y="-104.8" font-family="Times New Roman,serif" font-size="14.00">⊕</text>
</g>
<!-- !do Livelihoods intervention !tick -->
<g id="node5" class="node"><title>!do Livelihoods intervention !tick</title>
<polygon fill="#e5f5e0" stroke="#e5f5e0" stroke-width="2" points="225,-135 25,-135 25,-99 225,-99 225,-135"/>
<text text-anchor="start" x="33" y="-114.3" font-family="arial" font-size="14.00" fill="darkgreen">▶ </text>
<text text-anchor="start" x="49" y="-114.3" font-family="arial" font-size="14.00"> Livelihoods intervention </text>
<text text-anchor="start" x="205" y="-114.3" font-family="arial" font-size="14.00" fill="green">✔</text>
</g>
<!-- !do Livelihoods intervention !tick&#45;&gt; Average family income ///(($5 rather_than $4)) !lohi !heart -->
<g id="edge4" class="edge"><title>!do Livelihoods intervention !tick&#45;&gt; Average family income ///(($5 rather_than $4)) !lohi !heart</title>
<path fill="none" stroke="#41ab5d" d="M225.032,-117C247.402,-117 271.169,-117 293.595,-117"/>
<polygon fill="#41ab5d" stroke="#41ab5d" points="293.794,-120.5 303.794,-117 293.794,-113.5 293.794,-120.5"/>
<text text-anchor="start" x="259" y="-120.8" font-family="Times New Roman,serif" font-size="14.00">⊕</text>
</g>
</g>
</svg>
