<?xml version="1.0" encoding="UTF-8" standalone="no"?>
<!DOCTYPE svg PUBLIC "-//W3C//DTD SVG 1.1//EN"
 "http://www.w3.org/Graphics/SVG/1.1/DTD/svg11.dtd">
<!-- Generated by graphviz version 2.38.0 (20140413.2041)
 -->
<!-- Title: foo Pages: 1 -->
<svg width="515pt" height="182pt"
 viewBox="0.00 0.00 515.00 182.00" xmlns="http://www.w3.org/2000/svg" xmlns:xlink="http://www.w3.org/1999/xlink">
<g id="graph0" class="graph" transform="scale(1 1) rotate(0) translate(4 178)">
<title>foo</title>
<g id="a_graph0"><a xlink:title=" ">
<polygon fill="white" stroke="none" points="-4,4 -4,-178 511,-178 511,4 -4,4"/>
</a>
</g>
<g id="clust1" class="cluster"><title>cluster_Floodingsubproject</title>
<g id="a_clust1"><a xlink:title=" ">
<path fill="#fcfbfd" stroke="#dadaeb" d="M20,-8C20,-8 315,-8 315,-8 321,-8 327,-14 327,-20 327,-20 327,-71 327,-71 327,-77 321,-83 315,-83 315,-83 20,-83 20,-83 14,-83 8,-77 8,-71 8,-71 8,-20 8,-20 8,-14 14,-8 20,-8"/>
<text text-anchor="start" x="16" y="-67.8" font-family="arial" font-size="14.00">Flooding sub&#45;project</text>
</a>
</g>
</g>
<g id="clust2" class="cluster"><title>cluster_Livelihoodssubproject</title>
<g id="a_clust2"><a xlink:title=" ">
<path fill="#fcfbfd" stroke="#dadaeb" d="M29,-91C29,-91 336,-91 336,-91 342,-91 348,-97 348,-103 348,-103 348,-154 348,-154 348,-160 342,-166 336,-166 336,-166 29,-166 29,-166 23,-166 17,-160 17,-154 17,-154 17,-103 17,-103 17,-97 23,-91 29,-91"/>
<text text-anchor="start" x="25" y="-150.8" font-family="arial" font-size="14.00">Livelihoods sub&#45;project</text>
</a>
</g>
</g>
<!--  Flood risk !lohi -->
<g id="node1" class="node"><title> Flood risk !lohi</title>
<polygon fill="#e5f5e0" stroke="#e5f5e0" stroke-width="2" points="319,-52 225,-52 225,-16 319,-16 319,-52"/>
<text text-anchor="start" x="233" y="-30.3" font-family="arial" font-size="14.00">Flood risk ◪</text>
</g>
<!-- Village resilience !noyes !heart  -->
<g id="node2" class="node"><title>Village resilience !noyes !heart </title>
<polygon fill="none" stroke="#41ab5d" stroke-width="2" stroke-dasharray="5,2" points="507,-99 402,-99 402,-63 507,-63 507,-99"/>
<text text-anchor="start" x="433" y="-84.8" font-family="arial" font-size="14.00">Village</text>
<text text-anchor="start" x="410" y="-70.8" font-family="arial" font-size="14.00">resilience ◨ </text>
<text text-anchor="start" x="490" y="-70.8" font-family="arial" font-size="14.00" fill="orange">♥</text>
</g>
<!--  Flood risk !lohi&#45;&gt;Village resilience !noyes !heart  -->
<g id="edge1" class="edge"><title> Flood risk !lohi&#45;&gt;Village resilience !noyes !heart </title>
<path fill="none" stroke="#41ab5d" stroke-dasharray="5,2" d="M319.015,-45.9817C341.231,-51.7664 368.197,-58.7882 392.134,-65.0209"/>
<polygon fill="#41ab5d" stroke="#41ab5d" points="391.275,-68.4141 401.834,-67.5469 393.039,-61.6399 391.275,-68.4141"/>
<text text-anchor="start" x="365" y="-64.8" font-family="Times New Roman,serif" font-size="14.00">⊖</text>
</g>
<!--  !do Preparedness intervention !noyes -->
<g id="node3" class="node"><title> !do Preparedness intervention !noyes</title>
<polygon fill="#e5f5e0" stroke="#e5f5e0" stroke-width="2" points="142,-52 16,-52 16,-16 142,-16 142,-52"/>
<text text-anchor="start" x="24" y="-37.8" font-family="arial" font-size="14.00" fill="green">▶ </text>
<text text-anchor="start" x="40" y="-37.8" font-family="arial" font-size="14.00"> Preparedness</text>
<text text-anchor="start" x="35" y="-23.8" font-family="arial" font-size="14.00">intervention ◨</text>
</g>
<!--  !do Preparedness intervention !noyes&#45;&gt; Flood risk !lohi -->
<g id="edge2" class="edge"><title> !do Preparedness intervention !noyes&#45;&gt; Flood risk !lohi</title>
<path fill="none" stroke="#41ab5d" d="M142.012,-34C165.344,-34 191.729,-34 214.529,-34"/>
<polygon fill="#41ab5d" stroke="#41ab5d" points="214.729,-37.5001 224.729,-34 214.729,-30.5001 214.729,-37.5001"/>
<text text-anchor="start" x="167" y="-37.8" font-family="Times New Roman,serif" font-size="14.00">⊖</text>
</g>
<!-- *Increased* family income !lohi -->
<g id="node4" class="node"><title>*Increased* family income !lohi</title>
<polygon fill="#e5f5e0" stroke="#e5f5e0" stroke-width="2" points="340,-135 204,-135 204,-99 340,-99 340,-135"/>
<text text-anchor="start" x="212" y="-120.8" font-family="arial" font-size="14.00" fill="darkgreen">*Increased* </text>
<text text-anchor="start" x="291" y="-120.8" font-family="arial" font-size="14.00"> family</text>
<text text-anchor="start" x="241" y="-106.8" font-family="arial" font-size="14.00">income ◪</text>
</g>
<!-- *Increased* family income !lohi&#45;&gt;Village resilience !noyes !heart  -->
<g id="edge3" class="edge"><title>*Increased* family income !lohi&#45;&gt;Village resilience !noyes !heart </title>
<path fill="none" stroke="#41ab5d" stroke-dasharray="5,2" d="M340.212,-103.595C357.061,-100.234 375.06,-96.6446 391.635,-93.3386"/>
<polygon fill="#41ab5d" stroke="#41ab5d" points="392.627,-96.7098 401.75,-91.3214 391.258,-89.845 392.627,-96.7098"/>
<text text-anchor="start" x="365" y="-101.8" font-family="Times New Roman,serif" font-size="14.00">⊕</text>
</g>
<!-- !do Livelihoods intervention !noyes -->
<g id="node5" class="node"><title>!do Livelihoods intervention !noyes</title>
<polygon fill="#e5f5e0" stroke="#e5f5e0" stroke-width="2" points="133,-135 25,-135 25,-99 133,-99 133,-135"/>
<text text-anchor="start" x="33" y="-120.8" font-family="arial" font-size="14.00" fill="green">▶ </text>
<text text-anchor="start" x="49" y="-120.8" font-family="arial" font-size="14.00"> Livelihoods</text>
<text text-anchor="start" x="35" y="-106.8" font-family="arial" font-size="14.00">intervention ◨</text>
</g>
<!-- !do Livelihoods intervention !noyes&#45;&gt;*Increased* family income !lohi -->
<g id="edge4" class="edge"><title>!do Livelihoods intervention !noyes&#45;&gt;*Increased* family income !lohi</title>
<path fill="none" stroke="#41ab5d" d="M133.204,-117C151.901,-117 173.308,-117 193.586,-117"/>
<polygon fill="#41ab5d" stroke="#41ab5d" points="193.749,-120.5 203.749,-117 193.749,-113.5 193.749,-120.5"/>
<text text-anchor="start" x="167" y="-120.8" font-family="Times New Roman,serif" font-size="14.00">⊕</text>
</g>
</g>
</svg>
