<?xml version="1.0" encoding="UTF-8" standalone="no"?>
<!DOCTYPE svg PUBLIC "-//W3C//DTD SVG 1.1//EN"
 "http://www.w3.org/Graphics/SVG/1.1/DTD/svg11.dtd">
<!-- Generated by graphviz version 2.38.0 (20140413.2041)
 -->
<!-- Title: foo Pages: 1 -->
<svg width="360pt" height="106pt"
 viewBox="0.00 0.00 360.00 106.00" xmlns="http://www.w3.org/2000/svg" xmlns:xlink="http://www.w3.org/1999/xlink">
<g id="graph0" class="graph" transform="scale(1 1) rotate(0) translate(4 102)">
<title>foo</title>
<g id="a_graph0"><a xlink:title=" ">
<polygon fill="white" stroke="none" points="-4,4 -4,-102 356,-102 356,4 -4,4"/>
</a>
</g>
<!-- ((12 rather_than 10)) &#160;teacher training weekends -->
<g id="node1" class="node"><title>((12 rather_than 10)) &#160;teacher training weekends</title>
<polygon fill="#e5f5e0" stroke="#e5f5e0" stroke-width="2" points="217,-98 130,-98 130,-0 217,-0 217,-98"/>
<text text-anchor="start" x="160.5" y="-82.8" font-family="arial" font-size="14.00" fill="green">((12</text>
<text text-anchor="start" x="138" y="-67.8" font-family="arial" font-size="14.00" fill="green">rather_than</text>
<text text-anchor="start" x="160.5" y="-52.8" font-family="arial" font-size="14.00" fill="green">10))</text>
<text text-anchor="start" x="149.5" y="-37.8" font-family="arial" font-size="14.00">teacher</text>
<text text-anchor="start" x="150.5" y="-22.8" font-family="arial" font-size="14.00">training</text>
<text text-anchor="start" x="141" y="-7.8" font-family="arial" font-size="14.00">weekends</text>
</g>
<!-- ((20% improved)) &#160;teaching quality -->
<g id="node2" class="node"><title>((20% improved)) &#160;teaching quality</title>
<polygon fill="#e5f5e0" stroke="#e5f5e0" stroke-width="2" points="352,-83 267,-83 267,-15 352,-15 352,-83"/>
<text text-anchor="start" x="290" y="-67.8" font-family="arial" font-size="14.00" fill="green">((20%</text>
<text text-anchor="start" x="275" y="-52.8" font-family="arial" font-size="14.00" fill="green">improved))</text>
<text text-anchor="start" x="282.5" y="-37.8" font-family="arial" font-size="14.00">teaching</text>
<text text-anchor="start" x="289.5" y="-22.8" font-family="arial" font-size="14.00">quality</text>
</g>
<!-- ((12 rather_than 10)) &#160;teacher training weekends&#45;&gt;((20% improved)) &#160;teaching quality -->
<g id="edge1" class="edge"><title>((12 rather_than 10)) &#160;teacher training weekends&#45;&gt;((20% improved)) &#160;teaching quality</title>
<path fill="none" stroke="#41ab5d" d="M217.267,-49C229.717,-49 243.457,-49 256.414,-49"/>
<polygon fill="#41ab5d" stroke="#41ab5d" points="256.597,-52.5001 266.597,-49 256.597,-45.5001 256.597,-52.5001"/>
</g>
<!-- ((1000 EUR extra)) &#160;NGO financial resources -->
<g id="node3" class="node"><title>((1000 EUR extra)) &#160;NGO financial resources</title>
<polygon fill="#e5f5e0" stroke="#e5f5e0" stroke-width="2" points="80,-98 0,-98 0,-0 80,-0 80,-98"/>
<text text-anchor="start" x="18.5" y="-82.8" font-family="arial" font-size="14.00" fill="green">((1000</text>
<text text-anchor="start" x="24.5" y="-67.8" font-family="arial" font-size="14.00" fill="green">EUR</text>
<text text-anchor="start" x="20" y="-52.8" font-family="arial" font-size="14.00" fill="green">extra))</text>
<text text-anchor="start" x="23.5" y="-37.8" font-family="arial" font-size="14.00">NGO</text>
<text text-anchor="start" x="14" y="-22.8" font-family="arial" font-size="14.00">financial</text>
<text text-anchor="start" x="8" y="-7.8" font-family="arial" font-size="14.00">resources</text>
</g>
<!-- ((1000 EUR extra)) &#160;NGO financial resources&#45;&gt;((12 rather_than 10)) &#160;teacher training weekends -->
<g id="edge2" class="edge"><title>((1000 EUR extra)) &#160;NGO financial resources&#45;&gt;((12 rather_than 10)) &#160;teacher training weekends</title>
<path fill="none" stroke="#41ab5d" d="M80.0983,-49C92.4044,-49 106.21,-49 119.323,-49"/>
<polygon fill="#41ab5d" stroke="#41ab5d" points="119.648,-52.5001 129.648,-49 119.648,-45.5001 119.648,-52.5001"/>
</g>
</g>
</svg>
