<?xml version="1.0" encoding="UTF-8" standalone="no"?>
<!DOCTYPE svg PUBLIC "-//W3C//DTD SVG 1.1//EN"
 "http://www.w3.org/Graphics/SVG/1.1/DTD/svg11.dtd">
<!-- Generated by graphviz version 2.38.0 (20140413.2041)
 -->
<!-- Title: foo Pages: 1 -->
<svg width="599pt" height="164pt"
 viewBox="0.00 0.00 599.00 164.00" xmlns="http://www.w3.org/2000/svg" xmlns:xlink="http://www.w3.org/1999/xlink">
<g id="graph0" class="graph" transform="scale(1 1) rotate(0) translate(4 160)">
<title>foo</title>
<g id="a_graph0"><a xlink:title=" ">
<polygon fill="#c7e9c0" stroke="none" points="-4,4 -4,-160 595,-160 595,4 -4,4"/>
<text text-anchor="start" x="187" y="-7.2" font-family="tahoma" font-size="11.00" fill="#238b45">All Variables are expressed using Differences</text>
</a>
</g>
<!-- Output: ((improved)) student classwork scores -->
<g id="node1" class="node"><title>Output: ((improved)) student classwork scores</title>
<polygon fill="#fdd0a2" stroke="#fdd0a2" points="373,-106 197,-106 197,-70 373,-70 373,-106"/>
<text text-anchor="start" x="217" y="-91.8" font-family="Helvetica,sans-Serif" font-size="14.00" fill="#006d2c">Output: &#160;</text>
<text text-anchor="start" x="271" y="-91.8" font-family="Helvetica,sans-Serif" font-size="14.00" fill="darkgreen">((improved))</text>
<text text-anchor="start" x="349" y="-91.8" font-family="Helvetica,sans-Serif" font-size="14.00" fill="#006d2c"> </text>
<text text-anchor="start" x="205" y="-77.8" font-family="Helvetica,sans-Serif" font-size="14.00" fill="#006d2c">student classwork scores</text>
</g>
<!-- Outcome: ((improved)) student exam results -->
<g id="node2" class="node"><title>Outcome: ((improved)) student exam results</title>
<polygon fill="#fd8d3c" stroke="#fd8d3c" points="591,-131 423,-131 423,-95 591,-95 591,-131"/>
<text text-anchor="start" x="431" y="-116.8" font-family="Helvetica,sans-Serif" font-size="14.00" fill="#006d2c">Outcome: &#160;</text>
<text text-anchor="start" x="501" y="-116.8" font-family="Helvetica,sans-Serif" font-size="14.00" fill="darkgreen">((improved))</text>
<text text-anchor="start" x="579" y="-116.8" font-family="Helvetica,sans-Serif" font-size="14.00" fill="#006d2c"> </text>
<text text-anchor="start" x="441.5" y="-102.8" font-family="Helvetica,sans-Serif" font-size="14.00" fill="#006d2c">student exam results</text>
</g>
<!-- Output: ((improved)) student classwork scores&#45;&gt;Outcome: ((improved)) student exam results -->
<g id="edge1" class="edge"><title>Output: ((improved)) student classwork scores&#45;&gt;Outcome: ((improved)) student exam results</title>
<path fill="none" stroke="#41ab5d" stroke-width="2" d="M373.266,-97.9166C386.267,-99.394 399.712,-100.922 412.829,-102.412"/>
<polygon fill="#41ab5d" stroke="#41ab5d" stroke-width="2" points="412.452,-105.892 422.783,-103.544 413.242,-98.9368 412.452,-105.892"/>
</g>
<!-- Activity: student workshop 1 ((held)) -->
<g id="node3" class="node"><title>Activity: student workshop 1 ((held))</title>
<polygon fill="#fff5eb" stroke="#fff5eb" points="147,-106 0,-106 0,-70 147,-70 147,-106"/>
<text text-anchor="start" x="24" y="-91.8" font-family="Helvetica,sans-Serif" font-size="14.00" fill="#006d2c">Activity: student</text>
<text text-anchor="start" x="8" y="-77.8" font-family="Helvetica,sans-Serif" font-size="14.00" fill="#006d2c">workshop 1 &#160;</text>
<text text-anchor="start" x="89" y="-77.8" font-family="Helvetica,sans-Serif" font-size="14.00" fill="darkgreen">((held))</text>
<text text-anchor="start" x="135" y="-77.8" font-family="Helvetica,sans-Serif" font-size="14.00" fill="#006d2c"> </text>
</g>
<!-- Activity: student workshop 1 ((held))&#45;&gt;Output: ((improved)) student classwork scores -->
<g id="edge2" class="edge"><title>Activity: student workshop 1 ((held))&#45;&gt;Output: ((improved)) student classwork scores</title>
<path fill="none" stroke="#41ab5d" stroke-width="2" d="M147.185,-88C159.899,-88 173.31,-88 186.564,-88"/>
<polygon fill="#41ab5d" stroke="#41ab5d" stroke-width="2" points="186.655,-91.5001 196.655,-88 186.655,-84.5001 186.655,-91.5001"/>
</g>
<!-- Activity: students ((given)) laptops -->
<g id="node4" class="node"><title>Activity: students ((given)) laptops</title>
<polygon fill="#fff5eb" stroke="#fff5eb" points="137,-56 10,-56 10,-20 137,-20 137,-56"/>
<text text-anchor="start" x="20.5" y="-41.8" font-family="Helvetica,sans-Serif" font-size="14.00" fill="#006d2c">Activity: students</text>
<text text-anchor="start" x="18" y="-27.8" font-family="Helvetica,sans-Serif" font-size="14.00" fill="#006d2c"> </text>
<text text-anchor="start" x="22" y="-27.8" font-family="Helvetica,sans-Serif" font-size="14.00" fill="darkgreen">((given))</text>
<text text-anchor="start" x="74" y="-27.8" font-family="Helvetica,sans-Serif" font-size="14.00" fill="#006d2c"> &#160;laptops</text>
</g>
<!-- Activity: students ((given)) laptops&#45;&gt;Output: ((improved)) student classwork scores -->
<g id="edge3" class="edge"><title>Activity: students ((given)) laptops&#45;&gt;Output: ((improved)) student classwork scores</title>
<path fill="none" stroke="#41ab5d" stroke-width="2" d="M137.073,-52.9339C156.346,-57.5336 177.905,-62.679 198.445,-67.5811"/>
<polygon fill="#41ab5d" stroke="#41ab5d" stroke-width="2" points="197.892,-71.0475 208.432,-69.9646 199.517,-64.2387 197.892,-71.0475"/>
</g>
<!-- Output: ((improved)) student exam skills -->
<g id="node5" class="node"><title>Output: ((improved)) student exam skills</title>
<polygon fill="#fdd0a2" stroke="#fdd0a2" points="361,-156 209,-156 209,-120 361,-120 361,-156"/>
<text text-anchor="start" x="217" y="-141.8" font-family="Helvetica,sans-Serif" font-size="14.00" fill="#006d2c">Output: &#160;</text>
<text text-anchor="start" x="271" y="-141.8" font-family="Helvetica,sans-Serif" font-size="14.00" fill="darkgreen">((improved))</text>
<text text-anchor="start" x="349" y="-141.8" font-family="Helvetica,sans-Serif" font-size="14.00" fill="#006d2c"> </text>
<text text-anchor="start" x="225" y="-127.8" font-family="Helvetica,sans-Serif" font-size="14.00" fill="#006d2c">student exam skills</text>
</g>
<!-- Output: ((improved)) student exam skills&#45;&gt;Outcome: ((improved)) student exam results -->
<g id="edge4" class="edge"><title>Output: ((improved)) student exam skills&#45;&gt;Outcome: ((improved)) student exam results</title>
<path fill="none" stroke="#41ab5d" stroke-width="2" d="M361.096,-129.466C377.745,-127.574 395.584,-125.547 412.855,-123.585"/>
<polygon fill="#41ab5d" stroke="#41ab5d" stroke-width="2" points="413.404,-127.045 422.945,-122.438 412.614,-120.09 413.404,-127.045"/>
</g>
<!-- Activity: student workshop 2 ((held)) -->
<g id="node6" class="node"><title>Activity: student workshop 2 ((held))</title>
<polygon fill="#fff5eb" stroke="#fff5eb" points="147,-156 0,-156 0,-120 147,-120 147,-156"/>
<text text-anchor="start" x="24" y="-141.8" font-family="Helvetica,sans-Serif" font-size="14.00" fill="#006d2c">Activity: student</text>
<text text-anchor="start" x="8" y="-127.8" font-family="Helvetica,sans-Serif" font-size="14.00" fill="#006d2c">workshop 2 &#160;</text>
<text text-anchor="start" x="89" y="-127.8" font-family="Helvetica,sans-Serif" font-size="14.00" fill="darkgreen">((held))</text>
<text text-anchor="start" x="135" y="-127.8" font-family="Helvetica,sans-Serif" font-size="14.00" fill="#006d2c"> </text>
</g>
<!-- Activity: student workshop 2 ((held))&#45;&gt;Output: ((improved)) student exam skills -->
<g id="edge5" class="edge"><title>Activity: student workshop 2 ((held))&#45;&gt;Output: ((improved)) student exam skills</title>
<path fill="none" stroke="#41ab5d" stroke-width="2" d="M147.185,-138C163.881,-138 181.779,-138 198.946,-138"/>
<polygon fill="#41ab5d" stroke="#41ab5d" stroke-width="2" points="198.954,-141.5 208.954,-138 198.954,-134.5 198.954,-141.5"/>
</g>
</g>
</svg>
