<?xml version="1.0" encoding="UTF-8" standalone="no"?>
<!DOCTYPE svg PUBLIC "-//W3C//DTD SVG 1.1//EN"
 "http://www.w3.org/Graphics/SVG/1.1/DTD/svg11.dtd">
<!-- Generated by graphviz version 2.38.0 (20140413.2041)
 -->
<!-- Title: foo Pages: 1 -->
<svg width="3491pt" height="1242pt"
 viewBox="0.00 0.00 3491.00 1242.00" xmlns="http://www.w3.org/2000/svg" xmlns:xlink="http://www.w3.org/1999/xlink">
<g id="graph0" class="graph" transform="scale(1 1) rotate(0) translate(4 1238)">
<title>foo</title>
<g id="a_graph0"><a xlink:title=" ">
<polygon fill="white" stroke="none" points="-4,4 -4,-1238 3487,-1238 3487,4 -4,4"/>
</a>
</g>
<!-- International police interdiction -->
<g id="node1" class="node"><title>International police interdiction</title>
<polygon fill="#e5f5e0" stroke="#e5f5e0" stroke-width="2" points="422,-639 0,-639 0,-525 422,-525 422,-639"/>
<text text-anchor="start" x="8" y="-596.6" font-family="arial" font-size="48.00">International police</text>
<text text-anchor="start" x="94" y="-543.6" font-family="arial" font-size="48.00">interdiction</text>
</g>
<!-- Corruption -->
<g id="node2" class="node"><title>Corruption</title>
<polygon fill="#e5f5e0" stroke="#e5f5e0" stroke-width="2" points="751,-540 509,-540 509,-468 751,-468 751,-540"/>
<text text-anchor="start" x="517" y="-492.1" font-family="arial" font-size="48.00">Corruption</text>
</g>
<!-- International police interdiction&#45;&gt;Corruption -->
<g id="edge1" class="edge"><title>International police interdiction&#45;&gt;Corruption</title>
<path fill="none" stroke="#41ab5d" stroke-width="5" d="M422.027,-542.714C448.205,-537.818 474.35,-532.927 498.813,-528.352"/>
<polygon fill="#41ab5d" stroke="#41ab5d" stroke-width="5" points="499.799,-532.618 508.824,-526.479 498.19,-524.017 499.799,-532.618"/>
<text text-anchor="start" x="446.5" y="-550.6" font-family="Times New Roman,serif" font-size="48.00">⊖</text>
</g>
<!-- Cartels -->
<g id="node3" class="node"><title>Cartels</title>
<polygon fill="#e5f5e0" stroke="#e5f5e0" stroke-width="2" points="3025.5,-935 2856.5,-935 2856.5,-863 3025.5,-863 3025.5,-935"/>
<text text-anchor="start" x="2864.5" y="-887.1" font-family="arial" font-size="48.00">Cartels</text>
</g>
<!-- International police interdiction&#45;&gt;Cartels -->
<g id="edge2" class="edge"><title>International police interdiction&#45;&gt;Cartels</title>
<path fill="none" stroke="#41ab5d" stroke-width="5" d="M223.096,-639.163C255.813,-788.886 366.55,-1181 629,-1181 629,-1181 629,-1181 2554,-1181 2713.15,-1181 2850.46,-1022.77 2909.35,-943.357"/>
<polygon fill="#41ab5d" stroke="#41ab5d" stroke-width="5" points="2913.09,-945.654 2915.47,-935.002 2906.03,-940.482 2913.09,-945.654"/>
<text text-anchor="start" x="1328.5" y="-1195.6" font-family="Times New Roman,serif" font-size="48.00">⊖</text>
</g>
<!-- Acres of coca -->
<g id="node4" class="node"><title>Acres of coca</title>
<polygon fill="#e5f5e0" stroke="#e5f5e0" stroke-width="2" points="3482.5,-191 3173.5,-191 3173.5,-119 3482.5,-119 3482.5,-191"/>
<text text-anchor="start" x="3181.5" y="-143.1" font-family="arial" font-size="48.00">Acres of coca</text>
</g>
<!-- International police interdiction&#45;&gt;Acres of coca -->
<g id="edge3" class="edge"><title>International police interdiction&#45;&gt;Acres of coca</title>
<path fill="none" stroke="#41ab5d" stroke-width="5" d="M224.015,-524.87C258.546,-378.231 372.475,-0 629,-0 629,-0 629,-0 2942,-0 3063.69,-0 3192.38,-67.4579 3265.87,-113.369"/>
<polygon fill="#41ab5d" stroke="#41ab5d" stroke-width="5" points="3263.76,-117.213 3274.55,-118.855 3268.43,-109.815 3263.76,-117.213"/>
<text text-anchor="start" x="1640.5" y="-14.6" font-family="Times New Roman,serif" font-size="48.00">⊖</text>
</g>
<!-- Profits -->
<g id="node5" class="node"><title>Profits</title>
<polygon fill="#e5f5e0" stroke="#e5f5e0" stroke-width="2" points="990.5,-695 837.5,-695 837.5,-623 990.5,-623 990.5,-695"/>
<text text-anchor="start" x="845.5" y="-647.1" font-family="arial" font-size="48.00">Profits</text>
</g>
<!-- International police interdiction&#45;&gt;Profits -->
<g id="edge4" class="edge"><title>International police interdiction&#45;&gt;Profits</title>
<path fill="none" stroke="#41ab5d" stroke-width="5" d="M422.244,-607.657C528.129,-620.221 658.54,-635.153 775.5,-647 792.24,-648.696 810.142,-650.364 827.309,-651.892"/>
<polygon fill="#41ab5d" stroke="#41ab5d" stroke-width="5" points="826.971,-656.254 837.317,-652.775 827.74,-647.538 826.971,-656.254"/>
<text text-anchor="start" x="611.5" y="-658.6" font-family="Times New Roman,serif" font-size="48.00">⊖</text>
</g>
<!-- Corruption&#45;&gt;Profits -->
<g id="edge7" class="edge"><title>Corruption&#45;&gt;Profits</title>
<path fill="none" stroke="#41ab5d" stroke-width="5" d="M707.411,-540.152C740.171,-556.204 778.619,-575.785 812.5,-595 824.735,-601.939 837.56,-609.706 849.8,-617.373"/>
<polygon fill="#41ab5d" stroke="#41ab5d" stroke-width="5" points="847.8,-621.285 858.591,-622.925 852.472,-613.887 847.8,-621.285"/>
<text text-anchor="start" x="775.5" y="-609.6" font-family="Times New Roman,serif" font-size="48.00">⊕</text>
</g>
<!-- Drug availability -->
<g id="node6" class="node"><title>Drug availability</title>
<polygon fill="#e5f5e0" stroke="#e5f5e0" stroke-width="2" points="1525,-526 1169,-526 1169,-454 1525,-454 1525,-526"/>
<text text-anchor="start" x="1177" y="-478.1" font-family="arial" font-size="48.00">Drug availability</text>
</g>
<!-- Corruption&#45;&gt;Drug availability -->
<g id="edge8" class="edge"><title>Corruption&#45;&gt;Drug availability</title>
<path fill="none" stroke="#41ab5d" stroke-width="5" d="M751.078,-501.649C862.324,-499.471 1029.55,-496.196 1158.4,-493.673"/>
<polygon fill="#41ab5d" stroke="#41ab5d" stroke-width="5" points="1158.87,-498.04 1168.78,-493.47 1158.7,-489.292 1158.87,-498.04"/>
<text text-anchor="start" x="895.5" y="-513.6" font-family="Times New Roman,serif" font-size="48.00">⊕</text>
</g>
<!-- Cartels&#45;&gt;Acres of coca -->
<g id="edge5" class="edge"><title>Cartels&#45;&gt;Acres of coca</title>
<path fill="none" stroke="#41ab5d" stroke-width="5" d="M2960.7,-862.864C3024.44,-739.688 3233.14,-336.387 3303.55,-200.307"/>
<polygon fill="#41ab5d" stroke="#41ab5d" stroke-width="5" points="3307.48,-202.249 3308.19,-191.357 3299.7,-198.228 3307.48,-202.249"/>
<text text-anchor="start" x="3111.5" y="-563.6" font-family="Times New Roman,serif" font-size="48.00">⊕</text>
</g>
<!-- Cartels&#45;&gt;Drug availability -->
<g id="edge6" class="edge"><title>Cartels&#45;&gt;Drug availability</title>
<path fill="none" stroke="#41ab5d" stroke-width="5" d="M2856.45,-916.675C2649.92,-956.15 2103.13,-1034.72 1703,-857 1547.64,-787.999 1425.84,-616.444 1374.49,-534.693"/>
<polygon fill="#41ab5d" stroke="#41ab5d" stroke-width="5" points="1378.16,-532.304 1369.16,-526.124 1370.73,-536.926 1378.16,-532.304"/>
<text text-anchor="start" x="2335.5" y="-982.6" font-family="Times New Roman,serif" font-size="48.00">⊕</text>
</g>
<!-- Acres of coca&#45;&gt;Drug availability -->
<g id="edge17" class="edge"><title>Acres of coca&#45;&gt;Drug availability</title>
<path fill="none" stroke="#41ab5d" stroke-width="5" d="M3173.38,-155C3102.88,-155 3018.2,-155 2942,-155 2006,-155 2006,-155 2006,-155 1751.45,-155 1495.89,-356.568 1394.05,-446.995"/>
<polygon fill="#41ab5d" stroke="#41ab5d" stroke-width="5" points="1390.94,-443.904 1386.4,-453.831 1396.77,-450.426 1390.94,-443.904"/>
<text text-anchor="start" x="2534.5" y="-169.6" font-family="Times New Roman,serif" font-size="48.00">⊕</text>
</g>
<!-- Profits&#45;&gt;Drug availability -->
<g id="edge9" class="edge"><title>Profits&#45;&gt;Drug availability</title>
<path fill="none" stroke="#41ab5d" stroke-width="5" d="M960.143,-622.996C976.827,-610.946 996.351,-598.243 1015.5,-589 1066.79,-564.243 1125.57,-544.219 1179.2,-528.828"/>
<polygon fill="#41ab5d" stroke="#41ab5d" stroke-width="5" points="1180.73,-532.943 1189.16,-526.008 1178.34,-524.525 1180.73,-532.943"/>
<text text-anchor="start" x="1015.5" y="-603.6" font-family="Times New Roman,serif" font-size="48.00">⊕</text>
</g>
<!-- Drug availability&#45;&gt;Profits -->
<g id="edge20" class="edge"><title>Drug availability&#45;&gt;Profits</title>
<path fill="none" stroke="#41ab5d" stroke-width="5" d="M1290.32,-526.083C1233.08,-561.356 1140.15,-613.629 1052.5,-641 1036.07,-646.129 1018.1,-649.797 1000.73,-652.42"/>
<polygon fill="#41ab5d" stroke="#41ab5d" stroke-width="5" points="999.878,-648.122 990.585,-653.847 1001.1,-656.786 999.878,-648.122"/>
<text text-anchor="start" x="1015.5" y="-663.6" font-family="Times New Roman,serif" font-size="48.00">⊕</text>
</g>
<!-- Drug usage -->
<g id="node8" class="node"><title>Drug usage</title>
<polygon fill="#e5f5e0" stroke="#e5f5e0" stroke-width="2" points="2140,-850 1874,-850 1874,-778 2140,-778 2140,-850"/>
<text text-anchor="start" x="1882" y="-802.1" font-family="arial" font-size="48.00">Drug usage</text>
</g>
<!-- Drug availability&#45;&gt;Drug usage -->
<g id="edge19" class="edge"><title>Drug availability&#45;&gt;Drug usage</title>
<path fill="none" stroke="#41ab5d" stroke-width="5" d="M1421.25,-526.068C1544.9,-586.956 1794.21,-709.716 1923.71,-773.481"/>
<polygon fill="#41ab5d" stroke="#41ab5d" stroke-width="5" points="1921.92,-777.476 1932.82,-777.968 1925.79,-769.626 1921.92,-777.476"/>
<text text-anchor="start" x="1640.5" y="-666.6" font-family="Times New Roman,serif" font-size="48.00">⊕</text>
</g>
<!-- American police interdiction -->
<g id="node11" class="node"><title>American police interdiction</title>
<polygon fill="#e5f5e0" stroke="#e5f5e0" stroke-width="2" points="2311,-519 1703,-519 1703,-447 2311,-447 2311,-519"/>
<text text-anchor="start" x="1711" y="-471.1" font-family="arial" font-size="48.00">American police interdiction</text>
</g>
<!-- Drug availability&#45;&gt;American police interdiction -->
<g id="edge21" class="edge"><title>Drug availability&#45;&gt;American police interdiction</title>
<path fill="none" stroke="#41ab5d" stroke-width="5" d="M1521.72,-526.063C1560.63,-532.692 1601.84,-538.59 1640.5,-542 1716.78,-548.728 1801.23,-536.415 1869.71,-521.326"/>
<polygon fill="#41ab5d" stroke="#41ab5d" stroke-width="5" points="1870.9,-525.544 1879.7,-519.082 1868.98,-517.007 1870.9,-525.544"/>
<text text-anchor="start" x="1640.5" y="-557.6" font-family="Times New Roman,serif" font-size="48.00">⊕</text>
</g>
<!-- User economic hardship -->
<g id="node7" class="node"><title>User economic hardship</title>
<polygon fill="#e5f5e0" stroke="#e5f5e0" stroke-width="2" points="1616,-1066 1078,-1066 1078,-994 1616,-994 1616,-1066"/>
<text text-anchor="start" x="1086" y="-1018.1" font-family="arial" font-size="48.00">User economic hardship</text>
</g>
<!-- User economic hardship&#45;&gt;Drug usage -->
<g id="edge10" class="edge"><title>User economic hardship&#45;&gt;Drug usage</title>
<path fill="none" stroke="#41ab5d" stroke-width="5" d="M1457.76,-993.968C1576.22,-955.081 1764.28,-893.349 1886.42,-853.253"/>
<polygon fill="#41ab5d" stroke="#41ab5d" stroke-width="5" points="1888.06,-857.32 1896.2,-850.044 1885.33,-849.006 1888.06,-857.32"/>
</g>
<!-- Cocaine price -->
<g id="node9" class="node"><title>Cocaine price</title>
<polygon fill="#e5f5e0" stroke="#e5f5e0" stroke-width="2" points="2708.5,-728 2397.5,-728 2397.5,-656 2708.5,-656 2708.5,-728"/>
<text text-anchor="start" x="2405.5" y="-680.1" font-family="arial" font-size="48.00">Cocaine price</text>
</g>
<!-- Drug usage&#45;&gt;Cocaine price -->
<g id="edge11" class="edge"><title>Drug usage&#45;&gt;Cocaine price</title>
<path fill="none" stroke="#41ab5d" stroke-width="5" d="M2140.03,-784.389C2214.37,-767.718 2307.88,-746.746 2387.02,-729"/>
<polygon fill="#41ab5d" stroke="#41ab5d" stroke-width="5" points="2388.29,-733.198 2397.09,-726.741 2386.38,-724.66 2388.29,-733.198"/>
<text text-anchor="start" x="2335.5" y="-752.6" font-family="Times New Roman,serif" font-size="48.00">⊕</text>
</g>
<!-- Cocaine price&#45;&gt;Cartels -->
<g id="edge12" class="edge"><title>Cocaine price&#45;&gt;Cartels</title>
<path fill="none" stroke="#41ab5d" stroke-width="5" d="M2621.24,-728.057C2688.87,-764.325 2792.99,-820.164 2863.68,-858.073"/>
<polygon fill="#41ab5d" stroke="#41ab5d" stroke-width="5" points="2861.68,-861.966 2872.56,-862.836 2865.82,-854.254 2861.68,-861.966"/>
<text text-anchor="start" x="2733.5" y="-821.6" font-family="Times New Roman,serif" font-size="48.00">⊕</text>
</g>
<!-- Cocaine price&#45;&gt;Drug usage -->
<g id="edge18" class="edge"><title>Cocaine price&#45;&gt;Drug usage</title>
<path fill="none" stroke="#41ab5d" stroke-width="5" d="M2503,-728.148C2468.41,-751.505 2419.96,-780.056 2372.5,-794 2301.36,-814.902 2219.12,-820.877 2150.77,-821.202"/>
<polygon fill="#41ab5d" stroke="#41ab5d" stroke-width="5" points="2150.36,-816.827 2140.36,-821.209 2150.36,-825.577 2150.36,-816.827"/>
<text text-anchor="start" x="2335.5" y="-815.6" font-family="Times New Roman,serif" font-size="48.00">⊖</text>
</g>
<!-- Street gangs -->
<g id="node10" class="node"><title>Street gangs</title>
<polygon fill="#e5f5e0" stroke="#e5f5e0" stroke-width="2" points="3086.5,-486 2795.5,-486 2795.5,-414 3086.5,-414 3086.5,-486"/>
<text text-anchor="start" x="2803.5" y="-438.1" font-family="arial" font-size="48.00">Street gangs</text>
</g>
<!-- Cocaine price&#45;&gt;Street gangs -->
<g id="edge13" class="edge"><title>Cocaine price&#45;&gt;Street gangs</title>
<path fill="none" stroke="#41ab5d" stroke-width="5" d="M2611.79,-655.77C2681.92,-611.804 2799.91,-537.829 2873.68,-491.58"/>
<polygon fill="#41ab5d" stroke="#41ab5d" stroke-width="5" points="2876.3,-495.1 2882.45,-486.082 2871.65,-487.687 2876.3,-495.1"/>
<text text-anchor="start" x="2733.5" y="-592.6" font-family="Times New Roman,serif" font-size="48.00">⊕</text>
</g>
<!-- Street gangs&#45;&gt;Drug availability -->
<g id="edge22" class="edge"><title>Street gangs&#45;&gt;Drug availability</title>
<path fill="none" stroke="#41ab5d" stroke-width="5" d="M2795.21,-438.278C2680.61,-429.613 2516.44,-418.561 2372.5,-414 2074.87,-404.569 1999.56,-413.086 1703,-440 1648.29,-444.965 1589.11,-452.449 1535.05,-460.125"/>
<polygon fill="#41ab5d" stroke="#41ab5d" stroke-width="5" points="1534.29,-455.814 1525.01,-461.56 1535.53,-464.476 1534.29,-455.814"/>
<text text-anchor="start" x="2335.5" y="-428.6" font-family="Times New Roman,serif" font-size="48.00">⊕</text>
</g>
<!-- American police interdiction&#45;&gt;Drug availability -->
<g id="edge16" class="edge"><title>American police interdiction&#45;&gt;Drug availability</title>
<path fill="none" stroke="#41ab5d" stroke-width="5" d="M1702.85,-486.225C1645.71,-486.833 1587.52,-487.452 1535.23,-488.008"/>
<polygon fill="#41ab5d" stroke="#41ab5d" stroke-width="5" points="1535.15,-483.634 1525.2,-488.115 1535.24,-492.383 1535.15,-483.634"/>
<text text-anchor="start" x="1640.5" y="-500.6" font-family="Times New Roman,serif" font-size="48.00">⊖</text>
</g>
<!-- American police interdiction&#45;&gt;Cocaine price -->
<g id="edge14" class="edge"><title>American police interdiction&#45;&gt;Cocaine price</title>
<path fill="none" stroke="#41ab5d" stroke-width="5" d="M2101.83,-519.047C2198.4,-556.152 2348.49,-613.815 2448.48,-652.228"/>
<polygon fill="#41ab5d" stroke="#41ab5d" stroke-width="5" points="2447.09,-656.381 2457.99,-655.884 2450.23,-648.213 2447.09,-656.381"/>
<text text-anchor="start" x="2335.5" y="-632.6" font-family="Times New Roman,serif" font-size="48.00">⊕</text>
</g>
<!-- American police interdiction&#45;&gt;Street gangs -->
<g id="edge15" class="edge"><title>American police interdiction&#45;&gt;Street gangs</title>
<path fill="none" stroke="#41ab5d" stroke-width="5" d="M2311.24,-472.263C2469.42,-466.662 2656.21,-460.048 2784.88,-455.493"/>
<polygon fill="#41ab5d" stroke="#41ab5d" stroke-width="5" points="2785.36,-459.853 2795.2,-455.127 2785.05,-451.109 2785.36,-459.853"/>
<text text-anchor="start" x="2534.5" y="-482.6" font-family="Times New Roman,serif" font-size="48.00">⊖</text>
</g>
</g>
</svg>
