<?xml version="1.0" encoding="UTF-8" standalone="no"?>
<!DOCTYPE svg PUBLIC "-//W3C//DTD SVG 1.1//EN"
 "http://www.w3.org/Graphics/SVG/1.1/DTD/svg11.dtd">
<!-- Generated by graphviz version 2.38.0 (20140413.2041)
 -->
<!-- Title: foo Pages: 1 -->
<svg width="717pt" height="231pt"
 viewBox="0.00 0.00 717.00 230.72" xmlns="http://www.w3.org/2000/svg" xmlns:xlink="http://www.w3.org/1999/xlink">
<g id="graph0" class="graph" transform="scale(1 1) rotate(0) translate(4 226.724)">
<title>foo</title>
<g id="a_graph0"><a xlink:title=" ">
<polygon fill="white" stroke="none" points="-4,4 -4,-226.724 713,-226.724 713,4 -4,4"/>
</a>
</g>
<!-- c -->
<g id="node1" class="node"><title>c</title>
<polygon fill="#e5f5e0" stroke="#e5f5e0" stroke-width="2" points="315,-159.724 107,-159.724 107,-123.724 315,-123.724 315,-159.724"/>
<text text-anchor="start" x="115" y="-138.024" font-family="arial" font-size="14.00">Some intermediate outcome 1</text>
</g>
<!-- a -->
<g id="node2" class="node"><title>a</title>
<polygon fill="#e5f5e0" stroke="#e5f5e0" stroke-width="2" points="515,-172.724 366,-172.724 366,-136.724 515,-136.724 515,-172.724"/>
<text text-anchor="start" x="374" y="-158.524" font-family="arial" font-size="14.00">Official program goal</text>
<text text-anchor="start" x="406.5" y="-144.524" font-family="arial" font-size="14.00">Officialy: </text>
<text text-anchor="start" x="465.5" y="-144.524" font-family="arial" font-size="14.00" fill="orange">♥</text>
</g>
<!-- c&#45;&gt;a -->
<g id="edge1" class="edge"><title>c&#45;&gt;a</title>
<path fill="none" stroke="#41ab5d" d="M315.1,-147.615C328.778,-148.397 342.663,-149.19 355.955,-149.95"/>
<polygon fill="#41ab5d" stroke="#41ab5d" points="355.807,-153.447 365.991,-150.523 356.207,-146.458 355.807,-153.447"/>
</g>
<!--  b::Some other interesting outcome -->
<g id="node3" class="node"><title> b::Some other interesting outcome</title>
<polygon fill="#e5f5e0" stroke="#e5f5e0" stroke-width="2" points="515,-222.724 366,-222.724 366,-186.724 515,-186.724 515,-222.724"/>
<text text-anchor="start" x="374" y="-208.524" font-family="arial" font-size="14.00">Official program goal</text>
<text text-anchor="start" x="406.5" y="-194.524" font-family="arial" font-size="14.00">Officialy: </text>
<text text-anchor="start" x="465.5" y="-194.524" font-family="arial" font-size="14.00" fill="orange">♥</text>
</g>
<!-- c&#45;&gt; b::Some other interesting outcome -->
<g id="edge2" class="edge"><title>c&#45;&gt; b::Some other interesting outcome</title>
<path fill="none" stroke="#41ab5d" d="M288.344,-159.728C297.349,-162.007 306.392,-164.368 315,-166.724 334.026,-171.931 354.551,-178.006 373.341,-183.75"/>
<polygon fill="#41ab5d" stroke="#41ab5d" points="372.405,-187.124 382.992,-186.717 374.462,-180.433 372.405,-187.124"/>
</g>
<!-- Hypothetical higher values !heart -->
<g id="node6" class="node"><title>Hypothetical higher values !heart</title>
<polygon fill="#e5f5e0" stroke="#e5f5e0" stroke-width="2" points="709,-97.7237 572,-97.7237 572,-61.7237 709,-61.7237 709,-97.7237"/>
<text text-anchor="start" x="580" y="-83.5237" font-family="arial" font-size="14.00">Hypothetical higher</text>
<text text-anchor="start" x="613.5" y="-69.5237" font-family="arial" font-size="14.00">values </text>
<text text-anchor="start" x="658.5" y="-69.5237" font-family="arial" font-size="14.00" fill="orange">♥</text>
</g>
<!-- c&#45;&gt;Hypothetical higher values !heart -->
<g id="edge9" class="edge"><title>c&#45;&gt;Hypothetical higher values !heart</title>
<path fill="none" stroke="#41ab5d" d="M226.639,-123.317C251.529,-93.6813 305.336,-36.5113 366,-14.7237 428.325,7.66014 450.685,1.05481 515,-14.7237 547.547,-22.7087 581.033,-40.8553 605.067,-55.9509"/>
<polygon fill="#41ab5d" stroke="#41ab5d" points="603.489,-59.0974 613.794,-61.5595 607.274,-53.2086 603.489,-59.0974"/>
<text text-anchor="start" x="437" y="-18.5237" font-family="Times New Roman,serif" font-size="14.00">?</text>
</g>
<!-- a&#45;&gt;Hypothetical higher values !heart -->
<g id="edge7" class="edge"><title>a&#45;&gt;Hypothetical higher values !heart</title>
<path fill="none" stroke="#41ab5d" d="M495.805,-136.622C502.292,-134.351 508.807,-132.019 515,-129.724 538.687,-120.946 564.648,-110.632 586.706,-101.659"/>
<polygon fill="#41ab5d" stroke="#41ab5d" points="588.288,-104.794 596.222,-97.7726 585.641,-98.3133 588.288,-104.794"/>
<text text-anchor="start" x="540" y="-123.524" font-family="Times New Roman,serif" font-size="14.00">?</text>
</g>
<!-- d::Some intermediate outcome 2 -->
<g id="node4" class="node"><title>d::Some intermediate outcome 2</title>
<polygon fill="#e5f5e0" stroke="#e5f5e0" stroke-width="2" points="315,-209.724 107,-209.724 107,-173.724 315,-173.724 315,-209.724"/>
<text text-anchor="start" x="115" y="-188.024" font-family="arial" font-size="14.00">Some intermediate outcome 1</text>
</g>
<!-- d::Some intermediate outcome 2&#45;&gt;a -->
<g id="edge3" class="edge"><title>d::Some intermediate outcome 2&#45;&gt;a</title>
<path fill="none" stroke="#41ab5d" d="M315.1,-174.956C328.778,-172.731 342.663,-170.473 355.955,-168.311"/>
<polygon fill="#41ab5d" stroke="#41ab5d" points="356.682,-171.739 365.991,-166.679 355.559,-164.83 356.682,-171.739"/>
</g>
<!-- d::Some intermediate outcome 2&#45;&gt; b::Some other interesting outcome -->
<g id="edge4" class="edge"><title>d::Some intermediate outcome 2&#45;&gt; b::Some other interesting outcome</title>
<path fill="none" stroke="#41ab5d" d="M315.1,-197.615C328.778,-198.397 342.663,-199.19 355.955,-199.95"/>
<polygon fill="#41ab5d" stroke="#41ab5d" points="355.807,-203.447 365.991,-200.523 356.207,-196.458 355.807,-203.447"/>
</g>
<!-- Inputs -->
<g id="node5" class="node"><title>Inputs</title>
<polygon fill="#e5f5e0" stroke="#e5f5e0" stroke-width="2" points="56,-187.724 3.55271e-015,-187.724 3.55271e-015,-151.724 56,-151.724 56,-187.724"/>
<text text-anchor="start" x="8" y="-166.024" font-family="arial" font-size="14.00">Inputs</text>
</g>
<!-- Inputs&#45;&gt;c -->
<g id="edge5" class="edge"><title>Inputs&#45;&gt;c</title>
<path fill="none" stroke="#41ab5d" d="M56.0975,-165.532C67.5851,-163.755 81.8116,-161.554 96.9363,-159.214"/>
<polygon fill="#41ab5d" stroke="#41ab5d" points="97.6379,-162.647 106.985,-157.66 96.5677,-155.73 97.6379,-162.647"/>
</g>
<!-- Inputs&#45;&gt;d::Some intermediate outcome 2 -->
<g id="edge6" class="edge"><title>Inputs&#45;&gt;d::Some intermediate outcome 2</title>
<path fill="none" stroke="#41ab5d" d="M56.0975,-173.017C67.5851,-174.414 81.8116,-176.143 96.9363,-177.981"/>
<polygon fill="#41ab5d" stroke="#41ab5d" points="96.636,-181.47 106.985,-179.203 97.4807,-174.522 96.636,-181.47"/>
</g>
<!-- b -->
<g id="node7" class="node"><title>b</title>
<polygon fill="#e5f5e0" stroke="#e5f5e0" stroke-width="2" points="467.5,-122.724 413.5,-122.724 413.5,-86.7237 467.5,-86.7237 467.5,-122.724"/>
<text text-anchor="start" x="436" y="-101.024" font-family="arial" font-size="14.00">b</text>
</g>
<!-- b&#45;&gt;Hypothetical higher values !heart -->
<g id="edge8" class="edge"><title>b&#45;&gt;Hypothetical higher values !heart</title>
<path fill="none" stroke="#41ab5d" d="M467.793,-101.404C491.721,-98.3827 528.28,-93.7667 561.523,-89.5693"/>
<polygon fill="#41ab5d" stroke="#41ab5d" points="562.233,-93.0076 571.716,-88.2824 561.356,-86.0627 562.233,-93.0076"/>
<text text-anchor="start" x="540" y="-96.5237" font-family="Times New Roman,serif" font-size="14.00">?</text>
</g>
<!-- d -->
<g id="node8" class="node"><title>d</title>
<polygon fill="#e5f5e0" stroke="#e5f5e0" stroke-width="2" points="467.5,-72.7237 413.5,-72.7237 413.5,-36.7237 467.5,-36.7237 467.5,-72.7237"/>
<text text-anchor="start" x="436" y="-51.0237" font-family="arial" font-size="14.00">d</text>
</g>
<!-- d&#45;&gt;Hypothetical higher values !heart -->
<g id="edge10" class="edge"><title>d&#45;&gt;Hypothetical higher values !heart</title>
<path fill="none" stroke="#41ab5d" d="M467.793,-58.0436C491.721,-61.0648 528.28,-65.6808 561.523,-69.8782"/>
<polygon fill="#41ab5d" stroke="#41ab5d" points="561.356,-73.3848 571.716,-71.1651 562.233,-66.4399 561.356,-73.3848"/>
<text text-anchor="start" x="540" y="-72.5237" font-family="Times New Roman,serif" font-size="14.00">?</text>
</g>
</g>
</svg>
