<?xml version="1.0" encoding="UTF-8" standalone="no"?>
<!DOCTYPE svg PUBLIC "-//W3C//DTD SVG 1.1//EN"
 "http://www.w3.org/Graphics/SVG/1.1/DTD/svg11.dtd">
<!-- Generated by graphviz version 2.38.0 (20140413.2041)
 -->
<!-- Title: foo Pages: 1 -->
<svg width="422pt" height="199pt"
 viewBox="0.00 0.00 422.00 199.00" xmlns="http://www.w3.org/2000/svg" xmlns:xlink="http://www.w3.org/1999/xlink">
<g id="graph0" class="graph" transform="scale(1 1) rotate(0) translate(4 195)">
<title>foo</title>
<g id="a_graph0"><a xlink:title=" ">
<polygon fill="white" stroke="none" points="-4,4 -4,-195 418,-195 418,4 -4,4"/>
</a>
</g>
<g id="clust1" class="cluster"><title>cluster_Outcomes</title>
<g id="a_clust1"><a xlink:title=" ">
<path fill="#fcfbfd" stroke="#dadaeb" d="M231,-8C231,-8 306,-8 306,-8 312,-8 318,-14 318,-20 318,-20 318,-171 318,-171 318,-177 312,-183 306,-183 306,-183 231,-183 231,-183 225,-183 219,-177 219,-171 219,-171 219,-20 219,-20 219,-14 225,-8 231,-8"/>
<text text-anchor="start" x="227" y="-167.8" font-family="arial" font-size="14.00">Outcomes</text>
</a>
</g>
</g>
<g id="clust2" class="cluster"><title>cluster_Outputs</title>
<g id="a_clust2"><a xlink:title=" ">
<path fill="#fcfbfd" stroke="#dadaeb" d="M20,-8C20,-8 173,-8 173,-8 179,-8 185,-14 185,-20 185,-20 185,-171 185,-171 185,-177 179,-183 173,-183 173,-183 20,-183 20,-183 14,-183 8,-177 8,-171 8,-171 8,-20 8,-20 8,-14 14,-8 20,-8"/>
<text text-anchor="start" x="16" y="-167.8" font-family="arial" font-size="14.00">Outputs</text>
</a>
</g>
</g>
<!-- Outcomes -->
<!-- Goal -->
<g id="node2" class="node"><title>Goal</title>
<polygon fill="#e5f5e0" stroke="#e5f5e0" stroke-width="2" points="414,-152 360,-152 360,-116 414,-116 414,-152"/>
<text text-anchor="start" x="371.5" y="-130.3" font-family="arial" font-size="14.00">Goal</text>
</g>
<!-- Outcomes&#45;&gt;Goal -->
<g id="edge1" class="edge"><title>Outcomes&#45;&gt;Goal</title>
<path fill="none" stroke="#41ab5d" d="M317.568,-134C328.28,-134 339.466,-134 349.616,-134"/>
<polygon fill="#41ab5d" stroke="#41ab5d" points="349.678,-137.5 359.678,-134 349.678,-130.5 349.678,-137.5"/>
</g>
<!-- Outputs -->
<!-- Outputs&#45;&gt;Outcomes -->
<g id="edge2" class="edge"><title>Outputs&#45;&gt;Outcomes</title>
<path fill="none" stroke="#41ab5d" d="M184.793,-134C195.742,-134 206.64,-134 216.76,-134"/>
<polygon fill="#41ab5d" stroke="#41ab5d" points="209,-137.5 219,-134 209,-130.5 209,-137.5"/>
</g>
<!-- resilience -->
<g id="node4" class="node"><title>resilience</title>
<polygon fill="#e5f5e0" stroke="#e5f5e0" stroke-width="2" points="307,-52 230,-52 230,-16 307,-16 307,-52"/>
<text text-anchor="start" x="238" y="-30.3" font-family="arial" font-size="14.00">resilience</text>
</g>
<!-- autonomy -->
<g id="node5" class="node"><title>autonomy</title>
<polygon fill="#e5f5e0" stroke="#e5f5e0" stroke-width="2" points="307.5,-102 229.5,-102 229.5,-66 307.5,-66 307.5,-102"/>
<text text-anchor="start" x="237.5" y="-80.3" font-family="arial" font-size="14.00">autonomy</text>
</g>
<!-- resilience&#45;&gt;autonomy -->
<!-- autonomy&#45;&gt;Outcomes -->
<!-- health interventions -->
<g id="node6" class="node"><title>health interventions</title>
<polygon fill="#e5f5e0" stroke="#e5f5e0" stroke-width="2" points="165,-102 28,-102 28,-66 165,-66 165,-102"/>
<text text-anchor="start" x="36" y="-80.3" font-family="arial" font-size="14.00">health interventions</text>
</g>
<!-- education interventions -->
<g id="node7" class="node"><title>education interventions</title>
<polygon fill="#e5f5e0" stroke="#e5f5e0" stroke-width="2" points="177,-52 16,-52 16,-16 177,-16 177,-52"/>
<text text-anchor="start" x="24" y="-30.3" font-family="arial" font-size="14.00">education interventions</text>
</g>
</g>
</svg>
