<?xml version="1.0" encoding="UTF-8" standalone="no"?>
<!DOCTYPE svg PUBLIC "-//W3C//DTD SVG 1.1//EN"
 "http://www.w3.org/Graphics/SVG/1.1/DTD/svg11.dtd">
<!-- Generated by graphviz version 2.38.0 (20140413.2041)
 -->
<!-- Title: foo Pages: 1 -->
<svg width="205pt" height="105pt"
 viewBox="0.00 0.00 205.00 105.00" xmlns="http://www.w3.org/2000/svg" xmlns:xlink="http://www.w3.org/1999/xlink">
<g id="graph0" class="graph" transform="scale(1 1) rotate(0) translate(4 101)">
<title>foo</title>
<g id="a_graph0"><a xlink:title=" ">
<polygon fill="white" stroke="none" points="-4,4 -4,-101 201,-101 201,4 -4,4"/>
</a>
</g>
<!-- Love -->
<g id="node1" class="node"><title>Love</title>
<polygon fill="#e5f5e0" stroke="#e5f5e0" stroke-width="2" points="56.5,-97 2.5,-97 2.5,-74 56.5,-74 56.5,-97"/>
<text text-anchor="start" x="13.5" y="-81.8" font-family="arial" font-size="14.00">Love</text>
</g>
<!-- Happiness ///!plus -->
<g id="node2" class="node"><title>Happiness ///!plus</title>
<polygon fill="#e5f5e0" stroke="#e5f5e0" stroke-width="2" points="197,-67.5 109,-67.5 109,-29.5 197,-29.5 197,-67.5"/>
<text text-anchor="start" x="117" y="-52.3" font-family="arial" font-size="14.00">Happiness </text>
<text text-anchor="start" x="147" y="-37.3" font-family="arial" font-size="14.00">⊕</text>
</g>
<!-- Love&#45;&gt;Happiness ///!plus -->
<g id="edge1" class="edge"><title>Love&#45;&gt;Happiness ///!plus</title>
<path fill="none" stroke="#41ab5d" d="M56.5648,-77.5626C69.0341,-73.7653 84.4354,-69.0752 99.1993,-64.5792"/>
<polygon fill="#41ab5d" stroke="#41ab5d" points="100.225,-67.9255 108.772,-61.6641 98.1861,-61.2291 100.225,-67.9255"/>
</g>
<!-- Money -->
<g id="node3" class="node"><title>Money</title>
<polygon fill="#e5f5e0" stroke="#e5f5e0" stroke-width="2" points="59,-60 0,-60 0,-37 59,-37 59,-60"/>
<text text-anchor="start" x="8" y="-44.8" font-family="arial" font-size="14.00">Money</text>
</g>
<!-- Money&#45;&gt;Happiness ///!plus -->
<g id="edge2" class="edge"><title>Money&#45;&gt;Happiness ///!plus</title>
<path fill="none" stroke="#41ab5d" d="M59.2938,-48.5C71.037,-48.5 85.0073,-48.5 98.4944,-48.5"/>
<polygon fill="#41ab5d" stroke="#41ab5d" points="98.6691,-52.0001 108.669,-48.5 98.669,-45.0001 98.6691,-52.0001"/>
</g>
<!-- Health -->
<g id="node4" class="node"><title>Health</title>
<polygon fill="#e5f5e0" stroke="#e5f5e0" stroke-width="2" points="57.5,-23 1.5,-23 1.5,-0 57.5,-0 57.5,-23"/>
<text text-anchor="start" x="9.5" y="-7.8" font-family="arial" font-size="14.00">Health</text>
</g>
<!-- Health&#45;&gt;Happiness ///!plus -->
<g id="edge3" class="edge"><title>Health&#45;&gt;Happiness ///!plus</title>
<path fill="none" stroke="#41ab5d" d="M57.767,-19.8035C69.9322,-23.5082 84.7025,-28.0061 98.9055,-32.3313"/>
<polygon fill="#41ab5d" stroke="#41ab5d" points="98.0229,-35.7212 108.609,-35.2862 100.062,-29.0248 98.0229,-35.7212"/>
</g>
</g>
</svg>
