<?xml version="1.0" encoding="UTF-8" standalone="no"?>
<!DOCTYPE svg PUBLIC "-//W3C//DTD SVG 1.1//EN"
 "http://www.w3.org/Graphics/SVG/1.1/DTD/svg11.dtd">
<!-- Generated by graphviz version 2.38.0 (20140413.2041)
 -->
<!-- Title: foo Pages: 1 -->
<svg width="882pt" height="98pt"
 viewBox="0.00 0.00 882.00 98.00" xmlns="http://www.w3.org/2000/svg" xmlns:xlink="http://www.w3.org/1999/xlink">
<g id="graph0" class="graph" transform="scale(1 1) rotate(0) translate(4 94)">
<title>foo</title>
<g id="a_graph0"><a xlink:title=" ">
<polygon fill="white" stroke="none" points="-4,4 -4,-94 878,-94 878,4 -4,4"/>
</a>
</g>
<!-- xkcdaxis(xrange &#160;&#160;c(&#45;100,100),yrange &#160;&#160;c(0,5))+ -->
<g id="node1" class="node"><title>xkcdaxis(xrange &#160;&#160;c(&#45;100,100),yrange &#160;&#160;c(0,5))+</title>
<polygon fill="#e5f5e0" stroke="#e5f5e0" stroke-width="2" points="464,-64 261,-64 261,-26 464,-26 464,-64"/>
<text text-anchor="start" x="305.5" y="-48.8" font-family="arial" font-size="14.00">xkcdaxis(xrange =</text>
<text text-anchor="start" x="269" y="-33.8" font-family="arial" font-size="14.00">c(&#45;100,100),yrange = c(0,5))+</text>
</g>
<!-- myplot+geom_line(data NULL,aes(&#45;100:100,&#45;100:100 %!gt% map_dbl(function(x)500/(100+2^&#45;x))))+ -->
<g id="node2" class="node"><title>myplot+geom_line(data NULL,aes(&#45;100:100,&#45;100:100 %!gt% map_dbl(function(x)500/(100+2^&#45;x))))+</title>
<polygon fill="#e5f5e0" stroke="#e5f5e0" stroke-width="2" points="874,-71.5 514,-71.5 514,-18.5 874,-18.5 874,-71.5"/>
<text text-anchor="start" x="522" y="-56.3" font-family="arial" font-size="14.00">myplot+geom_line(data=NULL,aes(&#45;100:100,&#45;100:100</text>
<text text-anchor="start" x="677" y="-41.3" font-family="arial" font-size="14.00">%&gt;%</text>
<text text-anchor="start" x="572.5" y="-26.3" font-family="arial" font-size="14.00">map_dbl(function(x)500/(100+2^&#45;x))))+</text>
</g>
<!-- xkcdaxis(xrange &#160;&#160;c(&#45;100,100),yrange &#160;&#160;c(0,5))+&#45;&gt;myplot+geom_line(data NULL,aes(&#45;100:100,&#45;100:100 %!gt% map_dbl(function(x)500/(100+2^&#45;x))))+ -->
<g id="edge1" class="edge"><title>xkcdaxis(xrange &#160;&#160;c(&#45;100,100),yrange &#160;&#160;c(0,5))+&#45;&gt;myplot+geom_line(data NULL,aes(&#45;100:100,&#45;100:100 %!gt% map_dbl(function(x)500/(100+2^&#45;x))))+</title>
<path fill="none" stroke="#41ab5d" d="M464.151,-45C476.82,-45 490.087,-45 503.581,-45"/>
<polygon fill="#41ab5d" stroke="#41ab5d" points="503.937,-48.5001 513.937,-45 503.937,-41.5001 503.937,-48.5001"/>
</g>
<!-- ylab(&#39;Continuous consequence Variable&#39;)+ -->
<g id="node3" class="node"><title>ylab(&#39;Continuous consequence Variable&#39;)+</title>
<polygon fill="#e5f5e0" stroke="#e5f5e0" stroke-width="2" points="211,-90 0,-90 0,-52 211,-52 211,-90"/>
<text text-anchor="start" x="8" y="-74.8" font-family="arial" font-size="14.00">ylab(&#39;Continuous consequence</text>
<text text-anchor="start" x="71.5" y="-59.8" font-family="arial" font-size="14.00">Variable&#39;)+</text>
</g>
<!-- ylab(&#39;Continuous consequence Variable&#39;)+&#45;&gt;xkcdaxis(xrange &#160;&#160;c(&#45;100,100),yrange &#160;&#160;c(0,5))+ -->
<g id="edge2" class="edge"><title>ylab(&#39;Continuous consequence Variable&#39;)+&#45;&gt;xkcdaxis(xrange &#160;&#160;c(&#45;100,100),yrange &#160;&#160;c(0,5))+</title>
<path fill="none" stroke="#41ab5d" d="M211.322,-60.3122C224.349,-58.9841 237.701,-57.6226 250.813,-56.2858"/>
<polygon fill="#41ab5d" stroke="#41ab5d" points="251.189,-59.7656 260.782,-55.2693 250.479,-52.8017 251.189,-59.7656"/>
</g>
<!-- xlab(&#39;Continuous influence Variable&#39;) -->
<g id="node4" class="node"><title>xlab(&#39;Continuous influence Variable&#39;)</title>
<polygon fill="#e5f5e0" stroke="#e5f5e0" stroke-width="2" points="196.5,-38 14.5,-38 14.5,-0 196.5,-0 196.5,-38"/>
<text text-anchor="start" x="22.5" y="-22.8" font-family="arial" font-size="14.00">xlab(&#39;Continuous influence</text>
<text text-anchor="start" x="75.5" y="-7.8" font-family="arial" font-size="14.00">Variable&#39;)</text>
</g>
<!-- xlab(&#39;Continuous influence Variable&#39;)&#45;&gt;xkcdaxis(xrange &#160;&#160;c(&#45;100,100),yrange &#160;&#160;c(0,5))+ -->
<g id="edge3" class="edge"><title>xlab(&#39;Continuous influence Variable&#39;)&#45;&gt;xkcdaxis(xrange &#160;&#160;c(&#45;100,100),yrange &#160;&#160;c(0,5))+</title>
<path fill="none" stroke="#41ab5d" d="M196.762,-28.2032C214.291,-29.9904 232.849,-31.8826 250.943,-33.7275"/>
<polygon fill="#41ab5d" stroke="#41ab5d" points="250.635,-37.2141 260.938,-34.7466 251.345,-30.2503 250.635,-37.2141"/>
</g>
</g>
</svg>
