<?xml version="1.0" encoding="UTF-8" standalone="no"?>
<!DOCTYPE svg PUBLIC "-//W3C//DTD SVG 1.1//EN"
 "http://www.w3.org/Graphics/SVG/1.1/DTD/svg11.dtd">
<!-- Generated by graphviz version 2.38.0 (20140413.2041)
 -->
<!-- Title: foo Pages: 1 -->
<svg width="383pt" height="81pt"
 viewBox="0.00 0.00 383.00 81.00" xmlns="http://www.w3.org/2000/svg" xmlns:xlink="http://www.w3.org/1999/xlink">
<g id="graph0" class="graph" transform="scale(1 1) rotate(0) translate(4 77)">
<title>foo</title>
<g id="a_graph0"><a xlink:title=" ">
<polygon fill="#c7e9c0" stroke="none" points="-4,4 -4,-77 379,-77 379,4 -4,4"/>
<text text-anchor="start" x="37.5" y="-7.2" font-family="tahoma" font-size="11.00" fill="#238b45">Now we are not mixing Variables with and without Differences</text>
</a>
</g>
<!-- Percentage vaccinated -->
<g id="node1" class="node"><title>Percentage vaccinated</title>
<polygon fill="#f7fcf5" stroke="#f7fcf5" points="230,-65.5 140,-65.5 140,-27.5 230,-27.5 230,-65.5"/>
<text text-anchor="start" x="148" y="-50.3" font-family="Helvetica,sans-Serif" font-size="14.00" fill="#006d2c">Percentage</text>
<text text-anchor="start" x="151" y="-35.3" font-family="Helvetica,sans-Serif" font-size="14.00" fill="#006d2c">vaccinated</text>
</g>
<!-- !minus (Opposite of) Mortality -->
<g id="node2" class="node"><title>!minus (Opposite of) Mortality</title>
<polygon fill="#f7fcf5" stroke="#f7fcf5" points="375,-65.5 280,-65.5 280,-27.5 375,-27.5 375,-65.5"/>
<text text-anchor="start" x="288" y="-50.3" font-family="Helvetica,sans-Serif" font-size="14.00" fill="#006d2c">⊖ (Opposite</text>
<text text-anchor="start" x="291" y="-35.3" font-family="Helvetica,sans-Serif" font-size="14.00" fill="#006d2c">of) Mortality</text>
</g>
<!-- Percentage vaccinated&#45;&gt;!minus (Opposite of) Mortality -->
<g id="edge1" class="edge"><title>Percentage vaccinated&#45;&gt;!minus (Opposite of) Mortality</title>
<path fill="none" stroke="#41ab5d" stroke-width="2" d="M230.07,-46.5C242.516,-46.5 256.241,-46.5 269.338,-46.5"/>
<polygon fill="#41ab5d" stroke="#41ab5d" stroke-width="2" points="269.67,-50.0001 279.67,-46.5 269.67,-43.0001 269.67,-50.0001"/>
</g>
<!-- Extent of vaccination programme -->
<g id="node3" class="node"><title>Extent of vaccination programme</title>
<polygon fill="#f7fcf5" stroke="#f7fcf5" points="90,-73 0,-73 0,-20 90,-20 90,-73"/>
<text text-anchor="start" x="16.5" y="-57.8" font-family="Helvetica,sans-Serif" font-size="14.00" fill="#006d2c">Extent of</text>
<text text-anchor="start" x="10" y="-42.8" font-family="Helvetica,sans-Serif" font-size="14.00" fill="#006d2c">vaccination</text>
<text text-anchor="start" x="8" y="-27.8" font-family="Helvetica,sans-Serif" font-size="14.00" fill="#006d2c">programme</text>
</g>
<!-- Extent of vaccination programme&#45;&gt;Percentage vaccinated -->
<g id="edge2" class="edge"><title>Extent of vaccination programme&#45;&gt;Percentage vaccinated</title>
<path fill="none" stroke="#41ab5d" stroke-width="2" d="M90.0435,-46.5C102.616,-46.5 116.467,-46.5 129.581,-46.5"/>
<polygon fill="#41ab5d" stroke="#41ab5d" stroke-width="2" points="129.902,-50.0001 139.902,-46.5 129.902,-43.0001 129.902,-50.0001"/>
</g>
</g>
</svg>
