<?xml version="1.0" encoding="UTF-8" standalone="no"?>
<!DOCTYPE svg PUBLIC "-//W3C//DTD SVG 1.1//EN"
 "http://www.w3.org/Graphics/SVG/1.1/DTD/svg11.dtd">
<!-- Generated by graphviz version 2.38.0 (20140413.2041)
 -->
<!-- Title: foo Pages: 1 -->
<svg width="457pt" height="191pt"
 viewBox="0.00 0.00 457.00 190.50" xmlns="http://www.w3.org/2000/svg" xmlns:xlink="http://www.w3.org/1999/xlink">
<g id="graph0" class="graph" transform="scale(1 1) rotate(0) translate(4 186.5)">
<title>foo</title>
<g id="a_graph0"><a xlink:title=" ">
<polygon fill="#c7e9c0" stroke="none" points="-4,4 -4,-186.5 453,-186.5 453,4 -4,4"/>
<text text-anchor="start" x="178.5" y="-7.2" font-family="tahoma" font-size="11.00" fill="#238b45">This is possible too</text>
</a>
</g>
<!-- axsxdf -->
<!-- My party wins election (14 days from today &#45; very brief event with longer&#45;term consequences) __^ -->
<g id="node2" class="node"><title>My party wins election (14 days from today &#45; very brief event with longer&#45;term consequences) __^</title>
<polygon fill="#f7fcf5" stroke="#f7fcf5" points="449,-148 331,-148 331,-20 449,-20 449,-148"/>
<text text-anchor="start" x="347.5" y="-132.8" font-family="Helvetica,sans-Serif" font-size="14.00" fill="#006d2c">My party wins</text>
<text text-anchor="start" x="352.5" y="-117.8" font-family="Helvetica,sans-Serif" font-size="14.00" fill="#006d2c">election (14</text>
<text text-anchor="start" x="339" y="-102.8" font-family="Helvetica,sans-Serif" font-size="14.00" fill="#006d2c">days from today</text>
<text text-anchor="start" x="356.5" y="-87.8" font-family="Helvetica,sans-Serif" font-size="14.00" fill="#006d2c">&#45; very brief</text>
<text text-anchor="start" x="358.5" y="-72.8" font-family="Helvetica,sans-Serif" font-size="14.00" fill="#006d2c">event with</text>
<text text-anchor="start" x="353.5" y="-57.8" font-family="Helvetica,sans-Serif" font-size="14.00" fill="#006d2c">longer&#45;term</text>
<text text-anchor="start" x="340.5" y="-42.8" font-family="Helvetica,sans-Serif" font-size="14.00" fill="#006d2c">consequences)</text>
<text text-anchor="start" x="379" y="-27.8" font-family="Helvetica,sans-Serif" font-size="14.00" fill="#006d2c">__^</text>
</g>
<!-- axsxdf&#45;&gt;My party wins election (14 days from today &#45; very brief event with longer&#45;term consequences) __^ -->
<g id="edge1" class="edge"><title>axsxdf&#45;&gt;My party wins election (14 days from today &#45; very brief event with longer&#45;term consequences) __^</title>
<path fill="none" stroke="#41ab5d" stroke-width="0" d="M63.7909,-181.487C91.5094,-179.239 198.518,-169.032 281,-140 294.597,-135.214 308.621,-129 321.876,-122.459"/>
<polygon fill="#41ab5d" stroke="#41ab5d" stroke-width="0" points="323.569,-125.525 330.916,-117.892 320.412,-119.277 323.569,-125.525"/>
</g>
<!-- Electorate: more favourable voting intentions (today until election) ~ -->
<g id="node3" class="node"><title>Electorate: more favourable voting intentions (today until election) ~</title>
<polygon fill="#f7fcf5" stroke="#f7fcf5" points="281,-133 162,-133 162,-35 281,-35 281,-133"/>
<text text-anchor="start" x="187" y="-117.8" font-family="Helvetica,sans-Serif" font-size="14.00" fill="#006d2c">Electorate:</text>
<text text-anchor="start" x="170" y="-102.8" font-family="Helvetica,sans-Serif" font-size="14.00" fill="#006d2c">more favourable</text>
<text text-anchor="start" x="202.5" y="-87.8" font-family="Helvetica,sans-Serif" font-size="14.00" fill="#006d2c">voting</text>
<text text-anchor="start" x="191" y="-72.8" font-family="Helvetica,sans-Serif" font-size="14.00" fill="#006d2c">intentions</text>
<text text-anchor="start" x="187.5" y="-57.8" font-family="Helvetica,sans-Serif" font-size="14.00" fill="#006d2c">(today until</text>
<text text-anchor="start" x="188" y="-42.8" font-family="Helvetica,sans-Serif" font-size="14.00" fill="#006d2c">election) ~</text>
</g>
<!-- axsxdf&#45;&gt;Electorate: more favourable voting intentions (today until election) ~ -->
<g id="edge3" class="edge"><title>axsxdf&#45;&gt;Electorate: more favourable voting intentions (today until election) ~</title>
<path fill="none" stroke="#41ab5d" stroke-width="0" d="M79.4477,-181.496C89.7324,-180.581 101.861,-178.509 112,-174 130.929,-165.582 149.203,-152.891 165.185,-139.673"/>
<polygon fill="#41ab5d" stroke="#41ab5d" stroke-width="0" points="167.493,-142.304 172.84,-133.158 162.956,-136.974 167.493,-142.304"/>
</g>
<!-- Electorate: more favourable voting intentions (today until election) ~&#45;&gt;My party wins election (14 days from today &#45; very brief event with longer&#45;term consequences) __^ -->
<g id="edge2" class="edge"><title>Electorate: more favourable voting intentions (today until election) ~&#45;&gt;My party wins election (14 days from today &#45; very brief event with longer&#45;term consequences) __^</title>
<path fill="none" stroke="#41ab5d" stroke-width="2" d="M281.202,-84C293.908,-84 307.453,-84 320.499,-84"/>
<polygon fill="#41ab5d" stroke="#41ab5d" stroke-width="2" points="320.829,-87.5001 330.828,-84 320.828,-80.5001 320.829,-87.5001"/>
</g>
<!-- Campaign running: (today until election) ~ -->
<g id="node4" class="node"><title>Campaign running: (today until election) ~</title>
<polygon fill="#f7fcf5" stroke="#f7fcf5" points="110.5,-167 1.5,-167 1.5,-99 110.5,-99 110.5,-167"/>
<text text-anchor="start" x="23.5" y="-151.8" font-family="Helvetica,sans-Serif" font-size="14.00" fill="#006d2c">Campaign</text>
<text text-anchor="start" x="9.5" y="-136.8" font-family="Helvetica,sans-Serif" font-size="14.00" fill="#006d2c">running: (today</text>
<text text-anchor="start" x="14.5" y="-121.8" font-family="Helvetica,sans-Serif" font-size="14.00" fill="#006d2c">until election)</text>
<text text-anchor="start" x="51.5" y="-106.8" font-family="Helvetica,sans-Serif" font-size="14.00" fill="#006d2c">~</text>
</g>
<!-- Campaign running: (today until election) ~&#45;&gt;Electorate: more favourable voting intentions (today until election) ~ -->
<g id="edge4" class="edge"><title>Campaign running: (today until election) ~&#45;&gt;Electorate: more favourable voting intentions (today until election) ~</title>
<path fill="none" stroke="#41ab5d" stroke-width="2" d="M110.536,-116.956C123.726,-113.003 138.032,-108.715 151.829,-104.58"/>
<polygon fill="#41ab5d" stroke="#41ab5d" stroke-width="2" points="153.187,-107.827 161.761,-101.604 151.178,-101.122 153.187,-107.827"/>
</g>
<!-- Key speeches: (in 3 &amp; 7 days&#39; time) ^^_ -->
<g id="node5" class="node"><title>Key speeches: (in 3 &amp; 7 days&#39; time) ^^_</title>
<polygon fill="#f7fcf5" stroke="#f7fcf5" points="112,-84.5 7.10543e-015,-84.5 7.10543e-015,-31.5 112,-31.5 112,-84.5"/>
<text text-anchor="start" x="8" y="-69.3" font-family="Helvetica,sans-Serif" font-size="14.00" fill="#006d2c">Key speeches:</text>
<text text-anchor="start" x="11" y="-54.3" font-family="Helvetica,sans-Serif" font-size="14.00" fill="#006d2c">(in 3 &amp; 7 days&#39;</text>
<text text-anchor="start" x="28.5" y="-39.3" font-family="Helvetica,sans-Serif" font-size="14.00" fill="#006d2c">time) ^^_</text>
</g>
<!-- Key speeches: (in 3 &amp; 7 days&#39; time) ^^_&#45;&gt;Electorate: more favourable voting intentions (today until election) ~ -->
<g id="edge5" class="edge"><title>Key speeches: (in 3 &amp; 7 days&#39; time) ^^_&#45;&gt;Electorate: more favourable voting intentions (today until election) ~</title>
<path fill="none" stroke="#41ab5d" stroke-width="2" d="M112.354,-66.8024C125.051,-68.8216 138.701,-70.9922 151.883,-73.0884"/>
<polygon fill="#41ab5d" stroke="#41ab5d" stroke-width="2" points="151.422,-76.5591 161.848,-74.6731 152.522,-69.6459 151.422,-76.5591"/>
</g>
</g>
</svg>
