<?xml version="1.0" encoding="UTF-8" standalone="no"?>
<!DOCTYPE svg PUBLIC "-//W3C//DTD SVG 1.1//EN"
 "http://www.w3.org/Graphics/SVG/1.1/DTD/svg11.dtd">
<!-- Generated by graphviz version 2.38.0 (20140413.2041)
 -->
<!-- Title: foo Pages: 1 -->
<svg width="1246pt" height="565pt"
 viewBox="0.00 0.00 1245.78 565.00" xmlns="http://www.w3.org/2000/svg" xmlns:xlink="http://www.w3.org/1999/xlink">
<g id="graph0" class="graph" transform="scale(1 1) rotate(0) translate(4 561)">
<title>foo</title>
<g id="a_graph0"><a xlink:title=" ">
<polygon fill="white" stroke="none" points="-4,4 -4,-561 1241.78,-561 1241.78,4 -4,4"/>
</a>
</g>
<g id="clust1" class="cluster"><title>cluster_Goal</title>
<g id="a_clust1"><a xlink:title=" ">
<path fill="#9e9ac8" stroke="#dadaeb" d="M896.799,-206C896.799,-206 1213.23,-206 1213.23,-206 1219.23,-206 1225.23,-212 1225.23,-218 1225.23,-218 1225.23,-301 1225.23,-301 1225.23,-307 1219.23,-313 1213.23,-313 1213.23,-313 896.799,-313 896.799,-313 890.799,-313 884.799,-307 884.799,-301 884.799,-301 884.799,-218 884.799,-218 884.799,-212 890.799,-206 896.799,-206"/>
<text text-anchor="start" x="892.799" y="-297.8" font-family="arial" font-size="14.00" fill="white">Goal</text>
</a>
</g>
</g>
<g id="clust2" class="cluster"><title>cluster_Outcomes</title>
<g id="a_clust2"><a xlink:title=" ">
<path fill="#dadaeb" stroke="#dadaeb" d="M459.106,-104C459.106,-104 832.011,-104 832.011,-104 838.011,-104 844.011,-110 844.011,-116 844.011,-116 844.011,-440 844.011,-440 844.011,-446 838.011,-452 832.011,-452 832.011,-452 459.106,-452 459.106,-452 453.106,-452 447.106,-446 447.106,-440 447.106,-440 447.106,-116 447.106,-116 447.106,-110 453.106,-104 459.106,-104"/>
<text text-anchor="start" x="455.106" y="-436.8" font-family="arial" font-size="14.00">Outcomes</text>
</a>
</g>
</g>
<g id="clust4" class="cluster"><title>cluster_Improvedsanitation</title>
<g id="a_clust4"><a xlink:title=" ">
<path fill="#deebf7" stroke="#dadaeb" d="M492.835,-314C492.835,-314 798.282,-314 798.282,-314 804.282,-314 810.282,-320 810.282,-326 810.282,-326 810.282,-409 810.282,-409 810.282,-415 804.282,-421 798.282,-421 798.282,-421 492.835,-421 492.835,-421 486.835,-421 480.835,-415 480.835,-409 480.835,-409 480.835,-326 480.835,-326 480.835,-320 486.835,-314 492.835,-314"/>
<text text-anchor="start" x="488.835" y="-405.8" font-family="arial" font-size="14.00">Improved sanitation</text>
</a>
</g>
</g>
<g id="clust3" class="cluster"><title>cluster_Safewater</title>
<g id="a_clust3"><a xlink:title=" ">
<path fill="#e5f5e0" stroke="#dadaeb" d="M471.656,-213C471.656,-213 819.46,-213 819.46,-213 825.46,-213 831.46,-219 831.46,-225 831.46,-225 831.46,-294 831.46,-294 831.46,-300 825.46,-306 819.46,-306 819.46,-306 471.656,-306 471.656,-306 465.656,-306 459.656,-300 459.656,-294 459.656,-294 459.656,-225 459.656,-225 459.656,-219 465.656,-213 471.656,-213"/>
<text text-anchor="start" x="467.656" y="-290.8" font-family="arial" font-size="14.00">Safe water</text>
</a>
</g>
</g>
<g id="clust5" class="cluster"><title>cluster_Improvedhygiene</title>
<g id="a_clust5"><a xlink:title=" ">
<path fill="#fee0d2" stroke="#dadaeb" d="M483.422,-112C483.422,-112 807.694,-112 807.694,-112 813.694,-112 819.694,-118 819.694,-124 819.694,-124 819.694,-193 819.694,-193 819.694,-199 813.694,-205 807.694,-205 807.694,-205 483.422,-205 483.422,-205 477.422,-205 471.422,-199 471.422,-193 471.422,-193 471.422,-124 471.422,-124 471.422,-118 477.422,-112 483.422,-112"/>
<text text-anchor="start" x="479.422" y="-189.8" font-family="arial" font-size="14.00">Improved hygiene</text>
</a>
</g>
</g>
<g id="clust6" class="cluster"><title>cluster_Outputs</title>
<g id="a_clust6"><a xlink:title=" ">
<path fill="#fcfbfd" stroke="#dadaeb" d="M24.5503,-8C24.5503,-8 406.868,-8 406.868,-8 412.868,-8 418.868,-14 418.868,-20 418.868,-20 418.868,-537 418.868,-537 418.868,-543 412.868,-549 406.868,-549 406.868,-549 24.5503,-549 24.5503,-549 18.5503,-549 12.5503,-543 12.5503,-537 12.5503,-537 12.5503,-20 12.5503,-20 12.5503,-14 18.5503,-8 24.5503,-8"/>
<text text-anchor="start" x="20.5503" y="-533.8" font-family="arial" font-size="14.00">Outputs</text>
</a>
</g>
</g>
<g id="clust8" class="cluster"><title>cluster_Improvedsanitationduplicated</title>
<g id="a_clust8"><a xlink:title=" ">
<path fill="#deebf7" stroke="#dadaeb" d="M50.4354,-321C50.4354,-321 380.983,-321 380.983,-321 386.983,-321 392.983,-327 392.983,-333 392.983,-333 392.983,-506 392.983,-506 392.983,-512 386.983,-518 380.983,-518 380.983,-518 50.4354,-518 50.4354,-518 44.4354,-518 38.4354,-512 38.4354,-506 38.4354,-506 38.4354,-333 38.4354,-333 38.4354,-327 44.4354,-321 50.4354,-321"/>
<text text-anchor="start" x="46.4354" y="-502.8" font-family="arial" font-size="14.00">Improved sanitation</text>
</a>
</g>
</g>
<g id="clust9" class="cluster"><title>cluster_Improvedhygieneduplicated</title>
<g id="a_clust9"><a xlink:title=" ">
<path fill="#fee0d2" stroke="#dadaeb" d="M50.4354,-16C50.4354,-16 380.983,-16 380.983,-16 386.983,-16 392.983,-22 392.983,-28 392.983,-28 392.983,-164 392.983,-164 392.983,-170 386.983,-176 380.983,-176 380.983,-176 50.4354,-176 50.4354,-176 44.4354,-176 38.4354,-170 38.4354,-164 38.4354,-164 38.4354,-28 38.4354,-28 38.4354,-22 44.4354,-16 50.4354,-16"/>
<text text-anchor="start" x="46.4354" y="-160.8" font-family="arial" font-size="14.00">Improved hygiene</text>
</a>
</g>
</g>
<g id="clust7" class="cluster"><title>cluster_Safewaterduplicated</title>
<g id="a_clust7"><a xlink:title=" ">
<path fill="#e5f5e0" stroke="#dadaeb" d="M37.1007,-184C37.1007,-184 394.317,-184 394.317,-184 400.317,-184 406.317,-190 406.317,-196 406.317,-196 406.317,-301 406.317,-301 406.317,-307 400.317,-313 394.317,-313 394.317,-313 37.1007,-313 37.1007,-313 31.1007,-313 25.1007,-307 25.1007,-301 25.1007,-301 25.1007,-196 25.1007,-196 25.1007,-190 31.1007,-184 37.1007,-184"/>
<text text-anchor="start" x="33.1007" y="-297.8" font-family="arial" font-size="14.00">Safe water</text>
</a>
</g>
</g>
<!-- 1.1 Improved access to and use of sustainable sources of safe water in target communities -->
<g id="node1" class="node"><title>1.1 Improved access to and use of sustainable sources of safe water in target communities</title>
<polygon fill="#e5f5e0" stroke="#e5f5e0" stroke-width="2" points="755.727,-274.5 534.727,-274.5 534.727,-221.5 755.727,-221.5 755.727,-274.5"/>
<text text-anchor="start" x="542.727" y="-259.3" font-family="arial" font-size="14.00">1.1 Improved access to and use</text>
<text text-anchor="start" x="549.727" y="-244.3" font-family="arial" font-size="14.00">of sustainable sources of safe</text>
<text text-anchor="start" x="559.227" y="-229.3" font-family="arial" font-size="14.00">water in target communities</text>
</g>
<!-- 1 &#160;Reduce death and illness related to Water and Sanitation related diseases in the targeted communities -->
<g id="node2" class="node"><title>1 &#160;Reduce death and illness related to Water and Sanitation related diseases in the targeted communities</title>
<polygon fill="#e5f5e0" stroke="#e5f5e0" stroke-width="2" points="1155.73,-282 954.727,-282 954.727,-214 1155.73,-214 1155.73,-282"/>
<text text-anchor="start" x="969.227" y="-266.8" font-family="arial" font-size="14.00">1 Reduce death and illness</text>
<text text-anchor="start" x="990.727" y="-251.8" font-family="arial" font-size="14.00">related to Water and</text>
<text text-anchor="start" x="962.727" y="-236.8" font-family="arial" font-size="14.00">Sanitation related diseases in</text>
<text text-anchor="start" x="975.227" y="-221.8" font-family="arial" font-size="14.00">the targeted communities</text>
</g>
<!-- 1.1 Improved access to and use of sustainable sources of safe water in target communities&#45;&gt;1 &#160;Reduce death and illness related to Water and Sanitation related diseases in the targeted communities -->
<g id="edge1" class="edge"><title>1.1 Improved access to and use of sustainable sources of safe water in target communities&#45;&gt;1 &#160;Reduce death and illness related to Water and Sanitation related diseases in the targeted communities</title>
<path fill="none" stroke="#41ab5d" d="M755.832,-248C814.291,-248 886.017,-248 944.495,-248"/>
<polygon fill="#41ab5d" stroke="#41ab5d" points="944.506,-251.5 954.506,-248 944.506,-244.5 944.506,-251.5"/>
</g>
<!-- 1.2 Improved access to and use of sustainable sanitation facilities among targeted communities -->
<g id="node3" class="node"><title>1.2 Improved access to and use of sustainable sanitation facilities among targeted communities</title>
<polygon fill="#e5f5e0" stroke="#e5f5e0" stroke-width="2" points="742.227,-390 548.227,-390 548.227,-322 742.227,-322 742.227,-390"/>
<text text-anchor="start" x="556.227" y="-374.8" font-family="arial" font-size="14.00">1.2 Improved access to and</text>
<text text-anchor="start" x="556.227" y="-359.8" font-family="arial" font-size="14.00">use of sustainable sanitation</text>
<text text-anchor="start" x="567.727" y="-344.8" font-family="arial" font-size="14.00">facilities among targeted</text>
<text text-anchor="start" x="604.727" y="-329.8" font-family="arial" font-size="14.00">communities</text>
</g>
<!-- 1.2 Improved access to and use of sustainable sanitation facilities among targeted communities&#45;&gt;1 &#160;Reduce death and illness related to Water and Sanitation related diseases in the targeted communities -->
<g id="edge2" class="edge"><title>1.2 Improved access to and use of sustainable sanitation facilities among targeted communities&#45;&gt;1 &#160;Reduce death and illness related to Water and Sanitation related diseases in the targeted communities</title>
<path fill="none" stroke="#41ab5d" d="M742.401,-330.542C803.004,-314.5 881.424,-293.742 944.459,-277.056"/>
<polygon fill="#41ab5d" stroke="#41ab5d" points="945.667,-280.357 954.439,-274.415 943.876,-273.59 945.667,-280.357"/>
</g>
<!-- 1.3 Enhanced practice of safe hygiene and sanitation in the household -->
<g id="node4" class="node"><title>1.3 Enhanced practice of safe hygiene and sanitation in the household</title>
<polygon fill="#e5f5e0" stroke="#e5f5e0" stroke-width="2" points="748.227,-173.5 542.227,-173.5 542.227,-120.5 748.227,-120.5 748.227,-173.5"/>
<text text-anchor="start" x="550.227" y="-158.3" font-family="arial" font-size="14.00">1.3 Enhanced practice of safe</text>
<text text-anchor="start" x="556.227" y="-143.3" font-family="arial" font-size="14.00">hygiene and sanitation in the</text>
<text text-anchor="start" x="611.727" y="-128.3" font-family="arial" font-size="14.00">household</text>
</g>
<!-- 1.3 Enhanced practice of safe hygiene and sanitation in the household&#45;&gt;1 &#160;Reduce death and illness related to Water and Sanitation related diseases in the targeted communities -->
<g id="edge3" class="edge"><title>1.3 Enhanced practice of safe hygiene and sanitation in the household&#45;&gt;1 &#160;Reduce death and illness related to Water and Sanitation related diseases in the targeted communities</title>
<path fill="none" stroke="#41ab5d" d="M748.393,-172.291C808.093,-187.07 883.441,-205.722 944.409,-220.815"/>
<polygon fill="#41ab5d" stroke="#41ab5d" points="943.904,-224.295 954.453,-223.301 945.587,-217.5 943.904,-224.295"/>
</g>
<!-- 1.1.1 Community water points constructed or rehabilitated -->
<g id="node5" class="node"><title>1.1.1 Community water points constructed or rehabilitated</title>
<polygon fill="#e5f5e0" stroke="#e5f5e0" stroke-width="2" points="316.727,-282 113.727,-282 113.727,-244 316.727,-244 316.727,-282"/>
<text text-anchor="start" x="121.727" y="-266.8" font-family="arial" font-size="14.00">1.1.1 Community water points</text>
<text text-anchor="start" x="129.227" y="-251.8" font-family="arial" font-size="14.00">constructed or rehabilitated</text>
</g>
<!-- 1.1.1 Community water points constructed or rehabilitated&#45;&gt;1.1 Improved access to and use of sustainable sources of safe water in target communities -->
<g id="edge4" class="edge"><title>1.1.1 Community water points constructed or rehabilitated&#45;&gt;1.1 Improved access to and use of sustainable sources of safe water in target communities</title>
<path fill="none" stroke="#41ab5d" d="M316.845,-259.474C378.886,-257.299 458.804,-254.498 524.148,-252.208"/>
<polygon fill="#41ab5d" stroke="#41ab5d" points="524.634,-255.694 534.505,-251.845 524.388,-248.698 524.634,-255.694"/>
</g>
<!-- 1.1.2 Community management of water points is improved -->
<g id="node6" class="node"><title>1.1.2 Community management of water points is improved</title>
<polygon fill="#e5f5e0" stroke="#e5f5e0" stroke-width="2" points="328.727,-230 101.727,-230 101.727,-192 328.727,-192 328.727,-230"/>
<text text-anchor="start" x="109.727" y="-214.8" font-family="arial" font-size="14.00">1.1.2 Community management of</text>
<text text-anchor="start" x="138.227" y="-199.8" font-family="arial" font-size="14.00">water points is improved</text>
</g>
<!-- 1.1.2 Community management of water points is improved&#45;&gt;1.1 Improved access to and use of sustainable sources of safe water in target communities -->
<g id="edge5" class="edge"><title>1.1.2 Community management of water points is improved&#45;&gt;1.1 Improved access to and use of sustainable sources of safe water in target communities</title>
<path fill="none" stroke="#41ab5d" d="M328.959,-220.746C389.136,-225.948 463.198,-232.35 524.415,-237.642"/>
<polygon fill="#41ab5d" stroke="#41ab5d" points="524.25,-241.141 534.515,-238.515 524.853,-234.167 524.25,-241.141"/>
</g>
<!-- 1.2.1 Sanitation facilities constructed -->
<g id="node7" class="node"><title>1.2.1 Sanitation facilities constructed</title>
<polygon fill="#e5f5e0" stroke="#e5f5e0" stroke-width="2" points="299.727,-487 130.727,-487 130.727,-449 299.727,-449 299.727,-487"/>
<text text-anchor="start" x="138.727" y="-471.8" font-family="arial" font-size="14.00">1.2.1 Sanitation facilities</text>
<text text-anchor="start" x="177.727" y="-456.8" font-family="arial" font-size="14.00">constructed</text>
</g>
<!-- 1.2.1 Sanitation facilities constructed&#45;&gt;1.2 Improved access to and use of sustainable sanitation facilities among targeted communities -->
<g id="edge6" class="edge"><title>1.2.1 Sanitation facilities constructed&#45;&gt;1.2 Improved access to and use of sustainable sanitation facilities among targeted communities</title>
<path fill="none" stroke="#41ab5d" d="M299.737,-452.113C314.761,-448.968 330.245,-445.538 344.727,-442 409.433,-426.191 481.179,-405.695 538.225,-388.677"/>
<polygon fill="#41ab5d" stroke="#41ab5d" points="539.396,-391.98 547.973,-385.761 537.39,-385.274 539.396,-391.98"/>
</g>
<!-- 1.2.2 Sanitation facility use is promoted -->
<g id="node8" class="node"><title>1.2.2 Sanitation facility use is promoted</title>
<polygon fill="#e5f5e0" stroke="#e5f5e0" stroke-width="2" points="307.227,-435 123.227,-435 123.227,-397 307.227,-397 307.227,-435"/>
<text text-anchor="start" x="131.227" y="-419.8" font-family="arial" font-size="14.00">1.2.2 Sanitation facility use</text>
<text text-anchor="start" x="177.227" y="-404.8" font-family="arial" font-size="14.00">is promoted</text>
</g>
<!-- 1.2.2 Sanitation facility use is promoted&#45;&gt;1.2 Improved access to and use of sustainable sanitation facilities among targeted communities -->
<g id="edge7" class="edge"><title>1.2.2 Sanitation facility use is promoted&#45;&gt;1.2 Improved access to and use of sustainable sanitation facilities among targeted communities</title>
<path fill="none" stroke="#41ab5d" d="M307.257,-403.239C374.749,-393.777 466.94,-380.853 537.834,-370.915"/>
<polygon fill="#41ab5d" stroke="#41ab5d" points="538.717,-374.326 548.134,-369.471 537.745,-367.393 538.717,-374.326"/>
</g>
<!-- 1.2.3 Community management of sanitation facilities is improved -->
<g id="node9" class="node"><title>1.2.3 Community management of sanitation facilities is improved</title>
<polygon fill="#e5f5e0" stroke="#e5f5e0" stroke-width="2" points="320.227,-382.5 110.227,-382.5 110.227,-329.5 320.227,-329.5 320.227,-382.5"/>
<text text-anchor="start" x="118.227" y="-367.3" font-family="arial" font-size="14.00">1.2.3 Community management</text>
<text text-anchor="start" x="142.727" y="-352.3" font-family="arial" font-size="14.00">of sanitation facilities is</text>
<text text-anchor="start" x="185.227" y="-337.3" font-family="arial" font-size="14.00">improved</text>
</g>
<!-- 1.2.3 Community management of sanitation facilities is improved&#45;&gt;1.2 Improved access to and use of sustainable sanitation facilities among targeted communities -->
<g id="edge8" class="edge"><title>1.2.3 Community management of sanitation facilities is improved&#45;&gt;1.2 Improved access to and use of sustainable sanitation facilities among targeted communities</title>
<path fill="none" stroke="#41ab5d" d="M320.381,-356C386.399,-356 471.552,-356 537.971,-356"/>
<polygon fill="#41ab5d" stroke="#41ab5d" points="538.046,-359.5 548.046,-356 538.046,-352.5 538.046,-359.5"/>
</g>
<!-- 1.3.1 Household knowledge increased on safe hygiene and sanitation -->
<g id="node10" class="node"><title>1.3.1 Household knowledge increased on safe hygiene and sanitation</title>
<polygon fill="#e5f5e0" stroke="#e5f5e0" stroke-width="2" points="320.227,-144.5 110.227,-144.5 110.227,-91.5 320.227,-91.5 320.227,-144.5"/>
<text text-anchor="start" x="126.727" y="-129.3" font-family="arial" font-size="14.00">1.3.1 Household knowledge</text>
<text text-anchor="start" x="118.227" y="-114.3" font-family="arial" font-size="14.00">increased on safe hygiene and</text>
<text text-anchor="start" x="185.227" y="-99.3" font-family="arial" font-size="14.00">sanitation</text>
</g>
<!-- 1.3.1 Household knowledge increased on safe hygiene and sanitation&#45;&gt;1.3 Enhanced practice of safe hygiene and sanitation in the household -->
<g id="edge9" class="edge"><title>1.3.1 Household knowledge increased on safe hygiene and sanitation&#45;&gt;1.3 Enhanced practice of safe hygiene and sanitation in the household</title>
<path fill="none" stroke="#41ab5d" d="M320.381,-125.057C384.384,-129.394 466.373,-134.949 531.839,-139.385"/>
<polygon fill="#41ab5d" stroke="#41ab5d" points="531.985,-142.903 542.199,-140.087 532.458,-135.919 531.985,-142.903"/>
</g>
<!-- 1.3.2 Household training on safe hygiene and sanitation provided -->
<g id="node11" class="node"><title>1.3.2 Household training on safe hygiene and sanitation provided</title>
<polygon fill="#e5f5e0" stroke="#e5f5e0" stroke-width="2" points="309.727,-77.5 120.727,-77.5 120.727,-24.5 309.727,-24.5 309.727,-77.5"/>
<text text-anchor="start" x="128.727" y="-62.3" font-family="arial" font-size="14.00">1.3.2 Household training on</text>
<text text-anchor="start" x="129.227" y="-47.3" font-family="arial" font-size="14.00">safe hygiene and sanitation</text>
<text text-anchor="start" x="187.227" y="-32.3" font-family="arial" font-size="14.00">provided</text>
</g>
<!-- 1.3.2 Household training on safe hygiene and sanitation provided&#45;&gt;1.3 Enhanced practice of safe hygiene and sanitation in the household -->
<g id="edge10" class="edge"><title>1.3.2 Household training on safe hygiene and sanitation provided&#45;&gt;1.3 Enhanced practice of safe hygiene and sanitation in the household</title>
<path fill="none" stroke="#41ab5d" d="M309.889,-72.0083C375.311,-86.6823 462.965,-106.343 532.109,-121.852"/>
<polygon fill="#41ab5d" stroke="#41ab5d" points="531.648,-125.335 542.171,-124.109 533.18,-118.505 531.648,-125.335"/>
</g>
</g>
</svg>
