<?xml version="1.0" encoding="UTF-8" standalone="no"?>
<!DOCTYPE svg PUBLIC "-//W3C//DTD SVG 1.1//EN"
 "http://www.w3.org/Graphics/SVG/1.1/DTD/svg11.dtd">
<!-- Generated by graphviz version 2.38.0 (20140413.2041)
 -->
<!-- Title: foo Pages: 1 -->
<svg width="624pt" height="108pt"
 viewBox="0.00 0.00 624.00 108.00" xmlns="http://www.w3.org/2000/svg" xmlns:xlink="http://www.w3.org/1999/xlink">
<g id="graph0" class="graph" transform="scale(1 1) rotate(0) translate(4 104)">
<title>foo</title>
<g id="a_graph0"><a xlink:title=" ">
<polygon fill="white" stroke="none" points="-4,4 -4,-104 620,-104 620,4 -4,4"/>
</a>
</g>
<!-- Teacher attends course -->
<g id="node1" class="node"><title>Teacher attends course</title>
<polygon fill="#e5f5e0" stroke="#e5f5e0" stroke-width="2" points="454,-64 287,-64 287,-28 454,-28 454,-64"/>
<text text-anchor="start" x="295" y="-42.3" font-family="arial" font-size="14.00">Teacher attends course</text>
</g>
<!-- Better teaching Ministry: !heart Teacher: !heart -->
<g id="node2" class="node"><title>Better teaching Ministry: !heart Teacher: !heart</title>
<polygon fill="#e5f5e0" stroke="#e5f5e0" stroke-width="2" points="616,-100 504,-100 504,-50 616,-50 616,-100"/>
<text text-anchor="start" x="512" y="-85.8" font-family="arial" font-size="14.00">Better teaching</text>
<text text-anchor="start" x="528" y="-71.8" font-family="arial" font-size="14.00">Ministry: </text>
<text text-anchor="start" x="583" y="-71.8" font-family="arial" font-size="14.00" fill="orange">♥</text>
<text text-anchor="start" x="525" y="-57.8" font-family="arial" font-size="14.00">Teacher: </text>
<text text-anchor="start" x="586" y="-57.8" font-family="arial" font-size="14.00" fill="orange">♥</text>
</g>
<!-- Teacher attends course&#45;&gt;Better teaching Ministry: !heart Teacher: !heart -->
<g id="edge1" class="edge"><title>Teacher attends course&#45;&gt;Better teaching Ministry: !heart Teacher: !heart</title>
<path fill="none" stroke="#41ab5d" d="M454.013,-58.762C467.347,-60.8244 480.99,-62.9344 493.839,-64.9218"/>
<polygon fill="#41ab5d" stroke="#41ab5d" points="493.536,-68.4164 503.953,-66.4861 494.606,-61.4987 493.536,-68.4164"/>
</g>
<!-- More pay ///Teacher: !heart -->
<g id="node3" class="node"><title>More pay ///Teacher: !heart</title>
<polygon fill="#e5f5e0" stroke="#e5f5e0" stroke-width="2" points="603,-36 517,-36 517,-0 603,-0 603,-36"/>
<text text-anchor="start" x="528.5" y="-21.8" font-family="arial" font-size="14.00">More pay </text>
<text text-anchor="start" x="525" y="-7.8" font-family="arial" font-size="14.00">Teacher: </text>
<text text-anchor="start" x="586" y="-7.8" font-family="arial" font-size="14.00" fill="orange">♥</text>
</g>
<!-- Teacher attends course&#45;&gt;More pay ///Teacher: !heart -->
<g id="edge2" class="edge"><title>Teacher attends course&#45;&gt;More pay ///Teacher: !heart</title>
<path fill="none" stroke="#41ab5d" d="M454.013,-33.678C471.994,-30.9928 490.535,-28.2241 506.938,-25.7746"/>
<polygon fill="#41ab5d" stroke="#41ab5d" points="507.477,-29.233 516.851,-24.2943 506.443,-22.3097 507.477,-29.233"/>
</g>
<!-- Ministry: !do ///Provides in&#45;service teacher training -->
<g id="node4" class="node"><title>Ministry: !do ///Provides in&#45;service teacher training</title>
<polygon fill="#e5f5e0" stroke="#e5f5e0" stroke-width="2" points="237,-89 0,-89 0,-53 237,-53 237,-89"/>
<text text-anchor="start" x="81" y="-74.8" font-family="arial" font-size="14.00">Ministry: </text>
<text text-anchor="start" x="136" y="-74.8" font-family="arial" font-size="14.00" fill="green">▶ </text>
<text text-anchor="start" x="152" y="-74.8" font-family="arial" font-size="14.00"> </text>
<text text-anchor="start" x="8" y="-60.8" font-family="arial" font-size="14.00">Provides in&#45;service teacher training</text>
</g>
<!-- Ministry: !do ///Provides in&#45;service teacher training&#45;&gt;Teacher attends course -->
<g id="edge3" class="edge"><title>Ministry: !do ///Provides in&#45;service teacher training&#45;&gt;Teacher attends course</title>
<path fill="none" stroke="#41ab5d" d="M237.18,-59.232C250.37,-57.913 263.67,-56.583 276.489,-55.3011"/>
<polygon fill="#41ab5d" stroke="#41ab5d" points="277.053,-58.7622 286.655,-54.2845 276.356,-51.797 277.053,-58.7622"/>
</g>
<!-- Teacher: &#160;!do ///Effort to attend course -->
<g id="node5" class="node"><title>Teacher: &#160;!do ///Effort to attend course</title>
<polygon fill="#e5f5e0" stroke="#e5f5e0" stroke-width="2" points="197.5,-39 39.5,-39 39.5,-3 197.5,-3 197.5,-39"/>
<text text-anchor="start" x="76.5" y="-24.8" font-family="arial" font-size="14.00">Teacher: &#160;</text>
<text text-anchor="start" x="140.5" y="-24.8" font-family="arial" font-size="14.00" fill="green">▶ </text>
<text text-anchor="start" x="156.5" y="-24.8" font-family="arial" font-size="14.00"> </text>
<text text-anchor="start" x="47.5" y="-10.8" font-family="arial" font-size="14.00">Effort to attend course</text>
</g>
<!-- Teacher: &#160;!do ///Effort to attend course&#45;&gt;Teacher attends course -->
<g id="edge4" class="edge"><title>Teacher: &#160;!do ///Effort to attend course&#45;&gt;Teacher attends course</title>
<path fill="none" stroke="#41ab5d" d="M197.573,-28.8073C222.616,-31.3116 250.598,-34.1098 276.594,-36.7094"/>
<polygon fill="#41ab5d" stroke="#41ab5d" points="276.531,-40.2205 286.83,-37.733 277.228,-33.2552 276.531,-40.2205"/>
</g>
</g>
</svg>
