<?xml version="1.0" encoding="UTF-8" standalone="no"?>
<!DOCTYPE svg PUBLIC "-//W3C//DTD SVG 1.1//EN"
 "http://www.w3.org/Graphics/SVG/1.1/DTD/svg11.dtd">
<!-- Generated by graphviz version 2.38.0 (20140413.2041)
 -->
<!-- Title: foo Pages: 1 -->
<svg width="370pt" height="96pt"
 viewBox="0.00 0.00 370.00 96.00" xmlns="http://www.w3.org/2000/svg" xmlns:xlink="http://www.w3.org/1999/xlink">
<g id="graph0" class="graph" transform="scale(1 1) rotate(0) translate(4 92)">
<title>foo</title>
<g id="a_graph0"><a xlink:title=" ">
<polygon fill="#c7e9c0" stroke="none" points="-4,4 -4,-92 366,-92 366,4 -4,4"/>
<text text-anchor="start" x="94.5" y="-7.2" font-family="tahoma" font-size="11.00" fill="#238b45">Alternative: differences everywhere</text>
</a>
</g>
<!-- ((Increased)) &#160;percentage of children vaccinated -->
<g id="node1" class="node"><title>((Increased)) &#160;percentage of children vaccinated</title>
<polygon fill="#f7fcf5" stroke="#f7fcf5" points="238,-88 140,-88 140,-20 238,-20 238,-88"/>
<text text-anchor="start" x="148" y="-72.8" font-family="Helvetica,sans-Serif" font-size="14.00" fill="green">((Increased))</text>
<text text-anchor="start" x="152.5" y="-57.8" font-family="Helvetica,sans-Serif" font-size="14.00" fill="#006d2c">percentage</text>
<text text-anchor="start" x="155.5" y="-42.8" font-family="Helvetica,sans-Serif" font-size="14.00" fill="#006d2c">of children</text>
<text text-anchor="start" x="155" y="-27.8" font-family="Helvetica,sans-Serif" font-size="14.00" fill="#006d2c">vaccinated</text>
</g>
<!-- ((Lower)) &#160;mortality -->
<g id="node2" class="node"><title>((Lower)) &#160;mortality</title>
<polygon fill="#f7fcf5" stroke="#f7fcf5" points="362,-73 288,-73 288,-35 362,-35 362,-73"/>
<text text-anchor="start" x="296" y="-57.8" font-family="Helvetica,sans-Serif" font-size="14.00" fill="green">((Lower))</text>
<text text-anchor="start" x="298.5" y="-42.8" font-family="Helvetica,sans-Serif" font-size="14.00" fill="#006d2c">mortality</text>
</g>
<!-- ((Increased)) &#160;percentage of children vaccinated&#45;&gt;((Lower)) &#160;mortality -->
<g id="edge1" class="edge"><title>((Increased)) &#160;percentage of children vaccinated&#45;&gt;((Lower)) &#160;mortality</title>
<path fill="none" stroke="#41ab5d" stroke-width="2" d="M238.377,-54C251.145,-54 264.893,-54 277.556,-54"/>
<polygon fill="#41ab5d" stroke="#41ab5d" stroke-width="2" points="277.892,-57.5001 287.892,-54 277.892,-50.5001 277.892,-57.5001"/>
</g>
<!-- ((Larger)) &#160;extent of vaccination programme -->
<g id="node3" class="node"><title>((Larger)) &#160;extent of vaccination programme</title>
<polygon fill="#f7fcf5" stroke="#f7fcf5" points="90,-88 0,-88 0,-20 90,-20 90,-88"/>
<text text-anchor="start" x="15" y="-72.8" font-family="Helvetica,sans-Serif" font-size="14.00" fill="green">((Larger))</text>
<text text-anchor="start" x="17.5" y="-57.8" font-family="Helvetica,sans-Serif" font-size="14.00" fill="#006d2c">extent of</text>
<text text-anchor="start" x="10" y="-42.8" font-family="Helvetica,sans-Serif" font-size="14.00" fill="#006d2c">vaccination</text>
<text text-anchor="start" x="8" y="-27.8" font-family="Helvetica,sans-Serif" font-size="14.00" fill="#006d2c">programme</text>
</g>
<!-- ((Larger)) &#160;extent of vaccination programme&#45;&gt;((Increased)) &#160;percentage of children vaccinated -->
<g id="edge2" class="edge"><title>((Larger)) &#160;extent of vaccination programme&#45;&gt;((Increased)) &#160;percentage of children vaccinated</title>
<path fill="none" stroke="#41ab5d" stroke-width="2" d="M90.1513,-54C102.738,-54 116.644,-54 129.926,-54"/>
<polygon fill="#41ab5d" stroke="#41ab5d" stroke-width="2" points="129.928,-57.5001 139.928,-54 129.928,-50.5001 129.928,-57.5001"/>
</g>
</g>
</svg>
