<?xml version="1.0" encoding="UTF-8" standalone="no"?>
<!DOCTYPE svg PUBLIC "-//W3C//DTD SVG 1.1//EN"
 "http://www.w3.org/Graphics/SVG/1.1/DTD/svg11.dtd">
<!-- Generated by graphviz version 2.38.0 (20140413.2041)
 -->
<!-- Title: foo Pages: 1 -->
<svg width="496pt" height="166pt"
 viewBox="0.00 0.00 496.00 166.00" xmlns="http://www.w3.org/2000/svg" xmlns:xlink="http://www.w3.org/1999/xlink">
<g id="graph0" class="graph" transform="scale(1 1) rotate(0) translate(4 162)">
<title>foo</title>
<g id="a_graph0"><a xlink:title=" ">
<polygon fill="white" stroke="none" points="-4,4 -4,-162 492,-162 492,4 -4,4"/>
</a>
</g>
<!-- Legislators have more favourable views !heart -->
<g id="node1" class="node"><title>Legislators have more favourable views !heart</title>
<polygon fill="#e5f5e0" stroke="#e5f5e0" stroke-width="2" points="359,-119 273,-119 273,-55 359,-55 359,-119"/>
<text text-anchor="start" x="281" y="-104.8" font-family="arial" font-size="14.00">Legislators</text>
<text text-anchor="start" x="282.5" y="-90.8" font-family="arial" font-size="14.00">have more</text>
<text text-anchor="start" x="282.5" y="-76.8" font-family="arial" font-size="14.00">favourable</text>
<text text-anchor="start" x="291.5" y="-62.8" font-family="arial" font-size="14.00">views </text>
<text text-anchor="start" x="331.5" y="-62.8" font-family="arial" font-size="14.00" fill="orange">♥</text>
</g>
<!-- Law on same&#45;sex marriage is passed !heart -->
<g id="node2" class="node"><title>Law on same&#45;sex marriage is passed !heart</title>
<polygon fill="#e5f5e0" stroke="#e5f5e0" stroke-width="2" points="488,-126 409,-126 409,-48 488,-48 488,-126"/>
<text text-anchor="start" x="425.5" y="-111.8" font-family="arial" font-size="14.00">Law on</text>
<text text-anchor="start" x="417" y="-97.8" font-family="arial" font-size="14.00">same&#45;sex</text>
<text text-anchor="start" x="420.5" y="-83.8" font-family="arial" font-size="14.00">marriage</text>
<text text-anchor="start" x="443" y="-69.8" font-family="arial" font-size="14.00">is</text>
<text text-anchor="start" x="418" y="-55.8" font-family="arial" font-size="14.00">passed </text>
<text text-anchor="start" x="470" y="-55.8" font-family="arial" font-size="14.00" fill="orange">♥</text>
</g>
<!-- Legislators have more favourable views !heart&#45;&gt;Law on same&#45;sex marriage is passed !heart -->
<g id="edge1" class="edge"><title>Legislators have more favourable views !heart&#45;&gt;Law on same&#45;sex marriage is passed !heart</title>
<path fill="none" stroke="#41ab5d" d="M359.009,-87C371.591,-87 385.499,-87 398.49,-87"/>
<polygon fill="#41ab5d" stroke="#41ab5d" points="398.669,-90.5001 408.669,-87 398.669,-83.5001 398.669,-90.5001"/>
</g>
<!-- Other campaign &#160;lobbies legislators -->
<g id="node3" class="node"><title>Other campaign &#160;lobbies legislators</title>
<polygon fill="#e5f5e0" stroke="#e5f5e0" stroke-width="2" points="219.5,-158 138.5,-158 138.5,-90 219.5,-90 219.5,-158"/>
<text text-anchor="start" x="161" y="-142.8" font-family="arial" font-size="14.00">Other</text>
<text text-anchor="start" x="148" y="-127.8" font-family="arial" font-size="14.00">campaign</text>
<text text-anchor="start" x="155.5" y="-112.8" font-family="arial" font-size="14.00">lobbies</text>
<text text-anchor="start" x="146.5" y="-97.8" font-family="arial" font-size="14.00">legislators</text>
</g>
<!-- Other campaign &#160;lobbies legislators&#45;&gt;Legislators have more favourable views !heart -->
<g id="edge2" class="edge"><title>Other campaign &#160;lobbies legislators&#45;&gt;Legislators have more favourable views !heart</title>
<path fill="none" stroke="#41ab5d" d="M219.774,-113.099C233.298,-109.392 248.618,-105.194 262.956,-101.264"/>
<polygon fill="#41ab5d" stroke="#41ab5d" points="263.971,-104.615 272.69,-98.596 262.121,-97.8638 263.971,-104.615"/>
</g>
<!-- Public opinion improves !heart -->
<g id="node4" class="node"><title>Public opinion improves !heart</title>
<polygon fill="#e5f5e0" stroke="#e5f5e0" stroke-width="2" points="223,-76 135,-76 135,-26 223,-26 223,-76"/>
<text text-anchor="start" x="159" y="-61.8" font-family="arial" font-size="14.00">Public</text>
<text text-anchor="start" x="156" y="-47.8" font-family="arial" font-size="14.00">opinion</text>
<text text-anchor="start" x="143" y="-33.8" font-family="arial" font-size="14.00">improves </text>
<text text-anchor="start" x="206" y="-33.8" font-family="arial" font-size="14.00" fill="orange">♥</text>
</g>
<!-- Public opinion improves !heart&#45;&gt;Legislators have more favourable views !heart -->
<g id="edge3" class="edge"><title>Public opinion improves !heart&#45;&gt;Legislators have more favourable views !heart</title>
<path fill="none" stroke="#41ab5d" d="M223.086,-62.4896C235.753,-65.8675 249.746,-69.599 262.912,-73.11"/>
<polygon fill="#41ab5d" stroke="#41ab5d" points="262.22,-76.5476 272.784,-75.7424 264.024,-69.7839 262.22,-76.5476"/>
</g>
<!-- !do Our campaign is launched -->
<g id="node5" class="node"><title>!do Our campaign is launched</title>
<polygon fill="#e5f5e0" stroke="#e5f5e0" stroke-width="2" points="81.5,-116 3.5,-116 3.5,-52 81.5,-52 81.5,-116"/>
<text text-anchor="start" x="20.5" y="-101.8" font-family="arial" font-size="14.00" fill="green">▶ </text>
<text text-anchor="start" x="36.5" y="-101.8" font-family="arial" font-size="14.00"> Our</text>
<text text-anchor="start" x="11.5" y="-87.8" font-family="arial" font-size="14.00">campaign</text>
<text text-anchor="start" x="37" y="-73.8" font-family="arial" font-size="14.00">is</text>
<text text-anchor="start" x="13.5" y="-59.8" font-family="arial" font-size="14.00">launched</text>
</g>
<!-- !do Our campaign is launched&#45;&gt;Public opinion improves !heart -->
<g id="edge4" class="edge"><title>!do Our campaign is launched&#45;&gt;Public opinion improves !heart</title>
<path fill="none" stroke="#41ab5d" d="M81.6825,-74.6318C95.1864,-71.3186 110.627,-67.5303 125.13,-63.9717"/>
<polygon fill="#41ab5d" stroke="#41ab5d" points="126.109,-67.3355 134.987,-61.5534 124.441,-60.5372 126.109,-67.3355"/>
</g>
<!-- Celebrities speak out -->
<g id="node6" class="node"><title>Celebrities speak out</title>
<polygon fill="#e5f5e0" stroke="#e5f5e0" stroke-width="2" points="85,-38 0,-38 0,-0 85,-0 85,-38"/>
<text text-anchor="start" x="8" y="-22.8" font-family="arial" font-size="14.00">Celebrities</text>
<text text-anchor="start" x="11.5" y="-7.8" font-family="arial" font-size="14.00">speak out</text>
</g>
<!-- Celebrities speak out&#45;&gt;Public opinion improves !heart -->
<g id="edge5" class="edge"><title>Celebrities speak out&#45;&gt;Public opinion improves !heart</title>
<path fill="none" stroke="#41ab5d" d="M85.3194,-28.9496C97.8553,-31.9321 111.774,-35.2436 124.933,-38.3745"/>
<polygon fill="#41ab5d" stroke="#41ab5d" points="124.275,-41.8154 134.813,-40.725 125.895,-35.0054 124.275,-41.8154"/>
</g>
</g>
</svg>
