<?xml version="1.0" encoding="UTF-8" standalone="no"?>
<!DOCTYPE svg PUBLIC "-//W3C//DTD SVG 1.1//EN"
 "http://www.w3.org/Graphics/SVG/1.1/DTD/svg11.dtd">
<!-- Generated by graphviz version 2.38.0 (20140413.2041)
 -->
<!-- Title: foo Pages: 1 -->
<svg width="166pt" height="194pt"
 viewBox="0.00 0.00 166.00 194.00" xmlns="http://www.w3.org/2000/svg" xmlns:xlink="http://www.w3.org/1999/xlink">
<g id="graph0" class="graph" transform="scale(1 1) rotate(0) translate(4 190)">
<title>foo</title>
<g id="a_graph0"><a xlink:title=" ">
<polygon fill="white" stroke="none" points="-4,4 -4,-190 162,-190 162,4 -4,4"/>
</a>
</g>
<!-- A -->
<g id="node1" class="node"><title>A</title>
<polygon fill="#e5f5e0" stroke="#e5f5e0" stroke-width="2" points="54,-186 0,-186 0,-150 54,-150 54,-186"/>
<text text-anchor="start" x="22" y="-164.3" font-family="arial" font-size="14.00">A</text>
</g>
<!-- X !minus -->
<g id="node2" class="node"><title>X !minus</title>
<polygon fill="#e5f5e0" stroke="#e5f5e0" stroke-width="2" points="158,-111 104,-111 104,-75 158,-75 158,-111"/>
<text text-anchor="start" x="118.5" y="-89.3" font-family="arial" font-size="14.00">X ⊖</text>
</g>
<!-- A&#45;&gt;X !minus -->
<g id="edge1" class="edge"><title>A&#45;&gt;X !minus</title>
<path fill="none" stroke="#41ab5d" d="M52.6914,-149.845C65.9987,-140.06 82.5968,-127.855 96.9984,-117.266"/>
<polygon fill="#41ab5d" stroke="#41ab5d" points="99.1993,-119.992 105.182,-111.248 95.0526,-114.352 99.1993,-119.992"/>
</g>
<!-- B -->
<g id="node3" class="node"><title>B</title>
<polygon fill="#e5f5e0" stroke="#e5f5e0" stroke-width="2" points="54,-136 0,-136 0,-100 54,-100 54,-136"/>
<text text-anchor="start" x="22" y="-114.3" font-family="arial" font-size="14.00">B</text>
</g>
<!-- B&#45;&gt;X !minus -->
<g id="edge2" class="edge"><title>B&#45;&gt;X !minus</title>
<path fill="none" stroke="#41ab5d" d="M54.0028,-111.627C66.1377,-108.653 80.781,-105.063 93.9616,-101.833"/>
<polygon fill="#41ab5d" stroke="#41ab5d" points="94.8107,-105.229 103.69,-99.4485 93.1443,-98.4297 94.8107,-105.229"/>
</g>
<!-- C -->
<g id="node4" class="node"><title>C</title>
<polygon fill="#e5f5e0" stroke="#e5f5e0" stroke-width="2" points="54,-86 0,-86 0,-50 54,-50 54,-86"/>
<text text-anchor="start" x="21.5" y="-64.3" font-family="arial" font-size="14.00">C</text>
</g>
<!-- C&#45;&gt;X !minus -->
<g id="edge3" class="edge"><title>C&#45;&gt;X !minus</title>
<path fill="none" stroke="#41ab5d" d="M54.0028,-74.3732C66.1377,-77.3475 80.781,-80.9365 93.9616,-84.1671"/>
<polygon fill="#41ab5d" stroke="#41ab5d" points="93.1443,-87.5703 103.69,-86.5515 94.8107,-80.7715 93.1443,-87.5703"/>
</g>
<!-- D -->
<g id="node5" class="node"><title>D</title>
<polygon fill="#e5f5e0" stroke="#e5f5e0" stroke-width="2" points="54,-36 0,-36 0,-0 54,-0 54,-36"/>
<text text-anchor="start" x="21.5" y="-14.3" font-family="arial" font-size="14.00">D</text>
</g>
<!-- D&#45;&gt;X !minus -->
<g id="edge4" class="edge"><title>D&#45;&gt;X !minus</title>
<path fill="none" stroke="#41ab5d" d="M52.6914,-36.1554C65.9987,-45.9402 82.5968,-58.1447 96.9984,-68.7341"/>
<polygon fill="#41ab5d" stroke="#41ab5d" points="95.0526,-71.6477 105.182,-74.7518 99.1993,-66.0081 95.0526,-71.6477"/>
</g>
</g>
</svg>
