<?xml version="1.0" encoding="UTF-8" standalone="no"?>
<!DOCTYPE svg PUBLIC "-//W3C//DTD SVG 1.1//EN"
 "http://www.w3.org/Graphics/SVG/1.1/DTD/svg11.dtd">
<!-- Generated by graphviz version 2.38.0 (20140413.2041)
 -->
<!-- Title: foo Pages: 1 -->
<svg width="560pt" height="148pt"
 viewBox="0.00 0.00 560.00 148.00" xmlns="http://www.w3.org/2000/svg" xmlns:xlink="http://www.w3.org/1999/xlink">
<g id="graph0" class="graph" transform="scale(1 1) rotate(0) translate(4 144)">
<title>foo</title>
<g id="a_graph0"><a xlink:title=" ">
<polygon fill="#d9d9d9" stroke="none" points="-4,4 -4,-144 556,-144 556,4 -4,4"/>
<text text-anchor="start" x="184" y="-7.2" font-family="tahoma" font-size="11.00" fill="#525252">You don&#39;t have to stick to this format</text>
</a>
</g>
<!-- improved student exam results -->
<g id="node1" class="node"><title>improved student exam results</title>
<polygon fill="#fee6ce" stroke="#fee6ce" points="407,-106 306,-106 306,-53 407,-53 407,-106"/>
<text text-anchor="start" x="326.5" y="-90.8" font-family="Helvetica,sans-Serif" font-size="14.00">improved</text>
<text text-anchor="start" x="314" y="-75.8" font-family="Helvetica,sans-Serif" font-size="14.00">student exam</text>
<text text-anchor="start" x="335" y="-60.8" font-family="Helvetica,sans-Serif" font-size="14.00">results</text>
</g>
<!-- improved student employment prospects//!heart -->
<g id="node2" class="node"><title>improved student employment prospects//!heart</title>
<polygon fill="#fee6ce" stroke="#fee6ce" points="552,-121 457,-121 457,-38 552,-38 552,-121"/>
<text text-anchor="start" x="474.5" y="-105.8" font-family="Helvetica,sans-Serif" font-size="14.00">improved</text>
<text text-anchor="start" x="481" y="-90.8" font-family="Helvetica,sans-Serif" font-size="14.00">student</text>
<text text-anchor="start" x="465" y="-75.8" font-family="Helvetica,sans-Serif" font-size="14.00">employment</text>
<text text-anchor="start" x="472.5" y="-60.8" font-family="Helvetica,sans-Serif" font-size="14.00">prospects</text>
<text text-anchor="start" x="500" y="-45.8" font-family="Helvetica,sans-Serif" font-size="14.00" fill="orange">♥</text>
</g>
<!-- improved student exam results&#45;&gt;improved student employment prospects//!heart -->
<g id="edge1" class="edge"><title>improved student exam results&#45;&gt;improved student employment prospects//!heart</title>
<path fill="none" stroke="#737373" stroke-width="2" d="M407.337,-79.5C419.982,-79.5 433.662,-79.5 446.627,-79.5"/>
<polygon fill="#737373" stroke="#737373" stroke-width="2" points="446.839,-83.0001 456.839,-79.5 446.839,-76.0001 446.839,-83.0001"/>
</g>
<!-- improved student self&#45;confidence -->
<g id="node3" class="node"><title>improved student self&#45;confidence</title>
<polygon fill="#fee6ce" stroke="#fee6ce" points="256,-140 141,-140 141,-87 256,-87 256,-140"/>
<text text-anchor="start" x="168.5" y="-124.8" font-family="Helvetica,sans-Serif" font-size="14.00">improved</text>
<text text-anchor="start" x="175" y="-109.8" font-family="Helvetica,sans-Serif" font-size="14.00">student</text>
<text text-anchor="start" x="149" y="-94.8" font-family="Helvetica,sans-Serif" font-size="14.00">self&#45;confidence</text>
</g>
<!-- improved student self&#45;confidence&#45;&gt;improved student exam results -->
<g id="edge2" class="edge"><title>improved student self&#45;confidence&#45;&gt;improved student exam results</title>
<path fill="none" stroke="#737373" stroke-width="2" d="M256.261,-101.129C269.243,-98.2997 283.074,-95.2851 296.161,-92.4328"/>
<polygon fill="#737373" stroke="#737373" stroke-width="2" points="296.972,-95.8383 305.997,-90.289 295.481,-88.9989 296.972,-95.8383"/>
</g>
<!-- !do students attend workshop -->
<g id="node4" class="node"><title>!do students attend workshop</title>
<polygon fill="#fee6ce" stroke="#fee6ce" points="90.5,-138.5 0.5,-138.5 0.5,-88.5 90.5,-88.5 90.5,-138.5"/>
<text text-anchor="start" x="8.5" y="-124.3" font-family="Helvetica,sans-Serif" font-size="14.00" fill="green">▶ </text>
<text text-anchor="start" x="24.5" y="-124.3" font-family="Helvetica,sans-Serif" font-size="14.00"> students</text>
<text text-anchor="start" x="25.5" y="-110.3" font-family="Helvetica,sans-Serif" font-size="14.00">attend</text>
<text text-anchor="start" x="15" y="-96.3" font-family="Helvetica,sans-Serif" font-size="14.00">workshop</text>
</g>
<!-- !do students attend workshop&#45;&gt;improved student self&#45;confidence -->
<g id="edge3" class="edge"><title>!do students attend workshop&#45;&gt;improved student self&#45;confidence</title>
<path fill="none" stroke="#737373" stroke-width="2" d="M90.5814,-113.5C103.137,-113.5 117.104,-113.5 130.69,-113.5"/>
<polygon fill="#737373" stroke="#737373" stroke-width="2" points="130.975,-117 140.975,-113.5 130.975,-110 130.975,-117"/>
</g>
<!-- improved teacher skills -->
<g id="node5" class="node"><title>improved teacher skills</title>
<polygon fill="#fee6ce" stroke="#fee6ce" points="236.5,-73 160.5,-73 160.5,-20 236.5,-20 236.5,-73"/>
<text text-anchor="start" x="168.5" y="-57.8" font-family="Helvetica,sans-Serif" font-size="14.00">improved</text>
<text text-anchor="start" x="174.5" y="-42.8" font-family="Helvetica,sans-Serif" font-size="14.00">teacher</text>
<text text-anchor="start" x="183" y="-27.8" font-family="Helvetica,sans-Serif" font-size="14.00">skills</text>
</g>
<!-- improved teacher skills&#45;&gt;improved student exam results -->
<g id="edge4" class="edge"><title>improved teacher skills&#45;&gt;improved student exam results</title>
<path fill="none" stroke="#737373" stroke-width="2" d="M236.866,-54.4043C254.524,-58.1398 276.038,-62.6907 295.871,-66.8862"/>
<polygon fill="#737373" stroke="#737373" stroke-width="2" points="295.245,-70.3311 305.753,-68.9766 296.694,-63.4827 295.245,-70.3311"/>
</g>
<!-- !do teachers attend workshop -->
<g id="node6" class="node"><title>!do teachers attend workshop</title>
<polygon fill="#fee6ce" stroke="#fee6ce" points="91,-71.5 0,-71.5 0,-21.5 91,-21.5 91,-71.5"/>
<text text-anchor="start" x="8" y="-57.3" font-family="Helvetica,sans-Serif" font-size="14.00" fill="green">▶ </text>
<text text-anchor="start" x="24" y="-57.3" font-family="Helvetica,sans-Serif" font-size="14.00"> teachers</text>
<text text-anchor="start" x="25.5" y="-43.3" font-family="Helvetica,sans-Serif" font-size="14.00">attend</text>
<text text-anchor="start" x="15" y="-29.3" font-family="Helvetica,sans-Serif" font-size="14.00">workshop</text>
</g>
<!-- !do teachers attend workshop&#45;&gt;improved teacher skills -->
<g id="edge5" class="edge"><title>!do teachers attend workshop&#45;&gt;improved teacher skills</title>
<path fill="none" stroke="#737373" stroke-width="2" d="M91.3961,-46.5C109.881,-46.5 131.311,-46.5 150.053,-46.5"/>
<polygon fill="#737373" stroke="#737373" stroke-width="2" points="150.153,-50.0001 160.153,-46.5 150.153,-43.0001 150.153,-50.0001"/>
</g>
</g>
</svg>
