<?xml version="1.0" encoding="UTF-8" standalone="no"?>
<!DOCTYPE svg PUBLIC "-//W3C//DTD SVG 1.1//EN"
 "http://www.w3.org/Graphics/SVG/1.1/DTD/svg11.dtd">
<!-- Generated by graphviz version 2.38.0 (20140413.2041)
 -->
<!-- Title: foo Pages: 1 -->
<svg width="335pt" height="137pt"
 viewBox="0.00 0.00 335.00 137.00" xmlns="http://www.w3.org/2000/svg" xmlns:xlink="http://www.w3.org/1999/xlink">
<g id="graph0" class="graph" transform="scale(1 1) rotate(0) translate(4 133)">
<title>foo</title>
<g id="a_graph0"><a xlink:title=" ">
<polygon fill="#c7e9c0" stroke="none" points="-4,4 -4,-133 331,-133 331,4 -4,4"/>
<text text-anchor="start" x="125.5" y="-7.2" font-family="tahoma" font-size="11.00" fill="#238b45">Try this instead</text>
</a>
</g>
<g id="clust1" class="cluster"><title>cluster_Child</title>
<g id="a_clust1"><a xlink:title=" ">
<path fill="#fdd0a2" stroke="#fdd0a2" d="M20,-28C20,-28 307,-28 307,-28 313,-28 319,-34 319,-40 319,-40 319,-109 319,-109 319,-115 313,-121 307,-121 307,-121 20,-121 20,-121 14,-121 8,-115 8,-109 8,-109 8,-40 8,-40 8,-34 14,-28 20,-28"/>
<text text-anchor="start" x="16" y="-105.8" font-family="Helvetica,sans-Serif" font-size="14.00">Child:</text>
</a>
</g>
</g>
<!-- Opportunity to safely interact with strange dogs -->
<g id="node1" class="node"><title>Opportunity to safely interact with strange dogs</title>
<polygon fill="#f7fcf5" stroke="#f7fcf5" points="147,-89.5 16,-89.5 16,-36.5 147,-36.5 147,-89.5"/>
<text text-anchor="start" x="37" y="-74.3" font-family="Helvetica,sans-Serif" font-size="14.00" fill="#006d2c">Opportunity to</text>
<text text-anchor="start" x="24" y="-59.3" font-family="Helvetica,sans-Serif" font-size="14.00" fill="#006d2c">safely interact with</text>
<text text-anchor="start" x="39.5" y="-44.3" font-family="Helvetica,sans-Serif" font-size="14.00" fill="#006d2c">strange dogs</text>
</g>
<!-- Trust in strange dogs -->
<g id="node2" class="node"><title>Trust in strange dogs</title>
<polygon fill="#f7fcf5" stroke="#f7fcf5" points="311,-82 197,-82 197,-44 311,-44 311,-82"/>
<text text-anchor="start" x="205" y="-66.8" font-family="Helvetica,sans-Serif" font-size="14.00" fill="#006d2c">Trust in strange</text>
<text text-anchor="start" x="237.5" y="-51.8" font-family="Helvetica,sans-Serif" font-size="14.00" fill="#006d2c">dogs</text>
</g>
<!-- Opportunity to safely interact with strange dogs&#45;&gt;Trust in strange dogs -->
<g id="edge1" class="edge"><title>Opportunity to safely interact with strange dogs&#45;&gt;Trust in strange dogs</title>
<path fill="none" stroke="#41ab5d" stroke-width="2" d="M147.445,-63C160.292,-63 173.791,-63 186.682,-63"/>
<polygon fill="#41ab5d" stroke="#41ab5d" stroke-width="2" points="186.867,-66.5001 196.867,-63 186.867,-59.5001 186.867,-66.5001"/>
</g>
</g>
</svg>
