<?xml version="1.0" encoding="UTF-8" standalone="no"?>
<!DOCTYPE svg PUBLIC "-//W3C//DTD SVG 1.1//EN"
 "http://www.w3.org/Graphics/SVG/1.1/DTD/svg11.dtd">
<!-- Generated by graphviz version 2.38.0 (20140413.2041)
 -->
<!-- Title: foo Pages: 1 -->
<svg width="409pt" height="61pt"
 viewBox="0.00 0.00 409.00 61.00" xmlns="http://www.w3.org/2000/svg" xmlns:xlink="http://www.w3.org/1999/xlink">
<g id="graph0" class="graph" transform="scale(1 1) rotate(0) translate(4 57)">
<title>foo</title>
<g id="a_graph0"><a xlink:title=" ">
<polygon fill="white" stroke="none" points="-4,4 -4,-57 405,-57 405,4 -4,4"/>
</a>
</g>
<!-- Trainee skills during year !self &#160;~ -->
<g id="node1" class="node"><title>Trainee skills during year !self &#160;~</title>
<polygon fill="#e5f5e0" stroke="#e5f5e0" stroke-width="2" points="244,-53 154,-53 154,-0 244,-0 244,-53"/>
<text text-anchor="start" x="174.5" y="-37.8" font-family="arial" font-size="14.00">Trainee</text>
<text text-anchor="start" x="162" y="-22.8" font-family="arial" font-size="14.00">skills during</text>
<text text-anchor="start" x="171.5" y="-7.8" font-family="arial" font-size="14.00">year ↺ ~</text>
</g>
<!-- Project&#45;end assessment &#45;^ -->
<g id="node2" class="node"><title>Project&#45;end assessment &#45;^</title>
<polygon fill="#e5f5e0" stroke="#e5f5e0" stroke-width="2" points="401,-45.5 294,-45.5 294,-7.5 401,-7.5 401,-45.5"/>
<text text-anchor="start" x="310.5" y="-30.3" font-family="arial" font-size="14.00">Project&#45;end</text>
<text text-anchor="start" x="302" y="-15.3" font-family="arial" font-size="14.00">assessment &#45;^</text>
</g>
<!-- Trainee skills during year !self &#160;~&#45;&gt;Project&#45;end assessment &#45;^ -->
<g id="edge1" class="edge"><title>Trainee skills during year !self &#160;~&#45;&gt;Project&#45;end assessment &#45;^</title>
<path fill="none" stroke="#41ab5d" d="M244.352,-26.5C256.768,-26.5 270.502,-26.5 283.767,-26.5"/>
<polygon fill="#41ab5d" stroke="#41ab5d" points="283.789,-30.0001 293.789,-26.5 283.789,-23.0001 283.789,-30.0001"/>
</g>
<!-- Training delivered at project start ^&#45; -->
<g id="node3" class="node"><title>Training delivered at project start ^&#45;</title>
<polygon fill="#e5f5e0" stroke="#e5f5e0" stroke-width="2" points="104,-53 0,-53 0,-0 104,-0 104,-53"/>
<text text-anchor="start" x="26.5" y="-37.8" font-family="arial" font-size="14.00">Training</text>
<text text-anchor="start" x="15" y="-22.8" font-family="arial" font-size="14.00">delivered at</text>
<text text-anchor="start" x="8" y="-7.8" font-family="arial" font-size="14.00">project start ^&#45;</text>
</g>
<!-- Training delivered at project start ^&#45;&#45;&gt;Trainee skills during year !self &#160;~ -->
<g id="edge2" class="edge"><title>Training delivered at project start ^&#45;&#45;&gt;Trainee skills during year !self &#160;~</title>
<path fill="none" stroke="#41ab5d" d="M104.122,-26.5C116.86,-26.5 130.566,-26.5 143.463,-26.5"/>
<polygon fill="#41ab5d" stroke="#41ab5d" points="143.598,-30.0001 153.598,-26.5 143.598,-23.0001 143.598,-30.0001"/>
</g>
</g>
</svg>
