<?xml version="1.0" encoding="UTF-8" standalone="no"?>
<!DOCTYPE svg PUBLIC "-//W3C//DTD SVG 1.1//EN"
 "http://www.w3.org/Graphics/SVG/1.1/DTD/svg11.dtd">
<!-- Generated by graphviz version 2.38.0 (20140413.2041)
 -->
<!-- Title: foo Pages: 1 -->
<svg width="237pt" height="62pt"
 viewBox="0.00 0.00 237.00 61.50" xmlns="http://www.w3.org/2000/svg" xmlns:xlink="http://www.w3.org/1999/xlink">
<g id="graph0" class="graph" transform="scale(1 1) rotate(0) translate(4 57.5)">
<title>foo</title>
<g id="a_graph0"><a xlink:title=" ">
<polygon fill="white" stroke="none" points="-4,4 -4,-57.5 233,-57.5 233,4 -4,4"/>
</a>
</g>
<!-- axsxdf -->
<!-- Subjective temperature -->
<g id="node2" class="node"><title>Subjective temperature</title>
<polygon fill="#e5f5e0" stroke="#e5f5e0" stroke-width="2" points="229,-38 136,-38 136,-0 229,-0 229,-38"/>
<text text-anchor="start" x="149" y="-22.8" font-family="arial" font-size="14.00">Subjective</text>
<text text-anchor="start" x="144" y="-7.8" font-family="arial" font-size="14.00">temperature</text>
</g>
<!-- axsxdf&#45;&gt;Subjective temperature -->
<g id="edge1" class="edge"><title>axsxdf&#45;&gt;Subjective temperature</title>
<path fill="none" stroke="#41ab5d" stroke-width="0" d="M47.0736,-52.4987C54.037,-51.3446 71.5354,-48.3413 86,-45 98.9414,-42.0106 112.774,-38.456 125.78,-34.9502"/>
<polygon fill="#41ab5d" stroke="#41ab5d" stroke-width="0" points="126.81,-38.2972 135.537,-32.2889 124.968,-31.5439 126.81,-38.2972"/>
</g>
<!-- Strength of sunshine -->
<g id="node3" class="node"><title>Strength of sunshine</title>
<polygon fill="#e5f5e0" stroke="#e5f5e0" stroke-width="2" points="86,-38 0,-38 0,-0 86,-0 86,-38"/>
<text text-anchor="start" x="8" y="-22.8" font-family="arial" font-size="14.00">Strength of</text>
<text text-anchor="start" x="14.5" y="-7.8" font-family="arial" font-size="14.00">sunshine</text>
</g>
<!-- Strength of sunshine&#45;&gt;Subjective temperature -->
<g id="edge2" class="edge"><title>Strength of sunshine&#45;&gt;Subjective temperature</title>
<path fill="none" stroke="#41ab5d" d="M86.0017,-19C98.5886,-19 112.593,-19 125.912,-19"/>
<polygon fill="#41ab5d" stroke="#41ab5d" points="125.929,-22.5001 135.929,-19 125.929,-15.5001 125.929,-22.5001"/>
</g>
</g>
</svg>
