<?xml version="1.0" encoding="UTF-8" standalone="no"?>
<!DOCTYPE svg PUBLIC "-//W3C//DTD SVG 1.1//EN"
 "http://www.w3.org/Graphics/SVG/1.1/DTD/svg11.dtd">
<!-- Generated by graphviz version 2.38.0 (20140413.2041)
 -->
<!-- Title: foo Pages: 1 -->
<svg width="224pt" height="105pt"
 viewBox="0.00 0.00 224.00 105.00" xmlns="http://www.w3.org/2000/svg" xmlns:xlink="http://www.w3.org/1999/xlink">
<g id="graph0" class="graph" transform="scale(1 1) rotate(0) translate(4 101)">
<title>foo</title>
<g id="a_graph0"><a xlink:title=" ">
<polygon fill="white" stroke="none" points="-4,4 -4,-101 220,-101 220,4 -4,4"/>
</a>
</g>
<!-- Love -->
<g id="node1" class="node"><title>Love</title>
<polygon fill="#e5f5e0" stroke="#e5f5e0" stroke-width="2" points="56.5,-97 2.5,-97 2.5,-74 56.5,-74 56.5,-97"/>
<text text-anchor="start" x="13.5" y="-81.8" font-family="arial" font-size="14.00">Love</text>
</g>
<!-- Happiness !plus, ///synergy -->
<g id="node2" class="node"><title>Happiness !plus, ///synergy</title>
<polygon fill="#e5f5e0" stroke="#e5f5e0" stroke-width="2" points="216,-67.5 109,-67.5 109,-29.5 216,-29.5 216,-67.5"/>
<text text-anchor="start" x="117" y="-52.3" font-family="arial" font-size="14.00">Happiness ⊕, </text>
<text text-anchor="start" x="137.5" y="-37.3" font-family="arial" font-size="14.00">synergy</text>
</g>
<!-- Love&#45;&gt;Happiness !plus, ///synergy -->
<g id="edge1" class="edge"><title>Love&#45;&gt;Happiness !plus, ///synergy</title>
<path fill="none" stroke="#41ab5d" d="M56.695,-78.1014C68.9449,-74.6415 84.1054,-70.3595 99.0534,-66.1376"/>
<polygon fill="#41ab5d" stroke="#41ab5d" points="100.141,-69.4675 108.813,-63.3811 98.2381,-62.731 100.141,-69.4675"/>
</g>
<!-- Money -->
<g id="node3" class="node"><title>Money</title>
<polygon fill="#e5f5e0" stroke="#e5f5e0" stroke-width="2" points="59,-60 0,-60 0,-37 59,-37 59,-60"/>
<text text-anchor="start" x="8" y="-44.8" font-family="arial" font-size="14.00">Money</text>
</g>
<!-- Money&#45;&gt;Happiness !plus, ///synergy -->
<g id="edge2" class="edge"><title>Money&#45;&gt;Happiness !plus, ///synergy</title>
<path fill="none" stroke="#41ab5d" d="M59.2485,-48.5C70.9455,-48.5 84.9544,-48.5 98.7965,-48.5"/>
<polygon fill="#41ab5d" stroke="#41ab5d" points="98.8108,-52.0001 108.811,-48.5 98.8108,-45.0001 98.8108,-52.0001"/>
</g>
<!-- Health -->
<g id="node4" class="node"><title>Health</title>
<polygon fill="#e5f5e0" stroke="#e5f5e0" stroke-width="2" points="57.5,-23 1.5,-23 1.5,-0 57.5,-0 57.5,-23"/>
<text text-anchor="start" x="9.5" y="-7.8" font-family="arial" font-size="14.00">Health</text>
</g>
<!-- Health&#45;&gt;Happiness !plus, ///synergy -->
<g id="edge3" class="edge"><title>Health&#45;&gt;Happiness !plus, ///synergy</title>
<path fill="none" stroke="#41ab5d" d="M57.6433,-19.1664C69.6997,-22.5717 84.4331,-26.733 98.971,-30.8391"/>
<polygon fill="#41ab5d" stroke="#41ab5d" points="98.3943,-34.3131 108.969,-33.663 100.297,-27.5767 98.3943,-34.3131"/>
</g>
</g>
</svg>
