<?xml version="1.0" encoding="UTF-8" standalone="no"?>
<!DOCTYPE svg PUBLIC "-//W3C//DTD SVG 1.1//EN"
 "http://www.w3.org/Graphics/SVG/1.1/DTD/svg11.dtd">
<!-- Generated by graphviz version 2.38.0 (20140413.2041)
 -->
<!-- Title: foo Pages: 1 -->
<svg width="399pt" height="81pt"
 viewBox="0.00 0.00 399.00 81.00" xmlns="http://www.w3.org/2000/svg" xmlns:xlink="http://www.w3.org/1999/xlink">
<g id="graph0" class="graph" transform="scale(1 1) rotate(0) translate(4 77)">
<title>foo</title>
<g id="a_graph0"><a xlink:title=" ">
<polygon fill="#c7e9c0" stroke="none" points="-4,4 -4,-77 395,-77 395,4 -4,4"/>
<text text-anchor="start" x="157.5" y="-7.2" font-family="tahoma" font-size="11.00" fill="#238b45">Try this instead</text>
</a>
</g>
<!-- Citizen activists monitor city mayors -->
<g id="node1" class="node"><title>Citizen activists monitor city mayors</title>
<polygon fill="#f7fcf5" stroke="#f7fcf5" points="189,-65.5 0,-65.5 0,-27.5 189,-27.5 189,-65.5"/>
<text text-anchor="start" x="8" y="-50.3" font-family="Helvetica,sans-Serif" font-size="14.00" fill="#006d2c">Citizen activists monitor city</text>
<text text-anchor="start" x="71" y="-35.3" font-family="Helvetica,sans-Serif" font-size="14.00" fill="#006d2c">mayors</text>
</g>
<!-- City mayors are more transparent in policy implementation -->
<g id="node2" class="node"><title>City mayors are more transparent in policy implementation</title>
<polygon fill="#f7fcf5" stroke="#f7fcf5" points="391,-73 239,-73 239,-20 391,-20 391,-73"/>
<text text-anchor="start" x="247" y="-57.8" font-family="Helvetica,sans-Serif" font-size="14.00" fill="#006d2c">City mayors are more</text>
<text text-anchor="start" x="252" y="-42.8" font-family="Helvetica,sans-Serif" font-size="14.00" fill="#006d2c">transparent in policy</text>
<text text-anchor="start" x="266.5" y="-27.8" font-family="Helvetica,sans-Serif" font-size="14.00" fill="#006d2c">implementation</text>
</g>
<!-- Citizen activists monitor city mayors&#45;&gt;City mayors are more transparent in policy implementation -->
<g id="edge1" class="edge"><title>Citizen activists monitor city mayors&#45;&gt;City mayors are more transparent in policy implementation</title>
<path fill="none" stroke="#41ab5d" stroke-width="2" d="M189.115,-46.5C202.184,-46.5 215.559,-46.5 228.469,-46.5"/>
<polygon fill="#41ab5d" stroke="#41ab5d" stroke-width="2" points="228.709,-50.0001 238.709,-46.5 228.708,-43.0001 228.709,-50.0001"/>
</g>
</g>
</svg>
