<?xml version="1.0" encoding="UTF-8" standalone="no"?>
<!DOCTYPE svg PUBLIC "-//W3C//DTD SVG 1.1//EN"
 "http://www.w3.org/Graphics/SVG/1.1/DTD/svg11.dtd">
<!-- Generated by graphviz version 2.38.0 (20140413.2041)
 -->
<!-- Title: foo Pages: 1 -->
<svg width="348pt" height="99pt"
 viewBox="0.00 0.00 348.00 99.00" xmlns="http://www.w3.org/2000/svg" xmlns:xlink="http://www.w3.org/1999/xlink">
<g id="graph0" class="graph" transform="scale(1 1) rotate(0) translate(4 95)">
<title>foo</title>
<g id="a_graph0"><a xlink:title=" ">
<polygon fill="white" stroke="none" points="-4,4 -4,-95 344,-95 344,4 -4,4"/>
</a>
</g>
<g id="clust1" class="cluster"><title>cluster_Livelihoodssubproject</title>
<g id="a_clust1"><a xlink:title=" ">
<path fill="#fcfbfd" stroke="#fdd0a2" d="M20,-8C20,-8 320,-8 320,-8 326,-8 332,-14 332,-20 332,-20 332,-71 332,-71 332,-77 326,-83 320,-83 320,-83 20,-83 20,-83 14,-83 8,-77 8,-71 8,-71 8,-20 8,-20 8,-14 14,-8 20,-8"/>
<text text-anchor="start" x="16" y="-67.8" font-family="arial" font-size="14.00">Livelihoods sub&#45;project</text>
</a>
</g>
</g>
<!-- !do Livelihoods intervention !noyes -->
<g id="node1" class="node"><title>!do Livelihoods intervention !noyes</title>
<polygon fill="#e5f5e0" stroke="#e5f5e0" stroke-width="2" points="124,-52 16,-52 16,-16 124,-16 124,-52"/>
<text text-anchor="start" x="24" y="-37.8" font-family="arial" font-size="14.00" fill="green">▶ </text>
<text text-anchor="start" x="40" y="-37.8" font-family="arial" font-size="14.00"> Livelihoods</text>
<text text-anchor="start" x="26" y="-23.8" font-family="arial" font-size="14.00">intervention ◨</text>
</g>
<!--  Family income !lohi !smile -->
<g id="node2" class="node"><title> Family income !lohi !smile</title>
<polygon fill="#e5f5e0" stroke="#e5f5e0" stroke-width="2" points="324,-52 186,-52 186,-16 324,-16 324,-52"/>
<text text-anchor="start" x="194" y="-30.3" font-family="arial" font-size="14.00">Family income ◪ 🙂</text>
</g>
<!-- !do Livelihoods intervention !noyes&#45;&gt; Family income !lohi !smile -->
<g id="edge1" class="edge"><title>!do Livelihoods intervention !noyes&#45;&gt; Family income !lohi !smile</title>
<path fill="none" stroke="#41ab5d" d="M124.423,-34C140.474,-34 158.427,-34 175.734,-34"/>
<polygon fill="#41ab5d" stroke="#41ab5d" points="175.831,-37.5001 185.831,-34 175.831,-30.5001 175.831,-37.5001"/>
<text text-anchor="start" x="149" y="-37.8" font-family="Times New Roman,serif" font-size="14.00">⊕</text>
</g>
</g>
</svg>
