<?xml version="1.0" encoding="UTF-8" standalone="no"?>
<!DOCTYPE svg PUBLIC "-//W3C//DTD SVG 1.1//EN"
 "http://www.w3.org/Graphics/SVG/1.1/DTD/svg11.dtd">
<!-- Generated by graphviz version 2.38.0 (20140413.2041)
 -->
<!-- Title: foo Pages: 1 -->
<svg width="409pt" height="76pt"
 viewBox="0.00 0.00 409.00 76.00" xmlns="http://www.w3.org/2000/svg" xmlns:xlink="http://www.w3.org/1999/xlink">
<g id="graph0" class="graph" transform="scale(1 1) rotate(0) translate(4 72)">
<title>foo</title>
<g id="a_graph0"><a xlink:title=" ">
<polygon fill="white" stroke="none" points="-4,4 -4,-72 405,-72 405,4 -4,4"/>
</a>
</g>
<!-- ~ Trainee skills during year !self &#160;~ -->
<g id="node1" class="node"><title>~ Trainee skills during year !self &#160;~</title>
<polygon fill="#e5f5e0" stroke="#e5f5e0" stroke-width="2" points="244,-60.5 154,-60.5 154,-7.5 244,-7.5 244,-60.5"/>
<text text-anchor="start" x="168.5" y="-45.3" font-family="arial" font-size="14.00">~ Trainee</text>
<text text-anchor="start" x="162" y="-30.3" font-family="arial" font-size="14.00">skills during</text>
<text text-anchor="start" x="171.5" y="-15.3" font-family="arial" font-size="14.00">year ↺ ~</text>
</g>
<!-- _^ Trainee scores in project&#45;end assessment &#45;^ -->
<g id="node2" class="node"><title>_^ Trainee scores in project&#45;end assessment &#45;^</title>
<polygon fill="#e5f5e0" stroke="#e5f5e0" stroke-width="2" points="401,-68 294,-68 294,-0 401,-0 401,-68"/>
<text text-anchor="start" x="314.5" y="-52.8" font-family="arial" font-size="14.00">_^ Trainee</text>
<text text-anchor="start" x="318.5" y="-37.8" font-family="arial" font-size="14.00">scores in</text>
<text text-anchor="start" x="311" y="-22.8" font-family="arial" font-size="14.00">project&#45;end</text>
<text text-anchor="start" x="302" y="-7.8" font-family="arial" font-size="14.00">assessment &#45;^</text>
</g>
<!-- ~ Trainee skills during year !self &#160;~&#45;&gt;_^ Trainee scores in project&#45;end assessment &#45;^ -->
<g id="edge1" class="edge"><title>~ Trainee skills during year !self &#160;~&#45;&gt;_^ Trainee scores in project&#45;end assessment &#45;^</title>
<path fill="none" stroke="#41ab5d" d="M244.352,-34C256.768,-34 270.502,-34 283.767,-34"/>
<polygon fill="#41ab5d" stroke="#41ab5d" points="283.789,-37.5001 293.789,-34 283.789,-30.5001 283.789,-37.5001"/>
</g>
<!-- ^_ Training delivered at project start ^&#45; -->
<g id="node3" class="node"><title>^_ Training delivered at project start ^&#45;</title>
<polygon fill="#e5f5e0" stroke="#e5f5e0" stroke-width="2" points="104,-60.5 0,-60.5 0,-7.5 104,-7.5 104,-60.5"/>
<text text-anchor="start" x="18" y="-45.3" font-family="arial" font-size="14.00">^_ Training</text>
<text text-anchor="start" x="15" y="-30.3" font-family="arial" font-size="14.00">delivered at</text>
<text text-anchor="start" x="8" y="-15.3" font-family="arial" font-size="14.00">project start ^&#45;</text>
</g>
<!-- ^_ Training delivered at project start ^&#45;&#45;&gt;~ Trainee skills during year !self &#160;~ -->
<g id="edge2" class="edge"><title>^_ Training delivered at project start ^&#45;&#45;&gt;~ Trainee skills during year !self &#160;~</title>
<path fill="none" stroke="#41ab5d" d="M104.122,-34C116.86,-34 130.566,-34 143.463,-34"/>
<polygon fill="#41ab5d" stroke="#41ab5d" points="143.598,-37.5001 153.598,-34 143.598,-30.5001 143.598,-37.5001"/>
</g>
</g>
</svg>
