<?xml version="1.0" encoding="UTF-8" standalone="no"?>
<!DOCTYPE svg PUBLIC "-//W3C//DTD SVG 1.1//EN"
 "http://www.w3.org/Graphics/SVG/1.1/DTD/svg11.dtd">
<!-- Generated by graphviz version 2.38.0 (20140413.2041)
 -->
<!-- Title: foo Pages: 1 -->
<svg width="495pt" height="188pt"
 viewBox="0.00 0.00 495.00 188.00" xmlns="http://www.w3.org/2000/svg" xmlns:xlink="http://www.w3.org/1999/xlink">
<g id="graph0" class="graph" transform="scale(1 1) rotate(0) translate(4 184)">
<title>foo</title>
<g id="a_graph0"><a xlink:title=" ">
<polygon fill="#c7e9c0" stroke="none" points="-4,4 -4,-184 491,-184 491,4 -4,4"/>
<text text-anchor="start" x="205.5" y="-7.2" font-family="tahoma" font-size="11.00" fill="#238b45">Try this instead</text>
</a>
</g>
<!-- Legislators have more favourable views !heart -->
<g id="node1" class="node"><title>Legislators have more favourable views !heart</title>
<polygon fill="#f7fcf5" stroke="#f7fcf5" points="358,-142 272,-142 272,-74 358,-74 358,-142"/>
<text text-anchor="start" x="280" y="-126.8" font-family="Helvetica,sans-Serif" font-size="14.00" fill="#006d2c">Legislators</text>
<text text-anchor="start" x="281.5" y="-111.8" font-family="Helvetica,sans-Serif" font-size="14.00" fill="#006d2c">have more</text>
<text text-anchor="start" x="281.5" y="-96.8" font-family="Helvetica,sans-Serif" font-size="14.00" fill="#006d2c">favourable</text>
<text text-anchor="start" x="291" y="-81.8" font-family="Helvetica,sans-Serif" font-size="14.00" fill="#006d2c">views ♥</text>
</g>
<!-- Law on same&#45;sex marriage is passed !heart -->
<g id="node2" class="node"><title>Law on same&#45;sex marriage is passed !heart</title>
<polygon fill="#f7fcf5" stroke="#f7fcf5" points="487,-149.5 408,-149.5 408,-66.5 487,-66.5 487,-149.5"/>
<text text-anchor="start" x="424.5" y="-134.3" font-family="Helvetica,sans-Serif" font-size="14.00" fill="#006d2c">Law on</text>
<text text-anchor="start" x="416" y="-119.3" font-family="Helvetica,sans-Serif" font-size="14.00" fill="#006d2c">same&#45;sex</text>
<text text-anchor="start" x="419.5" y="-104.3" font-family="Helvetica,sans-Serif" font-size="14.00" fill="#006d2c">marriage</text>
<text text-anchor="start" x="442" y="-89.3" font-family="Helvetica,sans-Serif" font-size="14.00" fill="#006d2c">is</text>
<text text-anchor="start" x="417.5" y="-74.3" font-family="Helvetica,sans-Serif" font-size="14.00" fill="#006d2c">passed ♥</text>
</g>
<!-- Legislators have more favourable views !heart&#45;&gt;Law on same&#45;sex marriage is passed !heart -->
<g id="edge1" class="edge"><title>Legislators have more favourable views !heart&#45;&gt;Law on same&#45;sex marriage is passed !heart</title>
<path fill="none" stroke="#41ab5d" stroke-width="2" d="M358.009,-108C370.591,-108 384.499,-108 397.49,-108"/>
<polygon fill="#41ab5d" stroke="#41ab5d" stroke-width="2" points="397.669,-111.5 407.669,-108 397.669,-104.5 397.669,-111.5"/>
</g>
<!-- Other campaign &#160;lobbies legislators -->
<g id="node3" class="node"><title>Other campaign &#160;lobbies legislators</title>
<polygon fill="#f7fcf5" stroke="#f7fcf5" points="219,-180 138,-180 138,-112 219,-112 219,-180"/>
<text text-anchor="start" x="160.5" y="-164.8" font-family="Helvetica,sans-Serif" font-size="14.00" fill="#006d2c">Other</text>
<text text-anchor="start" x="147.5" y="-149.8" font-family="Helvetica,sans-Serif" font-size="14.00" fill="#006d2c">campaign</text>
<text text-anchor="start" x="155" y="-134.8" font-family="Helvetica,sans-Serif" font-size="14.00" fill="#006d2c">lobbies</text>
<text text-anchor="start" x="146" y="-119.8" font-family="Helvetica,sans-Serif" font-size="14.00" fill="#006d2c">legislators</text>
</g>
<!-- Other campaign &#160;lobbies legislators&#45;&gt;Legislators have more favourable views !heart -->
<g id="edge2" class="edge"><title>Other campaign &#160;lobbies legislators&#45;&gt;Legislators have more favourable views !heart</title>
<path fill="none" stroke="#41ab5d" stroke-width="2" d="M219.127,-134.804C232.6,-130.998 247.864,-126.685 262.148,-122.65"/>
<polygon fill="#41ab5d" stroke="#41ab5d" stroke-width="2" points="263.175,-125.996 271.847,-119.909 261.272,-119.26 263.175,-125.996"/>
</g>
<!-- Public opinion improves !heart -->
<g id="node4" class="node"><title>Public opinion improves !heart</title>
<polygon fill="#f7fcf5" stroke="#f7fcf5" points="222,-97.5 135,-97.5 135,-44.5 222,-44.5 222,-97.5"/>
<text text-anchor="start" x="158.5" y="-82.3" font-family="Helvetica,sans-Serif" font-size="14.00" fill="#006d2c">Public</text>
<text text-anchor="start" x="155.5" y="-67.3" font-family="Helvetica,sans-Serif" font-size="14.00" fill="#006d2c">opinion</text>
<text text-anchor="start" x="143" y="-52.3" font-family="Helvetica,sans-Serif" font-size="14.00" fill="#006d2c">improves ♥</text>
</g>
<!-- Public opinion improves !heart&#45;&gt;Legislators have more favourable views !heart -->
<g id="edge3" class="edge"><title>Public opinion improves !heart&#45;&gt;Legislators have more favourable views !heart</title>
<path fill="none" stroke="#41ab5d" stroke-width="2" d="M222.057,-82.707C234.69,-86.1825 248.674,-90.0294 261.844,-93.6522"/>
<polygon fill="#41ab5d" stroke="#41ab5d" stroke-width="2" points="261.15,-97.0913 271.72,-96.3691 263.007,-90.342 261.15,-97.0913"/>
</g>
<!-- !do Our campaign is launched -->
<g id="node5" class="node"><title>!do Our campaign is launched</title>
<polygon fill="#f7fcf5" stroke="#f7fcf5" points="81.5,-136 3.5,-136 3.5,-72 81.5,-72 81.5,-136"/>
<text text-anchor="start" x="20.5" y="-121.8" font-family="Helvetica,sans-Serif" font-size="14.00" fill="green">▶ </text>
<text text-anchor="start" x="36.5" y="-121.8" font-family="Helvetica,sans-Serif" font-size="14.00" fill="#006d2c"> Our</text>
<text text-anchor="start" x="11.5" y="-107.8" font-family="Helvetica,sans-Serif" font-size="14.00" fill="#006d2c">campaign</text>
<text text-anchor="start" x="37" y="-93.8" font-family="Helvetica,sans-Serif" font-size="14.00" fill="#006d2c">is</text>
<text text-anchor="start" x="13.5" y="-79.8" font-family="Helvetica,sans-Serif" font-size="14.00" fill="#006d2c">launched</text>
</g>
<!-- !do Our campaign is launched&#45;&gt;Public opinion improves !heart -->
<g id="edge4" class="edge"><title>!do Our campaign is launched&#45;&gt;Public opinion improves !heart</title>
<path fill="none" stroke="#41ab5d" stroke-width="2" d="M81.5406,-94.6318C94.9943,-91.3186 110.377,-87.5303 124.827,-83.9717"/>
<polygon fill="#41ab5d" stroke="#41ab5d" stroke-width="2" points="125.774,-87.3432 134.647,-81.5534 124.1,-80.5463 125.774,-87.3432"/>
</g>
<!-- Celebrities speak out -->
<g id="node6" class="node"><title>Celebrities speak out</title>
<polygon fill="#f7fcf5" stroke="#f7fcf5" points="85,-58 0,-58 0,-20 85,-20 85,-58"/>
<text text-anchor="start" x="8" y="-42.8" font-family="Helvetica,sans-Serif" font-size="14.00" fill="#006d2c">Celebrities</text>
<text text-anchor="start" x="11.5" y="-27.8" font-family="Helvetica,sans-Serif" font-size="14.00" fill="#006d2c">speak out</text>
</g>
<!-- Celebrities speak out&#45;&gt;Public opinion improves !heart -->
<g id="edge5" class="edge"><title>Celebrities speak out&#45;&gt;Public opinion improves !heart</title>
<path fill="none" stroke="#41ab5d" stroke-width="2" d="M85.1639,-48.9496C97.7757,-51.9614 111.792,-55.3086 125.016,-58.4665"/>
<polygon fill="#41ab5d" stroke="#41ab5d" stroke-width="2" points="124.398,-61.9173 134.938,-60.8358 126.024,-55.1087 124.398,-61.9173"/>
</g>
</g>
</svg>
