<?xml version="1.0" encoding="UTF-8" standalone="no"?>
<!DOCTYPE svg PUBLIC "-//W3C//DTD SVG 1.1//EN"
 "http://www.w3.org/Graphics/SVG/1.1/DTD/svg11.dtd">
<!-- Generated by graphviz version 2.38.0 (20140413.2041)
 -->
<!-- Title: foo Pages: 1 -->
<svg width="379pt" height="76pt"
 viewBox="0.00 0.00 379.00 76.00" xmlns="http://www.w3.org/2000/svg" xmlns:xlink="http://www.w3.org/1999/xlink">
<g id="graph0" class="graph" transform="scale(1 1) rotate(0) translate(4 72)">
<title>foo</title>
<g id="a_graph0"><a xlink:title=" ">
<polygon fill="white" stroke="none" points="-4,4 -4,-72 375,-72 375,4 -4,4"/>
</a>
</g>
<!-- Improved teaching quality -->
<g id="node1" class="node"><title>Improved teaching quality</title>
<polygon fill="#e5f5e0" stroke="#e5f5e0" stroke-width="2" points="211,-60.5 134,-60.5 134,-7.5 211,-7.5 211,-60.5"/>
<text text-anchor="start" x="142" y="-45.3" font-family="arial" font-size="14.00">Improved</text>
<text text-anchor="start" x="145.5" y="-30.3" font-family="arial" font-size="14.00">teaching</text>
<text text-anchor="start" x="152.5" y="-15.3" font-family="arial" font-size="14.00">quality</text>
</g>
<!-- Improved students achievement !heart -->
<g id="node2" class="node"><title>Improved students achievement !heart</title>
<polygon fill="#e5f5e0" stroke="#e5f5e0" stroke-width="2" points="371,-59 261,-59 261,-9 371,-9 371,-59"/>
<text text-anchor="start" x="285.5" y="-44.8" font-family="arial" font-size="14.00">Improved</text>
<text text-anchor="start" x="288.5" y="-30.8" font-family="arial" font-size="14.00">students</text>
<text text-anchor="start" x="269" y="-16.8" font-family="arial" font-size="14.00">achievement </text>
<text text-anchor="start" x="354" y="-16.8" font-family="arial" font-size="14.00" fill="orange">♥</text>
</g>
<!-- Improved teaching quality&#45;&gt;Improved students achievement !heart -->
<g id="edge1" class="edge"><title>Improved teaching quality&#45;&gt;Improved students achievement !heart</title>
<path fill="none" stroke="#41ab5d" d="M211.048,-34C223.183,-34 237.004,-34 250.518,-34"/>
<polygon fill="#41ab5d" stroke="#41ab5d" points="250.759,-37.5001 260.759,-34 250.759,-30.5001 250.759,-37.5001"/>
</g>
<!-- !do Quality of teacher training improved -->
<g id="node3" class="node"><title>!do Quality of teacher training improved</title>
<polygon fill="#e5f5e0" stroke="#e5f5e0" stroke-width="2" points="84,-68 0,-68 0,-0 84,-0 84,-68"/>
<text text-anchor="start" x="8" y="-52.8" font-family="arial" font-size="14.00">!do Quality</text>
<text text-anchor="start" x="10" y="-37.8" font-family="arial" font-size="14.00">of teacher</text>
<text text-anchor="start" x="19" y="-22.8" font-family="arial" font-size="14.00">training</text>
<text text-anchor="start" x="12" y="-7.8" font-family="arial" font-size="14.00">improved</text>
</g>
<!-- !do Quality of teacher training improved&#45;&gt;Improved teaching quality -->
<g id="edge2" class="edge"><title>!do Quality of teacher training improved&#45;&gt;Improved teaching quality</title>
<path fill="none" stroke="#41ab5d" d="M84.0115,-34C96.6461,-34 110.666,-34 123.715,-34"/>
<polygon fill="#41ab5d" stroke="#41ab5d" points="123.926,-37.5001 133.926,-34 123.926,-30.5001 123.926,-37.5001"/>
</g>
</g>
</svg>
