<?xml version="1.0" encoding="UTF-8" standalone="no"?>
<!DOCTYPE svg PUBLIC "-//W3C//DTD SVG 1.1//EN"
 "http://www.w3.org/Graphics/SVG/1.1/DTD/svg11.dtd">
<!-- Generated by graphviz version 2.38.0 (20140413.2041)
 -->
<!-- Title: foo Pages: 1 -->
<svg width="247pt" height="62pt"
 viewBox="0.00 0.00 247.00 61.50" xmlns="http://www.w3.org/2000/svg" xmlns:xlink="http://www.w3.org/1999/xlink">
<g id="graph0" class="graph" transform="scale(1 1) rotate(0) translate(4 57.5)">
<title>foo</title>
<g id="a_graph0"><a xlink:title=" ">
<polygon fill="white" stroke="none" points="-4,4 -4,-57.5 243,-57.5 243,4 -4,4"/>
</a>
</g>
<!-- axsxdf -->
<!-- Sweating !noyes -->
<g id="node2" class="node"><title>Sweating !noyes</title>
<polygon fill="#e5f5e0" stroke="#e5f5e0" stroke-width="2" points="239,-37 150,-37 150,-1 239,-1 239,-37"/>
<text text-anchor="start" x="158" y="-15.3" font-family="arial" font-size="14.00">Sweating ◨</text>
</g>
<!-- axsxdf&#45;&gt;Sweating !noyes -->
<g id="edge1" class="edge"><title>axsxdf&#45;&gt;Sweating !noyes</title>
<path fill="none" stroke="#41ab5d" stroke-width="0" d="M48.1353,-52.4488C55.2411,-51.1927 73.1113,-47.9939 88,-45 104.494,-41.6832 108.638,-40.9167 125,-37 129.882,-35.8313 134.95,-34.5775 140.019,-33.2956"/>
<polygon fill="#41ab5d" stroke="#41ab5d" stroke-width="0" points="140.902,-36.6824 149.721,-30.8105 139.165,-29.9013 140.902,-36.6824"/>
</g>
<!-- Strength of sunshine !lohi -->
<g id="node3" class="node"><title>Strength of sunshine !lohi</title>
<polygon fill="#e5f5e0" stroke="#e5f5e0" stroke-width="2" points="88,-38 0,-38 0,-0 88,-0 88,-38"/>
<text text-anchor="start" x="9" y="-22.8" font-family="arial" font-size="14.00">Strength of</text>
<text text-anchor="start" x="8" y="-7.8" font-family="arial" font-size="14.00">sunshine ◪</text>
</g>
<!-- Strength of sunshine !lohi&#45;&gt;Sweating !noyes -->
<g id="edge2" class="edge"><title>Strength of sunshine !lohi&#45;&gt;Sweating !noyes</title>
<path fill="none" stroke="#41ab5d" d="M88.3515,-19C104.374,-19 122.732,-19 139.578,-19"/>
<polygon fill="#41ab5d" stroke="#41ab5d" points="139.838,-22.5001 149.837,-19 139.837,-15.5001 139.838,-22.5001"/>
<text text-anchor="start" x="113" y="-22.8" font-family="Times New Roman,serif" font-size="14.00">⊕</text>
</g>
</g>
</svg>
