<?xml version="1.0" encoding="UTF-8" standalone="no"?>
<!DOCTYPE svg PUBLIC "-//W3C//DTD SVG 1.1//EN"
 "http://www.w3.org/Graphics/SVG/1.1/DTD/svg11.dtd">
<!-- Generated by graphviz version 2.38.0 (20140413.2041)
 -->
<!-- Title: foo Pages: 1 -->
<svg width="307pt" height="94pt"
 viewBox="0.00 0.00 307.00 94.00" xmlns="http://www.w3.org/2000/svg" xmlns:xlink="http://www.w3.org/1999/xlink">
<g id="graph0" class="graph" transform="scale(1 1) rotate(0) translate(4 90)">
<title>foo</title>
<g id="a_graph0"><a xlink:title=" ">
<polygon fill="white" stroke="none" points="-4,4 -4,-90 303,-90 303,4 -4,4"/>
</a>
</g>
<!-- Encouragement !lohi -->
<g id="node1" class="node"><title>Encouragement !lohi</title>
<polygon fill="#e5f5e0" stroke="#e5f5e0" stroke-width="2" points="132,-86 0,-86 0,-50 132,-50 132,-86"/>
<text text-anchor="start" x="8" y="-64.3" font-family="arial" font-size="14.00">Encouragement ◪</text>
</g>
<!-- Performance -->
<g id="node2" class="node"><title>Performance</title>
<polygon fill="#e5f5e0" stroke="#e5f5e0" stroke-width="2" points="299,-61 200,-61 200,-25 299,-25 299,-61"/>
<text text-anchor="start" x="208" y="-39.3" font-family="arial" font-size="14.00">Performance</text>
</g>
<!-- Encouragement !lohi&#45;&gt;Performance -->
<g id="edge1" class="edge"><title>Encouragement !lohi&#45;&gt;Performance</title>
<path fill="none" stroke="#41ab5d" d="M132.013,-59.045C150.894,-56.4443 171.396,-53.6204 189.862,-51.0769"/>
<polygon fill="#41ab5d" stroke="#41ab5d" points="190.459,-54.5278 199.887,-49.6959 189.503,-47.5933 190.459,-54.5278"/>
<text text-anchor="start" x="157" y="-58.8" font-family="Times New Roman,serif" font-size="14.00">⊕?</text>
</g>
<!-- Age !noyes -->
<g id="node3" class="node"><title>Age !noyes</title>
<polygon fill="#e5f5e0" stroke="#e5f5e0" stroke-width="2" points="95,-36 37,-36 37,-0 95,-0 95,-36"/>
<text text-anchor="start" x="45" y="-14.3" font-family="arial" font-size="14.00">Age ◨</text>
</g>
<!-- Age !noyes&#45;&gt;Performance -->
<g id="edge2" class="edge"><title>Age !noyes&#45;&gt;Performance</title>
<path fill="none" stroke="#41ab5d" d="M95.3594,-21.9063C120.549,-25.376 158.17,-30.5579 189.819,-34.9172"/>
<polygon fill="#41ab5d" stroke="#41ab5d" points="189.477,-38.4031 199.861,-36.3005 190.432,-31.4686 189.477,-38.4031"/>
<text text-anchor="start" x="160" y="-35.8" font-family="Times New Roman,serif" font-size="14.00">⊕</text>
</g>
</g>
</svg>
