<?xml version="1.0" encoding="UTF-8" standalone="no"?>
<!DOCTYPE svg PUBLIC "-//W3C//DTD SVG 1.1//EN"
 "http://www.w3.org/Graphics/SVG/1.1/DTD/svg11.dtd">
<!-- Generated by graphviz version 2.38.0 (20140413.2041)
 -->
<!-- Title: foo Pages: 1 -->
<svg width="607pt" height="119pt"
 viewBox="0.00 0.00 607.00 119.00" xmlns="http://www.w3.org/2000/svg" xmlns:xlink="http://www.w3.org/1999/xlink">
<g id="graph0" class="graph" transform="scale(1 1) rotate(0) translate(4 115)">
<title>foo</title>
<g id="a_graph0"><a xlink:title=" ">
<polygon fill="white" stroke="none" points="-4,4 -4,-115 603,-115 603,4 -4,4"/>
</a>
</g>
<!-- Log fire is lit &#160;!tick -->
<g id="node1" class="node"><title>Log fire is lit &#160;!tick</title>
<polygon fill="#fdae6b" stroke="#fdae6b" stroke-width="2" points="380.5,-61 258.5,-61 258.5,-25 380.5,-25 380.5,-61"/>
<text text-anchor="start" x="266.5" y="-39.3" font-family="arial" font-size="14.00">Log fire is lit !tick</text>
</g>
<!-- Clothes are !factual dried !tick -->
<g id="node2" class="node"><title>Clothes are !factual dried !tick</title>
<polygon fill="#fdae6b" stroke="#fdae6b" stroke-width="2" points="599,-87 460,-87 460,-49 599,-49 599,-87"/>
<text text-anchor="start" x="468" y="-71.8" font-family="arial" font-size="14.00">Clothes are !factual</text>
<text text-anchor="start" x="498.5" y="-56.8" font-family="arial" font-size="14.00">dried !tick</text>
</g>
<!-- Log fire is lit &#160;!tick&#45;&gt;Clothes are !factual dried !tick -->
<g id="edge1" class="edge"><title>Log fire is lit &#160;!tick&#45;&gt;Clothes are !factual dried !tick</title>
<path fill="none" stroke="#41ab5d" d="M380.627,-53.8926C406.485,-58.5769 434.032,-63.5675 448.419,-66.1737"/>
<polygon fill="#41ab5d" stroke="#41ab5d" points="448.036,-69.6613 458.5,-68 449.284,-62.7734 448.036,-69.6613"/>
</g>
<!-- Match is struck &#160;!do &#160;!tick -->
<g id="node3" class="node"><title>Match is struck &#160;!do &#160;!tick</title>
<polygon fill="#fdae6b" stroke="#fdae6b" stroke-width="2" points="169,-86 10,-86 10,-50 169,-50 169,-86"/>
<text text-anchor="start" x="18" y="-65.3" font-family="arial" font-size="14.00">Match is struck </text>
<text text-anchor="start" x="115" y="-65.3" font-family="arial" font-size="14.00" fill="green">▶ </text>
<text text-anchor="start" x="131" y="-65.3" font-family="arial" font-size="14.00"> !tick</text>
</g>
<!-- Match is struck &#160;!do &#160;!tick&#45;&gt;Log fire is lit &#160;!tick -->
<g id="edge2" class="edge"><title>Match is struck &#160;!do &#160;!tick&#45;&gt;Log fire is lit &#160;!tick</title>
<path fill="none" stroke="#41ab5d" d="M169.11,-56.232C200.073,-51.5968 231.936,-46.8269 247.59,-44.4835"/>
<polygon fill="#41ab5d" stroke="#41ab5d" points="248.128,-47.942 257.5,-43 247.092,-41.0192 248.128,-47.942"/>
<text text-anchor="middle" x="244.994" y="-47.5821" font-family="Times New Roman,serif" font-size="14.00">AND</text>
</g>
<!-- Dry wood is available &#160;!tick -->
<g id="node4" class="node"><title>Dry wood is available &#160;!tick</title>
<polygon fill="#e5f5e0" stroke="#e5f5e0" stroke-width="2" points="179,-36 0,-36 0,-0 179,-0 179,-36"/>
<text text-anchor="start" x="8" y="-14.3" font-family="arial" font-size="14.00">Dry wood is available !tick</text>
</g>
<!-- Dry wood is available &#160;!tick&#45;&gt;Log fire is lit &#160;!tick -->
<g id="edge3" class="edge"><title>Dry wood is available &#160;!tick&#45;&gt;Log fire is lit &#160;!tick</title>
<path fill="none" stroke="#41ab5d" d="M179.379,-31.3052C206.798,-35.4098 233.44,-39.3982 247.414,-41.4901"/>
<polygon fill="#41ab5d" stroke="#41ab5d" points="247.092,-44.9808 257.5,-43 248.128,-38.058 247.092,-44.9808"/>
</g>
<!-- Electric heater is switched on !cross -->
<g id="node5" class="node"><title>Electric heater is switched on !cross</title>
<polygon fill="#e5f5e0" stroke="#e5f5e0" stroke-width="2" points="410,-111 229,-111 229,-75 410,-75 410,-111"/>
<text text-anchor="start" x="237" y="-96.8" font-family="arial" font-size="14.00">Electric heater is switched</text>
<text text-anchor="start" x="303.5" y="-82.8" font-family="arial" font-size="14.00">on </text>
<text text-anchor="start" x="323.5" y="-82.8" font-family="arial" font-size="14.00" fill="orange">✘</text>
</g>
<!-- Electric heater is switched on !cross&#45;&gt;Clothes are !factual dried !tick -->
<g id="edge4" class="edge"><title>Electric heater is switched on !cross&#45;&gt;Clothes are !factual dried !tick</title>
<path fill="none" stroke="#41ab5d" d="M410.234,-76.7438C425.678,-73.9459 439.595,-71.4249 448.471,-69.8168"/>
<polygon fill="#41ab5d" stroke="#41ab5d" points="449.284,-73.2266 458.5,-68 448.036,-66.3387 449.284,-73.2266"/>
<text text-anchor="middle" x="446.253" y="-72.9611" font-family="Times New Roman,serif" font-size="14.00">OR</text>
</g>
</g>
</svg>
