<?xml version="1.0" encoding="UTF-8" standalone="no"?>
<!DOCTYPE svg PUBLIC "-//W3C//DTD SVG 1.1//EN"
 "http://www.w3.org/Graphics/SVG/1.1/DTD/svg11.dtd">
<!-- Generated by graphviz version 2.38.0 (20140413.2041)
 -->
<!-- Title: foo Pages: 1 -->
<svg width="357pt" height="81pt"
 viewBox="0.00 0.00 357.00 81.00" xmlns="http://www.w3.org/2000/svg" xmlns:xlink="http://www.w3.org/1999/xlink">
<g id="graph0" class="graph" transform="scale(1 1) rotate(0) translate(4 77)">
<title>foo</title>
<g id="a_graph0"><a xlink:title=" ">
<polygon fill="#c7e9c0" stroke="none" points="-4,4 -4,-77 353,-77 353,4 -4,4"/>
<text text-anchor="start" x="136.5" y="-7.2" font-family="tahoma" font-size="11.00" fill="#238b45">Try this instead</text>
</a>
</g>
<!-- Child: Opportunity to safely interact with strange dogs -->
<g id="node1" class="node"><title>Child: Opportunity to safely interact with strange dogs</title>
<polygon fill="#f7fcf5" stroke="#f7fcf5" points="145,-73 0,-73 0,-20 145,-20 145,-73"/>
<text text-anchor="start" x="8" y="-57.8" font-family="Helvetica,sans-Serif" font-size="14.00" fill="#006d2c">Child: Opportunity to</text>
<text text-anchor="start" x="15" y="-42.8" font-family="Helvetica,sans-Serif" font-size="14.00" fill="#006d2c">safely interact with</text>
<text text-anchor="start" x="30.5" y="-27.8" font-family="Helvetica,sans-Serif" font-size="14.00" fill="#006d2c">strange dogs</text>
</g>
<!-- Child: Trust in strange dogs -->
<g id="node2" class="node"><title>Child: Trust in strange dogs</title>
<polygon fill="#f7fcf5" stroke="#f7fcf5" points="349,-65.5 195,-65.5 195,-27.5 349,-27.5 349,-65.5"/>
<text text-anchor="start" x="203" y="-50.3" font-family="Helvetica,sans-Serif" font-size="14.00" fill="#006d2c">Child: Trust in strange</text>
<text text-anchor="start" x="255.5" y="-35.3" font-family="Helvetica,sans-Serif" font-size="14.00" fill="#006d2c">dogs</text>
</g>
<!-- Child: Opportunity to safely interact with strange dogs&#45;&gt;Child: Trust in strange dogs -->
<g id="edge1" class="edge"><title>Child: Opportunity to safely interact with strange dogs&#45;&gt;Child: Trust in strange dogs</title>
<path fill="none" stroke="#41ab5d" stroke-width="2" d="M145.081,-46.5C157.925,-46.5 171.433,-46.5 184.641,-46.5"/>
<polygon fill="#41ab5d" stroke="#41ab5d" stroke-width="2" points="184.667,-50.0001 194.667,-46.5 184.667,-43.0001 184.667,-50.0001"/>
</g>
</g>
</svg>
