<?xml version="1.0" encoding="UTF-8" standalone="no"?>
<!DOCTYPE svg PUBLIC "-//W3C//DTD SVG 1.1//EN"
 "http://www.w3.org/Graphics/SVG/1.1/DTD/svg11.dtd">
<!-- Generated by graphviz version 2.38.0 (20140413.2041)
 -->
<!-- Title: foo Pages: 1 -->
<svg width="243pt" height="94pt"
 viewBox="0.00 0.00 243.00 94.00" xmlns="http://www.w3.org/2000/svg" xmlns:xlink="http://www.w3.org/1999/xlink">
<g id="graph0" class="graph" transform="scale(1 1) rotate(0) translate(4 90)">
<title>foo</title>
<g id="a_graph0"><a xlink:title=" ">
<polygon fill="white" stroke="none" points="-4,4 -4,-90 239,-90 239,4 -4,4"/>
</a>
</g>
<!-- My flamethrower -->
<g id="node1" class="node"><title>My flamethrower</title>
<polygon fill="#e5f5e0" stroke="#e5f5e0" stroke-width="2" points="125.5,-86 5.5,-86 5.5,-50 125.5,-50 125.5,-86"/>
<text text-anchor="start" x="13.5" y="-64.3" font-family="arial" font-size="14.00">My flamethrower</text>
</g>
<!-- Fire -->
<g id="node2" class="node"><title>Fire</title>
<polygon fill="#e5f5e0" stroke="#e5f5e0" stroke-width="2" points="235,-61 181,-61 181,-25 235,-25 235,-61"/>
<text text-anchor="start" x="195.5" y="-39.3" font-family="arial" font-size="14.00">Fire</text>
</g>
<!-- My flamethrower&#45;&gt;Fire -->
<g id="edge1" class="edge"><title>My flamethrower&#45;&gt;Fire</title>
<path fill="none" stroke="#41ab5d" d="M125.577,-54.9874C142.814,-51.1908 159.763,-47.4574 170.052,-45.1912"/>
<polygon fill="#41ab5d" stroke="#41ab5d" points="170.987,-48.5692 180,-43 169.481,-41.7331 170.987,-48.5692"/>
<text text-anchor="middle" x="168.087" y="-48.4152" font-family="Times New Roman,serif" font-size="14.00">OR</text>
</g>
<!-- Your flamethrower -->
<g id="node3" class="node"><title>Your flamethrower</title>
<polygon fill="#e5f5e0" stroke="#e5f5e0" stroke-width="2" points="131,-36 0,-36 0,-0 131,-0 131,-36"/>
<text text-anchor="start" x="8" y="-14.3" font-family="arial" font-size="14.00">Your flamethrower</text>
</g>
<!-- Your flamethrower&#45;&gt;Fire -->
<g id="edge2" class="edge"><title>Your flamethrower&#45;&gt;Fire</title>
<path fill="none" stroke="#41ab5d" d="M131.207,-32.2527C146.341,-35.5861 160.705,-38.75 169.878,-40.7704"/>
<polygon fill="#41ab5d" stroke="#41ab5d" points="169.481,-44.2669 180,-43 170.987,-37.4308 169.481,-44.2669"/>
</g>
</g>
</svg>
