<?xml version="1.0" encoding="UTF-8" standalone="no"?>
<!DOCTYPE svg PUBLIC "-//W3C//DTD SVG 1.1//EN"
 "http://www.w3.org/Graphics/SVG/1.1/DTD/svg11.dtd">
<!-- Generated by graphviz version 2.38.0 (20140413.2041)
 -->
<!-- Title: foo Pages: 1 -->
<svg width="399pt" height="119pt"
 viewBox="0.00 0.00 399.00 119.00" xmlns="http://www.w3.org/2000/svg" xmlns:xlink="http://www.w3.org/1999/xlink">
<g id="graph0" class="graph" transform="scale(1 1) rotate(0) translate(4 115)">
<title>foo</title>
<g id="a_graph0"><a xlink:title=" ">
<polygon fill="white" stroke="none" points="-4,4 -4,-115 395,-115 395,4 -4,4"/>
</a>
</g>
<!-- Log fire -->
<g id="node1" class="node"><title>Log fire</title>
<polygon fill="#fdae6b" stroke="#fdae6b" stroke-width="2" points="213,-61 148,-61 148,-25 213,-25 213,-61"/>
<text text-anchor="start" x="156" y="-39.3" font-family="arial" font-size="14.00">Log fire</text>
</g>
<!-- Drying clothes -->
<g id="node2" class="node"><title>Drying clothes</title>
<polygon fill="#fdae6b" stroke="#fdae6b" stroke-width="2" points="391,-86 284,-86 284,-50 391,-50 391,-86"/>
<text text-anchor="start" x="292" y="-64.3" font-family="arial" font-size="14.00">Drying clothes</text>
</g>
<!-- Log fire&#45;&gt;Drying clothes -->
<g id="edge1" class="edge"><title>Log fire&#45;&gt;Drying clothes</title>
<path fill="none" stroke="#41ab5d" d="M213.18,-50.8416C233.544,-55.8821 258.672,-62.1019 272.388,-65.4971"/>
<polygon fill="#41ab5d" stroke="#41ab5d" points="271.952,-68.9947 282.5,-68 273.634,-62.1997 271.952,-68.9947"/>
</g>
<!-- Matches -->
<g id="node3" class="node"><title>Matches</title>
<polygon fill="#fdae6b" stroke="#fdae6b" stroke-width="2" points="73.5,-86 3.5,-86 3.5,-50 73.5,-50 73.5,-86"/>
<text text-anchor="start" x="11.5" y="-64.3" font-family="arial" font-size="14.00">Matches</text>
</g>
<!-- Matches&#45;&gt;Log fire -->
<g id="edge2" class="edge"><title>Matches&#45;&gt;Log fire</title>
<path fill="none" stroke="#41ab5d" d="M73.6497,-60.0211C95.4229,-54.9339 122.138,-48.6921 136.396,-45.3607"/>
<polygon fill="#41ab5d" stroke="#41ab5d" points="137.559,-48.6835 146.5,-43 135.966,-41.867 137.559,-48.6835"/>
<text text-anchor="middle" x="134.704" y="-48.566" font-family="Times New Roman,serif" font-size="14.00">AND</text>
</g>
<!-- Dry wood -->
<g id="node4" class="node"><title>Dry wood</title>
<polygon fill="#e5f5e0" stroke="#e5f5e0" stroke-width="2" points="77,-36 0,-36 0,-0 77,-0 77,-36"/>
<text text-anchor="start" x="8" y="-14.3" font-family="arial" font-size="14.00">Dry wood</text>
</g>
<!-- Dry wood&#45;&gt;Log fire -->
<g id="edge3" class="edge"><title>Dry wood&#45;&gt;Log fire</title>
<path fill="none" stroke="#41ab5d" d="M77.2242,-26.8141C98.4033,-31.7624 123.205,-37.5572 136.637,-40.6957"/>
<polygon fill="#41ab5d" stroke="#41ab5d" points="135.966,-44.133 146.5,-43 137.559,-37.3165 135.966,-44.133"/>
</g>
<!-- Electric heater -->
<g id="node5" class="node"><title>Electric heater</title>
<polygon fill="#e5f5e0" stroke="#e5f5e0" stroke-width="2" points="234,-111 127,-111 127,-75 234,-75 234,-111"/>
<text text-anchor="start" x="135" y="-89.3" font-family="arial" font-size="14.00">Electric heater</text>
</g>
<!-- Electric heater&#45;&gt;Drying clothes -->
<g id="edge4" class="edge"><title>Electric heater&#45;&gt;Drying clothes</title>
<path fill="none" stroke="#41ab5d" d="M234.071,-79.9874C248.834,-76.3332 263.361,-72.7375 272.593,-70.4523"/>
<polygon fill="#41ab5d" stroke="#41ab5d" points="273.634,-73.8003 282.5,-68 271.952,-67.0053 273.634,-73.8003"/>
<text text-anchor="middle" x="270.827" y="-73.72" font-family="Times New Roman,serif" font-size="14.00">OR</text>
</g>
</g>
</svg>
