<?xml version="1.0" encoding="UTF-8" standalone="no"?>
<!DOCTYPE svg PUBLIC "-//W3C//DTD SVG 1.1//EN"
 "http://www.w3.org/Graphics/SVG/1.1/DTD/svg11.dtd">
<!-- Generated by graphviz version 2.38.0 (20140413.2041)
 -->
<!-- Title: foo Pages: 1 -->
<svg width="335pt" height="274pt"
 viewBox="0.00 0.00 335.00 274.00" xmlns="http://www.w3.org/2000/svg" xmlns:xlink="http://www.w3.org/1999/xlink">
<g id="graph0" class="graph" transform="scale(1 1) rotate(0) translate(4 270)">
<title>foo</title>
<g id="a_graph0"><a xlink:title=" ">
<polygon fill="white" stroke="none" points="-4,4 -4,-270 331,-270 331,4 -4,4"/>
</a>
</g>
<g id="clust1" class="cluster"><title>cluster_ConsequenceVariable</title>
<g id="a_clust1"><a xlink:title=" ">
<path fill="#efedf5" stroke="#efedf5" d="M225,-30C225,-30 307,-30 307,-30 313,-30 319,-36 319,-42 319,-42 319,-216 319,-216 319,-222 313,-228 307,-228 307,-228 225,-228 225,-228 219,-228 213,-222 213,-216 213,-216 213,-42 213,-42 213,-36 219,-30 225,-30"/>
<text text-anchor="start" x="221" y="-212.8" font-family="arial" font-size="14.00">Consequence</text>
<text text-anchor="start" x="240" y="-197.8" font-family="arial" font-size="14.00">Variable</text>
</a>
</g>
</g>
<g id="clust2" class="cluster"><title>cluster_InfluenceVariables</title>
<g id="a_clust2"><a xlink:title=" ">
<path fill="#efedf5" stroke="#efedf5" d="M20,-8C20,-8 109,-8 109,-8 115,-8 121,-14 121,-20 121,-20 121,-246 121,-246 121,-252 115,-258 109,-258 109,-258 20,-258 20,-258 14,-258 8,-252 8,-246 8,-246 8,-20 8,-20 8,-14 14,-8 20,-8"/>
<text text-anchor="start" x="16.5" y="-242.8" font-family="arial" font-size="14.00">Influence</text>
<text text-anchor="start" x="16" y="-227.8" font-family="arial" font-size="14.00">Variables</text>
</a>
</g>
</g>
<!-- How much student feels that they live up to expectations -->
<g id="node1" class="node"><title>How much student feels that they live up to expectations</title>
<polygon fill="#e5f5e0" stroke="#e5f5e0" stroke-width="2" points="113,-212 16,-212 16,-114 113,-114 113,-212"/>
<text text-anchor="start" x="31" y="-196.8" font-family="arial" font-size="14.00">How much</text>
<text text-anchor="start" x="41" y="-181.8" font-family="arial" font-size="14.00">student</text>
<text text-anchor="start" x="48.5" y="-166.8" font-family="arial" font-size="14.00">feels</text>
<text text-anchor="start" x="38" y="-151.8" font-family="arial" font-size="14.00">that they</text>
<text text-anchor="start" x="36" y="-136.8" font-family="arial" font-size="14.00">live up to</text>
<text text-anchor="start" x="24" y="-121.8" font-family="arial" font-size="14.00">expectations</text>
</g>
<!-- Student satisfaction with school. Influence: &#39;plus&#39;//(Evidence: see the research from 2015) -->
<g id="node2" class="node"><title>Student satisfaction with school. Influence: &#39;plus&#39;//(Evidence: see the research from 2015)</title>
<polygon fill="#e5f5e0" stroke="#e5f5e0" stroke-width="2" points="311,-181.5 221,-181.5 221,-38.5 311,-38.5 311,-181.5"/>
<text text-anchor="start" x="241.5" y="-166.3" font-family="arial" font-size="14.00">Student</text>
<text text-anchor="start" x="230" y="-151.3" font-family="arial" font-size="14.00">satisfaction</text>
<text text-anchor="start" x="229" y="-136.3" font-family="arial" font-size="14.00">with school.</text>
<text text-anchor="start" x="234.5" y="-121.3" font-family="arial" font-size="14.00">Influence:</text>
<text text-anchor="start" x="249.5" y="-106.3" font-family="arial" font-size="14.00">&#39;plus&#39;</text>
<text text-anchor="start" x="232" y="-91.3" font-family="arial" font-size="14.00">(Evidence:</text>
<text text-anchor="start" x="242" y="-76.3" font-family="arial" font-size="14.00">see the</text>
<text text-anchor="start" x="238" y="-61.3" font-family="arial" font-size="14.00">research</text>
<text text-anchor="start" x="230.5" y="-46.3" font-family="arial" font-size="14.00">from 2015)</text>
</g>
<!-- How much student feels that they live up to expectations&#45;&gt;Student satisfaction with school. Influence: &#39;plus&#39;//(Evidence: see the research from 2015) -->
<g id="edge1" class="edge"><title>How much student feels that they live up to expectations&#45;&gt;Student satisfaction with school. Influence: &#39;plus&#39;//(Evidence: see the research from 2015)</title>
<path fill="none" stroke="#41ab5d" d="M113.032,-150.373C142.566,-142.526 180.607,-132.42 211.239,-124.282"/>
<polygon fill="#41ab5d" stroke="#41ab5d" points="212.138,-127.665 220.904,-121.715 210.341,-120.9 212.138,-127.665"/>
<text text-anchor="start" x="139.5" y="-205.8" font-family="Times New Roman,serif" font-size="14.00">Evidence:</text>
<text text-anchor="start" x="157.5" y="-190.8" font-family="Times New Roman,serif" font-size="14.00">see</text>
<text text-anchor="start" x="139.5" y="-175.8" font-family="Times New Roman,serif" font-size="14.00">additional</text>
<text text-anchor="start" x="143.5" y="-160.8" font-family="Times New Roman,serif" font-size="14.00">research</text>
<text text-anchor="start" x="138" y="-145.8" font-family="Times New Roman,serif" font-size="14.00">from 2016</text>
</g>
<!-- How much student feels supported and liked -->
<g id="node3" class="node"><title>How much student feels supported and liked</title>
<polygon fill="#e5f5e0" stroke="#e5f5e0" stroke-width="2" points="106,-99.5 23,-99.5 23,-16.5 106,-16.5 106,-99.5"/>
<text text-anchor="start" x="31" y="-84.3" font-family="arial" font-size="14.00">How much</text>
<text text-anchor="start" x="41" y="-69.3" font-family="arial" font-size="14.00">student</text>
<text text-anchor="start" x="48.5" y="-54.3" font-family="arial" font-size="14.00">feels</text>
<text text-anchor="start" x="32" y="-39.3" font-family="arial" font-size="14.00">supported</text>
<text text-anchor="start" x="36" y="-24.3" font-family="arial" font-size="14.00">and liked</text>
</g>
<!-- How much student feels supported and liked&#45;&gt;Student satisfaction with school. Influence: &#39;plus&#39;//(Evidence: see the research from 2015) -->
<g id="edge2" class="edge"><title>How much student feels supported and liked&#45;&gt;Student satisfaction with school. Influence: &#39;plus&#39;//(Evidence: see the research from 2015)</title>
<path fill="none" stroke="#41ab5d" d="M106.353,-68.6485C136.52,-76.5114 177.882,-87.2927 210.81,-95.8752"/>
<polygon fill="#41ab5d" stroke="#41ab5d" points="210.177,-99.3271 220.736,-98.4625 211.942,-92.5534 210.177,-99.3271"/>
</g>
</g>
</svg>
