<?xml version="1.0" encoding="UTF-8" standalone="no"?>
<!DOCTYPE svg PUBLIC "-//W3C//DTD SVG 1.1//EN"
 "http://www.w3.org/Graphics/SVG/1.1/DTD/svg11.dtd">
<!-- Generated by graphviz version 2.38.0 (20140413.2041)
 -->
<!-- Title: foo Pages: 1 -->
<svg width="290pt" height="81pt"
 viewBox="0.00 0.00 290.00 81.00" xmlns="http://www.w3.org/2000/svg" xmlns:xlink="http://www.w3.org/1999/xlink">
<g id="graph0" class="graph" transform="scale(1 1) rotate(0) translate(4 77)">
<title>foo</title>
<g id="a_graph0"><a xlink:title=" ">
<polygon fill="#d9d9d9" stroke="none" points="-4,4 -4,-77 286,-77 286,4 -4,4"/>
<text text-anchor="start" x="92.5" y="-7.2" font-family="tahoma" font-size="11.00" fill="#525252">We can simplify this</text>
</a>
</g>
<!-- Child: Opportunity to safely interact with strange dogs -->
<g id="node1" class="node"><title>Child: Opportunity to safely interact with strange dogs</title>
<polygon fill="#fee6ce" stroke="#fee6ce" points="129,-73 0,-73 0,-20 129,-20 129,-73"/>
<text text-anchor="start" x="8" y="-57.8" font-family="Helvetica,sans-Serif" font-size="14.00">Child: Opportunity</text>
<text text-anchor="start" x="13" y="-42.8" font-family="Helvetica,sans-Serif" font-size="14.00">to safely interact</text>
<text text-anchor="start" x="8.5" y="-27.8" font-family="Helvetica,sans-Serif" font-size="14.00">with strange dogs</text>
</g>
<!-- Child: Trust in strange dogs -->
<g id="node2" class="node"><title>Child: Trust in strange dogs</title>
<polygon fill="#fee6ce" stroke="#fee6ce" points="282,-65.5 179,-65.5 179,-27.5 282,-27.5 282,-65.5"/>
<text text-anchor="start" x="187" y="-50.3" font-family="Helvetica,sans-Serif" font-size="14.00">Child: Trust in</text>
<text text-anchor="start" x="188.5" y="-35.3" font-family="Helvetica,sans-Serif" font-size="14.00">strange dogs</text>
</g>
<!-- Child: Opportunity to safely interact with strange dogs&#45;&gt;Child: Trust in strange dogs -->
<g id="edge1" class="edge"><title>Child: Opportunity to safely interact with strange dogs&#45;&gt;Child: Trust in strange dogs</title>
<path fill="none" stroke="#737373" stroke-width="2" d="M129.376,-46.5C142.363,-46.5 155.989,-46.5 168.859,-46.5"/>
<polygon fill="#737373" stroke="#737373" stroke-width="2" points="168.993,-50.0001 178.993,-46.5 168.993,-43.0001 168.993,-50.0001"/>
</g>
</g>
</svg>
