<?xml version="1.0" encoding="UTF-8" standalone="no"?>
<!DOCTYPE svg PUBLIC "-//W3C//DTD SVG 1.1//EN"
 "http://www.w3.org/Graphics/SVG/1.1/DTD/svg11.dtd">
<!-- Generated by graphviz version 2.38.0 (20140413.2041)
 -->
<!-- Title: foo Pages: 1 -->
<svg width="452pt" height="101pt"
 viewBox="0.00 0.00 452.00 101.00" xmlns="http://www.w3.org/2000/svg" xmlns:xlink="http://www.w3.org/1999/xlink">
<g id="graph0" class="graph" transform="scale(1 1) rotate(0) translate(4 97)">
<title>foo</title>
<g id="a_graph0"><a xlink:title=" ">
<polygon fill="white" stroke="none" points="-4,4 -4,-97 448,-97 448,4 -4,4"/>
</a>
</g>
<g id="clust2" class="cluster"><title>cluster_InfluenceVariables</title>
<g id="a_clust2"><a xlink:title=" ">
<path fill="#efedf5" stroke="#efedf5" d="M20,-8C20,-8 206,-8 206,-8 212,-8 218,-14 218,-20 218,-20 218,-73 218,-73 218,-79 212,-85 206,-85 206,-85 20,-85 20,-85 14,-85 8,-79 8,-73 8,-73 8,-20 8,-20 8,-14 14,-8 20,-8"/>
<text text-anchor="start" x="16" y="-69.8" font-family="arial" font-size="14.00">Influence Variables</text>
</a>
</g>
</g>
<g id="clust1" class="cluster"><title>cluster_ConsequenceVariable</title>
<g id="a_clust1"><a xlink:title=" ">
<path fill="#efedf5" stroke="#efedf5" d="M264,-8C264,-8 424,-8 424,-8 430,-8 436,-14 436,-20 436,-20 436,-73 436,-73 436,-79 430,-85 424,-85 424,-85 264,-85 264,-85 258,-85 252,-79 252,-73 252,-73 252,-20 252,-20 252,-14 258,-8 264,-8"/>
<text text-anchor="start" x="260" y="-69.8" font-family="arial" font-size="14.00">Consequence Variable</text>
</a>
</g>
</g>
<!-- How much student feels that they live up to expectations -->
<g id="node1" class="node"><title>How much student feels that they live up to expectations</title>
<polygon fill="#e5f5e0" stroke="#e5f5e0" stroke-width="2" points="210,-54 16,-54 16,-16 210,-16 210,-54"/>
<text text-anchor="start" x="24" y="-38.8" font-family="arial" font-size="14.00">How much student feels that</text>
<text text-anchor="start" x="27.5" y="-23.8" font-family="arial" font-size="14.00">they live up to expectations</text>
</g>
<!-- Student satisfaction with school -->
<g id="node2" class="node"><title>Student satisfaction with school</title>
<polygon fill="#e5f5e0" stroke="#e5f5e0" stroke-width="2" points="428,-54 260,-54 260,-16 428,-16 428,-54"/>
<text text-anchor="start" x="268" y="-38.8" font-family="arial" font-size="14.00">Student satisfaction with</text>
<text text-anchor="start" x="322.5" y="-23.8" font-family="arial" font-size="14.00">school</text>
</g>
<!-- How much student feels that they live up to expectations&#45;&gt;Student satisfaction with school -->
<g id="edge1" class="edge"><title>How much student feels that they live up to expectations&#45;&gt;Student satisfaction with school</title>
<path fill="none" stroke="#41ab5d" d="M210.121,-35C223.16,-35 236.524,-35 249.516,-35"/>
<polygon fill="#41ab5d" stroke="#41ab5d" points="249.841,-38.5001 259.841,-35 249.841,-31.5001 249.841,-38.5001"/>
</g>
</g>
</svg>
