<?xml version="1.0" encoding="UTF-8" standalone="no"?>
<!DOCTYPE svg PUBLIC "-//W3C//DTD SVG 1.1//EN"
 "http://www.w3.org/Graphics/SVG/1.1/DTD/svg11.dtd">
<!-- Generated by graphviz version 2.38.0 (20140413.2041)
 -->
<!-- Title: foo Pages: 1 -->
<svg width="400pt" height="81pt"
 viewBox="0.00 0.00 400.00 81.00" xmlns="http://www.w3.org/2000/svg" xmlns:xlink="http://www.w3.org/1999/xlink">
<g id="graph0" class="graph" transform="scale(1 1) rotate(0) translate(4 77)">
<title>foo</title>
<g id="a_graph0"><a xlink:title=" ">
<polygon fill="#d9d9d9" stroke="none" points="-4,4 -4,-77 396,-77 396,4 -4,4"/>
<text text-anchor="start" x="121" y="-7.2" font-family="tahoma" font-size="11.00" fill="#525252">The word &#39;lower&#39; is problematic</text>
</a>
</g>
<!-- Percentage of children vaccinated -->
<g id="node1" class="node"><title>Percentage of children vaccinated</title>
<polygon fill="#fee6ce" stroke="#fee6ce" points="230,-73 140,-73 140,-20 230,-20 230,-73"/>
<text text-anchor="start" x="148" y="-57.8" font-family="Helvetica,sans-Serif" font-size="14.00">Percentage</text>
<text text-anchor="start" x="151.5" y="-42.8" font-family="Helvetica,sans-Serif" font-size="14.00">of children</text>
<text text-anchor="start" x="151" y="-27.8" font-family="Helvetica,sans-Serif" font-size="14.00">vaccinated</text>
</g>
<!-- Lower mortality -->
<g id="node2" class="node"><title>Lower mortality</title>
<polygon fill="#fee6ce" stroke="#fee6ce" points="392,-64.5 280,-64.5 280,-28.5 392,-28.5 392,-64.5"/>
<text text-anchor="start" x="288" y="-42.8" font-family="Helvetica,sans-Serif" font-size="14.00">Lower mortality</text>
</g>
<!-- Percentage of children vaccinated&#45;&gt;Lower mortality -->
<g id="edge1" class="edge"><title>Percentage of children vaccinated&#45;&gt;Lower mortality</title>
<path fill="none" stroke="#737373" stroke-width="2" d="M230.301,-46.5C242.674,-46.5 256.385,-46.5 269.698,-46.5"/>
<polygon fill="#737373" stroke="#737373" stroke-width="2" points="269.772,-50.0001 279.772,-46.5 269.772,-43.0001 269.772,-50.0001"/>
</g>
<!-- Extent of vaccination programme -->
<g id="node3" class="node"><title>Extent of vaccination programme</title>
<polygon fill="#fee6ce" stroke="#fee6ce" points="90,-73 0,-73 0,-20 90,-20 90,-73"/>
<text text-anchor="start" x="16.5" y="-57.8" font-family="Helvetica,sans-Serif" font-size="14.00">Extent of</text>
<text text-anchor="start" x="10" y="-42.8" font-family="Helvetica,sans-Serif" font-size="14.00">vaccination</text>
<text text-anchor="start" x="8" y="-27.8" font-family="Helvetica,sans-Serif" font-size="14.00">programme</text>
</g>
<!-- Extent of vaccination programme&#45;&gt;Percentage of children vaccinated -->
<g id="edge2" class="edge"><title>Extent of vaccination programme&#45;&gt;Percentage of children vaccinated</title>
<path fill="none" stroke="#737373" stroke-width="2" d="M90.0435,-46.5C102.616,-46.5 116.467,-46.5 129.581,-46.5"/>
<polygon fill="#737373" stroke="#737373" stroke-width="2" points="129.902,-50.0001 139.902,-46.5 129.902,-43.0001 129.902,-50.0001"/>
</g>
</g>
</svg>
