<?xml version="1.0" encoding="UTF-8" standalone="no"?>
<!DOCTYPE svg PUBLIC "-//W3C//DTD SVG 1.1//EN"
 "http://www.w3.org/Graphics/SVG/1.1/DTD/svg11.dtd">
<!-- Generated by graphviz version 2.38.0 (20140413.2041)
 -->
<!-- Title: foo Pages: 1 -->
<svg width="471pt" height="183pt"
 viewBox="0.00 0.00 470.99 183.00" xmlns="http://www.w3.org/2000/svg" xmlns:xlink="http://www.w3.org/1999/xlink">
<g id="graph0" class="graph" transform="scale(1 1) rotate(0) translate(4 179)">
<title>foo</title>
<g id="a_graph0"><a xlink:title=" ">
<polygon fill="white" stroke="none" points="-4,4 -4,-179 466.985,-179 466.985,4 -4,4"/>
<text text-anchor="start" x="8" y="-148.6" font-family="arial" font-size="28.00">The flow of apples</text>
</a>
</g>
<!-- Valve 3 -->
<g id="node1" class="node"><title>Valve 3</title>
<polygon fill="none" stroke="none" stroke-width="2" points="305.095,-136 251.095,-136 251.095,-100 305.095,-100 305.095,-136"/>
<text text-anchor="start" x="264.095" y="-116.1" font-family="arial" font-size="8.00">Valve 3</text>
</g>
<!-- Consumer -->
<g id="node2" class="node"><title>Consumer</title>
<ellipse fill="#e5f5e0" stroke="#e5f5e0" stroke-width="2" cx="409.04" cy="-93" rx="53.8905" ry="18"/>
<text text-anchor="start" x="375.54" y="-89.3" font-family="arial" font-size="14.00">Consumer</text>
</g>
<!-- Valve 3&#45;&gt;Consumer -->
<g id="edge1" class="edge"><title>Valve 3&#45;&gt;Consumer</title>
<path fill="none" stroke="#bdbdbd" d="M305.307,-109.256C312.736,-106.778 320.816,-104.083 328.222,-101.612"/>
<polyline fill="none" stroke="#bdbdbd" points="354.04,-93 349.297,-94.5822 "/>
<polyline fill="none" stroke="#bdbdbd" points="349.297,-94.5822 344.554,-96.1644 "/>
<polyline fill="none" stroke="#bdbdbd" points="344.554,-96.1644 339.811,-97.7466 "/>
<polygon fill="#bdbdbd" stroke="#bdbdbd" points="328.427,-101.544 332.853,-95.8507 339.811,-97.7466 335.385,-103.44 328.427,-101.544"/>
</g>
<!-- Shop -->
<g id="node3" class="node"><title>Shop</title>
<polygon fill="#e5f5e0" stroke="#e5f5e0" stroke-width="2" points="305.095,-86 251.095,-86 251.095,-50 305.095,-50 305.095,-86"/>
<text text-anchor="start" x="261.095" y="-64.3" font-family="arial" font-size="14.00">Shop</text>
</g>
<!-- Shop&#45;&gt;Consumer -->
<g id="edge2" class="edge"><title>Shop&#45;&gt;Consumer</title>
<path fill="none" stroke="#bdbdbd" stroke-width="3" d="M305.307,-76.7438C318.814,-81.2496 334.474,-86.4732 344.319,-89.7573"/>
<polygon fill="#bdbdbd" stroke="#bdbdbd" stroke-width="3" points="343.446,-93.1557 354.04,-93 345.661,-86.5154 343.446,-93.1557"/>
</g>
<!-- Valve 2 -->
<g id="node4" class="node"><title>Valve 2</title>
<polygon fill="none" stroke="none" stroke-width="2" points="183.095,-111 129.095,-111 129.095,-75 183.095,-75 183.095,-111"/>
<text text-anchor="start" x="142.095" y="-91.1" font-family="arial" font-size="8.00">Valve 2</text>
</g>
<!-- Valve 2&#45;&gt;Shop -->
<g id="edge3" class="edge"><title>Valve 2&#45;&gt;Shop</title>
<path fill="none" stroke="#bdbdbd" d="M183.496,-85.9029C196.169,-82.496 211.309,-78.4262 223.949,-75.0283"/>
<polyline fill="none" stroke="#bdbdbd" points="250.095,-68 245.266,-69.298 "/>
<polyline fill="none" stroke="#bdbdbd" points="245.266,-69.298 240.437,-70.596 "/>
<polyline fill="none" stroke="#bdbdbd" points="240.437,-70.596 235.609,-71.8941 "/>
<polygon fill="#bdbdbd" stroke="#bdbdbd" points="224.02,-75.0093 228.776,-69.5888 235.609,-71.8941 230.853,-77.3145 224.02,-75.0093"/>
</g>
<!-- Warehouse -->
<g id="node5" class="node"><title>Warehouse</title>
<polygon fill="#e5f5e0" stroke="#e5f5e0" stroke-width="2" points="201.095,-61 111.095,-61 111.095,-25 201.095,-25 201.095,-61"/>
<text text-anchor="start" x="119.095" y="-39.3" font-family="arial" font-size="14.00">Warehouse</text>
</g>
<!-- Warehouse&#45;&gt;Shop -->
<g id="edge4" class="edge"><title>Warehouse&#45;&gt;Shop</title>
<path fill="none" stroke="#bdbdbd" stroke-width="3" d="M201.143,-54.8411C215.791,-58.7787 230.765,-62.8038 240.227,-65.3475"/>
<polygon fill="#bdbdbd" stroke="#bdbdbd" stroke-width="3" points="239.529,-68.7839 250.095,-68 241.346,-62.0239 239.529,-68.7839"/>
</g>
<!-- Valve 1 -->
<g id="node6" class="node"><title>Valve 1</title>
<polygon fill="none" stroke="none" stroke-width="2" points="57.5473,-86 3.54729,-86 3.54729,-50 57.5473,-50 57.5473,-86"/>
<text text-anchor="start" x="16.5473" y="-66.1" font-family="arial" font-size="8.00">Valve 1</text>
</g>
<!-- Valve 1&#45;&gt;Warehouse -->
<g id="edge5" class="edge"><title>Valve 1&#45;&gt;Warehouse</title>
<path fill="none" stroke="#bdbdbd" d="M57.7024,-59.6754C66.2709,-56.9482 75.7807,-53.9214 84.3209,-51.2032"/>
<polyline fill="none" stroke="#bdbdbd" points="110.095,-43 105.33,-44.5165 "/>
<polyline fill="none" stroke="#bdbdbd" points="105.33,-44.5165 100.566,-46.0329 "/>
<polyline fill="none" stroke="#bdbdbd" points="100.566,-46.0329 95.8011,-47.5494 "/>
<polygon fill="#bdbdbd" stroke="#bdbdbd" points="84.3663,-51.1889 88.8705,-45.5575 95.8011,-47.5494 91.2969,-53.1807 84.3663,-51.1889"/>
</g>
<!-- Tree -->
<g id="node7" class="node"><title>Tree</title>
<ellipse fill="#e5f5e0" stroke="#e5f5e0" stroke-width="2" cx="30.5473" cy="-18" rx="30.5947" ry="18"/>
<text text-anchor="start" x="15.0473" y="-14.3" font-family="arial" font-size="14.00">Tree</text>
</g>
<!-- Tree&#45;&gt;Warehouse -->
<g id="edge6" class="edge"><title>Tree&#45;&gt;Warehouse</title>
<path fill="none" stroke="#bdbdbd" stroke-width="3" d="M57.7024,-26.3246C72.3403,-30.9836 89.7252,-36.5168 100.33,-39.8922"/>
<polygon fill="#bdbdbd" stroke="#bdbdbd" stroke-width="3" points="99.5041,-43.3022 110.095,-43 101.627,-36.6319 99.5041,-43.3022"/>
</g>
</g>
</svg>
