<?xml version="1.0" encoding="UTF-8" standalone="no"?>
<!DOCTYPE svg PUBLIC "-//W3C//DTD SVG 1.1//EN"
 "http://www.w3.org/Graphics/SVG/1.1/DTD/svg11.dtd">
<!-- Generated by graphviz version 2.38.0 (20140413.2041)
 -->
<!-- Title: foo Pages: 1 -->
<svg width="287pt" height="114pt"
 viewBox="0.00 0.00 287.00 114.00" xmlns="http://www.w3.org/2000/svg" xmlns:xlink="http://www.w3.org/1999/xlink">
<g id="graph0" class="graph" transform="scale(1 1) rotate(0) translate(4 110)">
<title>foo</title>
<g id="a_graph0"><a xlink:title=" ">
<polygon fill="#c7e9c0" stroke="none" points="-4,4 -4,-110 283,-110 283,4 -4,4"/>
<text text-anchor="start" x="122.5" y="-7.2" font-family="tahoma" font-size="11.00" fill="#238b45">Clearer</text>
</a>
</g>
<!-- Intervention -->
<g id="node1" class="node"><title>Intervention</title>
<polygon fill="#f7fcf5" stroke="#f7fcf5" points="119.5,-106 29.5,-106 29.5,-70 119.5,-70 119.5,-106"/>
<text text-anchor="start" x="37.5" y="-84.3" font-family="Helvetica,sans-Serif" font-size="14.00" fill="#006d2c">Intervention</text>
</g>
<!-- Mortality -->
<g id="node2" class="node"><title>Mortality</title>
<polygon fill="#f7fcf5" stroke="#f7fcf5" points="279,-81 211,-81 211,-45 279,-45 279,-81"/>
<text text-anchor="start" x="219" y="-59.3" font-family="Helvetica,sans-Serif" font-size="14.00" fill="#006d2c">Mortality</text>
</g>
<!-- Intervention&#45;&gt;Mortality -->
<g id="edge1" class="edge"><title>Intervention&#45;&gt;Mortality</title>
<path fill="none" stroke="#41ab5d" stroke-width="2" d="M119.771,-81.4315C144.77,-77.7226 175.881,-73.1066 200.716,-69.4219"/>
<polygon fill="#41ab5d" stroke="#41ab5d" stroke-width="2" points="201.561,-72.835 210.939,-67.9052 200.534,-65.9108 201.561,-72.835"/>
<text text-anchor="start" x="174" y="-76.8" font-family="Helvetica,sans-Serif" font-size="14.00" fill="#cd5c5c">⇅</text>
</g>
<!-- Presence of bacteria -->
<g id="node3" class="node"><title>Presence of bacteria</title>
<polygon fill="#f7fcf5" stroke="#f7fcf5" points="149,-56 0,-56 0,-20 149,-20 149,-56"/>
<text text-anchor="start" x="8" y="-34.3" font-family="Helvetica,sans-Serif" font-size="14.00" fill="#006d2c">Presence of bacteria</text>
</g>
<!-- Presence of bacteria&#45;&gt;Mortality -->
<g id="edge2" class="edge"><title>Presence of bacteria&#45;&gt;Mortality</title>
<path fill="none" stroke="#41ab5d" stroke-width="2" d="M149.257,-47.6386C161.538,-49.3507 174.137,-51.1727 186,-53 190.797,-53.7389 195.811,-54.5478 200.795,-55.3754"/>
<polygon fill="#41ab5d" stroke="#41ab5d" stroke-width="2" points="200.465,-58.8691 210.908,-57.0839 201.631,-51.9669 200.465,-58.8691"/>
<text text-anchor="start" x="174" y="-56.8" font-family="Helvetica,sans-Serif" font-size="14.00" fill="#cd5c5c">⇈</text>
</g>
</g>
</svg>
