<?xml version="1.0" encoding="UTF-8" standalone="no"?>
<!DOCTYPE svg PUBLIC "-//W3C//DTD SVG 1.1//EN"
 "http://www.w3.org/Graphics/SVG/1.1/DTD/svg11.dtd">
<!-- Generated by graphviz version 2.38.0 (20140413.2041)
 -->
<!-- Title: foo Pages: 1 -->
<svg width="401pt" height="94pt"
 viewBox="0.00 0.00 401.00 94.00" xmlns="http://www.w3.org/2000/svg" xmlns:xlink="http://www.w3.org/1999/xlink">
<g id="graph0" class="graph" transform="scale(1 1) rotate(0) translate(4 90)">
<title>foo</title>
<g id="a_graph0"><a xlink:title=" ">
<polygon fill="white" stroke="none" points="-4,4 -4,-90 397,-90 397,4 -4,4"/>
</a>
</g>
<!-- resilience -->
<g id="node1" class="node"><title>resilience</title>
<polygon fill="#e5f5e0" stroke="#e5f5e0" stroke-width="2" points="288.5,-86 211.5,-86 211.5,-50 288.5,-50 288.5,-86"/>
<text text-anchor="start" x="219.5" y="-64.3" font-family="arial" font-size="14.00">resilience</text>
</g>
<!-- Goal -->
<g id="node2" class="node"><title>Goal</title>
<polygon fill="#e5f5e0" stroke="#e5f5e0" stroke-width="2" points="393,-61 339,-61 339,-25 393,-25 393,-61"/>
<text text-anchor="start" x="350.5" y="-39.3" font-family="arial" font-size="14.00">Goal</text>
</g>
<!-- resilience&#45;&gt;Goal -->
<g id="edge1" class="edge"><title>resilience&#45;&gt;Goal</title>
<path fill="none" stroke="#41ab5d" d="M288.644,-59.7448C301.642,-56.8943 316.164,-53.7096 329.026,-50.8891"/>
<polygon fill="#41ab5d" stroke="#41ab5d" points="329.905,-54.2795 338.923,-48.7186 328.406,-47.442 329.905,-54.2795"/>
</g>
<!-- autonomy -->
<g id="node3" class="node"><title>autonomy</title>
<polygon fill="#e5f5e0" stroke="#e5f5e0" stroke-width="2" points="289,-36 211,-36 211,-0 289,-0 289,-36"/>
<text text-anchor="start" x="219" y="-14.3" font-family="arial" font-size="14.00">autonomy</text>
</g>
<!-- autonomy&#45;&gt;Goal -->
<g id="edge2" class="edge"><title>autonomy&#45;&gt;Goal</title>
<path fill="none" stroke="#41ab5d" d="M289.277,-26.3942C302.012,-29.1869 316.149,-32.2871 328.728,-35.0455"/>
<polygon fill="#41ab5d" stroke="#41ab5d" points="328.344,-38.5445 338.862,-37.2679 329.844,-31.707 328.344,-38.5445"/>
</g>
<!-- health interventions -->
<g id="node4" class="node"><title>health interventions</title>
<polygon fill="#e5f5e0" stroke="#e5f5e0" stroke-width="2" points="149,-86 12,-86 12,-50 149,-50 149,-86"/>
<text text-anchor="start" x="20" y="-64.3" font-family="arial" font-size="14.00">health interventions</text>
</g>
<!-- health interventions&#45;&gt;resilience -->
<g id="edge3" class="edge"><title>health interventions&#45;&gt;resilience</title>
<path fill="none" stroke="#41ab5d" d="M149.146,-68C166.574,-68 184.97,-68 201.158,-68"/>
<polygon fill="#41ab5d" stroke="#41ab5d" points="201.444,-71.5001 211.444,-68 201.444,-64.5001 201.444,-71.5001"/>
</g>
<!-- health interventions&#45;&gt;autonomy -->
<g id="edge4" class="edge"><title>health interventions&#45;&gt;autonomy</title>
<path fill="none" stroke="#41ab5d" d="M141.971,-49.9489C161.353,-44.1634 182.541,-37.8385 200.913,-32.3542"/>
<polygon fill="#41ab5d" stroke="#41ab5d" points="201.939,-35.7009 210.52,-29.4867 199.936,-28.9934 201.939,-35.7009"/>
</g>
<!-- education interventions -->
<g id="node5" class="node"><title>education interventions</title>
<polygon fill="#e5f5e0" stroke="#e5f5e0" stroke-width="2" points="161,-36 0,-36 0,-0 161,-0 161,-36"/>
<text text-anchor="start" x="8" y="-14.3" font-family="arial" font-size="14.00">education interventions</text>
</g>
<!-- education interventions&#45;&gt;resilience -->
<g id="edge5" class="edge"><title>education interventions&#45;&gt;resilience</title>
<path fill="none" stroke="#41ab5d" d="M141.971,-36.0511C161.512,-41.8841 182.888,-48.2652 201.365,-53.7805"/>
<polygon fill="#41ab5d" stroke="#41ab5d" points="200.434,-57.1554 211.018,-56.662 202.437,-50.4478 200.434,-57.1554"/>
</g>
<!-- education interventions&#45;&gt;autonomy -->
<g id="edge6" class="edge"><title>education interventions&#45;&gt;autonomy</title>
<path fill="none" stroke="#41ab5d" d="M161.325,-18C174.755,-18 188.318,-18 200.632,-18"/>
<polygon fill="#41ab5d" stroke="#41ab5d" points="200.651,-21.5001 210.651,-18 200.651,-14.5001 200.651,-21.5001"/>
</g>
</g>
</svg>
