<?xml version="1.0" encoding="UTF-8" standalone="no"?>
<!DOCTYPE svg PUBLIC "-//W3C//DTD SVG 1.1//EN"
 "http://www.w3.org/Graphics/SVG/1.1/DTD/svg11.dtd">
<!-- Generated by graphviz version 2.38.0 (20140413.2041)
 -->
<!-- Title: foo Pages: 1 -->
<svg width="216pt" height="105pt"
 viewBox="0.00 0.00 216.00 105.00" xmlns="http://www.w3.org/2000/svg" xmlns:xlink="http://www.w3.org/1999/xlink">
<g id="graph0" class="graph" transform="scale(1 1) rotate(0) translate(4 101)">
<title>foo</title>
<g id="a_graph0"><a xlink:title=" ">
<polygon fill="white" stroke="none" points="-4,4 -4,-101 212,-101 212,4 -4,4"/>
</a>
</g>
<!-- Love -->
<g id="node1" class="node"><title>Love</title>
<polygon fill="#e5f5e0" stroke="#e5f5e0" stroke-width="2" points="56.5,-97 2.5,-97 2.5,-74 56.5,-74 56.5,-97"/>
<text text-anchor="start" x="13.5" y="-81.8" font-family="arial" font-size="14.00">Love</text>
</g>
<!-- Happiness !plus -->
<g id="node2" class="node"><title>Happiness !plus</title>
<polygon fill="#e5f5e0" stroke="#e5f5e0" stroke-width="2" points="208,-60 109,-60 109,-37 208,-37 208,-60"/>
<text text-anchor="start" x="117" y="-44.8" font-family="arial" font-size="14.00">Happiness ⊕</text>
</g>
<!-- Love&#45;&gt;Happiness !plus -->
<g id="edge1" class="edge"><title>Love&#45;&gt;Happiness !plus</title>
<path fill="none" stroke="#41ab5d" d="M56.5068,-77.9232C71.447,-73.5706 90.7013,-67.961 108.385,-62.8092"/>
<polygon fill="#41ab5d" stroke="#41ab5d" points="109.388,-66.1625 118.01,-60.005 107.43,-59.4419 109.388,-66.1625"/>
</g>
<!-- Money -->
<g id="node3" class="node"><title>Money</title>
<polygon fill="#e5f5e0" stroke="#e5f5e0" stroke-width="2" points="59,-60 0,-60 0,-37 59,-37 59,-60"/>
<text text-anchor="start" x="8" y="-44.8" font-family="arial" font-size="14.00">Money</text>
</g>
<!-- Money&#45;&gt;Happiness !plus -->
<g id="edge2" class="edge"><title>Money&#45;&gt;Happiness !plus</title>
<path fill="none" stroke="#41ab5d" d="M59.0013,-48.5C70.8299,-48.5 85.0147,-48.5 98.8867,-48.5"/>
<polygon fill="#41ab5d" stroke="#41ab5d" points="98.8943,-52.0001 108.894,-48.5 98.8942,-45.0001 98.8943,-52.0001"/>
</g>
<!-- Health -->
<g id="node4" class="node"><title>Health</title>
<polygon fill="#e5f5e0" stroke="#e5f5e0" stroke-width="2" points="57.5,-23 1.5,-23 1.5,-0 57.5,-0 57.5,-23"/>
<text text-anchor="start" x="9.5" y="-7.8" font-family="arial" font-size="14.00">Health</text>
</g>
<!-- Health&#45;&gt;Happiness !plus -->
<g id="edge3" class="edge"><title>Health&#45;&gt;Happiness !plus</title>
<path fill="none" stroke="#41ab5d" d="M57.7447,-19.4374C72.3671,-23.6975 90.8468,-29.0814 107.916,-34.0542"/>
<polygon fill="#41ab5d" stroke="#41ab5d" points="107.183,-37.4861 117.763,-36.923 109.141,-30.7655 107.183,-37.4861"/>
</g>
</g>
</svg>
