<?xml version="1.0" encoding="UTF-8" standalone="no"?>
<!DOCTYPE svg PUBLIC "-//W3C//DTD SVG 1.1//EN"
 "http://www.w3.org/Graphics/SVG/1.1/DTD/svg11.dtd">
<!-- Generated by graphviz version 2.38.0 (20140413.2041)
 -->
<!-- Title: foo Pages: 1 -->
<svg width="270pt" height="44pt"
 viewBox="0.00 0.00 270.00 44.00" xmlns="http://www.w3.org/2000/svg" xmlns:xlink="http://www.w3.org/1999/xlink">
<g id="graph0" class="graph" transform="scale(1 1) rotate(0) translate(4 40)">
<title>foo</title>
<g id="a_graph0"><a xlink:title=" ">
<polygon fill="white" stroke="none" points="-4,4 -4,-40 266,-40 266,4 -4,4"/>
</a>
</g>
<!-- Y -->
<g id="node1" class="node"><title>Y</title>
<polygon fill="#e5f5e0" stroke="#e5f5e0" stroke-width="2" points="158,-36 104,-36 104,-0 158,-0 158,-36"/>
<text text-anchor="start" x="126" y="-14.3" font-family="arial" font-size="14.00">Y</text>
</g>
<!-- Z -->
<g id="node2" class="node"><title>Z</title>
<polygon fill="#e5f5e0" stroke="#e5f5e0" stroke-width="2" points="262,-36 208,-36 208,-0 262,-0 262,-36"/>
<text text-anchor="start" x="230" y="-14.3" font-family="arial" font-size="14.00">Z</text>
</g>
<!-- Y&#45;&gt;Z -->
<g id="edge1" class="edge"><title>Y&#45;&gt;Z</title>
<path fill="none" stroke="#41ab5d" d="M158.003,-18C170.019,-18 184.494,-18 197.574,-18"/>
<polygon fill="#41ab5d" stroke="#41ab5d" points="197.69,-21.5001 207.69,-18 197.69,-14.5001 197.69,-21.5001"/>
</g>
<!-- X -->
<g id="node3" class="node"><title>X</title>
<polygon fill="#e5f5e0" stroke="#e5f5e0" stroke-width="2" points="54,-36 0,-36 0,-0 54,-0 54,-36"/>
<text text-anchor="start" x="22" y="-14.3" font-family="arial" font-size="14.00">X</text>
</g>
<!-- X&#45;&gt;Y -->
<g id="edge2" class="edge"><title>X&#45;&gt;Y</title>
<path fill="none" stroke="#41ab5d" d="M54.0028,-18C66.0187,-18 80.4941,-18 93.5735,-18"/>
<polygon fill="#41ab5d" stroke="#41ab5d" points="93.69,-21.5001 103.69,-18 93.69,-14.5001 93.69,-21.5001"/>
</g>
</g>
</svg>
