<?xml version="1.0" encoding="UTF-8" standalone="no"?>
<!DOCTYPE svg PUBLIC "-//W3C//DTD SVG 1.1//EN"
 "http://www.w3.org/Graphics/SVG/1.1/DTD/svg11.dtd">
<!-- Generated by graphviz version 2.38.0 (20140413.2041)
 -->
<!-- Title: foo Pages: 1 -->
<svg width="824pt" height="158pt"
 viewBox="0.00 0.00 824.00 158.26" xmlns="http://www.w3.org/2000/svg" xmlns:xlink="http://www.w3.org/1999/xlink">
<g id="graph0" class="graph" transform="scale(1 1) rotate(0) translate(4 154.257)">
<title>foo</title>
<g id="a_graph0"><a xlink:title=" ">
<polygon fill="white" stroke="none" points="-4,4 -4,-154.257 820,-154.257 820,4 -4,4"/>
</a>
</g>
<!-- c -->
<g id="node1" class="node"><title>c</title>
<polygon fill="#e5f5e0" stroke="#e5f5e0" stroke-width="2" points="315,-66.2571 107,-66.2571 107,-30.2571 315,-30.2571 315,-66.2571"/>
<text text-anchor="start" x="115" y="-44.5571" font-family="arial" font-size="14.00">Some intermediate outcome 1</text>
</g>
<!-- a -->
<g id="node2" class="node"><title>a</title>
<polygon fill="#e5f5e0" stroke="#e5f5e0" stroke-width="2" points="550,-120.257 401,-120.257 401,-84.2571 550,-84.2571 550,-120.257"/>
<text text-anchor="start" x="409" y="-106.057" font-family="arial" font-size="14.00">Official program goal</text>
<text text-anchor="start" x="440" y="-92.0571" font-family="arial" font-size="14.00">Officially: </text>
<text text-anchor="start" x="502" y="-92.0571" font-family="arial" font-size="14.00" fill="orange">♥</text>
</g>
<!-- c&#45;&gt;a -->
<g id="edge1" class="edge"><title>c&#45;&gt;a</title>
<path fill="none" stroke="#41ab5d" d="M299.774,-66.3134C329.105,-72.3473 361.702,-79.053 390.721,-85.0226"/>
<polygon fill="#41ab5d" stroke="#41ab5d" points="390.325,-88.5143 400.825,-87.1011 391.736,-81.6579 390.325,-88.5143"/>
</g>
<!-- b -->
<g id="node3" class="node"><title>b</title>
<polygon fill="#e5f5e0" stroke="#e5f5e0" stroke-width="2" points="585,-70.2571 366,-70.2571 366,-34.2571 585,-34.2571 585,-70.2571"/>
<text text-anchor="start" x="374" y="-48.5571" font-family="arial" font-size="14.00">Some other interesting outcome</text>
</g>
<!-- c&#45;&gt;b -->
<g id="edge2" class="edge"><title>c&#45;&gt;b</title>
<path fill="none" stroke="#41ab5d" d="M315.37,-49.8322C328.518,-50.0326 342.057,-50.2389 355.426,-50.4426"/>
<polygon fill="#41ab5d" stroke="#41ab5d" points="355.555,-53.9449 365.607,-50.5978 355.662,-46.9457 355.555,-53.9449"/>
</g>
<!-- Hypothetical values to be discussed !heart -->
<g id="node6" class="node"><title>Hypothetical values to be discussed !heart</title>
<polygon fill="none" stroke="#e5f5e0" stroke-width="2" stroke-dasharray="5,2" points="816,-93.2571 642,-93.2571 642,-57.2571 816,-57.2571 816,-93.2571"/>
<text text-anchor="start" x="650" y="-79.0571" font-family="arial" font-size="14.00">Hypothetical values to be</text>
<text text-anchor="start" x="689.5" y="-65.0571" font-family="arial" font-size="14.00">discussed </text>
<text text-anchor="start" x="759.5" y="-65.0571" font-family="arial" font-size="14.00" fill="orange">♥</text>
</g>
<!-- c&#45;&gt;Hypothetical values to be discussed !heart -->
<g id="edge9" class="edge"><title>c&#45;&gt;Hypothetical values to be discussed !heart</title>
<path fill="none" stroke="#41ab5d" stroke-dasharray="5,2" d="M274.364,-30.2439C302.156,-23.1113 335.451,-15.7803 366,-12.2571 462.692,-1.10568 489.754,7.79381 585,-12.2571 621.611,-19.9643 660.277,-37.6509 688.158,-52.328"/>
<polygon fill="#41ab5d" stroke="#41ab5d" points="686.715,-55.5259 697.182,-57.1714 690.026,-49.3582 686.715,-55.5259"/>
<text text-anchor="start" x="472" y="-16.0571" font-family="Times New Roman,serif" font-size="14.00">?</text>
</g>
<!-- a&#45;&gt;Hypothetical values to be discussed !heart -->
<g id="edge7" class="edge"><title>a&#45;&gt;Hypothetical values to be discussed !heart</title>
<path fill="none" stroke="#41ab5d" stroke-dasharray="5,2" d="M550.259,-94.3386C575.707,-91.6067 604.602,-88.5046 631.588,-85.6075"/>
<polygon fill="#41ab5d" stroke="#41ab5d" points="632.257,-89.0559 641.826,-84.5084 631.509,-82.0959 632.257,-89.0559"/>
<text text-anchor="start" x="610" y="-91.0571" font-family="Times New Roman,serif" font-size="14.00">?</text>
</g>
<!-- b&#45;&gt;Hypothetical values to be discussed !heart -->
<g id="edge8" class="edge"><title>b&#45;&gt;Hypothetical values to be discussed !heart</title>
<path fill="none" stroke="#41ab5d" stroke-dasharray="5,2" d="M585.078,-59.4902C595.869,-60.3575 606.653,-61.2834 617,-62.2571 621.817,-62.7104 626.749,-63.1987 631.728,-63.7109"/>
<polygon fill="#41ab5d" stroke="#41ab5d" points="631.679,-67.2251 641.991,-64.7924 632.413,-60.2637 631.679,-67.2251"/>
<text text-anchor="start" x="610" y="-66.0571" font-family="Times New Roman,serif" font-size="14.00">?</text>
</g>
<!-- d -->
<g id="node4" class="node"><title>d</title>
<polygon fill="#e5f5e0" stroke="#e5f5e0" stroke-width="2" points="315,-122.257 107,-122.257 107,-86.2571 315,-86.2571 315,-122.257"/>
<text text-anchor="start" x="115" y="-100.557" font-family="arial" font-size="14.00">Some intermediate outcome 2</text>
</g>
<!-- d&#45;&gt;a -->
<g id="edge3" class="edge"><title>d&#45;&gt;a</title>
<path fill="none" stroke="#41ab5d" d="M315.37,-103.469C340.352,-103.279 366.747,-103.078 390.704,-102.896"/>
<polygon fill="#41ab5d" stroke="#41ab5d" points="390.838,-106.395 400.811,-102.819 390.785,-99.3949 390.838,-106.395"/>
</g>
<!-- d&#45;&gt;b -->
<g id="edge4" class="edge"><title>d&#45;&gt;b</title>
<path fill="none" stroke="#41ab5d" d="M303.073,-86.2159C325.877,-81.6985 350.472,-76.8264 373.717,-72.2216"/>
<polygon fill="#41ab5d" stroke="#41ab5d" points="374.459,-75.6429 383.588,-70.2663 373.098,-68.7763 374.459,-75.6429"/>
</g>
<!-- d&#45;&gt;Hypothetical values to be discussed !heart -->
<g id="edge10" class="edge"><title>d&#45;&gt;Hypothetical values to be discussed !heart</title>
<path fill="none" stroke="#41ab5d" stroke-dasharray="5,2" d="M306.583,-122.274C382.398,-133.799 491.233,-143.777 585,-127.257 617.93,-121.456 653.256,-108.679 680.557,-97.2424"/>
<polygon fill="#41ab5d" stroke="#41ab5d" points="682.042,-100.414 689.862,-93.2668 679.291,-93.9772 682.042,-100.414"/>
<text text-anchor="start" x="472" y="-139.057" font-family="Times New Roman,serif" font-size="14.00">?</text>
</g>
<!-- Inputs -->
<g id="node5" class="node"><title>Inputs</title>
<polygon fill="#e5f5e0" stroke="#e5f5e0" stroke-width="2" points="56,-94.2571 3.55271e-015,-94.2571 3.55271e-015,-58.2571 56,-58.2571 56,-94.2571"/>
<text text-anchor="start" x="8" y="-72.5571" font-family="arial" font-size="14.00">Inputs</text>
</g>
<!-- Inputs&#45;&gt;c -->
<g id="edge5" class="edge"><title>Inputs&#45;&gt;c</title>
<path fill="none" stroke="#41ab5d" d="M56.0975,-72.0652C67.5851,-70.2881 81.8116,-68.0873 96.9363,-65.7476"/>
<polygon fill="#41ab5d" stroke="#41ab5d" points="97.6379,-69.1808 106.985,-64.1931 96.5677,-62.2631 97.6379,-69.1808"/>
</g>
<!-- Inputs&#45;&gt;d -->
<g id="edge6" class="edge"><title>Inputs&#45;&gt;d</title>
<path fill="none" stroke="#41ab5d" d="M56.0975,-80.449C67.5851,-82.226 81.8116,-84.4268 96.9363,-86.7665"/>
<polygon fill="#41ab5d" stroke="#41ab5d" points="96.5677,-90.2511 106.985,-88.3211 97.6379,-83.3334 96.5677,-90.2511"/>
</g>
</g>
</svg>
