<?xml version="1.0" encoding="UTF-8" standalone="no"?>
<!DOCTYPE svg PUBLIC "-//W3C//DTD SVG 1.1//EN"
 "http://www.w3.org/Graphics/SVG/1.1/DTD/svg11.dtd">
<!-- Generated by graphviz version 2.38.0 (20140413.2041)
 -->
<!-- Title: foo Pages: 1 -->
<svg width="485pt" height="215pt"
 viewBox="0.00 0.00 485.00 215.00" xmlns="http://www.w3.org/2000/svg" xmlns:xlink="http://www.w3.org/1999/xlink">
<g id="graph0" class="graph" transform="scale(1 1) rotate(0) translate(4 211)">
<title>foo</title>
<g id="a_graph0"><a xlink:title=" ">
<polygon fill="#c7e9c0" stroke="none" points="-4,4 -4,-211 481,-211 481,4 -4,4"/>
<text text-anchor="start" x="105.5" y="-7.2" font-family="tahoma" font-size="11.00" fill="#238b45">None of the Variables are expressed using Differences</text>
</a>
</g>
<!-- Output: student classwork scores -->
<g id="node1" class="node"><title>Output: student classwork scores</title>
<polygon fill="#fdd0a2" stroke="#fdd0a2" points="298,-132.5 172,-132.5 172,-94.5 298,-94.5 298,-132.5"/>
<text text-anchor="start" x="186.5" y="-117.3" font-family="Helvetica,sans-Serif" font-size="14.00" fill="#006d2c">Output: student</text>
<text text-anchor="start" x="180" y="-102.3" font-family="Helvetica,sans-Serif" font-size="14.00" fill="#006d2c">classwork scores</text>
</g>
<!-- Outcome: student exam results -->
<g id="node2" class="node"><title>Outcome: student exam results</title>
<polygon fill="#fd8d3c" stroke="#fd8d3c" points="477,-161.5 348,-161.5 348,-123.5 477,-123.5 477,-161.5"/>
<text text-anchor="start" x="356" y="-146.3" font-family="Helvetica,sans-Serif" font-size="14.00" fill="#006d2c">Outcome: student</text>
<text text-anchor="start" x="372" y="-131.3" font-family="Helvetica,sans-Serif" font-size="14.00" fill="#006d2c">exam results</text>
</g>
<!-- Output: student classwork scores&#45;&gt;Outcome: student exam results -->
<g id="edge1" class="edge"><title>Output: student classwork scores&#45;&gt;Outcome: student exam results</title>
<path fill="none" stroke="#41ab5d" stroke-width="2" d="M298.369,-123.806C311.166,-125.921 324.751,-128.165 337.901,-130.338"/>
<polygon fill="#41ab5d" stroke="#41ab5d" stroke-width="2" points="337.415,-133.805 347.852,-131.983 338.556,-126.899 337.415,-133.805"/>
</g>
<!-- Activity: student workshop 1 held (yes/no) -->
<g id="node3" class="node"><title>Activity: student workshop 1 held (yes/no)</title>
<polygon fill="#fff5eb" stroke="#fff5eb" points="121,-140 1,-140 1,-87 121,-87 121,-140"/>
<text text-anchor="start" x="11.5" y="-124.8" font-family="Helvetica,sans-Serif" font-size="14.00" fill="#006d2c">Activity: student</text>
<text text-anchor="start" x="9" y="-109.8" font-family="Helvetica,sans-Serif" font-size="14.00" fill="#006d2c">workshop 1 held</text>
<text text-anchor="start" x="35" y="-94.8" font-family="Helvetica,sans-Serif" font-size="14.00" fill="#006d2c">(yes/no)</text>
</g>
<!-- Activity: student workshop 1 held (yes/no)&#45;&gt;Output: student classwork scores -->
<g id="edge2" class="edge"><title>Activity: student workshop 1 held (yes/no)&#45;&gt;Output: student classwork scores</title>
<path fill="none" stroke="#41ab5d" stroke-width="2" d="M121.193,-113.5C134.202,-113.5 148.121,-113.5 161.583,-113.5"/>
<polygon fill="#41ab5d" stroke="#41ab5d" stroke-width="2" points="161.767,-117 171.767,-113.5 161.767,-110 161.767,-117"/>
</g>
<!-- Activity: students given laptops (yes/no) -->
<g id="node4" class="node"><title>Activity: students given laptops (yes/no)</title>
<polygon fill="#fff5eb" stroke="#fff5eb" points="122,-73 7.10543e-015,-73 7.10543e-015,-20 122,-20 122,-73"/>
<text text-anchor="start" x="8" y="-57.8" font-family="Helvetica,sans-Serif" font-size="14.00" fill="#006d2c">Activity: students</text>
<text text-anchor="start" x="18.5" y="-42.8" font-family="Helvetica,sans-Serif" font-size="14.00" fill="#006d2c">given laptops</text>
<text text-anchor="start" x="35" y="-27.8" font-family="Helvetica,sans-Serif" font-size="14.00" fill="#006d2c">(yes/no)</text>
</g>
<!-- Activity: students given laptops (yes/no)&#45;&gt;Output: student classwork scores -->
<g id="edge3" class="edge"><title>Activity: students given laptops (yes/no)&#45;&gt;Output: student classwork scores</title>
<path fill="none" stroke="#41ab5d" stroke-width="2" d="M122.157,-69.9333C139.486,-76.6834 158.357,-84.0345 175.579,-90.7429"/>
<polygon fill="#41ab5d" stroke="#41ab5d" stroke-width="2" points="174.368,-94.0273 184.956,-94.3958 176.909,-87.5047 174.368,-94.0273"/>
</g>
<!-- Output: student exam skills -->
<g id="node5" class="node"><title>Output: student exam skills</title>
<polygon fill="#fdd0a2" stroke="#fdd0a2" points="291.5,-191.5 178.5,-191.5 178.5,-153.5 291.5,-153.5 291.5,-191.5"/>
<text text-anchor="start" x="186.5" y="-176.3" font-family="Helvetica,sans-Serif" font-size="14.00" fill="#006d2c">Output: student</text>
<text text-anchor="start" x="200" y="-161.3" font-family="Helvetica,sans-Serif" font-size="14.00" fill="#006d2c">exam skills</text>
</g>
<!-- Output: student exam skills&#45;&gt;Outcome: student exam results -->
<g id="edge4" class="edge"><title>Output: student exam skills&#45;&gt;Outcome: student exam results</title>
<path fill="none" stroke="#41ab5d" stroke-width="2" d="M291.529,-163.008C306.192,-160.501 322.25,-157.756 337.713,-155.113"/>
<polygon fill="#41ab5d" stroke="#41ab5d" stroke-width="2" points="338.501,-158.529 347.768,-153.394 337.321,-151.629 338.501,-158.529"/>
</g>
<!-- Activity: student workshop 2 held (yes/no) -->
<g id="node6" class="node"><title>Activity: student workshop 2 held (yes/no)</title>
<polygon fill="#fff5eb" stroke="#fff5eb" points="121,-207 1,-207 1,-154 121,-154 121,-207"/>
<text text-anchor="start" x="11.5" y="-191.8" font-family="Helvetica,sans-Serif" font-size="14.00" fill="#006d2c">Activity: student</text>
<text text-anchor="start" x="9" y="-176.8" font-family="Helvetica,sans-Serif" font-size="14.00" fill="#006d2c">workshop 2 held</text>
<text text-anchor="start" x="35" y="-161.8" font-family="Helvetica,sans-Serif" font-size="14.00" fill="#006d2c">(yes/no)</text>
</g>
<!-- Activity: student workshop 2 held (yes/no)&#45;&gt;Output: student exam skills -->
<g id="edge5" class="edge"><title>Activity: student workshop 2 held (yes/no)&#45;&gt;Output: student exam skills</title>
<path fill="none" stroke="#41ab5d" stroke-width="2" d="M121.193,-177.747C136.418,-177.039 152.889,-176.273 168.417,-175.55"/>
<polygon fill="#41ab5d" stroke="#41ab5d" stroke-width="2" points="168.636,-179.044 178.463,-175.083 168.311,-172.052 168.636,-179.044"/>
</g>
</g>
</svg>
