<?xml version="1.0" encoding="UTF-8" standalone="no"?>
<!DOCTYPE svg PUBLIC "-//W3C//DTD SVG 1.1//EN"
 "http://www.w3.org/Graphics/SVG/1.1/DTD/svg11.dtd">
<!-- Generated by graphviz version 2.38.0 (20140413.2041)
 -->
<!-- Title: foo Pages: 1 -->
<svg width="832pt" height="215pt"
 viewBox="0.00 0.00 832.00 214.50" xmlns="http://www.w3.org/2000/svg" xmlns:xlink="http://www.w3.org/1999/xlink">
<g id="graph0" class="graph" transform="scale(1 1) rotate(0) translate(4 210.5)">
<title>foo</title>
<g id="a_graph0"><a xlink:title=" ">
<polygon fill="white" stroke="none" points="-4,4 -4,-210.5 828,-210.5 828,4 -4,4"/>
</a>
</g>
<g id="clust1" class="cluster"><title>cluster_Student</title>
<g id="a_clust1"><a xlink:title=" ">
<path fill="#fee0d2" stroke="#dadaeb" d="M20.8365,-91.5C20.8365,-91.5 310.531,-91.5 310.531,-91.5 316.531,-91.5 322.531,-97.5 322.531,-103.5 322.531,-103.5 322.531,-186.5 322.531,-186.5 322.531,-192.5 316.531,-198.5 310.531,-198.5 310.531,-198.5 20.8365,-198.5 20.8365,-198.5 14.8365,-198.5 8.83646,-192.5 8.83646,-186.5 8.83646,-186.5 8.83646,-103.5 8.83646,-103.5 8.83646,-97.5 14.8365,-91.5 20.8365,-91.5"/>
<text text-anchor="start" x="16.8365" y="-183.3" font-family="arial" font-size="14.00">Student</text>
</a>
</g>
</g>
<!-- pc -->
<g id="node1" class="node"><title>pc</title>
<polygon fill="#e5f5e0" stroke="#e5f5e0" stroke-width="2" points="486,-133 376,-133 376,-80 486,-80 486,-133"/>
<text text-anchor="start" x="384" y="-117.8" font-family="arial" font-size="14.00">Characteristics</text>
<text text-anchor="start" x="388.5" y="-102.8" font-family="arial" font-size="14.00">of completed</text>
<text text-anchor="start" x="400" y="-87.8" font-family="arial" font-size="14.00">project ֍</text>
</g>
<!-- c -->
<g id="node2" class="node"><title>c</title>
<polygon fill="#e5f5e0" stroke="#e5f5e0" stroke-width="2" points="819.5,-136.5 730.5,-136.5 730.5,-72.5 819.5,-72.5 819.5,-136.5"/>
<text text-anchor="start" x="747.5" y="-122.3" font-family="arial" font-size="14.00">Potential</text>
<text text-anchor="start" x="750.5" y="-108.3" font-family="arial" font-size="14.00">positive</text>
<text text-anchor="start" x="744" y="-94.3" font-family="arial" font-size="14.00">impact on</text>
<text text-anchor="start" x="738.5" y="-80.3" font-family="arial" font-size="14.00">society ◪ </text>
<text text-anchor="start" x="802.5" y="-80.3" font-family="arial" font-size="14.00" fill="orange">♥</text>
</g>
<!-- pc&#45;&gt;c -->
<g id="edge1" class="edge"><title>pc&#45;&gt;c</title>
<path fill="none" stroke="#41ab5d" d="M486.421,-108.149C533.465,-109.18 603.268,-109.767 664,-106.5 683.464,-105.453 706.115,-103.104 718.885,-101.676"/>
<polygon fill="#41ab5d" stroke="#41ab5d" points="719.471,-105.131 729,-100.5 718.663,-98.1782 719.471,-105.131"/>
<text text-anchor="middle" x="716.228" y="-104.667" font-family="Arial" font-size="14.00">⚡֍</text>
</g>
<!-- Level of innovation of project !lohi !heart -->
<g id="node3" class="node"><title>Level of innovation of project !lohi !heart</title>
<polygon fill="none" stroke="#e5f5e0" stroke-width="2" stroke-dasharray="5,2" points="664,-99.5 568,-99.5 568,-49.5 664,-49.5 664,-99.5"/>
<text text-anchor="start" x="590" y="-85.3" font-family="arial" font-size="14.00">Level of</text>
<text text-anchor="start" x="576" y="-71.3" font-family="arial" font-size="14.00">innovation of</text>
<text text-anchor="start" x="580" y="-57.3" font-family="arial" font-size="14.00">project ◪ </text>
<text text-anchor="start" x="643" y="-57.3" font-family="arial" font-size="14.00" fill="orange">♥</text>
</g>
<!-- pc&#45;&gt;Level of innovation of project !lohi !heart -->
<g id="edge3" class="edge"><title>pc&#45;&gt;Level of innovation of project !lohi !heart</title>
<path fill="none" stroke="#41ab5d" stroke-dasharray="5,2" d="M486.411,-96.9856C508.988,-93.0377 535.191,-88.4556 558.031,-84.4618"/>
<polygon fill="#41ab5d" stroke="#41ab5d" points="558.679,-87.9016 567.927,-82.7314 557.473,-81.0063 558.679,-87.9016"/>
<text text-anchor="start" x="519.5" y="-94.3" font-family="Arial" font-size="14.00">֍</text>
</g>
<!-- Level of innovation of project !lohi !heart&#45;&gt;c -->
<g id="edge2" class="edge"><title>Level of innovation of project !lohi !heart&#45;&gt;c</title>
<path fill="none" stroke="#41ab5d" d="M664.173,-85.451C684.5,-90.1696 706.417,-95.2576 718.849,-98.1436"/>
<polygon fill="#41ab5d" stroke="#41ab5d" points="718.468,-101.648 729,-100.5 720.051,-94.8293 718.468,-101.648"/>
</g>
<!-- sa -->
<g id="node4" class="node"><title>sa</title>
<polygon fill="#e5f5e0" stroke="#e5f5e0" stroke-width="2" points="130.5,-167.5 23.5,-167.5 23.5,-99.5 130.5,-99.5 130.5,-167.5"/>
<text text-anchor="start" x="52.5" y="-152.3" font-family="arial" font-size="14.00">Student</text>
<text text-anchor="start" x="31.5" y="-137.3" font-family="arial" font-size="14.00">characteristics</text>
<text text-anchor="start" x="55" y="-122.3" font-family="arial" font-size="14.00">(ability,</text>
<text text-anchor="start" x="33" y="-107.3" font-family="arial" font-size="14.00">personality) ▤</text>
</g>
<!-- sa&#45;&gt;pc -->
<g id="edge4" class="edge"><title>sa&#45;&gt;pc</title>
<path fill="none" stroke="#41ab5d" d="M130.623,-125.835C187.744,-118.165 282.039,-107.382 365.836,-106.551"/>
<polygon fill="#41ab5d" stroke="#41ab5d" points="366.018,-110.05 376,-106.5 365.982,-103.05 366.018,-110.05"/>
<text text-anchor="middle" x="362.437" y="-109.208" font-family="Arial" font-size="14.00">֍</text>
</g>
<!-- tg -->
<g id="node6" class="node"><title>tg</title>
<polygon fill="#e5f5e0" stroke="#e5f5e0" stroke-width="2" points="300.5,-83 205.5,-83 205.5,-0 300.5,-0 300.5,-83"/>
<text text-anchor="start" x="213.5" y="-67.8" font-family="arial" font-size="14.00">Expert gives</text>
<text text-anchor="start" x="229.5" y="-52.8" font-family="arial" font-size="14.00">tailored</text>
<text text-anchor="start" x="221" y="-37.8" font-family="arial" font-size="14.00">innovation</text>
<text text-anchor="start" x="221" y="-22.8" font-family="arial" font-size="14.00">support to</text>
<text text-anchor="start" x="229.5" y="-7.8" font-family="arial" font-size="14.00">student</text>
</g>
<!-- sa&#45;&gt;tg -->
<g id="edge7" class="edge"><title>sa&#45;&gt;tg</title>
<path fill="none" stroke="#41ab5d" d="M130.678,-105.647C151.508,-94.6336 175.464,-81.9671 196.558,-70.8142"/>
<polygon fill="#41ab5d" stroke="#41ab5d" points="198.201,-73.9047 205.405,-66.1364 194.929,-67.7165 198.201,-73.9047"/>
<text text-anchor="middle" x="196.35" y="-74.3949" font-family="Arial" font-size="14.00">֍</text>
</g>
<!-- se -->
<g id="node5" class="node"><title>se</title>
<polygon fill="#e5f5e0" stroke="#e5f5e0" stroke-width="2" points="308,-166.5 198,-166.5 198,-128.5 308,-128.5 308,-166.5"/>
<text text-anchor="start" x="206" y="-151.3" font-family="arial" font-size="14.00">Effort made by</text>
<text text-anchor="start" x="222" y="-136.3" font-family="arial" font-size="14.00">student ◪</text>
</g>
<!-- se&#45;&gt;pc -->
<g id="edge5" class="edge"><title>se&#45;&gt;pc</title>
<path fill="none" stroke="#41ab5d" d="M308.371,-129.326C319.671,-125.477 331.489,-121.398 342.5,-117.5 350.324,-114.73 359.157,-111.459 365.638,-109.033"/>
<polygon fill="#41ab5d" stroke="#41ab5d" points="366.88,-112.305 375,-105.5 364.408,-105.756 366.88,-112.305"/>
</g>
<!-- tg&#45;&gt;pc -->
<g id="edge6" class="edge"><title>tg&#45;&gt;pc</title>
<path fill="none" stroke="#41ab5d" d="M300.782,-66.2441C324.989,-79.0478 352.289,-93.4874 366.049,-100.765"/>
<polygon fill="#41ab5d" stroke="#41ab5d" points="364.524,-103.918 375,-105.5 367.797,-97.7305 364.524,-103.918"/>
</g>
</g>
</svg>
