<?xml version="1.0" encoding="UTF-8" standalone="no"?>
<!DOCTYPE svg PUBLIC "-//W3C//DTD SVG 1.1//EN"
 "http://www.w3.org/Graphics/SVG/1.1/DTD/svg11.dtd">
<!-- Generated by graphviz version 2.38.0 (20140413.2041)
 -->
<!-- Title: foo Pages: 1 -->
<svg width="460pt" height="246pt"
 viewBox="0.00 0.00 460.00 245.50" xmlns="http://www.w3.org/2000/svg" xmlns:xlink="http://www.w3.org/1999/xlink">
<g id="graph0" class="graph" transform="scale(1 1) rotate(0) translate(4 241.5)">
<title>foo</title>
<g id="a_graph0"><a xlink:title=" ">
<polygon fill="#d9d9d9" stroke="none" points="-4,4 -4,-241.5 456,-241.5 456,4 -4,4"/>
<text text-anchor="start" x="134" y="-7.2" font-family="tahoma" font-size="11.00" fill="#525252">You don&#39;t have to stick to this format</text>
</a>
</g>
<!-- Output: (in six months) improved student classwork -->
<g id="node1" class="node"><title>Output: (in six months) improved student classwork</title>
<polygon fill="#fdd0a2" stroke="#fdd0a2" points="286.5,-155.5 160.5,-155.5 160.5,-87.5 286.5,-87.5 286.5,-155.5"/>
<text text-anchor="start" x="191" y="-140.3" font-family="Helvetica,sans-Serif" font-size="14.00">Output: (in</text>
<text text-anchor="start" x="187" y="-125.3" font-family="Helvetica,sans-Serif" font-size="14.00">six months)</text>
<text text-anchor="start" x="168.5" y="-110.3" font-family="Helvetica,sans-Serif" font-size="14.00">improved student</text>
<text text-anchor="start" x="192" y="-95.3" font-family="Helvetica,sans-Serif" font-size="14.00">classwork</text>
</g>
<!-- Outcome: (next year) improved student exam results -->
<g id="node2" class="node"><title>Outcome: (next year) improved student exam results</title>
<polygon fill="#fd8d3c" stroke="#fd8d3c" points="452,-196.5 339,-196.5 339,-128.5 452,-128.5 452,-196.5"/>
<text text-anchor="start" x="347" y="-181.3" font-family="Helvetica,sans-Serif" font-size="14.00">Outcome: (next</text>
<text text-anchor="start" x="348" y="-166.3" font-family="Helvetica,sans-Serif" font-size="14.00">year) improved</text>
<text text-anchor="start" x="353" y="-151.3" font-family="Helvetica,sans-Serif" font-size="14.00">student exam</text>
<text text-anchor="start" x="374" y="-136.3" font-family="Helvetica,sans-Serif" font-size="14.00">results</text>
</g>
<!-- Output: (in six months) improved student classwork&#45;&gt;Outcome: (next year) improved student exam results -->
<g id="edge1" class="edge"><title>Output: (in six months) improved student classwork&#45;&gt;Outcome: (next year) improved student exam results</title>
<path fill="none" stroke="#737373" stroke-width="2" d="M286.836,-136.534C300.562,-139.844 315.138,-143.36 328.985,-146.699"/>
<polygon fill="#737373" stroke="#737373" stroke-width="2" points="328.375,-150.152 338.917,-149.095 330.016,-143.348 328.375,-150.152"/>
</g>
<!-- Activity: student //workshop 1 held -->
<g id="node3" class="node"><title>Activity: student //workshop 1 held</title>
<polygon fill="#fff5eb" stroke="#fff5eb" points="92.5,-155.5 15.5,-155.5 15.5,-87.5 92.5,-87.5 92.5,-155.5"/>
<text text-anchor="start" x="29.5" y="-140.3" font-family="Helvetica,sans-Serif" font-size="14.00">Activity:</text>
<text text-anchor="start" x="28.5" y="-125.3" font-family="Helvetica,sans-Serif" font-size="14.00">student </text>
<text text-anchor="start" x="23.5" y="-110.3" font-family="Helvetica,sans-Serif" font-size="14.00">workshop</text>
<text text-anchor="start" x="34" y="-95.3" font-family="Helvetica,sans-Serif" font-size="14.00">1 held</text>
</g>
<!-- Activity: student //workshop 1 held&#45;&gt;Output: (in six months) improved student classwork -->
<g id="edge2" class="edge"><title>Activity: student //workshop 1 held&#45;&gt;Output: (in six months) improved student classwork</title>
<path fill="none" stroke="#737373" stroke-width="2" d="M92.5903,-121.5C109.593,-121.5 130.286,-121.5 150.114,-121.5"/>
<polygon fill="#737373" stroke="#737373" stroke-width="2" points="150.379,-125 160.379,-121.5 150.379,-118 150.379,-125"/>
</g>
<!-- Activity: students given laptops -->
<g id="node4" class="node"><title>Activity: students given laptops</title>
<polygon fill="#fff5eb" stroke="#fff5eb" points="108,-73 0,-73 0,-20 108,-20 108,-73"/>
<text text-anchor="start" x="29.5" y="-57.8" font-family="Helvetica,sans-Serif" font-size="14.00">Activity:</text>
<text text-anchor="start" x="8" y="-42.8" font-family="Helvetica,sans-Serif" font-size="14.00">students given</text>
<text text-anchor="start" x="30.5" y="-27.8" font-family="Helvetica,sans-Serif" font-size="14.00">laptops</text>
</g>
<!-- Activity: students given laptops&#45;&gt;Output: (in six months) improved student classwork -->
<g id="edge3" class="edge"><title>Activity: students given laptops&#45;&gt;Output: (in six months) improved student classwork</title>
<path fill="none" stroke="#737373" stroke-width="2" d="M108.459,-70.4367C121.967,-76.4853 136.691,-83.0781 150.934,-89.4557"/>
<polygon fill="#737373" stroke="#737373" stroke-width="2" points="149.65,-92.7154 160.207,-93.6077 152.511,-86.3266 149.65,-92.7154"/>
</g>
<!-- Output: (in six months) improved student exam skills -->
<g id="node5" class="node"><title>Output: (in six months) improved student exam skills</title>
<polygon fill="#fdd0a2" stroke="#fdd0a2" points="289,-237.5 158,-237.5 158,-169.5 289,-169.5 289,-237.5"/>
<text text-anchor="start" x="180.5" y="-222.3" font-family="Helvetica,sans-Serif" font-size="14.00">Output: (in six</text>
<text text-anchor="start" x="166" y="-207.3" font-family="Helvetica,sans-Serif" font-size="14.00">months) improved</text>
<text text-anchor="start" x="181" y="-192.3" font-family="Helvetica,sans-Serif" font-size="14.00">student exam</text>
<text text-anchor="start" x="208" y="-177.3" font-family="Helvetica,sans-Serif" font-size="14.00">skills</text>
</g>
<!-- Output: (in six months) improved student exam skills&#45;&gt;Outcome: (next year) improved student exam results -->
<g id="edge4" class="edge"><title>Output: (in six months) improved student exam skills&#45;&gt;Outcome: (next year) improved student exam results</title>
<path fill="none" stroke="#737373" stroke-width="2" d="M289.255,-187.883C302.265,-184.745 315.947,-181.445 328.983,-178.301"/>
<polygon fill="#737373" stroke="#737373" stroke-width="2" points="329.904,-181.68 338.804,-175.932 328.262,-174.875 329.904,-181.68"/>
</g>
<!-- Activity: student //workshop 2 held -->
<g id="node6" class="node"><title>Activity: student //workshop 2 held</title>
<polygon fill="#fff5eb" stroke="#fff5eb" points="92.5,-237.5 15.5,-237.5 15.5,-169.5 92.5,-169.5 92.5,-237.5"/>
<text text-anchor="start" x="29.5" y="-222.3" font-family="Helvetica,sans-Serif" font-size="14.00">Activity:</text>
<text text-anchor="start" x="28.5" y="-207.3" font-family="Helvetica,sans-Serif" font-size="14.00">student </text>
<text text-anchor="start" x="23.5" y="-192.3" font-family="Helvetica,sans-Serif" font-size="14.00">workshop</text>
<text text-anchor="start" x="34" y="-177.3" font-family="Helvetica,sans-Serif" font-size="14.00">2 held</text>
</g>
<!-- Activity: student //workshop 2 held&#45;&gt;Output: (in six months) improved student exam skills -->
<g id="edge5" class="edge"><title>Activity: student //workshop 2 held&#45;&gt;Output: (in six months) improved student exam skills</title>
<path fill="none" stroke="#737373" stroke-width="2" d="M92.5903,-203.5C108.861,-203.5 128.511,-203.5 147.548,-203.5"/>
<polygon fill="#737373" stroke="#737373" stroke-width="2" points="147.73,-207 157.73,-203.5 147.73,-200 147.73,-207"/>
</g>
</g>
</svg>
