<?xml version="1.0" encoding="UTF-8" standalone="no"?>
<!DOCTYPE svg PUBLIC "-//W3C//DTD SVG 1.1//EN"
 "http://www.w3.org/Graphics/SVG/1.1/DTD/svg11.dtd">
<!-- Generated by graphviz version 2.38.0 (20140413.2041)
 -->
<!-- Title: foo Pages: 1 -->
<svg width="333pt" height="64pt"
 viewBox="0.00 0.00 333.00 64.00" xmlns="http://www.w3.org/2000/svg" xmlns:xlink="http://www.w3.org/1999/xlink">
<g id="graph0" class="graph" transform="scale(1 1) rotate(0) translate(4 60)">
<title>foo</title>
<g id="a_graph0"><a xlink:title=" ">
<polygon fill="#d9d9d9" stroke="none" points="-4,4 -4,-60 329,-60 329,4 -4,4"/>
<text text-anchor="start" x="120" y="-7.2" font-family="tahoma" font-size="11.00" fill="#525252">not good practice</text>
</a>
</g>
<!-- Strength of the wind -->
<g id="node1" class="node"><title>Strength of the wind</title>
<polygon fill="#fee6ce" stroke="#fee6ce" points="142,-56 0,-56 0,-20 142,-20 142,-56"/>
<text text-anchor="start" x="8" y="-34.3" font-family="Helvetica,sans-Serif" font-size="14.00">Strength of the wind</text>
</g>
<!-- How warm it feels -->
<g id="node2" class="node"><title>How warm it feels</title>
<polygon fill="#fee6ce" stroke="#fee6ce" points="325,-56 197,-56 197,-20 325,-20 325,-56"/>
<text text-anchor="start" x="205" y="-34.3" font-family="Helvetica,sans-Serif" font-size="14.00">How warm it feels</text>
</g>
<!-- Strength of the wind&#45;&gt;How warm it feels -->
<g id="edge1" class="edge"><title>Strength of the wind&#45;&gt;How warm it feels</title>
<path fill="none" stroke="#737373" stroke-width="2" d="M142.004,-38C156.594,-38 172.01,-38 186.714,-38"/>
<polygon fill="#737373" stroke="#737373" stroke-width="2" points="186.761,-41.5001 196.761,-38 186.761,-34.5001 186.761,-41.5001"/>
<text text-anchor="start" x="167" y="-41.8" font-family="Helvetica,sans-Serif" font-size="14.00" fill="#cd5c5c">&#45;</text>
</g>
</g>
</svg>
