<?xml version="1.0" encoding="UTF-8" standalone="no"?>
<!DOCTYPE svg PUBLIC "-//W3C//DTD SVG 1.1//EN"
 "http://www.w3.org/Graphics/SVG/1.1/DTD/svg11.dtd">
<!-- Generated by graphviz version 2.38.0 (20140413.2041)
 -->
<!-- Title: foo Pages: 1 -->
<svg width="505pt" height="215pt"
 viewBox="0.00 0.00 505.00 215.00" xmlns="http://www.w3.org/2000/svg" xmlns:xlink="http://www.w3.org/1999/xlink">
<g id="graph0" class="graph" transform="scale(1 1) rotate(0) translate(4 211)">
<title>foo</title>
<g id="a_graph0"><a xlink:title=" ">
<polygon fill="#d9d9d9" stroke="none" points="-4,4 -4,-211 501,-211 501,4 -4,4"/>
<text text-anchor="start" x="156.5" y="-7.2" font-family="tahoma" font-size="11.00" fill="#525252">You don&#39;t have to stick to this format</text>
</a>
</g>
<!-- Output: (Feb&#45;May) improved student classwork -->
<g id="node1" class="node"><title>Output: (Feb&#45;May) improved student classwork</title>
<polygon fill="#fdd0a2" stroke="#fdd0a2" points="321,-140 190,-140 190,-87 321,-87 321,-140"/>
<text text-anchor="start" x="198" y="-124.8" font-family="Helvetica,sans-Serif" font-size="14.00">Output: (Feb&#45;May)</text>
<text text-anchor="start" x="200.5" y="-109.8" font-family="Helvetica,sans-Serif" font-size="14.00">improved student</text>
<text text-anchor="start" x="224" y="-94.8" font-family="Helvetica,sans-Serif" font-size="14.00">classwork</text>
</g>
<!-- Outcome: (June) improved student exam results -->
<g id="node2" class="node"><title>Outcome: (June) improved student exam results</title>
<polygon fill="#fd8d3c" stroke="#fd8d3c" points="497,-173 371,-173 371,-120 497,-120 497,-173"/>
<text text-anchor="start" x="381" y="-157.8" font-family="Helvetica,sans-Serif" font-size="14.00">Outcome: (June)</text>
<text text-anchor="start" x="379" y="-142.8" font-family="Helvetica,sans-Serif" font-size="14.00">improved student</text>
<text text-anchor="start" x="393.5" y="-127.8" font-family="Helvetica,sans-Serif" font-size="14.00">exam results</text>
</g>
<!-- Output: (Feb&#45;May) improved student classwork&#45;&gt;Outcome: (June) improved student exam results -->
<g id="edge1" class="edge"><title>Output: (Feb&#45;May) improved student classwork&#45;&gt;Outcome: (June) improved student exam results</title>
<path fill="none" stroke="#737373" stroke-width="2" d="M321.22,-125.601C334.156,-128.019 347.82,-130.574 360.984,-133.035"/>
<polygon fill="#737373" stroke="#737373" stroke-width="2" points="360.461,-136.498 370.934,-134.896 361.747,-129.617 360.461,-136.498"/>
</g>
<!-- Activity (January): student workshop 1 held -->
<g id="node3" class="node"><title>Activity (January): student workshop 1 held</title>
<polygon fill="#fff5eb" stroke="#fff5eb" points="140,-140 0,-140 0,-87 140,-87 140,-140"/>
<text text-anchor="start" x="15" y="-124.8" font-family="Helvetica,sans-Serif" font-size="14.00">Activity (January):</text>
<text text-anchor="start" x="8" y="-109.8" font-family="Helvetica,sans-Serif" font-size="14.00">student workshop 1</text>
<text text-anchor="start" x="56" y="-94.8" font-family="Helvetica,sans-Serif" font-size="14.00">held</text>
</g>
<!-- Activity (January): student workshop 1 held&#45;&gt;Output: (Feb&#45;May) improved student classwork -->
<g id="edge2" class="edge"><title>Activity (January): student workshop 1 held&#45;&gt;Output: (Feb&#45;May) improved student classwork</title>
<path fill="none" stroke="#737373" stroke-width="2" d="M140.112,-113.5C153.019,-113.5 166.563,-113.5 179.633,-113.5"/>
<polygon fill="#737373" stroke="#737373" stroke-width="2" points="179.993,-117 189.993,-113.5 179.993,-110 179.993,-117"/>
</g>
<!-- Activity (January): students given laptops -->
<g id="node4" class="node"><title>Activity (January): students given laptops</title>
<polygon fill="#fff5eb" stroke="#fff5eb" points="133,-73 7,-73 7,-20 133,-20 133,-73"/>
<text text-anchor="start" x="15" y="-57.8" font-family="Helvetica,sans-Serif" font-size="14.00">Activity (January):</text>
<text text-anchor="start" x="24" y="-42.8" font-family="Helvetica,sans-Serif" font-size="14.00">students given</text>
<text text-anchor="start" x="46.5" y="-27.8" font-family="Helvetica,sans-Serif" font-size="14.00">laptops</text>
</g>
<!-- Activity (January): students given laptops&#45;&gt;Output: (Feb&#45;May) improved student classwork -->
<g id="edge3" class="edge"><title>Activity (January): students given laptops&#45;&gt;Output: (Feb&#45;May) improved student classwork</title>
<path fill="none" stroke="#737373" stroke-width="2" d="M133.125,-69.1831C148.279,-74.7163 164.641,-80.6905 180.295,-86.4062"/>
<polygon fill="#737373" stroke="#737373" stroke-width="2" points="179.34,-89.7833 189.934,-89.9254 181.741,-83.2079 179.34,-89.7833"/>
</g>
<!-- Output: (Feb&#45;May) improved student exam skills -->
<g id="node5" class="node"><title>Output: (Feb&#45;May) improved student exam skills</title>
<polygon fill="#fdd0a2" stroke="#fdd0a2" points="321,-207 190,-207 190,-154 321,-154 321,-207"/>
<text text-anchor="start" x="198" y="-191.8" font-family="Helvetica,sans-Serif" font-size="14.00">Output: (Feb&#45;May)</text>
<text text-anchor="start" x="200.5" y="-176.8" font-family="Helvetica,sans-Serif" font-size="14.00">improved student</text>
<text text-anchor="start" x="220.5" y="-161.8" font-family="Helvetica,sans-Serif" font-size="14.00">exam skills</text>
</g>
<!-- Output: (Feb&#45;May) improved student exam skills&#45;&gt;Outcome: (June) improved student exam results -->
<g id="edge4" class="edge"><title>Output: (Feb&#45;May) improved student exam skills&#45;&gt;Outcome: (June) improved student exam results</title>
<path fill="none" stroke="#737373" stroke-width="2" d="M321.22,-168.033C334.156,-165.541 347.82,-162.909 360.984,-160.373"/>
<polygon fill="#737373" stroke="#737373" stroke-width="2" points="361.776,-163.785 370.934,-158.456 360.452,-156.911 361.776,-163.785"/>
</g>
<!-- Activity (February): student workshop 2 held -->
<g id="node6" class="node"><title>Activity (February): student workshop 2 held</title>
<polygon fill="#fff5eb" stroke="#fff5eb" points="140,-207 0,-207 0,-154 140,-154 140,-207"/>
<text text-anchor="start" x="11" y="-191.8" font-family="Helvetica,sans-Serif" font-size="14.00">Activity (February):</text>
<text text-anchor="start" x="8" y="-176.8" font-family="Helvetica,sans-Serif" font-size="14.00">student workshop 2</text>
<text text-anchor="start" x="56" y="-161.8" font-family="Helvetica,sans-Serif" font-size="14.00">held</text>
</g>
<!-- Activity (February): student workshop 2 held&#45;&gt;Output: (Feb&#45;May) improved student exam skills -->
<g id="edge5" class="edge"><title>Activity (February): student workshop 2 held&#45;&gt;Output: (Feb&#45;May) improved student exam skills</title>
<path fill="none" stroke="#737373" stroke-width="2" d="M140.112,-180.5C153.019,-180.5 166.563,-180.5 179.633,-180.5"/>
<polygon fill="#737373" stroke="#737373" stroke-width="2" points="179.993,-184 189.993,-180.5 179.993,-177 179.993,-184"/>
</g>
</g>
</svg>
