<?xml version="1.0" encoding="UTF-8" standalone="no"?>
<!DOCTYPE svg PUBLIC "-//W3C//DTD SVG 1.1//EN"
 "http://www.w3.org/Graphics/SVG/1.1/DTD/svg11.dtd">
<!-- Generated by graphviz version 2.38.0 (20140413.2041)
 -->
<!-- Title: foo Pages: 1 -->
<svg width="546pt" height="148pt"
 viewBox="0.00 0.00 546.00 148.00" xmlns="http://www.w3.org/2000/svg" xmlns:xlink="http://www.w3.org/1999/xlink">
<g id="graph0" class="graph" transform="scale(1 1) rotate(0) translate(4 144)">
<title>foo</title>
<g id="a_graph0"><a xlink:title=" ">
<polygon fill="#d9d9d9" stroke="none" points="-4,4 -4,-144 542,-144 542,4 -4,4"/>
<text text-anchor="start" x="177" y="-7.2" font-family="tahoma" font-size="11.00" fill="#525252">You don&#39;t have to stick to this format</text>
</a>
</g>
<!-- improved student exam results -->
<g id="node1" class="node"><title>improved student exam results</title>
<polygon fill="#fee6ce" stroke="#fee6ce" points="393,-106 292,-106 292,-53 393,-53 393,-106"/>
<text text-anchor="start" x="312.5" y="-90.8" font-family="Helvetica,sans-Serif" font-size="14.00">improved</text>
<text text-anchor="start" x="300" y="-75.8" font-family="Helvetica,sans-Serif" font-size="14.00">student exam</text>
<text text-anchor="start" x="321" y="-60.8" font-family="Helvetica,sans-Serif" font-size="14.00">results</text>
</g>
<!-- improved student employment prospects//!heart -->
<g id="node2" class="node"><title>improved student employment prospects//!heart</title>
<polygon fill="#fee6ce" stroke="#fee6ce" points="538,-121 443,-121 443,-38 538,-38 538,-121"/>
<text text-anchor="start" x="460.5" y="-105.8" font-family="Helvetica,sans-Serif" font-size="14.00">improved</text>
<text text-anchor="start" x="467" y="-90.8" font-family="Helvetica,sans-Serif" font-size="14.00">student</text>
<text text-anchor="start" x="451" y="-75.8" font-family="Helvetica,sans-Serif" font-size="14.00">employment</text>
<text text-anchor="start" x="458.5" y="-60.8" font-family="Helvetica,sans-Serif" font-size="14.00">prospects</text>
<text text-anchor="start" x="486" y="-45.8" font-family="Helvetica,sans-Serif" font-size="14.00" fill="orange">♥</text>
</g>
<!-- improved student exam results&#45;&gt;improved student employment prospects//!heart -->
<g id="edge1" class="edge"><title>improved student exam results&#45;&gt;improved student employment prospects//!heart</title>
<path fill="none" stroke="#737373" stroke-width="2" d="M393.337,-79.5C405.982,-79.5 419.662,-79.5 432.627,-79.5"/>
<polygon fill="#737373" stroke="#737373" stroke-width="2" points="432.839,-83.0001 442.839,-79.5 432.839,-76.0001 432.839,-83.0001"/>
</g>
<!-- improved student self&#45;confidence -->
<g id="node3" class="node"><title>improved student self&#45;confidence</title>
<polygon fill="#fee6ce" stroke="#fee6ce" points="242,-140 127,-140 127,-87 242,-87 242,-140"/>
<text text-anchor="start" x="154.5" y="-124.8" font-family="Helvetica,sans-Serif" font-size="14.00">improved</text>
<text text-anchor="start" x="161" y="-109.8" font-family="Helvetica,sans-Serif" font-size="14.00">student</text>
<text text-anchor="start" x="135" y="-94.8" font-family="Helvetica,sans-Serif" font-size="14.00">self&#45;confidence</text>
</g>
<!-- improved student self&#45;confidence&#45;&gt;improved student exam results -->
<g id="edge2" class="edge"><title>improved student self&#45;confidence&#45;&gt;improved student exam results</title>
<path fill="none" stroke="#737373" stroke-width="2" d="M242.261,-101.129C255.243,-98.2997 269.074,-95.2851 282.161,-92.4328"/>
<polygon fill="#737373" stroke="#737373" stroke-width="2" points="282.972,-95.8383 291.997,-90.289 281.481,-88.9989 282.972,-95.8383"/>
</g>
<!-- students attend workshop -->
<g id="node4" class="node"><title>students attend workshop</title>
<polygon fill="#fee6ce" stroke="#fee6ce" points="77,-140 0,-140 0,-87 77,-87 77,-140"/>
<text text-anchor="start" x="11" y="-124.8" font-family="Helvetica,sans-Serif" font-size="14.00">students</text>
<text text-anchor="start" x="18.5" y="-109.8" font-family="Helvetica,sans-Serif" font-size="14.00">attend</text>
<text text-anchor="start" x="8" y="-94.8" font-family="Helvetica,sans-Serif" font-size="14.00">workshop</text>
</g>
<!-- students attend workshop&#45;&gt;improved student self&#45;confidence -->
<g id="edge3" class="edge"><title>students attend workshop&#45;&gt;improved student self&#45;confidence</title>
<path fill="none" stroke="#737373" stroke-width="2" d="M77.3343,-113.5C89.4197,-113.5 103.177,-113.5 116.689,-113.5"/>
<polygon fill="#737373" stroke="#737373" stroke-width="2" points="116.943,-117 126.943,-113.5 116.943,-110 116.943,-117"/>
</g>
<!-- improved teacher skills -->
<g id="node5" class="node"><title>improved teacher skills</title>
<polygon fill="#fee6ce" stroke="#fee6ce" points="222.5,-73 146.5,-73 146.5,-20 222.5,-20 222.5,-73"/>
<text text-anchor="start" x="154.5" y="-57.8" font-family="Helvetica,sans-Serif" font-size="14.00">improved</text>
<text text-anchor="start" x="160.5" y="-42.8" font-family="Helvetica,sans-Serif" font-size="14.00">teacher</text>
<text text-anchor="start" x="169" y="-27.8" font-family="Helvetica,sans-Serif" font-size="14.00">skills</text>
</g>
<!-- improved teacher skills&#45;&gt;improved student exam results -->
<g id="edge4" class="edge"><title>improved teacher skills&#45;&gt;improved student exam results</title>
<path fill="none" stroke="#737373" stroke-width="2" d="M222.866,-54.4043C240.524,-58.1398 262.038,-62.6907 281.871,-66.8862"/>
<polygon fill="#737373" stroke="#737373" stroke-width="2" points="281.245,-70.3311 291.753,-68.9766 282.694,-63.4827 281.245,-70.3311"/>
</g>
<!-- teachers attend workshop -->
<g id="node6" class="node"><title>teachers attend workshop</title>
<polygon fill="#fee6ce" stroke="#fee6ce" points="77,-73 0,-73 0,-20 77,-20 77,-73"/>
<text text-anchor="start" x="11" y="-57.8" font-family="Helvetica,sans-Serif" font-size="14.00">teachers</text>
<text text-anchor="start" x="18.5" y="-42.8" font-family="Helvetica,sans-Serif" font-size="14.00">attend</text>
<text text-anchor="start" x="8" y="-27.8" font-family="Helvetica,sans-Serif" font-size="14.00">workshop</text>
</g>
<!-- teachers attend workshop&#45;&gt;improved teacher skills -->
<g id="edge5" class="edge"><title>teachers attend workshop&#45;&gt;improved teacher skills</title>
<path fill="none" stroke="#737373" stroke-width="2" d="M77.3343,-46.5C95.4168,-46.5 117.242,-46.5 136.39,-46.5"/>
<polygon fill="#737373" stroke="#737373" stroke-width="2" points="136.416,-50.0001 146.416,-46.5 136.416,-43.0001 136.416,-50.0001"/>
</g>
</g>
</svg>
