<?xml version="1.0" encoding="UTF-8" standalone="no"?>
<!DOCTYPE svg PUBLIC "-//W3C//DTD SVG 1.1//EN"
 "http://www.w3.org/Graphics/SVG/1.1/DTD/svg11.dtd">
<!-- Generated by graphviz version 2.38.0 (20140413.2041)
 -->
<!-- Title: foo Pages: 1 -->
<svg width="255pt" height="94pt"
 viewBox="0.00 0.00 255.00 94.00" xmlns="http://www.w3.org/2000/svg" xmlns:xlink="http://www.w3.org/1999/xlink">
<g id="graph0" class="graph" transform="scale(1 1) rotate(0) translate(4 90)">
<title>foo</title>
<g id="a_graph0"><a xlink:title=" ">
<polygon fill="white" stroke="none" points="-4,4 -4,-90 251,-90 251,4 -4,4"/>
</a>
</g>
<!-- My flamethrower -->
<g id="node1" class="node"><title>My flamethrower</title>
<polygon fill="#e5f5e0" stroke="#e5f5e0" stroke-width="2" points="125.5,-86 5.5,-86 5.5,-50 125.5,-50 125.5,-86"/>
<text text-anchor="start" x="13.5" y="-64.3" font-family="arial" font-size="14.00">My flamethrower</text>
</g>
<!-- Fire -->
<g id="node2" class="node"><title>Fire</title>
<polygon fill="#e5f5e0" stroke="#e5f5e0" stroke-width="2" points="247,-61 193,-61 193,-25 247,-25 247,-61"/>
<text text-anchor="start" x="207.5" y="-39.3" font-family="arial" font-size="14.00">Fire</text>
</g>
<!-- My flamethrower&#45;&gt;Fire -->
<g id="edge1" class="edge"><title>My flamethrower&#45;&gt;Fire</title>
<path fill="none" stroke="#41ab5d" d="M125.897,-58.2628C145.012,-55.1291 165.615,-51.7517 182.567,-48.9726"/>
<polygon fill="#41ab5d" stroke="#41ab5d" points="183.303,-52.3987 192.605,-47.327 182.171,-45.491 183.303,-52.3987"/>
<text text-anchor="start" x="156" y="-56.8" font-family="Times New Roman,serif" font-size="14.00">⇈</text>
<text text-anchor="middle" x="180.215" y="-52.0821" font-family="Times New Roman,serif" font-size="14.00">OR</text>
</g>
<!-- Your flamethrower -->
<g id="node3" class="node"><title>Your flamethrower</title>
<polygon fill="#e5f5e0" stroke="#e5f5e0" stroke-width="2" points="131,-36 0,-36 0,-0 131,-0 131,-36"/>
<text text-anchor="start" x="8" y="-14.3" font-family="arial" font-size="14.00">Your flamethrower</text>
</g>
<!-- Your flamethrower&#45;&gt;Fire -->
<g id="edge2" class="edge"><title>Your flamethrower&#45;&gt;Fire</title>
<path fill="none" stroke="#41ab5d" d="M131.006,-27.0683C143.305,-28.9288 156.062,-30.9487 168,-33 172.805,-33.8256 177.853,-34.7482 182.828,-35.69"/>
<polygon fill="#41ab5d" stroke="#41ab5d" points="182.354,-39.163 192.836,-37.6253 183.683,-32.2903 182.354,-39.163"/>
<text text-anchor="start" x="156" y="-36.8" font-family="Times New Roman,serif" font-size="14.00">⇈</text>
</g>
</g>
</svg>
