<?xml version="1.0" encoding="UTF-8" standalone="no"?>
<!DOCTYPE svg PUBLIC "-//W3C//DTD SVG 1.1//EN"
 "http://www.w3.org/Graphics/SVG/1.1/DTD/svg11.dtd">
<!-- Generated by graphviz version 2.38.0 (20140413.2041)
 -->
<!-- Title: foo Pages: 1 -->
<svg width="383pt" height="76pt"
 viewBox="0.00 0.00 383.00 76.00" xmlns="http://www.w3.org/2000/svg" xmlns:xlink="http://www.w3.org/1999/xlink">
<g id="graph0" class="graph" transform="scale(1 1) rotate(0) translate(4 72)">
<title>foo</title>
<g id="a_graph0"><a xlink:title=" ">
<polygon fill="white" stroke="none" points="-4,4 -4,-72 379,-72 379,4 -4,4"/>
</a>
</g>
<!-- ~ Trainee skills during year !self -->
<g id="node1" class="node"><title>~ Trainee skills during year !self</title>
<polygon fill="#e5f5e0" stroke="#e5f5e0" stroke-width="2" points="231,-60.5 141,-60.5 141,-7.5 231,-7.5 231,-60.5"/>
<text text-anchor="start" x="155.5" y="-45.3" font-family="arial" font-size="14.00">~ Trainee</text>
<text text-anchor="start" x="149" y="-30.3" font-family="arial" font-size="14.00">skills during</text>
<text text-anchor="start" x="164.5" y="-15.3" font-family="arial" font-size="14.00">year ↺</text>
</g>
<!-- _^ Trainee scores in project&#45;end assessment -->
<g id="node2" class="node"><title>_^ Trainee scores in project&#45;end assessment</title>
<polygon fill="#e5f5e0" stroke="#e5f5e0" stroke-width="2" points="375,-68 281,-68 281,-0 375,-0 375,-68"/>
<text text-anchor="start" x="295" y="-52.8" font-family="arial" font-size="14.00">_^ Trainee</text>
<text text-anchor="start" x="299" y="-37.8" font-family="arial" font-size="14.00">scores in</text>
<text text-anchor="start" x="291.5" y="-22.8" font-family="arial" font-size="14.00">project&#45;end</text>
<text text-anchor="start" x="289" y="-7.8" font-family="arial" font-size="14.00">assessment</text>
</g>
<!-- ~ Trainee skills during year !self&#45;&gt;_^ Trainee scores in project&#45;end assessment -->
<g id="edge1" class="edge"><title>~ Trainee skills during year !self&#45;&gt;_^ Trainee scores in project&#45;end assessment</title>
<path fill="none" stroke="#41ab5d" d="M231.297,-34C243.686,-34 257.323,-34 270.323,-34"/>
<polygon fill="#41ab5d" stroke="#41ab5d" points="270.577,-37.5001 280.576,-34 270.576,-30.5001 270.577,-37.5001"/>
</g>
<!-- ^_ Training delivered at project start -->
<g id="node3" class="node"><title>^_ Training delivered at project start</title>
<polygon fill="#e5f5e0" stroke="#e5f5e0" stroke-width="2" points="91,-60.5 0,-60.5 0,-7.5 91,-7.5 91,-60.5"/>
<text text-anchor="start" x="11.5" y="-45.3" font-family="arial" font-size="14.00">^_ Training</text>
<text text-anchor="start" x="8.5" y="-30.3" font-family="arial" font-size="14.00">delivered at</text>
<text text-anchor="start" x="8" y="-15.3" font-family="arial" font-size="14.00">project start</text>
</g>
<!-- ^_ Training delivered at project start&#45;&gt;~ Trainee skills during year !self -->
<g id="edge2" class="edge"><title>^_ Training delivered at project start&#45;&gt;~ Trainee skills during year !self</title>
<path fill="none" stroke="#41ab5d" d="M91.0846,-34C103.689,-34 117.547,-34 130.657,-34"/>
<polygon fill="#41ab5d" stroke="#41ab5d" points="130.973,-37.5001 140.973,-34 130.973,-30.5001 130.973,-37.5001"/>
</g>
</g>
</svg>
