<?xml version="1.0" encoding="UTF-8" standalone="no"?>
<!DOCTYPE svg PUBLIC "-//W3C//DTD SVG 1.1//EN"
 "http://www.w3.org/Graphics/SVG/1.1/DTD/svg11.dtd">
<!-- Generated by graphviz version 2.38.0 (20140413.2041)
 -->
<!-- Title: foo Pages: 1 -->
<svg width="529pt" height="364pt"
 viewBox="0.00 0.00 529.00 364.00" xmlns="http://www.w3.org/2000/svg" xmlns:xlink="http://www.w3.org/1999/xlink">
<g id="graph0" class="graph" transform="scale(1 1) rotate(0) translate(4 360)">
<title>foo</title>
<g id="a_graph0"><a xlink:title=" ">
<polygon fill="#c7e9c0" stroke="none" points="-4,4 -4,-360 525,-360 525,4 -4,4"/>
<text text-anchor="start" x="222.5" y="-7.2" font-family="tahoma" font-size="11.00" fill="#238b45">Try this instead</text>
</a>
</g>
<!-- !do students receive laptops -->
<g id="node1" class="node"><title>!do students receive laptops</title>
<polygon fill="#f7fcf5" stroke="#f7fcf5" points="148,-176 3,-176 3,-140 148,-140 148,-176"/>
<text text-anchor="start" x="11" y="-161.8" font-family="Courier,monospace" font-size="14.00" fill="#006d2c">▶ </text>
<text text-anchor="start" x="31" y="-161.8" font-family="Helvetica,sans-Serif" font-size="14.00" fill="#006d2c"> students receive</text>
<text text-anchor="start" x="52" y="-147.8" font-family="Helvetica,sans-Serif" font-size="14.00" fill="#006d2c">laptops</text>
</g>
<!-- students can pursue own study interests better//!heart  -->
<g id="node2" class="node"><title>students can pursue own study interests better//!heart </title>
<polygon fill="#f7fcf5" stroke="#f7fcf5" points="345,-274 201,-274 201,-206 345,-206 345,-274"/>
<text text-anchor="start" x="209" y="-258.8" font-family="Helvetica,sans-Serif" font-size="14.00" fill="#006d2c">students can pursue</text>
<text text-anchor="start" x="212.5" y="-243.8" font-family="Helvetica,sans-Serif" font-size="14.00" fill="#006d2c">own study interests</text>
<text text-anchor="start" x="254.5" y="-228.8" font-family="Helvetica,sans-Serif" font-size="14.00" fill="#006d2c">better</text>
<text text-anchor="start" x="268.5" y="-213.8" font-family="Helvetica,sans-Serif" font-size="14.00" fill="orange">♥</text>
</g>
<!-- !do students receive laptops&#45;&gt;students can pursue own study interests better//!heart  -->
<g id="edge1" class="edge"><title>!do students receive laptops&#45;&gt;students can pursue own study interests better//!heart </title>
<path fill="none" stroke="#41ab5d" stroke-width="2" d="M119.888,-176.198C140.935,-185.026 166.912,-195.922 191.406,-206.196"/>
<polygon fill="#41ab5d" stroke="#41ab5d" stroke-width="2" points="190.131,-209.457 200.707,-210.097 192.839,-203.001 190.131,-209.457"/>
</g>
<!-- students better able to apply for jobs //!heart -->
<g id="node3" class="node"><title>students better able to apply for jobs //!heart</title>
<polygon fill="#f7fcf5" stroke="#f7fcf5" points="332,-192 214,-192 214,-124 332,-124 332,-192"/>
<text text-anchor="start" x="225.5" y="-176.8" font-family="Helvetica,sans-Serif" font-size="14.00" fill="#006d2c">students better</text>
<text text-anchor="start" x="222" y="-161.8" font-family="Helvetica,sans-Serif" font-size="14.00" fill="#006d2c">able to apply for</text>
<text text-anchor="start" x="257.5" y="-146.8" font-family="Helvetica,sans-Serif" font-size="14.00" fill="#006d2c">jobs </text>
<text text-anchor="start" x="268.5" y="-131.8" font-family="Helvetica,sans-Serif" font-size="14.00" fill="orange">♥</text>
</g>
<!-- !do students receive laptops&#45;&gt;students better able to apply for jobs //!heart -->
<g id="edge2" class="edge"><title>!do students receive laptops&#45;&gt;students better able to apply for jobs //!heart</title>
<path fill="none" stroke="#41ab5d" stroke-width="2" d="M148.187,-158C166.308,-158 185.719,-158 203.67,-158"/>
<polygon fill="#41ab5d" stroke="#41ab5d" stroke-width="2" points="203.761,-161.5 213.761,-158 203.761,-154.5 203.761,-161.5"/>
</g>
<!-- improved student classwork -->
<g id="node4" class="node"><title>improved student classwork</title>
<polygon fill="#f7fcf5" stroke="#f7fcf5" points="336,-110 210,-110 210,-72 336,-72 336,-110"/>
<text text-anchor="start" x="218" y="-94.8" font-family="Helvetica,sans-Serif" font-size="14.00" fill="#006d2c">improved student</text>
<text text-anchor="start" x="241.5" y="-79.8" font-family="Helvetica,sans-Serif" font-size="14.00" fill="#006d2c">classwork</text>
</g>
<!-- !do students receive laptops&#45;&gt;improved student classwork -->
<g id="edge5" class="edge"><title>!do students receive laptops&#45;&gt;improved student classwork</title>
<path fill="none" stroke="#41ab5d" stroke-width="2" d="M129.148,-139.957C153.115,-131.743 181.716,-121.941 207.008,-113.273"/>
<polygon fill="#41ab5d" stroke="#41ab5d" stroke-width="2" points="208.198,-116.565 216.523,-110.012 205.929,-109.944 208.198,-116.565"/>
</g>
<!-- improved student exam results//!heart -->
<g id="node5" class="node"><title>improved student exam results//!heart</title>
<polygon fill="#f7fcf5" stroke="#f7fcf5" points="521,-91.5 395,-91.5 395,-38.5 521,-38.5 521,-91.5"/>
<text text-anchor="start" x="403" y="-76.3" font-family="Helvetica,sans-Serif" font-size="14.00" fill="#006d2c">improved student</text>
<text text-anchor="start" x="417.5" y="-61.3" font-family="Helvetica,sans-Serif" font-size="14.00" fill="#006d2c">exam results</text>
<text text-anchor="start" x="453.5" y="-46.3" font-family="Helvetica,sans-Serif" font-size="14.00" fill="orange">♥</text>
</g>
<!-- improved student classwork&#45;&gt;improved student exam results//!heart -->
<g id="edge3" class="edge"><title>improved student classwork&#45;&gt;improved student exam results//!heart</title>
<path fill="none" stroke="#41ab5d" stroke-width="2" d="M336.211,-82.1613C351.914,-79.9303 368.903,-77.5165 385.042,-75.2236"/>
<polygon fill="#41ab5d" stroke="#41ab5d" stroke-width="2" points="385.553,-78.6862 394.961,-73.8142 384.568,-71.7558 385.553,-78.6862"/>
</g>
<!-- !do student workshop 1 -->
<g id="node6" class="node"><title>!do student workshop 1</title>
<polygon fill="#f7fcf5" stroke="#f7fcf5" points="151,-109 0,-109 0,-73 151,-73 151,-109"/>
<text text-anchor="start" x="8" y="-94.8" font-family="Courier,monospace" font-size="14.00" fill="#006d2c">▶ </text>
<text text-anchor="start" x="28" y="-94.8" font-family="Helvetica,sans-Serif" font-size="14.00" fill="#006d2c"> student workshop</text>
<text text-anchor="start" x="71" y="-80.8" font-family="Helvetica,sans-Serif" font-size="14.00" fill="#006d2c">1</text>
</g>
<!-- !do student workshop 1&#45;&gt;improved student classwork -->
<g id="edge4" class="edge"><title>!do student workshop 1&#45;&gt;improved student classwork</title>
<path fill="none" stroke="#41ab5d" stroke-width="2" d="M151.247,-91C167.075,-91 183.756,-91 199.499,-91"/>
<polygon fill="#41ab5d" stroke="#41ab5d" stroke-width="2" points="199.691,-94.5001 209.691,-91 199.691,-87.5001 199.691,-94.5001"/>
</g>
<!-- improved student exam skills -->
<g id="node7" class="node"><title>improved student exam skills</title>
<polygon fill="#f7fcf5" stroke="#f7fcf5" points="336,-58 210,-58 210,-20 336,-20 336,-58"/>
<text text-anchor="start" x="218" y="-42.8" font-family="Helvetica,sans-Serif" font-size="14.00" fill="#006d2c">improved student</text>
<text text-anchor="start" x="238" y="-27.8" font-family="Helvetica,sans-Serif" font-size="14.00" fill="#006d2c">exam skills</text>
</g>
<!-- improved student exam skills&#45;&gt;improved student exam results//!heart -->
<g id="edge6" class="edge"><title>improved student exam skills&#45;&gt;improved student exam results//!heart</title>
<path fill="none" stroke="#41ab5d" stroke-width="2" d="M336.211,-47.8387C351.914,-50.0697 368.903,-52.4835 385.042,-54.7764"/>
<polygon fill="#41ab5d" stroke="#41ab5d" stroke-width="2" points="384.568,-58.2442 394.961,-56.1858 385.553,-51.3138 384.568,-58.2442"/>
</g>
<!-- !do student workshop 2 -->
<g id="node8" class="node"><title>!do student workshop 2</title>
<polygon fill="#f7fcf5" stroke="#f7fcf5" points="151,-57 0,-57 0,-21 151,-21 151,-57"/>
<text text-anchor="start" x="8" y="-42.8" font-family="Courier,monospace" font-size="14.00" fill="#006d2c">▶ </text>
<text text-anchor="start" x="28" y="-42.8" font-family="Helvetica,sans-Serif" font-size="14.00" fill="#006d2c"> student workshop</text>
<text text-anchor="start" x="71" y="-28.8" font-family="Helvetica,sans-Serif" font-size="14.00" fill="#006d2c">2</text>
</g>
<!-- !do student workshop 2&#45;&gt;improved student exam skills -->
<g id="edge7" class="edge"><title>!do student workshop 2&#45;&gt;improved student exam skills</title>
<path fill="none" stroke="#41ab5d" stroke-width="2" d="M151.247,-39C167.075,-39 183.756,-39 199.499,-39"/>
<polygon fill="#41ab5d" stroke="#41ab5d" stroke-width="2" points="199.691,-42.5001 209.691,-39 199.691,-35.5001 199.691,-42.5001"/>
</g>
<!-- student workshop 1 -->
<g id="node9" class="node"><title>student workshop 1</title>
<polygon fill="#f7fcf5" stroke="#f7fcf5" points="145.5,-340 5.5,-340 5.5,-304 145.5,-304 145.5,-340"/>
<text text-anchor="start" x="13.5" y="-318.3" font-family="Helvetica,sans-Serif" font-size="14.00" fill="#006d2c">student workshop 1</text>
</g>
<!-- students can pursue own study interests better//!heart -->
<g id="node10" class="node"><title>students can pursue own study interests better//!heart</title>
<polygon fill="#f7fcf5" stroke="#f7fcf5" points="345,-356 201,-356 201,-288 345,-288 345,-356"/>
<text text-anchor="start" x="209" y="-340.8" font-family="Helvetica,sans-Serif" font-size="14.00" fill="#006d2c">students can pursue</text>
<text text-anchor="start" x="212.5" y="-325.8" font-family="Helvetica,sans-Serif" font-size="14.00" fill="#006d2c">own study interests</text>
<text text-anchor="start" x="254.5" y="-310.8" font-family="Helvetica,sans-Serif" font-size="14.00" fill="#006d2c">better</text>
<text text-anchor="start" x="268.5" y="-295.8" font-family="Helvetica,sans-Serif" font-size="14.00" fill="orange">♥</text>
</g>
<!-- student workshop 1&#45;&gt;students can pursue own study interests better//!heart -->
<g id="edge8" class="edge"><title>student workshop 1&#45;&gt;students can pursue own study interests better//!heart</title>
<path fill="none" stroke="#41ab5d" stroke-width="2" d="M145.701,-322C160.248,-322 175.72,-322 190.665,-322"/>
<polygon fill="#41ab5d" stroke="#41ab5d" stroke-width="2" points="190.91,-325.5 200.91,-322 190.91,-318.5 190.91,-325.5"/>
</g>
</g>
</svg>
