<?xml version="1.0" encoding="UTF-8" standalone="no"?>
<!DOCTYPE svg PUBLIC "-//W3C//DTD SVG 1.1//EN"
 "http://www.w3.org/Graphics/SVG/1.1/DTD/svg11.dtd">
<!-- Generated by graphviz version 2.38.0 (20140413.2041)
 -->
<!-- Title: foo Pages: 1 -->
<svg width="275pt" height="115pt"
 viewBox="0.00 0.00 275.00 115.00" xmlns="http://www.w3.org/2000/svg" xmlns:xlink="http://www.w3.org/1999/xlink">
<g id="graph0" class="graph" transform="scale(1 1) rotate(0) translate(4 111)">
<title>foo</title>
<g id="a_graph0"><a xlink:title=" ">
<polygon fill="#c7e9c0" stroke="none" points="-4,4 -4,-111 271,-111 271,4 -4,4"/>
<text text-anchor="start" x="95.5" y="-7.2" font-family="tahoma" font-size="11.00" fill="#238b45">Try this instead</text>
</a>
</g>
<!-- Medicine -->
<g id="node1" class="node"><title>Medicine</title>
<polygon fill="#f7fcf5" stroke="#f7fcf5" points="105.5,-107 31.5,-107 31.5,-71 105.5,-71 105.5,-107"/>
<text text-anchor="start" x="39.5" y="-85.3" font-family="Helvetica,sans-Serif" font-size="14.00" fill="#006d2c">Medicine</text>
</g>
<!-- Mortality -->
<g id="node2" class="node"><title>Mortality</title>
<polygon fill="#f7fcf5" stroke="#f7fcf5" points="267,-81 199,-81 199,-45 267,-45 267,-81"/>
<text text-anchor="start" x="207" y="-59.3" font-family="Helvetica,sans-Serif" font-size="14.00" fill="#006d2c">Mortality</text>
</g>
<!-- Medicine&#45;&gt;Mortality -->
<g id="edge1" class="edge"><title>Medicine&#45;&gt;Mortality</title>
<path fill="none" stroke="#41ab5d" stroke-width="2" d="M105.564,-83.2298C130.163,-79.294 162.864,-74.0618 188.846,-69.9046"/>
<polygon fill="#41ab5d" stroke="#41ab5d" stroke-width="2" points="189.482,-73.3475 198.803,-68.3115 188.376,-66.4354 189.482,-73.3475"/>
<text text-anchor="start" x="162" y="-77.8" font-family="Helvetica,sans-Serif" font-size="14.00" fill="#cd5c5c">⊖</text>
</g>
<!-- Number of bacteria -->
<g id="node3" class="node"><title>Number of bacteria</title>
<polygon fill="#f7fcf5" stroke="#f7fcf5" points="137,-56 0,-56 0,-20 137,-20 137,-56"/>
<text text-anchor="start" x="8" y="-34.3" font-family="Helvetica,sans-Serif" font-size="14.00" fill="#006d2c">Number of bacteria</text>
</g>
<!-- Number of bacteria&#45;&gt;Mortality -->
<g id="edge2" class="edge"><title>Number of bacteria&#45;&gt;Mortality</title>
<path fill="none" stroke="#41ab5d" stroke-width="2" d="M137.059,-35.9336C149.432,-36.5408 162.168,-37.8286 174,-40.2 179.042,-41.2106 184.212,-42.6319 189.287,-44.2766"/>
<polygon fill="#41ab5d" stroke="#41ab5d" stroke-width="2" points="188.279,-47.6323 198.873,-47.6654 190.612,-41.0325 188.279,-47.6323"/>
<text text-anchor="start" x="162" y="-46.6" font-family="Helvetica,sans-Serif" font-size="14.00" fill="#cd5c5c">⊕</text>
</g>
</g>
</svg>
