<?xml version="1.0" encoding="UTF-8" standalone="no"?>
<!DOCTYPE svg PUBLIC "-//W3C//DTD SVG 1.1//EN"
 "http://www.w3.org/Graphics/SVG/1.1/DTD/svg11.dtd">
<!-- Generated by graphviz version 2.38.0 (20140413.2041)
 -->
<!-- Title: foo Pages: 1 -->
<svg width="292pt" height="94pt"
 viewBox="0.00 0.00 292.00 94.00" xmlns="http://www.w3.org/2000/svg" xmlns:xlink="http://www.w3.org/1999/xlink">
<g id="graph0" class="graph" transform="scale(1 1) rotate(0) translate(4 90)">
<title>foo</title>
<g id="a_graph0"><a xlink:title=" ">
<polygon fill="white" stroke="none" points="-4,4 -4,-90 288,-90 288,4 -4,4"/>
</a>
</g>
<!-- Encouragement -->
<g id="node1" class="node"><title>Encouragement</title>
<polygon fill="#e5f5e0" stroke="#e5f5e0" stroke-width="2" points="117,-86 7.10543e-015,-86 7.10543e-015,-50 117,-50 117,-86"/>
<text text-anchor="start" x="8" y="-64.3" font-family="arial" font-size="14.00">Encouragement</text>
</g>
<!-- Performance -->
<g id="node2" class="node"><title>Performance</title>
<polygon fill="#e5f5e0" stroke="#e5f5e0" stroke-width="2" points="284,-61 185,-61 185,-25 284,-25 284,-61"/>
<text text-anchor="start" x="193" y="-39.3" font-family="arial" font-size="14.00">Performance</text>
</g>
<!-- Encouragement&#45;&gt;Performance -->
<g id="edge1" class="edge"><title>Encouragement&#45;&gt;Performance</title>
<path fill="none" stroke="#41ab5d" d="M117.439,-59.6754C135.874,-57.0267 156.275,-54.0955 174.765,-51.4389"/>
<polygon fill="#41ab5d" stroke="#41ab5d" points="175.416,-54.8815 184.816,-49.9948 174.42,-47.9526 175.416,-54.8815"/>
<text text-anchor="start" x="142" y="-58.8" font-family="Times New Roman,serif" font-size="14.00">⊕?</text>
</g>
<!-- Gender -->
<g id="node3" class="node"><title>Gender</title>
<polygon fill="#e5f5e0" stroke="#e5f5e0" stroke-width="2" points="91,-36 26,-36 26,-0 91,-0 91,-36"/>
<text text-anchor="start" x="34" y="-14.3" font-family="arial" font-size="14.00">Gender</text>
</g>
<!-- Gender&#45;&gt;Performance -->
<g id="edge2" class="edge"><title>Gender&#45;&gt;Performance</title>
<path fill="none" stroke="#41ab5d" d="M91.0101,-22.5273C114.298,-25.8733 146.691,-30.5274 174.707,-34.5528"/>
<polygon fill="#41ab5d" stroke="#41ab5d" points="174.41,-38.0459 184.806,-36.0038 175.406,-31.1171 174.41,-38.0459"/>
<text text-anchor="start" x="145" y="-34.8" font-family="Times New Roman,serif" font-size="14.00">⊕</text>
</g>
</g>
</svg>
