<?xml version="1.0" encoding="UTF-8" standalone="no"?>
<!DOCTYPE svg PUBLIC "-//W3C//DTD SVG 1.1//EN"
 "http://www.w3.org/Graphics/SVG/1.1/DTD/svg11.dtd">
<!-- Generated by graphviz version 2.38.0 (20140413.2041)
 -->
<!-- Title: foo Pages: 1 -->
<svg width="250pt" height="111pt"
 viewBox="0.00 0.00 250.00 111.00" xmlns="http://www.w3.org/2000/svg" xmlns:xlink="http://www.w3.org/1999/xlink">
<g id="graph0" class="graph" transform="scale(1 1) rotate(0) translate(4 107)">
<title>foo</title>
<g id="a_graph0"><a xlink:title=" ">
<polygon fill="#d9d9d9" stroke="none" points="-4,4 -4,-107 246,-107 246,4 -4,4"/>
<text text-anchor="start" x="86" y="-7.2" font-family="tahoma" font-size="11.00" fill="#525252">Not very clear</text>
</a>
</g>
<!-- Opportunity for safe interaction with strange dogs -->
<g id="node1" class="node"><title>Opportunity for safe interaction with strange dogs</title>
<polygon fill="#fee6ce" stroke="#fee6ce" points="92,-103 0,-103 0,-20 92,-20 92,-103"/>
<text text-anchor="start" x="9.5" y="-87.8" font-family="Helvetica,sans-Serif" font-size="14.00">Opportunity</text>
<text text-anchor="start" x="21.5" y="-72.8" font-family="Helvetica,sans-Serif" font-size="14.00">for safe</text>
<text text-anchor="start" x="13.5" y="-57.8" font-family="Helvetica,sans-Serif" font-size="14.00">interaction</text>
<text text-anchor="start" x="8" y="-42.8" font-family="Helvetica,sans-Serif" font-size="14.00">with strange</text>
<text text-anchor="start" x="29.5" y="-27.8" font-family="Helvetica,sans-Serif" font-size="14.00">dogs</text>
</g>
<!-- Trust in strange dogs -->
<g id="node2" class="node"><title>Trust in strange dogs</title>
<polygon fill="#fee6ce" stroke="#fee6ce" points="242,-80.5 142,-80.5 142,-42.5 242,-42.5 242,-80.5"/>
<text text-anchor="start" x="168.5" y="-65.3" font-family="Helvetica,sans-Serif" font-size="14.00">Trust in</text>
<text text-anchor="start" x="150" y="-50.3" font-family="Helvetica,sans-Serif" font-size="14.00">strange dogs</text>
</g>
<!-- Opportunity for safe interaction with strange dogs&#45;&gt;Trust in strange dogs -->
<g id="edge1" class="edge"><title>Opportunity for safe interaction with strange dogs&#45;&gt;Trust in strange dogs</title>
<path fill="none" stroke="#737373" stroke-width="2" d="M92.1674,-61.5C104.787,-61.5 118.69,-61.5 131.983,-61.5"/>
<polygon fill="#737373" stroke="#737373" stroke-width="2" points="131.997,-65.0001 141.997,-61.5 131.997,-58.0001 131.997,-65.0001"/>
</g>
</g>
</svg>
