<?xml version="1.0" encoding="UTF-8" standalone="no"?>
<!DOCTYPE svg PUBLIC "-//W3C//DTD SVG 1.1//EN"
 "http://www.w3.org/Graphics/SVG/1.1/DTD/svg11.dtd">
<!-- Generated by graphviz version 2.38.0 (20140413.2041)
 -->
<!-- Title: foo Pages: 1 -->
<svg width="676pt" height="61pt"
 viewBox="0.00 0.00 676.00 61.00" xmlns="http://www.w3.org/2000/svg" xmlns:xlink="http://www.w3.org/1999/xlink">
<g id="graph0" class="graph" transform="scale(1 1) rotate(0) translate(4 57)">
<title>foo</title>
<g id="a_graph0"><a xlink:title=" ">
<polygon fill="white" stroke="none" points="-4,4 -4,-57 672,-57 672,4 -4,4"/>
</a>
</g>
<!-- ~ Weight of straw on camel ///Influence: !memory -->
<g id="node1" class="node"><title>~ Weight of straw on camel ///Influence: !memory</title>
<polygon fill="#e5f5e0" stroke="#e5f5e0" stroke-width="2" points="439,-45.5 247,-45.5 247,-7.5 439,-7.5 439,-45.5"/>
<text text-anchor="start" x="255" y="-30.3" font-family="arial" font-size="14.00">~ Weight of straw on camel </text>
<text text-anchor="start" x="304" y="-15.3" font-family="arial" font-size="14.00">Influence: ↺</text>
</g>
<!-- ~ Camel&#39;s back breaks !noyes ///Influence: threshold -->
<g id="node2" class="node"><title>~ Camel&#39;s back breaks !noyes ///Influence: threshold</title>
<polygon fill="#e5f5e0" stroke="#e5f5e0" stroke-width="2" points="668,-45.5 489,-45.5 489,-7.5 668,-7.5 668,-45.5"/>
<text text-anchor="start" x="497" y="-30.3" font-family="arial" font-size="14.00">~ Camel&#39;s back breaks ◨ </text>
<text text-anchor="start" x="516" y="-15.3" font-family="arial" font-size="14.00">Influence: threshold</text>
</g>
<!-- ~ Weight of straw on camel ///Influence: !memory&#45;&gt;~ Camel&#39;s back breaks !noyes ///Influence: threshold -->
<g id="edge1" class="edge"><title>~ Weight of straw on camel ///Influence: !memory&#45;&gt;~ Camel&#39;s back breaks !noyes ///Influence: threshold</title>
<path fill="none" stroke="#41ab5d" d="M439.31,-26.5C452.246,-26.5 465.545,-26.5 478.543,-26.5"/>
<polygon fill="#41ab5d" stroke="#41ab5d" points="478.889,-30.0001 488.889,-26.5 478.889,-23.0001 478.889,-30.0001"/>
</g>
<!-- .^. Weight of each load of extra straw added to camel&#39;s back -->
<g id="node3" class="node"><title>.^. Weight of each load of extra straw added to camel&#39;s back</title>
<polygon fill="#e5f5e0" stroke="#e5f5e0" stroke-width="2" points="197,-53 -1.42109e-014,-53 -1.42109e-014,-0 197,-0 197,-53"/>
<text text-anchor="start" x="18.5" y="-37.8" font-family="arial" font-size="14.00">.^. Weight of each load of</text>
<text text-anchor="start" x="8" y="-22.8" font-family="arial" font-size="14.00">extra straw added to camel&#39;s</text>
<text text-anchor="start" x="83" y="-7.8" font-family="arial" font-size="14.00">back</text>
</g>
<!-- .^. Weight of each load of extra straw added to camel&#39;s back&#45;&gt;~ Weight of straw on camel ///Influence: !memory -->
<g id="edge2" class="edge"><title>.^. Weight of each load of extra straw added to camel&#39;s back&#45;&gt;~ Weight of straw on camel ///Influence: !memory</title>
<path fill="none" stroke="#41ab5d" d="M197.086,-26.5C210.195,-26.5 223.689,-26.5 236.921,-26.5"/>
<polygon fill="#41ab5d" stroke="#41ab5d" points="236.978,-30.0001 246.978,-26.5 236.978,-23.0001 236.978,-30.0001"/>
</g>
</g>
</svg>
