<?xml version="1.0" encoding="UTF-8" standalone="no"?>
<!DOCTYPE svg PUBLIC "-//W3C//DTD SVG 1.1//EN"
 "http://www.w3.org/Graphics/SVG/1.1/DTD/svg11.dtd">
<!-- Generated by graphviz version 2.38.0 (20140413.2041)
 -->
<!-- Title: foo Pages: 1 -->
<svg width="498pt" height="168pt"
 viewBox="0.00 0.00 498.00 168.00" xmlns="http://www.w3.org/2000/svg" xmlns:xlink="http://www.w3.org/1999/xlink">
<g id="graph0" class="graph" transform="scale(1 1) rotate(0) translate(4 164)">
<title>foo</title>
<g id="a_graph0"><a xlink:title=" ">
<polygon fill="white" stroke="none" points="-4,4 -4,-164 494,-164 494,4 -4,4"/>
</a>
</g>
<!-- Legislators have more favourable views !smile -->
<g id="node1" class="node"><title>Legislators have more favourable views !smile</title>
<polygon fill="#e5f5e0" stroke="#e5f5e0" stroke-width="2" points="361,-122 275,-122 275,-54 361,-54 361,-122"/>
<text text-anchor="start" x="283" y="-106.8" font-family="arial" font-size="14.00">Legislators</text>
<text text-anchor="start" x="284.5" y="-91.8" font-family="arial" font-size="14.00">have more</text>
<text text-anchor="start" x="284.5" y="-76.8" font-family="arial" font-size="14.00">favourable</text>
<text text-anchor="start" x="292.5" y="-61.8" font-family="arial" font-size="14.00">views 🙂</text>
</g>
<!-- Law on same&#45;sex marriage is passed !smile -->
<g id="node2" class="node"><title>Law on same&#45;sex marriage is passed !smile</title>
<polygon fill="#e5f5e0" stroke="#e5f5e0" stroke-width="2" points="490,-129.5 411,-129.5 411,-46.5 490,-46.5 490,-129.5"/>
<text text-anchor="start" x="427.5" y="-114.3" font-family="arial" font-size="14.00">Law on</text>
<text text-anchor="start" x="419" y="-99.3" font-family="arial" font-size="14.00">same&#45;sex</text>
<text text-anchor="start" x="422.5" y="-84.3" font-family="arial" font-size="14.00">marriage</text>
<text text-anchor="start" x="445" y="-69.3" font-family="arial" font-size="14.00">is</text>
<text text-anchor="start" x="419" y="-54.3" font-family="arial" font-size="14.00">passed 🙂</text>
</g>
<!-- Legislators have more favourable views !smile&#45;&gt;Law on same&#45;sex marriage is passed !smile -->
<g id="edge1" class="edge"><title>Legislators have more favourable views !smile&#45;&gt;Law on same&#45;sex marriage is passed !smile</title>
<path fill="none" stroke="#41ab5d" d="M361.009,-88C373.591,-88 387.499,-88 400.49,-88"/>
<polygon fill="#41ab5d" stroke="#41ab5d" points="400.669,-91.5001 410.669,-88 400.669,-84.5001 400.669,-91.5001"/>
</g>
<!-- Other campaign &#160;lobbies legislators -->
<g id="node3" class="node"><title>Other campaign &#160;lobbies legislators</title>
<polygon fill="#e5f5e0" stroke="#e5f5e0" stroke-width="2" points="220.5,-160 139.5,-160 139.5,-92 220.5,-92 220.5,-160"/>
<text text-anchor="start" x="162" y="-144.8" font-family="arial" font-size="14.00">Other</text>
<text text-anchor="start" x="149" y="-129.8" font-family="arial" font-size="14.00">campaign</text>
<text text-anchor="start" x="156.5" y="-114.8" font-family="arial" font-size="14.00">lobbies</text>
<text text-anchor="start" x="147.5" y="-99.8" font-family="arial" font-size="14.00">legislators</text>
</g>
<!-- Other campaign &#160;lobbies legislators&#45;&gt;Legislators have more favourable views !smile -->
<g id="edge2" class="edge"><title>Other campaign &#160;lobbies legislators&#45;&gt;Legislators have more favourable views !smile</title>
<path fill="none" stroke="#41ab5d" d="M220.702,-114.907C234.462,-111.062 250.103,-106.692 264.719,-102.608"/>
<polygon fill="#41ab5d" stroke="#41ab5d" points="265.949,-105.898 274.639,-99.8363 264.066,-99.1565 265.949,-105.898"/>
</g>
<!-- Public opinion improves !smile -->
<g id="node4" class="node"><title>Public opinion improves !smile</title>
<polygon fill="#e5f5e0" stroke="#e5f5e0" stroke-width="2" points="225,-77.5 135,-77.5 135,-24.5 225,-24.5 225,-77.5"/>
<text text-anchor="start" x="160" y="-62.3" font-family="arial" font-size="14.00">Public</text>
<text text-anchor="start" x="157" y="-47.3" font-family="arial" font-size="14.00">opinion</text>
<text text-anchor="start" x="143" y="-32.3" font-family="arial" font-size="14.00">improves 🙂</text>
</g>
<!-- Public opinion improves !smile&#45;&gt;Legislators have more favourable views !smile -->
<g id="edge3" class="edge"><title>Public opinion improves !smile&#45;&gt;Legislators have more favourable views !smile</title>
<path fill="none" stroke="#41ab5d" d="M225.155,-63.0128C237.887,-66.4767 251.896,-70.288 265.055,-73.8679"/>
<polygon fill="#41ab5d" stroke="#41ab5d" points="264.348,-77.3027 274.916,-76.5507 266.186,-70.5482 264.348,-77.3027"/>
</g>
<!-- !do Our campaign is launched -->
<g id="node5" class="node"><title>!do Our campaign is launched</title>
<polygon fill="#e5f5e0" stroke="#e5f5e0" stroke-width="2" points="81.5,-116 3.5,-116 3.5,-52 81.5,-52 81.5,-116"/>
<text text-anchor="start" x="20.5" y="-101.8" font-family="arial" font-size="14.00" fill="green">▶ </text>
<text text-anchor="start" x="36.5" y="-101.8" font-family="arial" font-size="14.00"> Our</text>
<text text-anchor="start" x="11.5" y="-87.8" font-family="arial" font-size="14.00">campaign</text>
<text text-anchor="start" x="37" y="-73.8" font-family="arial" font-size="14.00">is</text>
<text text-anchor="start" x="13.5" y="-59.8" font-family="arial" font-size="14.00">launched</text>
</g>
<!-- !do Our campaign is launched&#45;&gt;Public opinion improves !smile -->
<g id="edge4" class="edge"><title>!do Our campaign is launched&#45;&gt;Public opinion improves !smile</title>
<path fill="none" stroke="#41ab5d" d="M81.6049,-74.7198C95.088,-71.4361 110.522,-67.6772 125.069,-64.1345"/>
<polygon fill="#41ab5d" stroke="#41ab5d" points="126.075,-67.4918 134.963,-61.7248 124.419,-60.6906 126.075,-67.4918"/>
</g>
<!-- Celebrities speak out -->
<g id="node6" class="node"><title>Celebrities speak out</title>
<polygon fill="#e5f5e0" stroke="#e5f5e0" stroke-width="2" points="85,-38 0,-38 0,-0 85,-0 85,-38"/>
<text text-anchor="start" x="8" y="-22.8" font-family="arial" font-size="14.00">Celebrities</text>
<text text-anchor="start" x="11.5" y="-7.8" font-family="arial" font-size="14.00">speak out</text>
</g>
<!-- Celebrities speak out&#45;&gt;Public opinion improves !smile -->
<g id="edge5" class="edge"><title>Celebrities speak out&#45;&gt;Public opinion improves !smile</title>
<path fill="none" stroke="#41ab5d" d="M85.2601,-28.8622C97.777,-31.8182 111.689,-35.1037 124.882,-38.2193"/>
<polygon fill="#41ab5d" stroke="#41ab5d" points="124.258,-41.6682 134.795,-40.5604 125.867,-34.8556 124.258,-41.6682"/>
</g>
</g>
</svg>
