<?xml version="1.0" encoding="UTF-8" standalone="no"?>
<!DOCTYPE svg PUBLIC "-//W3C//DTD SVG 1.1//EN"
 "http://www.w3.org/Graphics/SVG/1.1/DTD/svg11.dtd">
<!-- Generated by graphviz version 2.38.0 (20140413.2041)
 -->
<!-- Title: foo Pages: 1 -->
<svg width="449pt" height="153pt"
 viewBox="0.00 0.00 449.00 153.00" xmlns="http://www.w3.org/2000/svg" xmlns:xlink="http://www.w3.org/1999/xlink">
<g id="graph0" class="graph" transform="scale(1 1) rotate(0) translate(4 149)">
<title>foo</title>
<g id="a_graph0"><a xlink:title=" ">
<polygon fill="white" stroke="none" points="-4,4 -4,-149 445,-149 445,4 -4,4"/>
</a>
</g>
<g id="clust2" class="cluster"><title>cluster_InfluenceVariables</title>
<g id="a_clust2"><a xlink:title=" ">
<path fill="#efedf5" stroke="#efedf5" d="M20,-8C20,-8 203,-8 203,-8 209,-8 215,-14 215,-20 215,-20 215,-125 215,-125 215,-131 209,-137 203,-137 203,-137 20,-137 20,-137 14,-137 8,-131 8,-125 8,-125 8,-20 8,-20 8,-14 14,-8 20,-8"/>
<text text-anchor="start" x="16" y="-121.8" font-family="arial" font-size="14.00">Influence Variables</text>
</a>
</g>
</g>
<g id="clust1" class="cluster"><title>cluster_ConsequenceVariable</title>
<g id="a_clust1"><a xlink:title=" ">
<path fill="#efedf5" stroke="#efedf5" d="M261,-21C261,-21 421,-21 421,-21 427,-21 433,-27 433,-33 433,-33 433,-86 433,-86 433,-92 427,-98 421,-98 421,-98 261,-98 261,-98 255,-98 249,-92 249,-86 249,-86 249,-33 249,-33 249,-27 255,-21 261,-21"/>
<text text-anchor="start" x="257" y="-82.8" font-family="arial" font-size="14.00">Consequence Variable</text>
</a>
</g>
</g>
<!-- Student feels they live up to expectations -->
<g id="node1" class="node"><title>Student feels they live up to expectations</title>
<polygon fill="#e5f5e0" stroke="#e5f5e0" stroke-width="2" points="207,-106 16,-106 16,-68 207,-68 207,-106"/>
<text text-anchor="start" x="24" y="-90.8" font-family="arial" font-size="14.00">Student feels they live up to</text>
<text text-anchor="start" x="71" y="-75.8" font-family="arial" font-size="14.00">expectations</text>
</g>
<!-- Student satisfaction with school -->
<g id="node2" class="node"><title>Student satisfaction with school</title>
<polygon fill="#e5f5e0" stroke="#e5f5e0" stroke-width="2" points="425,-67 257,-67 257,-29 425,-29 425,-67"/>
<text text-anchor="start" x="265" y="-51.8" font-family="arial" font-size="14.00">Student satisfaction with</text>
<text text-anchor="start" x="319.5" y="-36.8" font-family="arial" font-size="14.00">school</text>
</g>
<!-- Student feels they live up to expectations&#45;&gt;Student satisfaction with school -->
<g id="edge1" class="edge"><title>Student feels they live up to expectations&#45;&gt;Student satisfaction with school</title>
<path fill="none" stroke="#41ab5d" d="M207.004,-70.7993C220.137,-68.5479 233.623,-66.2361 246.733,-63.9886"/>
<polygon fill="#41ab5d" stroke="#41ab5d" points="247.409,-67.4239 256.674,-62.2845 246.226,-60.5246 247.409,-67.4239"/>
</g>
<!-- Student receives pastoral support -->
<g id="node3" class="node"><title>Student receives pastoral support</title>
<polygon fill="#e5f5e0" stroke="#e5f5e0" stroke-width="2" points="200,-54 23,-54 23,-16 200,-16 200,-54"/>
<text text-anchor="start" x="31" y="-38.8" font-family="arial" font-size="14.00">Student receives pastoral</text>
<text text-anchor="start" x="87" y="-23.8" font-family="arial" font-size="14.00">support</text>
</g>
<!-- Student receives pastoral support&#45;&gt;Student satisfaction with school -->
<g id="edge2" class="edge"><title>Student receives pastoral support&#45;&gt;Student satisfaction with school</title>
<path fill="none" stroke="#41ab5d" d="M200.132,-40.0075C215.431,-40.8818 231.397,-41.7941 246.839,-42.6765"/>
<polygon fill="#41ab5d" stroke="#41ab5d" points="246.715,-46.175 256.898,-43.2513 247.114,-39.1864 246.715,-46.175"/>
</g>
</g>
</svg>
