<?xml version="1.0" encoding="UTF-8" standalone="no"?>
<!DOCTYPE svg PUBLIC "-//W3C//DTD SVG 1.1//EN"
 "http://www.w3.org/Graphics/SVG/1.1/DTD/svg11.dtd">
<!-- Generated by graphviz version 2.38.0 (20140413.2041)
 -->
<!-- Title: foo Pages: 1 -->
<svg width="368pt" height="302pt"
 viewBox="0.00 0.00 368.00 302.00" xmlns="http://www.w3.org/2000/svg" xmlns:xlink="http://www.w3.org/1999/xlink">
<g id="graph0" class="graph" transform="scale(1 1) rotate(0) translate(4 298)">
<title>foo</title>
<g id="a_graph0"><a xlink:title=" ">
<polygon fill="white" stroke="none" points="-4,4 -4,-298 364,-298 364,4 -4,4"/>
</a>
</g>
<!-- b -->
<g id="node1" class="node"><title>b</title>
<polygon fill="#c7e9c0" stroke="#c7e9c0" points="190,-208 136,-208 136,-172 190,-172 190,-208"/>
<text text-anchor="start" x="159" y="-186.3" font-family="Times New Roman,serif" font-size="14.00">b</text>
</g>
<!-- a -->
<g id="node2" class="node"><title>a</title>
<polygon fill="#c7e9c0" stroke="#c7e9c0" points="156,-294 102,-294 102,-258 156,-258 156,-294"/>
<text text-anchor="start" x="125.5" y="-272.3" font-family="Times New Roman,serif" font-size="14.00">a</text>
</g>
<!-- b&#45;&gt;a -->
<g id="edge1" class="edge"><title>b&#45;&gt;a</title>
<path fill="none" stroke="black" d="M155.955,-208.405C151.274,-219.97 145.038,-235.376 139.744,-248.457"/>
<polygon fill="black" stroke="black" points="136.427,-247.322 135.919,-257.905 142.916,-249.949 136.427,-247.322"/>
</g>
<!-- c -->
<g id="node3" class="node"><title>c</title>
<polygon fill="#fcbba1" stroke="#fcbba1" points="122,-208 68,-208 68,-172 122,-172 122,-208"/>
<text text-anchor="start" x="91.5" y="-186.3" font-family="Times New Roman,serif" font-size="14.00">c</text>
</g>
<!-- c&#45;&gt;a -->
<g id="edge2" class="edge"><title>c&#45;&gt;a</title>
<path fill="none" stroke="black" d="M102.045,-208.405C106.726,-219.97 112.962,-235.376 118.256,-248.457"/>
<polygon fill="black" stroke="black" points="115.084,-249.949 122.081,-257.905 121.573,-247.322 115.084,-249.949"/>
</g>
<!-- d -->
<g id="node4" class="node"><title>d</title>
<polygon fill="#c6dbef" stroke="#c6dbef" points="54,-122 0,-122 0,-86 54,-86 54,-122"/>
<text text-anchor="start" x="23" y="-100.3" font-family="Times New Roman,serif" font-size="14.00">d</text>
</g>
<!-- d&#45;&gt;b -->
<g id="edge3" class="edge"><title>d&#45;&gt;b</title>
<path fill="none" stroke="black" d="M54.1948,-121.797C75.135,-134.73 104.268,-152.724 127.118,-166.838"/>
<polygon fill="black" stroke="black" points="125.505,-169.955 135.852,-172.232 129.184,-164 125.505,-169.955"/>
</g>
<!-- d&#45;&gt;c -->
<g id="edge4" class="edge"><title>d&#45;&gt;c</title>
<path fill="none" stroke="black" d="M41.0896,-122.405C50.8187,-134.423 63.906,-150.59 74.7495,-163.985"/>
<polygon fill="black" stroke="black" points="72.1487,-166.335 81.1611,-171.905 77.5894,-161.93 72.1487,-166.335"/>
</g>
<!-- e -->
<g id="node5" class="node"><title>e</title>
<polygon fill="#c6dbef" stroke="#c6dbef" points="122,-122 68,-122 68,-86 122,-86 122,-122"/>
<text text-anchor="start" x="91.5" y="-100.3" font-family="Times New Roman,serif" font-size="14.00">e</text>
</g>
<!-- e&#45;&gt;b -->
<g id="edge5" class="edge"><title>e&#45;&gt;b</title>
<path fill="none" stroke="black" d="M109.09,-122.405C118.819,-134.423 131.906,-150.59 142.75,-163.985"/>
<polygon fill="black" stroke="black" points="140.149,-166.335 149.161,-171.905 145.589,-161.93 140.149,-166.335"/>
</g>
<!-- e&#45;&gt;c -->
<g id="edge6" class="edge"><title>e&#45;&gt;c</title>
<path fill="none" stroke="black" d="M95,-122.405C95,-133.743 95,-148.773 95,-161.685"/>
<polygon fill="black" stroke="black" points="91.5001,-161.905 95,-171.905 98.5001,-161.905 91.5001,-161.905"/>
</g>
<!-- f -->
<g id="node6" class="node"><title>f</title>
<polygon fill="#c6dbef" stroke="#c6dbef" points="190,-122 136,-122 136,-86 190,-86 190,-122"/>
<text text-anchor="start" x="160.5" y="-100.3" font-family="Times New Roman,serif" font-size="14.00">f</text>
</g>
<!-- f&#45;&gt;b -->
<g id="edge7" class="edge"><title>f&#45;&gt;b</title>
<path fill="none" stroke="black" d="M163,-122.405C163,-133.743 163,-148.773 163,-161.685"/>
<polygon fill="black" stroke="black" points="159.5,-161.905 163,-171.905 166.5,-161.905 159.5,-161.905"/>
</g>
<!-- f&#45;&gt;c -->
<g id="edge8" class="edge"><title>f&#45;&gt;c</title>
<path fill="none" stroke="black" d="M148.91,-122.405C139.181,-134.423 126.094,-150.59 115.25,-163.985"/>
<polygon fill="black" stroke="black" points="112.411,-161.93 108.839,-171.905 117.851,-166.335 112.411,-161.93"/>
</g>
<!-- g -->
<g id="node7" class="node"><title>g</title>
<polygon fill="#c7e9c0" stroke="#c7e9c0" points="258,-122 204,-122 204,-86 258,-86 258,-122"/>
<text text-anchor="start" x="227.5" y="-100.3" font-family="Times New Roman,serif" font-size="14.00">g</text>
</g>
<!-- g&#45;&gt;b -->
<g id="edge9" class="edge"><title>g&#45;&gt;b</title>
<path fill="none" stroke="black" d="M216.91,-122.405C207.181,-134.423 194.094,-150.59 183.25,-163.985"/>
<polygon fill="black" stroke="black" points="180.411,-161.93 176.839,-171.905 185.851,-166.335 180.411,-161.93"/>
</g>
<!-- h -->
<g id="node8" class="node"><title>h</title>
<polygon fill="#c7e9c0" stroke="#c7e9c0" points="326,-122 272,-122 272,-86 326,-86 326,-122"/>
<text text-anchor="start" x="295.5" y="-100.3" font-family="Times New Roman,serif" font-size="14.00">h</text>
</g>
<!-- h&#45;&gt;b -->
<g id="edge10" class="edge"><title>h&#45;&gt;b</title>
<path fill="none" stroke="black" d="M271.805,-121.797C250.865,-134.73 221.732,-152.724 198.882,-166.838"/>
<polygon fill="black" stroke="black" points="196.816,-164 190.148,-172.232 200.495,-169.955 196.816,-164"/>
</g>
<!-- i -->
<g id="node9" class="node"><title>i</title>
<polygon fill="#dadaeb" stroke="#dadaeb" points="224,-36 170,-36 170,-0 224,-0 224,-36"/>
<text text-anchor="start" x="195" y="-14.3" font-family="Times New Roman,serif" font-size="14.00">i</text>
</g>
<!-- i&#45;&gt;g -->
<g id="edge11" class="edge"><title>i&#45;&gt;g</title>
<path fill="none" stroke="black" d="M204.045,-36.4049C208.726,-47.9696 214.962,-63.3756 220.256,-76.4568"/>
<polygon fill="black" stroke="black" points="217.084,-77.9486 224.081,-85.9048 223.573,-75.3222 217.084,-77.9486"/>
</g>
<!-- i&#45;&gt;h -->
<g id="edge12" class="edge"><title>i&#45;&gt;h</title>
<path fill="none" stroke="black" d="M218.134,-36.4049C233.279,-48.8766 253.848,-65.8158 270.451,-79.4889"/>
<polygon fill="black" stroke="black" points="268.297,-82.2495 278.242,-85.9048 272.747,-76.846 268.297,-82.2495"/>
</g>
<!-- j -->
<g id="node10" class="node"><title>j</title>
<polygon fill="#dadaeb" stroke="#dadaeb" points="292,-36 238,-36 238,-0 292,-0 292,-36"/>
<text text-anchor="start" x="263" y="-14.3" font-family="Times New Roman,serif" font-size="14.00">j</text>
</g>
<!-- j&#45;&gt;g -->
<g id="edge13" class="edge"><title>j&#45;&gt;g</title>
<path fill="none" stroke="black" d="M257.955,-36.4049C253.274,-47.9696 247.038,-63.3756 241.744,-76.4568"/>
<polygon fill="black" stroke="black" points="238.427,-75.3222 237.919,-85.9048 244.916,-77.9486 238.427,-75.3222"/>
</g>
<!-- j&#45;&gt;h -->
<g id="edge14" class="edge"><title>j&#45;&gt;h</title>
<path fill="none" stroke="black" d="M272.045,-36.4049C276.726,-47.9696 282.962,-63.3756 288.256,-76.4568"/>
<polygon fill="black" stroke="black" points="285.084,-77.9486 292.081,-85.9048 291.573,-75.3222 285.084,-77.9486"/>
</g>
<!-- k -->
<g id="node11" class="node"><title>k</title>
<polygon fill="#dadaeb" stroke="#dadaeb" points="360,-36 306,-36 306,-0 360,-0 360,-36"/>
<text text-anchor="start" x="329.5" y="-14.3" font-family="Times New Roman,serif" font-size="14.00">k</text>
</g>
<!-- k&#45;&gt;g -->
<g id="edge15" class="edge"><title>k&#45;&gt;g</title>
<path fill="none" stroke="black" d="M311.866,-36.4049C296.721,-48.8766 276.152,-65.8158 259.549,-79.4889"/>
<polygon fill="black" stroke="black" points="257.253,-76.846 251.758,-85.9048 261.703,-82.2495 257.253,-76.846"/>
</g>
<!-- k&#45;&gt;h -->
<g id="edge16" class="edge"><title>k&#45;&gt;h</title>
<path fill="none" stroke="black" d="M325.955,-36.4049C321.274,-47.9696 315.038,-63.3756 309.744,-76.4568"/>
<polygon fill="black" stroke="black" points="306.427,-75.3222 305.919,-85.9048 312.916,-77.9486 306.427,-75.3222"/>
</g>
</g>
</svg>
