<?xml version="1.0" encoding="UTF-8" standalone="no"?>
<!DOCTYPE svg PUBLIC "-//W3C//DTD SVG 1.1//EN"
 "http://www.w3.org/Graphics/SVG/1.1/DTD/svg11.dtd">
<!-- Generated by graphviz version 2.38.0 (20140413.2041)
 -->
<!-- Title: foo Pages: 1 -->
<svg width="498pt" height="170pt"
 viewBox="0.00 0.00 498.00 170.00" xmlns="http://www.w3.org/2000/svg" xmlns:xlink="http://www.w3.org/1999/xlink">
<g id="graph0" class="graph" transform="scale(1 1) rotate(0) translate(4 166)">
<title>foo</title>
<g id="a_graph0"><a xlink:title=" ">
<polygon fill="#d9d9d9" stroke="none" points="-4,4 -4,-166 494,-166 494,4 -4,4"/>
<text text-anchor="start" x="201" y="-7.2" font-family="tahoma" font-size="11.00" fill="#525252">Spot the mistake?</text>
</a>
</g>
<!-- Output: student classwork scores -->
<g id="node1" class="node"><title>Output: student classwork scores</title>
<polygon fill="#fdd0a2" stroke="#fdd0a2" points="298,-110 172,-110 172,-72 298,-72 298,-110"/>
<text text-anchor="start" x="186.5" y="-94.8" font-family="Helvetica,sans-Serif" font-size="14.00">Output: student</text>
<text text-anchor="start" x="180" y="-79.8" font-family="Helvetica,sans-Serif" font-size="14.00">classwork scores</text>
</g>
<!-- Outcome: improved student exam results -->
<g id="node2" class="node"><title>Outcome: improved student exam results</title>
<polygon fill="#fd8d3c" stroke="#fd8d3c" points="490,-143.5 348,-143.5 348,-90.5 490,-90.5 490,-143.5"/>
<text text-anchor="start" x="356" y="-128.3" font-family="Helvetica,sans-Serif" font-size="14.00">Outcome: improved</text>
<text text-anchor="start" x="376.5" y="-113.3" font-family="Helvetica,sans-Serif" font-size="14.00">student exam</text>
<text text-anchor="start" x="397.5" y="-98.3" font-family="Helvetica,sans-Serif" font-size="14.00">results</text>
</g>
<!-- Output: student classwork scores&#45;&gt;Outcome: improved student exam results -->
<g id="edge1" class="edge"><title>Output: student classwork scores&#45;&gt;Outcome: improved student exam results</title>
<path fill="none" stroke="#737373" stroke-width="2" d="M298.125,-99.875C310.844,-101.692 324.403,-103.629 337.656,-105.522"/>
<polygon fill="#737373" stroke="#737373" stroke-width="2" points="337.318,-109.009 347.712,-106.959 338.308,-102.08 337.318,-109.009"/>
</g>
<!-- Activity: student workshop 1 held -->
<g id="node3" class="node"><title>Activity: student workshop 1 held</title>
<polygon fill="#fff5eb" stroke="#fff5eb" points="121,-110 1,-110 1,-72 121,-72 121,-110"/>
<text text-anchor="start" x="11.5" y="-94.8" font-family="Helvetica,sans-Serif" font-size="14.00">Activity: student</text>
<text text-anchor="start" x="9" y="-79.8" font-family="Helvetica,sans-Serif" font-size="14.00">workshop 1 held</text>
</g>
<!-- Activity: student workshop 1 held&#45;&gt;Output: student classwork scores -->
<g id="edge2" class="edge"><title>Activity: student workshop 1 held&#45;&gt;Output: student classwork scores</title>
<path fill="none" stroke="#737373" stroke-width="2" d="M121.193,-91C134.202,-91 148.121,-91 161.583,-91"/>
<polygon fill="#737373" stroke="#737373" stroke-width="2" points="161.767,-94.5001 171.767,-91 161.767,-87.5001 161.767,-94.5001"/>
</g>
<!-- Activity: students given laptops -->
<g id="node4" class="node"><title>Activity: students given laptops</title>
<polygon fill="#fff5eb" stroke="#fff5eb" points="122,-58 7.10543e-015,-58 7.10543e-015,-20 122,-20 122,-58"/>
<text text-anchor="start" x="8" y="-42.8" font-family="Helvetica,sans-Serif" font-size="14.00">Activity: students</text>
<text text-anchor="start" x="18.5" y="-27.8" font-family="Helvetica,sans-Serif" font-size="14.00">given laptops</text>
</g>
<!-- Activity: students given laptops&#45;&gt;Output: student classwork scores -->
<g id="edge3" class="edge"><title>Activity: students given laptops&#45;&gt;Output: student classwork scores</title>
<path fill="none" stroke="#737373" stroke-width="2" d="M122.157,-57.1871C135.098,-61.0993 148.898,-65.2716 162.23,-69.3021"/>
<polygon fill="#737373" stroke="#737373" stroke-width="2" points="161.251,-72.6624 171.836,-72.2061 163.276,-65.9619 161.251,-72.6624"/>
</g>
<!-- Output: student exam skills -->
<g id="node5" class="node"><title>Output: student exam skills</title>
<polygon fill="#fdd0a2" stroke="#fdd0a2" points="291.5,-162 178.5,-162 178.5,-124 291.5,-124 291.5,-162"/>
<text text-anchor="start" x="186.5" y="-146.8" font-family="Helvetica,sans-Serif" font-size="14.00">Output: student</text>
<text text-anchor="start" x="200" y="-131.8" font-family="Helvetica,sans-Serif" font-size="14.00">exam skills</text>
</g>
<!-- Output: student exam skills&#45;&gt;Outcome: improved student exam results -->
<g id="edge4" class="edge"><title>Output: student exam skills&#45;&gt;Outcome: improved student exam results</title>
<path fill="none" stroke="#737373" stroke-width="2" d="M291.595,-135.058C306.173,-132.975 322.187,-130.688 337.774,-128.461"/>
<polygon fill="#737373" stroke="#737373" stroke-width="2" points="338.531,-131.888 347.935,-127.009 337.541,-124.959 338.531,-131.888"/>
</g>
<!-- Activity: student workshop 2 held -->
<g id="node6" class="node"><title>Activity: student workshop 2 held</title>
<polygon fill="#fff5eb" stroke="#fff5eb" points="121,-162 1,-162 1,-124 121,-124 121,-162"/>
<text text-anchor="start" x="11.5" y="-146.8" font-family="Helvetica,sans-Serif" font-size="14.00">Activity: student</text>
<text text-anchor="start" x="9" y="-131.8" font-family="Helvetica,sans-Serif" font-size="14.00">workshop 2 held</text>
</g>
<!-- Activity: student workshop 2 held&#45;&gt;Output: student exam skills -->
<g id="edge5" class="edge"><title>Activity: student workshop 2 held&#45;&gt;Output: student exam skills</title>
<path fill="none" stroke="#737373" stroke-width="2" d="M121.193,-143C136.418,-143 152.889,-143 168.417,-143"/>
<polygon fill="#737373" stroke="#737373" stroke-width="2" points="168.463,-146.5 178.463,-143 168.463,-139.5 168.463,-146.5"/>
</g>
</g>
</svg>
