<?xml version="1.0" encoding="UTF-8" standalone="no"?>
<!DOCTYPE svg PUBLIC "-//W3C//DTD SVG 1.1//EN"
 "http://www.w3.org/Graphics/SVG/1.1/DTD/svg11.dtd">
<!-- Generated by graphviz version 2.38.0 (20140413.2041)
 -->
<!-- Title: foo Pages: 1 -->
<svg width="379pt" height="96pt"
 viewBox="0.00 0.00 379.00 96.00" xmlns="http://www.w3.org/2000/svg" xmlns:xlink="http://www.w3.org/1999/xlink">
<g id="graph0" class="graph" transform="scale(1 1) rotate(0) translate(4 92)">
<title>foo</title>
<g id="a_graph0"><a xlink:title=" ">
<polygon fill="#d9d9d9" stroke="none" points="-4,4 -4,-92 375,-92 375,4 -4,4"/>
<text text-anchor="start" x="176" y="-7.2" font-family="tahoma" font-size="11.00" fill="#525252">NO!</text>
</a>
</g>
<!-- Children&#39;s musical creativity is increased -->
<g id="node1" class="node"><title>Children&#39;s musical creativity is increased</title>
<polygon fill="#fee6ce" stroke="#fee6ce" points="235,-88 149,-88 149,-20 235,-20 235,-88"/>
<text text-anchor="start" x="160" y="-72.8" font-family="Helvetica,sans-Serif" font-size="14.00">Children&#39;s</text>
<text text-anchor="start" x="167.5" y="-57.8" font-family="Helvetica,sans-Serif" font-size="14.00">musical</text>
<text text-anchor="start" x="157" y="-42.8" font-family="Helvetica,sans-Serif" font-size="14.00">creativity is</text>
<text text-anchor="start" x="160.5" y="-27.8" font-family="Helvetica,sans-Serif" font-size="14.00">increased</text>
</g>
<!-- Children&#39;s general creativity is increased -->
<g id="node2" class="node"><title>Children&#39;s general creativity is increased</title>
<polygon fill="#fee6ce" stroke="#fee6ce" points="371,-88 285,-88 285,-20 371,-20 371,-88"/>
<text text-anchor="start" x="296" y="-72.8" font-family="Helvetica,sans-Serif" font-size="14.00">Children&#39;s</text>
<text text-anchor="start" x="304" y="-57.8" font-family="Helvetica,sans-Serif" font-size="14.00">general</text>
<text text-anchor="start" x="293" y="-42.8" font-family="Helvetica,sans-Serif" font-size="14.00">creativity is</text>
<text text-anchor="start" x="296.5" y="-27.8" font-family="Helvetica,sans-Serif" font-size="14.00">increased</text>
</g>
<!-- Children&#39;s musical creativity is increased&#45;&gt;Children&#39;s general creativity is increased -->
<g id="edge1" class="edge"><title>Children&#39;s musical creativity is increased&#45;&gt;Children&#39;s general creativity is increased</title>
<path fill="none" stroke="#737373" stroke-width="2" d="M235.031,-54C247.507,-54 261.331,-54 274.389,-54"/>
<polygon fill="#737373" stroke="#737373" stroke-width="2" points="274.658,-57.5001 284.658,-54 274.658,-50.5001 274.658,-57.5001"/>
</g>
<!-- Children take part in the project -->
<g id="node3" class="node"><title>Children take part in the project</title>
<polygon fill="#fee6ce" stroke="#fee6ce" points="99,-80.5 0,-80.5 0,-27.5 99,-27.5 99,-80.5"/>
<text text-anchor="start" x="8" y="-65.3" font-family="Helvetica,sans-Serif" font-size="14.00">Children take</text>
<text text-anchor="start" x="18.5" y="-50.3" font-family="Helvetica,sans-Serif" font-size="14.00">part in the</text>
<text text-anchor="start" x="27.5" y="-35.3" font-family="Helvetica,sans-Serif" font-size="14.00">project</text>
</g>
<!-- Children take part in the project&#45;&gt;Children&#39;s musical creativity is increased -->
<g id="edge2" class="edge"><title>Children take part in the project&#45;&gt;Children&#39;s musical creativity is increased</title>
<path fill="none" stroke="#737373" stroke-width="2" d="M99.2458,-54C112.004,-54 125.809,-54 138.742,-54"/>
<polygon fill="#737373" stroke="#737373" stroke-width="2" points="138.89,-57.5001 148.89,-54 138.89,-50.5001 138.89,-57.5001"/>
</g>
</g>
</svg>
