<?xml version="1.0" encoding="UTF-8" standalone="no"?>
<!DOCTYPE svg PUBLIC "-//W3C//DTD SVG 1.1//EN"
 "http://www.w3.org/Graphics/SVG/1.1/DTD/svg11.dtd">
<!-- Generated by graphviz version 2.38.0 (20140413.2041)
 -->
<!-- Title: foo Pages: 1 -->
<svg width="760pt" height="131pt"
 viewBox="0.00 0.00 760.00 131.24" xmlns="http://www.w3.org/2000/svg" xmlns:xlink="http://www.w3.org/1999/xlink">
<g id="graph0" class="graph" transform="scale(1 1) rotate(0) translate(4 127.241)">
<title>foo</title>
<g id="a_graph0"><a xlink:title=" ">
<polygon fill="white" stroke="none" points="-4,4 -4,-127.241 756,-127.241 756,4 -4,4"/>
</a>
</g>
<!-- c -->
<g id="node1" class="node"><title>c</title>
<polygon fill="#e5f5e0" stroke="#e5f5e0" stroke-width="2" points="314,-104.62 106,-104.62 106,-68.6205 314,-68.6205 314,-104.62"/>
<text text-anchor="start" x="114" y="-82.9205" font-family="arial" font-size="14.00">Some intermediate outcome 1</text>
</g>
<!-- a -->
<g id="node2" class="node"><title>a</title>
<polygon fill="#e5f5e0" stroke="#e5f5e0" stroke-width="2" points="548,-104.62 399,-104.62 399,-68.6205 548,-68.6205 548,-104.62"/>
<text text-anchor="start" x="407" y="-90.4205" font-family="arial" font-size="14.00">Official program goal</text>
<text text-anchor="start" x="438" y="-76.4205" font-family="arial" font-size="14.00">Officially: </text>
<text text-anchor="start" x="500" y="-76.4205" font-family="arial" font-size="14.00" fill="orange">♥</text>
</g>
<!-- c&#45;&gt;a -->
<g id="edge1" class="edge"><title>c&#45;&gt;a</title>
<path fill="none" stroke="#41ab5d" d="M314.352,-86.6205C339.085,-86.6205 365.188,-86.6205 388.902,-86.6205"/>
<polygon fill="#41ab5d" stroke="#41ab5d" points="388.907,-90.1206 398.907,-86.6205 388.907,-83.1206 388.907,-90.1206"/>
</g>
<!-- b -->
<g id="node3" class="node"><title>b</title>
<polygon fill="#e5f5e0" stroke="#e5f5e0" stroke-width="2" points="583,-54.6205 364,-54.6205 364,-18.6205 583,-18.6205 583,-54.6205"/>
<text text-anchor="start" x="372" y="-32.9205" font-family="arial" font-size="14.00">Some other interesting outcome</text>
</g>
<!-- c&#45;&gt;b -->
<g id="edge2" class="edge"><title>c&#45;&gt;b</title>
<path fill="none" stroke="#41ab5d" d="M305.408,-68.5693C325.775,-64.675 347.42,-60.5364 368.142,-56.5742"/>
<polygon fill="#41ab5d" stroke="#41ab5d" points="369.066,-59.961 378.231,-54.6451 367.752,-53.0855 369.066,-59.961"/>
</g>
<!-- Shared values !heart -->
<g id="node6" class="node"><title>Shared values !heart</title>
<polygon fill="none" stroke="#e5f5e0" stroke-width="2" points="752,-79.6205 633,-79.6205 633,-43.6205 752,-43.6205 752,-79.6205"/>
<text text-anchor="start" x="641" y="-58.9205" font-family="arial" font-size="14.00">Shared values </text>
<text text-anchor="start" x="735" y="-58.9205" font-family="arial" font-size="14.00" fill="orange">♥</text>
</g>
<!-- c&#45;&gt;Shared values !heart -->
<g id="edge9" class="edge"><title>c&#45;&gt;Shared values !heart</title>
<path fill="none" stroke="#41ab5d" stroke-dasharray="5,2" d="M289.972,-104.645C365.936,-119.011 483.577,-133.427 583,-111.62 607.245,-106.303 632.532,-95.0306 652.589,-84.5329"/>
<polygon fill="#41ab5d" stroke="#41ab5d" points="654.264,-87.6064 661.414,-79.7883 650.949,-81.441 654.264,-87.6064"/>
<text text-anchor="middle" x="652.442" y="-88.1093" font-family="Times New Roman,serif" font-size="14.00">֍</text>
</g>
<!-- a&#45;&gt;Shared values !heart -->
<g id="edge7" class="edge"><title>a&#45;&gt;Shared values !heart</title>
<path fill="none" stroke="#41ab5d" stroke-dasharray="5,2" d="M548.269,-78.1217C572.459,-75.3349 599.223,-72.2514 623.006,-69.5115"/>
<polygon fill="#41ab5d" stroke="#41ab5d" points="623.466,-72.9818 632.999,-68.3602 622.665,-66.0278 623.466,-72.9818"/>
<text text-anchor="middle" x="620.22" y="-72.5137" font-family="Times New Roman,serif" font-size="14.00">֍</text>
</g>
<!-- b&#45;&gt;Shared values !heart -->
<g id="edge8" class="edge"><title>b&#45;&gt;Shared values !heart</title>
<path fill="none" stroke="#41ab5d" stroke-dasharray="5,2" d="M583.318,-49.1571C596.836,-50.7145 610.347,-52.271 623.012,-53.7302"/>
<polygon fill="#41ab5d" stroke="#41ab5d" points="622.637,-57.2101 632.972,-54.8776 623.438,-50.2561 622.637,-57.2101"/>
<text text-anchor="middle" x="618.741" y="-55.9194" font-family="Times New Roman,serif" font-size="14.00">֍</text>
</g>
<!-- d -->
<g id="node4" class="node"><title>d</title>
<polygon fill="#e5f5e0" stroke="#e5f5e0" stroke-width="2" points="314,-54.6205 106,-54.6205 106,-18.6205 314,-18.6205 314,-54.6205"/>
<text text-anchor="start" x="114" y="-32.9205" font-family="arial" font-size="14.00">Some intermediate outcome 2</text>
</g>
<!-- d&#45;&gt;a -->
<g id="edge3" class="edge"><title>d&#45;&gt;a</title>
<path fill="none" stroke="#41ab5d" d="M305.408,-54.6716C332.649,-59.8804 362.178,-65.5264 388.726,-70.6025"/>
<polygon fill="#41ab5d" stroke="#41ab5d" points="388.265,-74.0776 398.744,-72.518 389.579,-67.2022 388.265,-74.0776"/>
</g>
<!-- d&#45;&gt;b -->
<g id="edge4" class="edge"><title>d&#45;&gt;b</title>
<path fill="none" stroke="#41ab5d" d="M314.352,-36.6205C327.321,-36.6205 340.666,-36.6205 353.846,-36.6205"/>
<polygon fill="#41ab5d" stroke="#41ab5d" points="353.884,-40.1206 363.884,-36.6205 353.884,-33.1206 353.884,-40.1206"/>
</g>
<!-- d&#45;&gt;Shared values !heart -->
<g id="edge10" class="edge"><title>d&#45;&gt;Shared values !heart</title>
<path fill="none" stroke="#41ab5d" stroke-dasharray="5,2" d="M289.972,-18.5963C365.936,-4.22993 483.577,10.186 583,-11.6205 607.245,-16.938 632.532,-28.2104 652.589,-38.7081"/>
<polygon fill="#41ab5d" stroke="#41ab5d" points="650.949,-41.8 661.414,-43.4527 654.264,-35.6346 650.949,-41.8"/>
<text text-anchor="middle" x="646.439" y="-38.8986" font-family="Times New Roman,serif" font-size="14.00">֍</text>
</g>
<!-- Inputs -->
<g id="node5" class="node"><title>Inputs</title>
<polygon fill="#e5f5e0" stroke="#e5f5e0" stroke-width="2" points="56,-79.6205 3.55271e-015,-79.6205 3.55271e-015,-43.6205 56,-43.6205 56,-79.6205"/>
<text text-anchor="start" x="8" y="-57.9205" font-family="arial" font-size="14.00">Inputs</text>
</g>
<!-- Inputs&#45;&gt;c -->
<g id="edge5" class="edge"><title>Inputs&#45;&gt;c</title>
<path fill="none" stroke="#41ab5d" d="M56.3381,-65.4174C67.4454,-66.9601 81.0804,-68.8539 95.5877,-70.8688"/>
<polygon fill="#41ab5d" stroke="#41ab5d" points="95.3637,-74.3712 105.75,-72.2802 96.3268,-67.4377 95.3637,-74.3712"/>
</g>
<!-- Inputs&#45;&gt;d -->
<g id="edge6" class="edge"><title>Inputs&#45;&gt;d</title>
<path fill="none" stroke="#41ab5d" d="M56.3381,-57.8235C67.4454,-56.2809 81.0804,-54.3871 95.5877,-52.3722"/>
<polygon fill="#41ab5d" stroke="#41ab5d" points="96.3268,-55.8032 105.75,-50.9607 95.3637,-48.8698 96.3268,-55.8032"/>
</g>
</g>
</svg>
