<?xml version="1.0" encoding="UTF-8" standalone="no"?>
<!DOCTYPE svg PUBLIC "-//W3C//DTD SVG 1.1//EN"
 "http://www.w3.org/Graphics/SVG/1.1/DTD/svg11.dtd">
<!-- Generated by graphviz version 2.38.0 (20140413.2041)
 -->
<!-- Title: foo Pages: 1 -->
<svg width="525pt" height="364pt"
 viewBox="0.00 0.00 525.00 364.00" xmlns="http://www.w3.org/2000/svg" xmlns:xlink="http://www.w3.org/1999/xlink">
<g id="graph0" class="graph" transform="scale(1 1) rotate(0) translate(4 360)">
<title>foo</title>
<g id="a_graph0"><a xlink:title=" ">
<polygon fill="#c7e9c0" stroke="none" points="-4,4 -4,-360 521,-360 521,4 -4,4"/>
<text text-anchor="start" x="220.5" y="-7.2" font-family="tahoma" font-size="11.00" fill="#238b45">Try this instead</text>
</a>
</g>
<!-- !do students receive laptops -->
<g id="node1" class="node"><title>!do students receive laptops</title>
<polygon fill="#f7fcf5" stroke="#f7fcf5" points="144,-176 3,-176 3,-140 144,-140 144,-176"/>
<text text-anchor="start" x="11" y="-161.8" font-family="Helvetica,sans-Serif" font-size="14.00" fill="green">▶ </text>
<text text-anchor="start" x="27" y="-161.8" font-family="Helvetica,sans-Serif" font-size="14.00" fill="#006d2c"> students receive</text>
<text text-anchor="start" x="50" y="-147.8" font-family="Helvetica,sans-Serif" font-size="14.00" fill="#006d2c">laptops</text>
</g>
<!-- students can pursue own study interests better//!heart  -->
<g id="node2" class="node"><title>students can pursue own study interests better//!heart </title>
<polygon fill="#f7fcf5" stroke="#f7fcf5" points="341,-274 197,-274 197,-206 341,-206 341,-274"/>
<text text-anchor="start" x="205" y="-258.8" font-family="Helvetica,sans-Serif" font-size="14.00" fill="#006d2c">students can pursue</text>
<text text-anchor="start" x="208.5" y="-243.8" font-family="Helvetica,sans-Serif" font-size="14.00" fill="#006d2c">own study interests</text>
<text text-anchor="start" x="250.5" y="-228.8" font-family="Helvetica,sans-Serif" font-size="14.00" fill="#006d2c">better</text>
<text text-anchor="start" x="264.5" y="-213.8" font-family="Helvetica,sans-Serif" font-size="14.00" fill="orange">♥</text>
</g>
<!-- !do students receive laptops&#45;&gt;students can pursue own study interests better//!heart  -->
<g id="edge1" class="edge"><title>!do students receive laptops&#45;&gt;students can pursue own study interests better//!heart </title>
<path fill="none" stroke="#41ab5d" stroke-width="2" d="M117.444,-176.198C137.987,-184.904 163.276,-195.621 187.222,-205.769"/>
<polygon fill="#41ab5d" stroke="#41ab5d" stroke-width="2" points="186.1,-209.094 196.673,-209.774 188.832,-202.649 186.1,-209.094"/>
</g>
<!-- students better able to apply for jobs //!heart -->
<g id="node3" class="node"><title>students better able to apply for jobs //!heart</title>
<polygon fill="#f7fcf5" stroke="#f7fcf5" points="328,-192 210,-192 210,-124 328,-124 328,-192"/>
<text text-anchor="start" x="221.5" y="-176.8" font-family="Helvetica,sans-Serif" font-size="14.00" fill="#006d2c">students better</text>
<text text-anchor="start" x="218" y="-161.8" font-family="Helvetica,sans-Serif" font-size="14.00" fill="#006d2c">able to apply for</text>
<text text-anchor="start" x="253.5" y="-146.8" font-family="Helvetica,sans-Serif" font-size="14.00" fill="#006d2c">jobs </text>
<text text-anchor="start" x="264.5" y="-131.8" font-family="Helvetica,sans-Serif" font-size="14.00" fill="orange">♥</text>
</g>
<!-- !do students receive laptops&#45;&gt;students better able to apply for jobs //!heart -->
<g id="edge2" class="edge"><title>!do students receive laptops&#45;&gt;students better able to apply for jobs //!heart</title>
<path fill="none" stroke="#41ab5d" stroke-width="2" d="M144.085,-158C162.193,-158 181.683,-158 199.723,-158"/>
<polygon fill="#41ab5d" stroke="#41ab5d" stroke-width="2" points="199.865,-161.5 209.865,-158 199.865,-154.5 199.865,-161.5"/>
</g>
<!-- improved student classwork -->
<g id="node4" class="node"><title>improved student classwork</title>
<polygon fill="#f7fcf5" stroke="#f7fcf5" points="332,-110 206,-110 206,-72 332,-72 332,-110"/>
<text text-anchor="start" x="214" y="-94.8" font-family="Helvetica,sans-Serif" font-size="14.00" fill="#006d2c">improved student</text>
<text text-anchor="start" x="237.5" y="-79.8" font-family="Helvetica,sans-Serif" font-size="14.00" fill="#006d2c">classwork</text>
</g>
<!-- !do students receive laptops&#45;&gt;improved student classwork -->
<g id="edge5" class="edge"><title>!do students receive laptops&#45;&gt;improved student classwork</title>
<path fill="none" stroke="#41ab5d" stroke-width="2" d="M126.609,-139.957C150.227,-131.779 178.39,-122.028 203.342,-113.388"/>
<polygon fill="#41ab5d" stroke="#41ab5d" stroke-width="2" points="204.787,-116.592 213.091,-110.012 202.496,-109.977 204.787,-116.592"/>
</g>
<!-- improved student exam results//!heart -->
<g id="node5" class="node"><title>improved student exam results//!heart</title>
<polygon fill="#f7fcf5" stroke="#f7fcf5" points="517,-91.5 391,-91.5 391,-38.5 517,-38.5 517,-91.5"/>
<text text-anchor="start" x="399" y="-76.3" font-family="Helvetica,sans-Serif" font-size="14.00" fill="#006d2c">improved student</text>
<text text-anchor="start" x="413.5" y="-61.3" font-family="Helvetica,sans-Serif" font-size="14.00" fill="#006d2c">exam results</text>
<text text-anchor="start" x="449.5" y="-46.3" font-family="Helvetica,sans-Serif" font-size="14.00" fill="orange">♥</text>
</g>
<!-- improved student classwork&#45;&gt;improved student exam results//!heart -->
<g id="edge3" class="edge"><title>improved student classwork&#45;&gt;improved student exam results//!heart</title>
<path fill="none" stroke="#41ab5d" stroke-width="2" d="M332.211,-82.1613C347.914,-79.9303 364.903,-77.5165 381.042,-75.2236"/>
<polygon fill="#41ab5d" stroke="#41ab5d" stroke-width="2" points="381.553,-78.6862 390.961,-73.8142 380.568,-71.7558 381.553,-78.6862"/>
</g>
<!-- !do student workshop 1 -->
<g id="node6" class="node"><title>!do student workshop 1</title>
<polygon fill="#f7fcf5" stroke="#f7fcf5" points="147,-109 0,-109 0,-73 147,-73 147,-109"/>
<text text-anchor="start" x="8" y="-94.8" font-family="Helvetica,sans-Serif" font-size="14.00" fill="green">▶ </text>
<text text-anchor="start" x="24" y="-94.8" font-family="Helvetica,sans-Serif" font-size="14.00" fill="#006d2c"> student workshop</text>
<text text-anchor="start" x="69" y="-80.8" font-family="Helvetica,sans-Serif" font-size="14.00" fill="#006d2c">1</text>
</g>
<!-- !do student workshop 1&#45;&gt;improved student classwork -->
<g id="edge4" class="edge"><title>!do student workshop 1&#45;&gt;improved student classwork</title>
<path fill="none" stroke="#41ab5d" stroke-width="2" d="M147.103,-91C162.937,-91 179.694,-91 195.523,-91"/>
<polygon fill="#41ab5d" stroke="#41ab5d" stroke-width="2" points="195.773,-94.5001 205.773,-91 195.773,-87.5001 195.773,-94.5001"/>
</g>
<!-- improved student exam skills -->
<g id="node7" class="node"><title>improved student exam skills</title>
<polygon fill="#f7fcf5" stroke="#f7fcf5" points="332,-58 206,-58 206,-20 332,-20 332,-58"/>
<text text-anchor="start" x="214" y="-42.8" font-family="Helvetica,sans-Serif" font-size="14.00" fill="#006d2c">improved student</text>
<text text-anchor="start" x="234" y="-27.8" font-family="Helvetica,sans-Serif" font-size="14.00" fill="#006d2c">exam skills</text>
</g>
<!-- improved student exam skills&#45;&gt;improved student exam results//!heart -->
<g id="edge6" class="edge"><title>improved student exam skills&#45;&gt;improved student exam results//!heart</title>
<path fill="none" stroke="#41ab5d" stroke-width="2" d="M332.211,-47.8387C347.914,-50.0697 364.903,-52.4835 381.042,-54.7764"/>
<polygon fill="#41ab5d" stroke="#41ab5d" stroke-width="2" points="380.568,-58.2442 390.961,-56.1858 381.553,-51.3138 380.568,-58.2442"/>
</g>
<!-- !do student workshop 2 -->
<g id="node8" class="node"><title>!do student workshop 2</title>
<polygon fill="#f7fcf5" stroke="#f7fcf5" points="147,-57 0,-57 0,-21 147,-21 147,-57"/>
<text text-anchor="start" x="8" y="-42.8" font-family="Helvetica,sans-Serif" font-size="14.00" fill="green">▶ </text>
<text text-anchor="start" x="24" y="-42.8" font-family="Helvetica,sans-Serif" font-size="14.00" fill="#006d2c"> student workshop</text>
<text text-anchor="start" x="69" y="-28.8" font-family="Helvetica,sans-Serif" font-size="14.00" fill="#006d2c">2</text>
</g>
<!-- !do student workshop 2&#45;&gt;improved student exam skills -->
<g id="edge7" class="edge"><title>!do student workshop 2&#45;&gt;improved student exam skills</title>
<path fill="none" stroke="#41ab5d" stroke-width="2" d="M147.103,-39C162.937,-39 179.694,-39 195.523,-39"/>
<polygon fill="#41ab5d" stroke="#41ab5d" stroke-width="2" points="195.773,-42.5001 205.773,-39 195.773,-35.5001 195.773,-42.5001"/>
</g>
<!-- student workshop 1 -->
<g id="node9" class="node"><title>student workshop 1</title>
<polygon fill="#f7fcf5" stroke="#f7fcf5" points="143.5,-340 3.5,-340 3.5,-304 143.5,-304 143.5,-340"/>
<text text-anchor="start" x="11.5" y="-318.3" font-family="Helvetica,sans-Serif" font-size="14.00" fill="#006d2c">student workshop 1</text>
</g>
<!-- students can pursue own study interests better//!heart -->
<g id="node10" class="node"><title>students can pursue own study interests better//!heart</title>
<polygon fill="#f7fcf5" stroke="#f7fcf5" points="341,-356 197,-356 197,-288 341,-288 341,-356"/>
<text text-anchor="start" x="205" y="-340.8" font-family="Helvetica,sans-Serif" font-size="14.00" fill="#006d2c">students can pursue</text>
<text text-anchor="start" x="208.5" y="-325.8" font-family="Helvetica,sans-Serif" font-size="14.00" fill="#006d2c">own study interests</text>
<text text-anchor="start" x="250.5" y="-310.8" font-family="Helvetica,sans-Serif" font-size="14.00" fill="#006d2c">better</text>
<text text-anchor="start" x="264.5" y="-295.8" font-family="Helvetica,sans-Serif" font-size="14.00" fill="orange">♥</text>
</g>
<!-- student workshop 1&#45;&gt;students can pursue own study interests better//!heart -->
<g id="edge8" class="edge"><title>student workshop 1&#45;&gt;students can pursue own study interests better//!heart</title>
<path fill="none" stroke="#41ab5d" stroke-width="2" d="M143.538,-322C157.425,-322 172.144,-322 186.411,-322"/>
<polygon fill="#41ab5d" stroke="#41ab5d" stroke-width="2" points="186.702,-325.5 196.702,-322 186.702,-318.5 186.702,-325.5"/>
</g>
</g>
</svg>
