<?xml version="1.0" encoding="UTF-8" standalone="no"?>
<!DOCTYPE svg PUBLIC "-//W3C//DTD SVG 1.1//EN"
 "http://www.w3.org/Graphics/SVG/1.1/DTD/svg11.dtd">
<!-- Generated by graphviz version 2.38.0 (20140413.2041)
 -->
<!-- Title: foo Pages: 1 -->
<svg width="309pt" height="66pt"
 viewBox="0.00 0.00 309.00 66.32" xmlns="http://www.w3.org/2000/svg" xmlns:xlink="http://www.w3.org/1999/xlink">
<g id="graph0" class="graph" transform="scale(1 1) rotate(0) translate(4 62.319)">
<title>foo</title>
<g id="a_graph0"><a xlink:title=" ">
<polygon fill="white" stroke="none" points="-4,4 -4,-62.319 305,-62.319 305,4 -4,4"/>
</a>
</g>
<!-- axsxdf -->
<!-- Subjective temperature !lohi -->
<g id="node2" class="node"><title>Subjective temperature !lohi</title>
<polygon fill="#e5f5e0" stroke="#e5f5e0" stroke-width="2" points="301,-38 193,-38 193,-0 301,-0 301,-38"/>
<text text-anchor="start" x="213.5" y="-22.8" font-family="arial" font-size="14.00">Subjective</text>
<text text-anchor="start" x="201" y="-7.8" font-family="arial" font-size="14.00">temperature ◪</text>
</g>
<!-- axsxdf&#45;&gt;Subjective temperature !lohi -->
<g id="edge1" class="edge"><title>axsxdf&#45;&gt;Subjective temperature !lohi</title>
<path fill="none" stroke="#41ab5d" stroke-width="0" d="M55.0324,-57.5053C76.198,-58.3377 126.858,-59.0954 168,-50 177.091,-47.9903 186.502,-45.0529 195.508,-41.776"/>
<polygon fill="#41ab5d" stroke="#41ab5d" stroke-width="0" points="196.995,-44.9544 205.087,-38.1147 194.496,-38.4158 196.995,-44.9544"/>
</g>
<!-- Strength of sunshine !lohi -->
<g id="node3" class="node"><title>Strength of sunshine !lohi</title>
<polygon fill="#e5f5e0" stroke="#e5f5e0" stroke-width="2" points="88,-38 0,-38 0,-0 88,-0 88,-38"/>
<text text-anchor="start" x="9" y="-22.8" font-family="arial" font-size="14.00">Strength of</text>
<text text-anchor="start" x="8" y="-7.8" font-family="arial" font-size="14.00">sunshine ◪</text>
</g>
<!-- Strength of sunshine !lohi&#45;&gt;Subjective temperature !lohi -->
<g id="edge2" class="edge"><title>Strength of sunshine !lohi&#45;&gt;Subjective temperature !lohi</title>
<path fill="none" stroke="#41ab5d" d="M88.1195,-19C115.687,-19 151.917,-19 182.716,-19"/>
<polygon fill="#41ab5d" stroke="#41ab5d" points="182.933,-22.5001 192.933,-19 182.933,-15.5001 182.933,-22.5001"/>
<text text-anchor="start" x="113" y="-37.8" font-family="Times New Roman,serif" font-size="14.00">Influence:</text>
<text text-anchor="start" x="128.5" y="-22.8" font-family="Times New Roman,serif" font-size="14.00">plus</text>
</g>
</g>
</svg>
