<?xml version="1.0" encoding="UTF-8" standalone="no"?>
<!DOCTYPE svg PUBLIC "-//W3C//DTD SVG 1.1//EN"
 "http://www.w3.org/Graphics/SVG/1.1/DTD/svg11.dtd">
<!-- Generated by graphviz version 2.38.0 (20140413.2041)
 -->
<!-- Title: foo Pages: 1 -->
<svg width="388pt" height="195pt"
 viewBox="0.00 0.00 388.00 195.00" xmlns="http://www.w3.org/2000/svg" xmlns:xlink="http://www.w3.org/1999/xlink">
<g id="graph0" class="graph" transform="scale(1 1) rotate(0) translate(4 191)">
<title>foo</title>
<g id="a_graph0"><a xlink:title=" ">
<polygon fill="white" stroke="none" points="-4,4 -4,-191 384,-191 384,4 -4,4"/>
</a>
</g>
<!-- day Monday: Voter hears the day&#39;s speeches -->
<g id="node1" class="node"><title>day Monday: Voter hears the day&#39;s speeches</title>
<polygon fill="#efedf5" stroke="#efedf5" stroke-width="2" points="152.5,-187 13.5,-187 13.5,-134 152.5,-134 152.5,-187"/>
<text text-anchor="start" x="21.5" y="-171.8" font-family="arial" font-size="14.00">day=Monday: Voter</text>
<text text-anchor="start" x="35" y="-156.8" font-family="arial" font-size="14.00">hears the day&#39;s</text>
<text text-anchor="start" x="51" y="-141.8" font-family="arial" font-size="14.00">speeches</text>
</g>
<!-- day Election Thursday: Voter decides to vote for Tory party -->
<g id="node2" class="node"><title>day Election Thursday: Voter decides to vote for Tory party</title>
<polygon fill="#e5f5e0" stroke="#e5f5e0" stroke-width="2" points="380,-120 216,-120 216,-67 380,-67 380,-120"/>
<text text-anchor="start" x="224" y="-104.8" font-family="arial" font-size="14.00">day=Election Thursday:</text>
<text text-anchor="start" x="230" y="-89.8" font-family="arial" font-size="14.00">Voter decides to vote</text>
<text text-anchor="start" x="255.5" y="-74.8" font-family="arial" font-size="14.00">for Tory party</text>
</g>
<!-- day Monday: Voter hears the day&#39;s speeches&#45;&gt;day Election Thursday: Voter decides to vote for Tory party -->
<g id="edge1" class="edge"><title>day Monday: Voter hears the day&#39;s speeches&#45;&gt;day Election Thursday: Voter decides to vote for Tory party</title>
<path fill="none" stroke="#41ab5d" d="M152.567,-138.932C169.601,-133.574 188.123,-127.748 206.046,-122.11"/>
<polygon fill="#41ab5d" stroke="#41ab5d" points="207.439,-125.341 215.928,-119.002 205.339,-118.663 207.439,-125.341"/>
</g>
<!-- day Tuesday: Voter hears the day&#39;s speeches -->
<g id="node3" class="node"><title>day Tuesday: Voter hears the day&#39;s speeches</title>
<polygon fill="#efedf5" stroke="#efedf5" stroke-width="2" points="155,-120 11,-120 11,-67 155,-67 155,-120"/>
<text text-anchor="start" x="19" y="-104.8" font-family="arial" font-size="14.00">day=Tuesday: Voter</text>
<text text-anchor="start" x="35" y="-89.8" font-family="arial" font-size="14.00">hears the day&#39;s</text>
<text text-anchor="start" x="51" y="-74.8" font-family="arial" font-size="14.00">speeches</text>
</g>
<!-- day Tuesday: Voter hears the day&#39;s speeches&#45;&gt;day Election Thursday: Voter decides to vote for Tory party -->
<g id="edge2" class="edge"><title>day Tuesday: Voter hears the day&#39;s speeches&#45;&gt;day Election Thursday: Voter decides to vote for Tory party</title>
<path fill="none" stroke="#41ab5d" d="M155.222,-93.5C171.347,-93.5 188.687,-93.5 205.518,-93.5"/>
<polygon fill="#41ab5d" stroke="#41ab5d" points="205.916,-97.0001 215.915,-93.5 205.915,-90.0001 205.916,-97.0001"/>
</g>
<!-- day Wednesday: Voter hears the day&#39;s speeches -->
<g id="node4" class="node"><title>day Wednesday: Voter hears the day&#39;s speeches</title>
<polygon fill="#efedf5" stroke="#efedf5" stroke-width="2" points="166,-53 0,-53 0,-0 166,-0 166,-53"/>
<text text-anchor="start" x="8" y="-37.8" font-family="arial" font-size="14.00">day=Wednesday: Voter</text>
<text text-anchor="start" x="35" y="-22.8" font-family="arial" font-size="14.00">hears the day&#39;s</text>
<text text-anchor="start" x="51" y="-7.8" font-family="arial" font-size="14.00">speeches</text>
</g>
<!-- day Wednesday: Voter hears the day&#39;s speeches&#45;&gt;day Election Thursday: Voter decides to vote for Tory party -->
<g id="edge3" class="edge"><title>day Wednesday: Voter hears the day&#39;s speeches&#45;&gt;day Election Thursday: Voter decides to vote for Tory party</title>
<path fill="none" stroke="#41ab5d" d="M166.047,-52.3081C179.155,-56.4314 192.786,-60.719 206.085,-64.9023"/>
<polygon fill="#41ab5d" stroke="#41ab5d" points="205.109,-68.2642 215.698,-67.9262 207.209,-61.5868 205.109,-68.2642"/>
</g>
</g>
</svg>
