<?xml version="1.0" encoding="UTF-8" standalone="no"?>
<!DOCTYPE svg PUBLIC "-//W3C//DTD SVG 1.1//EN"
 "http://www.w3.org/Graphics/SVG/1.1/DTD/svg11.dtd">
<!-- Generated by graphviz version 2.38.0 (20140413.2041)
 -->
<!-- Title: foo Pages: 1 -->
<svg width="560pt" height="164pt"
 viewBox="0.00 0.00 560.00 163.50" xmlns="http://www.w3.org/2000/svg" xmlns:xlink="http://www.w3.org/1999/xlink">
<g id="graph0" class="graph" transform="scale(1 1) rotate(0) translate(4 159.5)">
<title>foo</title>
<g id="a_graph0"><a xlink:title=" ">
<polygon fill="#c7e9c0" stroke="none" points="-4,4 -4,-159.5 556,-159.5 556,4 -4,4"/>
<text text-anchor="start" x="238" y="-7.2" font-family="tahoma" font-size="11.00" fill="#238b45">Try this instead</text>
</a>
</g>
<!-- improved student exam results -->
<g id="node1" class="node"><title>improved student exam results</title>
<polygon fill="#f7fcf5" stroke="#f7fcf5" points="407,-110 306,-110 306,-57 407,-57 407,-110"/>
<text text-anchor="start" x="326.5" y="-94.8" font-family="Helvetica,sans-Serif" font-size="14.00" fill="#006d2c">improved</text>
<text text-anchor="start" x="314" y="-79.8" font-family="Helvetica,sans-Serif" font-size="14.00" fill="#006d2c">student exam</text>
<text text-anchor="start" x="335" y="-64.8" font-family="Helvetica,sans-Serif" font-size="14.00" fill="#006d2c">results</text>
</g>
<!-- improved student employment prospects//!heart -->
<g id="node2" class="node"><title>improved student employment prospects//!heart</title>
<polygon fill="#f7fcf5" stroke="#f7fcf5" points="552,-125 457,-125 457,-42 552,-42 552,-125"/>
<text text-anchor="start" x="474.5" y="-109.8" font-family="Helvetica,sans-Serif" font-size="14.00" fill="#006d2c">improved</text>
<text text-anchor="start" x="481" y="-94.8" font-family="Helvetica,sans-Serif" font-size="14.00" fill="#006d2c">student</text>
<text text-anchor="start" x="465" y="-79.8" font-family="Helvetica,sans-Serif" font-size="14.00" fill="#006d2c">employment</text>
<text text-anchor="start" x="472.5" y="-64.8" font-family="Helvetica,sans-Serif" font-size="14.00" fill="#006d2c">prospects</text>
<text text-anchor="start" x="500" y="-49.8" font-family="Helvetica,sans-Serif" font-size="14.00" fill="orange">♥</text>
</g>
<!-- improved student exam results&#45;&gt;improved student employment prospects//!heart -->
<g id="edge1" class="edge"><title>improved student exam results&#45;&gt;improved student employment prospects//!heart</title>
<path fill="none" stroke="#41ab5d" stroke-width="2" d="M407.337,-83.5C419.982,-83.5 433.662,-83.5 446.627,-83.5"/>
<polygon fill="#41ab5d" stroke="#41ab5d" stroke-width="2" points="446.839,-87.0001 456.839,-83.5 446.839,-80.0001 446.839,-87.0001"/>
</g>
<!-- improved student self&#45;confidence//!heart -->
<g id="node3" class="node"><title>improved student self&#45;confidence//!heart</title>
<polygon fill="#f7fcf5" stroke="#f7fcf5" points="256,-155.5 141,-155.5 141,-87.5 256,-87.5 256,-155.5"/>
<text text-anchor="start" x="168.5" y="-140.3" font-family="Helvetica,sans-Serif" font-size="14.00" fill="#006d2c">improved</text>
<text text-anchor="start" x="175" y="-125.3" font-family="Helvetica,sans-Serif" font-size="14.00" fill="#006d2c">student</text>
<text text-anchor="start" x="149" y="-110.3" font-family="Helvetica,sans-Serif" font-size="14.00" fill="#006d2c">self&#45;confidence</text>
<text text-anchor="start" x="194" y="-95.3" font-family="Helvetica,sans-Serif" font-size="14.00" fill="orange">♥</text>
</g>
<!-- improved student self&#45;confidence//!heart&#45;&gt;improved student exam results -->
<g id="edge2" class="edge"><title>improved student self&#45;confidence//!heart&#45;&gt;improved student exam results</title>
<path fill="none" stroke="#41ab5d" stroke-width="2" d="M256.261,-107.674C269.243,-104.511 283.074,-101.142 296.161,-97.9543"/>
<polygon fill="#41ab5d" stroke="#41ab5d" stroke-width="2" points="297.11,-101.326 305.997,-95.5583 295.453,-94.5245 297.11,-101.326"/>
</g>
<!-- !do students attend workshop -->
<g id="node4" class="node"><title>!do students attend workshop</title>
<polygon fill="#f7fcf5" stroke="#f7fcf5" points="90.5,-146.5 0.5,-146.5 0.5,-96.5 90.5,-96.5 90.5,-146.5"/>
<text text-anchor="start" x="8.5" y="-132.3" font-family="Helvetica,sans-Serif" font-size="14.00" fill="green">▶ </text>
<text text-anchor="start" x="24.5" y="-132.3" font-family="Helvetica,sans-Serif" font-size="14.00" fill="#006d2c"> students</text>
<text text-anchor="start" x="25.5" y="-118.3" font-family="Helvetica,sans-Serif" font-size="14.00" fill="#006d2c">attend</text>
<text text-anchor="start" x="15" y="-104.3" font-family="Helvetica,sans-Serif" font-size="14.00" fill="#006d2c">workshop</text>
</g>
<!-- !do students attend workshop&#45;&gt;improved student self&#45;confidence//!heart -->
<g id="edge3" class="edge"><title>!do students attend workshop&#45;&gt;improved student self&#45;confidence//!heart</title>
<path fill="none" stroke="#41ab5d" stroke-width="2" d="M90.5814,-121.5C103.137,-121.5 117.104,-121.5 130.69,-121.5"/>
<polygon fill="#41ab5d" stroke="#41ab5d" stroke-width="2" points="130.975,-125 140.975,-121.5 130.975,-118 130.975,-125"/>
</g>
<!-- improved teacher skills -->
<g id="node5" class="node"><title>improved teacher skills</title>
<polygon fill="#f7fcf5" stroke="#f7fcf5" points="236.5,-73 160.5,-73 160.5,-20 236.5,-20 236.5,-73"/>
<text text-anchor="start" x="168.5" y="-57.8" font-family="Helvetica,sans-Serif" font-size="14.00" fill="#006d2c">improved</text>
<text text-anchor="start" x="174.5" y="-42.8" font-family="Helvetica,sans-Serif" font-size="14.00" fill="#006d2c">teacher</text>
<text text-anchor="start" x="183" y="-27.8" font-family="Helvetica,sans-Serif" font-size="14.00" fill="#006d2c">skills</text>
</g>
<!-- improved teacher skills&#45;&gt;improved student exam results -->
<g id="edge4" class="edge"><title>improved teacher skills&#45;&gt;improved student exam results</title>
<path fill="none" stroke="#41ab5d" stroke-width="2" d="M236.866,-55.3624C254.524,-59.5506 276.038,-64.6532 295.871,-69.3572"/>
<polygon fill="#41ab5d" stroke="#41ab5d" stroke-width="2" points="295.215,-72.7987 305.753,-71.701 296.83,-65.9876 295.215,-72.7987"/>
</g>
<!-- !do teachers attend workshop -->
<g id="node6" class="node"><title>!do teachers attend workshop</title>
<polygon fill="#f7fcf5" stroke="#f7fcf5" points="91,-71.5 0,-71.5 0,-21.5 91,-21.5 91,-71.5"/>
<text text-anchor="start" x="8" y="-57.3" font-family="Helvetica,sans-Serif" font-size="14.00" fill="green">▶ </text>
<text text-anchor="start" x="24" y="-57.3" font-family="Helvetica,sans-Serif" font-size="14.00" fill="#006d2c"> teachers</text>
<text text-anchor="start" x="25.5" y="-43.3" font-family="Helvetica,sans-Serif" font-size="14.00" fill="#006d2c">attend</text>
<text text-anchor="start" x="15" y="-29.3" font-family="Helvetica,sans-Serif" font-size="14.00" fill="#006d2c">workshop</text>
</g>
<!-- !do teachers attend workshop&#45;&gt;improved teacher skills -->
<g id="edge5" class="edge"><title>!do teachers attend workshop&#45;&gt;improved teacher skills</title>
<path fill="none" stroke="#41ab5d" stroke-width="2" d="M91.3961,-46.5C109.881,-46.5 131.311,-46.5 150.053,-46.5"/>
<polygon fill="#41ab5d" stroke="#41ab5d" stroke-width="2" points="150.153,-50.0001 160.153,-46.5 150.153,-43.0001 150.153,-50.0001"/>
</g>
</g>
</svg>
