<?xml version="1.0" encoding="UTF-8" standalone="no"?>
<!DOCTYPE svg PUBLIC "-//W3C//DTD SVG 1.1//EN"
 "http://www.w3.org/Graphics/SVG/1.1/DTD/svg11.dtd">
<!-- Generated by graphviz version 2.38.0 (20140413.2041)
 -->
<!-- Title: foo Pages: 1 -->
<svg width="436pt" height="121pt"
 viewBox="0.00 0.00 436.00 121.00" xmlns="http://www.w3.org/2000/svg" xmlns:xlink="http://www.w3.org/1999/xlink">
<g id="graph0" class="graph" transform="scale(1 1) rotate(0) translate(4 117)">
<title>foo</title>
<g id="a_graph0"><a xlink:title=" ">
<polygon fill="white" stroke="none" points="-4,4 -4,-117 432,-117 432,4 -4,4"/>
</a>
</g>
<!-- Teaching quality ((20% improvement)) -->
<g id="node1" class="node"><title>Teaching quality ((20% improvement))</title>
<polygon fill="#e5f5e0" stroke="#e5f5e0" stroke-width="2" points="266,-90.5 158,-90.5 158,-22.5 266,-22.5 266,-90.5"/>
<text text-anchor="start" x="182.5" y="-75.3" font-family="arial" font-size="14.00">Teaching</text>
<text text-anchor="start" x="192" y="-60.3" font-family="arial" font-size="14.00">quality</text>
<text text-anchor="start" x="192.5" y="-45.3" font-family="arial" font-size="14.00" fill="green">((20%</text>
<text text-anchor="start" x="166" y="-30.3" font-family="arial" font-size="14.00" fill="green">improvement))</text>
</g>
<!-- Student achievement !smile ((10% improvement)) -->
<g id="node2" class="node"><title>Student achievement !smile ((10% improvement))</title>
<polygon fill="#e5f5e0" stroke="#e5f5e0" stroke-width="2" points="428,-90.5 316,-90.5 316,-22.5 428,-22.5 428,-90.5"/>
<text text-anchor="start" x="347.5" y="-75.3" font-family="arial" font-size="14.00">Student</text>
<text text-anchor="start" x="324" y="-60.3" font-family="arial" font-size="14.00">achievement 🙂</text>
<text text-anchor="start" x="352.5" y="-45.3" font-family="arial" font-size="14.00" fill="green">((10%</text>
<text text-anchor="start" x="326" y="-30.3" font-family="arial" font-size="14.00" fill="green">improvement))</text>
</g>
<!-- Teaching quality ((20% improvement))&#45;&gt;Student achievement !smile ((10% improvement)) -->
<g id="edge1" class="edge"><title>Teaching quality ((20% improvement))&#45;&gt;Student achievement !smile ((10% improvement))</title>
<path fill="none" stroke="#41ab5d" d="M266.051,-56.5C278.839,-56.5 292.647,-56.5 305.915,-56.5"/>
<polygon fill="#41ab5d" stroke="#41ab5d" points="305.929,-60.0001 315.929,-56.5 305.929,-53.0001 305.929,-60.0001"/>
</g>
<!-- !rwedge Quality of teacher training ((50% improvement)) -->
<g id="node3" class="node"><title>!rwedge Quality of teacher training ((50% improvement))</title>
<polygon fill="#e5f5e0" stroke="#e5f5e0" stroke-width="2" points="108,-113 0,-113 0,-0 108,-0 108,-113"/>
<text text-anchor="start" x="46.5" y="-97.8" font-family="arial" font-size="14.00">►</text>
<text text-anchor="start" x="32.5" y="-82.8" font-family="arial" font-size="14.00">Quality</text>
<text text-anchor="start" x="47.5" y="-67.8" font-family="arial" font-size="14.00">of</text>
<text text-anchor="start" x="30" y="-52.8" font-family="arial" font-size="14.00">teacher</text>
<text text-anchor="start" x="31" y="-37.8" font-family="arial" font-size="14.00">training</text>
<text text-anchor="start" x="34.5" y="-22.8" font-family="arial" font-size="14.00" fill="green">((50%</text>
<text text-anchor="start" x="8" y="-7.8" font-family="arial" font-size="14.00" fill="green">improvement))</text>
</g>
<!-- !rwedge Quality of teacher training ((50% improvement))&#45;&gt;Teaching quality ((20% improvement)) -->
<g id="edge2" class="edge"><title>!rwedge Quality of teacher training ((50% improvement))&#45;&gt;Teaching quality ((20% improvement))</title>
<path fill="none" stroke="#41ab5d" d="M108.25,-56.5C120.926,-56.5 134.574,-56.5 147.653,-56.5"/>
<polygon fill="#41ab5d" stroke="#41ab5d" points="147.99,-60.0001 157.99,-56.5 147.99,-53.0001 147.99,-60.0001"/>
</g>
</g>
</svg>
