<?xml version="1.0" encoding="UTF-8" standalone="no"?>
<!DOCTYPE svg PUBLIC "-//W3C//DTD SVG 1.1//EN"
 "http://www.w3.org/Graphics/SVG/1.1/DTD/svg11.dtd">
<!-- Generated by graphviz version 2.38.0 (20140413.2041)
 -->
<!-- Title: foo Pages: 1 -->
<svg width="402pt" height="185pt"
 viewBox="0.00 0.00 402.00 185.00" xmlns="http://www.w3.org/2000/svg" xmlns:xlink="http://www.w3.org/1999/xlink">
<g id="graph0" class="graph" transform="scale(1 1) rotate(0) translate(4 181)">
<title>foo</title>
<g id="a_graph0"><a xlink:title=" ">
<polygon fill="white" stroke="none" points="-4,4 -4,-181 398,-181 398,4 -4,4"/>
</a>
</g>
<g id="clust1" class="cluster"><title>cluster_Outcomes</title>
<g id="a_clust1"><a xlink:title=" ">
<path fill="#fcfbfd" stroke="#dadaeb" d="M116,-8C116,-8 374,-8 374,-8 380,-8 386,-14 386,-20 386,-20 386,-157 386,-157 386,-163 380,-169 374,-169 374,-169 116,-169 116,-169 110,-169 104,-163 104,-157 104,-157 104,-20 104,-20 104,-14 110,-8 116,-8"/>
<text text-anchor="start" x="112" y="-153.8" font-family="arial" font-size="14.00">Outcomes</text>
</a>
</g>
</g>
<!-- Employment -->
<g id="node1" class="node"><title>Employment</title>
<polygon fill="#e5f5e0" stroke="#e5f5e0" stroke-width="2" points="96,-138 0,-138 0,-102 96,-102 96,-138"/>
<text text-anchor="start" x="8" y="-116.3" font-family="arial" font-size="14.00">Employment</text>
</g>
<!-- Outcomes -->
<!-- Employment&#45;&gt;Outcomes -->
<g id="edge1" class="edge"><title>Employment&#45;&gt;Outcomes</title>
<path fill="none" stroke="#41ab5d" d="M69.7065,-101.799C77.574,-95.564 86.8749,-88.1935 96.3755,-80.6647"/>
<polygon fill="#41ab5d" stroke="#41ab5d" points="98.7122,-83.2787 104.376,-74.3248 94.3646,-77.7925 98.7122,-83.2787"/>
</g>
<!-- Income -->
<g id="node3" class="node"><title>Income</title>
<polygon fill="#e5f5e0" stroke="#e5f5e0" stroke-width="2" points="377.5,-138 312.5,-138 312.5,-102 377.5,-102 377.5,-138"/>
<text text-anchor="start" x="320.5" y="-116.3" font-family="arial" font-size="14.00">Income</text>
</g>
<!-- Status -->
<g id="node4" class="node"><title>Status</title>
<polygon fill="#e5f5e0" stroke="#e5f5e0" stroke-width="2" points="298,-138 242,-138 242,-102 298,-102 298,-138"/>
<text text-anchor="start" x="250" y="-116.3" font-family="arial" font-size="14.00">Status</text>
</g>
<!-- Life expectancy -->
<g id="node5" class="node"><title>Life expectancy</title>
<polygon fill="#e5f5e0" stroke="#e5f5e0" stroke-width="2" points="228,-138 112,-138 112,-102 228,-102 228,-138"/>
<text text-anchor="start" x="120" y="-116.3" font-family="arial" font-size="14.00">Life expectancy</text>
</g>
</g>
</svg>
