<?xml version="1.0" encoding="UTF-8" standalone="no"?>
<!DOCTYPE svg PUBLIC "-//W3C//DTD SVG 1.1//EN"
 "http://www.w3.org/Graphics/SVG/1.1/DTD/svg11.dtd">
<!-- Generated by graphviz version 2.38.0 (20140413.2041)
 -->
<!-- Title: foo Pages: 1 -->
<svg width="637pt" height="144pt"
 viewBox="0.00 0.00 637.00 144.00" xmlns="http://www.w3.org/2000/svg" xmlns:xlink="http://www.w3.org/1999/xlink">
<g id="graph0" class="graph" transform="scale(1 1) rotate(0) translate(4 140)">
<title>foo</title>
<g id="a_graph0"><a xlink:title=" ">
<polygon fill="white" stroke="none" points="-4,4 -4,-140 633,-140 633,4 -4,4"/>
</a>
</g>
<!-- tr -->
<g id="node1" class="node"><title>tr</title>
<polygon fill="#e5f5e0" stroke="#e5f5e0" stroke-width="2" points="463,-86 287,-86 287,-50 463,-50 463,-86"/>
<text text-anchor="start" x="295" y="-64.3" font-family="arial" font-size="14.00">Teacher receives training</text>
</g>
<!-- Better teaching. &#160;&#160;Teacher: !heart &#160;&#160;Ministry: !heart &#160;&#160;Trainer: !heart -->
<g id="node2" class="node"><title>Better teaching. &#160;&#160;Teacher: !heart &#160;&#160;Ministry: !heart &#160;&#160;Trainer: !heart</title>
<polygon fill="#e5f5e0" stroke="#e5f5e0" stroke-width="2" points="629,-136 513,-136 513,-72 629,-72 629,-136"/>
<text text-anchor="start" x="521" y="-121.8" font-family="arial" font-size="14.00">Better teaching.</text>
<text text-anchor="start" x="536" y="-107.8" font-family="arial" font-size="14.00">Teacher: </text>
<text text-anchor="start" x="597" y="-107.8" font-family="arial" font-size="14.00" fill="orange">♥</text>
<text text-anchor="start" x="539" y="-93.8" font-family="arial" font-size="14.00">Ministry: </text>
<text text-anchor="start" x="594" y="-93.8" font-family="arial" font-size="14.00" fill="orange">♥</text>
<text text-anchor="start" x="540.5" y="-79.8" font-family="arial" font-size="14.00">Trainer: </text>
<text text-anchor="start" x="592.5" y="-79.8" font-family="arial" font-size="14.00" fill="orange">♥</text>
</g>
<!-- tr&#45;&gt;Better teaching. &#160;&#160;Teacher: !heart &#160;&#160;Ministry: !heart &#160;&#160;Trainer: !heart -->
<g id="edge1" class="edge"><title>tr&#45;&gt;Better teaching. &#160;&#160;Teacher: !heart &#160;&#160;Ministry: !heart &#160;&#160;Trainer: !heart</title>
<path fill="none" stroke="#41ab5d" d="M463.069,-84.1572C476.422,-86.635 490.029,-89.16 502.862,-91.5415"/>
<polygon fill="#41ab5d" stroke="#41ab5d" points="502.499,-95.0337 512.97,-93.417 503.776,-88.1512 502.499,-95.0337"/>
</g>
<!-- Pay increased. &#160;&#160;Teacher: !heart &#160;&#160;Ministry: !frown -->
<g id="node6" class="node"><title>Pay increased. &#160;&#160;Teacher: !heart &#160;&#160;Ministry: !frown</title>
<polygon fill="#e5f5e0" stroke="#e5f5e0" stroke-width="2" points="626,-58 516,-58 516,-8 626,-8 626,-58"/>
<text text-anchor="start" x="524" y="-43.8" font-family="arial" font-size="14.00">Pay increased.</text>
<text text-anchor="start" x="536" y="-29.8" font-family="arial" font-size="14.00">Teacher: </text>
<text text-anchor="start" x="597" y="-29.8" font-family="arial" font-size="14.00" fill="orange">♥</text>
<text text-anchor="start" x="537.5" y="-15.8" font-family="arial" font-size="14.00">Ministry: ☹</text>
</g>
<!-- tr&#45;&gt;Pay increased. &#160;&#160;Teacher: !heart &#160;&#160;Ministry: !frown -->
<g id="edge5" class="edge"><title>tr&#45;&gt;Pay increased. &#160;&#160;Teacher: !heart &#160;&#160;Ministry: !frown</title>
<path fill="none" stroke="#41ab5d" d="M463.069,-52.2916C477.357,-49.7139 491.935,-47.0839 505.546,-44.6282"/>
<polygon fill="#41ab5d" stroke="#41ab5d" points="506.526,-48.0081 515.746,-42.7882 505.283,-41.1193 506.526,-48.0081"/>
</g>
<!-- Teacher: &#160;!do &#160;&#160;Makes effort to attend course -->
<g id="node3" class="node"><title>Teacher: &#160;!do &#160;&#160;Makes effort to attend course</title>
<polygon fill="#e5f5e0" stroke="#e5f5e0" stroke-width="2" points="219,-136 18,-136 18,-100 219,-100 219,-136"/>
<text text-anchor="start" x="78.5" y="-121.8" font-family="arial" font-size="14.00">Teacher: &#160;</text>
<text text-anchor="start" x="142.5" y="-121.8" font-family="arial" font-size="14.00" fill="green">▶ </text>
<text text-anchor="start" x="26" y="-107.8" font-family="arial" font-size="14.00">Makes effort to attend course</text>
</g>
<!-- Teacher: &#160;!do &#160;&#160;Makes effort to attend course&#45;&gt;tr -->
<g id="edge2" class="edge"><title>Teacher: &#160;!do &#160;&#160;Makes effort to attend course&#45;&gt;tr</title>
<path fill="none" stroke="#41ab5d" d="M211.38,-99.9489C232.741,-95.7523 255.545,-91.272 277.114,-87.0346"/>
<polygon fill="#41ab5d" stroke="#41ab5d" points="277.79,-90.4688 286.927,-85.1066 276.44,-83.6001 277.79,-90.4688"/>
</g>
<!-- Ministry: !do &#160;&#160;Provides in&#45;service teacher training -->
<g id="node4" class="node"><title>Ministry: !do &#160;&#160;Provides in&#45;service teacher training</title>
<polygon fill="#e5f5e0" stroke="#e5f5e0" stroke-width="2" points="237,-86 0,-86 0,-50 237,-50 237,-86"/>
<text text-anchor="start" x="83" y="-71.8" font-family="arial" font-size="14.00">Ministry: </text>
<text text-anchor="start" x="138" y="-71.8" font-family="arial" font-size="14.00" fill="green">▶ </text>
<text text-anchor="start" x="8" y="-57.8" font-family="arial" font-size="14.00">Provides in&#45;service teacher training</text>
</g>
<!-- Ministry: !do &#160;&#160;Provides in&#45;service teacher training&#45;&gt;tr -->
<g id="edge3" class="edge"><title>Ministry: !do &#160;&#160;Provides in&#45;service teacher training&#45;&gt;tr</title>
<path fill="none" stroke="#41ab5d" d="M237.065,-68C250.323,-68 263.721,-68 276.68,-68"/>
<polygon fill="#41ab5d" stroke="#41ab5d" points="276.968,-71.5001 286.968,-68 276.968,-64.5001 276.968,-71.5001"/>
</g>
<!-- Trainer: !do &#160;&#160;Provides pro&#45;bono training &#160;!heart -->
<g id="node5" class="node"><title>Trainer: !do &#160;&#160;Provides pro&#45;bono training &#160;!heart</title>
<polygon fill="#e5f5e0" stroke="#e5f5e0" stroke-width="2" points="218.5,-36 18.5,-36 18.5,-0 218.5,-0 218.5,-36"/>
<text text-anchor="start" x="84.5" y="-21.8" font-family="arial" font-size="14.00">Trainer: </text>
<text text-anchor="start" x="136.5" y="-21.8" font-family="arial" font-size="14.00" fill="green">▶ </text>
<text text-anchor="start" x="26.5" y="-7.8" font-family="arial" font-size="14.00">Provides pro&#45;bono training &#160;</text>
<text text-anchor="start" x="201.5" y="-7.8" font-family="arial" font-size="14.00" fill="orange">♥</text>
</g>
<!-- Trainer: !do &#160;&#160;Provides pro&#45;bono training &#160;!heart&#45;&gt;tr -->
<g id="edge4" class="edge"><title>Trainer: !do &#160;&#160;Provides pro&#45;bono training &#160;!heart&#45;&gt;tr</title>
<path fill="none" stroke="#41ab5d" d="M211.38,-36.0511C232.741,-40.2477 255.545,-44.728 277.114,-48.9654"/>
<polygon fill="#41ab5d" stroke="#41ab5d" points="276.44,-52.3999 286.927,-50.8934 277.79,-45.5312 276.44,-52.3999"/>
</g>
</g>
</svg>
