<?xml version="1.0" encoding="UTF-8" standalone="no"?>
<!DOCTYPE svg PUBLIC "-//W3C//DTD SVG 1.1//EN"
 "http://www.w3.org/Graphics/SVG/1.1/DTD/svg11.dtd">
<!-- Generated by graphviz version 2.38.0 (20140413.2041)
 -->
<!-- Title: foo Pages: 1 -->
<svg width="340pt" height="62pt"
 viewBox="0.00 0.00 340.00 61.50" xmlns="http://www.w3.org/2000/svg" xmlns:xlink="http://www.w3.org/1999/xlink">
<g id="graph0" class="graph" transform="scale(1 1) rotate(0) translate(4 57.5)">
<title>foo</title>
<g id="a_graph0"><a xlink:title=" ">
<polygon fill="white" stroke="none" points="-4,4 -4,-57.5 336,-57.5 336,4 -4,4"/>
</a>
</g>
<!-- axsxdf -->
<!-- Support for new law among legislators -->
<g id="node2" class="node"><title>Support for new law among legislators</title>
<polygon fill="#e5f5e0" stroke="#e5f5e0" stroke-width="2" points="332,-38 191,-38 191,-0 332,-0 332,-38"/>
<text text-anchor="start" x="199" y="-22.8" font-family="arial" font-size="14.00">Support for new law</text>
<text text-anchor="start" x="205.5" y="-7.8" font-family="arial" font-size="14.00">among legislators</text>
</g>
<!-- axsxdf&#45;&gt;Support for new law among legislators -->
<g id="edge1" class="edge"><title>axsxdf&#45;&gt;Support for new law among legislators</title>
<path fill="none" stroke="#41ab5d" stroke-width="0" d="M77.6647,-52.4982C89.8284,-51.4623 117.755,-48.8567 141,-45 153.936,-42.8538 167.584,-40.2299 180.85,-37.4838"/>
<polygon fill="#41ab5d" stroke="#41ab5d" stroke-width="0" points="181.838,-40.8527 190.901,-35.3659 180.394,-34.0031 181.838,-40.8527"/>
</g>
<!-- Support for new law among population -->
<g id="node3" class="node"><title>Support for new law among population</title>
<polygon fill="#e5f5e0" stroke="#e5f5e0" stroke-width="2" points="141,-38 0,-38 0,-0 141,-0 141,-38"/>
<text text-anchor="start" x="8" y="-22.8" font-family="arial" font-size="14.00">Support for new law</text>
<text text-anchor="start" x="14" y="-7.8" font-family="arial" font-size="14.00">among population</text>
</g>
<!-- Support for new law among population&#45;&gt;Support for new law among legislators -->
<g id="edge2" class="edge"><title>Support for new law among population&#45;&gt;Support for new law among legislators</title>
<path fill="none" stroke="#41ab5d" d="M141.071,-19C153.861,-19 167.308,-19 180.378,-19"/>
<polygon fill="#41ab5d" stroke="#41ab5d" points="180.76,-22.5001 190.76,-19 180.76,-15.5001 180.76,-22.5001"/>
</g>
</g>
</svg>
