<?xml version="1.0" encoding="UTF-8" standalone="no"?>
<!DOCTYPE svg PUBLIC "-//W3C//DTD SVG 1.1//EN"
 "http://www.w3.org/Graphics/SVG/1.1/DTD/svg11.dtd">
<!-- Generated by graphviz version 2.38.0 (20140413.2041)
 -->
<!-- Title: foo Pages: 1 -->
<svg width="596pt" height="302pt"
 viewBox="0.00 0.00 596.00 302.00" xmlns="http://www.w3.org/2000/svg" xmlns:xlink="http://www.w3.org/1999/xlink">
<g id="graph0" class="graph" transform="scale(1 1) rotate(0) translate(4 298)">
<title>foo</title>
<g id="a_graph0"><a xlink:title=" ">
<polygon fill="white" stroke="none" points="-4,4 -4,-298 592,-298 592,4 -4,4"/>
</a>
</g>
<!-- b -->
<g id="node1" class="node"><title>b</title>
<polygon fill="#c7e9c0" stroke="#c7e9c0" points="293.167,-208 239.167,-208 239.167,-172 293.167,-172 293.167,-208"/>
<text text-anchor="start" x="262.167" y="-186.3" font-family="Times New Roman,serif" font-size="14.00">b</text>
</g>
<!-- a -->
<g id="node2" class="node"><title>a</title>
<polygon fill="#c7e9c0" stroke="#c7e9c0" points="238.167,-294 184.167,-294 184.167,-258 238.167,-258 238.167,-294"/>
<text text-anchor="start" x="207.667" y="-272.3" font-family="Times New Roman,serif" font-size="14.00">a</text>
</g>
<!-- b&#45;&gt;a -->
<g id="edge1" class="edge"><title>b&#45;&gt;a</title>
<path fill="none" stroke="black" d="M254.771,-208.405C247.05,-220.196 236.715,-235.981 228.044,-249.224"/>
<polygon fill="black" stroke="black" points="224.91,-247.621 222.36,-257.905 230.766,-251.456 224.91,-247.621"/>
</g>
<!-- c -->
<g id="node3" class="node"><title>c</title>
<polygon fill="#fcbba1" stroke="#fcbba1" points="182.167,-208 128.167,-208 128.167,-172 182.167,-172 182.167,-208"/>
<text text-anchor="start" x="151.667" y="-186.3" font-family="Times New Roman,serif" font-size="14.00">c</text>
</g>
<!-- c&#45;&gt;a -->
<g id="edge2" class="edge"><title>c&#45;&gt;a</title>
<path fill="none" stroke="black" d="M166.77,-208.405C174.631,-220.196 185.154,-235.981 193.982,-249.224"/>
<polygon fill="black" stroke="black" points="191.311,-251.526 199.77,-257.905 197.135,-247.643 191.311,-251.526"/>
</g>
<!-- d -->
<g id="node4" class="node"><title>d</title>
<polygon fill="#c6dbef" stroke="#c6dbef" points="71.1667,-122 17.1667,-122 17.1667,-86 71.1667,-86 71.1667,-122"/>
<text text-anchor="start" x="40.1667" y="-100.3" font-family="Times New Roman,serif" font-size="14.00">d</text>
</g>
<!-- d&#45;&gt;b -->
<g id="edge3" class="edge"><title>d&#45;&gt;b</title>
<path fill="none" stroke="black" d="M71.3882,-115.3C111.108,-130.329 185.044,-158.305 229.514,-175.131"/>
<polygon fill="black" stroke="black" points="228.479,-178.482 239.07,-178.747 230.956,-171.935 228.479,-178.482"/>
</g>
<!-- d&#45;&gt;c -->
<g id="edge4" class="edge"><title>d&#45;&gt;c</title>
<path fill="none" stroke="black" d="M66.897,-122.201C83.5079,-134.772 106.22,-151.96 124.446,-165.752"/>
<polygon fill="black" stroke="black" points="122.381,-168.578 132.467,-171.822 126.605,-162.996 122.381,-168.578"/>
</g>
<!-- e -->
<g id="node5" class="node"><title>e</title>
<polygon fill="#c6dbef" stroke="#c6dbef" points="182.167,-122 128.167,-122 128.167,-86 182.167,-86 182.167,-122"/>
<text text-anchor="start" x="151.667" y="-100.3" font-family="Times New Roman,serif" font-size="14.00">e</text>
</g>
<!-- e&#45;&gt;b -->
<g id="edge5" class="edge"><title>e&#45;&gt;b</title>
<path fill="none" stroke="black" d="M177.897,-122.201C194.508,-134.772 217.22,-151.96 235.446,-165.752"/>
<polygon fill="black" stroke="black" points="233.381,-168.578 243.467,-171.822 237.605,-162.996 233.381,-168.578"/>
</g>
<!-- e&#45;&gt;c -->
<g id="edge6" class="edge"><title>e&#45;&gt;c</title>
<path fill="none" stroke="black" d="M155.167,-122.405C155.167,-133.743 155.167,-148.773 155.167,-161.685"/>
<polygon fill="black" stroke="black" points="151.667,-161.905 155.167,-171.905 158.667,-161.905 151.667,-161.905"/>
</g>
<!-- f -->
<g id="node6" class="node"><title>f</title>
<polygon fill="#c6dbef" stroke="#c6dbef" points="293.167,-122 239.167,-122 239.167,-86 293.167,-86 293.167,-122"/>
<text text-anchor="start" x="263.667" y="-100.3" font-family="Times New Roman,serif" font-size="14.00">f</text>
</g>
<!-- f&#45;&gt;b -->
<g id="edge7" class="edge"><title>f&#45;&gt;b</title>
<path fill="none" stroke="black" d="M266.167,-122.405C266.167,-133.743 266.167,-148.773 266.167,-161.685"/>
<polygon fill="black" stroke="black" points="262.667,-161.905 266.167,-171.905 269.667,-161.905 262.667,-161.905"/>
</g>
<!-- f&#45;&gt;c -->
<g id="edge8" class="edge"><title>f&#45;&gt;c</title>
<path fill="none" stroke="black" d="M243.436,-122.201C226.825,-134.772 204.113,-151.96 185.887,-165.752"/>
<polygon fill="black" stroke="black" points="183.729,-162.996 177.867,-171.822 187.953,-168.578 183.729,-162.996"/>
</g>
<!-- g -->
<g id="node7" class="node"><title>g</title>
<polygon fill="#c7e9c0" stroke="#c7e9c0" points="404.167,-122 350.167,-122 350.167,-86 404.167,-86 404.167,-122"/>
<text text-anchor="start" x="373.667" y="-100.3" font-family="Times New Roman,serif" font-size="14.00">g</text>
</g>
<!-- g&#45;&gt;b -->
<g id="edge9" class="edge"><title>g&#45;&gt;b</title>
<path fill="none" stroke="black" d="M354.436,-122.201C337.825,-134.772 315.113,-151.96 296.887,-165.752"/>
<polygon fill="black" stroke="black" points="294.729,-162.996 288.867,-171.822 298.953,-168.578 294.729,-162.996"/>
</g>
<!-- h -->
<g id="node8" class="node"><title>h</title>
<polygon fill="#c7e9c0" stroke="#c7e9c0" points="515.167,-122 461.167,-122 461.167,-86 515.167,-86 515.167,-122"/>
<text text-anchor="start" x="484.667" y="-100.3" font-family="Times New Roman,serif" font-size="14.00">h</text>
</g>
<!-- h&#45;&gt;b -->
<g id="edge10" class="edge"><title>h&#45;&gt;b</title>
<path fill="none" stroke="black" d="M460.945,-115.3C421.226,-130.329 347.289,-158.305 302.82,-175.131"/>
<polygon fill="black" stroke="black" points="301.378,-171.935 293.263,-178.747 303.855,-178.482 301.378,-171.935"/>
</g>
<!-- i -->
<g id="node9" class="node"><title>i</title>
<polygon fill="#dadaeb" stroke="#dadaeb" points="349.167,-36 295.167,-36 295.167,-0 349.167,-0 349.167,-36"/>
<text text-anchor="start" x="320.167" y="-14.3" font-family="Times New Roman,serif" font-size="14.00">i</text>
</g>
<!-- i&#45;&gt;g -->
<g id="edge11" class="edge"><title>i&#45;&gt;g</title>
<path fill="none" stroke="black" d="M333.563,-36.4049C341.283,-48.1963 351.619,-63.9812 360.289,-77.2236"/>
<polygon fill="black" stroke="black" points="357.567,-79.4559 365.973,-85.9048 363.424,-75.6214 357.567,-79.4559"/>
</g>
<!-- i&#45;&gt;h -->
<g id="edge12" class="edge"><title>i&#45;&gt;h</title>
<path fill="none" stroke="black" d="M349.207,-32.683C377.182,-46.8389 421.032,-69.0281 451.98,-84.6885"/>
<polygon fill="black" stroke="black" points="450.635,-87.9307 461.138,-89.3229 453.796,-81.6848 450.635,-87.9307"/>
</g>
<!-- j -->
<g id="node10" class="node"><title>j</title>
<polygon fill="#dadaeb" stroke="#dadaeb" points="460.167,-36 406.167,-36 406.167,-0 460.167,-0 460.167,-36"/>
<text text-anchor="start" x="431.167" y="-14.3" font-family="Times New Roman,serif" font-size="14.00">j</text>
</g>
<!-- j&#45;&gt;g -->
<g id="edge13" class="edge"><title>j&#45;&gt;g</title>
<path fill="none" stroke="black" d="M421.563,-36.4049C413.702,-48.1963 403.179,-63.9812 394.351,-77.2236"/>
<polygon fill="black" stroke="black" points="391.198,-75.6429 388.563,-85.9048 397.023,-79.5258 391.198,-75.6429"/>
</g>
<!-- j&#45;&gt;h -->
<g id="edge14" class="edge"><title>j&#45;&gt;h</title>
<path fill="none" stroke="black" d="M444.563,-36.4049C452.283,-48.1963 462.619,-63.9812 471.289,-77.2236"/>
<polygon fill="black" stroke="black" points="468.567,-79.4559 476.973,-85.9048 474.424,-75.6214 468.567,-79.4559"/>
</g>
<!-- k -->
<g id="node11" class="node"><title>k</title>
<polygon fill="#dadaeb" stroke="#dadaeb" points="571.167,-36 517.167,-36 517.167,-0 571.167,-0 571.167,-36"/>
<text text-anchor="start" x="540.667" y="-14.3" font-family="Times New Roman,serif" font-size="14.00">k</text>
</g>
<!-- k&#45;&gt;g -->
<g id="edge15" class="edge"><title>k&#45;&gt;g</title>
<path fill="none" stroke="black" d="M516.964,-32.683C488.82,-46.8389 444.706,-69.0281 413.572,-84.6885"/>
<polygon fill="black" stroke="black" points="411.719,-81.7025 404.358,-89.3229 414.864,-87.956 411.719,-81.7025"/>
</g>
<!-- k&#45;&gt;h -->
<g id="edge16" class="edge"><title>k&#45;&gt;h</title>
<path fill="none" stroke="black" d="M532.563,-36.4049C524.702,-48.1963 514.179,-63.9812 505.351,-77.2236"/>
<polygon fill="black" stroke="black" points="502.198,-75.6429 499.563,-85.9048 508.023,-79.5258 502.198,-75.6429"/>
</g>
</g>
</svg>
