<?xml version="1.0" encoding="UTF-8" standalone="no"?>
<!DOCTYPE svg PUBLIC "-//W3C//DTD SVG 1.1//EN"
 "http://www.w3.org/Graphics/SVG/1.1/DTD/svg11.dtd">
<!-- Generated by graphviz version 2.38.0 (20140413.2041)
 -->
<!-- Title: foo Pages: 1 -->
<svg width="249pt" height="62pt"
 viewBox="0.00 0.00 249.00 61.50" xmlns="http://www.w3.org/2000/svg" xmlns:xlink="http://www.w3.org/1999/xlink">
<g id="graph0" class="graph" transform="scale(1 1) rotate(0) translate(4 57.5)">
<title>foo</title>
<g id="a_graph0"><a xlink:title=" ">
<polygon fill="white" stroke="none" points="-4,4 -4,-57.5 245,-57.5 245,4 -4,4"/>
</a>
</g>
<!-- axsxdf -->
<!-- Subjective temperature -->
<g id="node2" class="node"><title>Subjective temperature</title>
<polygon fill="#e5f5e0" stroke="#e5f5e0" stroke-width="2" points="241,-38 148,-38 148,-0 241,-0 241,-38"/>
<text text-anchor="start" x="161" y="-22.8" font-family="arial" font-size="14.00">Subjective</text>
<text text-anchor="start" x="156" y="-7.8" font-family="arial" font-size="14.00">temperature</text>
</g>
<!-- axsxdf&#45;&gt;Subjective temperature -->
<g id="edge1" class="edge"><title>axsxdf&#45;&gt;Subjective temperature</title>
<path fill="none" stroke="#41ab5d" stroke-width="0" d="M47.0616,-52.4436C54.0005,-51.1768 71.4521,-47.9578 86,-45 102.487,-41.6479 106.624,-40.8595 123,-37 127.745,-35.8816 132.662,-34.6914 137.591,-33.4763"/>
<polygon fill="#41ab5d" stroke="#41ab5d" stroke-width="0" points="138.817,-36.7778 147.673,-30.9625 137.124,-29.9857 138.817,-36.7778"/>
</g>
<!-- Strength of sunshine -->
<g id="node3" class="node"><title>Strength of sunshine</title>
<polygon fill="#e5f5e0" stroke="#e5f5e0" stroke-width="2" points="86,-38 0,-38 0,-0 86,-0 86,-38"/>
<text text-anchor="start" x="8" y="-22.8" font-family="arial" font-size="14.00">Strength of</text>
<text text-anchor="start" x="14.5" y="-7.8" font-family="arial" font-size="14.00">sunshine</text>
</g>
<!-- Strength of sunshine&#45;&gt;Subjective temperature -->
<g id="edge2" class="edge"><title>Strength of sunshine&#45;&gt;Subjective temperature</title>
<path fill="none" stroke="#41ab5d" d="M86.0419,-19C101.991,-19 120.415,-19 137.453,-19"/>
<polygon fill="#41ab5d" stroke="#41ab5d" points="137.848,-22.5001 147.848,-19 137.848,-15.5001 137.848,-22.5001"/>
<text text-anchor="start" x="111" y="-22.8" font-family="Times New Roman,serif" font-size="14.00">⇈</text>
</g>
</g>
</svg>
