<?xml version="1.0" encoding="UTF-8" standalone="no"?>
<!DOCTYPE svg PUBLIC "-//W3C//DTD SVG 1.1//EN"
 "http://www.w3.org/Graphics/SVG/1.1/DTD/svg11.dtd">
<!-- Generated by graphviz version 2.38.0 (20140413.2041)
 -->
<!-- Title: foo Pages: 1 -->
<svg width="1122pt" height="565pt"
 viewBox="0.00 0.00 1122.00 565.00" xmlns="http://www.w3.org/2000/svg" xmlns:xlink="http://www.w3.org/1999/xlink">
<g id="graph0" class="graph" transform="scale(1 1) rotate(0) translate(4 561)">
<title>foo</title>
<g id="a_graph0"><a xlink:title=" ">
<polygon fill="white" stroke="none" points="-4,4 -4,-561 1118,-561 1118,4 -4,4"/>
</a>
</g>
<g id="clust1" class="cluster"><title>cluster_Goal</title>
<g id="a_clust1"><a xlink:title=" ">
<path fill="#9e9ac8" stroke="#dadaeb" d="M808.319,-206C808.319,-206 1090.7,-206 1090.7,-206 1096.7,-206 1102.7,-212 1102.7,-218 1102.7,-218 1102.7,-301 1102.7,-301 1102.7,-307 1096.7,-313 1090.7,-313 1090.7,-313 808.319,-313 808.319,-313 802.319,-313 796.319,-307 796.319,-301 796.319,-301 796.319,-218 796.319,-218 796.319,-212 802.319,-206 808.319,-206"/>
<text text-anchor="start" x="804.319" y="-297.8" font-family="arial" font-size="14.00" fill="white">Goal</text>
</a>
</g>
</g>
<g id="clust2" class="cluster"><title>cluster_Outcomes</title>
<g id="a_clust2"><a xlink:title=" ">
<path fill="#dadaeb" stroke="#dadaeb" d="M414.395,-104C414.395,-104 747.61,-104 747.61,-104 753.61,-104 759.61,-110 759.61,-116 759.61,-116 759.61,-440 759.61,-440 759.61,-446 753.61,-452 747.61,-452 747.61,-452 414.395,-452 414.395,-452 408.395,-452 402.395,-446 402.395,-440 402.395,-440 402.395,-116 402.395,-116 402.395,-110 408.395,-104 414.395,-104"/>
<text text-anchor="start" x="410.395" y="-436.8" font-family="arial" font-size="14.00">Outcomes</text>
</a>
</g>
</g>
<g id="clust4" class="cluster"><title>cluster_Improvedsanitation</title>
<g id="a_clust4"><a xlink:title=" ">
<path fill="#deebf7" stroke="#dadaeb" d="M444.752,-314C444.752,-314 717.253,-314 717.253,-314 723.253,-314 729.253,-320 729.253,-326 729.253,-326 729.253,-409 729.253,-409 729.253,-415 723.253,-421 717.253,-421 717.253,-421 444.752,-421 444.752,-421 438.752,-421 432.752,-415 432.752,-409 432.752,-409 432.752,-326 432.752,-326 432.752,-320 438.752,-314 444.752,-314"/>
<text text-anchor="start" x="440.752" y="-405.8" font-family="arial" font-size="14.00">Improved sanitation</text>
</a>
</g>
</g>
<g id="clust3" class="cluster"><title>cluster_Safewater</title>
<g id="a_clust3"><a xlink:title=" ">
<path fill="#e5f5e0" stroke="#dadaeb" d="M425.691,-213C425.691,-213 736.314,-213 736.314,-213 742.314,-213 748.314,-219 748.314,-225 748.314,-225 748.314,-294 748.314,-294 748.314,-300 742.314,-306 736.314,-306 736.314,-306 425.691,-306 425.691,-306 419.691,-306 413.691,-300 413.691,-294 413.691,-294 413.691,-225 413.691,-225 413.691,-219 419.691,-213 425.691,-213"/>
<text text-anchor="start" x="421.691" y="-290.8" font-family="arial" font-size="14.00">Safe water</text>
</a>
</g>
</g>
<g id="clust5" class="cluster"><title>cluster_Improvedhygiene</title>
<g id="a_clust5"><a xlink:title=" ">
<path fill="#fee0d2" stroke="#dadaeb" d="M436.28,-112C436.28,-112 725.725,-112 725.725,-112 731.725,-112 737.725,-118 737.725,-124 737.725,-124 737.725,-193 737.725,-193 737.725,-199 731.725,-205 725.725,-205 725.725,-205 436.28,-205 436.28,-205 430.28,-205 424.28,-199 424.28,-193 424.28,-193 424.28,-124 424.28,-124 424.28,-118 430.28,-112 436.28,-112"/>
<text text-anchor="start" x="432.28" y="-189.8" font-family="arial" font-size="14.00">Improved hygiene</text>
</a>
</g>
</g>
<g id="clust6" class="cluster"><title>cluster_Outputs</title>
<g id="a_clust6"><a xlink:title=" ">
<path fill="#fcfbfd" stroke="#dadaeb" d="M23.2953,-8C23.2953,-8 364.981,-8 364.981,-8 370.981,-8 376.981,-14 376.981,-20 376.981,-20 376.981,-537 376.981,-537 376.981,-543 370.981,-549 364.981,-549 364.981,-549 23.2953,-549 23.2953,-549 17.2953,-549 11.2953,-543 11.2953,-537 11.2953,-537 11.2953,-20 11.2953,-20 11.2953,-14 17.2953,-8 23.2953,-8"/>
<text text-anchor="start" x="19.2953" y="-533.8" font-family="arial" font-size="14.00">Outputs</text>
</a>
</g>
</g>
<g id="clust9" class="cluster"><title>cluster_Improvedhygieneduplicated</title>
<g id="a_clust9"><a xlink:title=" ">
<path fill="#fee0d2" stroke="#dadaeb" d="M46.5919,-16C46.5919,-16 341.684,-16 341.684,-16 347.684,-16 353.684,-22 353.684,-28 353.684,-28 353.684,-164 353.684,-164 353.684,-170 347.684,-176 341.684,-176 341.684,-176 46.5919,-176 46.5919,-176 40.5919,-176 34.5919,-170 34.5919,-164 34.5919,-164 34.5919,-28 34.5919,-28 34.5919,-22 40.5919,-16 46.5919,-16"/>
<text text-anchor="start" x="42.5919" y="-160.8" font-family="arial" font-size="14.00">Improved hygiene</text>
</a>
</g>
</g>
<g id="clust8" class="cluster"><title>cluster_Improvedsanitationduplicated</title>
<g id="a_clust8"><a xlink:title=" ">
<path fill="#deebf7" stroke="#dadaeb" d="M46.5919,-321C46.5919,-321 341.684,-321 341.684,-321 347.684,-321 353.684,-327 353.684,-333 353.684,-333 353.684,-506 353.684,-506 353.684,-512 347.684,-518 341.684,-518 341.684,-518 46.5919,-518 46.5919,-518 40.5919,-518 34.5919,-512 34.5919,-506 34.5919,-506 34.5919,-333 34.5919,-333 34.5919,-327 40.5919,-321 46.5919,-321"/>
<text text-anchor="start" x="42.5919" y="-502.8" font-family="arial" font-size="14.00">Improved sanitation</text>
</a>
</g>
</g>
<g id="clust7" class="cluster"><title>cluster_Safewaterduplicated</title>
<g id="a_clust7"><a xlink:title=" ">
<path fill="#e5f5e0" stroke="#dadaeb" d="M34.5906,-184C34.5906,-184 353.686,-184 353.686,-184 359.686,-184 365.686,-190 365.686,-196 365.686,-196 365.686,-301 365.686,-301 365.686,-307 359.686,-313 353.686,-313 353.686,-313 34.5906,-313 34.5906,-313 28.5906,-313 22.5906,-307 22.5906,-301 22.5906,-301 22.5906,-196 22.5906,-196 22.5906,-190 28.5906,-184 34.5906,-184"/>
<text text-anchor="start" x="30.5906" y="-297.8" font-family="arial" font-size="14.00">Safe water</text>
</a>
</g>
</g>
<!-- 1.1 Improved access to and use of sustainable sources of safe water in target communities -->
<g id="node1" class="node"><title>1.1 Improved access to and use of sustainable sources of safe water in target communities</title>
<polygon fill="#e5f5e0" stroke="#e5f5e0" stroke-width="2" points="691.205,-274.5 470.205,-274.5 470.205,-221.5 691.205,-221.5 691.205,-274.5"/>
<text text-anchor="start" x="478.205" y="-259.3" font-family="arial" font-size="14.00">1.1 Improved access to and use</text>
<text text-anchor="start" x="485.205" y="-244.3" font-family="arial" font-size="14.00">of sustainable sources of safe</text>
<text text-anchor="start" x="494.705" y="-229.3" font-family="arial" font-size="14.00">water in target communities</text>
</g>
<!-- 1 &#160;Reduce death and illness related to Water and Sanitation related diseases in the targeted communities -->
<g id="node2" class="node"><title>1 &#160;Reduce death and illness related to Water and Sanitation related diseases in the targeted communities</title>
<polygon fill="#e5f5e0" stroke="#e5f5e0" stroke-width="2" points="1050.2,-282 849.205,-282 849.205,-214 1050.2,-214 1050.2,-282"/>
<text text-anchor="start" x="863.705" y="-266.8" font-family="arial" font-size="14.00">1 Reduce death and illness</text>
<text text-anchor="start" x="885.205" y="-251.8" font-family="arial" font-size="14.00">related to Water and</text>
<text text-anchor="start" x="857.205" y="-236.8" font-family="arial" font-size="14.00">Sanitation related diseases in</text>
<text text-anchor="start" x="869.705" y="-221.8" font-family="arial" font-size="14.00">the targeted communities</text>
</g>
<!-- 1.1 Improved access to and use of sustainable sources of safe water in target communities&#45;&gt;1 &#160;Reduce death and illness related to Water and Sanitation related diseases in the targeted communities -->
<g id="edge1" class="edge"><title>1.1 Improved access to and use of sustainable sources of safe water in target communities&#45;&gt;1 &#160;Reduce death and illness related to Water and Sanitation related diseases in the targeted communities</title>
<path fill="none" stroke="#41ab5d" d="M691.32,-248C737.956,-248 792.236,-248 838.893,-248"/>
<polygon fill="#41ab5d" stroke="#41ab5d" points="839.035,-251.5 849.035,-248 839.035,-244.5 839.035,-251.5"/>
</g>
<!-- 1.2 Improved access to and use of sustainable sanitation facilities among targeted communities -->
<g id="node3" class="node"><title>1.2 Improved access to and use of sustainable sanitation facilities among targeted communities</title>
<polygon fill="#e5f5e0" stroke="#e5f5e0" stroke-width="2" points="677.705,-390 483.705,-390 483.705,-322 677.705,-322 677.705,-390"/>
<text text-anchor="start" x="491.705" y="-374.8" font-family="arial" font-size="14.00">1.2 Improved access to and</text>
<text text-anchor="start" x="491.705" y="-359.8" font-family="arial" font-size="14.00">use of sustainable sanitation</text>
<text text-anchor="start" x="503.205" y="-344.8" font-family="arial" font-size="14.00">facilities among targeted</text>
<text text-anchor="start" x="540.205" y="-329.8" font-family="arial" font-size="14.00">communities</text>
</g>
<!-- 1.2 Improved access to and use of sustainable sanitation facilities among targeted communities&#45;&gt;1 &#160;Reduce death and illness related to Water and Sanitation related diseases in the targeted communities -->
<g id="edge2" class="edge"><title>1.2 Improved access to and use of sustainable sanitation facilities among targeted communities&#45;&gt;1 &#160;Reduce death and illness related to Water and Sanitation related diseases in the targeted communities</title>
<path fill="none" stroke="#41ab5d" d="M678.13,-327.624C727.61,-313.063 788.086,-295.267 839.304,-280.194"/>
<polygon fill="#41ab5d" stroke="#41ab5d" points="840.482,-283.496 849.087,-277.315 838.505,-276.781 840.482,-283.496"/>
</g>
<!-- 1.3 Enhanced practice of safe hygiene and sanitation in the household -->
<g id="node4" class="node"><title>1.3 Enhanced practice of safe hygiene and sanitation in the household</title>
<polygon fill="#e5f5e0" stroke="#e5f5e0" stroke-width="2" points="683.705,-173.5 477.705,-173.5 477.705,-120.5 683.705,-120.5 683.705,-173.5"/>
<text text-anchor="start" x="485.705" y="-158.3" font-family="arial" font-size="14.00">1.3 Enhanced practice of safe</text>
<text text-anchor="start" x="491.705" y="-143.3" font-family="arial" font-size="14.00">hygiene and sanitation in the</text>
<text text-anchor="start" x="547.205" y="-128.3" font-family="arial" font-size="14.00">household</text>
</g>
<!-- 1.3 Enhanced practice of safe hygiene and sanitation in the household&#45;&gt;1 &#160;Reduce death and illness related to Water and Sanitation related diseases in the targeted communities -->
<g id="edge3" class="edge"><title>1.3 Enhanced practice of safe hygiene and sanitation in the household&#45;&gt;1 &#160;Reduce death and illness related to Water and Sanitation related diseases in the targeted communities</title>
<path fill="none" stroke="#41ab5d" d="M678.13,-173.537C727.61,-187.154 788.086,-203.797 839.304,-217.893"/>
<polygon fill="#41ab5d" stroke="#41ab5d" points="838.516,-221.306 849.087,-220.585 840.374,-214.557 838.516,-221.306"/>
</g>
<!-- 1.1.1 Community water points constructed or rehabilitated -->
<g id="node5" class="node"><title>1.1.1 Community water points constructed or rehabilitated</title>
<polygon fill="#e5f5e0" stroke="#e5f5e0" stroke-width="2" points="295.205,-282 92.2047,-282 92.2047,-244 295.205,-244 295.205,-282"/>
<text text-anchor="start" x="100.205" y="-266.8" font-family="arial" font-size="14.00">1.1.1 Community water points</text>
<text text-anchor="start" x="107.705" y="-251.8" font-family="arial" font-size="14.00">constructed or rehabilitated</text>
</g>
<!-- 1.1.1 Community water points constructed or rehabilitated&#45;&gt;1.1 Improved access to and use of sustainable sources of safe water in target communities -->
<g id="edge4" class="edge"><title>1.1.1 Community water points constructed or rehabilitated&#45;&gt;1.1 Improved access to and use of sustainable sources of safe water in target communities</title>
<path fill="none" stroke="#41ab5d" d="M295.356,-259.079C345.799,-257.113 407.233,-254.72 460.073,-252.661"/>
<polygon fill="#41ab5d" stroke="#41ab5d" points="460.321,-256.154 470.177,-252.267 460.048,-249.159 460.321,-256.154"/>
</g>
<!-- 1.1.2 Community management of water points is improved -->
<g id="node6" class="node"><title>1.1.2 Community management of water points is improved</title>
<polygon fill="#e5f5e0" stroke="#e5f5e0" stroke-width="2" points="307.205,-230 80.2047,-230 80.2047,-192 307.205,-192 307.205,-230"/>
<text text-anchor="start" x="88.2047" y="-214.8" font-family="arial" font-size="14.00">1.1.2 Community management of</text>
<text text-anchor="start" x="116.705" y="-199.8" font-family="arial" font-size="14.00">water points is improved</text>
</g>
<!-- 1.1.2 Community management of water points is improved&#45;&gt;1.1 Improved access to and use of sustainable sources of safe water in target communities -->
<g id="edge5" class="edge"><title>1.1.2 Community management of water points is improved&#45;&gt;1.1 Improved access to and use of sustainable sources of safe water in target communities</title>
<path fill="none" stroke="#41ab5d" d="M307.357,-221.826C355.315,-226.435 411.31,-231.817 460.012,-236.497"/>
<polygon fill="#41ab5d" stroke="#41ab5d" points="459.68,-239.981 469.969,-237.454 460.35,-233.013 459.68,-239.981"/>
</g>
<!-- 1.2.1 Sanitation facilities constructed -->
<g id="node7" class="node"><title>1.2.1 Sanitation facilities constructed</title>
<polygon fill="#e5f5e0" stroke="#e5f5e0" stroke-width="2" points="278.205,-487 109.205,-487 109.205,-449 278.205,-449 278.205,-487"/>
<text text-anchor="start" x="117.205" y="-471.8" font-family="arial" font-size="14.00">1.2.1 Sanitation facilities</text>
<text text-anchor="start" x="156.205" y="-456.8" font-family="arial" font-size="14.00">constructed</text>
</g>
<!-- 1.2.1 Sanitation facilities constructed&#45;&gt;1.2 Improved access to and use of sustainable sanitation facilities among targeted communities -->
<g id="edge6" class="edge"><title>1.2.1 Sanitation facilities constructed&#45;&gt;1.2 Improved access to and use of sustainable sanitation facilities among targeted communities</title>
<path fill="none" stroke="#41ab5d" d="M278.349,-452.64C293.359,-449.44 308.803,-445.855 323.205,-442 374.776,-428.194 431.12,-409.693 477.831,-393.388"/>
<polygon fill="#41ab5d" stroke="#41ab5d" points="479.065,-396.665 487.343,-390.052 476.748,-390.059 479.065,-396.665"/>
</g>
<!-- 1.2.2 Sanitation facility use is promoted -->
<g id="node8" class="node"><title>1.2.2 Sanitation facility use is promoted</title>
<polygon fill="#e5f5e0" stroke="#e5f5e0" stroke-width="2" points="285.705,-435 101.705,-435 101.705,-397 285.705,-397 285.705,-435"/>
<text text-anchor="start" x="109.705" y="-419.8" font-family="arial" font-size="14.00">1.2.2 Sanitation facility use</text>
<text text-anchor="start" x="155.705" y="-404.8" font-family="arial" font-size="14.00">is promoted</text>
</g>
<!-- 1.2.2 Sanitation facility use is promoted&#45;&gt;1.2 Improved access to and use of sustainable sanitation facilities among targeted communities -->
<g id="edge7" class="edge"><title>1.2.2 Sanitation facility use is promoted&#45;&gt;1.2 Improved access to and use of sustainable sanitation facilities among targeted communities</title>
<path fill="none" stroke="#41ab5d" d="M285.944,-401.781C342.173,-393.018 414.517,-381.744 473.341,-372.576"/>
<polygon fill="#41ab5d" stroke="#41ab5d" points="474.067,-376.005 483.409,-371.007 472.989,-369.089 474.067,-376.005"/>
</g>
<!-- 1.2.3 Community management of sanitation facilities is improved -->
<g id="node9" class="node"><title>1.2.3 Community management of sanitation facilities is improved</title>
<polygon fill="#e5f5e0" stroke="#e5f5e0" stroke-width="2" points="298.705,-382.5 88.7047,-382.5 88.7047,-329.5 298.705,-329.5 298.705,-382.5"/>
<text text-anchor="start" x="96.7047" y="-367.3" font-family="arial" font-size="14.00">1.2.3 Community management</text>
<text text-anchor="start" x="121.205" y="-352.3" font-family="arial" font-size="14.00">of sanitation facilities is</text>
<text text-anchor="start" x="163.705" y="-337.3" font-family="arial" font-size="14.00">improved</text>
</g>
<!-- 1.2.3 Community management of sanitation facilities is improved&#45;&gt;1.2 Improved access to and use of sustainable sanitation facilities among targeted communities -->
<g id="edge8" class="edge"><title>1.2.3 Community management of sanitation facilities is improved&#45;&gt;1.2 Improved access to and use of sustainable sanitation facilities among targeted communities</title>
<path fill="none" stroke="#41ab5d" d="M298.891,-356C353.085,-356 419.2,-356 473.662,-356"/>
<polygon fill="#41ab5d" stroke="#41ab5d" points="473.69,-359.5 483.69,-356 473.69,-352.5 473.69,-359.5"/>
</g>
<!-- 1.3.1 Household knowledge increased on safe hygiene and sanitation -->
<g id="node10" class="node"><title>1.3.1 Household knowledge increased on safe hygiene and sanitation</title>
<polygon fill="#e5f5e0" stroke="#e5f5e0" stroke-width="2" points="298.705,-144.5 88.7047,-144.5 88.7047,-91.5 298.705,-91.5 298.705,-144.5"/>
<text text-anchor="start" x="105.205" y="-129.3" font-family="arial" font-size="14.00">1.3.1 Household knowledge</text>
<text text-anchor="start" x="96.7047" y="-114.3" font-family="arial" font-size="14.00">increased on safe hygiene and</text>
<text text-anchor="start" x="163.705" y="-99.3" font-family="arial" font-size="14.00">sanitation</text>
</g>
<!-- 1.3.1 Household knowledge increased on safe hygiene and sanitation&#45;&gt;1.3 Enhanced practice of safe hygiene and sanitation in the household -->
<g id="edge9" class="edge"><title>1.3.1 Household knowledge increased on safe hygiene and sanitation&#45;&gt;1.3 Enhanced practice of safe hygiene and sanitation in the household</title>
<path fill="none" stroke="#41ab5d" d="M298.891,-125.848C350.985,-129.772 414.094,-134.525 467.28,-138.532"/>
<polygon fill="#41ab5d" stroke="#41ab5d" points="467.199,-142.035 477.434,-139.297 467.725,-135.055 467.199,-142.035"/>
</g>
<!-- 1.3.2 Household training on safe hygiene and sanitation provided -->
<g id="node11" class="node"><title>1.3.2 Household training on safe hygiene and sanitation provided</title>
<polygon fill="#e5f5e0" stroke="#e5f5e0" stroke-width="2" points="288.205,-77.5 99.2047,-77.5 99.2047,-24.5 288.205,-24.5 288.205,-77.5"/>
<text text-anchor="start" x="107.205" y="-62.3" font-family="arial" font-size="14.00">1.3.2 Household training on</text>
<text text-anchor="start" x="107.705" y="-47.3" font-family="arial" font-size="14.00">safe hygiene and sanitation</text>
<text text-anchor="start" x="165.705" y="-32.3" font-family="arial" font-size="14.00">provided</text>
</g>
<!-- 1.3.2 Household training on safe hygiene and sanitation provided&#45;&gt;1.3 Enhanced practice of safe hygiene and sanitation in the household -->
<g id="edge10" class="edge"><title>1.3.2 Household training on safe hygiene and sanitation provided&#45;&gt;1.3 Enhanced practice of safe hygiene and sanitation in the household</title>
<path fill="none" stroke="#41ab5d" d="M288.394,-74.3615C342.469,-87.8451 410.816,-104.887 467.715,-119.075"/>
<polygon fill="#41ab5d" stroke="#41ab5d" points="466.921,-122.484 477.471,-121.508 468.614,-115.692 466.921,-122.484"/>
</g>
</g>
</svg>
