<?xml version="1.0" encoding="UTF-8" standalone="no"?>
<!DOCTYPE svg PUBLIC "-//W3C//DTD SVG 1.1//EN"
 "http://www.w3.org/Graphics/SVG/1.1/DTD/svg11.dtd">
<!-- Generated by graphviz version 2.38.0 (20140413.2041)
 -->
<!-- Title: foo Pages: 1 -->
<svg width="274pt" height="134pt"
 viewBox="0.00 0.00 274.00 133.50" xmlns="http://www.w3.org/2000/svg" xmlns:xlink="http://www.w3.org/1999/xlink">
<g id="graph0" class="graph" transform="scale(1 1) rotate(0) translate(4 129.5)">
<title>foo</title>
<g id="a_graph0"><a xlink:title=" ">
<polygon fill="#c7e9c0" stroke="none" points="-4,4 -4,-129.5 270,-129.5 270,4 -4,4"/>
<text text-anchor="start" x="95" y="-7.2" font-family="tahoma" font-size="11.00" fill="#238b45">Try this instead</text>
</a>
</g>
<!-- axsxdf -->
<!-- Subjective temperature -->
<g id="node2" class="node"><title>Subjective temperature</title>
<polygon fill="#f7fcf5" stroke="#f7fcf5" points="266,-84 173,-84 173,-46 266,-46 266,-84"/>
<text text-anchor="start" x="186" y="-68.8" font-family="Helvetica,sans-Serif" font-size="14.00" fill="#006d2c">Subjective</text>
<text text-anchor="start" x="181" y="-53.8" font-family="Helvetica,sans-Serif" font-size="14.00" fill="#006d2c">temperature</text>
</g>
<!-- axsxdf&#45;&gt;Subjective temperature -->
<g id="edge1" class="edge"><title>axsxdf&#45;&gt;Subjective temperature</title>
<path fill="none" stroke="#41ab5d" stroke-width="0" d="M47.9952,-124.491C55.5288,-123.477 72.3077,-120.954 86,-117 113.142,-109.163 142.467,-97.9548 166.612,-87.9499"/>
<polygon fill="#41ab5d" stroke="#41ab5d" stroke-width="0" points="168.068,-91.1348 175.936,-84.0399 165.361,-84.6794 168.068,-91.1348"/>
</g>
<!-- Strength of sunshine -->
<g id="node3" class="node"><title>Strength of sunshine</title>
<polygon fill="#f7fcf5" stroke="#f7fcf5" points="86,-110 0,-110 0,-72 86,-72 86,-110"/>
<text text-anchor="start" x="8" y="-94.8" font-family="Helvetica,sans-Serif" font-size="14.00" fill="#006d2c">Strength of</text>
<text text-anchor="start" x="14.5" y="-79.8" font-family="Helvetica,sans-Serif" font-size="14.00" fill="#006d2c">sunshine</text>
</g>
<!-- Strength of sunshine&#45;&gt;Subjective temperature -->
<g id="edge2" class="edge"><title>Strength of sunshine&#45;&gt;Subjective temperature</title>
<path fill="none" stroke="#41ab5d" stroke-width="2" d="M86.2416,-84.7061C109.291,-81.2718 138.112,-76.9776 162.961,-73.2752"/>
<polygon fill="#41ab5d" stroke="#41ab5d" stroke-width="2" points="163.605,-76.718 172.98,-71.7824 162.573,-69.7944 163.605,-76.718"/>
</g>
<!-- Strength of wind -->
<g id="node4" class="node"><title>Strength of wind</title>
<polygon fill="#f7fcf5" stroke="#f7fcf5" points="86,-58 0,-58 0,-20 86,-20 86,-58"/>
<text text-anchor="start" x="8" y="-42.8" font-family="Helvetica,sans-Serif" font-size="14.00" fill="#006d2c">Strength of</text>
<text text-anchor="start" x="28.5" y="-27.8" font-family="Helvetica,sans-Serif" font-size="14.00" fill="#006d2c">wind</text>
</g>
<!-- Strength of wind&#45;&gt;Subjective temperature -->
<g id="edge3" class="edge"><title>Strength of wind&#45;&gt;Subjective temperature</title>
<path fill="none" stroke="#41ab5d" stroke-width="2" d="M86.2416,-45.2939C109.291,-48.7282 138.112,-53.0224 162.961,-56.7248"/>
<polygon fill="#41ab5d" stroke="#41ab5d" stroke-width="2" points="162.573,-60.2056 172.98,-58.2176 163.605,-53.282 162.573,-60.2056"/>
<text text-anchor="start" x="111" y="-58.8" font-family="Helvetica,sans-Serif" font-size="14.00" fill="#cd5c5c">!heart</text>
</g>
</g>
</svg>
