<?xml version="1.0" encoding="UTF-8" standalone="no"?>
<!DOCTYPE svg PUBLIC "-//W3C//DTD SVG 1.1//EN"
 "http://www.w3.org/Graphics/SVG/1.1/DTD/svg11.dtd">
<!-- Generated by graphviz version 2.38.0 (20140413.2041)
 -->
<!-- Title: foo Pages: 1 -->
<svg width="544pt" height="166pt"
 viewBox="0.00 0.00 544.00 166.00" xmlns="http://www.w3.org/2000/svg" xmlns:xlink="http://www.w3.org/1999/xlink">
<g id="graph0" class="graph" transform="scale(1 1) rotate(0) translate(4 162)">
<title>foo</title>
<g id="a_graph0"><a xlink:title=" ">
<polygon fill="#d9d9d9" stroke="none" points="-4,4 -4,-162 540,-162 540,4 -4,4"/>
<text text-anchor="start" x="176" y="-7.2" font-family="tahoma" font-size="11.00" fill="#525252">You don&#39;t have to stick to this format</text>
</a>
</g>
<!-- Student 1 (Anna): Achievement -->
<g id="node1" class="node"><title>Student 1 (Anna): Achievement</title>
<polygon fill="#fee6ce" stroke="#fee6ce" points="376,-158 164,-158 164,-122 376,-122 376,-158"/>
<text text-anchor="start" x="172" y="-136.3" font-family="Helvetica,sans-Serif" font-size="14.00">Student 1 (Anna): Achievement</text>
</g>
<!-- Teacher: Pride -->
<g id="node2" class="node"><title>Teacher: Pride</title>
<polygon fill="#fee6ce" stroke="#fee6ce" points="536,-108 426,-108 426,-72 536,-72 536,-108"/>
<text text-anchor="start" x="434" y="-86.3" font-family="Helvetica,sans-Serif" font-size="14.00">Teacher: Pride</text>
</g>
<!-- Student 1 (Anna): Achievement&#45;&gt;Teacher: Pride -->
<g id="edge1" class="edge"><title>Student 1 (Anna): Achievement&#45;&gt;Teacher: Pride</title>
<path fill="none" stroke="#737373" stroke-width="2" d="M346.71,-121.995C356.564,-119.645 366.523,-117.267 376,-115 388.881,-111.918 402.656,-108.614 415.829,-105.449"/>
<polygon fill="#737373" stroke="#737373" stroke-width="2" points="416.854,-108.802 425.759,-103.062 415.218,-101.996 416.854,-108.802"/>
</g>
<!-- Teacher: Ability -->
<g id="node3" class="node"><title>Teacher: Ability</title>
<polygon fill="#fee6ce" stroke="#fee6ce" points="114,-108 0,-108 0,-72 114,-72 114,-108"/>
<text text-anchor="start" x="8" y="-86.3" font-family="Helvetica,sans-Serif" font-size="14.00">Teacher: Ability</text>
</g>
<!-- Teacher: Ability&#45;&gt;Student 1 (Anna): Achievement -->
<g id="edge2" class="edge"><title>Teacher: Ability&#45;&gt;Student 1 (Anna): Achievement</title>
<path fill="none" stroke="#737373" stroke-width="2" d="M114.267,-103.333C135.311,-108.32 159.723,-114.105 182.851,-119.586"/>
<polygon fill="#737373" stroke="#737373" stroke-width="2" points="182.133,-123.012 192.671,-121.913 183.747,-116.201 182.133,-123.012"/>
</g>
<!-- Student 2 (Bob): Achievement -->
<g id="node4" class="node"><title>Student 2 (Bob): Achievement</title>
<polygon fill="#fee6ce" stroke="#fee6ce" points="373,-108 167,-108 167,-72 373,-72 373,-108"/>
<text text-anchor="start" x="175" y="-86.3" font-family="Helvetica,sans-Serif" font-size="14.00">Student 2 (Bob): Achievement</text>
</g>
<!-- Teacher: Ability&#45;&gt;Student 2 (Bob): Achievement -->
<g id="edge4" class="edge"><title>Teacher: Ability&#45;&gt;Student 2 (Bob): Achievement</title>
<path fill="none" stroke="#737373" stroke-width="2" d="M114.267,-90C127.459,-90 141.976,-90 156.67,-90"/>
<polygon fill="#737373" stroke="#737373" stroke-width="2" points="156.857,-93.5001 166.857,-90 156.857,-86.5001 156.857,-93.5001"/>
</g>
<!-- Student 3: (Carla): Achievement -->
<g id="node5" class="node"><title>Student 3: (Carla): Achievement</title>
<polygon fill="#fee6ce" stroke="#fee6ce" points="335.5,-58 204.5,-58 204.5,-20 335.5,-20 335.5,-58"/>
<text text-anchor="start" x="212.5" y="-42.8" font-family="Helvetica,sans-Serif" font-size="14.00">Student 3: (Carla):</text>
<text text-anchor="start" x="228.5" y="-27.8" font-family="Helvetica,sans-Serif" font-size="14.00">Achievement</text>
</g>
<!-- Teacher: Ability&#45;&gt;Student 3: (Carla): Achievement -->
<g id="edge6" class="edge"><title>Teacher: Ability&#45;&gt;Student 3: (Carla): Achievement</title>
<path fill="none" stroke="#737373" stroke-width="2" d="M114.267,-76.3999C138.84,-70.4604 168.007,-63.4106 194.358,-57.0415"/>
<polygon fill="#737373" stroke="#737373" stroke-width="2" points="195.406,-60.3891 204.303,-54.6375 193.761,-53.585 195.406,-60.3891"/>
</g>
<!-- Student 2 (Bob): Achievement&#45;&gt;Teacher: Pride -->
<g id="edge3" class="edge"><title>Student 2 (Bob): Achievement&#45;&gt;Teacher: Pride</title>
<path fill="none" stroke="#737373" stroke-width="2" d="M373.051,-90C387.584,-90 402.18,-90 415.714,-90"/>
<polygon fill="#737373" stroke="#737373" stroke-width="2" points="415.838,-93.5001 425.837,-90 415.837,-86.5001 415.838,-93.5001"/>
</g>
<!-- Student 3: (Carla): Achievement&#45;&gt;Teacher: Pride -->
<g id="edge5" class="edge"><title>Student 3: (Carla): Achievement&#45;&gt;Teacher: Pride</title>
<path fill="none" stroke="#737373" stroke-width="2" d="M335.698,-54.7875C361.204,-61.0115 390.43,-68.1432 415.88,-74.3535"/>
<polygon fill="#737373" stroke="#737373" stroke-width="2" points="415.253,-77.8031 425.798,-76.7736 416.912,-71.0026 415.253,-77.8031"/>
</g>
</g>
</svg>
