<?xml version="1.0" encoding="UTF-8" standalone="no"?>
<!DOCTYPE svg PUBLIC "-//W3C//DTD SVG 1.1//EN"
 "http://www.w3.org/Graphics/SVG/1.1/DTD/svg11.dtd">
<!-- Generated by graphviz version 2.38.0 (20140413.2041)
 -->
<!-- Title: foo Pages: 1 -->
<svg width="540pt" height="46pt"
 viewBox="0.00 0.00 540.00 46.00" xmlns="http://www.w3.org/2000/svg" xmlns:xlink="http://www.w3.org/1999/xlink">
<g id="graph0" class="graph" transform="scale(1 1) rotate(0) translate(4 42)">
<title>foo</title>
<g id="a_graph0"><a xlink:title=" ">
<polygon fill="white" stroke="none" points="-4,4 -4,-42 536,-42 536,4 -4,4"/>
</a>
</g>
<!-- Brother provokes sister (at 10:56:00 today) -->
<g id="node1" class="node"><title>Brother provokes sister (at 10:56:00 today)</title>
<polygon fill="#e5f5e0" stroke="#e5f5e0" stroke-width="2" points="183,-38 0,-38 0,-0 183,-0 183,-38"/>
<text text-anchor="start" x="8" y="-22.8" font-family="arial" font-size="14.00">Brother provokes sister (at</text>
<text text-anchor="start" x="41.5" y="-7.8" font-family="arial" font-size="14.00">10:56:00 today)</text>
</g>
<!-- Sister retaliates &#160;(at 10:56:03 today) -->
<g id="node2" class="node"><title>Sister retaliates &#160;(at 10:56:03 today)</title>
<polygon fill="#e5f5e0" stroke="#e5f5e0" stroke-width="2" points="532,-38 338,-38 338,-0 532,-0 532,-38"/>
<text text-anchor="start" x="346" y="-22.8" font-family="arial" font-size="14.00">Sister retaliates (at 10:56:03</text>
<text text-anchor="start" x="415" y="-7.8" font-family="arial" font-size="14.00">today)</text>
</g>
<!-- Brother provokes sister (at 10:56:00 today)&#45;&gt;Sister retaliates &#160;(at 10:56:03 today) -->
<g id="edge1" class="edge"><title>Brother provokes sister (at 10:56:00 today)&#45;&gt;Sister retaliates &#160;(at 10:56:03 today)</title>
<path fill="none" stroke="#41ab5d" d="M183.119,-19C227.577,-19 281.409,-19 327.79,-19"/>
<polygon fill="#41ab5d" stroke="#41ab5d" points="327.873,-22.5001 337.873,-19 327.873,-15.5001 327.873,-22.5001"/>
<text text-anchor="start" x="208" y="-22.8" font-family="Times New Roman,serif" font-size="14.00">(1&#45;5 seconds later)</text>
</g>
</g>
</svg>
