<?xml version="1.0" encoding="UTF-8" standalone="no"?>
<!DOCTYPE svg PUBLIC "-//W3C//DTD SVG 1.1//EN"
 "http://www.w3.org/Graphics/SVG/1.1/DTD/svg11.dtd">
<!-- Generated by graphviz version 2.38.0 (20140413.2041)
 -->
<!-- Title: foo Pages: 1 -->
<svg width="378pt" height="115pt"
 viewBox="0.00 0.00 378.00 115.00" xmlns="http://www.w3.org/2000/svg" xmlns:xlink="http://www.w3.org/1999/xlink">
<g id="graph0" class="graph" transform="scale(1 1) rotate(0) translate(4 111)">
<title>foo</title>
<g id="a_graph0"><a xlink:title=" ">
<polygon fill="#d9d9d9" stroke="none" points="-4,4 -4,-111 374,-111 374,4 -4,4"/>
<text text-anchor="start" x="161" y="-7.2" font-family="tahoma" font-size="11.00" fill="#525252">Confusing</text>
</a>
</g>
<!-- Medicine -->
<g id="node1" class="node"><title>Medicine</title>
<polygon fill="#fee6ce" stroke="#fee6ce" points="105.5,-107 31.5,-107 31.5,-71 105.5,-71 105.5,-107"/>
<text text-anchor="start" x="39.5" y="-85.3" font-family="Helvetica,sans-Serif" font-size="14.00">Medicine</text>
</g>
<!-- Mortality -->
<g id="node2" class="node"><title>Mortality</title>
<polygon fill="#fee6ce" stroke="#fee6ce" points="370,-81 302,-81 302,-45 370,-45 370,-81"/>
<text text-anchor="start" x="310" y="-59.3" font-family="Helvetica,sans-Serif" font-size="14.00">Mortality</text>
</g>
<!-- Medicine&#45;&gt;Mortality -->
<g id="edge1" class="edge"><title>Medicine&#45;&gt;Mortality</title>
<path fill="none" stroke="#737373" stroke-width="2" d="M105.541,-86.4288C146.973,-83.3443 216.99,-77.7371 277,-71 281.798,-70.4613 286.813,-69.8471 291.798,-69.204"/>
<polygon fill="#737373" stroke="#737373" stroke-width="2" points="292.46,-72.6468 301.911,-67.8581 291.536,-65.708 292.46,-72.6468"/>
<text text-anchor="start" x="162" y="-85.8" font-family="Helvetica,sans-Serif" font-size="14.00" fill="#cd5c5c">negative influence</text>
</g>
<!-- Number of bacteria -->
<g id="node3" class="node"><title>Number of bacteria</title>
<polygon fill="#fee6ce" stroke="#fee6ce" points="137,-56 0,-56 0,-20 137,-20 137,-56"/>
<text text-anchor="start" x="8" y="-34.3" font-family="Helvetica,sans-Serif" font-size="14.00">Number of bacteria</text>
</g>
<!-- Number of bacteria&#45;&gt;Mortality -->
<g id="edge2" class="edge"><title>Number of bacteria&#45;&gt;Mortality</title>
<path fill="none" stroke="#737373" stroke-width="2" d="M137.411,-32.5601C178.241,-30.8093 231.032,-31.2366 277,-40.2 282.048,-41.1842 287.22,-42.589 292.298,-44.2241"/>
<polygon fill="#737373" stroke="#737373" stroke-width="2" points="291.291,-47.5804 301.886,-47.6026 293.617,-40.9782 291.291,-47.5804"/>
<text text-anchor="start" x="164.5" y="-46.6" font-family="Helvetica,sans-Serif" font-size="14.00" fill="#cd5c5c">positive influence</text>
</g>
</g>
</svg>
