<?xml version="1.0" encoding="UTF-8" standalone="no"?>
<!DOCTYPE svg PUBLIC "-//W3C//DTD SVG 1.1//EN"
 "http://www.w3.org/Graphics/SVG/1.1/DTD/svg11.dtd">
<!-- Generated by graphviz version 2.38.0 (20140413.2041)
 -->
<!-- Title: foo Pages: 1 -->
<svg width="441pt" height="149pt"
 viewBox="0.00 0.00 441.00 149.00" xmlns="http://www.w3.org/2000/svg" xmlns:xlink="http://www.w3.org/1999/xlink">
<g id="graph0" class="graph" transform="scale(1 1) rotate(0) translate(4 145)">
<title>foo</title>
<g id="a_graph0"><a xlink:title=" ">
<polygon fill="white" stroke="none" points="-4,4 -4,-145 437,-145 437,4 -4,4"/>
</a>
</g>
<g id="clust1" class="cluster"><title>cluster_Villageresilience</title>
<g id="a_clust1"><a xlink:title=" ">
<path fill="#fcfbfd" stroke="#dadaeb" d="M283,-8C283,-8 413,-8 413,-8 419,-8 425,-14 425,-20 425,-20 425,-121 425,-121 425,-127 419,-133 413,-133 413,-133 283,-133 283,-133 277,-133 271,-127 271,-121 271,-121 271,-20 271,-20 271,-14 277,-8 283,-8"/>
<text text-anchor="start" x="279" y="-117.8" font-family="arial" font-size="14.00">Village resilience</text>
</a>
</g>
</g>
<!-- !do Livelihoods intervention !noyes -->
<g id="node1" class="node"><title>!do Livelihoods intervention !noyes</title>
<polygon fill="#e5f5e0" stroke="#e5f5e0" stroke-width="2" points="208,-102 9,-102 9,-66 208,-66 208,-102"/>
<text text-anchor="start" x="17" y="-81.3" font-family="arial" font-size="14.00" fill="green">▶ </text>
<text text-anchor="start" x="33" y="-81.3" font-family="arial" font-size="14.00"> Livelihoods intervention ◨</text>
</g>
<!--  Family income !lohi !smile -->
<g id="node2" class="node"><title> Family income !lohi !smile</title>
<polygon fill="#e5f5e0" stroke="#e5f5e0" stroke-width="2" points="417,-102 279,-102 279,-66 417,-66 417,-102"/>
<text text-anchor="start" x="287" y="-80.3" font-family="arial" font-size="14.00">Family income ◪ 🙂</text>
</g>
<!-- !do Livelihoods intervention !noyes&#45;&gt; Family income !lohi !smile -->
<g id="edge1" class="edge"><title>!do Livelihoods intervention !noyes&#45;&gt; Family income !lohi !smile</title>
<path fill="none" stroke="#41ab5d" d="M208.158,-84C228.252,-84 249.136,-84 268.419,-84"/>
<polygon fill="#41ab5d" stroke="#41ab5d" points="268.646,-87.5001 278.646,-84 268.646,-80.5001 268.646,-87.5001"/>
<text text-anchor="start" x="242" y="-87.8" font-family="Times New Roman,serif" font-size="14.00">⊕</text>
</g>
<!--  !do Preparedness intervention !noyes -->
<g id="node3" class="node"><title> !do Preparedness intervention !noyes</title>
<polygon fill="#e5f5e0" stroke="#e5f5e0" stroke-width="2" points="217,-52 0,-52 0,-16 217,-16 217,-52"/>
<text text-anchor="start" x="8" y="-31.3" font-family="arial" font-size="14.00" fill="green">▶ </text>
<text text-anchor="start" x="24" y="-31.3" font-family="arial" font-size="14.00"> Preparedness intervention ◨</text>
</g>
<!-- fr -->
<g id="node4" class="node"><title>fr</title>
<polygon fill="#e5f5e0" stroke="#e5f5e0" stroke-width="2" points="402.5,-52 293.5,-52 293.5,-16 402.5,-16 402.5,-52"/>
<text text-anchor="start" x="301.5" y="-30.3" font-family="arial" font-size="14.00">Flood risk ◪ ☹</text>
</g>
<!--  !do Preparedness intervention !noyes&#45;&gt;fr -->
<g id="edge2" class="edge"><title> !do Preparedness intervention !noyes&#45;&gt;fr</title>
<path fill="none" stroke="#41ab5d" d="M217.132,-34C239.706,-34 262.82,-34 283.174,-34"/>
<polygon fill="#41ab5d" stroke="#41ab5d" points="283.237,-37.5001 293.237,-34 283.237,-30.5001 283.237,-37.5001"/>
<text text-anchor="start" x="242" y="-37.8" font-family="Times New Roman,serif" font-size="14.00">⊖</text>
</g>
</g>
</svg>
