<?xml version="1.0" encoding="UTF-8" standalone="no"?>
<!DOCTYPE svg PUBLIC "-//W3C//DTD SVG 1.1//EN"
 "http://www.w3.org/Graphics/SVG/1.1/DTD/svg11.dtd">
<!-- Generated by graphviz version 2.38.0 (20140413.2041)
 -->
<!-- Title: foo Pages: 1 -->
<svg width="465pt" height="238pt"
 viewBox="0.00 0.00 465.00 238.00" xmlns="http://www.w3.org/2000/svg" xmlns:xlink="http://www.w3.org/1999/xlink">
<g id="graph0" class="graph" transform="scale(1 1) rotate(0) translate(4 234)">
<title>foo</title>
<g id="a_graph0"><a xlink:title=" ">
<polygon fill="#d9d9d9" stroke="none" points="-4,4 -4,-234 461,-234 461,4 -4,4"/>
<text text-anchor="start" x="220" y="-7.2" font-family="tahoma" font-size="11.00" fill="#525252">No!</text>
</a>
</g>
<!-- Activities for teachers -->
<g id="node1" class="node"><title>Activities for teachers</title>
<polygon fill="#fee6ce" stroke="#fee6ce" points="275,-110 181,-110 181,-72 275,-72 275,-110"/>
<text text-anchor="start" x="189" y="-94.8" font-family="Helvetica,sans-Serif" font-size="14.00">Activities for</text>
<text text-anchor="start" x="200.5" y="-79.8" font-family="Helvetica,sans-Serif" font-size="14.00">teachers</text>
</g>
<!-- Student&#45;teacher interaction is more solution&#45;oriented -->
<g id="node2" class="node"><title>Student&#45;teacher interaction is more solution&#45;oriented</title>
<polygon fill="#fee6ce" stroke="#fee6ce" points="457,-147.5 325,-147.5 325,-94.5 457,-94.5 457,-147.5"/>
<text text-anchor="start" x="340.5" y="-132.3" font-family="Helvetica,sans-Serif" font-size="14.00">Student&#45;teacher</text>
<text text-anchor="start" x="333" y="-117.3" font-family="Helvetica,sans-Serif" font-size="14.00">interaction is more</text>
<text text-anchor="start" x="338" y="-102.3" font-family="Helvetica,sans-Serif" font-size="14.00">solution&#45;oriented</text>
</g>
<!-- Activities for teachers&#45;&gt;Student&#45;teacher interaction is more solution&#45;oriented -->
<g id="edge1" class="edge"><title>Activities for teachers&#45;&gt;Student&#45;teacher interaction is more solution&#45;oriented</title>
<path fill="none" stroke="#737373" stroke-width="2" d="M275.136,-99.5968C287.623,-101.924 301.468,-104.503 315.098,-107.043"/>
<polygon fill="#737373" stroke="#737373" stroke-width="2" points="314.49,-110.49 324.962,-108.881 315.772,-103.608 314.49,-110.49"/>
</g>
<!-- Teachers attend training -->
<g id="node3" class="node"><title>Teachers attend training</title>
<polygon fill="#fee6ce" stroke="#fee6ce" points="125,-110 6,-110 6,-72 125,-72 125,-110"/>
<text text-anchor="start" x="14" y="-94.8" font-family="Helvetica,sans-Serif" font-size="14.00">Teachers attend</text>
<text text-anchor="start" x="42.5" y="-79.8" font-family="Helvetica,sans-Serif" font-size="14.00">training</text>
</g>
<!-- Teachers attend training&#45;&gt;Activities for teachers -->
<g id="edge2" class="edge"><title>Teachers attend training&#45;&gt;Activities for teachers</title>
<path fill="none" stroke="#000000" stroke-width="2" d="M125.353,-91C140.111,-91 155.911,-91 170.55,-91"/>
<polygon fill="#000000" stroke="#000000" stroke-width="2" points="170.972,-94.5001 180.972,-91 170.972,-87.5001 170.972,-94.5001"/>
</g>
<!-- Teachers attend workshops -->
<g id="node4" class="node"><title>Teachers attend workshops</title>
<polygon fill="#fee6ce" stroke="#fee6ce" points="125,-58 6,-58 6,-20 125,-20 125,-58"/>
<text text-anchor="start" x="14" y="-42.8" font-family="Helvetica,sans-Serif" font-size="14.00">Teachers attend</text>
<text text-anchor="start" x="31" y="-27.8" font-family="Helvetica,sans-Serif" font-size="14.00">workshops</text>
</g>
<!-- Teachers attend workshops&#45;&gt;Activities for teachers -->
<g id="edge3" class="edge"><title>Teachers attend workshops&#45;&gt;Activities for teachers</title>
<path fill="none" stroke="#000000" stroke-width="2" d="M125.353,-58.0676C140.398,-62.942 156.525,-68.1671 171.401,-72.9866"/>
<polygon fill="#000000" stroke="#000000" stroke-width="2" points="170.38,-76.3349 180.972,-76.0875 172.537,-69.6756 170.38,-76.3349"/>
</g>
<!-- Activities for students -->
<g id="node5" class="node"><title>Activities for students</title>
<polygon fill="#fee6ce" stroke="#fee6ce" points="275,-170 181,-170 181,-132 275,-132 275,-170"/>
<text text-anchor="start" x="189" y="-154.8" font-family="Helvetica,sans-Serif" font-size="14.00">Activities for</text>
<text text-anchor="start" x="200.5" y="-139.8" font-family="Helvetica,sans-Serif" font-size="14.00">students</text>
</g>
<!-- Activities for students&#45;&gt;Student&#45;teacher interaction is more solution&#45;oriented -->
<g id="edge4" class="edge"><title>Activities for students&#45;&gt;Student&#45;teacher interaction is more solution&#45;oriented</title>
<path fill="none" stroke="#737373" stroke-width="2" d="M275.136,-142.403C287.623,-140.076 301.468,-137.497 315.098,-134.957"/>
<polygon fill="#737373" stroke="#737373" stroke-width="2" points="315.772,-138.392 324.962,-133.119 314.49,-131.51 315.772,-138.392"/>
</g>
<!-- Students attend workshops -->
<g id="node6" class="node"><title>Students attend workshops</title>
<polygon fill="#fee6ce" stroke="#fee6ce" points="123.5,-230 7.5,-230 7.5,-192 123.5,-192 123.5,-230"/>
<text text-anchor="start" x="15.5" y="-214.8" font-family="Helvetica,sans-Serif" font-size="14.00">Students attend</text>
<text text-anchor="start" x="31" y="-199.8" font-family="Helvetica,sans-Serif" font-size="14.00">workshops</text>
</g>
<!-- Students attend workshops&#45;&gt;Activities for students -->
<g id="edge5" class="edge"><title>Students attend workshops&#45;&gt;Activities for students</title>
<path fill="none" stroke="#000000" stroke-width="2" d="M117.724,-191.851C134.831,-185.456 153.972,-178.3 171.396,-171.787"/>
<polygon fill="#000000" stroke="#000000" stroke-width="2" points="172.734,-175.023 180.875,-168.243 170.283,-168.466 172.734,-175.023"/>
</g>
<!-- Students take part in discussion on social media -->
<g id="node7" class="node"><title>Students take part in discussion on social media</title>
<polygon fill="#fee6ce" stroke="#fee6ce" points="131,-177.5 0,-177.5 0,-124.5 131,-124.5 131,-177.5"/>
<text text-anchor="start" x="8" y="-162.3" font-family="Helvetica,sans-Serif" font-size="14.00">Students take part</text>
<text text-anchor="start" x="14.5" y="-147.3" font-family="Helvetica,sans-Serif" font-size="14.00">in discussion on</text>
<text text-anchor="start" x="25.5" y="-132.3" font-family="Helvetica,sans-Serif" font-size="14.00">social media</text>
</g>
<!-- Students take part in discussion on social media&#45;&gt;Activities for students -->
<g id="edge6" class="edge"><title>Students take part in discussion on social media&#45;&gt;Activities for students</title>
<path fill="none" stroke="#000000" stroke-width="2" d="M131.319,-151C144.233,-151 157.701,-151 170.317,-151"/>
<polygon fill="#000000" stroke="#000000" stroke-width="2" points="170.683,-154.5 180.683,-151 170.683,-147.5 170.683,-154.5"/>
</g>
</g>
</svg>
