<?xml version="1.0" encoding="UTF-8" standalone="no"?>
<!DOCTYPE svg PUBLIC "-//W3C//DTD SVG 1.1//EN"
 "http://www.w3.org/Graphics/SVG/1.1/DTD/svg11.dtd">
<!-- Generated by graphviz version 2.38.0 (20140413.2041)
 -->
<!-- Title: foo Pages: 1 -->
<svg width="266pt" height="62pt"
 viewBox="0.00 0.00 266.00 61.50" xmlns="http://www.w3.org/2000/svg" xmlns:xlink="http://www.w3.org/1999/xlink">
<g id="graph0" class="graph" transform="scale(1 1) rotate(0) translate(4 57.5)">
<title>foo</title>
<g id="a_graph0"><a xlink:title=" ">
<polygon fill="white" stroke="none" points="-4,4 -4,-57.5 262,-57.5 262,4 -4,4"/>
</a>
</g>
<!-- axsxdf -->
<!-- Subjective temperature !lohi -->
<g id="node2" class="node"><title>Subjective temperature !lohi</title>
<polygon fill="#e5f5e0" stroke="#e5f5e0" stroke-width="2" points="258,-38 150,-38 150,-0 258,-0 258,-38"/>
<text text-anchor="start" x="170.5" y="-22.8" font-family="arial" font-size="14.00">Subjective</text>
<text text-anchor="start" x="158" y="-7.8" font-family="arial" font-size="14.00">temperature ◪</text>
</g>
<!-- axsxdf&#45;&gt;Subjective temperature !lohi -->
<g id="edge1" class="edge"><title>axsxdf&#45;&gt;Subjective temperature !lohi</title>
<path fill="none" stroke="#41ab5d" stroke-width="0" d="M48.1353,-52.4488C55.2411,-51.1927 73.1113,-47.9939 88,-45 104.943,-41.593 123.219,-37.6052 140.105,-33.7904"/>
<polygon fill="#41ab5d" stroke="#41ab5d" stroke-width="0" points="140.892,-37.2009 149.867,-31.5699 139.34,-30.3752 140.892,-37.2009"/>
</g>
<!-- Strength of sunshine !lohi -->
<g id="node3" class="node"><title>Strength of sunshine !lohi</title>
<polygon fill="#e5f5e0" stroke="#e5f5e0" stroke-width="2" points="88,-38 0,-38 0,-0 88,-0 88,-38"/>
<text text-anchor="start" x="9" y="-22.8" font-family="arial" font-size="14.00">Strength of</text>
<text text-anchor="start" x="8" y="-7.8" font-family="arial" font-size="14.00">sunshine ◪</text>
</g>
<!-- Strength of sunshine !lohi&#45;&gt;Subjective temperature !lohi -->
<g id="edge2" class="edge"><title>Strength of sunshine !lohi&#45;&gt;Subjective temperature !lohi</title>
<path fill="none" stroke="#41ab5d" d="M88.1742,-19C104.061,-19 122.4,-19 139.694,-19"/>
<polygon fill="#41ab5d" stroke="#41ab5d" points="139.729,-22.5001 149.729,-19 139.729,-15.5001 139.729,-22.5001"/>
<text text-anchor="start" x="113" y="-22.8" font-family="Times New Roman,serif" font-size="14.00">⊕</text>
</g>
</g>
</svg>
