<?xml version="1.0" encoding="UTF-8" standalone="no"?>
<!DOCTYPE svg PUBLIC "-//W3C//DTD SVG 1.1//EN"
 "http://www.w3.org/Graphics/SVG/1.1/DTD/svg11.dtd">
<!-- Generated by graphviz version 2.38.0 (20140413.2041)
 -->
<!-- Title: foo Pages: 1 -->
<svg width="365pt" height="111pt"
 viewBox="0.00 0.00 365.00 111.00" xmlns="http://www.w3.org/2000/svg" xmlns:xlink="http://www.w3.org/1999/xlink">
<g id="graph0" class="graph" transform="scale(1 1) rotate(0) translate(4 107)">
<title>foo</title>
<g id="a_graph0"><a xlink:title=" ">
<polygon fill="#c7e9c0" stroke="none" points="-4,4 -4,-107 361,-107 361,4 -4,4"/>
<text text-anchor="start" x="92" y="-7.2" font-family="tahoma" font-size="11.00" fill="#238b45">Alternative: differences everywhere</text>
</a>
</g>
<!-- *Increased* percentage of children vaccinated -->
<g id="node1" class="node"><title>*Increased* percentage of children vaccinated</title>
<polygon fill="#f7fcf5" stroke="#f7fcf5" points="237,-95.5 142,-95.5 142,-27.5 237,-27.5 237,-95.5"/>
<text text-anchor="start" x="150" y="-80.3" font-family="Helvetica,sans-Serif" font-size="14.00" fill="darkgreen">*Increased* </text>
<text text-anchor="start" x="153" y="-65.3" font-family="Helvetica,sans-Serif" font-size="14.00" fill="#006d2c">percentage</text>
<text text-anchor="start" x="156" y="-50.3" font-family="Helvetica,sans-Serif" font-size="14.00" fill="#006d2c">of children</text>
<text text-anchor="start" x="155.5" y="-35.3" font-family="Helvetica,sans-Serif" font-size="14.00" fill="#006d2c">vaccinated</text>
</g>
<!-- *Lower* mortality -->
<g id="node2" class="node"><title>*Lower* mortality</title>
<polygon fill="#f7fcf5" stroke="#f7fcf5" points="357,-80.5 287,-80.5 287,-42.5 357,-42.5 357,-80.5"/>
<text text-anchor="start" x="295" y="-65.3" font-family="Helvetica,sans-Serif" font-size="14.00" fill="darkgreen">*Lower* </text>
<text text-anchor="start" x="295.5" y="-50.3" font-family="Helvetica,sans-Serif" font-size="14.00" fill="#006d2c">mortality</text>
</g>
<!-- *Increased* percentage of children vaccinated&#45;&gt;*Lower* mortality -->
<g id="edge1" class="edge"><title>*Increased* percentage of children vaccinated&#45;&gt;*Lower* mortality</title>
<path fill="none" stroke="#41ab5d" stroke-width="2" d="M237.245,-61.5C250.044,-61.5 263.878,-61.5 276.545,-61.5"/>
<polygon fill="#41ab5d" stroke="#41ab5d" stroke-width="2" points="276.862,-65.0001 286.862,-61.5 276.862,-58.0001 276.862,-65.0001"/>
</g>
<!-- *Improved* quality and extent of vaccination programme -->
<g id="node3" class="node"><title>*Improved* quality and extent of vaccination programme</title>
<polygon fill="#f7fcf5" stroke="#f7fcf5" points="92,-103 0,-103 0,-20 92,-20 92,-103"/>
<text text-anchor="start" x="8" y="-87.8" font-family="Helvetica,sans-Serif" font-size="14.00" fill="darkgreen">*Improved* </text>
<text text-anchor="start" x="12.5" y="-72.8" font-family="Helvetica,sans-Serif" font-size="14.00" fill="#006d2c">quality and</text>
<text text-anchor="start" x="18.5" y="-57.8" font-family="Helvetica,sans-Serif" font-size="14.00" fill="#006d2c">extent of</text>
<text text-anchor="start" x="11" y="-42.8" font-family="Helvetica,sans-Serif" font-size="14.00" fill="#006d2c">vaccination</text>
<text text-anchor="start" x="9" y="-27.8" font-family="Helvetica,sans-Serif" font-size="14.00" fill="#006d2c">programme</text>
</g>
<!-- *Improved* quality and extent of vaccination programme&#45;&gt;*Increased* percentage of children vaccinated -->
<g id="edge2" class="edge"><title>*Improved* quality and extent of vaccination programme&#45;&gt;*Increased* percentage of children vaccinated</title>
<path fill="none" stroke="#41ab5d" stroke-width="2" d="M92.1605,-61.5C104.669,-61.5 118.411,-61.5 131.5,-61.5"/>
<polygon fill="#41ab5d" stroke="#41ab5d" stroke-width="2" points="131.821,-65.0001 141.821,-61.5 131.821,-58.0001 131.821,-65.0001"/>
</g>
</g>
</svg>
