<?xml version="1.0" encoding="UTF-8" standalone="no"?>
<!DOCTYPE svg PUBLIC "-//W3C//DTD SVG 1.1//EN"
 "http://www.w3.org/Graphics/SVG/1.1/DTD/svg11.dtd">
<!-- Generated by graphviz version 2.38.0 (20140413.2041)
 -->
<!-- Title: foo Pages: 1 -->
<svg width="468pt" height="207pt"
 viewBox="0.00 0.00 468.00 207.00" xmlns="http://www.w3.org/2000/svg" xmlns:xlink="http://www.w3.org/1999/xlink">
<g id="graph0" class="graph" transform="scale(1 1) rotate(0) translate(4 203)">
<title>foo</title>
<g id="a_graph0"><a xlink:title=" ">
<polygon fill="white" stroke="none" points="-4,4 -4,-203 464,-203 464,4 -4,4"/>
</a>
</g>
<g id="clust1" class="cluster"><title>cluster_AsimpleTheory</title>
<g id="a_clust1"><a xlink:title=" ">
<path fill="#efedf5" stroke="#efedf5" d="M20,-8C20,-8 440,-8 440,-8 446,-8 452,-14 452,-20 452,-20 452,-179 452,-179 452,-185 446,-191 440,-191 440,-191 20,-191 20,-191 14,-191 8,-185 8,-179 8,-179 8,-20 8,-20 8,-14 14,-8 20,-8"/>
<text text-anchor="start" x="16" y="-175.8" font-family="arial" font-size="14.00">A simple Theory</text>
</a>
</g>
</g>
<g id="clust2" class="cluster"><title>cluster_ConsequenceorChildVariable</title>
<g id="a_clust2"><a xlink:title=" ">
<path fill="white" stroke="white" d="M272,-42C272,-42 432,-42 432,-42 438,-42 444,-48 444,-54 444,-54 444,-122 444,-122 444,-128 438,-134 432,-134 432,-134 272,-134 272,-134 266,-134 260,-128 260,-122 260,-122 260,-54 260,-54 260,-48 266,-42 272,-42"/>
<text text-anchor="start" x="268" y="-118.8" font-family="arial" font-size="14.00">Consequence (or &#39;Child&#39;)</text>
<text text-anchor="start" x="320.5" y="-103.8" font-family="arial" font-size="14.00">Variable</text>
</a>
</g>
</g>
<g id="clust3" class="cluster"><title>cluster_InfluenceorParentVariables</title>
<g id="a_clust3"><a xlink:title=" ">
<path fill="white" stroke="white" d="M28,-16C28,-16 214,-16 214,-16 220,-16 226,-22 226,-28 226,-28 226,-148 226,-148 226,-154 220,-160 214,-160 214,-160 28,-160 28,-160 22,-160 16,-154 16,-148 16,-148 16,-28 16,-28 16,-22 22,-16 28,-16"/>
<text text-anchor="start" x="24" y="-144.8" font-family="arial" font-size="14.00">Influence (or &#39;Parent&#39;)</text>
<text text-anchor="start" x="62" y="-129.8" font-family="arial" font-size="14.00">Variables</text>
</a>
</g>
</g>
<!-- How much student feels that they live up to expectations -->
<g id="node1" class="node"><title>How much student feels that they live up to expectations</title>
<polygon fill="#e5f5e0" stroke="#e5f5e0" stroke-width="2" points="218,-114 24,-114 24,-76 218,-76 218,-114"/>
<text text-anchor="start" x="32" y="-98.8" font-family="arial" font-size="14.00">How much student feels that</text>
<text text-anchor="start" x="35.5" y="-83.8" font-family="arial" font-size="14.00">they live up to expectations</text>
</g>
<!-- Student satisfaction with school -->
<g id="node2" class="node"><title>Student satisfaction with school</title>
<polygon fill="#e5f5e0" stroke="#e5f5e0" stroke-width="2" points="436,-88 268,-88 268,-50 436,-50 436,-88"/>
<text text-anchor="start" x="276" y="-72.8" font-family="arial" font-size="14.00">Student satisfaction with</text>
<text text-anchor="start" x="330.5" y="-57.8" font-family="arial" font-size="14.00">school</text>
</g>
<!-- How much student feels that they live up to expectations&#45;&gt;Student satisfaction with school -->
<g id="edge1" class="edge"><title>How much student feels that they live up to expectations&#45;&gt;Student satisfaction with school</title>
<path fill="none" stroke="#41ab5d" d="M218.121,-84.0867C231.289,-82.5917 244.789,-81.0589 257.901,-79.5702"/>
<polygon fill="#41ab5d" stroke="#41ab5d" points="258.299,-83.0475 267.841,-78.4417 257.51,-76.0922 258.299,-83.0475"/>
</g>
<!-- How much student feels supported and liked -->
<g id="node3" class="node"><title>How much student feels supported and liked</title>
<polygon fill="#e5f5e0" stroke="#e5f5e0" stroke-width="2" points="205,-62 37,-62 37,-24 205,-24 205,-62"/>
<text text-anchor="start" x="45" y="-46.8" font-family="arial" font-size="14.00">How much student feels</text>
<text text-anchor="start" x="58.5" y="-31.8" font-family="arial" font-size="14.00">supported and liked</text>
</g>
<!-- How much student feels supported and liked&#45;&gt;Student satisfaction with school -->
<g id="edge2" class="edge"><title>How much student feels supported and liked&#45;&gt;Student satisfaction with school</title>
<path fill="none" stroke="#41ab5d" d="M205.322,-52.4601C222.32,-54.39 240.31,-56.4325 257.631,-58.3992"/>
<polygon fill="#41ab5d" stroke="#41ab5d" points="257.409,-61.8963 267.74,-59.5469 258.199,-54.941 257.409,-61.8963"/>
</g>
</g>
</svg>
