<?xml version="1.0" encoding="UTF-8" standalone="no"?>
<!DOCTYPE svg PUBLIC "-//W3C//DTD SVG 1.1//EN"
 "http://www.w3.org/Graphics/SVG/1.1/DTD/svg11.dtd">
<!-- Generated by graphviz version 2.38.0 (20140413.2041)
 -->
<!-- Title: foo Pages: 1 -->
<svg width="988pt" height="302pt"
 viewBox="0.00 0.00 988.00 302.00" xmlns="http://www.w3.org/2000/svg" xmlns:xlink="http://www.w3.org/1999/xlink">
<g id="graph0" class="graph" transform="scale(1 1) rotate(0) translate(4 298)">
<title>foo</title>
<g id="a_graph0"><a xlink:title=" ">
<polygon fill="white" stroke="none" points="-4,4 -4,-298 984,-298 984,4 -4,4"/>
</a>
</g>
<!-- b -->
<g id="node1" class="node"><title>b</title>
<polygon fill="#c7e9c0" stroke="#c7e9c0" points="470.611,-208 416.611,-208 416.611,-172 470.611,-172 470.611,-208"/>
<text text-anchor="start" x="439.611" y="-186.3" font-family="Times New Roman,serif" font-size="14.00">b</text>
</g>
<!-- a -->
<g id="node2" class="node"><title>a</title>
<polygon fill="#c7e9c0" stroke="#c7e9c0" points="378.611,-294 324.611,-294 324.611,-258 378.611,-258 378.611,-294"/>
<text text-anchor="start" x="348.111" y="-272.3" font-family="Times New Roman,serif" font-size="14.00">a</text>
</g>
<!-- b&#45;&gt;a -->
<g id="edge1" class="edge"><title>b&#45;&gt;a</title>
<path fill="none" stroke="black" d="M424.549,-208.405C411.013,-220.763 392.674,-237.508 377.771,-251.115"/>
<polygon fill="black" stroke="black" points="375.359,-248.577 370.334,-257.905 380.079,-253.747 375.359,-248.577"/>
</g>
<!-- c -->
<g id="node3" class="node"><title>c</title>
<polygon fill="#fcbba1" stroke="#fcbba1" points="285.611,-208 231.611,-208 231.611,-172 285.611,-172 285.611,-208"/>
<text text-anchor="start" x="255.111" y="-186.3" font-family="Times New Roman,serif" font-size="14.00">c</text>
</g>
<!-- c&#45;&gt;a -->
<g id="edge2" class="edge"><title>c&#45;&gt;a</title>
<path fill="none" stroke="black" d="M277.881,-208.405C291.563,-220.763 310.102,-237.508 325.167,-251.115"/>
<polygon fill="black" stroke="black" points="322.917,-253.799 332.684,-257.905 327.609,-248.605 322.917,-253.799"/>
</g>
<!-- d -->
<g id="node4" class="node"><title>d</title>
<polygon fill="#c6dbef" stroke="#c6dbef" points="100.611,-122 46.6111,-122 46.6111,-86 100.611,-86 100.611,-122"/>
<text text-anchor="start" x="69.6111" y="-100.3" font-family="Times New Roman,serif" font-size="14.00">d</text>
</g>
<!-- d&#45;&gt;b -->
<g id="edge3" class="edge"><title>d&#45;&gt;b</title>
<path fill="none" stroke="black" d="M100.818,-111.177C166.169,-126.013 332.069,-163.677 406.49,-180.573"/>
<polygon fill="black" stroke="black" points="405.837,-184.013 416.364,-182.814 407.387,-177.187 405.837,-184.013"/>
</g>
<!-- d&#45;&gt;c -->
<g id="edge4" class="edge"><title>d&#45;&gt;c</title>
<path fill="none" stroke="black" d="M100.908,-117.394C132.972,-131.953 186.301,-156.167 221.95,-172.354"/>
<polygon fill="black" stroke="black" points="220.951,-175.744 231.503,-176.691 223.845,-169.37 220.951,-175.744"/>
</g>
<!-- e -->
<g id="node5" class="node"><title>e</title>
<polygon fill="#c6dbef" stroke="#c6dbef" points="285.611,-122 231.611,-122 231.611,-86 285.611,-86 285.611,-122"/>
<text text-anchor="start" x="255.111" y="-100.3" font-family="Times New Roman,serif" font-size="14.00">e</text>
</g>
<!-- e&#45;&gt;b -->
<g id="edge5" class="edge"><title>e&#45;&gt;b</title>
<path fill="none" stroke="black" d="M285.908,-117.394C317.972,-131.953 371.301,-156.167 406.95,-172.354"/>
<polygon fill="black" stroke="black" points="405.951,-175.744 416.503,-176.691 408.845,-169.37 405.951,-175.744"/>
</g>
<!-- e&#45;&gt;c -->
<g id="edge6" class="edge"><title>e&#45;&gt;c</title>
<path fill="none" stroke="black" d="M258.611,-122.405C258.611,-133.743 258.611,-148.773 258.611,-161.685"/>
<polygon fill="black" stroke="black" points="255.111,-161.905 258.611,-171.905 262.111,-161.905 255.111,-161.905"/>
</g>
<!-- f -->
<g id="node6" class="node"><title>f</title>
<polygon fill="#c6dbef" stroke="#c6dbef" points="470.611,-122 416.611,-122 416.611,-86 470.611,-86 470.611,-122"/>
<text text-anchor="start" x="441.111" y="-100.3" font-family="Times New Roman,serif" font-size="14.00">f</text>
</g>
<!-- f&#45;&gt;b -->
<g id="edge7" class="edge"><title>f&#45;&gt;b</title>
<path fill="none" stroke="black" d="M443.611,-122.405C443.611,-133.743 443.611,-148.773 443.611,-161.685"/>
<polygon fill="black" stroke="black" points="440.111,-161.905 443.611,-171.905 447.111,-161.905 440.111,-161.905"/>
</g>
<!-- f&#45;&gt;c -->
<g id="edge8" class="edge"><title>f&#45;&gt;c</title>
<path fill="none" stroke="black" d="M416.314,-117.394C384.25,-131.953 330.921,-156.167 295.273,-172.354"/>
<polygon fill="black" stroke="black" points="293.377,-169.37 285.719,-176.691 296.272,-175.744 293.377,-169.37"/>
</g>
<!-- g -->
<g id="node7" class="node"><title>g</title>
<polygon fill="#c7e9c0" stroke="#c7e9c0" points="655.611,-122 601.611,-122 601.611,-86 655.611,-86 655.611,-122"/>
<text text-anchor="start" x="625.111" y="-100.3" font-family="Times New Roman,serif" font-size="14.00">g</text>
</g>
<!-- g&#45;&gt;b -->
<g id="edge9" class="edge"><title>g&#45;&gt;b</title>
<path fill="none" stroke="black" d="M601.314,-117.394C569.25,-131.953 515.921,-156.167 480.273,-172.354"/>
<polygon fill="black" stroke="black" points="478.377,-169.37 470.719,-176.691 481.272,-175.744 478.377,-169.37"/>
</g>
<!-- h -->
<g id="node8" class="node"><title>h</title>
<polygon fill="#c7e9c0" stroke="#c7e9c0" points="840.611,-122 786.611,-122 786.611,-86 840.611,-86 840.611,-122"/>
<text text-anchor="start" x="810.111" y="-100.3" font-family="Times New Roman,serif" font-size="14.00">h</text>
</g>
<!-- h&#45;&gt;b -->
<g id="edge10" class="edge"><title>h&#45;&gt;b</title>
<path fill="none" stroke="black" d="M786.404,-111.177C721.054,-126.013 555.154,-163.677 480.732,-180.573"/>
<polygon fill="black" stroke="black" points="479.835,-177.187 470.858,-182.814 481.385,-184.013 479.835,-177.187"/>
</g>
<!-- i -->
<g id="node9" class="node"><title>i</title>
<polygon fill="#dadaeb" stroke="#dadaeb" points="563.611,-36 509.611,-36 509.611,-0 563.611,-0 563.611,-36"/>
<text text-anchor="start" x="534.611" y="-14.3" font-family="Times New Roman,serif" font-size="14.00">i</text>
</g>
<!-- i&#45;&gt;g -->
<g id="edge11" class="edge"><title>i&#45;&gt;g</title>
<path fill="none" stroke="black" d="M555.674,-36.4049C569.209,-48.7632 587.549,-65.5082 602.452,-79.1152"/>
<polygon fill="black" stroke="black" points="600.143,-81.7468 609.888,-85.9048 604.863,-76.5774 600.143,-81.7468"/>
</g>
<!-- i&#45;&gt;h -->
<g id="edge12" class="edge"><title>i&#45;&gt;h</title>
<path fill="none" stroke="black" d="M563.675,-27.2072C613.632,-42.3565 720.371,-74.7249 776.834,-91.8472"/>
<polygon fill="black" stroke="black" points="775.852,-95.2068 786.437,-94.7595 777.883,-88.508 775.852,-95.2068"/>
</g>
<!-- j -->
<g id="node10" class="node"><title>j</title>
<polygon fill="#dadaeb" stroke="#dadaeb" points="748.611,-36 694.611,-36 694.611,-0 748.611,-0 748.611,-36"/>
<text text-anchor="start" x="719.611" y="-14.3" font-family="Times New Roman,serif" font-size="14.00">j</text>
</g>
<!-- j&#45;&gt;g -->
<g id="edge13" class="edge"><title>j&#45;&gt;g</title>
<path fill="none" stroke="black" d="M702.341,-36.4049C688.659,-48.7632 670.12,-65.5082 655.055,-79.1152"/>
<polygon fill="black" stroke="black" points="652.613,-76.6046 647.538,-85.9048 657.305,-81.7993 652.613,-76.6046"/>
</g>
<!-- j&#45;&gt;h -->
<g id="edge14" class="edge"><title>j&#45;&gt;h</title>
<path fill="none" stroke="black" d="M740.674,-36.4049C754.209,-48.7632 772.549,-65.5082 787.452,-79.1152"/>
<polygon fill="black" stroke="black" points="785.143,-81.7468 794.888,-85.9048 789.863,-76.5774 785.143,-81.7468"/>
</g>
<!-- k -->
<g id="node11" class="node"><title>k</title>
<polygon fill="#dadaeb" stroke="#dadaeb" points="933.611,-36 879.611,-36 879.611,-0 933.611,-0 933.611,-36"/>
<text text-anchor="start" x="903.111" y="-14.3" font-family="Times New Roman,serif" font-size="14.00">k</text>
</g>
<!-- k&#45;&gt;g -->
<g id="edge15" class="edge"><title>k&#45;&gt;g</title>
<path fill="none" stroke="black" d="M879.449,-27.2072C829.312,-42.3565 722.188,-74.7249 665.521,-91.8472"/>
<polygon fill="black" stroke="black" points="664.444,-88.5166 655.883,-94.7595 666.468,-95.2174 664.444,-88.5166"/>
</g>
<!-- k&#45;&gt;h -->
<g id="edge16" class="edge"><title>k&#45;&gt;h</title>
<path fill="none" stroke="black" d="M887.341,-36.4049C873.659,-48.7632 855.12,-65.5082 840.055,-79.1152"/>
<polygon fill="black" stroke="black" points="837.613,-76.6046 832.538,-85.9048 842.305,-81.7993 837.613,-76.6046"/>
</g>
</g>
</svg>
