<?xml version="1.0" encoding="UTF-8" standalone="no"?>
<!DOCTYPE svg PUBLIC "-//W3C//DTD SVG 1.1//EN"
 "http://www.w3.org/Graphics/SVG/1.1/DTD/svg11.dtd">
<!-- Generated by graphviz version 2.38.0 (20140413.2041)
 -->
<!-- Title: foo Pages: 1 -->
<svg width="330pt" height="72pt"
 viewBox="0.00 0.00 330.00 72.00" xmlns="http://www.w3.org/2000/svg" xmlns:xlink="http://www.w3.org/1999/xlink">
<g id="graph0" class="graph" transform="scale(1 1) rotate(0) translate(4 68)">
<title>foo</title>
<g id="a_graph0"><a xlink:title=" ">
<polygon fill="white" stroke="none" points="-4,4 -4,-68 326,-68 326,4 -4,4"/>
</a>
</g>
<!-- Number of students signing recycling petition *1200&#45;&#45;* -->
<g id="node1" class="node"><title>Number of students signing recycling petition *1200&#45;&#45;*</title>
<polygon fill="#e5f5e0" stroke="#e5f5e0" stroke-width="2" points="141,-57 0,-57 0,-7 141,-7 141,-57"/>
<text text-anchor="start" x="8" y="-42.8" font-family="arial" font-size="14.00">Number of students</text>
<text text-anchor="start" x="17.5" y="-28.8" font-family="arial" font-size="14.00">signing recycling</text>
<text text-anchor="start" x="17" y="-14.8" font-family="arial" font-size="14.00">petition </text>
<text text-anchor="start" x="67" y="-14.8" font-family="arial" font-size="14.00" fill="darkgreen">*1200&#45;&#45;* </text>
</g>
<!-- School Principal&#39;s support for the recycling initiative (lo&#45;hi) *medium&#45;&#45;* -->
<g id="node2" class="node"><title>School Principal&#39;s support for the recycling initiative (lo&#45;hi) *medium&#45;&#45;*</title>
<polygon fill="#e5f5e0" stroke="#e5f5e0" stroke-width="2" points="322,-64 191,-64 191,-0 322,-0 322,-64"/>
<text text-anchor="start" x="200" y="-49.8" font-family="arial" font-size="14.00">School Principal&#39;s</text>
<text text-anchor="start" x="210" y="-35.8" font-family="arial" font-size="14.00">support for the</text>
<text text-anchor="start" x="201.5" y="-21.8" font-family="arial" font-size="14.00">recycling initiative</text>
<text text-anchor="start" x="199" y="-7.8" font-family="arial" font-size="14.00">(lo&#45;hi) </text>
<text text-anchor="start" x="239" y="-7.8" font-family="arial" font-size="14.00" fill="darkgreen">*medium&#45;&#45;* </text>
</g>
<!-- Number of students signing recycling petition *1200&#45;&#45;*&#45;&gt;School Principal&#39;s support for the recycling initiative (lo&#45;hi) *medium&#45;&#45;* -->
<g id="edge1" class="edge"><title>Number of students signing recycling petition *1200&#45;&#45;*&#45;&gt;School Principal&#39;s support for the recycling initiative (lo&#45;hi) *medium&#45;&#45;*</title>
<path fill="none" stroke="#41ab5d" d="M141.063,-32C153.991,-32 167.549,-32 180.629,-32"/>
<polygon fill="#41ab5d" stroke="#41ab5d" points="180.994,-35.5001 190.994,-32 180.994,-28.5001 180.994,-35.5001"/>
</g>
</g>
</svg>
