<?xml version="1.0" encoding="UTF-8" standalone="no"?>
<!DOCTYPE svg PUBLIC "-//W3C//DTD SVG 1.1//EN"
 "http://www.w3.org/Graphics/SVG/1.1/DTD/svg11.dtd">
<!-- Generated by graphviz version 2.38.0 (20140413.2041)
 -->
<!-- Title: foo Pages: 1 -->
<svg width="375pt" height="44pt"
 viewBox="0.00 0.00 375.00 44.00" xmlns="http://www.w3.org/2000/svg" xmlns:xlink="http://www.w3.org/1999/xlink">
<g id="graph0" class="graph" transform="scale(1 1) rotate(0) translate(4 40)">
<title>foo</title>
<g id="a_graph0"><a xlink:title=" ">
<polygon fill="white" stroke="none" points="-4,4 -4,-40 371,-40 371,4 -4,4"/>
</a>
</g>
<!-- !do Acts of kindness !heart -->
<g id="node1" class="node"><title>!do Acts of kindness !heart</title>
<polygon fill="#e5f5e0" stroke="#e5f5e0" stroke-width="2" points="154,-36 0,-36 0,-0 154,-0 154,-36"/>
<text text-anchor="start" x="8" y="-15.3" font-family="arial" font-size="14.00" fill="green">▶ </text>
<text text-anchor="start" x="24" y="-15.3" font-family="arial" font-size="14.00"> Acts of kindness </text>
<text text-anchor="start" x="137" y="-15.3" font-family="arial" font-size="14.00" fill="orange">♥</text>
</g>
<!-- Good consequences !heart -->
<g id="node2" class="node"><title>Good consequences !heart</title>
<polygon fill="#e5f5e0" stroke="#e5f5e0" stroke-width="2" points="367,-36 204,-36 204,-0 367,-0 367,-36"/>
<text text-anchor="start" x="212" y="-15.3" font-family="arial" font-size="14.00">Good consequences </text>
<text text-anchor="start" x="350" y="-15.3" font-family="arial" font-size="14.00" fill="orange">♥</text>
</g>
<!-- !do Acts of kindness !heart&#45;&gt;Good consequences !heart -->
<g id="edge1" class="edge"><title>!do Acts of kindness !heart&#45;&gt;Good consequences !heart</title>
<path fill="none" stroke="#41ab5d" d="M154.013,-18C166.935,-18 180.469,-18 193.725,-18"/>
<polygon fill="#41ab5d" stroke="#41ab5d" points="193.792,-21.5001 203.792,-18 193.792,-14.5001 193.792,-21.5001"/>
</g>
</g>
</svg>
