<?xml version="1.0" encoding="UTF-8" standalone="no"?>
<!DOCTYPE svg PUBLIC "-//W3C//DTD SVG 1.1//EN"
 "http://www.w3.org/Graphics/SVG/1.1/DTD/svg11.dtd">
<!-- Generated by graphviz version 2.38.0 (20140413.2041)
 -->
<!-- Title: foo Pages: 1 -->
<svg width="392pt" height="76pt"
 viewBox="0.00 0.00 392.00 76.00" xmlns="http://www.w3.org/2000/svg" xmlns:xlink="http://www.w3.org/1999/xlink">
<g id="graph0" class="graph" transform="scale(1 1) rotate(0) translate(4 72)">
<title>foo</title>
<g id="a_graph0"><a xlink:title=" ">
<polygon fill="white" stroke="none" points="-4,4 -4,-72 388,-72 388,4 -4,4"/>
</a>
</g>
<!-- Trainee skills during year -->
<g id="node1" class="node"><title>Trainee skills during year</title>
<polygon fill="#e5f5e0" stroke="#e5f5e0" stroke-width="2" points="240,-53 141,-53 141,-15 240,-15 240,-53"/>
<text text-anchor="start" x="149" y="-37.8" font-family="arial" font-size="14.00">Trainee skills</text>
<text text-anchor="start" x="155.5" y="-22.8" font-family="arial" font-size="14.00">during year</text>
</g>
<!-- _^ Trainee scores in project&#45;end assessment -->
<g id="node2" class="node"><title>_^ Trainee scores in project&#45;end assessment</title>
<polygon fill="#e5f5e0" stroke="#e5f5e0" stroke-width="2" points="384,-68 290,-68 290,-0 384,-0 384,-68"/>
<text text-anchor="start" x="304" y="-52.8" font-family="arial" font-size="14.00">_^ Trainee</text>
<text text-anchor="start" x="308" y="-37.8" font-family="arial" font-size="14.00">scores in</text>
<text text-anchor="start" x="300.5" y="-22.8" font-family="arial" font-size="14.00">project&#45;end</text>
<text text-anchor="start" x="298" y="-7.8" font-family="arial" font-size="14.00">assessment</text>
</g>
<!-- Trainee skills during year&#45;&gt;_^ Trainee scores in project&#45;end assessment -->
<g id="edge1" class="edge"><title>Trainee skills during year&#45;&gt;_^ Trainee scores in project&#45;end assessment</title>
<path fill="none" stroke="#41ab5d" d="M240.018,-34C252.699,-34 266.476,-34 279.531,-34"/>
<polygon fill="#41ab5d" stroke="#41ab5d" points="279.811,-37.5001 289.811,-34 279.81,-30.5001 279.811,-37.5001"/>
</g>
<!-- ^_ Training delivered at project start -->
<g id="node3" class="node"><title>^_ Training delivered at project start</title>
<polygon fill="#e5f5e0" stroke="#e5f5e0" stroke-width="2" points="91,-60.5 0,-60.5 0,-7.5 91,-7.5 91,-60.5"/>
<text text-anchor="start" x="11.5" y="-45.3" font-family="arial" font-size="14.00">^_ Training</text>
<text text-anchor="start" x="8.5" y="-30.3" font-family="arial" font-size="14.00">delivered at</text>
<text text-anchor="start" x="8" y="-15.3" font-family="arial" font-size="14.00">project start</text>
</g>
<!-- ^_ Training delivered at project start&#45;&gt;Trainee skills during year -->
<g id="edge2" class="edge"><title>^_ Training delivered at project start&#45;&gt;Trainee skills during year</title>
<path fill="none" stroke="#41ab5d" d="M91.3537,-34C103.763,-34 117.422,-34 130.504,-34"/>
<polygon fill="#41ab5d" stroke="#41ab5d" points="130.837,-37.5001 140.837,-34 130.837,-30.5001 130.837,-37.5001"/>
</g>
</g>
</svg>
