<?xml version="1.0" encoding="UTF-8" standalone="no"?>
<!DOCTYPE svg PUBLIC "-//W3C//DTD SVG 1.1//EN"
 "http://www.w3.org/Graphics/SVG/1.1/DTD/svg11.dtd">
<!-- Generated by graphviz version 2.38.0 (20140413.2041)
 -->
<!-- Title: foo Pages: 1 -->
<svg width="166pt" height="105pt"
 viewBox="0.00 0.00 166.00 105.00" xmlns="http://www.w3.org/2000/svg" xmlns:xlink="http://www.w3.org/1999/xlink">
<g id="graph0" class="graph" transform="scale(1 1) rotate(0) translate(4 101)">
<title>foo</title>
<g id="a_graph0"><a xlink:title=" ">
<polygon fill="white" stroke="none" points="-4,4 -4,-101 162,-101 162,4 -4,4"/>
</a>
</g>
<!-- A -->
<g id="node1" class="node"><title>A</title>
<polygon fill="#e5f5e0" stroke="#e5f5e0" stroke-width="2" points="54,-97 0,-97 0,-74 54,-74 54,-97"/>
<text text-anchor="start" x="22" y="-81.8" font-family="arial" font-size="14.00">A</text>
</g>
<!-- X !plus -->
<g id="node2" class="node"><title>X !plus</title>
<polygon fill="#e5f5e0" stroke="#e5f5e0" stroke-width="2" points="158,-60 104,-60 104,-37 158,-37 158,-60"/>
<text text-anchor="start" x="118.5" y="-44.8" font-family="arial" font-size="14.00">X ⊕</text>
</g>
<!-- A&#45;&gt;X !plus -->
<g id="edge1" class="edge"><title>A&#45;&gt;X !plus</title>
<path fill="none" stroke="#41ab5d" d="M54.0028,-76.0676C66.1377,-71.6657 80.781,-66.3539 93.9616,-61.5727"/>
<polygon fill="#41ab5d" stroke="#41ab5d" points="95.4829,-64.7441 103.69,-58.0438 93.0958,-58.1637 95.4829,-64.7441"/>
</g>
<!-- B -->
<g id="node3" class="node"><title>B</title>
<polygon fill="#e5f5e0" stroke="#e5f5e0" stroke-width="2" points="54,-60 0,-60 0,-37 54,-37 54,-60"/>
<text text-anchor="start" x="22" y="-44.8" font-family="arial" font-size="14.00">B</text>
</g>
<!-- B&#45;&gt;X !plus -->
<g id="edge2" class="edge"><title>B&#45;&gt;X !plus</title>
<path fill="none" stroke="#41ab5d" d="M54.0028,-48.5C66.0187,-48.5 80.4941,-48.5 93.5735,-48.5"/>
<polygon fill="#41ab5d" stroke="#41ab5d" points="93.69,-52.0001 103.69,-48.5 93.69,-45.0001 93.69,-52.0001"/>
</g>
<!-- C -->
<g id="node4" class="node"><title>C</title>
<polygon fill="#e5f5e0" stroke="#e5f5e0" stroke-width="2" points="54,-23 0,-23 0,-0 54,-0 54,-23"/>
<text text-anchor="start" x="21.5" y="-7.8" font-family="arial" font-size="14.00">C</text>
</g>
<!-- C&#45;&gt;X !plus -->
<g id="edge3" class="edge"><title>C&#45;&gt;X !plus</title>
<path fill="none" stroke="#41ab5d" d="M54.0028,-20.9324C66.1377,-25.3343 80.781,-30.6461 93.9616,-35.4273"/>
<polygon fill="#41ab5d" stroke="#41ab5d" points="93.0958,-38.8363 103.69,-38.9562 95.4829,-32.2559 93.0958,-38.8363"/>
</g>
</g>
</svg>
