<?xml version="1.0" encoding="UTF-8" standalone="no"?>
<!DOCTYPE svg PUBLIC "-//W3C//DTD SVG 1.1//EN"
 "http://www.w3.org/Graphics/SVG/1.1/DTD/svg11.dtd">
<!-- Generated by graphviz version 2.38.0 (20140413.2041)
 -->
<!-- Title: foo Pages: 1 -->
<svg width="787pt" height="160pt"
 viewBox="0.00 0.00 787.00 159.77" xmlns="http://www.w3.org/2000/svg" xmlns:xlink="http://www.w3.org/1999/xlink">
<g id="graph0" class="graph" transform="scale(1 1) rotate(0) translate(4 155.774)">
<title>foo</title>
<g id="a_graph0"><a xlink:title=" ">
<polygon fill="white" stroke="none" points="-4,4 -4,-155.774 783,-155.774 783,4 -4,4"/>
</a>
</g>
<!-- c -->
<g id="node1" class="node"><title>c</title>
<polygon fill="#e5f5e0" stroke="#e5f5e0" stroke-width="2" points="315,-65.7738 107,-65.7738 107,-29.7738 315,-29.7738 315,-65.7738"/>
<text text-anchor="start" x="115" y="-44.0738" font-family="arial" font-size="14.00">Some intermediate outcome 1</text>
</g>
<!-- a -->
<g id="node2" class="node"><title>a</title>
<polygon fill="#e5f5e0" stroke="#e5f5e0" stroke-width="2" points="550,-119.774 401,-119.774 401,-83.7738 550,-83.7738 550,-119.774"/>
<text text-anchor="start" x="409" y="-105.574" font-family="arial" font-size="14.00">Official program goal</text>
<text text-anchor="start" x="440" y="-91.5738" font-family="arial" font-size="14.00">Officially: </text>
<text text-anchor="start" x="502" y="-91.5738" font-family="arial" font-size="14.00" fill="orange">♥</text>
</g>
<!-- c&#45;&gt;a -->
<g id="edge1" class="edge"><title>c&#45;&gt;a</title>
<path fill="none" stroke="#41ab5d" d="M299.774,-65.8301C329.105,-71.864 361.702,-78.5697 390.721,-84.5393"/>
<polygon fill="#41ab5d" stroke="#41ab5d" points="390.325,-88.0311 400.825,-86.6179 391.736,-81.1746 390.325,-88.0311"/>
</g>
<!-- b -->
<g id="node3" class="node"><title>b</title>
<polygon fill="#e5f5e0" stroke="#e5f5e0" stroke-width="2" points="585,-69.7738 366,-69.7738 366,-33.7738 585,-33.7738 585,-69.7738"/>
<text text-anchor="start" x="374" y="-48.0738" font-family="arial" font-size="14.00">Some other interesting outcome</text>
</g>
<!-- c&#45;&gt;b -->
<g id="edge2" class="edge"><title>c&#45;&gt;b</title>
<path fill="none" stroke="#41ab5d" d="M315.37,-49.349C328.518,-49.5493 342.057,-49.7556 355.426,-49.9593"/>
<polygon fill="#41ab5d" stroke="#41ab5d" points="355.555,-53.4616 365.607,-50.1145 355.662,-46.4624 355.555,-53.4616"/>
</g>
<!-- Hypothetical higher values !heart -->
<g id="node6" class="node"><title>Hypothetical higher values !heart</title>
<polygon fill="none" stroke="#e5f5e0" stroke-width="2" stroke-dasharray="5,2" points="779,-92.7738 642,-92.7738 642,-56.7738 779,-56.7738 779,-92.7738"/>
<text text-anchor="start" x="650" y="-78.5738" font-family="arial" font-size="14.00">Hypothetical higher</text>
<text text-anchor="start" x="683.5" y="-64.5738" font-family="arial" font-size="14.00">values </text>
<text text-anchor="start" x="728.5" y="-64.5738" font-family="arial" font-size="14.00" fill="orange">♥</text>
</g>
<!-- c&#45;&gt;Hypothetical higher values !heart -->
<g id="edge9" class="edge"><title>c&#45;&gt;Hypothetical higher values !heart</title>
<path fill="none" stroke="#41ab5d" stroke-dasharray="5,2" d="M273.25,-29.7095C347.856,-10.4743 477.263,13.9329 585,-11.7738 616.967,-19.4014 650.018,-36.638 674.026,-51.1568"/>
<polygon fill="#41ab5d" stroke="#41ab5d" points="672.418,-54.2776 682.763,-56.5625 676.101,-48.3247 672.418,-54.2776"/>
<text text-anchor="start" x="472" y="-15.5738" font-family="Times New Roman,serif" font-size="14.00">?</text>
</g>
<!-- a&#45;&gt;Hypothetical higher values !heart -->
<g id="edge7" class="edge"><title>a&#45;&gt;Hypothetical higher values !heart</title>
<path fill="none" stroke="#41ab5d" stroke-dasharray="5,2" d="M550.223,-93.2308C576.117,-90.2302 605.285,-86.8503 631.517,-83.8105"/>
<polygon fill="#41ab5d" stroke="#41ab5d" points="632.263,-87.2475 641.794,-82.6196 631.457,-80.294 632.263,-87.2475"/>
<text text-anchor="start" x="610" y="-89.5738" font-family="Times New Roman,serif" font-size="14.00">?</text>
</g>
<!-- b&#45;&gt;Hypothetical higher values !heart -->
<g id="edge8" class="edge"><title>b&#45;&gt;Hypothetical higher values !heart</title>
<path fill="none" stroke="#41ab5d" stroke-dasharray="5,2" d="M585.103,-58.7583C595.889,-59.6755 606.665,-60.681 617,-61.7738 621.788,-62.28 626.709,-62.8436 631.668,-63.4446"/>
<polygon fill="#41ab5d" stroke="#41ab5d" points="631.513,-66.9525 641.871,-64.724 632.384,-60.0069 631.513,-66.9525"/>
<text text-anchor="start" x="610" y="-65.5738" font-family="Times New Roman,serif" font-size="14.00">?</text>
</g>
<!-- d -->
<g id="node4" class="node"><title>d</title>
<polygon fill="#e5f5e0" stroke="#e5f5e0" stroke-width="2" points="315,-121.774 107,-121.774 107,-85.7738 315,-85.7738 315,-121.774"/>
<text text-anchor="start" x="115" y="-100.074" font-family="arial" font-size="14.00">Some intermediate outcome 2</text>
</g>
<!-- d&#45;&gt;a -->
<g id="edge3" class="edge"><title>d&#45;&gt;a</title>
<path fill="none" stroke="#41ab5d" d="M315.37,-102.986C340.352,-102.796 366.747,-102.595 390.704,-102.412"/>
<polygon fill="#41ab5d" stroke="#41ab5d" points="390.838,-105.911 400.811,-102.335 390.785,-98.9116 390.838,-105.911"/>
</g>
<!-- d&#45;&gt;b -->
<g id="edge4" class="edge"><title>d&#45;&gt;b</title>
<path fill="none" stroke="#41ab5d" d="M303.073,-85.7327C325.877,-81.2153 350.472,-76.3431 373.717,-71.7384"/>
<polygon fill="#41ab5d" stroke="#41ab5d" points="374.459,-75.1596 383.588,-69.7831 373.098,-68.293 374.459,-75.1596"/>
</g>
<!-- d&#45;&gt;Hypothetical higher values !heart -->
<g id="edge10" class="edge"><title>d&#45;&gt;Hypothetical higher values !heart</title>
<path fill="none" stroke="#41ab5d" stroke-dasharray="5,2" d="M299.539,-121.799C375.685,-134.49 488.624,-146.092 585,-126.774 613.589,-121.043 643.811,-108.591 667.319,-97.3093"/>
<polygon fill="#41ab5d" stroke="#41ab5d" points="668.872,-100.446 676.306,-92.8968 665.787,-94.1624 668.872,-100.446"/>
<text text-anchor="start" x="472" y="-140.574" font-family="Times New Roman,serif" font-size="14.00">?</text>
</g>
<!-- Inputs -->
<g id="node5" class="node"><title>Inputs</title>
<polygon fill="#e5f5e0" stroke="#e5f5e0" stroke-width="2" points="56,-93.7738 3.55271e-015,-93.7738 3.55271e-015,-57.7738 56,-57.7738 56,-93.7738"/>
<text text-anchor="start" x="8" y="-72.0738" font-family="arial" font-size="14.00">Inputs</text>
</g>
<!-- Inputs&#45;&gt;c -->
<g id="edge5" class="edge"><title>Inputs&#45;&gt;c</title>
<path fill="none" stroke="#41ab5d" d="M56.0975,-71.5819C67.5851,-69.8048 81.8116,-67.604 96.9363,-65.2643"/>
<polygon fill="#41ab5d" stroke="#41ab5d" points="97.6379,-68.6975 106.985,-63.7098 96.5677,-61.7798 97.6379,-68.6975"/>
</g>
<!-- Inputs&#45;&gt;d -->
<g id="edge6" class="edge"><title>Inputs&#45;&gt;d</title>
<path fill="none" stroke="#41ab5d" d="M56.0975,-79.9657C67.5851,-81.7428 81.8116,-83.9436 96.9363,-86.2833"/>
<polygon fill="#41ab5d" stroke="#41ab5d" points="96.5677,-89.7678 106.985,-87.8378 97.6379,-82.8501 96.5677,-89.7678"/>
</g>
</g>
</svg>
