<?xml version="1.0" encoding="UTF-8" standalone="no"?>
<!DOCTYPE svg PUBLIC "-//W3C//DTD SVG 1.1//EN"
 "http://www.w3.org/Graphics/SVG/1.1/DTD/svg11.dtd">
<!-- Generated by graphviz version 2.38.0 (20140413.2041)
 -->
<!-- Title: foo Pages: 1 -->
<svg width="435pt" height="310pt"
 viewBox="0.00 0.00 435.00 310.42" xmlns="http://www.w3.org/2000/svg" xmlns:xlink="http://www.w3.org/1999/xlink">
<g id="graph0" class="graph" transform="scale(1 1) rotate(0) translate(4 306.419)">
<title>foo</title>
<g id="a_graph0"><a xlink:title=" ">
<polygon fill="white" stroke="none" points="-4,4 -4,-306.419 431,-306.419 431,4 -4,4"/>
</a>
</g>
<g id="clust1" class="cluster"><title>cluster_Volunteers</title>
<g id="a_clust1"><a xlink:title=" ">
<path fill="#fcfbfd" stroke="#dadaeb" d="M20,-127.419C20,-127.419 265,-127.419 265,-127.419 271,-127.419 277,-133.419 277,-139.419 277,-139.419 277,-282.419 277,-282.419 277,-288.419 271,-294.419 265,-294.419 265,-294.419 20,-294.419 20,-294.419 14,-294.419 8,-288.419 8,-282.419 8,-282.419 8,-139.419 8,-139.419 8,-133.419 14,-127.419 20,-127.419"/>
<text text-anchor="start" x="16" y="-279.219" font-family="arial" font-size="14.00">Volunteers</text>
</a>
</g>
</g>
<g id="clust2" class="cluster"><title>cluster_Staff</title>
<g id="a_clust2"><a xlink:title=" ">
<path fill="#fcfbfd" stroke="#dadaeb" d="M170,-12.4188C170,-12.4188 407,-12.4188 407,-12.4188 413,-12.4188 419,-18.4188 419,-24.4188 419,-24.4188 419,-107.419 419,-107.419 419,-113.419 413,-119.419 407,-119.419 407,-119.419 170,-119.419 170,-119.419 164,-119.419 158,-113.419 158,-107.419 158,-107.419 158,-24.4188 158,-24.4188 158,-18.4188 164,-12.4188 170,-12.4188"/>
<text text-anchor="start" x="166" y="-104.219" font-family="arial" font-size="14.00">Staff</text>
</a>
</g>
</g>
<!-- axsxdf -->
<!-- ~ Effectiveness of volunteer work (Influence: medium excitement level is best) -->
<g id="node2" class="node"><title>~ Effectiveness of volunteer work (Influence: medium excitement level is best)</title>
<polygon fill="#e5f5e0" stroke="#e5f5e0" stroke-width="2" points="269,-263.419 165,-263.419 165,-135.419 269,-135.419 269,-263.419"/>
<text text-anchor="start" x="212.5" y="-248.219" font-family="arial" font-size="14.00">~</text>
<text text-anchor="start" x="173" y="-233.219" font-family="arial" font-size="14.00">Effectiveness</text>
<text text-anchor="start" x="179.5" y="-218.219" font-family="arial" font-size="14.00">of volunteer</text>
<text text-anchor="start" x="202" y="-203.219" font-family="arial" font-size="14.00">work</text>
<text text-anchor="start" x="183.5" y="-188.219" font-family="arial" font-size="14.00">(Influence:</text>
<text text-anchor="start" x="191" y="-173.219" font-family="arial" font-size="14.00">medium</text>
<text text-anchor="start" x="182" y="-158.219" font-family="arial" font-size="14.00">excitement</text>
<text text-anchor="start" x="177" y="-143.219" font-family="arial" font-size="14.00">level is best)</text>
</g>
<!-- axsxdf&#45;&gt;~ Effectiveness of volunteer work (Influence: medium excitement level is best) -->
<g id="edge1" class="edge"><title>axsxdf&#45;&gt;~ Effectiveness of volunteer work (Influence: medium excitement level is best)</title>
<path fill="none" stroke="#41ab5d" stroke-width="0" d="M69.0949,-231.846C79.5146,-229.546 119.467,-220.727 155.08,-212.866"/>
<polygon fill="#41ab5d" stroke="#41ab5d" stroke-width="0" points="155.971,-216.254 164.982,-210.68 154.462,-209.418 155.971,-216.254"/>
</g>
<!-- ~ Excitement level of volunteers !self -->
<g id="node3" class="node"><title>~ Excitement level of volunteers !self</title>
<polygon fill="#e5f5e0" stroke="#e5f5e0" stroke-width="2" points="115,-188.919 16,-188.919 16,-135.919 115,-135.919 115,-188.919"/>
<text text-anchor="start" x="24" y="-173.719" font-family="arial" font-size="14.00">~ Excitement</text>
<text text-anchor="start" x="42.5" y="-158.719" font-family="arial" font-size="14.00">level of</text>
<text text-anchor="start" x="25" y="-143.719" font-family="arial" font-size="14.00">volunteers ↺</text>
</g>
<!-- ~ Excitement level of volunteers !self&#45;&gt;~ Effectiveness of volunteer work (Influence: medium excitement level is best) -->
<g id="edge2" class="edge"><title>~ Excitement level of volunteers !self&#45;&gt;~ Effectiveness of volunteer work (Influence: medium excitement level is best)</title>
<path fill="none" stroke="#41ab5d" d="M115.038,-174.432C127.743,-177.576 141.605,-181.007 154.874,-184.291"/>
<polygon fill="#41ab5d" stroke="#41ab5d" points="154.328,-187.761 164.876,-186.766 156.01,-180.966 154.328,-187.761"/>
</g>
<!-- ~ Staff observation of excitement level -->
<g id="node5" class="node"><title>~ Staff observation of excitement level</title>
<polygon fill="#e5f5e0" stroke="#e5f5e0" stroke-width="2" points="268,-88.4188 166,-88.4188 166,-20.4188 268,-20.4188 268,-88.4188"/>
<text text-anchor="start" x="195.5" y="-73.2188" font-family="arial" font-size="14.00">~ Staff</text>
<text text-anchor="start" x="180" y="-58.2188" font-family="arial" font-size="14.00">observation</text>
<text text-anchor="start" x="174" y="-43.2188" font-family="arial" font-size="14.00">of excitement</text>
<text text-anchor="start" x="202" y="-28.2188" font-family="arial" font-size="14.00">level</text>
</g>
<!-- ~ Excitement level of volunteers !self&#45;&gt;~ Staff observation of excitement level -->
<g id="edge5" class="edge"><title>~ Excitement level of volunteers !self&#45;&gt;~ Staff observation of excitement level</title>
<path fill="none" stroke="#41ab5d" d="M103.455,-135.722C120.628,-123.316 141.413,-108.301 160.424,-94.5676"/>
<polygon fill="#41ab5d" stroke="#41ab5d" points="162.673,-97.2606 168.729,-88.5675 158.574,-91.5863 162.673,-97.2606"/>
</g>
<!-- ~ Inspirational input from staff -->
<g id="node4" class="node"><title>~ Inspirational input from staff</title>
<polygon fill="#e5f5e0" stroke="#e5f5e0" stroke-width="2" points="411,-88.4188 319,-88.4188 319,-20.4188 411,-20.4188 411,-88.4188"/>
<text text-anchor="start" x="360.5" y="-73.2188" font-family="arial" font-size="14.00">~</text>
<text text-anchor="start" x="327" y="-58.2188" font-family="arial" font-size="14.00">Inspirational</text>
<text text-anchor="start" x="333" y="-43.2188" font-family="arial" font-size="14.00">input from</text>
<text text-anchor="start" x="351" y="-28.2188" font-family="arial" font-size="14.00">staff</text>
</g>
<!-- ~ Inspirational input from staff&#45;&gt;~ Excitement level of volunteers !self -->
<g id="edge3" class="edge"><title>~ Inspirational input from staff&#45;&gt;~ Excitement level of volunteers !self</title>
<path fill="none" stroke="#41ab5d" d="M318.654,-28.6276C274.967,-7.50074 208.282,14.7096 158,-13.4188 115.259,-37.3287 90.0491,-90.2787 77.249,-126.17"/>
<polygon fill="#41ab5d" stroke="#41ab5d" points="73.8791,-125.209 73.9636,-135.803 80.5044,-127.468 73.8791,-125.209"/>
</g>
<!-- ~ Staff observation of excitement level&#45;&gt;~ Inspirational input from staff -->
<g id="edge4" class="edge"><title>~ Staff observation of excitement level&#45;&gt;~ Inspirational input from staff</title>
<path fill="none" stroke="#41ab5d" d="M268.245,-54.4188C281.132,-54.4188 295.07,-54.4188 308.218,-54.4188"/>
<polygon fill="#41ab5d" stroke="#41ab5d" points="308.558,-57.9189 318.558,-54.4188 308.558,-50.9189 308.558,-57.9189"/>
</g>
</g>
</svg>
