<?xml version="1.0" encoding="UTF-8" standalone="no"?>
<!DOCTYPE svg PUBLIC "-//W3C//DTD SVG 1.1//EN"
 "http://www.w3.org/Graphics/SVG/1.1/DTD/svg11.dtd">
<!-- Generated by graphviz version 2.38.0 (20140413.2041)
 -->
<!-- Title: foo Pages: 1 -->
<svg width="850pt" height="244pt"
 viewBox="0.00 0.00 850.00 244.00" xmlns="http://www.w3.org/2000/svg" xmlns:xlink="http://www.w3.org/1999/xlink">
<g id="graph0" class="graph" transform="scale(1 1) rotate(0) translate(4 240)">
<title>foo</title>
<g id="a_graph0"><a xlink:title=" ">
<polygon fill="#deebf7" stroke="none" points="-4,4 -4,-240 846,-240 846,4 -4,4"/>
</a>
</g>
<!-- Ordered -->
<g id="node1" class="node"><title>Ordered</title>
<polygon fill="#000000" fill-opacity="0.062745" stroke="#000000" stroke-opacity="0.062745" points="695.5,-86 621.5,-86 621.5,-50 695.5,-50 695.5,-86"/>
<text text-anchor="start" x="629.5" y="-64.3" font-family="verdana" font-size="14.00">Ordered</text>
</g>
<!-- Variables -->
<g id="node2" class="node"><title>Variables</title>
<polygon fill="#000000" fill-opacity="0.062745" stroke="#000000" stroke-opacity="0.062745" points="842,-161 759,-161 759,-125 842,-125 842,-161"/>
<text text-anchor="start" x="767" y="-139.3" font-family="verdana" font-size="14.00">Variables</text>
</g>
<!-- Ordered&#45;&gt;Variables -->
<g id="edge1" class="edge"><title>Ordered&#45;&gt;Variables</title>
<path fill="none" stroke="#6baed6" d="M695.538,-86.0049C700.083,-88.3332 704.659,-90.7056 709,-93 728.52,-103.317 750.175,-115.263 767.406,-124.89"/>
</g>
<!-- Continuous -->
<g id="node3" class="node"><title>Continuous</title>
<polygon fill="#000000" fill-opacity="0.062745" stroke="#000000" stroke-opacity="0.062745" points="517.5,-86 419.5,-86 419.5,-50 517.5,-50 517.5,-86"/>
<text text-anchor="start" x="427.5" y="-64.3" font-family="verdana" font-size="14.00">Continuous</text>
</g>
<!-- Continuous&#45;&gt;Ordered -->
<g id="edge2" class="edge"><title>Continuous&#45;&gt;Ordered</title>
<path fill="none" stroke="#6baed6" d="M517.915,-68C550.227,-68 592.021,-68 621.424,-68"/>
</g>
<!-- Lo&#45;hi -->
<g id="node4" class="node"><title>Lo&#45;hi</title>
<polygon fill="#000000" fill-opacity="0.062745" stroke="#000000" stroke-opacity="0.062745" points="291,-136 237,-136 237,-100 291,-100 291,-136"/>
<text text-anchor="start" x="245" y="-114.3" font-family="verdana" font-size="14.00">Lo&#45;hi</text>
</g>
<!-- Lo&#45;hi&#45;&gt;Continuous -->
<g id="edge3" class="edge"><title>Lo&#45;hi&#45;&gt;Continuous</title>
<path fill="none" stroke="#6baed6" d="M291.059,-111.566C323.425,-103.574 379.277,-89.7835 419.481,-79.8565"/>
</g>
<!-- Anchored lo&#45;hi -->
<g id="node5" class="node"><title>Anchored lo&#45;hi</title>
<polygon fill="#000000" fill-opacity="0.062745" stroke="#000000" stroke-opacity="0.062745" points="136,-186 13,-186 13,-150 136,-150 136,-186"/>
<text text-anchor="start" x="21" y="-164.3" font-family="verdana" font-size="14.00">Anchored lo&#45;hi</text>
</g>
<!-- Anchored lo&#45;hi&#45;&gt;Lo&#45;hi -->
<g id="edge4" class="edge"><title>Anchored lo&#45;hi&#45;&gt;Lo&#45;hi</title>
<path fill="none" stroke="#6baed6" d="M136.117,-151.835C170.141,-142.762 210.847,-131.908 236.809,-124.984"/>
</g>
<!-- Counting numbers -->
<g id="node6" class="node"><title>Counting numbers</title>
<polygon fill="#000000" fill-opacity="0.062745" stroke="#000000" stroke-opacity="0.062745" points="149,-136 0,-136 0,-100 149,-100 149,-136"/>
<text text-anchor="start" x="8" y="-114.3" font-family="verdana" font-size="14.00">Counting numbers</text>
</g>
<!-- Counting numbers&#45;&gt;Lo&#45;hi -->
<g id="edge5" class="edge"><title>Counting numbers&#45;&gt;Lo&#45;hi</title>
<path fill="none" stroke="#6baed6" d="M149.067,-118C180.051,-118 214.123,-118 236.86,-118"/>
</g>
<!-- Rational numbers -->
<g id="node7" class="node"><title>Rational numbers</title>
<polygon fill="#000000" fill-opacity="0.062745" stroke="#000000" stroke-opacity="0.062745" points="146,-86 3,-86 3,-50 146,-50 146,-86"/>
<text text-anchor="start" x="11" y="-64.3" font-family="verdana" font-size="14.00">Rational numbers</text>
</g>
<!-- Rational numbers&#45;&gt;Lo&#45;hi -->
<g id="edge6" class="edge"><title>Rational numbers&#45;&gt;Lo&#45;hi</title>
<path fill="none" stroke="#6baed6" d="M143.192,-86.0511C175.71,-94.7226 212.771,-104.606 236.954,-111.054"/>
</g>
<!-- Ordinal -->
<g id="node8" class="node"><title>Ordinal</title>
<polygon fill="#000000" fill-opacity="0.062745" stroke="#000000" stroke-opacity="0.062745" points="298.5,-86 229.5,-86 229.5,-50 298.5,-50 298.5,-86"/>
<text text-anchor="start" x="237.5" y="-64.3" font-family="verdana" font-size="14.00">Ordinal</text>
</g>
<!-- Ordinal&#45;&gt;Continuous -->
<g id="edge7" class="edge"><title>Ordinal&#45;&gt;Continuous</title>
<path fill="none" stroke="#6baed6" d="M298.894,-68C331.883,-68 382.332,-68 419.453,-68"/>
</g>
<!-- Binary (no/yes) -->
<g id="node9" class="node"><title>Binary (no/yes)</title>
<polygon fill="#000000" fill-opacity="0.062745" stroke="#000000" stroke-opacity="0.062745" points="329,-36 199,-36 199,-0 329,-0 329,-36"/>
<text text-anchor="start" x="207" y="-14.3" font-family="verdana" font-size="14.00">Binary (no/yes)</text>
</g>
<!-- Binary (no/yes)&#45;&gt;Continuous -->
<g id="edge8" class="edge"><title>Binary (no/yes)&#45;&gt;Continuous</title>
<path fill="none" stroke="#6baed6" d="M329.072,-33.8203C358.272,-41.0301 392.262,-49.4227 419.253,-56.0873"/>
</g>
<!-- Cyclic -->
<g id="node10" class="node"><title>Cyclic</title>
<polygon fill="#000000" fill-opacity="0.062745" stroke="#000000" stroke-opacity="0.062745" points="688,-236 629,-236 629,-200 688,-200 688,-236"/>
<text text-anchor="start" x="637" y="-214.3" font-family="verdana" font-size="14.00">Cyclic</text>
</g>
<!-- Cyclic&#45;&gt;Variables -->
<g id="edge9" class="edge"><title>Cyclic&#45;&gt;Variables</title>
<path fill="none" stroke="#6baed6" d="M688.124,-203.77C694.988,-200.295 702.276,-196.554 709,-193 728.52,-182.683 750.175,-170.737 767.406,-161.11"/>
</g>
<!-- Hierarchical -->
<g id="node11" class="node"><title>Hierarchical</title>
<polygon fill="#000000" fill-opacity="0.062745" stroke="#000000" stroke-opacity="0.062745" points="709,-186 608,-186 608,-150 709,-150 709,-186"/>
<text text-anchor="start" x="616" y="-164.3" font-family="verdana" font-size="14.00">Hierarchical</text>
</g>
<!-- Hierarchical&#45;&gt;Variables -->
<g id="edge10" class="edge"><title>Hierarchical&#45;&gt;Variables</title>
<path fill="none" stroke="#6baed6" d="M709.253,-159.116C725.443,-156.224 743.215,-153.051 758.674,-150.29"/>
</g>
<!-- Nominal -->
<g id="node12" class="node"><title>Nominal</title>
<polygon fill="#000000" fill-opacity="0.062745" stroke="#000000" stroke-opacity="0.062745" points="696.5,-136 620.5,-136 620.5,-100 696.5,-100 696.5,-136"/>
<text text-anchor="start" x="628.5" y="-114.3" font-family="verdana" font-size="14.00">Nominal</text>
</g>
<!-- Nominal&#45;&gt;Variables -->
<g id="edge11" class="edge"><title>Nominal&#45;&gt;Variables</title>
<path fill="none" stroke="#6baed6" d="M696.65,-124.634C715.768,-128.048 739.113,-132.217 758.727,-135.719"/>
</g>
<!-- Binary e.g. heads/tails -->
<g id="node13" class="node"><title>Binary e.g. heads/tails</title>
<polygon fill="#000000" fill-opacity="0.062745" stroke="#000000" stroke-opacity="0.062745" points="558,-136 379,-136 379,-100 558,-100 558,-136"/>
<text text-anchor="start" x="387" y="-114.3" font-family="verdana" font-size="14.00">Binary e.g. heads/tails</text>
</g>
<!-- Binary e.g. heads/tails&#45;&gt;Nominal -->
<g id="edge12" class="edge"><title>Binary e.g. heads/tails&#45;&gt;Nominal</title>
<path fill="none" stroke="#6baed6" d="M558.27,-118C580.137,-118 602.382,-118 620.253,-118"/>
</g>
</g>
</svg>
