<?xml version="1.0" encoding="UTF-8" standalone="no"?>
<!DOCTYPE svg PUBLIC "-//W3C//DTD SVG 1.1//EN"
 "http://www.w3.org/Graphics/SVG/1.1/DTD/svg11.dtd">
<!-- Generated by graphviz version 2.38.0 (20140413.2041)
 -->
<!-- Title: foo Pages: 1 -->
<svg width="504pt" height="168pt"
 viewBox="0.00 0.00 504.00 168.00" xmlns="http://www.w3.org/2000/svg" xmlns:xlink="http://www.w3.org/1999/xlink">
<g id="graph0" class="graph" transform="scale(1 1) rotate(0) translate(4 164)">
<title>foo</title>
<g id="a_graph0"><a xlink:title=" ">
<polygon fill="white" stroke="none" points="-4,4 -4,-164 500,-164 500,4 -4,4"/>
</a>
</g>
<!-- Legislators have more favourable views !smile -->
<g id="node1" class="node"><title>Legislators have more favourable views !smile</title>
<polygon fill="#e5f5e0" stroke="#e5f5e0" stroke-width="2" points="364,-122 278,-122 278,-54 364,-54 364,-122"/>
<text text-anchor="start" x="286" y="-106.8" font-family="arial" font-size="14.00">Legislators</text>
<text text-anchor="start" x="287.5" y="-91.8" font-family="arial" font-size="14.00">have more</text>
<text text-anchor="start" x="287.5" y="-76.8" font-family="arial" font-size="14.00">favourable</text>
<text text-anchor="start" x="294" y="-61.8" font-family="arial" font-size="14.00">views ☺</text>
</g>
<!-- Law on same&#45;sex marriage is passed !smile -->
<g id="node2" class="node"><title>Law on same&#45;sex marriage is passed !smile</title>
<polygon fill="#e5f5e0" stroke="#e5f5e0" stroke-width="2" points="496,-129.5 414,-129.5 414,-46.5 496,-46.5 496,-129.5"/>
<text text-anchor="start" x="432" y="-114.3" font-family="arial" font-size="14.00">Law on</text>
<text text-anchor="start" x="423.5" y="-99.3" font-family="arial" font-size="14.00">same&#45;sex</text>
<text text-anchor="start" x="427" y="-84.3" font-family="arial" font-size="14.00">marriage</text>
<text text-anchor="start" x="449.5" y="-69.3" font-family="arial" font-size="14.00">is</text>
<text text-anchor="start" x="422" y="-54.3" font-family="arial" font-size="14.00">passed ☺</text>
</g>
<!-- Legislators have more favourable views !smile&#45;&gt;Law on same&#45;sex marriage is passed !smile -->
<g id="edge1" class="edge"><title>Legislators have more favourable views !smile&#45;&gt;Law on same&#45;sex marriage is passed !smile</title>
<path fill="none" stroke="#41ab5d" d="M364.129,-88C376.631,-88 390.454,-88 403.434,-88"/>
<polygon fill="#41ab5d" stroke="#41ab5d" points="403.621,-91.5001 413.621,-88 403.621,-84.5001 403.621,-91.5001"/>
</g>
<!-- Other campaign &#160;lobbies legislators -->
<g id="node3" class="node"><title>Other campaign &#160;lobbies legislators</title>
<polygon fill="#e5f5e0" stroke="#e5f5e0" stroke-width="2" points="222,-160 141,-160 141,-92 222,-92 222,-160"/>
<text text-anchor="start" x="163.5" y="-144.8" font-family="arial" font-size="14.00">Other</text>
<text text-anchor="start" x="150.5" y="-129.8" font-family="arial" font-size="14.00">campaign</text>
<text text-anchor="start" x="158" y="-114.8" font-family="arial" font-size="14.00">lobbies</text>
<text text-anchor="start" x="149" y="-99.8" font-family="arial" font-size="14.00">legislators</text>
</g>
<!-- Other campaign &#160;lobbies legislators&#45;&gt;Legislators have more favourable views !smile -->
<g id="edge2" class="edge"><title>Other campaign &#160;lobbies legislators&#45;&gt;Legislators have more favourable views !smile</title>
<path fill="none" stroke="#41ab5d" d="M222.271,-115.009C236.584,-111.053 252.95,-106.53 268.142,-102.332"/>
<polygon fill="#41ab5d" stroke="#41ab5d" points="269.216,-105.666 277.922,-99.6288 267.351,-98.9191 269.216,-105.666"/>
</g>
<!-- Public opinion improves !smile -->
<g id="node4" class="node"><title>Public opinion improves !smile</title>
<polygon fill="#e5f5e0" stroke="#e5f5e0" stroke-width="2" points="228,-77.5 135,-77.5 135,-24.5 228,-24.5 228,-77.5"/>
<text text-anchor="start" x="161.5" y="-62.3" font-family="arial" font-size="14.00">Public</text>
<text text-anchor="start" x="158.5" y="-47.3" font-family="arial" font-size="14.00">opinion</text>
<text text-anchor="start" x="143" y="-32.3" font-family="arial" font-size="14.00">improves ☺</text>
</g>
<!-- Public opinion improves !smile&#45;&gt;Legislators have more favourable views !smile -->
<g id="edge3" class="edge"><title>Public opinion improves !smile&#45;&gt;Legislators have more favourable views !smile</title>
<path fill="none" stroke="#41ab5d" d="M228.286,-63.3205C240.985,-66.7379 254.866,-70.4731 267.898,-73.9799"/>
<polygon fill="#41ab5d" stroke="#41ab5d" points="267.099,-77.3891 277.665,-76.6079 268.918,-70.6296 267.099,-77.3891"/>
</g>
<!-- !do Our campaign is launched -->
<g id="node5" class="node"><title>!do Our campaign is launched</title>
<polygon fill="#e5f5e0" stroke="#e5f5e0" stroke-width="2" points="81.5,-116 3.5,-116 3.5,-52 81.5,-52 81.5,-116"/>
<text text-anchor="start" x="20.5" y="-101.8" font-family="arial" font-size="14.00" fill="green">▶ </text>
<text text-anchor="start" x="36.5" y="-101.8" font-family="arial" font-size="14.00"> Our</text>
<text text-anchor="start" x="11.5" y="-87.8" font-family="arial" font-size="14.00">campaign</text>
<text text-anchor="start" x="37" y="-73.8" font-family="arial" font-size="14.00">is</text>
<text text-anchor="start" x="13.5" y="-59.8" font-family="arial" font-size="14.00">launched</text>
</g>
<!-- !do Our campaign is launched&#45;&gt;Public opinion improves !smile -->
<g id="edge4" class="edge"><title>!do Our campaign is launched&#45;&gt;Public opinion improves !smile</title>
<path fill="none" stroke="#41ab5d" d="M81.6621,-74.8077C95.0426,-71.5846 110.358,-67.8954 124.874,-64.3989"/>
<polygon fill="#41ab5d" stroke="#41ab5d" points="125.86,-67.7617 134.762,-62.0172 124.22,-60.9564 125.86,-67.7617"/>
</g>
<!-- Celebrities speak out -->
<g id="node6" class="node"><title>Celebrities speak out</title>
<polygon fill="#e5f5e0" stroke="#e5f5e0" stroke-width="2" points="85,-38 0,-38 0,-0 85,-0 85,-38"/>
<text text-anchor="start" x="8" y="-22.8" font-family="arial" font-size="14.00">Celebrities</text>
<text text-anchor="start" x="11.5" y="-7.8" font-family="arial" font-size="14.00">speak out</text>
</g>
<!-- Celebrities speak out&#45;&gt;Public opinion improves !smile -->
<g id="edge5" class="edge"><title>Celebrities speak out&#45;&gt;Public opinion improves !smile</title>
<path fill="none" stroke="#41ab5d" d="M85.3489,-28.7749C97.7647,-31.675 111.564,-34.8983 124.716,-37.9702"/>
<polygon fill="#41ab5d" stroke="#41ab5d" points="124.079,-41.4155 134.613,-40.2819 125.671,-34.599 124.079,-41.4155"/>
</g>
</g>
</svg>
