<?xml version="1.0" encoding="UTF-8" standalone="no"?>
<!DOCTYPE svg PUBLIC "-//W3C//DTD SVG 1.1//EN"
 "http://www.w3.org/Graphics/SVG/1.1/DTD/svg11.dtd">
<!-- Generated by graphviz version 2.38.0 (20140413.2041)
 -->
<!-- Title: foo Pages: 1 -->
<svg width="306pt" height="144pt"
 viewBox="0.00 0.00 306.00 144.00" xmlns="http://www.w3.org/2000/svg" xmlns:xlink="http://www.w3.org/1999/xlink">
<g id="graph0" class="graph" transform="scale(1 1) rotate(0) translate(4 140)">
<title>foo</title>
<g id="a_graph0"><a xlink:title=" ">
<polygon fill="white" stroke="none" points="-4,4 -4,-140 302,-140 302,4 -4,4"/>
</a>
</g>
<!-- Age -->
<g id="node1" class="node"><title>Age</title>
<polygon fill="#e5f5e0" stroke="#e5f5e0" stroke-width="2" points="59.5,-136 5.5,-136 5.5,-100 59.5,-100 59.5,-136"/>
<text text-anchor="start" x="19" y="-114.3" font-family="arial" font-size="14.00">Age</text>
</g>
<!-- Employment (Influence: ?) -->
<g id="node2" class="node"><title>Employment (Influence: ?)</title>
<polygon fill="#e5f5e0" stroke="#e5f5e0" stroke-width="2" points="298,-86 115,-86 115,-50 298,-50 298,-86"/>
<text text-anchor="start" x="123" y="-64.3" font-family="arial" font-size="14.00">Employment (Influence: ?)</text>
</g>
<!-- Age&#45;&gt;Employment (Influence: ?) -->
<g id="edge1" class="edge"><title>Age&#45;&gt;Employment (Influence: ?)</title>
<path fill="none" stroke="#41ab5d" d="M59.6231,-110.406C79.2894,-104.689 107.249,-96.5614 133.437,-88.9486"/>
<polygon fill="#41ab5d" stroke="#41ab5d" points="134.741,-92.2146 143.366,-86.0622 132.787,-85.4928 134.741,-92.2146"/>
</g>
<!-- Class -->
<g id="node3" class="node"><title>Class</title>
<polygon fill="#e5f5e0" stroke="#e5f5e0" stroke-width="2" points="59.5,-86 5.5,-86 5.5,-50 59.5,-50 59.5,-86"/>
<text text-anchor="start" x="14" y="-64.3" font-family="arial" font-size="14.00">Class</text>
</g>
<!-- Class&#45;&gt;Employment (Influence: ?) -->
<g id="edge2" class="edge"><title>Class&#45;&gt;Employment (Influence: ?)</title>
<path fill="none" stroke="#41ab5d" d="M59.6231,-68C72.0751,-68 87.8519,-68 104.399,-68"/>
<polygon fill="#41ab5d" stroke="#41ab5d" points="104.778,-71.5001 114.778,-68 104.778,-64.5001 104.778,-71.5001"/>
</g>
<!-- Gender -->
<g id="node4" class="node"><title>Gender</title>
<polygon fill="#e5f5e0" stroke="#e5f5e0" stroke-width="2" points="65,-36 0,-36 0,-0 65,-0 65,-36"/>
<text text-anchor="start" x="8" y="-14.3" font-family="arial" font-size="14.00">Gender</text>
</g>
<!-- Gender&#45;&gt;Employment (Influence: ?) -->
<g id="edge3" class="edge"><title>Gender&#45;&gt;Employment (Influence: ?)</title>
<path fill="none" stroke="#41ab5d" d="M65.0475,-27.1708C84.3113,-32.7707 109.768,-40.1708 133.712,-47.1314"/>
<polygon fill="#41ab5d" stroke="#41ab5d" points="132.923,-50.5469 143.503,-49.9776 134.877,-43.8252 132.923,-50.5469"/>
</g>
</g>
</svg>
