<?xml version="1.0" encoding="UTF-8" standalone="no"?>
<!DOCTYPE svg PUBLIC "-//W3C//DTD SVG 1.1//EN"
 "http://www.w3.org/Graphics/SVG/1.1/DTD/svg11.dtd">
<!-- Generated by graphviz version 2.38.0 (20140413.2041)
 -->
<!-- Title: foo Pages: 1 -->
<svg width="446pt" height="76pt"
 viewBox="0.00 0.00 446.00 76.00" xmlns="http://www.w3.org/2000/svg" xmlns:xlink="http://www.w3.org/1999/xlink">
<g id="graph0" class="graph" transform="scale(1 1) rotate(0) translate(4 72)">
<title>foo</title>
<g id="a_graph0"><a xlink:title=" ">
<polygon fill="white" stroke="none" points="-4,4 -4,-72 442,-72 442,4 -4,4"/>
</a>
</g>
<!-- ^ One&#45;off intervention by teacher to help student focus -->
<g id="node1" class="node"><title>^ One&#45;off intervention by teacher to help student focus</title>
<polygon fill="#e5f5e0" stroke="#e5f5e0" stroke-width="2" points="200,-53 0,-53 0,-15 200,-15 200,-53"/>
<text text-anchor="start" x="23.5" y="-37.8" font-family="arial" font-size="14.00">^ One&#45;off intervention by</text>
<text text-anchor="start" x="8" y="-22.8" font-family="arial" font-size="14.00">teacher to help student focus</text>
</g>
<!-- ~ Student concentration (Delay: improvement starts within seconds, peaks after one minute) -->
<g id="node2" class="node"><title>~ Student concentration (Delay: improvement starts within seconds, peaks after one minute)</title>
<polygon fill="#e5f5e0" stroke="#e5f5e0" stroke-width="2" points="438,-68 250,-68 250,-0 438,-0 438,-68"/>
<text text-anchor="start" x="269" y="-52.8" font-family="arial" font-size="14.00">~ Student concentration</text>
<text text-anchor="start" x="259.5" y="-37.8" font-family="arial" font-size="14.00">(Delay: improvement starts</text>
<text text-anchor="start" x="258" y="-22.8" font-family="arial" font-size="14.00">within seconds, peaks after</text>
<text text-anchor="start" x="306.5" y="-7.8" font-family="arial" font-size="14.00">one minute)</text>
</g>
<!-- ^ One&#45;off intervention by teacher to help student focus&#45;&gt;~ Student concentration (Delay: improvement starts within seconds, peaks after one minute) -->
<g id="edge1" class="edge"><title>^ One&#45;off intervention by teacher to help student focus&#45;&gt;~ Student concentration (Delay: improvement starts within seconds, peaks after one minute)</title>
<path fill="none" stroke="#41ab5d" d="M200.129,-34C213.235,-34 226.695,-34 239.867,-34"/>
<polygon fill="#41ab5d" stroke="#41ab5d" points="239.872,-37.5001 249.872,-34 239.872,-30.5001 239.872,-37.5001"/>
</g>
</g>
</svg>
