<?xml version="1.0" encoding="UTF-8" standalone="no"?>
<!DOCTYPE svg PUBLIC "-//W3C//DTD SVG 1.1//EN"
 "http://www.w3.org/Graphics/SVG/1.1/DTD/svg11.dtd">
<!-- Generated by graphviz version 2.38.0 (20140413.2041)
 -->
<!-- Title: foo Pages: 1 -->
<svg width="574pt" height="186pt"
 viewBox="0.00 0.00 574.00 186.00" xmlns="http://www.w3.org/2000/svg" xmlns:xlink="http://www.w3.org/1999/xlink">
<g id="graph0" class="graph" transform="scale(1 1) rotate(0) translate(4 182)">
<title>foo</title>
<g id="a_graph0"><a xlink:title=" ">
<polygon fill="white" stroke="none" points="-4,4 -4,-182 570,-182 570,4 -4,4"/>
</a>
</g>
<g id="clust1" class="cluster"><title>cluster_Floodingsubproject</title>
<g id="a_clust1"><a xlink:title=" ">
<path fill="#fcfbfd" stroke="#fdd0a2" d="M20,-8C20,-8 367,-8 367,-8 373,-8 379,-14 379,-20 379,-20 379,-73 379,-73 379,-79 373,-85 367,-85 367,-85 20,-85 20,-85 14,-85 8,-79 8,-73 8,-73 8,-20 8,-20 8,-14 14,-8 20,-8"/>
<text text-anchor="start" x="16" y="-69.8" font-family="arial" font-size="14.00">Flooding sub&#45;project</text>
</a>
</g>
</g>
<g id="clust2" class="cluster"><title>cluster_Livelihoodssubproject</title>
<g id="a_clust2"><a xlink:title=" ">
<path fill="#fcfbfd" stroke="#fdd0a2" d="M29,-93C29,-93 382,-93 382,-93 388,-93 394,-99 394,-105 394,-105 394,-158 394,-158 394,-164 388,-170 382,-170 382,-170 29,-170 29,-170 23,-170 17,-164 17,-158 17,-158 17,-105 17,-105 17,-99 23,-93 29,-93"/>
<text text-anchor="start" x="25" y="-154.8" font-family="arial" font-size="14.00">Livelihoods sub&#45;project</text>
</a>
</g>
</g>
<!--  Flood risk below critical level !noyes -->
<g id="node1" class="node"><title> Flood risk below critical level !noyes</title>
<polygon fill="#e5f5e0" stroke="#e5f5e0" stroke-width="2" points="371,-54 207,-54 207,-16 371,-16 371,-54"/>
<text text-anchor="start" x="215" y="-38.8" font-family="arial" font-size="14.00">Flood risk below critical</text>
<text text-anchor="start" x="266.5" y="-23.8" font-family="arial" font-size="14.00">level ◨</text>
</g>
<!-- //Village sufficiently resilient !noyes !smile -->
<g id="node2" class="node"><title>//Village sufficiently resilient !noyes !smile</title>
<polygon fill="none" stroke="#41ab5d" stroke-width="2" stroke-dasharray="5,2" points="566,-104.3 436,-104.3 436,-49.6996 566,-49.6996 566,-104.3"/>
<text text-anchor="start" x="444" y="-74.2" font-family="arial" font-size="14.00">Village sufficiently</text>
<text text-anchor="start" x="461.5" y="-59.2" font-family="arial" font-size="14.00">resilient ◨ 🙂</text>
</g>
<!--  Flood risk below critical level !noyes&#45;&gt;//Village sufficiently resilient !noyes !smile -->
<g id="edge1" class="edge"><title> Flood risk below critical level !noyes&#45;&gt;//Village sufficiently resilient !noyes !smile</title>
<path fill="none" stroke="#41ab5d" stroke-dasharray="5,2" d="M355.712,-54.0338C382.687,-61.8474 410.927,-70.0273 425.317,-74.1954"/>
<polygon fill="#41ab5d" stroke="#41ab5d" points="424.421,-77.5796 435,-77 426.369,-70.8559 424.421,-77.5796"/>
</g>
<!-- !do Preparedness intervention !noyes -->
<g id="node3" class="node"><title>!do Preparedness intervention !noyes</title>
<polygon fill="#e5f5e0" stroke="#e5f5e0" stroke-width="2" points="142,-53 16,-53 16,-17 142,-17 142,-53"/>
<text text-anchor="start" x="24" y="-38.8" font-family="arial" font-size="14.00" fill="green">▶ </text>
<text text-anchor="start" x="40" y="-38.8" font-family="arial" font-size="14.00"> Preparedness</text>
<text text-anchor="start" x="35" y="-24.8" font-family="arial" font-size="14.00">intervention ◨</text>
</g>
<!-- !do Preparedness intervention !noyes&#45;&gt; Flood risk below critical level !noyes -->
<g id="edge2" class="edge"><title>!do Preparedness intervention !noyes&#45;&gt; Flood risk below critical level !noyes</title>
<path fill="none" stroke="#41ab5d" d="M142.125,-35C159.296,-35 178.295,-35 196.75,-35"/>
<polygon fill="#41ab5d" stroke="#41ab5d" points="196.932,-38.5001 206.931,-35 196.931,-31.5001 196.932,-38.5001"/>
</g>
<!--  Family income above critical level !noyes -->
<g id="node4" class="node"><title> Family income above critical level !noyes</title>
<polygon fill="#e5f5e0" stroke="#e5f5e0" stroke-width="2" points="386,-139 192,-139 192,-101 386,-101 386,-139"/>
<text text-anchor="start" x="200" y="-123.8" font-family="arial" font-size="14.00">Family income above critical</text>
<text text-anchor="start" x="266.5" y="-108.8" font-family="arial" font-size="14.00">level ◨</text>
</g>
<!--  Family income above critical level !noyes&#45;&gt;//Village sufficiently resilient !noyes !smile -->
<g id="edge3" class="edge"><title> Family income above critical level !noyes&#45;&gt;//Village sufficiently resilient !noyes !smile</title>
<path fill="none" stroke="#41ab5d" stroke-dasharray="5,2" d="M354.444,-100.889C381.673,-92.8143 410.437,-84.2843 425.116,-79.9312"/>
<polygon fill="#41ab5d" stroke="#41ab5d" points="426.408,-83.1988 435,-77 424.418,-76.4876 426.408,-83.1988"/>
<text text-anchor="middle" x="423.769" y="-83.2428" font-family="Times New Roman,serif" font-size="14.00">AND</text>
</g>
<!-- !do Livelihoods intervention !noyes -->
<g id="node5" class="node"><title>!do Livelihoods intervention !noyes</title>
<polygon fill="#e5f5e0" stroke="#e5f5e0" stroke-width="2" points="133,-138 25,-138 25,-102 133,-102 133,-138"/>
<text text-anchor="start" x="33" y="-123.8" font-family="arial" font-size="14.00" fill="green">▶ </text>
<text text-anchor="start" x="49" y="-123.8" font-family="arial" font-size="14.00"> Livelihoods</text>
<text text-anchor="start" x="35" y="-109.8" font-family="arial" font-size="14.00">intervention ◨</text>
</g>
<!-- !do Livelihoods intervention !noyes&#45;&gt; Family income above critical level !noyes -->
<g id="edge4" class="edge"><title>!do Livelihoods intervention !noyes&#45;&gt; Family income above critical level !noyes</title>
<path fill="none" stroke="#41ab5d" d="M133.025,-120C147.877,-120 164.571,-120 181.357,-120"/>
<polygon fill="#41ab5d" stroke="#41ab5d" points="181.805,-123.5 191.805,-120 181.805,-116.5 181.805,-123.5"/>
</g>
</g>
</svg>
