<?xml version="1.0" encoding="UTF-8" standalone="no"?>
<!DOCTYPE svg PUBLIC "-//W3C//DTD SVG 1.1//EN"
 "http://www.w3.org/Graphics/SVG/1.1/DTD/svg11.dtd">
<!-- Generated by graphviz version 2.38.0 (20140413.2041)
 -->
<!-- Title: foo Pages: 1 -->
<svg width="620pt" height="314pt"
 viewBox="0.00 0.00 620.00 314.00" xmlns="http://www.w3.org/2000/svg" xmlns:xlink="http://www.w3.org/1999/xlink">
<g id="graph0" class="graph" transform="scale(1 1) rotate(0) translate(4 310)">
<title>foo</title>
<g id="a_graph0"><a xlink:title=" ">
<polygon fill="white" stroke="none" points="-4,4 -4,-310 616,-310 616,4 -4,4"/>
</a>
</g>
<!-- b -->
<g id="node1" class="node"><title>b</title>
<polygon fill="#c7e9c0" stroke="#c7e9c0" points="279.939,-216.5 225.939,-216.5 225.939,-177.5 279.939,-177.5 279.939,-216.5"/>
<text text-anchor="start" x="245.939" y="-190.1" font-family="Times New Roman,serif" font-size="28.00">b</text>
</g>
<!-- a -->
<g id="node2" class="node"><title>a</title>
<polygon fill="#c7e9c0" stroke="#c7e9c0" points="226.939,-305.5 172.939,-305.5 172.939,-266.5 226.939,-266.5 226.939,-305.5"/>
<text text-anchor="start" x="193.439" y="-279.1" font-family="Times New Roman,serif" font-size="28.00">a</text>
</g>
<!-- b&#45;&gt;a -->
<g id="edge1" class="edge"><title>b&#45;&gt;a</title>
<path fill="none" stroke="black" d="M241.439,-216.878C234.166,-228.816 224.647,-244.442 216.559,-257.718"/>
<polygon fill="black" stroke="black" points="213.448,-256.097 211.235,-266.458 219.426,-259.739 213.448,-256.097"/>
</g>
<!-- c -->
<g id="node3" class="node"><title>c</title>
<polygon fill="#fcbba1" stroke="#fcbba1" points="174.939,-216.5 120.939,-216.5 120.939,-177.5 174.939,-177.5 174.939,-216.5"/>
<text text-anchor="start" x="141.439" y="-190.1" font-family="Times New Roman,serif" font-size="28.00">c</text>
</g>
<!-- c&#45;&gt;a -->
<g id="edge2" class="edge"><title>c&#45;&gt;a</title>
<path fill="none" stroke="black" d="M159.222,-216.878C166.358,-228.816 175.698,-244.442 183.632,-257.718"/>
<polygon fill="black" stroke="black" points="180.722,-259.67 188.857,-266.458 186.73,-256.079 180.722,-259.67"/>
</g>
<!-- d -->
<g id="node4" class="node"><title>d</title>
<polygon fill="#c6dbef" stroke="#c6dbef" points="68.9391,-127.5 14.9391,-127.5 14.9391,-88.5 68.9391,-88.5 68.9391,-127.5"/>
<text text-anchor="start" x="34.9391" y="-101.1" font-family="Times New Roman,serif" font-size="28.00">d</text>
</g>
<!-- d&#45;&gt;b -->
<g id="edge3" class="edge"><title>d&#45;&gt;b</title>
<path fill="none" stroke="black" d="M69.0917,-120.196C106.679,-135.694 174.661,-163.724 216.593,-181.014"/>
<polygon fill="black" stroke="black" points="215.312,-184.271 225.891,-184.847 217.98,-177.8 215.312,-184.271"/>
</g>
<!-- d&#45;&gt;c -->
<g id="edge4" class="edge"><title>d&#45;&gt;c</title>
<path fill="none" stroke="black" d="M64.6787,-127.664C80.0485,-140.278 100.524,-157.084 117.324,-170.872"/>
<polygon fill="black" stroke="black" points="115.287,-173.728 125.237,-177.367 119.728,-168.317 115.287,-173.728"/>
</g>
<!-- e -->
<g id="node5" class="node"><title>e</title>
<polygon fill="#c6dbef" stroke="#c6dbef" points="174.939,-127.5 120.939,-127.5 120.939,-88.5 174.939,-88.5 174.939,-127.5"/>
<text text-anchor="start" x="141.439" y="-101.1" font-family="Times New Roman,serif" font-size="28.00">e</text>
</g>
<!-- e&#45;&gt;b -->
<g id="edge5" class="edge"><title>e&#45;&gt;b</title>
<path fill="none" stroke="black" d="M170.464,-127.664C185.689,-140.278 205.971,-157.084 222.613,-170.872"/>
<polygon fill="black" stroke="black" points="220.518,-173.682 230.451,-177.367 224.984,-168.292 220.518,-173.682"/>
</g>
<!-- e&#45;&gt;c -->
<g id="edge6" class="edge"><title>e&#45;&gt;c</title>
<path fill="none" stroke="black" d="M147.939,-127.878C147.939,-139.356 147.939,-154.246 147.939,-167.176"/>
<polygon fill="black" stroke="black" points="144.439,-167.458 147.939,-177.458 151.439,-167.458 144.439,-167.458"/>
</g>
<!-- f -->
<g id="node6" class="node"><title>f</title>
<polygon fill="#c6dbef" stroke="#c6dbef" points="279.939,-127.5 225.939,-127.5 225.939,-88.5 279.939,-88.5 279.939,-127.5"/>
<text text-anchor="start" x="247.939" y="-101.1" font-family="Times New Roman,serif" font-size="28.00">f</text>
</g>
<!-- f&#45;&gt;b -->
<g id="edge7" class="edge"><title>f&#45;&gt;b</title>
<path fill="none" stroke="black" d="M252.939,-127.878C252.939,-139.356 252.939,-154.246 252.939,-167.176"/>
<polygon fill="black" stroke="black" points="249.439,-167.458 252.939,-177.458 256.439,-167.458 249.439,-167.458"/>
</g>
<!-- f&#45;&gt;c -->
<g id="edge8" class="edge"><title>f&#45;&gt;c</title>
<path fill="none" stroke="black" d="M230.414,-127.664C215.189,-140.278 194.907,-157.084 178.266,-170.872"/>
<polygon fill="black" stroke="black" points="175.894,-168.292 170.427,-177.367 180.36,-173.682 175.894,-168.292"/>
</g>
<!-- g -->
<g id="node7" class="node"><title>g</title>
<polygon fill="#c7e9c0" stroke="#c7e9c0" points="385.939,-127.5 331.939,-127.5 331.939,-88.5 385.939,-88.5 385.939,-127.5"/>
<text text-anchor="start" x="351.939" y="-101.1" font-family="Times New Roman,serif" font-size="28.00">g</text>
</g>
<!-- g&#45;&gt;b -->
<g id="edge9" class="edge"><title>g&#45;&gt;b</title>
<path fill="none" stroke="black" d="M336.199,-127.664C320.83,-140.278 300.354,-157.084 283.554,-170.872"/>
<polygon fill="black" stroke="black" points="281.15,-168.317 275.641,-177.367 285.591,-173.728 281.15,-168.317"/>
</g>
<!-- h -->
<g id="node8" class="node"><title>h</title>
<polygon fill="#c7e9c0" stroke="#c7e9c0" points="490.939,-127.5 436.939,-127.5 436.939,-88.5 490.939,-88.5 490.939,-127.5"/>
<text text-anchor="start" x="456.439" y="-101.1" font-family="Times New Roman,serif" font-size="28.00">h</text>
</g>
<!-- h&#45;&gt;b -->
<g id="edge10" class="edge"><title>h&#45;&gt;b</title>
<path fill="none" stroke="black" d="M436.786,-120.196C399.2,-135.694 331.217,-163.724 289.285,-181.014"/>
<polygon fill="black" stroke="black" points="287.898,-177.8 279.987,-184.847 290.567,-184.271 287.898,-177.8"/>
</g>
<!-- i -->
<g id="node9" class="node"><title>i</title>
<polygon fill="#dadaeb" stroke="#dadaeb" points="385.939,-38.5 331.939,-38.5 331.939,0.5 385.939,0.5 385.939,-38.5"/>
<text text-anchor="start" x="355.439" y="-12.1" font-family="Times New Roman,serif" font-size="28.00">i</text>
</g>
<!-- i&#45;&gt;g -->
<g id="edge11" class="edge"><title>i&#45;&gt;g</title>
<path fill="none" stroke="black" d="M358.939,-38.8777C358.939,-50.3564 358.939,-65.2458 358.939,-78.1757"/>
<polygon fill="black" stroke="black" points="355.439,-78.458 358.939,-88.458 362.439,-78.4581 355.439,-78.458"/>
</g>
<!-- i&#45;&gt;h -->
<g id="edge12" class="edge"><title>i&#45;&gt;h</title>
<path fill="none" stroke="black" d="M381.464,-38.6637C396.689,-51.2785 416.971,-68.0839 433.613,-81.8723"/>
<polygon fill="black" stroke="black" points="431.518,-84.6821 441.451,-88.3672 435.984,-79.2919 431.518,-84.6821"/>
</g>
<!-- j -->
<g id="node10" class="node"><title>j</title>
<polygon fill="#dadaeb" stroke="#dadaeb" points="490.939,-38.5 436.939,-38.5 436.939,0.5 490.939,0.5 490.939,-38.5"/>
<text text-anchor="start" x="460.439" y="-12.1" font-family="Times New Roman,serif" font-size="28.00">j</text>
</g>
<!-- j&#45;&gt;g -->
<g id="edge13" class="edge"><title>j&#45;&gt;g</title>
<path fill="none" stroke="black" d="M441.414,-38.6637C426.189,-51.2785 405.907,-68.0839 389.266,-81.8723"/>
<polygon fill="black" stroke="black" points="386.894,-79.2919 381.427,-88.3672 391.36,-84.6821 386.894,-79.2919"/>
</g>
<!-- j&#45;&gt;h -->
<g id="edge14" class="edge"><title>j&#45;&gt;h</title>
<path fill="none" stroke="black" d="M463.939,-38.8777C463.939,-50.3564 463.939,-65.2458 463.939,-78.1757"/>
<polygon fill="black" stroke="black" points="460.439,-78.458 463.939,-88.458 467.439,-78.4581 460.439,-78.458"/>
</g>
<!-- k -->
<g id="node11" class="node"><title>k</title>
<polygon fill="#dadaeb" stroke="#dadaeb" points="596.939,-38.5 542.939,-38.5 542.939,0.5 596.939,0.5 596.939,-38.5"/>
<text text-anchor="start" x="562.939" y="-12.1" font-family="Times New Roman,serif" font-size="28.00">k</text>
</g>
<!-- k&#45;&gt;g -->
<g id="edge15" class="edge"><title>k&#45;&gt;g</title>
<path fill="none" stroke="black" d="M542.786,-31.1956C505.2,-46.6935 437.217,-74.7243 395.285,-92.0136"/>
<polygon fill="black" stroke="black" points="393.898,-88.7996 385.987,-95.8473 396.567,-95.2711 393.898,-88.7996"/>
</g>
<!-- k&#45;&gt;h -->
<g id="edge16" class="edge"><title>k&#45;&gt;h</title>
<path fill="none" stroke="black" d="M547.199,-38.6637C531.83,-51.2785 511.354,-68.0839 494.554,-81.8723"/>
<polygon fill="black" stroke="black" points="492.15,-79.3174 486.641,-88.3672 496.591,-84.7283 492.15,-79.3174"/>
</g>
<!-- l -->
<g id="node12" class="node"><title>l</title>
<polygon fill="#d9d9d9" stroke="#d9d9d9" points="68.9391,-38.5 14.9391,-38.5 14.9391,0.5 68.9391,0.5 68.9391,-38.5"/>
<text text-anchor="start" x="38.4391" y="-12.1" font-family="Times New Roman,serif" font-size="28.00">l</text>
</g>
<!-- l&#45;&gt;d -->
<g id="edge17" class="edge"><title>l&#45;&gt;d</title>
<path fill="none" stroke="black" d="M41.9391,-38.8777C41.9391,-50.3564 41.9391,-65.2458 41.9391,-78.1757"/>
<polygon fill="black" stroke="black" points="38.4392,-78.458 41.9391,-88.458 45.4392,-78.4581 38.4392,-78.458"/>
</g>
<!-- m -->
<g id="node13" class="node"><title>m</title>
<polygon fill="#d9d9d9" stroke="#d9d9d9" points="174.939,-38.5 120.939,-38.5 120.939,0.5 174.939,0.5 174.939,-38.5"/>
<text text-anchor="start" x="136.939" y="-12.1" font-family="Times New Roman,serif" font-size="28.00">m</text>
</g>
<!-- m&#45;&gt;e -->
<g id="edge18" class="edge"><title>m&#45;&gt;e</title>
<path fill="none" stroke="black" d="M147.939,-38.8777C147.939,-50.3564 147.939,-65.2458 147.939,-78.1757"/>
<polygon fill="black" stroke="black" points="144.439,-78.458 147.939,-88.458 151.439,-78.4581 144.439,-78.458"/>
</g>
<!-- n -->
<g id="node14" class="node"><title>n</title>
<polygon fill="#d9d9d9" stroke="#d9d9d9" points="279.939,-38.5 225.939,-38.5 225.939,0.5 279.939,0.5 279.939,-38.5"/>
<text text-anchor="start" x="245.439" y="-12.1" font-family="Times New Roman,serif" font-size="28.00">n</text>
</g>
<!-- n&#45;&gt;f -->
<g id="edge19" class="edge"><title>n&#45;&gt;f</title>
<path fill="none" stroke="black" d="M252.939,-38.8777C252.939,-50.3564 252.939,-65.2458 252.939,-78.1757"/>
<polygon fill="black" stroke="black" points="249.439,-78.458 252.939,-88.458 256.439,-78.4581 249.439,-78.458"/>
</g>
</g>
</svg>
