<?xml version="1.0" encoding="UTF-8" standalone="no"?>
<!DOCTYPE svg PUBLIC "-//W3C//DTD SVG 1.1//EN"
 "http://www.w3.org/Graphics/SVG/1.1/DTD/svg11.dtd">
<!-- Generated by graphviz version 2.38.0 (20140413.2041)
 -->
<!-- Title: foo Pages: 1 -->
<svg width="476pt" height="96pt"
 viewBox="0.00 0.00 476.00 96.00" xmlns="http://www.w3.org/2000/svg" xmlns:xlink="http://www.w3.org/1999/xlink">
<g id="graph0" class="graph" transform="scale(1 1) rotate(0) translate(4 92)">
<title>foo</title>
<g id="a_graph0"><a xlink:title=" ">
<polygon fill="#d9d9d9" stroke="none" points="-4,4 -4,-92 472,-92 472,4 -4,4"/>
<text text-anchor="start" x="142" y="-7.2" font-family="tahoma" font-size="11.00" fill="#525252">You don&#39;t have to stick to this format</text>
</a>
</g>
<!-- Legislators have more favourable views -->
<g id="node1" class="node"><title>Legislators have more favourable views</title>
<polygon fill="#fee6ce" stroke="#fee6ce" points="339,-88 253,-88 253,-20 339,-20 339,-88"/>
<text text-anchor="start" x="261" y="-72.8" font-family="Helvetica,sans-Serif" font-size="14.00">Legislators</text>
<text text-anchor="start" x="262.5" y="-57.8" font-family="Helvetica,sans-Serif" font-size="14.00">have more</text>
<text text-anchor="start" x="262.5" y="-42.8" font-family="Helvetica,sans-Serif" font-size="14.00">favourable</text>
<text text-anchor="start" x="278" y="-27.8" font-family="Helvetica,sans-Serif" font-size="14.00">views</text>
</g>
<!-- Law on same&#45;sex marriage is passed -->
<g id="node2" class="node"><title>Law on same&#45;sex marriage is passed</title>
<polygon fill="#fee6ce" stroke="#fee6ce" points="468,-88 389,-88 389,-20 468,-20 468,-88"/>
<text text-anchor="start" x="405.5" y="-72.8" font-family="Helvetica,sans-Serif" font-size="14.00">Law on</text>
<text text-anchor="start" x="397" y="-57.8" font-family="Helvetica,sans-Serif" font-size="14.00">same&#45;sex</text>
<text text-anchor="start" x="400.5" y="-42.8" font-family="Helvetica,sans-Serif" font-size="14.00">marriage</text>
<text text-anchor="start" x="397.5" y="-27.8" font-family="Helvetica,sans-Serif" font-size="14.00">is passed</text>
</g>
<!-- Legislators have more favourable views&#45;&gt;Law on same&#45;sex marriage is passed -->
<g id="edge1" class="edge"><title>Legislators have more favourable views&#45;&gt;Law on same&#45;sex marriage is passed</title>
<path fill="none" stroke="#737373" stroke-width="2" d="M339.009,-54C351.591,-54 365.499,-54 378.49,-54"/>
<polygon fill="#737373" stroke="#737373" stroke-width="2" points="378.669,-57.5001 388.669,-54 378.669,-50.5001 378.669,-57.5001"/>
</g>
<!-- Public opinion improves -->
<g id="node3" class="node"><title>Public opinion improves</title>
<polygon fill="#fee6ce" stroke="#fee6ce" points="203,-80.5 128,-80.5 128,-27.5 203,-27.5 203,-80.5"/>
<text text-anchor="start" x="145.5" y="-65.3" font-family="Helvetica,sans-Serif" font-size="14.00">Public</text>
<text text-anchor="start" x="142.5" y="-50.3" font-family="Helvetica,sans-Serif" font-size="14.00">opinion</text>
<text text-anchor="start" x="136" y="-35.3" font-family="Helvetica,sans-Serif" font-size="14.00">improves</text>
</g>
<!-- Public opinion improves&#45;&gt;Legislators have more favourable views -->
<g id="edge2" class="edge"><title>Public opinion improves&#45;&gt;Legislators have more favourable views</title>
<path fill="none" stroke="#737373" stroke-width="2" d="M203.323,-54C215.495,-54 229.284,-54 242.402,-54"/>
<polygon fill="#737373" stroke="#737373" stroke-width="2" points="242.735,-57.5001 252.735,-54 242.735,-50.5001 242.735,-57.5001"/>
</g>
<!-- Our campaign is launched -->
<g id="node4" class="node"><title>Our campaign is launched</title>
<polygon fill="#fee6ce" stroke="#fee6ce" points="78,-88 0,-88 0,-20 78,-20 78,-88"/>
<text text-anchor="start" x="27" y="-72.8" font-family="Helvetica,sans-Serif" font-size="14.00">Our</text>
<text text-anchor="start" x="8" y="-57.8" font-family="Helvetica,sans-Serif" font-size="14.00">campaign</text>
<text text-anchor="start" x="33.5" y="-42.8" font-family="Helvetica,sans-Serif" font-size="14.00">is</text>
<text text-anchor="start" x="10" y="-27.8" font-family="Helvetica,sans-Serif" font-size="14.00">launched</text>
</g>
<!-- Our campaign is launched&#45;&gt;Public opinion improves -->
<g id="edge3" class="edge"><title>Our campaign is launched&#45;&gt;Public opinion improves</title>
<path fill="none" stroke="#737373" stroke-width="2" d="M78.0306,-54C90.5572,-54 104.634,-54 117.734,-54"/>
<polygon fill="#737373" stroke="#737373" stroke-width="2" points="117.982,-57.5001 127.982,-54 117.982,-50.5001 117.982,-57.5001"/>
</g>
</g>
</svg>
