<?xml version="1.0" encoding="UTF-8" standalone="no"?>
<!DOCTYPE svg PUBLIC "-//W3C//DTD SVG 1.1//EN"
 "http://www.w3.org/Graphics/SVG/1.1/DTD/svg11.dtd">
<!-- Generated by graphviz version 2.38.0 (20140413.2041)
 -->
<!-- Title: foo Pages: 1 -->
<svg width="807pt" height="94pt"
 viewBox="0.00 0.00 807.00 94.00" xmlns="http://www.w3.org/2000/svg" xmlns:xlink="http://www.w3.org/1999/xlink">
<g id="graph0" class="graph" transform="scale(1 1) rotate(0) translate(4 90)">
<title>foo</title>
<g id="a_graph0"><a xlink:title=" ">
<polygon fill="white" stroke="none" points="-4,4 -4,-90 803,-90 803,4 -4,4"/>
</a>
</g>
<!-- xkcdaxis(xrange &#160;&#160;c(&#45;20,5),yrange &#160;&#160;c(0,5))+ -->
<g id="node1" class="node"><title>xkcdaxis(xrange &#160;&#160;c(&#45;20,5),yrange &#160;&#160;c(0,5))+</title>
<polygon fill="#e5f5e0" stroke="#e5f5e0" stroke-width="2" points="438,-62 260,-62 260,-24 438,-24 438,-62"/>
<text text-anchor="start" x="292" y="-46.8" font-family="arial" font-size="14.00">xkcdaxis(xrange =</text>
<text text-anchor="start" x="268" y="-31.8" font-family="arial" font-size="14.00">c(&#45;20,5),yrange = c(0,5))+</text>
</g>
<!-- myplot+geom_line(data NULL,aes(&#45;20:3,&#45;20:3 %!gt% map_dbl(function(x)500/(100+2^&#45;x))))+ -->
<g id="node2" class="node"><title>myplot+geom_line(data NULL,aes(&#45;20:3,&#45;20:3 %!gt% map_dbl(function(x)500/(100+2^&#45;x))))+</title>
<polygon fill="#e5f5e0" stroke="#e5f5e0" stroke-width="2" points="799,-69.5 488,-69.5 488,-16.5 799,-16.5 799,-69.5"/>
<text text-anchor="start" x="496" y="-54.3" font-family="arial" font-size="14.00">myplot+geom_line(data=NULL,aes(&#45;20:3,&#45;20:3</text>
<text text-anchor="start" x="626.5" y="-39.3" font-family="arial" font-size="14.00">%&gt;%</text>
<text text-anchor="start" x="522" y="-24.3" font-family="arial" font-size="14.00">map_dbl(function(x)500/(100+2^&#45;x))))+</text>
</g>
<!-- xkcdaxis(xrange &#160;&#160;c(&#45;20,5),yrange &#160;&#160;c(0,5))+&#45;&gt;myplot+geom_line(data NULL,aes(&#45;20:3,&#45;20:3 %!gt% map_dbl(function(x)500/(100+2^&#45;x))))+ -->
<g id="edge1" class="edge"><title>xkcdaxis(xrange &#160;&#160;c(&#45;20,5),yrange &#160;&#160;c(0,5))+&#45;&gt;myplot+geom_line(data NULL,aes(&#45;20:3,&#45;20:3 %!gt% map_dbl(function(x)500/(100+2^&#45;x))))+</title>
<path fill="none" stroke="#41ab5d" d="M438.156,-43C450.756,-43 464.044,-43 477.547,-43"/>
<polygon fill="#41ab5d" stroke="#41ab5d" points="477.907,-46.5001 487.907,-43 477.907,-39.5001 477.907,-46.5001"/>
</g>
<!-- ylab(&#39;Consequence Variable&#39;)+ -->
<g id="node3" class="node"><title>ylab(&#39;Consequence Variable&#39;)+</title>
<polygon fill="#e5f5e0" stroke="#e5f5e0" stroke-width="2" points="210,-86 0,-86 0,-50 210,-50 210,-86"/>
<text text-anchor="start" x="8" y="-64.3" font-family="arial" font-size="14.00">ylab(&#39;Consequence Variable&#39;)+</text>
</g>
<!-- ylab(&#39;Consequence Variable&#39;)+&#45;&gt;xkcdaxis(xrange &#160;&#160;c(&#45;20,5),yrange &#160;&#160;c(0,5))+ -->
<g id="edge2" class="edge"><title>ylab(&#39;Consequence Variable&#39;)+&#45;&gt;xkcdaxis(xrange &#160;&#160;c(&#45;20,5),yrange &#160;&#160;c(0,5))+</title>
<path fill="none" stroke="#41ab5d" d="M210.034,-57.2527C223.074,-55.9056 236.382,-54.5308 249.336,-53.1925"/>
<polygon fill="#41ab5d" stroke="#41ab5d" points="250.05,-56.6375 259.637,-52.1284 249.331,-49.6746 250.05,-56.6375"/>
</g>
<!-- xlab(&#39;Influence Variable&#39;) -->
<g id="node4" class="node"><title>xlab(&#39;Influence Variable&#39;)</title>
<polygon fill="#e5f5e0" stroke="#e5f5e0" stroke-width="2" points="190.5,-36 19.5,-36 19.5,-0 190.5,-0 190.5,-36"/>
<text text-anchor="start" x="27.5" y="-14.3" font-family="arial" font-size="14.00">xlab(&#39;Influence Variable&#39;)</text>
</g>
<!-- xlab(&#39;Influence Variable&#39;)&#45;&gt;xkcdaxis(xrange &#160;&#160;c(&#45;20,5),yrange &#160;&#160;c(0,5))+ -->
<g id="edge3" class="edge"><title>xlab(&#39;Influence Variable&#39;)&#45;&gt;xkcdaxis(xrange &#160;&#160;c(&#45;20,5),yrange &#160;&#160;c(0,5))+</title>
<path fill="none" stroke="#41ab5d" d="M190.64,-26.7438C209.675,-28.7102 230.034,-30.8134 249.578,-32.8324"/>
<polygon fill="#41ab5d" stroke="#41ab5d" points="249.406,-36.3332 259.712,-33.8794 250.125,-29.3702 249.406,-36.3332"/>
</g>
</g>
</svg>
