<?xml version="1.0" encoding="UTF-8" standalone="no"?>
<!DOCTYPE svg PUBLIC "-//W3C//DTD SVG 1.1//EN"
 "http://www.w3.org/Graphics/SVG/1.1/DTD/svg11.dtd">
<!-- Generated by graphviz version 2.38.0 (20140413.2041)
 -->
<!-- Title: foo Pages: 1 -->
<svg width="489pt" height="168pt"
 viewBox="0.00 0.00 489.00 168.00" xmlns="http://www.w3.org/2000/svg" xmlns:xlink="http://www.w3.org/1999/xlink">
<g id="graph0" class="graph" transform="scale(1 1) rotate(0) translate(4 164)">
<title>foo</title>
<g id="a_graph0"><a xlink:title=" ">
<polygon fill="white" stroke="none" points="-4,4 -4,-164 485,-164 485,4 -4,4"/>
</a>
</g>
<!-- Legislators have more favourable views -->
<g id="node1" class="node"><title>Legislators have more favourable views</title>
<polygon fill="#e5f5e0" stroke="#e5f5e0" stroke-width="2" points="352,-122 266,-122 266,-54 352,-54 352,-122"/>
<text text-anchor="start" x="274" y="-106.8" font-family="arial" font-size="14.00">Legislators</text>
<text text-anchor="start" x="275.5" y="-91.8" font-family="arial" font-size="14.00">have more</text>
<text text-anchor="start" x="275.5" y="-76.8" font-family="arial" font-size="14.00">favourable</text>
<text text-anchor="start" x="291" y="-61.8" font-family="arial" font-size="14.00">views</text>
</g>
<!-- Law on same&#45;sex marriage is passed -->
<g id="node2" class="node"><title>Law on same&#45;sex marriage is passed</title>
<polygon fill="#e5f5e0" stroke="#e5f5e0" stroke-width="2" points="481,-122 402,-122 402,-54 481,-54 481,-122"/>
<text text-anchor="start" x="418.5" y="-106.8" font-family="arial" font-size="14.00">Law on</text>
<text text-anchor="start" x="410" y="-91.8" font-family="arial" font-size="14.00">same&#45;sex</text>
<text text-anchor="start" x="413.5" y="-76.8" font-family="arial" font-size="14.00">marriage</text>
<text text-anchor="start" x="410.5" y="-61.8" font-family="arial" font-size="14.00">is passed</text>
</g>
<!-- Legislators have more favourable views&#45;&gt;Law on same&#45;sex marriage is passed -->
<g id="edge1" class="edge"><title>Legislators have more favourable views&#45;&gt;Law on same&#45;sex marriage is passed</title>
<path fill="none" stroke="#41ab5d" d="M352.009,-88C364.591,-88 378.499,-88 391.49,-88"/>
<polygon fill="#41ab5d" stroke="#41ab5d" points="391.669,-91.5001 401.669,-88 391.669,-84.5001 391.669,-91.5001"/>
</g>
<!-- Other campaign &#160;lobbies legislators -->
<g id="node3" class="node"><title>Other campaign &#160;lobbies legislators</title>
<polygon fill="#e5f5e0" stroke="#e5f5e0" stroke-width="2" points="216,-160 135,-160 135,-92 216,-92 216,-160"/>
<text text-anchor="start" x="157.5" y="-144.8" font-family="arial" font-size="14.00">Other</text>
<text text-anchor="start" x="144.5" y="-129.8" font-family="arial" font-size="14.00">campaign</text>
<text text-anchor="start" x="152" y="-114.8" font-family="arial" font-size="14.00">lobbies</text>
<text text-anchor="start" x="143" y="-99.8" font-family="arial" font-size="14.00">legislators</text>
</g>
<!-- Other campaign &#160;lobbies legislators&#45;&gt;Legislators have more favourable views -->
<g id="edge2" class="edge"><title>Other campaign &#160;lobbies legislators&#45;&gt;Legislators have more favourable views</title>
<path fill="none" stroke="#41ab5d" d="M216.311,-114.496C228.72,-110.91 242.598,-106.9 255.726,-103.106"/>
<polygon fill="#41ab5d" stroke="#41ab5d" points="256.947,-106.396 265.582,-100.258 255.004,-99.6714 256.947,-106.396"/>
</g>
<!-- Public opinion improves -->
<g id="node4" class="node"><title>Public opinion improves</title>
<polygon fill="#e5f5e0" stroke="#e5f5e0" stroke-width="2" points="213,-77.5 138,-77.5 138,-24.5 213,-24.5 213,-77.5"/>
<text text-anchor="start" x="155.5" y="-62.3" font-family="arial" font-size="14.00">Public</text>
<text text-anchor="start" x="152.5" y="-47.3" font-family="arial" font-size="14.00">opinion</text>
<text text-anchor="start" x="146" y="-32.3" font-family="arial" font-size="14.00">improves</text>
</g>
<!-- Public opinion improves&#45;&gt;Legislators have more favourable views -->
<g id="edge3" class="edge"><title>Public opinion improves&#45;&gt;Legislators have more favourable views</title>
<path fill="none" stroke="#41ab5d" d="M213.13,-61.3066C226.467,-65.0592 241.808,-69.3756 256.211,-73.4283"/>
<polygon fill="#41ab5d" stroke="#41ab5d" points="255.423,-76.8423 265.997,-76.1817 257.319,-70.1039 255.423,-76.8423"/>
</g>
<!-- !do Our campaign is launched -->
<g id="node5" class="node"><title>!do Our campaign is launched</title>
<polygon fill="#e5f5e0" stroke="#e5f5e0" stroke-width="2" points="81.5,-116 3.5,-116 3.5,-52 81.5,-52 81.5,-116"/>
<text text-anchor="start" x="20.5" y="-101.8" font-family="arial" font-size="14.00" fill="green">▶ </text>
<text text-anchor="start" x="36.5" y="-101.8" font-family="arial" font-size="14.00"> Our</text>
<text text-anchor="start" x="11.5" y="-87.8" font-family="arial" font-size="14.00">campaign</text>
<text text-anchor="start" x="37" y="-73.8" font-family="arial" font-size="14.00">is</text>
<text text-anchor="start" x="13.5" y="-59.8" font-family="arial" font-size="14.00">launched</text>
</g>
<!-- !do Our campaign is launched&#45;&gt;Public opinion improves -->
<g id="edge4" class="edge"><title>!do Our campaign is launched&#45;&gt;Public opinion improves</title>
<path fill="none" stroke="#41ab5d" d="M81.7428,-74.3663C96.2392,-70.7146 112.904,-66.5167 128.073,-62.6954"/>
<polygon fill="#41ab5d" stroke="#41ab5d" points="128.945,-66.085 137.787,-60.2482 127.235,-59.2971 128.945,-66.085"/>
</g>
<!-- Celebrities speak out -->
<g id="node6" class="node"><title>Celebrities speak out</title>
<polygon fill="#e5f5e0" stroke="#e5f5e0" stroke-width="2" points="85,-38 0,-38 0,-0 85,-0 85,-38"/>
<text text-anchor="start" x="8" y="-22.8" font-family="arial" font-size="14.00">Celebrities</text>
<text text-anchor="start" x="11.5" y="-7.8" font-family="arial" font-size="14.00">speak out</text>
</g>
<!-- Celebrities speak out&#45;&gt;Public opinion improves -->
<g id="edge5" class="edge"><title>Celebrities speak out&#45;&gt;Public opinion improves</title>
<path fill="none" stroke="#41ab5d" d="M85.3094,-29.213C98.9268,-32.5394 114.123,-36.2515 128.059,-39.6556"/>
<polygon fill="#41ab5d" stroke="#41ab5d" points="127.398,-43.0969 137.943,-42.0699 129.059,-36.2969 127.398,-43.0969"/>
</g>
</g>
</svg>
