<?xml version="1.0" encoding="UTF-8" standalone="no"?>
<!DOCTYPE svg PUBLIC "-//W3C//DTD SVG 1.1//EN"
 "http://www.w3.org/Graphics/SVG/1.1/DTD/svg11.dtd">
<!-- Generated by graphviz version 2.38.0 (20140413.2041)
 -->
<!-- Title: foo Pages: 1 -->
<svg width="554pt" height="94pt"
 viewBox="0.00 0.00 554.00 94.00" xmlns="http://www.w3.org/2000/svg" xmlns:xlink="http://www.w3.org/1999/xlink">
<g id="graph0" class="graph" transform="scale(1 1) rotate(0) translate(4 90)">
<title>foo</title>
<g id="a_graph0"><a xlink:title=" ">
<polygon fill="white" stroke="none" points="-4,4 -4,-90 550,-90 550,4 -4,4"/>
</a>
</g>
<!-- Enough representatives of Party A convinced !tick -->
<g id="node1" class="node"><title>Enough representatives of Party A convinced !tick</title>
<polygon fill="#e5f5e0" stroke="#e5f5e0" stroke-width="2" points="373,-36 190,-36 190,-0 373,-0 373,-36"/>
<text text-anchor="start" x="198" y="-21.8" font-family="arial" font-size="14.00">Enough representatives of</text>
<text text-anchor="start" x="216.5" y="-7.8" font-family="arial" font-size="14.00">Party A convinced </text>
<text text-anchor="start" x="334.5" y="-7.8" font-family="arial" font-size="14.00" fill="green">✔</text>
</g>
<!-- Law is passed !tick -->
<g id="node2" class="node"><title>Law is passed !tick</title>
<polygon fill="#e5f5e0" stroke="#e5f5e0" stroke-width="2" points="546,-61 423,-61 423,-25 546,-25 546,-61"/>
<text text-anchor="start" x="431" y="-40.3" font-family="arial" font-size="14.00">Law is passed </text>
<text text-anchor="start" x="526" y="-40.3" font-family="arial" font-size="14.00" fill="green">✔</text>
</g>
<!-- Enough representatives of Party A convinced !tick&#45;&gt;Law is passed !tick -->
<g id="edge1" class="edge"><title>Enough representatives of Party A convinced !tick&#45;&gt;Law is passed !tick</title>
<path fill="none" stroke="#41ab5d" d="M373.275,-34.3264C388.728,-37.1058 402.629,-39.606 411.491,-41.1999"/>
<polygon fill="#41ab5d" stroke="#41ab5d" points="411.038,-44.6745 421.5,-43 412.278,-37.785 411.038,-44.6745"/>
<text text-anchor="middle" x="406.998" y="-43.1327" font-family="Times New Roman,serif" font-size="14.00">OR</text>
</g>
<!-- Lobbying Party A !tick -->
<g id="node3" class="node"><title>Lobbying Party A !tick</title>
<polygon fill="#e5f5e0" stroke="#e5f5e0" stroke-width="2" points="140,-36 0,-36 0,-0 140,-0 140,-36"/>
<text text-anchor="start" x="8" y="-15.3" font-family="arial" font-size="14.00">Lobbying Party A </text>
<text text-anchor="start" x="120" y="-15.3" font-family="arial" font-size="14.00" fill="green">✔</text>
</g>
<!-- Lobbying Party A !tick&#45;&gt;Enough representatives of Party A convinced !tick -->
<g id="edge2" class="edge"><title>Lobbying Party A !tick&#45;&gt;Enough representatives of Party A convinced !tick</title>
<path fill="none" stroke="#41ab5d" d="M140.179,-18C152.81,-18 166.225,-18 179.558,-18"/>
<polygon fill="#41ab5d" stroke="#41ab5d" points="179.723,-21.5001 189.723,-18 179.723,-14.5001 179.723,-21.5001"/>
</g>
<!-- Enough representatives of Party B convinced !cross -->
<g id="node4" class="node"><title>Enough representatives of Party B convinced !cross</title>
<polygon fill="#e5f5e0" stroke="#e5f5e0" stroke-width="2" points="373,-86 190,-86 190,-50 373,-50 373,-86"/>
<text text-anchor="start" x="198" y="-71.8" font-family="arial" font-size="14.00">Enough representatives of</text>
<text text-anchor="start" x="216.5" y="-57.8" font-family="arial" font-size="14.00">Party B convinced </text>
<text text-anchor="start" x="334.5" y="-57.8" font-family="arial" font-size="14.00" fill="orange">✘</text>
</g>
<!-- Enough representatives of Party B convinced !cross&#45;&gt;Law is passed !tick -->
<g id="edge3" class="edge"><title>Enough representatives of Party B convinced !cross&#45;&gt;Law is passed !tick</title>
<path fill="none" stroke="#41ab5d" d="M373.275,-51.6736C388.728,-48.8942 402.629,-46.394 411.491,-44.8001"/>
<polygon fill="#41ab5d" stroke="#41ab5d" points="412.278,-48.215 421.5,-43 411.038,-41.3255 412.278,-48.215"/>
</g>
<!-- Lobbying Party B !cross -->
<g id="node5" class="node"><title>Lobbying Party B !cross</title>
<polygon fill="#e5f5e0" stroke="#e5f5e0" stroke-width="2" points="140,-86 0,-86 0,-50 140,-50 140,-86"/>
<text text-anchor="start" x="8" y="-65.3" font-family="arial" font-size="14.00">Lobbying Party B </text>
<text text-anchor="start" x="120" y="-65.3" font-family="arial" font-size="14.00" fill="orange">✘</text>
</g>
<!-- Lobbying Party B !cross&#45;&gt;Enough representatives of Party B convinced !cross -->
<g id="edge4" class="edge"><title>Lobbying Party B !cross&#45;&gt;Enough representatives of Party B convinced !cross</title>
<path fill="none" stroke="#41ab5d" d="M140.179,-68C152.81,-68 166.225,-68 179.558,-68"/>
<polygon fill="#41ab5d" stroke="#41ab5d" points="179.723,-71.5001 189.723,-68 179.723,-64.5001 179.723,-71.5001"/>
</g>
</g>
</svg>
