<?xml version="1.0" encoding="UTF-8" standalone="no"?>
<!DOCTYPE svg PUBLIC "-//W3C//DTD SVG 1.1//EN"
 "http://www.w3.org/Graphics/SVG/1.1/DTD/svg11.dtd">
<!-- Generated by graphviz version 2.38.0 (20140413.2041)
 -->
<!-- Title: foo Pages: 1 -->
<svg width="802pt" height="182pt"
 viewBox="0.00 0.00 802.00 182.00" xmlns="http://www.w3.org/2000/svg" xmlns:xlink="http://www.w3.org/1999/xlink">
<g id="graph0" class="graph" transform="scale(1 1) rotate(0) translate(4 178)">
<title>foo</title>
<g id="a_graph0"><a xlink:title=" ">
<polygon fill="white" stroke="none" points="-4,4 -4,-178 798,-178 798,4 -4,4"/>
</a>
</g>
<g id="clust1" class="cluster"><title>cluster_Floodingsubproject</title>
<g id="a_clust1"><a xlink:title=" ">
<path fill="#fcfbfd" stroke="#fdd0a2" d="M20,-8C20,-8 496,-8 496,-8 502,-8 508,-14 508,-20 508,-20 508,-71 508,-71 508,-77 502,-83 496,-83 496,-83 20,-83 20,-83 14,-83 8,-77 8,-71 8,-71 8,-20 8,-20 8,-14 14,-8 20,-8"/>
<text text-anchor="start" x="16" y="-67.8" font-family="arial" font-size="14.00">Flooding sub&#45;project</text>
</a>
</g>
</g>
<g id="clust2" class="cluster"><title>cluster_Livelihoodssubproject</title>
<g id="a_clust2"><a xlink:title=" ">
<path fill="#fcfbfd" stroke="#fdd0a2" d="M29,-91C29,-91 509,-91 509,-91 515,-91 521,-97 521,-103 521,-103 521,-154 521,-154 521,-160 515,-166 509,-166 509,-166 29,-166 29,-166 23,-166 17,-160 17,-154 17,-154 17,-103 17,-103 17,-97 23,-91 29,-91"/>
<text text-anchor="start" x="25" y="-150.8" font-family="arial" font-size="14.00">Livelihoods sub&#45;project</text>
</a>
</g>
</g>
<!--  Flood risk///((low rather_than high)) !lohi !frown -->
<g id="node1" class="node"><title> Flood risk///((low rather_than high)) !lohi !frown</title>
<polygon fill="#e5f5e0" stroke="#e5f5e0" stroke-width="2" points="500,-52 309,-52 309,-16 500,-16 500,-52"/>
<text text-anchor="start" x="371" y="-37.8" font-family="arial" font-size="14.00"> Flood risk</text>
<text text-anchor="start" x="317" y="-23.8" font-family="arial" font-size="14.00" fill="green">((low rather_than high))</text>
<text text-anchor="start" x="461" y="-23.8" font-family="arial" font-size="14.00"> ◪ ☹</text>
</g>
<!-- ((Improved)) &#160;village resilience !lohi -->
<g id="node2" class="node"><title>((Improved)) &#160;village resilience !lohi</title>
<polygon fill="none" stroke="#41ab5d" stroke-width="2" stroke-dasharray="5,2" points="794,-99 575,-99 575,-63 794,-63 794,-99"/>
<text text-anchor="start" x="583" y="-78.3" font-family="arial" font-size="14.00" fill="green">((Improved))</text>
<text text-anchor="start" x="662" y="-78.3" font-family="arial" font-size="14.00"> village resilience ◪</text>
</g>
<!--  Flood risk///((low rather_than high)) !lohi !frown&#45;&gt;((Improved)) &#160;village resilience !lohi -->
<g id="edge1" class="edge"><title> Flood risk///((low rather_than high)) !lohi !frown&#45;&gt;((Improved)) &#160;village resilience !lohi</title>
<path fill="none" stroke="#41ab5d" stroke-dasharray="5,2" d="M500.006,-49.9776C521.437,-53.6008 544.445,-57.4907 566.676,-61.2493"/>
<polygon fill="#41ab5d" stroke="#41ab5d" points="566.384,-64.7494 576.828,-62.9655 567.551,-57.8474 566.384,-64.7494"/>
<text text-anchor="start" x="538" y="-61.8" font-family="Times New Roman,serif" font-size="14.00">⊖</text>
</g>
<!--  !do Preparedness intervention !tick -->
<g id="node3" class="node"><title> !do Preparedness intervention !tick</title>
<polygon fill="#e5f5e0" stroke="#e5f5e0" stroke-width="2" points="234,-52 16,-52 16,-16 234,-16 234,-52"/>
<text text-anchor="start" x="24" y="-31.3" font-family="arial" font-size="14.00" fill="green">▶ </text>
<text text-anchor="start" x="40" y="-31.3" font-family="arial" font-size="14.00"> Preparedness intervention </text>
<text text-anchor="start" x="214" y="-31.3" font-family="arial" font-size="14.00" fill="green">✔</text>
</g>
<!--  !do Preparedness intervention !tick&#45;&gt; Flood risk///((low rather_than high)) !lohi !frown -->
<g id="edge2" class="edge"><title> !do Preparedness intervention !tick&#45;&gt; Flood risk///((low rather_than high)) !lohi !frown</title>
<path fill="none" stroke="#41ab5d" d="M234.083,-34C255.27,-34 277.461,-34 298.543,-34"/>
<polygon fill="#41ab5d" stroke="#41ab5d" points="298.795,-37.5001 308.795,-34 298.795,-30.5001 298.795,-37.5001"/>
<text text-anchor="start" x="259" y="-37.8" font-family="Times New Roman,serif" font-size="14.00">⊖</text>
</g>
<!--  Average family income ///((5USD rather_than 4USD)) !lohi !heart -->
<g id="node4" class="node"><title> Average family income ///((5USD rather_than 4USD)) !lohi !heart</title>
<polygon fill="#e5f5e0" stroke="#e5f5e0" stroke-width="2" points="513,-135 296,-135 296,-99 513,-99 513,-135"/>
<text text-anchor="start" x="328.5" y="-120.8" font-family="arial" font-size="14.00"> Average family income </text>
<text text-anchor="start" x="304" y="-106.8" font-family="arial" font-size="14.00" fill="green">((5USD rather_than 4USD))</text>
<text text-anchor="start" x="477" y="-106.8" font-family="arial" font-size="14.00"> ◪ </text>
<text text-anchor="start" x="496" y="-106.8" font-family="arial" font-size="14.00" fill="orange">♥</text>
</g>
<!--  Average family income ///((5USD rather_than 4USD)) !lohi !heart&#45;&gt;((Improved)) &#160;village resilience !lohi -->
<g id="edge3" class="edge"><title> Average family income ///((5USD rather_than 4USD)) !lohi !heart&#45;&gt;((Improved)) &#160;village resilience !lohi</title>
<path fill="none" stroke="#41ab5d" stroke-dasharray="5,2" d="M513.38,-103.03C530.221,-100.849 547.705,-98.585 564.772,-96.3749"/>
<polygon fill="#41ab5d" stroke="#41ab5d" points="565.297,-99.8362 574.764,-95.0809 564.398,-92.8942 565.297,-99.8362"/>
<text text-anchor="start" x="538" y="-102.8" font-family="Times New Roman,serif" font-size="14.00">⊕</text>
</g>
<!-- !do Livelihoods intervention !tick -->
<g id="node5" class="node"><title>!do Livelihoods intervention !tick</title>
<polygon fill="#e5f5e0" stroke="#e5f5e0" stroke-width="2" points="225,-135 25,-135 25,-99 225,-99 225,-135"/>
<text text-anchor="start" x="33" y="-114.3" font-family="arial" font-size="14.00" fill="green">▶ </text>
<text text-anchor="start" x="49" y="-114.3" font-family="arial" font-size="14.00"> Livelihoods intervention </text>
<text text-anchor="start" x="205" y="-114.3" font-family="arial" font-size="14.00" fill="green">✔</text>
</g>
<!-- !do Livelihoods intervention !tick&#45;&gt; Average family income ///((5USD rather_than 4USD)) !lohi !heart -->
<g id="edge4" class="edge"><title>!do Livelihoods intervention !tick&#45;&gt; Average family income ///((5USD rather_than 4USD)) !lohi !heart</title>
<path fill="none" stroke="#41ab5d" d="M225.009,-117C244.583,-117 265.309,-117 285.441,-117"/>
<polygon fill="#41ab5d" stroke="#41ab5d" points="285.585,-120.5 295.585,-117 285.585,-113.5 285.585,-120.5"/>
<text text-anchor="start" x="259" y="-120.8" font-family="Times New Roman,serif" font-size="14.00">⊕</text>
</g>
</g>
</svg>
