<?xml version="1.0" encoding="UTF-8" standalone="no"?>
<!DOCTYPE svg PUBLIC "-//W3C//DTD SVG 1.1//EN"
 "http://www.w3.org/Graphics/SVG/1.1/DTD/svg11.dtd">
<!-- Generated by graphviz version 2.38.0 (20140413.2041)
 -->
<!-- Title: foo Pages: 1 -->
<svg width="254pt" height="62pt"
 viewBox="0.00 0.00 254.00 61.50" xmlns="http://www.w3.org/2000/svg" xmlns:xlink="http://www.w3.org/1999/xlink">
<g id="graph0" class="graph" transform="scale(1 1) rotate(0) translate(4 57.5)">
<title>foo</title>
<g id="a_graph0"><a xlink:title=" ">
<polygon fill="white" stroke="none" points="-4,4 -4,-57.5 250,-57.5 250,4 -4,4"/>
</a>
</g>
<!-- axsxdf -->
<!-- !uu Subjective temperature !lohi -->
<g id="node2" class="node"><title>!uu Subjective temperature !lohi</title>
<polygon fill="#e5f5e0" stroke="#e5f5e0" stroke-width="2" points="246,-38 138,-38 138,-0 246,-0 246,-38"/>
<text text-anchor="start" x="151" y="-22.8" font-family="arial" font-size="14.00">⇈ Subjective</text>
<text text-anchor="start" x="146" y="-7.8" font-family="arial" font-size="14.00">temperature ◪</text>
</g>
<!-- axsxdf&#45;&gt;!uu Subjective temperature !lohi -->
<g id="edge1" class="edge"><title>axsxdf&#45;&gt;!uu Subjective temperature !lohi</title>
<path fill="none" stroke="#41ab5d" stroke-width="0" d="M48.143,-52.4855C55.2645,-51.3042 73.1649,-48.249 88,-45 100.993,-42.1545 114.839,-38.8489 128.027,-35.5682"/>
<polygon fill="#41ab5d" stroke="#41ab5d" stroke-width="0" points="129.113,-38.9041 137.958,-33.0723 127.407,-32.1152 129.113,-38.9041"/>
</g>
<!-- Strength of sunshine !lohi -->
<g id="node3" class="node"><title>Strength of sunshine !lohi</title>
<polygon fill="#e5f5e0" stroke="#e5f5e0" stroke-width="2" points="88,-38 0,-38 0,-0 88,-0 88,-38"/>
<text text-anchor="start" x="9" y="-22.8" font-family="arial" font-size="14.00">Strength of</text>
<text text-anchor="start" x="8" y="-7.8" font-family="arial" font-size="14.00">sunshine ◪</text>
</g>
<!-- Strength of sunshine !lohi&#45;&gt;!uu Subjective temperature !lohi -->
<g id="edge2" class="edge"><title>Strength of sunshine !lohi&#45;&gt;!uu Subjective temperature !lohi</title>
<path fill="none" stroke="#41ab5d" d="M88.0152,-19C100.482,-19 114.362,-19 127.791,-19"/>
<polygon fill="#41ab5d" stroke="#41ab5d" points="127.942,-22.5001 137.942,-19 127.942,-15.5001 127.942,-22.5001"/>
</g>
</g>
</svg>
