<?xml version="1.0" encoding="UTF-8" standalone="no"?>
<!DOCTYPE svg PUBLIC "-//W3C//DTD SVG 1.1//EN"
 "http://www.w3.org/Graphics/SVG/1.1/DTD/svg11.dtd">
<!-- Generated by graphviz version 2.38.0 (20140413.2041)
 -->
<!-- Title: foo Pages: 1 -->
<svg width="538pt" height="364pt"
 viewBox="0.00 0.00 538.00 364.00" xmlns="http://www.w3.org/2000/svg" xmlns:xlink="http://www.w3.org/1999/xlink">
<g id="graph0" class="graph" transform="scale(1 1) rotate(0) translate(4 360)">
<title>foo</title>
<g id="a_graph0"><a xlink:title=" ">
<polygon fill="#c7e9c0" stroke="none" points="-4,4 -4,-360 534,-360 534,4 -4,4"/>
<text text-anchor="start" x="66.5" y="-7.2" font-family="tahoma" font-size="11.00" fill="#238b45">Specifying what kind a Variable is &#45; can help the reader understand what is meant</text>
</a>
</g>
<!-- Number of signatures on petition (Levels: counting numbers) -->
<g id="node1" class="node"><title>Number of signatures on petition (Levels: counting numbers)</title>
<polygon fill="#f7fcf5" stroke="#f7fcf5" points="463,-56 67,-56 67,-20 463,-20 463,-56"/>
<text text-anchor="start" x="75" y="-34.3" font-family="Helvetica,sans-Serif" font-size="14.00" fill="#006d2c">Number of signatures on petition (Levels: counting numbers)</text>
</g>
<!-- Enabling law on same&#45;sex marriage is passed at Federal level !noyes -->
<g id="node2" class="node"><title>Enabling law on same&#45;sex marriage is passed at Federal level !noyes</title>
<polygon fill="#f7fcf5" stroke="#f7fcf5" points="475.5,-106 54.5,-106 54.5,-70 475.5,-70 475.5,-106"/>
<text text-anchor="start" x="62.5" y="-84.3" font-family="Helvetica,sans-Serif" font-size="14.00" fill="#006d2c">Enabling law on same&#45;sex marriage is passed at Federal level ◨</text>
</g>
<!-- Enabling law on same&#45;sex marriage is passed at Federal level (Levels: false, true) -->
<g id="node3" class="node"><title>Enabling law on same&#45;sex marriage is passed at Federal level (Levels: false, true)</title>
<polygon fill="#f7fcf5" stroke="#f7fcf5" points="530,-156 0,-156 0,-120 530,-120 530,-156"/>
<text text-anchor="start" x="8" y="-134.3" font-family="Helvetica,sans-Serif" font-size="14.00" fill="#006d2c">Enabling law on same&#45;sex marriage is passed at Federal level (Levels: false, true)</text>
</g>
<!-- The colour of this traffic light (Levels: red, orange, green) -->
<g id="node4" class="node"><title>The colour of this traffic light (Levels: red, orange, green)</title>
<polygon fill="#f7fcf5" stroke="#f7fcf5" points="452,-206 78,-206 78,-170 452,-170 452,-206"/>
<text text-anchor="start" x="86" y="-184.3" font-family="Helvetica,sans-Serif" font-size="14.00" fill="#006d2c">The colour of this traffic light (Levels: red, orange, green)</text>
</g>
<!-- Public&#39;s confidence in the President -->
<g id="node5" class="node"><title>Public&#39;s confidence in the President</title>
<polygon fill="#f7fcf5" stroke="#f7fcf5" points="386,-256 144,-256 144,-220 386,-220 386,-256"/>
<text text-anchor="start" x="152" y="-234.3" font-family="Helvetica,sans-Serif" font-size="14.00" fill="#006d2c">Public&#39;s confidence in the President</text>
</g>
<!-- Public&#39;s confidence in the President (Levels: lo&#45;hi) -->
<g id="node6" class="node"><title>Public&#39;s confidence in the President (Levels: lo&#45;hi)</title>
<polygon fill="#f7fcf5" stroke="#f7fcf5" points="430.5,-306 99.5,-306 99.5,-270 430.5,-270 430.5,-306"/>
<text text-anchor="start" x="107.5" y="-284.3" font-family="Helvetica,sans-Serif" font-size="14.00" fill="#006d2c">Public&#39;s confidence in the President (Levels: lo&#45;hi)</text>
</g>
<!-- Percentage of legislators supporting the law (Levels: percentages) -->
<g id="node7" class="node"><title>Percentage of legislators supporting the law (Levels: percentages)</title>
<polygon fill="#f7fcf5" stroke="#f7fcf5" points="482,-356 48,-356 48,-320 482,-320 482,-356"/>
<text text-anchor="start" x="56" y="-334.3" font-family="Helvetica,sans-Serif" font-size="14.00" fill="#006d2c">Percentage of legislators supporting the law (Levels: percentages)</text>
</g>
</g>
</svg>
