<?xml version="1.0" encoding="UTF-8" standalone="no"?>
<!DOCTYPE svg PUBLIC "-//W3C//DTD SVG 1.1//EN"
 "http://www.w3.org/Graphics/SVG/1.1/DTD/svg11.dtd">
<!-- Generated by graphviz version 2.38.0 (20140413.2041)
 -->
<!-- Title: foo Pages: 1 -->
<svg width="524pt" height="178pt"
 viewBox="0.00 0.00 524.00 178.00" xmlns="http://www.w3.org/2000/svg" xmlns:xlink="http://www.w3.org/1999/xlink">
<g id="graph0" class="graph" transform="scale(1 1) rotate(0) translate(4 174)">
<title>foo</title>
<g id="a_graph0"><a xlink:title=" ">
<polygon fill="#c7e9c0" stroke="none" points="-4,4 -4,-174 520,-174 520,4 -4,4"/>
<text text-anchor="start" x="149.5" y="-7.2" font-family="tahoma" font-size="11.00" fill="#238b45">All Variables are expressed using Differences</text>
</a>
</g>
<!-- Output: *improved* student classwork scores -->
<g id="node1" class="node"><title>Output: *improved* student classwork scores</title>
<polygon fill="#fdd0a2" stroke="#fdd0a2" points="325,-106 185,-106 185,-56 325,-56 325,-106"/>
<text text-anchor="start" x="193" y="-91.8" font-family="Helvetica,sans-Serif" font-size="14.00" fill="#006d2c">Output: </text>
<text text-anchor="start" x="243" y="-91.8" font-family="Helvetica,sans-Serif" font-size="14.00" fill="darkgreen">*improved* </text>
<text text-anchor="start" x="198.5" y="-77.8" font-family="Helvetica,sans-Serif" font-size="14.00" fill="#006d2c">student classwork</text>
<text text-anchor="start" x="233" y="-63.8" font-family="Helvetica,sans-Serif" font-size="14.00" fill="#006d2c">scores</text>
</g>
<!-- Outcome: *improved* student exam results -->
<g id="node2" class="node"><title>Outcome: *improved* student exam results</title>
<polygon fill="#fd8d3c" stroke="#fd8d3c" points="516,-138 375,-138 375,-88 516,-88 516,-138"/>
<text text-anchor="start" x="414" y="-123.8" font-family="Helvetica,sans-Serif" font-size="14.00" fill="#006d2c">Outcome:</text>
<text text-anchor="start" x="383" y="-109.8" font-family="Helvetica,sans-Serif" font-size="14.00" fill="darkgreen">*improved* </text>
<text text-anchor="start" x="457" y="-109.8" font-family="Helvetica,sans-Serif" font-size="14.00" fill="#006d2c"> student</text>
<text text-anchor="start" x="405" y="-95.8" font-family="Helvetica,sans-Serif" font-size="14.00" fill="#006d2c">exam results</text>
</g>
<!-- Output: *improved* student classwork scores&#45;&gt;Outcome: *improved* student exam results -->
<g id="edge1" class="edge"><title>Output: *improved* student classwork scores&#45;&gt;Outcome: *improved* student exam results</title>
<path fill="none" stroke="#41ab5d" stroke-width="2" d="M325.12,-92.7339C338.015,-94.9229 351.586,-97.2268 364.769,-99.4648"/>
<polygon fill="#41ab5d" stroke="#41ab5d" stroke-width="2" points="364.313,-102.937 374.757,-101.16 365.484,-96.036 364.313,-102.937"/>
</g>
<!-- Activity: student workshop 1 *held* -->
<g id="node3" class="node"><title>Activity: student workshop 1 *held*</title>
<polygon fill="#fff5eb" stroke="#fff5eb" points="135,-106 0,-106 0,-70 135,-70 135,-106"/>
<text text-anchor="start" x="18" y="-91.8" font-family="Helvetica,sans-Serif" font-size="14.00" fill="#006d2c">Activity: student</text>
<text text-anchor="start" x="8" y="-77.8" font-family="Helvetica,sans-Serif" font-size="14.00" fill="#006d2c">workshop 1 </text>
<text text-anchor="start" x="85" y="-77.8" font-family="Helvetica,sans-Serif" font-size="14.00" fill="darkgreen">*held* </text>
</g>
<!-- Activity: student workshop 1 *held*&#45;&gt;Output: *improved* student classwork scores -->
<g id="edge2" class="edge"><title>Activity: student workshop 1 *held*&#45;&gt;Output: *improved* student classwork scores</title>
<path fill="none" stroke="#41ab5d" stroke-width="2" d="M135.208,-85.4827C147.911,-85.0033 161.324,-84.4972 174.383,-84.0044"/>
<polygon fill="#41ab5d" stroke="#41ab5d" stroke-width="2" points="174.898,-87.4876 184.759,-83.6129 174.634,-80.4925 174.898,-87.4876"/>
</g>
<!-- Activity: students *given* laptops -->
<g id="node4" class="node"><title>Activity: students *given* laptops</title>
<polygon fill="#fff5eb" stroke="#fff5eb" points="128.5,-56 6.5,-56 6.5,-20 128.5,-20 128.5,-56"/>
<text text-anchor="start" x="14.5" y="-41.8" font-family="Helvetica,sans-Serif" font-size="14.00" fill="#006d2c">Activity: students</text>
<text text-anchor="start" x="17.5" y="-27.8" font-family="Helvetica,sans-Serif" font-size="14.00" fill="darkgreen">*given* </text>
<text text-anchor="start" x="66.5" y="-27.8" font-family="Helvetica,sans-Serif" font-size="14.00" fill="#006d2c"> laptops</text>
</g>
<!-- Activity: students *given* laptops&#45;&gt;Output: *improved* student classwork scores -->
<g id="edge3" class="edge"><title>Activity: students *given* laptops&#45;&gt;Output: *improved* student classwork scores</title>
<path fill="none" stroke="#41ab5d" stroke-width="2" d="M128.727,-51.9609C143.393,-55.3605 159.301,-59.0482 174.703,-62.6186"/>
<polygon fill="#41ab5d" stroke="#41ab5d" stroke-width="2" points="174.202,-66.0951 184.734,-64.9437 175.783,-59.2759 174.202,-66.0951"/>
</g>
<!-- Output: *improved* student exam skills -->
<g id="node5" class="node"><title>Output: *improved* student exam skills</title>
<polygon fill="#fdd0a2" stroke="#fdd0a2" points="325,-170 185,-170 185,-120 325,-120 325,-170"/>
<text text-anchor="start" x="193" y="-155.8" font-family="Helvetica,sans-Serif" font-size="14.00" fill="#006d2c">Output: </text>
<text text-anchor="start" x="243" y="-155.8" font-family="Helvetica,sans-Serif" font-size="14.00" fill="darkgreen">*improved* </text>
<text text-anchor="start" x="212.5" y="-141.8" font-family="Helvetica,sans-Serif" font-size="14.00" fill="#006d2c">student exam</text>
<text text-anchor="start" x="239.5" y="-127.8" font-family="Helvetica,sans-Serif" font-size="14.00" fill="#006d2c">skills</text>
</g>
<!-- Output: *improved* student exam skills&#45;&gt;Outcome: *improved* student exam results -->
<g id="edge4" class="edge"><title>Output: *improved* student exam skills&#45;&gt;Outcome: *improved* student exam results</title>
<path fill="none" stroke="#41ab5d" stroke-width="2" d="M325.12,-133.266C338.015,-131.077 351.586,-128.773 364.769,-126.535"/>
<polygon fill="#41ab5d" stroke="#41ab5d" stroke-width="2" points="365.484,-129.964 374.757,-124.84 364.313,-123.063 365.484,-129.964"/>
</g>
<!-- Activity: student workshop 2 *held* -->
<g id="node6" class="node"><title>Activity: student workshop 2 *held*</title>
<polygon fill="#fff5eb" stroke="#fff5eb" points="135,-163 0,-163 0,-127 135,-127 135,-163"/>
<text text-anchor="start" x="18" y="-148.8" font-family="Helvetica,sans-Serif" font-size="14.00" fill="#006d2c">Activity: student</text>
<text text-anchor="start" x="8" y="-134.8" font-family="Helvetica,sans-Serif" font-size="14.00" fill="#006d2c">workshop 2 </text>
<text text-anchor="start" x="85" y="-134.8" font-family="Helvetica,sans-Serif" font-size="14.00" fill="darkgreen">*held* </text>
</g>
<!-- Activity: student workshop 2 *held*&#45;&gt;Output: *improved* student exam skills -->
<g id="edge5" class="edge"><title>Activity: student workshop 2 *held*&#45;&gt;Output: *improved* student exam skills</title>
<path fill="none" stroke="#41ab5d" stroke-width="2" d="M135.208,-145C147.911,-145 161.324,-145 174.383,-145"/>
<polygon fill="#41ab5d" stroke="#41ab5d" stroke-width="2" points="174.759,-148.5 184.759,-145 174.759,-141.5 174.759,-148.5"/>
</g>
</g>
</svg>
