<?xml version="1.0" encoding="UTF-8" standalone="no"?>
<!DOCTYPE svg PUBLIC "-//W3C//DTD SVG 1.1//EN"
 "http://www.w3.org/Graphics/SVG/1.1/DTD/svg11.dtd">
<!-- Generated by graphviz version 2.38.0 (20140413.2041)
 -->
<!-- Title: foo Pages: 1 -->
<svg width="564pt" height="164pt"
 viewBox="0.00 0.00 564.00 163.50" xmlns="http://www.w3.org/2000/svg" xmlns:xlink="http://www.w3.org/1999/xlink">
<g id="graph0" class="graph" transform="scale(1 1) rotate(0) translate(4 159.5)">
<title>foo</title>
<g id="a_graph0"><a xlink:title=" ">
<polygon fill="#c7e9c0" stroke="none" points="-4,4 -4,-159.5 560,-159.5 560,4 -4,4"/>
<text text-anchor="start" x="240" y="-7.2" font-family="tahoma" font-size="11.00" fill="#238b45">Try this instead</text>
</a>
</g>
<!-- improved student exam results -->
<g id="node1" class="node"><title>improved student exam results</title>
<polygon fill="#f7fcf5" stroke="#f7fcf5" points="411,-110 310,-110 310,-57 411,-57 411,-110"/>
<text text-anchor="start" x="330.5" y="-94.8" font-family="Helvetica,sans-Serif" font-size="14.00" fill="#006d2c">improved</text>
<text text-anchor="start" x="318" y="-79.8" font-family="Helvetica,sans-Serif" font-size="14.00" fill="#006d2c">student exam</text>
<text text-anchor="start" x="339" y="-64.8" font-family="Helvetica,sans-Serif" font-size="14.00" fill="#006d2c">results</text>
</g>
<!-- improved student employment prospects//!heart -->
<g id="node2" class="node"><title>improved student employment prospects//!heart</title>
<polygon fill="#f7fcf5" stroke="#f7fcf5" points="556,-125 461,-125 461,-42 556,-42 556,-125"/>
<text text-anchor="start" x="478.5" y="-109.8" font-family="Helvetica,sans-Serif" font-size="14.00" fill="#006d2c">improved</text>
<text text-anchor="start" x="485" y="-94.8" font-family="Helvetica,sans-Serif" font-size="14.00" fill="#006d2c">student</text>
<text text-anchor="start" x="469" y="-79.8" font-family="Helvetica,sans-Serif" font-size="14.00" fill="#006d2c">employment</text>
<text text-anchor="start" x="476.5" y="-64.8" font-family="Helvetica,sans-Serif" font-size="14.00" fill="#006d2c">prospects</text>
<text text-anchor="start" x="504" y="-49.8" font-family="Helvetica,sans-Serif" font-size="14.00" fill="orange">♥</text>
</g>
<!-- improved student exam results&#45;&gt;improved student employment prospects//!heart -->
<g id="edge1" class="edge"><title>improved student exam results&#45;&gt;improved student employment prospects//!heart</title>
<path fill="none" stroke="#41ab5d" stroke-width="2" d="M411.337,-83.5C423.982,-83.5 437.662,-83.5 450.627,-83.5"/>
<polygon fill="#41ab5d" stroke="#41ab5d" stroke-width="2" points="450.839,-87.0001 460.839,-83.5 450.839,-80.0001 450.839,-87.0001"/>
</g>
<!-- improved student self&#45;confidence//!heart -->
<g id="node3" class="node"><title>improved student self&#45;confidence//!heart</title>
<polygon fill="#f7fcf5" stroke="#f7fcf5" points="260,-155.5 145,-155.5 145,-87.5 260,-87.5 260,-155.5"/>
<text text-anchor="start" x="172.5" y="-140.3" font-family="Helvetica,sans-Serif" font-size="14.00" fill="#006d2c">improved</text>
<text text-anchor="start" x="179" y="-125.3" font-family="Helvetica,sans-Serif" font-size="14.00" fill="#006d2c">student</text>
<text text-anchor="start" x="153" y="-110.3" font-family="Helvetica,sans-Serif" font-size="14.00" fill="#006d2c">self&#45;confidence</text>
<text text-anchor="start" x="198" y="-95.3" font-family="Helvetica,sans-Serif" font-size="14.00" fill="orange">♥</text>
</g>
<!-- improved student self&#45;confidence//!heart&#45;&gt;improved student exam results -->
<g id="edge2" class="edge"><title>improved student self&#45;confidence//!heart&#45;&gt;improved student exam results</title>
<path fill="none" stroke="#41ab5d" stroke-width="2" d="M260.261,-107.674C273.243,-104.511 287.074,-101.142 300.161,-97.9543"/>
<polygon fill="#41ab5d" stroke="#41ab5d" stroke-width="2" points="301.11,-101.326 309.997,-95.5583 299.453,-94.5245 301.11,-101.326"/>
</g>
<!-- !do students attend workshop -->
<g id="node4" class="node"><title>!do students attend workshop</title>
<polygon fill="#f7fcf5" stroke="#f7fcf5" points="94.5,-146.5 0.5,-146.5 0.5,-96.5 94.5,-96.5 94.5,-146.5"/>
<text text-anchor="start" x="8.5" y="-132.3" font-family="Courier,monospace" font-size="14.00" fill="#006d2c">▶ </text>
<text text-anchor="start" x="28.5" y="-132.3" font-family="Helvetica,sans-Serif" font-size="14.00" fill="#006d2c"> students</text>
<text text-anchor="start" x="27.5" y="-118.3" font-family="Helvetica,sans-Serif" font-size="14.00" fill="#006d2c">attend</text>
<text text-anchor="start" x="17" y="-104.3" font-family="Helvetica,sans-Serif" font-size="14.00" fill="#006d2c">workshop</text>
</g>
<!-- !do students attend workshop&#45;&gt;improved student self&#45;confidence//!heart -->
<g id="edge3" class="edge"><title>!do students attend workshop&#45;&gt;improved student self&#45;confidence//!heart</title>
<path fill="none" stroke="#41ab5d" stroke-width="2" d="M94.8202,-121.5C107.366,-121.5 121.201,-121.5 134.634,-121.5"/>
<polygon fill="#41ab5d" stroke="#41ab5d" stroke-width="2" points="134.799,-125 144.799,-121.5 134.799,-118 134.799,-125"/>
</g>
<!-- improved teacher skills -->
<g id="node5" class="node"><title>improved teacher skills</title>
<polygon fill="#f7fcf5" stroke="#f7fcf5" points="240.5,-73 164.5,-73 164.5,-20 240.5,-20 240.5,-73"/>
<text text-anchor="start" x="172.5" y="-57.8" font-family="Helvetica,sans-Serif" font-size="14.00" fill="#006d2c">improved</text>
<text text-anchor="start" x="178.5" y="-42.8" font-family="Helvetica,sans-Serif" font-size="14.00" fill="#006d2c">teacher</text>
<text text-anchor="start" x="187" y="-27.8" font-family="Helvetica,sans-Serif" font-size="14.00" fill="#006d2c">skills</text>
</g>
<!-- improved teacher skills&#45;&gt;improved student exam results -->
<g id="edge4" class="edge"><title>improved teacher skills&#45;&gt;improved student exam results</title>
<path fill="none" stroke="#41ab5d" stroke-width="2" d="M240.866,-55.3624C258.524,-59.5506 280.038,-64.6532 299.871,-69.3572"/>
<polygon fill="#41ab5d" stroke="#41ab5d" stroke-width="2" points="299.215,-72.7987 309.753,-71.701 300.83,-65.9876 299.215,-72.7987"/>
</g>
<!-- !do teachers attend workshop -->
<g id="node6" class="node"><title>!do teachers attend workshop</title>
<polygon fill="#f7fcf5" stroke="#f7fcf5" points="95,-71.5 0,-71.5 0,-21.5 95,-21.5 95,-71.5"/>
<text text-anchor="start" x="8" y="-57.3" font-family="Courier,monospace" font-size="14.00" fill="#006d2c">▶ </text>
<text text-anchor="start" x="28" y="-57.3" font-family="Helvetica,sans-Serif" font-size="14.00" fill="#006d2c"> teachers</text>
<text text-anchor="start" x="27.5" y="-43.3" font-family="Helvetica,sans-Serif" font-size="14.00" fill="#006d2c">attend</text>
<text text-anchor="start" x="17" y="-29.3" font-family="Helvetica,sans-Serif" font-size="14.00" fill="#006d2c">workshop</text>
</g>
<!-- !do teachers attend workshop&#45;&gt;improved teacher skills -->
<g id="edge5" class="edge"><title>!do teachers attend workshop&#45;&gt;improved teacher skills</title>
<path fill="none" stroke="#41ab5d" stroke-width="2" d="M95.2364,-46.5C113.922,-46.5 135.414,-46.5 154.159,-46.5"/>
<polygon fill="#41ab5d" stroke="#41ab5d" stroke-width="2" points="154.255,-50.0001 164.255,-46.5 154.255,-43.0001 154.255,-50.0001"/>
</g>
</g>
</svg>
