<?xml version="1.0" encoding="UTF-8" standalone="no"?>
<!DOCTYPE svg PUBLIC "-//W3C//DTD SVG 1.1//EN"
 "http://www.w3.org/Graphics/SVG/1.1/DTD/svg11.dtd">
<!-- Generated by graphviz version 2.38.0 (20140413.2041)
 -->
<!-- Title: foo Pages: 1 -->
<svg width="514pt" height="83pt"
 viewBox="0.00 0.00 514.00 83.00" xmlns="http://www.w3.org/2000/svg" xmlns:xlink="http://www.w3.org/1999/xlink">
<g id="graph0" class="graph" transform="scale(1 1) rotate(0) translate(4 79)">
<title>foo</title>
<g id="a_graph0"><a xlink:title=" ">
<polygon fill="white" stroke="none" points="-4,4 -4,-79 510,-79 510,4 -4,4"/>
<text text-anchor="start" x="8" y="-48.6" font-family="arial" font-size="28.00">This theory is valid only for male children</text>
</a>
</g>
<!-- Y -->
<g id="node1" class="node"><title>Y</title>
<polygon fill="#e5f5e0" stroke="#e5f5e0" stroke-width="2" points="280,-36 226,-36 226,-0 280,-0 280,-36"/>
<text text-anchor="start" x="248" y="-14.3" font-family="arial" font-size="14.00">Y</text>
</g>
<!-- Z -->
<g id="node2" class="node"><title>Z</title>
<polygon fill="#e5f5e0" stroke="#e5f5e0" stroke-width="2" points="384,-36 330,-36 330,-0 384,-0 384,-36"/>
<text text-anchor="start" x="352" y="-14.3" font-family="arial" font-size="14.00">Z</text>
</g>
<!-- Y&#45;&gt;Z -->
<g id="edge1" class="edge"><title>Y&#45;&gt;Z</title>
<path fill="none" stroke="#41ab5d" d="M280.003,-18C292.019,-18 306.494,-18 319.574,-18"/>
<polygon fill="#41ab5d" stroke="#41ab5d" points="319.69,-21.5001 329.69,-18 319.69,-14.5001 319.69,-21.5001"/>
</g>
<!-- X -->
<g id="node3" class="node"><title>X</title>
<polygon fill="#e5f5e0" stroke="#e5f5e0" stroke-width="2" points="176,-36 122,-36 122,-0 176,-0 176,-36"/>
<text text-anchor="start" x="144" y="-14.3" font-family="arial" font-size="14.00">X</text>
</g>
<!-- X&#45;&gt;Y -->
<g id="edge2" class="edge"><title>X&#45;&gt;Y</title>
<path fill="none" stroke="#41ab5d" d="M176.003,-18C188.019,-18 202.494,-18 215.574,-18"/>
<polygon fill="#41ab5d" stroke="#41ab5d" points="215.69,-21.5001 225.69,-18 215.69,-14.5001 215.69,-21.5001"/>
</g>
</g>
</svg>
