<?xml version="1.0" encoding="UTF-8" standalone="no"?>
<!DOCTYPE svg PUBLIC "-//W3C//DTD SVG 1.1//EN"
 "http://www.w3.org/Graphics/SVG/1.1/DTD/svg11.dtd">
<!-- Generated by graphviz version 2.38.0 (20140413.2041)
 -->
<!-- Title: foo Pages: 1 -->
<svg width="270pt" height="158pt"
 viewBox="0.00 0.00 270.00 158.00" xmlns="http://www.w3.org/2000/svg" xmlns:xlink="http://www.w3.org/1999/xlink">
<g id="graph0" class="graph" transform="scale(1 1) rotate(0) translate(4 154)">
<title>foo</title>
<g id="a_graph0"><a xlink:title=" ">
<polygon fill="white" stroke="none" points="-4,4 -4,-154 266,-154 266,4 -4,4"/>
</a>
</g>
<!-- Enabling Law on same&#45;sex marriage is passed at Federal level &#160;!noyes -->
<g id="node1" class="node"><title>Enabling Law on same&#45;sex marriage is passed at Federal level &#160;!noyes</title>
<polygon fill="#e5f5e0" stroke="#e5f5e0" stroke-width="2" points="107.5,-150 6.5,-150 6.5,-52 107.5,-52 107.5,-150"/>
<text text-anchor="start" x="14.5" y="-134.8" font-family="arial" font-size="14.00">Enabling Law</text>
<text text-anchor="start" x="16" y="-119.8" font-family="arial" font-size="14.00">on same&#45;sex</text>
<text text-anchor="start" x="29" y="-104.8" font-family="arial" font-size="14.00">marriage</text>
<text text-anchor="start" x="26" y="-89.8" font-family="arial" font-size="14.00">is passed</text>
<text text-anchor="start" x="25" y="-74.8" font-family="arial" font-size="14.00">at Federal</text>
<text text-anchor="start" x="34.5" y="-59.8" font-family="arial" font-size="14.00">level ◨</text>
</g>
<!-- District Law on same&#45;sex marriage is passed !noyes -->
<g id="node2" class="node"><title>District Law on same&#45;sex marriage is passed !noyes</title>
<polygon fill="#e5f5e0" stroke="#e5f5e0" stroke-width="2" points="262,-94 164,-94 164,-26 262,-26 262,-94"/>
<text text-anchor="start" x="176.5" y="-78.8" font-family="arial" font-size="14.00">District Law</text>
<text text-anchor="start" x="172" y="-63.8" font-family="arial" font-size="14.00">on same&#45;sex</text>
<text text-anchor="start" x="178" y="-48.8" font-family="arial" font-size="14.00">marriage is</text>
<text text-anchor="start" x="181.5" y="-33.8" font-family="arial" font-size="14.00">passed ◨</text>
</g>
<!-- Enabling Law on same&#45;sex marriage is passed at Federal level &#160;!noyes&#45;&gt;District Law on same&#45;sex marriage is passed !noyes -->
<g id="edge1" class="edge"><title>Enabling Law on same&#45;sex marriage is passed at Federal level &#160;!noyes&#45;&gt;District Law on same&#45;sex marriage is passed !noyes</title>
<path fill="none" stroke="#41ab5d" d="M107.574,-87.8017C122.361,-83.865 138.699,-79.5152 153.975,-75.4483"/>
<polygon fill="#41ab5d" stroke="#41ab5d" points="155.07,-78.7787 163.833,-72.8237 153.269,-72.0143 155.07,-78.7787"/>
</g>
<!-- Support among legislators !lohi -->
<g id="node3" class="node"><title>Support among legislators !lohi</title>
<polygon fill="#e5f5e0" stroke="#e5f5e0" stroke-width="2" points="114,-38 0,-38 0,-0 114,-0 114,-38"/>
<text text-anchor="start" x="8" y="-22.8" font-family="arial" font-size="14.00">Support among</text>
<text text-anchor="start" x="17" y="-7.8" font-family="arial" font-size="14.00">legislators ◪</text>
</g>
<!-- Support among legislators !lohi&#45;&gt;District Law on same&#45;sex marriage is passed !noyes -->
<g id="edge2" class="edge"><title>Support among legislators !lohi&#45;&gt;District Law on same&#45;sex marriage is passed !noyes</title>
<path fill="none" stroke="#41ab5d" d="M114.033,-33.9179C127.054,-37.3846 140.941,-41.0817 154.043,-44.57"/>
<polygon fill="#41ab5d" stroke="#41ab5d" points="153.318,-47.9988 163.882,-47.1894 155.119,-41.2344 153.318,-47.9988"/>
</g>
</g>
</svg>
