<?xml version="1.0" encoding="UTF-8" standalone="no"?>
<!DOCTYPE svg PUBLIC "-//W3C//DTD SVG 1.1//EN"
 "http://www.w3.org/Graphics/SVG/1.1/DTD/svg11.dtd">
<!-- Generated by graphviz version 2.38.0 (20140413.2041)
 -->
<!-- Title: foo Pages: 1 -->
<svg width="352pt" height="62pt"
 viewBox="0.00 0.00 352.00 61.50" xmlns="http://www.w3.org/2000/svg" xmlns:xlink="http://www.w3.org/1999/xlink">
<g id="graph0" class="graph" transform="scale(1 1) rotate(0) translate(4 57.5)">
<title>foo</title>
<g id="a_graph0"><a xlink:title=" ">
<polygon fill="white" stroke="none" points="-4,4 -4,-57.5 348,-57.5 348,4 -4,4"/>
</a>
</g>
<!-- axsxdf -->
<!-- Support for new law among legislators -->
<g id="node2" class="node"><title>Support for new law among legislators</title>
<polygon fill="#e5f5e0" stroke="#e5f5e0" stroke-width="2" points="344,-38 203,-38 203,-0 344,-0 344,-38"/>
<text text-anchor="start" x="211" y="-22.8" font-family="arial" font-size="14.00">Support for new law</text>
<text text-anchor="start" x="217.5" y="-7.8" font-family="arial" font-size="14.00">among legislators</text>
</g>
<!-- axsxdf&#45;&gt;Support for new law among legislators -->
<g id="edge1" class="edge"><title>axsxdf&#45;&gt;Support for new law among legislators</title>
<path fill="none" stroke="#41ab5d" stroke-width="0" d="M77.2876,-52.4929C89.2352,-51.4111 117.48,-48.6728 141,-45 157.818,-42.3738 175.761,-39.1257 192.813,-35.8256"/>
<polygon fill="#41ab5d" stroke="#41ab5d" stroke-width="0" points="193.594,-39.2391 202.734,-33.8808 192.248,-32.3698 193.594,-39.2391"/>
</g>
<!-- Support for new law among population -->
<g id="node3" class="node"><title>Support for new law among population</title>
<polygon fill="#e5f5e0" stroke="#e5f5e0" stroke-width="2" points="141,-38 0,-38 0,-0 141,-0 141,-38"/>
<text text-anchor="start" x="8" y="-22.8" font-family="arial" font-size="14.00">Support for new law</text>
<text text-anchor="start" x="14" y="-7.8" font-family="arial" font-size="14.00">among population</text>
</g>
<!-- Support for new law among population&#45;&gt;Support for new law among legislators -->
<g id="edge2" class="edge"><title>Support for new law among population&#45;&gt;Support for new law among legislators</title>
<path fill="none" stroke="#41ab5d" d="M141.236,-19C157.762,-19 175.516,-19 192.46,-19"/>
<polygon fill="#41ab5d" stroke="#41ab5d" points="192.887,-22.5001 202.887,-19 192.887,-15.5001 192.887,-22.5001"/>
<text text-anchor="start" x="166" y="-22.8" font-family="Times New Roman,serif" font-size="14.00">⊕</text>
</g>
</g>
</svg>
