<?xml version="1.0" encoding="UTF-8" standalone="no"?>
<!DOCTYPE svg PUBLIC "-//W3C//DTD SVG 1.1//EN"
 "http://www.w3.org/Graphics/SVG/1.1/DTD/svg11.dtd">
<!-- Generated by graphviz version 2.38.0 (20140413.2041)
 -->
<!-- Title: foo Pages: 1 -->
<svg width="988pt" height="187pt"
 viewBox="0.00 0.00 988.00 187.00" xmlns="http://www.w3.org/2000/svg" xmlns:xlink="http://www.w3.org/1999/xlink">
<g id="graph0" class="graph" transform="scale(1 1) rotate(0) translate(4 183)">
<title>foo</title>
<g id="a_graph0"><a xlink:title=" ">
<polygon fill="white" stroke="none" points="-4,4 -4,-183 984,-183 984,4 -4,4"/>
</a>
</g>
<g id="clust1" class="cluster"><title>cluster_Foreachof20teachers</title>
<g id="a_clust1"><a xlink:title=" ">
<path fill="#fcfbfd" stroke="#dadaeb" d="M22,-94C22,-94 617,-94 617,-94 623,-94 629,-100 629,-106 629,-106 629,-159 629,-159 629,-165 623,-171 617,-171 617,-171 22,-171 22,-171 16,-171 10,-165 10,-159 10,-159 10,-106 10,-106 10,-100 16,-94 22,-94"/>
<text text-anchor="start" x="18" y="-155.8" font-family="arial" font-size="14.00">For each of 20 teachers</text>
</a>
</g>
</g>
<!-- ) teaching quality !lohi. &#160;&#160;Teacher: !heart -->
<g id="node1" class="node"><title>) teaching quality !lohi. &#160;&#160;Teacher: !heart</title>
<polygon fill="#e5f5e0" stroke="#e5f5e0" stroke-width="2" points="621,-139 481,-139 481,-103 621,-103 621,-139"/>
<text text-anchor="start" x="489" y="-124.8" font-family="arial" font-size="14.00">) teaching quality ◪.</text>
<text text-anchor="start" x="516" y="-110.8" font-family="arial" font-size="14.00">Teacher: </text>
<text text-anchor="start" x="577" y="-110.8" font-family="arial" font-size="14.00" fill="orange">♥</text>
</g>
<!-- Average teaching quality ((improved)). !noyes &#160;&#160;Ministry: !heart -->
<g id="node2" class="node"><title>Average teaching quality ((improved)). !noyes &#160;&#160;Ministry: !heart</title>
<polygon fill="none" stroke="#e5f5e0" stroke-width="2" stroke-dasharray="5,2" points="980,-164 709,-164 709,-128 980,-128 980,-164"/>
<text text-anchor="start" x="717" y="-149.8" font-family="arial" font-size="14.00">Average teaching quality </text>
<text text-anchor="start" x="875" y="-149.8" font-family="arial" font-size="14.00" fill="green">((improved))</text>
<text text-anchor="start" x="953" y="-149.8" font-family="arial" font-size="14.00">. ◨</text>
<text text-anchor="start" x="812.5" y="-135.8" font-family="arial" font-size="14.00">Ministry: </text>
<text text-anchor="start" x="867.5" y="-135.8" font-family="arial" font-size="14.00" fill="orange">♥</text>
</g>
<!-- ) teaching quality !lohi. &#160;&#160;Teacher: !heart&#45;&gt;Average teaching quality ((improved)). !noyes &#160;&#160;Ministry: !heart -->
<g id="edge1" class="edge"><title>) teaching quality !lohi. &#160;&#160;Teacher: !heart&#45;&gt;Average teaching quality ((improved)). !noyes &#160;&#160;Ministry: !heart</title>
<path fill="none" stroke="#41ab5d" d="M621.081,-126.925C644.548,-128.937 671.721,-131.268 698.844,-133.594"/>
<polygon fill="#41ab5d" stroke="#41ab5d" points="698.565,-137.083 708.828,-134.45 699.163,-130.108 698.565,-137.083"/>
<text text-anchor="start" x="646" y="-136.8" font-family="Times New Roman,serif" font-size="14.00">(Better</text>
</g>
<!-- ((More)) outstanding teaching. !lohi &#160;&#160;Trainer: !heart -->
<g id="node3" class="node"><title>((More)) outstanding teaching. !lohi &#160;&#160;Trainer: !heart</title>
<polygon fill="none" stroke="#e5f5e0" stroke-width="2" stroke-dasharray="5,2" points="954.5,-114 734.5,-114 734.5,-78 954.5,-78 954.5,-114"/>
<text text-anchor="start" x="742.5" y="-99.8" font-family="arial" font-size="14.00" fill="green">((More))</text>
<text text-anchor="start" x="793.5" y="-99.8" font-family="arial" font-size="14.00"> outstanding teaching. ◪</text>
<text text-anchor="start" x="814" y="-85.8" font-family="arial" font-size="14.00">Trainer: </text>
<text text-anchor="start" x="866" y="-85.8" font-family="arial" font-size="14.00" fill="orange">♥</text>
</g>
<!-- ) teaching quality !lohi. &#160;&#160;Teacher: !heart&#45;&gt;((More)) outstanding teaching. !lohi &#160;&#160;Trainer: !heart -->
<g id="edge2" class="edge"><title>) teaching quality !lohi. &#160;&#160;Teacher: !heart&#45;&gt;((More)) outstanding teaching. !lohi &#160;&#160;Trainer: !heart</title>
<path fill="none" stroke="#41ab5d" d="M621.037,-114.274C629.444,-113.489 637.916,-112.714 646,-112 671.26,-109.768 698.348,-107.494 724.118,-105.389"/>
<polygon fill="#41ab5d" stroke="#41ab5d" points="724.62,-108.859 734.303,-104.559 724.052,-101.883 724.62,-108.859"/>
<text text-anchor="start" x="646" y="-115.8" font-family="Times New Roman,serif" font-size="14.00">(Better</text>
</g>
<!-- tr -->
<g id="node4" class="node"><title>tr</title>
<polygon fill="#e5f5e0" stroke="#e5f5e0" stroke-width="2" points="430,-140 303,-140 303,-102 430,-102 430,-140"/>
<text text-anchor="start" x="311" y="-124.8" font-family="arial" font-size="14.00">Teacher receives</text>
<text text-anchor="start" x="336" y="-109.8" font-family="arial" font-size="14.00">training ◨</text>
</g>
<!-- tr&#45;&gt;) teaching quality !lohi. &#160;&#160;Teacher: !heart -->
<g id="edge3" class="edge"><title>tr&#45;&gt;) teaching quality !lohi. &#160;&#160;Teacher: !heart</title>
<path fill="none" stroke="#41ab5d" d="M430.051,-121C443.125,-121 457.073,-121 470.663,-121"/>
<polygon fill="#41ab5d" stroke="#41ab5d" points="470.965,-124.5 480.965,-121 470.965,-117.5 470.965,-124.5"/>
</g>
<!-- Pay increased. &#160;&#160;Teacher: !heart &#160;&#160;Ministry: !frown -->
<g id="node8" class="node"><title>Pay increased. &#160;&#160;Teacher: !heart &#160;&#160;Ministry: !frown</title>
<polygon fill="#e5f5e0" stroke="#e5f5e0" stroke-width="2" points="606,-86 496,-86 496,-36 606,-36 606,-86"/>
<text text-anchor="start" x="504" y="-71.8" font-family="arial" font-size="14.00">Pay increased.</text>
<text text-anchor="start" x="516" y="-57.8" font-family="arial" font-size="14.00">Teacher: </text>
<text text-anchor="start" x="577" y="-57.8" font-family="arial" font-size="14.00" fill="orange">♥</text>
<text text-anchor="start" x="517.5" y="-43.8" font-family="arial" font-size="14.00">Ministry: ☹</text>
</g>
<!-- tr&#45;&gt;Pay increased. &#160;&#160;Teacher: !heart &#160;&#160;Ministry: !frown -->
<g id="edge7" class="edge"><title>tr&#45;&gt;Pay increased. &#160;&#160;Teacher: !heart &#160;&#160;Ministry: !frown</title>
<path fill="none" stroke="#41ab5d" d="M425.495,-101.933C444.869,-95.5636 466.56,-88.4323 486.342,-81.9288"/>
<polygon fill="#41ab5d" stroke="#41ab5d" points="487.474,-85.2408 495.881,-78.7926 485.288,-78.591 487.474,-85.2408"/>
</g>
<!-- Teacher: &#160;!do &#160;&#160;Makes effort to attend course !noyes -->
<g id="node5" class="node"><title>Teacher: &#160;!do &#160;&#160;Makes effort to attend course !noyes</title>
<polygon fill="#e5f5e0" stroke="#e5f5e0" stroke-width="2" points="234,-139 18,-139 18,-103 234,-103 234,-139"/>
<text text-anchor="start" x="86" y="-124.8" font-family="arial" font-size="14.00">Teacher: &#160;</text>
<text text-anchor="start" x="150" y="-124.8" font-family="arial" font-size="14.00" fill="green">▶ </text>
<text text-anchor="start" x="26" y="-110.8" font-family="arial" font-size="14.00">Makes effort to attend course ◨</text>
</g>
<!-- Teacher: &#160;!do &#160;&#160;Makes effort to attend course !noyes&#45;&gt;tr -->
<g id="edge4" class="edge"><title>Teacher: &#160;!do &#160;&#160;Makes effort to attend course !noyes&#45;&gt;tr</title>
<path fill="none" stroke="#41ab5d" d="M234.041,-121C253.893,-121 274.202,-121 292.734,-121"/>
<polygon fill="#41ab5d" stroke="#41ab5d" points="292.833,-124.5 302.833,-121 292.833,-117.5 292.833,-124.5"/>
</g>
<!-- Ministry: !do &#160;&#160;Provides in&#45;service teacher training !noyes -->
<g id="node6" class="node"><title>Ministry: !do &#160;&#160;Provides in&#45;service teacher training !noyes</title>
<polygon fill="#e5f5e0" stroke="#e5f5e0" stroke-width="2" points="252,-86 0,-86 0,-50 252,-50 252,-86"/>
<text text-anchor="start" x="90.5" y="-71.8" font-family="arial" font-size="14.00">Ministry: </text>
<text text-anchor="start" x="145.5" y="-71.8" font-family="arial" font-size="14.00" fill="green">▶ </text>
<text text-anchor="start" x="8" y="-57.8" font-family="arial" font-size="14.00">Provides in&#45;service teacher training ◨</text>
</g>
<!-- Ministry: !do &#160;&#160;Provides in&#45;service teacher training !noyes&#45;&gt;tr -->
<g id="edge5" class="edge"><title>Ministry: !do &#160;&#160;Provides in&#45;service teacher training !noyes&#45;&gt;tr</title>
<path fill="none" stroke="#41ab5d" d="M228.779,-86.0565C236.651,-87.6577 244.463,-89.3132 252,-91 265.364,-93.9911 279.532,-97.4787 293.161,-100.996"/>
<polygon fill="#41ab5d" stroke="#41ab5d" points="292.41,-104.418 302.97,-103.556 294.178,-97.6443 292.41,-104.418"/>
</g>
<!-- Trainer: !do &#160;&#160;Provides pro&#45;bono training &#160;!heart !noyes -->
<g id="node7" class="node"><title>Trainer: !do &#160;&#160;Provides pro&#45;bono training &#160;!heart !noyes</title>
<polygon fill="#e5f5e0" stroke="#e5f5e0" stroke-width="2" points="234,-36 18,-36 18,-0 234,-0 234,-36"/>
<text text-anchor="start" x="92" y="-21.8" font-family="arial" font-size="14.00">Trainer: </text>
<text text-anchor="start" x="144" y="-21.8" font-family="arial" font-size="14.00" fill="green">▶ </text>
<text text-anchor="start" x="26" y="-7.8" font-family="arial" font-size="14.00">Provides pro&#45;bono training &#160;</text>
<text text-anchor="start" x="201" y="-7.8" font-family="arial" font-size="14.00" fill="orange">♥</text>
<text text-anchor="start" x="210" y="-7.8" font-family="arial" font-size="14.00"> ◨</text>
</g>
<!-- Trainer: !do &#160;&#160;Provides pro&#45;bono training &#160;!heart !noyes&#45;&gt;tr -->
<g id="edge6" class="edge"><title>Trainer: !do &#160;&#160;Provides pro&#45;bono training &#160;!heart !noyes&#45;&gt;tr</title>
<path fill="none" stroke="#41ab5d" d="M232.953,-36.009C239.485,-38.0944 245.884,-40.4161 252,-43 282.856,-56.0367 313.933,-78.1657 335.747,-95.5305"/>
<polygon fill="#41ab5d" stroke="#41ab5d" points="333.662,-98.3456 343.635,-101.924 338.07,-92.9076 333.662,-98.3456"/>
</g>
</g>
</svg>
