<?xml version="1.0" encoding="UTF-8" standalone="no"?>
<!DOCTYPE svg PUBLIC "-//W3C//DTD SVG 1.1//EN"
 "http://www.w3.org/Graphics/SVG/1.1/DTD/svg11.dtd">
<!-- Generated by graphviz version 2.38.0 (20140413.2041)
 -->
<!-- Title: foo Pages: 1 -->
<svg width="1021pt" height="187pt"
 viewBox="0.00 0.00 1021.00 187.00" xmlns="http://www.w3.org/2000/svg" xmlns:xlink="http://www.w3.org/1999/xlink">
<g id="graph0" class="graph" transform="scale(1 1) rotate(0) translate(4 183)">
<title>foo</title>
<g id="a_graph0"><a xlink:title=" ">
<polygon fill="white" stroke="none" points="-4,4 -4,-183 1017,-183 1017,4 -4,4"/>
</a>
</g>
<g id="clust1" class="cluster"><title>cluster_Foreachof20teachers</title>
<g id="a_clust1"><a xlink:title=" ">
<path fill="#fcfbfd" stroke="#dadaeb" d="M66,-94C66,-94 691,-94 691,-94 697,-94 703,-100 703,-106 703,-106 703,-159 703,-159 703,-165 697,-171 691,-171 691,-171 66,-171 66,-171 60,-171 54,-165 54,-159 54,-159 54,-106 54,-106 54,-100 60,-94 66,-94"/>
<text text-anchor="start" x="62" y="-155.8" font-family="arial" font-size="14.00">For each of 20 teachers</text>
</a>
</g>
</g>
<!-- Teaching quality ((improved)) !lohi &#160;&#160;Teacher: !heart -->
<g id="node1" class="node"><title>Teaching quality ((improved)) !lohi &#160;&#160;Teacher: !heart</title>
<polygon fill="#e5f5e0" stroke="#e5f5e0" stroke-width="2" points="695,-139 479,-139 479,-103 695,-103 695,-139"/>
<text text-anchor="start" x="487" y="-124.8" font-family="arial" font-size="14.00">Teaching quality </text>
<text text-anchor="start" x="593" y="-124.8" font-family="arial" font-size="14.00" fill="green">((improved))</text>
<text text-anchor="start" x="671" y="-124.8" font-family="arial" font-size="14.00"> ◪</text>
<text text-anchor="start" x="552" y="-110.8" font-family="arial" font-size="14.00">Teacher: </text>
<text text-anchor="start" x="613" y="-110.8" font-family="arial" font-size="14.00" fill="orange">♥</text>
</g>
<!-- Average teaching quality ((improved)) !noyes &#160;&#160;Ministry: !heart -->
<g id="node2" class="node"><title>Average teaching quality ((improved)) !noyes &#160;&#160;Ministry: !heart</title>
<polygon fill="none" stroke="#e5f5e0" stroke-width="2" stroke-dasharray="5,2" points="1013,-164 745,-164 745,-128 1013,-128 1013,-164"/>
<text text-anchor="start" x="753" y="-149.8" font-family="arial" font-size="14.00">Average teaching quality </text>
<text text-anchor="start" x="911" y="-149.8" font-family="arial" font-size="14.00" fill="green">((improved))</text>
<text text-anchor="start" x="989" y="-149.8" font-family="arial" font-size="14.00"> ◨</text>
<text text-anchor="start" x="847" y="-135.8" font-family="arial" font-size="14.00">Ministry: </text>
<text text-anchor="start" x="902" y="-135.8" font-family="arial" font-size="14.00" fill="orange">♥</text>
</g>
<!-- Teaching quality ((improved)) !lohi &#160;&#160;Teacher: !heart&#45;&gt;Average teaching quality ((improved)) !noyes &#160;&#160;Ministry: !heart -->
<g id="edge1" class="edge"><title>Teaching quality ((improved)) !lohi &#160;&#160;Teacher: !heart&#45;&gt;Average teaching quality ((improved)) !noyes &#160;&#160;Ministry: !heart</title>
<path fill="none" stroke="#41ab5d" stroke-dasharray="5,2" d="M695.161,-130.238C708.019,-131.346 721.303,-132.492 734.57,-133.635"/>
<polygon fill="#41ab5d" stroke="#41ab5d" points="734.44,-137.137 744.704,-134.509 735.042,-130.163 734.44,-137.137"/>
</g>
<!-- ((More)) outstanding teachers !lohi &#160;&#160;Trainer: !heart -->
<g id="node3" class="node"><title>((More)) outstanding teachers !lohi &#160;&#160;Trainer: !heart</title>
<polygon fill="none" stroke="#e5f5e0" stroke-width="2" stroke-dasharray="5,2" points="988,-114 770,-114 770,-78 988,-78 988,-114"/>
<text text-anchor="start" x="778" y="-99.8" font-family="arial" font-size="14.00" fill="green">((More))</text>
<text text-anchor="start" x="829" y="-99.8" font-family="arial" font-size="14.00"> outstanding teachers ◪</text>
<text text-anchor="start" x="848.5" y="-85.8" font-family="arial" font-size="14.00">Trainer: </text>
<text text-anchor="start" x="900.5" y="-85.8" font-family="arial" font-size="14.00" fill="orange">♥</text>
</g>
<!-- Teaching quality ((improved)) !lohi &#160;&#160;Teacher: !heart&#45;&gt;((More)) outstanding teachers !lohi &#160;&#160;Trainer: !heart -->
<g id="edge2" class="edge"><title>Teaching quality ((improved)) !lohi &#160;&#160;Teacher: !heart&#45;&gt;((More)) outstanding teachers !lohi &#160;&#160;Trainer: !heart</title>
<path fill="none" stroke="#41ab5d" stroke-dasharray="5,2" d="M695.161,-111.762C716.194,-109.949 738.369,-108.037 759.74,-106.195"/>
<polygon fill="#41ab5d" stroke="#41ab5d" points="760.164,-109.671 769.826,-105.325 759.563,-102.697 760.164,-109.671"/>
</g>
<!-- tr -->
<g id="node4" class="node"><title>tr</title>
<polygon fill="#e5f5e0" stroke="#e5f5e0" stroke-width="2" points="429,-140 302,-140 302,-102 429,-102 429,-140"/>
<text text-anchor="start" x="310" y="-124.8" font-family="arial" font-size="14.00">Teacher receives</text>
<text text-anchor="start" x="335" y="-109.8" font-family="arial" font-size="14.00">training ◨</text>
</g>
<!-- tr&#45;&gt;Teaching quality ((improved)) !lohi &#160;&#160;Teacher: !heart -->
<g id="edge3" class="edge"><title>tr&#45;&gt;Teaching quality ((improved)) !lohi &#160;&#160;Teacher: !heart</title>
<path fill="none" stroke="#41ab5d" d="M429.106,-121C441.526,-121 454.941,-121 468.514,-121"/>
<polygon fill="#41ab5d" stroke="#41ab5d" points="468.911,-124.5 478.911,-121 468.911,-117.5 468.911,-124.5"/>
</g>
<!-- Pay increased &#160;&#160;Teacher: !heart &#160;&#160;Ministry: !frown -->
<g id="node8" class="node"><title>Pay increased &#160;&#160;Teacher: !heart &#160;&#160;Ministry: !frown</title>
<polygon fill="#e5f5e0" stroke="#e5f5e0" stroke-width="2" points="640.5,-86 533.5,-86 533.5,-36 640.5,-36 640.5,-86"/>
<text text-anchor="start" x="541.5" y="-71.8" font-family="arial" font-size="14.00">Pay increased</text>
<text text-anchor="start" x="552" y="-57.8" font-family="arial" font-size="14.00">Teacher: </text>
<text text-anchor="start" x="613" y="-57.8" font-family="arial" font-size="14.00" fill="orange">♥</text>
<text text-anchor="start" x="553.5" y="-43.8" font-family="arial" font-size="14.00">Ministry: ☹</text>
</g>
<!-- tr&#45;&gt;Pay increased &#160;&#160;Teacher: !heart &#160;&#160;Ministry: !frown -->
<g id="edge7" class="edge"><title>tr&#45;&gt;Pay increased &#160;&#160;Teacher: !heart &#160;&#160;Ministry: !frown</title>
<path fill="none" stroke="#41ab5d" d="M429.106,-103.887C458.706,-95.7956 493.955,-86.1605 523.536,-78.0743"/>
<polygon fill="#41ab5d" stroke="#41ab5d" points="524.612,-81.4089 533.335,-75.3959 522.766,-74.6566 524.612,-81.4089"/>
</g>
<!-- Teacher: &#160;!do &#160;&#160;Attends course !noyes -->
<g id="node5" class="node"><title>Teacher: &#160;!do &#160;&#160;Attends course !noyes</title>
<polygon fill="#e5f5e0" stroke="#e5f5e0" stroke-width="2" points="190,-139 62,-139 62,-103 190,-103 190,-139"/>
<text text-anchor="start" x="86" y="-124.8" font-family="arial" font-size="14.00">Teacher: &#160;</text>
<text text-anchor="start" x="150" y="-124.8" font-family="arial" font-size="14.00" fill="green">▶ </text>
<text text-anchor="start" x="70" y="-110.8" font-family="arial" font-size="14.00">Attends course ◨</text>
</g>
<!-- Teacher: &#160;!do &#160;&#160;Attends course !noyes&#45;&gt;tr -->
<g id="edge4" class="edge"><title>Teacher: &#160;!do &#160;&#160;Attends course !noyes&#45;&gt;tr</title>
<path fill="none" stroke="#41ab5d" d="M190.022,-121C221.147,-121 258.877,-121 291.278,-121"/>
<polygon fill="#41ab5d" stroke="#41ab5d" points="291.596,-124.5 301.596,-121 291.596,-117.5 291.596,-124.5"/>
</g>
<!-- Ministry: !do &#160;&#160;Provides in&#45;service teacher training !noyes -->
<g id="node6" class="node"><title>Ministry: !do &#160;&#160;Provides in&#45;service teacher training !noyes</title>
<polygon fill="#e5f5e0" stroke="#e5f5e0" stroke-width="2" points="252,-86 0,-86 0,-50 252,-50 252,-86"/>
<text text-anchor="start" x="90.5" y="-71.8" font-family="arial" font-size="14.00">Ministry: </text>
<text text-anchor="start" x="145.5" y="-71.8" font-family="arial" font-size="14.00" fill="green">▶ </text>
<text text-anchor="start" x="8" y="-57.8" font-family="arial" font-size="14.00">Provides in&#45;service teacher training ◨</text>
</g>
<!-- Ministry: !do &#160;&#160;Provides in&#45;service teacher training !noyes&#45;&gt;tr -->
<g id="edge5" class="edge"><title>Ministry: !do &#160;&#160;Provides in&#45;service teacher training !noyes&#45;&gt;tr</title>
<path fill="none" stroke="#41ab5d" d="M228.784,-86.0381C236.654,-87.6435 244.465,-89.3049 252,-91 264.965,-93.9167 278.69,-97.3138 291.93,-100.752"/>
<polygon fill="#41ab5d" stroke="#41ab5d" points="291.379,-104.226 301.94,-103.382 293.158,-97.4559 291.379,-104.226"/>
</g>
<!-- Trainer: !do &#160;&#160;Provides pro&#45;bono training !noyes !heart -->
<g id="node7" class="node"><title>Trainer: !do &#160;&#160;Provides pro&#45;bono training !noyes !heart</title>
<polygon fill="#e5f5e0" stroke="#e5f5e0" stroke-width="2" points="231.5,-36 20.5,-36 20.5,-0 231.5,-0 231.5,-36"/>
<text text-anchor="start" x="92" y="-21.8" font-family="arial" font-size="14.00">Trainer: </text>
<text text-anchor="start" x="144" y="-21.8" font-family="arial" font-size="14.00" fill="green">▶ </text>
<text text-anchor="start" x="28.5" y="-7.8" font-family="arial" font-size="14.00">Provides pro&#45;bono training ◨ </text>
<text text-anchor="start" x="214.5" y="-7.8" font-family="arial" font-size="14.00" fill="orange">♥</text>
</g>
<!-- Trainer: !do &#160;&#160;Provides pro&#45;bono training !noyes !heart&#45;&gt;tr -->
<g id="edge6" class="edge"><title>Trainer: !do &#160;&#160;Provides pro&#45;bono training !noyes !heart&#45;&gt;tr</title>
<path fill="none" stroke="#41ab5d" d="M231.658,-35.5641C238.641,-37.7624 245.482,-40.2303 252,-43 282.645,-56.0222 313.442,-78.1526 335.047,-95.5215"/>
<polygon fill="#41ab5d" stroke="#41ab5d" points="332.902,-98.2894 342.857,-101.916 337.337,-92.8732 332.902,-98.2894"/>
</g>
</g>
</svg>
