<?xml version="1.0" encoding="UTF-8" standalone="no"?>
<!DOCTYPE svg PUBLIC "-//W3C//DTD SVG 1.1//EN"
 "http://www.w3.org/Graphics/SVG/1.1/DTD/svg11.dtd">
<!-- Generated by graphviz version 2.38.0 (20140413.2041)
 -->
<!-- Title: foo Pages: 1 -->
<svg width="337pt" height="356pt"
 viewBox="0.00 0.00 337.00 356.00" xmlns="http://www.w3.org/2000/svg" xmlns:xlink="http://www.w3.org/1999/xlink">
<g id="graph0" class="graph" transform="scale(1 1) rotate(0) translate(4 352)">
<title>foo</title>
<g id="a_graph0"><a xlink:title=" ">
<polygon fill="#c7e9c0" stroke="none" points="-4,4 -4,-352 333,-352 333,4 -4,4"/>
<text text-anchor="start" x="126.5" y="-7.2" font-family="tahoma" font-size="11.00" fill="#238b45">Try this instead</text>
</a>
</g>
<g id="clust1" class="cluster"><title>cluster_Activitiesforteachers</title>
<g id="a_clust1"><a xlink:title=" ">
<path fill="#ffffff" fill-opacity="0.313725" stroke="#ffffff" stroke-opacity="0.313725" d="M26,-196C26,-196 137,-196 137,-196 143,-196 149,-202 149,-208 149,-208 149,-328 149,-328 149,-334 143,-340 137,-340 137,-340 26,-340 26,-340 20,-340 14,-334 14,-328 14,-328 14,-208 14,-208 14,-202 20,-196 26,-196"/>
<text text-anchor="start" x="22" y="-324.8" font-family="Helvetica,sans-Serif" font-size="14.00">Activities for</text>
<text text-anchor="start" x="33.5" y="-309.8" font-family="Helvetica,sans-Serif" font-size="14.00">teachers</text>
</a>
</g>
</g>
<g id="clust2" class="cluster"><title>cluster_Activitiesforstudents</title>
<g id="a_clust2"><a xlink:title=" ">
<path fill="#ffffff" fill-opacity="0.313725" stroke="#ffffff" stroke-opacity="0.313725" d="M20,-28C20,-28 143,-28 143,-28 149,-28 155,-34 155,-40 155,-40 155,-176 155,-176 155,-182 149,-188 143,-188 143,-188 20,-188 20,-188 14,-188 8,-182 8,-176 8,-176 8,-40 8,-40 8,-34 14,-28 20,-28"/>
<text text-anchor="start" x="16" y="-172.8" font-family="Helvetica,sans-Serif" font-size="14.00">Activities for</text>
<text text-anchor="start" x="27.5" y="-157.8" font-family="Helvetica,sans-Serif" font-size="14.00">students</text>
</a>
</g>
</g>
<!-- Teachers attend training -->
<g id="node1" class="node"><title>Teachers attend training</title>
<polygon fill="#f7fcf5" stroke="#f7fcf5" points="141,-294 22,-294 22,-256 141,-256 141,-294"/>
<text text-anchor="start" x="30" y="-278.8" font-family="Helvetica,sans-Serif" font-size="14.00" fill="#006d2c">Teachers attend</text>
<text text-anchor="start" x="58.5" y="-263.8" font-family="Helvetica,sans-Serif" font-size="14.00" fill="#006d2c">training</text>
</g>
<!-- Student&#45;teacher interaction is more solution&#45;oriented -->
<g id="node2" class="node"><title>Student&#45;teacher interaction is more solution&#45;oriented</title>
<polygon fill="#f7fcf5" stroke="#f7fcf5" points="329,-199.5 197,-199.5 197,-146.5 329,-146.5 329,-199.5"/>
<text text-anchor="start" x="212.5" y="-184.3" font-family="Helvetica,sans-Serif" font-size="14.00" fill="#006d2c">Student&#45;teacher</text>
<text text-anchor="start" x="205" y="-169.3" font-family="Helvetica,sans-Serif" font-size="14.00" fill="#006d2c">interaction is more</text>
<text text-anchor="start" x="210" y="-154.3" font-family="Helvetica,sans-Serif" font-size="14.00" fill="#006d2c">solution&#45;oriented</text>
</g>
<!-- Teachers attend training&#45;&gt;Student&#45;teacher interaction is more solution&#45;oriented -->
<g id="edge1" class="edge"><title>Teachers attend training&#45;&gt;Student&#45;teacher interaction is more solution&#45;oriented</title>
<path fill="none" stroke="#41ab5d" stroke-width="2" d="M140.116,-255.991C145.228,-253.81 150.258,-251.474 155,-249 178.155,-236.917 202.026,-220.418 221.33,-205.879"/>
<polygon fill="#41ab5d" stroke="#41ab5d" stroke-width="2" points="223.484,-208.638 229.308,-199.787 219.236,-203.075 223.484,-208.638"/>
</g>
<!-- Teachers attend workshops -->
<g id="node3" class="node"><title>Teachers attend workshops</title>
<polygon fill="#f7fcf5" stroke="#f7fcf5" points="141,-242 22,-242 22,-204 141,-204 141,-242"/>
<text text-anchor="start" x="30" y="-226.8" font-family="Helvetica,sans-Serif" font-size="14.00" fill="#006d2c">Teachers attend</text>
<text text-anchor="start" x="47" y="-211.8" font-family="Helvetica,sans-Serif" font-size="14.00" fill="#006d2c">workshops</text>
</g>
<!-- Teachers attend workshops&#45;&gt;Student&#45;teacher interaction is more solution&#45;oriented -->
<g id="edge2" class="edge"><title>Teachers attend workshops&#45;&gt;Student&#45;teacher interaction is more solution&#45;oriented</title>
<path fill="none" stroke="#41ab5d" stroke-width="2" d="M141.275,-206.628C155.869,-202.563 171.708,-198.151 186.965,-193.901"/>
<polygon fill="#41ab5d" stroke="#41ab5d" stroke-width="2" points="188.193,-197.192 196.887,-191.137 186.315,-190.449 188.193,-197.192"/>
</g>
<!-- Students attend workshops -->
<g id="node4" class="node"><title>Students attend workshops</title>
<polygon fill="#f7fcf5" stroke="#f7fcf5" points="139.5,-142 23.5,-142 23.5,-104 139.5,-104 139.5,-142"/>
<text text-anchor="start" x="31.5" y="-126.8" font-family="Helvetica,sans-Serif" font-size="14.00" fill="#006d2c">Students attend</text>
<text text-anchor="start" x="47" y="-111.8" font-family="Helvetica,sans-Serif" font-size="14.00" fill="#006d2c">workshops</text>
</g>
<!-- Students attend workshops&#45;&gt;Student&#45;teacher interaction is more solution&#45;oriented -->
<g id="edge3" class="edge"><title>Students attend workshops&#45;&gt;Student&#45;teacher interaction is more solution&#45;oriented</title>
<path fill="none" stroke="#41ab5d" stroke-width="2" d="M139.788,-138.958C154.828,-143.147 171.272,-147.728 187.085,-152.132"/>
<polygon fill="#41ab5d" stroke="#41ab5d" stroke-width="2" points="186.258,-155.535 196.831,-154.847 188.136,-148.792 186.258,-155.535"/>
</g>
<!-- Students take part in discussion on social media -->
<g id="node5" class="node"><title>Students take part in discussion on social media</title>
<polygon fill="#f7fcf5" stroke="#f7fcf5" points="147,-89.5 16,-89.5 16,-36.5 147,-36.5 147,-89.5"/>
<text text-anchor="start" x="24" y="-74.3" font-family="Helvetica,sans-Serif" font-size="14.00" fill="#006d2c">Students take part</text>
<text text-anchor="start" x="30.5" y="-59.3" font-family="Helvetica,sans-Serif" font-size="14.00" fill="#006d2c">in discussion on</text>
<text text-anchor="start" x="41.5" y="-44.3" font-family="Helvetica,sans-Serif" font-size="14.00" fill="#006d2c">social media</text>
</g>
<!-- Students take part in discussion on social media&#45;&gt;Student&#45;teacher interaction is more solution&#45;oriented -->
<g id="edge4" class="edge"><title>Students take part in discussion on social media&#45;&gt;Student&#45;teacher interaction is more solution&#45;oriented</title>
<path fill="none" stroke="#41ab5d" stroke-width="2" d="M141.524,-89.5851C146.136,-91.9935 150.677,-94.4783 155,-97 177.117,-109.901 200.434,-126.119 219.636,-140.257"/>
<polygon fill="#41ab5d" stroke="#41ab5d" stroke-width="2" points="217.759,-143.223 227.873,-146.38 221.935,-137.605 217.759,-143.223"/>
</g>
</g>
</svg>
