<?xml version="1.0" encoding="UTF-8" standalone="no"?>
<!DOCTYPE svg PUBLIC "-//W3C//DTD SVG 1.1//EN"
 "http://www.w3.org/Graphics/SVG/1.1/DTD/svg11.dtd">
<!-- Generated by graphviz version 2.38.0 (20140413.2041)
 -->
<!-- Title: foo Pages: 1 -->
<svg width="424pt" height="148pt"
 viewBox="0.00 0.00 424.00 148.00" xmlns="http://www.w3.org/2000/svg" xmlns:xlink="http://www.w3.org/1999/xlink">
<g id="graph0" class="graph" transform="scale(1 1) rotate(0) translate(4 144)">
<title>foo</title>
<g id="a_graph0"><a xlink:title=" ">
<polygon fill="#c7e9c0" stroke="none" points="-4,4 -4,-144 420,-144 420,4 -4,4"/>
<text text-anchor="start" x="170" y="-7.2" font-family="tahoma" font-size="11.00" fill="#238b45">Try this instead</text>
</a>
</g>
<!-- Teachers have skills in North Region -->
<g id="node1" class="node"><title>Teachers have skills in North Region</title>
<polygon fill="#f7fcf5" stroke="#f7fcf5" points="263,-73 153,-73 153,-20 263,-20 263,-73"/>
<text text-anchor="start" x="161" y="-57.8" font-family="Helvetica,sans-Serif" font-size="14.00" fill="#006d2c">Teachers have</text>
<text text-anchor="start" x="166.5" y="-42.8" font-family="Helvetica,sans-Serif" font-size="14.00" fill="#006d2c">skills in North</text>
<text text-anchor="start" x="185" y="-27.8" font-family="Helvetica,sans-Serif" font-size="14.00" fill="#006d2c">Region</text>
</g>
<!-- Teachers in whole country have skills -->
<g id="node2" class="node"><title>Teachers in whole country have skills</title>
<polygon fill="#f7fcf5" stroke="#f7fcf5" points="416,-106 313,-106 313,-53 416,-53 416,-106"/>
<text text-anchor="start" x="327" y="-90.8" font-family="Helvetica,sans-Serif" font-size="14.00" fill="#006d2c">Teachers in</text>
<text text-anchor="start" x="321" y="-75.8" font-family="Helvetica,sans-Serif" font-size="14.00" fill="#006d2c">whole country</text>
<text text-anchor="start" x="332" y="-60.8" font-family="Helvetica,sans-Serif" font-size="14.00" fill="#006d2c">have skills</text>
</g>
<!-- Teachers have skills in North Region&#45;&gt;Teachers in whole country have skills -->
<g id="edge1" class="edge"><title>Teachers have skills in North Region&#45;&gt;Teachers in whole country have skills</title>
<path fill="none" stroke="#41ab5d" stroke-width="2" stroke-dasharray="1,5" d="M263.037,-58.0418C275.934,-60.7967 289.784,-63.7548 302.953,-66.5677"/>
<polygon fill="#41ab5d" stroke="#41ab5d" stroke-width="2" points="302.354,-70.0185 312.864,-68.6846 303.816,-63.1729 302.354,-70.0185"/>
</g>
<!-- Workshops delivered in North Region -->
<g id="node3" class="node"><title>Workshops delivered in North Region</title>
<polygon fill="#f7fcf5" stroke="#f7fcf5" points="101.5,-73 1.5,-73 1.5,-20 101.5,-20 101.5,-73"/>
<text text-anchor="start" x="15" y="-57.8" font-family="Helvetica,sans-Serif" font-size="14.00" fill="#006d2c">Workshops</text>
<text text-anchor="start" x="15" y="-42.8" font-family="Helvetica,sans-Serif" font-size="14.00" fill="#006d2c">delivered in</text>
<text text-anchor="start" x="9.5" y="-27.8" font-family="Helvetica,sans-Serif" font-size="14.00" fill="#006d2c">North Region</text>
</g>
<!-- Workshops delivered in North Region&#45;&gt;Teachers have skills in North Region -->
<g id="edge2" class="edge"><title>Workshops delivered in North Region&#45;&gt;Teachers have skills in North Region</title>
<path fill="none" stroke="#41ab5d" stroke-width="2" d="M101.81,-46.5C114.758,-46.5 128.917,-46.5 142.532,-46.5"/>
<polygon fill="#41ab5d" stroke="#41ab5d" stroke-width="2" points="142.807,-50.0001 152.807,-46.5 142.807,-43.0001 142.807,-50.0001"/>
</g>
<!-- Teachers have skills in South Region -->
<g id="node4" class="node"><title>Teachers have skills in South Region</title>
<polygon fill="#f7fcf5" stroke="#f7fcf5" points="263,-140 153,-140 153,-87 263,-87 263,-140"/>
<text text-anchor="start" x="161" y="-124.8" font-family="Helvetica,sans-Serif" font-size="14.00" fill="#006d2c">Teachers have</text>
<text text-anchor="start" x="165" y="-109.8" font-family="Helvetica,sans-Serif" font-size="14.00" fill="#006d2c">skills in South</text>
<text text-anchor="start" x="185" y="-94.8" font-family="Helvetica,sans-Serif" font-size="14.00" fill="#006d2c">Region</text>
</g>
<!-- Teachers have skills in South Region&#45;&gt;Teachers in whole country have skills -->
<g id="edge3" class="edge"><title>Teachers have skills in South Region&#45;&gt;Teachers in whole country have skills</title>
<path fill="none" stroke="#41ab5d" stroke-width="2" stroke-dasharray="1,5" d="M263.037,-101.608C275.934,-98.7701 289.784,-95.7223 302.953,-92.8242"/>
<polygon fill="#41ab5d" stroke="#41ab5d" stroke-width="2" points="303.85,-96.2107 312.864,-90.6432 302.346,-89.3743 303.85,-96.2107"/>
</g>
<!-- Workshops delivered in South Region -->
<g id="node5" class="node"><title>Workshops delivered in South Region</title>
<polygon fill="#f7fcf5" stroke="#f7fcf5" points="103,-140 0,-140 0,-87 103,-87 103,-140"/>
<text text-anchor="start" x="15" y="-124.8" font-family="Helvetica,sans-Serif" font-size="14.00" fill="#006d2c">Workshops</text>
<text text-anchor="start" x="15" y="-109.8" font-family="Helvetica,sans-Serif" font-size="14.00" fill="#006d2c">delivered in</text>
<text text-anchor="start" x="8" y="-94.8" font-family="Helvetica,sans-Serif" font-size="14.00" fill="#006d2c">South Region</text>
</g>
<!-- Workshops delivered in South Region&#45;&gt;Teachers have skills in South Region -->
<g id="edge4" class="edge"><title>Workshops delivered in South Region&#45;&gt;Teachers have skills in South Region</title>
<path fill="none" stroke="#41ab5d" stroke-width="2" d="M103.089,-113.5C115.782,-113.5 129.571,-113.5 142.829,-113.5"/>
<polygon fill="#41ab5d" stroke="#41ab5d" stroke-width="2" points="142.838,-117 152.838,-113.5 142.838,-110 142.838,-117"/>
</g>
</g>
</svg>
