<?xml version="1.0" encoding="UTF-8" standalone="no"?>
<!DOCTYPE svg PUBLIC "-//W3C//DTD SVG 1.1//EN"
 "http://www.w3.org/Graphics/SVG/1.1/DTD/svg11.dtd">
<!-- Generated by graphviz version 2.38.0 (20140413.2041)
 -->
<!-- Title: foo Pages: 1 -->
<svg width="366pt" height="91pt"
 viewBox="0.00 0.00 366.00 91.00" xmlns="http://www.w3.org/2000/svg" xmlns:xlink="http://www.w3.org/1999/xlink">
<g id="graph0" class="graph" transform="scale(1 1) rotate(0) translate(4 87)">
<title>foo</title>
<g id="a_graph0"><a xlink:title=" ">
<polygon fill="white" stroke="none" points="-4,4 -4,-87 362,-87 362,4 -4,4"/>
</a>
</g>
<!-- Teaching quality -->
<g id="node1" class="node"><title>Teaching quality</title>
<polygon fill="#e5f5e0" stroke="#e5f5e0" stroke-width="2" points="211,-60.5 136,-60.5 136,-22.5 211,-22.5 211,-60.5"/>
<text text-anchor="start" x="144" y="-45.3" font-family="arial" font-size="14.00">Teaching</text>
<text text-anchor="start" x="153.5" y="-30.3" font-family="arial" font-size="14.00">quality</text>
</g>
<!-- Student achievement &#160;(I value this) -->
<g id="node2" class="node"><title>Student achievement &#160;(I value this)</title>
<polygon fill="#e5f5e0" stroke="#e5f5e0" stroke-width="2" points="358,-75.5 261,-75.5 261,-7.5 358,-7.5 358,-75.5"/>
<text text-anchor="start" x="285" y="-60.3" font-family="arial" font-size="14.00">Student</text>
<text text-anchor="start" x="269" y="-45.3" font-family="arial" font-size="14.00">achievement</text>
<text text-anchor="start" x="286.5" y="-30.3" font-family="arial" font-size="14.00">(I value</text>
<text text-anchor="start" x="296" y="-15.3" font-family="arial" font-size="14.00">this)</text>
</g>
<!-- Teaching quality&#45;&gt;Student achievement &#160;(I value this) -->
<g id="edge1" class="edge"><title>Teaching quality&#45;&gt;Student achievement &#160;(I value this)</title>
<path fill="none" stroke="#41ab5d" d="M211.116,-41.5C223.343,-41.5 237.282,-41.5 250.717,-41.5"/>
<polygon fill="#41ab5d" stroke="#41ab5d" points="250.856,-45.0001 260.856,-41.5 250.856,-38.0001 250.856,-45.0001"/>
</g>
<!-- Quality of teacher training (I can control this) -->
<g id="node3" class="node"><title>Quality of teacher training (I can control this)</title>
<polygon fill="#e5f5e0" stroke="#e5f5e0" stroke-width="2" points="86,-83 0,-83 0,-0 86,-0 86,-83"/>
<text text-anchor="start" x="21.5" y="-67.8" font-family="arial" font-size="14.00">Quality</text>
<text text-anchor="start" x="11" y="-52.8" font-family="arial" font-size="14.00">of teacher</text>
<text text-anchor="start" x="14" y="-37.8" font-family="arial" font-size="14.00">training (I</text>
<text text-anchor="start" x="8" y="-22.8" font-family="arial" font-size="14.00">can control</text>
<text text-anchor="start" x="29.5" y="-7.8" font-family="arial" font-size="14.00">this)</text>
</g>
<!-- Quality of teacher training (I can control this)&#45;&gt;Teaching quality -->
<g id="edge2" class="edge"><title>Quality of teacher training (I can control this)&#45;&gt;Teaching quality</title>
<path fill="none" stroke="#41ab5d" d="M86.0757,-41.5C98.782,-41.5 112.807,-41.5 125.796,-41.5"/>
<polygon fill="#41ab5d" stroke="#41ab5d" points="125.946,-45.0001 135.946,-41.5 125.946,-38.0001 125.946,-45.0001"/>
</g>
</g>
</svg>
