<?xml version="1.0" encoding="UTF-8" standalone="no"?>
<!DOCTYPE svg PUBLIC "-//W3C//DTD SVG 1.1//EN"
 "http://www.w3.org/Graphics/SVG/1.1/DTD/svg11.dtd">
<!-- Generated by graphviz version 2.38.0 (20140413.2041)
 -->
<!-- Title: foo Pages: 1 -->
<svg width="939pt" height="187pt"
 viewBox="0.00 0.00 939.00 187.00" xmlns="http://www.w3.org/2000/svg" xmlns:xlink="http://www.w3.org/1999/xlink">
<g id="graph0" class="graph" transform="scale(1 1) rotate(0) translate(4 183)">
<title>foo</title>
<g id="a_graph0"><a xlink:title=" ">
<polygon fill="white" stroke="none" points="-4,4 -4,-183 935,-183 935,4 -4,4"/>
</a>
</g>
<g id="clust1" class="cluster"><title>cluster_Foreachof20teachers</title>
<g id="a_clust1"><a xlink:title=" ">
<path fill="#fcfbfd" stroke="#dadaeb" d="M22,-94C22,-94 625,-94 625,-94 631,-94 637,-100 637,-106 637,-106 637,-159 637,-159 637,-165 631,-171 625,-171 625,-171 22,-171 22,-171 16,-171 10,-165 10,-159 10,-159 10,-106 10,-106 10,-100 16,-94 22,-94"/>
<text text-anchor="start" x="18" y="-155.8" font-family="arial" font-size="14.00">For each of 20 teachers</text>
</a>
</g>
</g>
<!-- Better teaching. &#160;&#160;Teacher: !smile -->
<g id="node1" class="node"><title>Better teaching. &#160;&#160;Teacher: !smile</title>
<polygon fill="#e5f5e0" stroke="#e5f5e0" stroke-width="2" points="629,-140 513,-140 513,-102 629,-102 629,-140"/>
<text text-anchor="start" x="521" y="-124.8" font-family="arial" font-size="14.00">Better teaching.</text>
<text text-anchor="start" x="536" y="-109.8" font-family="arial" font-size="14.00">Teacher: 🙂</text>
</g>
<!-- Average teaching standard improved. &#160;&#160;Ministry: !smile -->
<g id="node2" class="node"><title>Average teaching standard improved. &#160;&#160;Ministry: !smile</title>
<polygon fill="none" stroke="#e5f5e0" stroke-width="2" stroke-dasharray="5,2" points="931,-166 679,-166 679,-128 931,-128 931,-166"/>
<text text-anchor="start" x="687" y="-150.8" font-family="arial" font-size="14.00">Average teaching standard improved.</text>
<text text-anchor="start" x="772" y="-135.8" font-family="arial" font-size="14.00">Ministry: 🙂</text>
</g>
<!-- Better teaching. &#160;&#160;Teacher: !smile&#45;&gt;Average teaching standard improved. &#160;&#160;Ministry: !smile -->
<g id="edge1" class="edge"><title>Better teaching. &#160;&#160;Teacher: !smile&#45;&gt;Average teaching standard improved. &#160;&#160;Ministry: !smile</title>
<path fill="none" stroke="#41ab5d" stroke-dasharray="5,2" d="M629.051,-127.394C641.358,-128.773 654.872,-130.287 668.764,-131.844"/>
<polygon fill="#41ab5d" stroke="#41ab5d" points="668.607,-135.348 678.935,-132.984 669.387,-128.392 668.607,-135.348"/>
</g>
<!-- More outstanding teaching. &#160;&#160;Trainer: !smile -->
<g id="node3" class="node"><title>More outstanding teaching. &#160;&#160;Trainer: !smile</title>
<polygon fill="none" stroke="#e5f5e0" stroke-width="2" stroke-dasharray="5,2" points="898,-114 712,-114 712,-76 898,-76 898,-114"/>
<text text-anchor="start" x="720" y="-98.8" font-family="arial" font-size="14.00">More outstanding teaching.</text>
<text text-anchor="start" x="773.5" y="-83.8" font-family="arial" font-size="14.00">Trainer: 🙂</text>
</g>
<!-- Better teaching. &#160;&#160;Teacher: !smile&#45;&gt;More outstanding teaching. &#160;&#160;Trainer: !smile -->
<g id="edge2" class="edge"><title>Better teaching. &#160;&#160;Teacher: !smile&#45;&gt;More outstanding teaching. &#160;&#160;Trainer: !smile</title>
<path fill="none" stroke="#41ab5d" stroke-dasharray="5,2" d="M629.051,-114.606C650.984,-112.148 676.746,-109.261 701.657,-106.47"/>
<polygon fill="#41ab5d" stroke="#41ab5d" points="702.344,-109.914 711.892,-105.322 701.565,-102.958 702.344,-109.914"/>
</g>
<!-- tr -->
<g id="node4" class="node"><title>tr</title>
<polygon fill="#e5f5e0" stroke="#e5f5e0" stroke-width="2" points="463,-138 287,-138 287,-102 463,-102 463,-138"/>
<text text-anchor="start" x="295" y="-116.3" font-family="arial" font-size="14.00">Teacher receives training</text>
</g>
<!-- tr&#45;&gt;Better teaching. &#160;&#160;Teacher: !smile -->
<g id="edge3" class="edge"><title>tr&#45;&gt;Better teaching. &#160;&#160;Teacher: !smile</title>
<path fill="none" stroke="#41ab5d" d="M463.069,-120.449C476.422,-120.518 490.029,-120.588 502.862,-120.654"/>
<polygon fill="#41ab5d" stroke="#41ab5d" points="502.952,-124.154 512.97,-120.706 502.988,-117.154 502.952,-124.154"/>
</g>
<!-- Pay increased. &#160;&#160;Teacher: !smile &#160;&#160;Ministry: !frown -->
<g id="node8" class="node"><title>Pay increased. &#160;&#160;Teacher: !smile &#160;&#160;Ministry: !frown</title>
<polygon fill="#e5f5e0" stroke="#e5f5e0" stroke-width="2" points="626,-85.5 516,-85.5 516,-32.5 626,-32.5 626,-85.5"/>
<text text-anchor="start" x="524" y="-70.3" font-family="arial" font-size="14.00">Pay increased.</text>
<text text-anchor="start" x="536" y="-55.3" font-family="arial" font-size="14.00">Teacher: 🙂</text>
<text text-anchor="start" x="537.5" y="-40.3" font-family="arial" font-size="14.00">Ministry: ☹</text>
</g>
<!-- tr&#45;&gt;Pay increased. &#160;&#160;Teacher: !smile &#160;&#160;Ministry: !frown -->
<g id="edge7" class="edge"><title>tr&#45;&gt;Pay increased. &#160;&#160;Teacher: !smile &#160;&#160;Ministry: !frown</title>
<path fill="none" stroke="#41ab5d" d="M433.419,-101.946C456.198,-94.7831 482.492,-86.5154 505.89,-79.1583"/>
<polygon fill="#41ab5d" stroke="#41ab5d" points="507.232,-82.4053 515.722,-76.0668 505.132,-75.7276 507.232,-82.4053"/>
</g>
<!-- Teacher: &#160;!do &#160;&#160;Makes effort to attend course -->
<g id="node5" class="node"><title>Teacher: &#160;!do &#160;&#160;Makes effort to attend course</title>
<polygon fill="#e5f5e0" stroke="#e5f5e0" stroke-width="2" points="219,-138 18,-138 18,-102 219,-102 219,-138"/>
<text text-anchor="start" x="78.5" y="-123.8" font-family="arial" font-size="14.00">Teacher: &#160;</text>
<text text-anchor="start" x="142.5" y="-123.8" font-family="arial" font-size="14.00" fill="green">▶ </text>
<text text-anchor="start" x="26" y="-109.8" font-family="arial" font-size="14.00">Makes effort to attend course</text>
</g>
<!-- Teacher: &#160;!do &#160;&#160;Makes effort to attend course&#45;&gt;tr -->
<g id="edge4" class="edge"><title>Teacher: &#160;!do &#160;&#160;Makes effort to attend course&#45;&gt;tr</title>
<path fill="none" stroke="#41ab5d" d="M219.355,-120C238.241,-120 257.973,-120 276.778,-120"/>
<polygon fill="#41ab5d" stroke="#41ab5d" points="276.816,-123.5 286.816,-120 276.816,-116.5 276.816,-123.5"/>
</g>
<!-- Ministry: !do &#160;&#160;Provides in&#45;service teacher training -->
<g id="node6" class="node"><title>Ministry: !do &#160;&#160;Provides in&#45;service teacher training</title>
<polygon fill="#e5f5e0" stroke="#e5f5e0" stroke-width="2" points="237,-86 0,-86 0,-50 237,-50 237,-86"/>
<text text-anchor="start" x="83" y="-71.8" font-family="arial" font-size="14.00">Ministry: </text>
<text text-anchor="start" x="138" y="-71.8" font-family="arial" font-size="14.00" fill="green">▶ </text>
<text text-anchor="start" x="8" y="-57.8" font-family="arial" font-size="14.00">Provides in&#45;service teacher training</text>
</g>
<!-- Ministry: !do &#160;&#160;Provides in&#45;service teacher training&#45;&gt;tr -->
<g id="edge5" class="edge"><title>Ministry: !do &#160;&#160;Provides in&#45;service teacher training&#45;&gt;tr</title>
<path fill="none" stroke="#41ab5d" d="M212.209,-86.0099C220.595,-87.6805 228.955,-89.3612 237,-91 250.839,-93.8191 265.453,-96.8521 279.776,-99.8568"/>
<polygon fill="#41ab5d" stroke="#41ab5d" points="279.127,-103.297 289.633,-101.929 280.567,-96.4465 279.127,-103.297"/>
</g>
<!-- Trainer: !do &#160;&#160;Provides pro&#45;bono training &#160;!smile -->
<g id="node7" class="node"><title>Trainer: !do &#160;&#160;Provides pro&#45;bono training &#160;!smile</title>
<polygon fill="#e5f5e0" stroke="#e5f5e0" stroke-width="2" points="219.5,-36 17.5,-36 17.5,-0 219.5,-0 219.5,-36"/>
<text text-anchor="start" x="84.5" y="-21.8" font-family="arial" font-size="14.00">Trainer: </text>
<text text-anchor="start" x="136.5" y="-21.8" font-family="arial" font-size="14.00" fill="green">▶ </text>
<text text-anchor="start" x="25.5" y="-7.8" font-family="arial" font-size="14.00">Provides pro&#45;bono training &#160;🙂</text>
</g>
<!-- Trainer: !do &#160;&#160;Provides pro&#45;bono training &#160;!smile&#45;&gt;tr -->
<g id="edge6" class="edge"><title>Trainer: !do &#160;&#160;Provides pro&#45;bono training &#160;!smile&#45;&gt;tr</title>
<path fill="none" stroke="#41ab5d" d="M216.054,-36.0548C223.217,-38.1499 230.268,-40.4596 237,-43 273.58,-56.8041 312.135,-79.2812 338.992,-96.3962"/>
<polygon fill="#41ab5d" stroke="#41ab5d" points="337.332,-99.4907 347.632,-101.975 341.129,-93.61 337.332,-99.4907"/>
</g>
</g>
</svg>
