<?xml version="1.0" encoding="UTF-8" standalone="no"?>
<!DOCTYPE svg PUBLIC "-//W3C//DTD SVG 1.1//EN"
 "http://www.w3.org/Graphics/SVG/1.1/DTD/svg11.dtd">
<!-- Generated by graphviz version 2.38.0 (20140413.2041)
 -->
<!-- Title: foo Pages: 1 -->
<svg width="378pt" height="58pt"
 viewBox="0.00 0.00 378.00 58.00" xmlns="http://www.w3.org/2000/svg" xmlns:xlink="http://www.w3.org/1999/xlink">
<g id="graph0" class="graph" transform="scale(1 1) rotate(0) translate(4 54)">
<title>foo</title>
<g id="a_graph0"><a xlink:title=" ">
<polygon fill="white" stroke="none" points="-4,4 -4,-54 374,-54 374,4 -4,4"/>
</a>
</g>
<!-- Teaching quality -->
<g id="node1" class="node"><title>Teaching quality</title>
<polygon fill="#e5f5e0" stroke="#e5f5e0" stroke-width="2" points="205,-44 130,-44 130,-6 205,-6 205,-44"/>
<text text-anchor="start" x="138" y="-28.8" font-family="arial" font-size="14.00">Teaching</text>
<text text-anchor="start" x="147.5" y="-13.8" font-family="arial" font-size="14.00">quality</text>
</g>
<!-- Students achievement !smile -->
<g id="node2" class="node"><title>Students achievement !smile</title>
<polygon fill="#e5f5e0" stroke="#e5f5e0" stroke-width="2" points="370,-44 255,-44 255,-6 370,-6 370,-44"/>
<text text-anchor="start" x="284" y="-28.8" font-family="arial" font-size="14.00">Students</text>
<text text-anchor="start" x="263" y="-13.8" font-family="arial" font-size="14.00">achievement ☺</text>
</g>
<!-- Teaching quality&#45;&gt;Students achievement !smile -->
<g id="edge1" class="edge"><title>Teaching quality&#45;&gt;Students achievement !smile</title>
<path fill="none" stroke="#41ab5d" d="M205.326,-25C217.328,-25 231.05,-25 244.554,-25"/>
<polygon fill="#41ab5d" stroke="#41ab5d" points="244.806,-28.5001 254.806,-25 244.806,-21.5001 244.806,-28.5001"/>
</g>
<!-- !do Quality of teacher training -->
<g id="node3" class="node"><title>!do Quality of teacher training</title>
<polygon fill="#e5f5e0" stroke="#e5f5e0" stroke-width="2" points="80,-50 0,-50 0,-0 80,-0 80,-50"/>
<text text-anchor="start" x="8.5" y="-35.8" font-family="arial" font-size="14.00" fill="green">▶ </text>
<text text-anchor="start" x="24.5" y="-35.8" font-family="arial" font-size="14.00"> Quality</text>
<text text-anchor="start" x="8" y="-21.8" font-family="arial" font-size="14.00">of teacher</text>
<text text-anchor="start" x="17" y="-7.8" font-family="arial" font-size="14.00">training</text>
</g>
<!-- !do Quality of teacher training&#45;&gt;Teaching quality -->
<g id="edge2" class="edge"><title>!do Quality of teacher training&#45;&gt;Teaching quality</title>
<path fill="none" stroke="#41ab5d" d="M80.021,-25C92.5119,-25 106.474,-25 119.474,-25"/>
<polygon fill="#41ab5d" stroke="#41ab5d" points="119.646,-28.5001 129.646,-25 119.646,-21.5001 119.646,-28.5001"/>
</g>
</g>
</svg>
