<?xml version="1.0" encoding="UTF-8" standalone="no"?>
<!DOCTYPE svg PUBLIC "-//W3C//DTD SVG 1.1//EN"
 "http://www.w3.org/Graphics/SVG/1.1/DTD/svg11.dtd">
<!-- Generated by graphviz version 2.38.0 (20140413.2041)
 -->
<!-- Title: foo Pages: 1 -->
<svg width="456pt" height="153pt"
 viewBox="0.00 0.00 456.00 153.00" xmlns="http://www.w3.org/2000/svg" xmlns:xlink="http://www.w3.org/1999/xlink">
<g id="graph0" class="graph" transform="scale(1 1) rotate(0) translate(4 149)">
<title>foo</title>
<g id="a_graph0"><a xlink:title=" ">
<polygon fill="white" stroke="none" points="-4,4 -4,-149 452,-149 452,4 -4,4"/>
</a>
</g>
<g id="clust2" class="cluster"><title>cluster_InfluenceVariables</title>
<g id="a_clust2"><a xlink:title=" ">
<path fill="#efedf5" stroke="#efedf5" d="M20,-8C20,-8 208,-8 208,-8 214,-8 220,-14 220,-20 220,-20 220,-125 220,-125 220,-131 214,-137 208,-137 208,-137 20,-137 20,-137 14,-137 8,-131 8,-125 8,-125 8,-20 8,-20 8,-14 14,-8 20,-8"/>
<text text-anchor="start" x="16" y="-121.8" font-family="arial" font-size="14.00">Influence Variables</text>
</a>
</g>
</g>
<g id="clust1" class="cluster"><title>cluster_ConsequenceVariable</title>
<g id="a_clust1"><a xlink:title=" ">
<path fill="#efedf5" stroke="#efedf5" d="M266,-21C266,-21 428,-21 428,-21 434,-21 440,-27 440,-33 440,-33 440,-86 440,-86 440,-92 434,-98 428,-98 428,-98 266,-98 266,-98 260,-98 254,-92 254,-86 254,-86 254,-33 254,-33 254,-27 260,-21 266,-21"/>
<text text-anchor="start" x="262" y="-82.8" font-family="arial" font-size="14.00">Consequence Variable</text>
</a>
</g>
</g>
<!-- Student feels they live up to expectations -->
<g id="node1" class="node"><title>Student feels they live up to expectations</title>
<polygon fill="#e5f5e0" stroke="#e5f5e0" stroke-width="2" points="209.5,-106 18.5,-106 18.5,-68 209.5,-68 209.5,-106"/>
<text text-anchor="start" x="26.5" y="-90.8" font-family="arial" font-size="14.00">Student feels they live up to</text>
<text text-anchor="start" x="73.5" y="-75.8" font-family="arial" font-size="14.00">expectations</text>
</g>
<!-- Student satisfaction with school. Function: &#39;up&#45;up&#39; -->
<g id="node2" class="node"><title>Student satisfaction with school. Function: &#39;up&#45;up&#39;</title>
<polygon fill="#e5f5e0" stroke="#e5f5e0" stroke-width="2" points="432,-67 262,-67 262,-29 432,-29 432,-67"/>
<text text-anchor="start" x="271" y="-51.8" font-family="arial" font-size="14.00">Student satisfaction with</text>
<text text-anchor="start" x="270" y="-36.8" font-family="arial" font-size="14.00">school. Function: &#39;up&#45;up&#39;</text>
</g>
<!-- Student feels they live up to expectations&#45;&gt;Student satisfaction with school. Function: &#39;up&#45;up&#39; -->
<g id="edge1" class="edge"><title>Student feels they live up to expectations&#45;&gt;Student satisfaction with school. Function: &#39;up&#45;up&#39;</title>
<path fill="none" stroke="#41ab5d" d="M209.623,-71.0247C223.559,-68.6718 237.915,-66.2481 251.842,-63.8968"/>
<polygon fill="#41ab5d" stroke="#41ab5d" points="252.618,-67.3155 261.895,-62.1995 251.452,-60.4132 252.618,-67.3155"/>
</g>
<!-- Student feels supported and liked -->
<g id="node3" class="node"><title>Student feels supported and liked</title>
<polygon fill="#e5f5e0" stroke="#e5f5e0" stroke-width="2" points="212,-54 16,-54 16,-16 212,-16 212,-54"/>
<text text-anchor="start" x="24" y="-38.8" font-family="arial" font-size="14.00">Student feels supported and</text>
<text text-anchor="start" x="99" y="-23.8" font-family="arial" font-size="14.00">liked</text>
</g>
<!-- Student feels supported and liked&#45;&gt;Student satisfaction with school. Function: &#39;up&#45;up&#39; -->
<g id="edge2" class="edge"><title>Student feels supported and liked&#45;&gt;Student satisfaction with school. Function: &#39;up&#45;up&#39;</title>
<path fill="none" stroke="#41ab5d" d="M212.295,-40.4755C225.333,-41.2092 238.687,-41.9608 251.672,-42.6915"/>
<polygon fill="#41ab5d" stroke="#41ab5d" points="251.813,-46.2049 261.994,-43.2724 252.206,-39.2159 251.813,-46.2049"/>
</g>
</g>
</svg>
