<?xml version="1.0" encoding="UTF-8" standalone="no"?>
<!DOCTYPE svg PUBLIC "-//W3C//DTD SVG 1.1//EN"
 "http://www.w3.org/Graphics/SVG/1.1/DTD/svg11.dtd">
<!-- Generated by graphviz version 2.38.0 (20140413.2041)
 -->
<!-- Title: foo Pages: 1 -->
<svg width="331pt" height="115pt"
 viewBox="0.00 0.00 331.00 115.00" xmlns="http://www.w3.org/2000/svg" xmlns:xlink="http://www.w3.org/1999/xlink">
<g id="graph0" class="graph" transform="scale(1 1) rotate(0) translate(4 111)">
<title>foo</title>
<g id="a_graph0"><a xlink:title=" ">
<polygon fill="white" stroke="none" points="-4,4 -4,-111 327,-111 327,4 -4,4"/>
</a>
</g>
<g id="clust1" class="cluster"><title>cluster_Student</title>
<g id="a_clust1"><a xlink:title=" ">
<path fill="#fcfbfd" stroke="#dadaeb" d="M20,-8C20,-8 303,-8 303,-8 309,-8 315,-14 315,-20 315,-20 315,-87 315,-87 315,-93 309,-99 303,-99 303,-99 20,-99 20,-99 14,-99 8,-93 8,-87 8,-87 8,-20 8,-20 8,-14 14,-8 20,-8"/>
<text text-anchor="start" x="16" y="-83.8" font-family="arial" font-size="14.00">Student</text>
</a>
</g>
</g>
<!-- Personality !multi -->
<g id="node1" class="node"><title>Personality !multi</title>
<polygon fill="#e5f5e0" stroke="#e5f5e0" stroke-width="2" points="117,-68 16,-68 16,-32 117,-32 117,-68"/>
<text text-anchor="start" x="24" y="-46.3" font-family="arial" font-size="14.00">Personality ▤</text>
</g>
<!-- School success !lohi -->
<g id="node2" class="node"><title>School success !lohi</title>
<polygon fill="#e5f5e0" stroke="#e5f5e0" stroke-width="2" points="307,-68 174,-68 174,-32 307,-32 307,-68"/>
<text text-anchor="start" x="182" y="-46.3" font-family="arial" font-size="14.00">School success ◪</text>
</g>
<!-- Personality !multi&#45;&gt;School success !lohi -->
<g id="edge1" class="edge"><title>Personality !multi&#45;&gt;School success !lohi</title>
<path fill="none" stroke="#41ab5d" d="M117.25,-50C131.736,-50 147.903,-50 163.614,-50"/>
<polygon fill="#41ab5d" stroke="#41ab5d" points="163.849,-53.5001 173.849,-50 163.849,-46.5001 163.849,-53.5001"/>
<text text-anchor="start" x="142" y="-53.8" font-family="Times New Roman,serif" font-size="14.00">?</text>
</g>
<!-- axsxdf -->
<!-- axsxdf&#45;&gt;School success !lohi -->
<g id="edge2" class="edge"><title>axsxdf&#45;&gt;School success !lohi</title>
<path fill="none" stroke="#41ab5d" stroke-width="0" d="M71.111,-17.5316C79.2946,-18.7477 99.8732,-21.8697 117,-25 132.151,-27.7691 148.314,-30.9238 163.764,-34.0376"/>
<polygon fill="#41ab5d" stroke="#41ab5d" stroke-width="0" points="163.3,-37.5147 173.797,-36.0735 164.692,-30.6545 163.3,-37.5147"/>
</g>
</g>
</svg>
