<?xml version="1.0" encoding="UTF-8" standalone="no"?>
<!DOCTYPE svg PUBLIC "-//W3C//DTD SVG 1.1//EN"
 "http://www.w3.org/Graphics/SVG/1.1/DTD/svg11.dtd">
<!-- Generated by graphviz version 2.38.0 (20140413.2041)
 -->
<!-- Title: foo Pages: 1 -->
<svg width="476pt" height="104pt"
 viewBox="0.00 0.00 476.00 104.00" xmlns="http://www.w3.org/2000/svg" xmlns:xlink="http://www.w3.org/1999/xlink">
<g id="graph0" class="graph" transform="scale(1 1) rotate(0) translate(4 100)">
<title>foo</title>
<g id="a_graph0"><a xlink:title=" ">
<polygon fill="white" stroke="none" points="-4,4 -4,-100 472,-100 472,4 -4,4"/>
</a>
</g>
<!-- Legislators have more favourable views -->
<g id="node1" class="node"><title>Legislators have more favourable views</title>
<polygon fill="#e5f5e0" stroke="#e5f5e0" stroke-width="2" points="339,-81.5 253,-81.5 253,-13.5 339,-13.5 339,-81.5"/>
<text text-anchor="start" x="261" y="-66.3" font-family="arial" font-size="14.00">Legislators</text>
<text text-anchor="start" x="262.5" y="-51.3" font-family="arial" font-size="14.00">have more</text>
<text text-anchor="start" x="262.5" y="-36.3" font-family="arial" font-size="14.00">favourable</text>
<text text-anchor="start" x="278" y="-21.3" font-family="arial" font-size="14.00">views</text>
</g>
<!-- Law on same&#45;sex marriage is passed -->
<g id="node2" class="node"><title>Law on same&#45;sex marriage is passed</title>
<polygon fill="#e5f5e0" stroke="#e5f5e0" stroke-width="2" points="468,-81.5 389,-81.5 389,-13.5 468,-13.5 468,-81.5"/>
<text text-anchor="start" x="405.5" y="-66.3" font-family="arial" font-size="14.00">Law on</text>
<text text-anchor="start" x="397" y="-51.3" font-family="arial" font-size="14.00">same&#45;sex</text>
<text text-anchor="start" x="400.5" y="-36.3" font-family="arial" font-size="14.00">marriage</text>
<text text-anchor="start" x="397.5" y="-21.3" font-family="arial" font-size="14.00">is passed</text>
</g>
<!-- Legislators have more favourable views&#45;&gt;Law on same&#45;sex marriage is passed -->
<g id="edge1" class="edge"><title>Legislators have more favourable views&#45;&gt;Law on same&#45;sex marriage is passed</title>
<path fill="none" stroke="#41ab5d" stroke-width="4" d="M339.009,-47.5C351.591,-47.5 365.499,-47.5 378.49,-47.5"/>
<polygon fill="#41ab5d" stroke="#41ab5d" stroke-width="4" points="378.669,-51.0001 388.669,-47.5 378.669,-44.0001 378.669,-51.0001"/>
</g>
<!-- axsxdf -->
<!-- axsxdf&#45;&gt;Legislators have more favourable views -->
<g id="edge2" class="edge"><title>axsxdf&#45;&gt;Legislators have more favourable views</title>
<path fill="none" stroke="#41ab5d" stroke-width="0" d="M66.0154,-95.403C98.4635,-94.7956 155.462,-92.1225 203,-81.5 216.243,-78.5409 230.155,-74.1296 243.038,-69.4569"/>
<polygon fill="#41ab5d" stroke="#41ab5d" stroke-width="0" points="244.523,-72.638 252.66,-65.8524 242.068,-66.0829 244.523,-72.638"/>
</g>
<!-- Public opinion improves -->
<g id="node4" class="node"><title>Public opinion improves</title>
<polygon fill="#e5f5e0" stroke="#e5f5e0" stroke-width="2" points="203,-74 128,-74 128,-21 203,-21 203,-74"/>
<text text-anchor="start" x="145.5" y="-58.8" font-family="arial" font-size="14.00">Public</text>
<text text-anchor="start" x="142.5" y="-43.8" font-family="arial" font-size="14.00">opinion</text>
<text text-anchor="start" x="136" y="-28.8" font-family="arial" font-size="14.00">improves</text>
</g>
<!-- Public opinion improves&#45;&gt;Legislators have more favourable views -->
<g id="edge3" class="edge"><title>Public opinion improves&#45;&gt;Legislators have more favourable views</title>
<path fill="none" stroke="#41ab5d" stroke-width="4" d="M203.323,-47.5C215.495,-47.5 229.284,-47.5 242.402,-47.5"/>
<polygon fill="#41ab5d" stroke="#41ab5d" stroke-width="4" points="242.735,-51.0001 252.735,-47.5 242.735,-44.0001 242.735,-51.0001"/>
</g>
<!-- !do Our campaign is launched -->
<g id="node5" class="node"><title>!do Our campaign is launched</title>
<polygon fill="#e5f5e0" stroke="#e5f5e0" stroke-width="2" points="78,-79.5 0,-79.5 0,-15.5 78,-15.5 78,-79.5"/>
<text text-anchor="start" x="17" y="-65.3" font-family="arial" font-size="14.00" fill="green">▶ </text>
<text text-anchor="start" x="33" y="-65.3" font-family="arial" font-size="14.00"> Our</text>
<text text-anchor="start" x="8" y="-51.3" font-family="arial" font-size="14.00">campaign</text>
<text text-anchor="start" x="33.5" y="-37.3" font-family="arial" font-size="14.00">is</text>
<text text-anchor="start" x="10" y="-23.3" font-family="arial" font-size="14.00">launched</text>
</g>
<!-- !do Our campaign is launched&#45;&gt;Public opinion improves -->
<g id="edge4" class="edge"><title>!do Our campaign is launched&#45;&gt;Public opinion improves</title>
<path fill="none" stroke="#41ab5d" stroke-width="4" d="M78.0306,-47.5C90.5572,-47.5 104.634,-47.5 117.734,-47.5"/>
<polygon fill="#41ab5d" stroke="#41ab5d" stroke-width="4" points="117.982,-51.0001 127.982,-47.5 117.982,-44.0001 117.982,-51.0001"/>
</g>
<!-- xsxdf -->
<!-- xsxdf&#45;&gt;Public opinion improves -->
<g id="edge5" class="edge"><title>xsxdf&#45;&gt;Public opinion improves</title>
<path fill="none" stroke="#41ab5d" stroke-width="0" d="M44.0687,-1.06094C51.1054,-2.096 65.9511,-4.56673 78,-8.5 85.1999,-10.8503 92.6037,-13.6144 99.9059,-16.5677"/>
<polygon fill="#41ab5d" stroke="#41ab5d" stroke-width="0" points="96.042,-26.339 127.731,-28.8032 104.495,-7.11544 96.042,-26.339"/>
</g>
</g>
</svg>
