<?xml version="1.0" encoding="UTF-8" standalone="no"?>
<!DOCTYPE svg PUBLIC "-//W3C//DTD SVG 1.1//EN"
 "http://www.w3.org/Graphics/SVG/1.1/DTD/svg11.dtd">
<!-- Generated by graphviz version 2.38.0 (20140413.2041)
 -->
<!-- Title: foo Pages: 1 -->
<svg width="340pt" height="64pt"
 viewBox="0.00 0.00 340.00 64.00" xmlns="http://www.w3.org/2000/svg" xmlns:xlink="http://www.w3.org/1999/xlink">
<g id="graph0" class="graph" transform="scale(1 1) rotate(0) translate(4 60)">
<title>foo</title>
<g id="a_graph0"><a xlink:title=" ">
<polygon fill="#c7e9c0" stroke="none" points="-4,4 -4,-60 336,-60 336,4 -4,4"/>
<text text-anchor="start" x="84.5" y="-7.2" font-family="tahoma" font-size="11.00" fill="#238b45">Theorymaker prefers this symbol</text>
</a>
</g>
<!-- Strength of the wind -->
<g id="node1" class="node"><title>Strength of the wind</title>
<polygon fill="#f7fcf5" stroke="#f7fcf5" points="142,-56 0,-56 0,-20 142,-20 142,-56"/>
<text text-anchor="start" x="8" y="-34.3" font-family="Helvetica,sans-Serif" font-size="14.00" fill="#006d2c">Strength of the wind</text>
</g>
<!-- How warm it feels -->
<g id="node2" class="node"><title>How warm it feels</title>
<polygon fill="#f7fcf5" stroke="#f7fcf5" points="332,-56 204,-56 204,-20 332,-20 332,-56"/>
<text text-anchor="start" x="212" y="-34.3" font-family="Helvetica,sans-Serif" font-size="14.00" fill="#006d2c">How warm it feels</text>
</g>
<!-- Strength of the wind&#45;&gt;How warm it feels -->
<g id="edge1" class="edge"><title>Strength of the wind&#45;&gt;How warm it feels</title>
<path fill="none" stroke="#41ab5d" stroke-width="2" d="M142.124,-38C158.852,-38 176.75,-38 193.62,-38"/>
<polygon fill="#41ab5d" stroke="#41ab5d" stroke-width="2" points="193.972,-41.5001 203.972,-38 193.971,-34.5001 193.972,-41.5001"/>
<text text-anchor="start" x="167" y="-41.8" font-family="Helvetica,sans-Serif" font-size="14.00" fill="#cd5c5c">⇅</text>
</g>
</g>
</svg>
