<?xml version="1.0" encoding="UTF-8" standalone="no"?>
<!DOCTYPE svg PUBLIC "-//W3C//DTD SVG 1.1//EN"
 "http://www.w3.org/Graphics/SVG/1.1/DTD/svg11.dtd">
<!-- Generated by graphviz version 2.38.0 (20140413.2041)
 -->
<!-- Title: foo Pages: 1 -->
<svg width="319pt" height="249pt"
 viewBox="0.00 0.00 319.00 249.00" xmlns="http://www.w3.org/2000/svg" xmlns:xlink="http://www.w3.org/1999/xlink">
<g id="graph0" class="graph" transform="scale(1 1) rotate(0) translate(4 245)">
<title>foo</title>
<g id="a_graph0"><a xlink:title=" ">
<polygon fill="white" stroke="none" points="-4,4 -4,-245 315,-245 315,4 -4,4"/>
</a>
</g>
<g id="clust1" class="cluster"><title>cluster_Sociodemographics</title>
<g id="a_clust1"><a xlink:title=" ">
<path fill="#fcfbfd" stroke="#dadaeb" d="M20,-8C20,-8 161,-8 161,-8 167,-8 173,-14 173,-20 173,-20 173,-221 173,-221 173,-227 167,-233 161,-233 161,-233 20,-233 20,-233 14,-233 8,-227 8,-221 8,-221 8,-20 8,-20 8,-14 14,-8 20,-8"/>
<text text-anchor="start" x="16" y="-217.8" font-family="arial" font-size="14.00">Socio&#45;demographics</text>
</a>
</g>
</g>
<!-- Socio&#45;demographics -->
<!-- Employment -->
<g id="node2" class="node"><title>Employment</title>
<polygon fill="#e5f5e0" stroke="#e5f5e0" stroke-width="2" points="311,-202 215,-202 215,-166 311,-166 311,-202"/>
<text text-anchor="start" x="223" y="-180.3" font-family="arial" font-size="14.00">Employment</text>
</g>
<!-- Socio&#45;demographics&#45;&gt;Employment -->
<g id="edge1" class="edge"><title>Socio&#45;demographics&#45;&gt;Employment</title>
<path fill="none" stroke="#41ab5d" d="M172.679,-184C183.38,-184 194.168,-184 204.364,-184"/>
<polygon fill="#41ab5d" stroke="#41ab5d" points="204.667,-187.5 214.667,-184 204.667,-180.5 204.667,-187.5"/>
</g>
<!-- Age -->
<g id="node3" class="node"><title>Age</title>
<polygon fill="#e5f5e0" stroke="#e5f5e0" stroke-width="2" points="117.5,-152 63.5,-152 63.5,-116 117.5,-116 117.5,-152"/>
<text text-anchor="start" x="77" y="-130.3" font-family="arial" font-size="14.00">Age</text>
</g>
<!-- Class -->
<g id="node4" class="node"><title>Class</title>
<polygon fill="#e5f5e0" stroke="#e5f5e0" stroke-width="2" points="117.5,-102 63.5,-102 63.5,-66 117.5,-66 117.5,-102"/>
<text text-anchor="start" x="72" y="-80.3" font-family="arial" font-size="14.00">Class</text>
</g>
<!-- Gender -->
<g id="node5" class="node"><title>Gender</title>
<polygon fill="#e5f5e0" stroke="#e5f5e0" stroke-width="2" points="123,-52 58,-52 58,-16 123,-16 123,-52"/>
<text text-anchor="start" x="66" y="-30.3" font-family="arial" font-size="14.00">Gender</text>
</g>
</g>
</svg>
