<?xml version="1.0" encoding="UTF-8" standalone="no"?>
<!DOCTYPE svg PUBLIC "-//W3C//DTD SVG 1.1//EN"
 "http://www.w3.org/Graphics/SVG/1.1/DTD/svg11.dtd">
<!-- Generated by graphviz version 2.38.0 (20140413.2041)
 -->
<!-- Title: foo Pages: 1 -->
<svg width="433pt" height="204pt"
 viewBox="0.00 0.00 433.00 203.50" xmlns="http://www.w3.org/2000/svg" xmlns:xlink="http://www.w3.org/1999/xlink">
<g id="graph0" class="graph" transform="scale(1 1) rotate(0) translate(4 199.5)">
<title>foo</title>
<g id="a_graph0"><a xlink:title=" ">
<polygon fill="white" stroke="none" points="-4,4 -4,-199.5 429,-199.5 429,4 -4,4"/>
</a>
</g>
<!-- Other influences (1) -->
<g id="node1" class="node"><title>Other influences (1)</title>
<polygon fill="#e5f5e0" stroke="#e5f5e0" stroke-width="2" points="252.5,-195.5 171.5,-195.5 171.5,-142.5 252.5,-142.5 252.5,-195.5"/>
<text text-anchor="start" x="194" y="-180.3" font-family="arial" font-size="14.00">Other</text>
<text text-anchor="start" x="179.5" y="-165.3" font-family="arial" font-size="14.00">influences</text>
<text text-anchor="start" x="203" y="-150.3" font-family="arial" font-size="14.00">(1)</text>
</g>
<!-- Student achievement !heart ((10% improvement)) -->
<g id="node2" class="node"><title>Student achievement !heart ((10% improvement))</title>
<polygon fill="#e5f5e0" stroke="#e5f5e0" stroke-width="2" points="425,-165 316,-165 316,-97 425,-97 425,-165"/>
<text text-anchor="start" x="346" y="-149.8" font-family="arial" font-size="14.00">Student</text>
<text text-anchor="start" x="324" y="-134.8" font-family="arial" font-size="14.00">achievement ♥</text>
<text text-anchor="start" x="351" y="-119.8" font-family="arial" font-size="14.00" fill="green">((10%</text>
<text text-anchor="start" x="324.5" y="-104.8" font-family="arial" font-size="14.00" fill="green">improvement))</text>
</g>
<!-- Other influences (1)&#45;&gt;Student achievement !heart ((10% improvement)) -->
<g id="edge1" class="edge"><title>Other influences (1)&#45;&gt;Student achievement !heart ((10% improvement))</title>
<path fill="none" stroke="#41ab5d" d="M252.896,-159.313C269.019,-155.398 288.028,-150.782 305.966,-146.427"/>
<polygon fill="#41ab5d" stroke="#41ab5d" points="306.905,-149.801 315.796,-144.04 305.253,-142.998 306.905,-149.801"/>
</g>
<!-- Teaching quality ((20% improvement)) -->
<g id="node3" class="node"><title>Teaching quality ((20% improvement))</title>
<polygon fill="#e5f5e0" stroke="#e5f5e0" stroke-width="2" points="266,-128 158,-128 158,-60 266,-60 266,-128"/>
<text text-anchor="start" x="182.5" y="-112.8" font-family="arial" font-size="14.00">Teaching</text>
<text text-anchor="start" x="192" y="-97.8" font-family="arial" font-size="14.00">quality</text>
<text text-anchor="start" x="192.5" y="-82.8" font-family="arial" font-size="14.00" fill="green">((20%</text>
<text text-anchor="start" x="166" y="-67.8" font-family="arial" font-size="14.00" fill="green">improvement))</text>
</g>
<!-- Teaching quality ((20% improvement))&#45;&gt;Student achievement !heart ((10% improvement)) -->
<g id="edge2" class="edge"><title>Teaching quality ((20% improvement))&#45;&gt;Student achievement !heart ((10% improvement))</title>
<path fill="none" stroke="#41ab5d" d="M266.421,-106.63C279.122,-109.633 292.797,-112.866 305.903,-115.964"/>
<polygon fill="#41ab5d" stroke="#41ab5d" points="305.252,-119.407 315.789,-118.301 306.862,-112.595 305.252,-119.407"/>
</g>
<!-- Other influences (2) -->
<g id="node4" class="node"><title>Other influences (2)</title>
<polygon fill="#e5f5e0" stroke="#e5f5e0" stroke-width="2" points="94.5,-165.5 13.5,-165.5 13.5,-112.5 94.5,-112.5 94.5,-165.5"/>
<text text-anchor="start" x="36" y="-150.3" font-family="arial" font-size="14.00">Other</text>
<text text-anchor="start" x="21.5" y="-135.3" font-family="arial" font-size="14.00">influences</text>
<text text-anchor="start" x="45" y="-120.3" font-family="arial" font-size="14.00">(2)</text>
</g>
<!-- Other influences (2)&#45;&gt;Teaching quality ((20% improvement)) -->
<g id="edge3" class="edge"><title>Other influences (2)&#45;&gt;Teaching quality ((20% improvement))</title>
<path fill="none" stroke="#41ab5d" d="M94.769,-127.528C110.916,-122.87 129.968,-117.375 147.923,-112.195"/>
<polygon fill="#41ab5d" stroke="#41ab5d" points="149.122,-115.492 157.76,-109.358 147.182,-108.766 149.122,-115.492"/>
</g>
<!-- !rwedge Quality of teacher training ((50% improvement)) -->
<g id="node5" class="node"><title>!rwedge Quality of teacher training ((50% improvement))</title>
<polygon fill="#e5f5e0" stroke="#e5f5e0" stroke-width="2" points="108,-98 0,-98 0,-0 108,-0 108,-98"/>
<text text-anchor="start" x="46.5" y="-82.8" font-family="arial" font-size="14.00">►</text>
<text text-anchor="start" x="32.5" y="-67.8" font-family="arial" font-size="14.00">Quality</text>
<text text-anchor="start" x="22" y="-52.8" font-family="arial" font-size="14.00">of teacher</text>
<text text-anchor="start" x="31" y="-37.8" font-family="arial" font-size="14.00">training</text>
<text text-anchor="start" x="34.5" y="-22.8" font-family="arial" font-size="14.00" fill="green">((50%</text>
<text text-anchor="start" x="8" y="-7.8" font-family="arial" font-size="14.00" fill="green">improvement))</text>
</g>
<!-- !rwedge Quality of teacher training ((50% improvement))&#45;&gt;Teaching quality ((20% improvement)) -->
<g id="edge4" class="edge"><title>!rwedge Quality of teacher training ((50% improvement))&#45;&gt;Teaching quality ((20% improvement))</title>
<path fill="none" stroke="#41ab5d" d="M108.25,-64.3606C121.051,-68.0533 134.845,-72.0322 148.041,-75.8388"/>
<polygon fill="#41ab5d" stroke="#41ab5d" points="147.412,-79.2998 157.99,-78.7086 149.352,-72.5741 147.412,-79.2998"/>
</g>
</g>
</svg>
