<?xml version="1.0" encoding="UTF-8" standalone="no"?>
<!DOCTYPE svg PUBLIC "-//W3C//DTD SVG 1.1//EN"
 "http://www.w3.org/Graphics/SVG/1.1/DTD/svg11.dtd">
<!-- Generated by graphviz version 2.38.0 (20140413.2041)
 -->
<!-- Title: foo Pages: 1 -->
<svg width="470pt" height="175pt"
 viewBox="0.00 0.00 470.00 175.00" xmlns="http://www.w3.org/2000/svg" xmlns:xlink="http://www.w3.org/1999/xlink">
<g id="graph0" class="graph" transform="scale(1 1) rotate(0) translate(4 171)">
<title>foo</title>
<g id="a_graph0"><a xlink:title=" ">
<polygon fill="#c7e9c0" stroke="none" points="-4,4 -4,-171 466,-171 466,4 -4,4"/>
<text text-anchor="start" x="185" y="-7.2" font-family="tahoma" font-size="11.00" fill="#238b45">This is possible too</text>
</a>
</g>
<!-- axsxdf -->
<!-- _^ My party wins election (14 days from today &#45; very brief event with longer&#45;term consequences) -->
<g id="node2" class="node"><title>_^ My party wins election (14 days from today &#45; very brief event with longer&#45;term consequences)</title>
<polygon fill="#f7fcf5" stroke="#f7fcf5" points="462,-133 345,-133 345,-20 462,-20 462,-133"/>
<text text-anchor="start" x="368.5" y="-117.8" font-family="Helvetica,sans-Serif" font-size="14.00" fill="#006d2c">_^ My party</text>
<text text-anchor="start" x="362.5" y="-102.8" font-family="Helvetica,sans-Serif" font-size="14.00" fill="#006d2c">wins election</text>
<text text-anchor="start" x="359.5" y="-87.8" font-family="Helvetica,sans-Serif" font-size="14.00" fill="#006d2c">(14 days from</text>
<text text-anchor="start" x="367" y="-72.8" font-family="Helvetica,sans-Serif" font-size="14.00" fill="#006d2c">today &#45; very</text>
<text text-anchor="start" x="370" y="-57.8" font-family="Helvetica,sans-Serif" font-size="14.00" fill="#006d2c">brief event</text>
<text text-anchor="start" x="353" y="-42.8" font-family="Helvetica,sans-Serif" font-size="14.00" fill="#006d2c">with longer&#45;term</text>
<text text-anchor="start" x="354" y="-27.8" font-family="Helvetica,sans-Serif" font-size="14.00" fill="#006d2c">consequences)</text>
</g>
<!-- axsxdf&#45;&gt;_^ My party wins election (14 days from today &#45; very brief event with longer&#45;term consequences) -->
<g id="edge1" class="edge"><title>axsxdf&#45;&gt;_^ My party wins election (14 days from today &#45; very brief event with longer&#45;term consequences)</title>
<path fill="none" stroke="#41ab5d" stroke-width="0" d="M80.9834,-165.997C119.844,-164.419 217.834,-158.015 295,-132.5 308.636,-127.991 322.642,-121.906 335.852,-115.406"/>
<polygon fill="#41ab5d" stroke="#41ab5d" stroke-width="0" points="337.51,-118.489 344.855,-110.854 334.352,-112.242 337.51,-118.489"/>
</g>
<!-- ~ Electorate: more favourable voting intentions (today until election) -->
<g id="node3" class="node"><title>~ Electorate: more favourable voting intentions (today until election)</title>
<polygon fill="#f7fcf5" stroke="#f7fcf5" points="295,-125.5 176,-125.5 176,-27.5 295,-27.5 295,-125.5"/>
<text text-anchor="start" x="195" y="-110.3" font-family="Helvetica,sans-Serif" font-size="14.00" fill="#006d2c">~ Electorate:</text>
<text text-anchor="start" x="184" y="-95.3" font-family="Helvetica,sans-Serif" font-size="14.00" fill="#006d2c">more favourable</text>
<text text-anchor="start" x="216.5" y="-80.3" font-family="Helvetica,sans-Serif" font-size="14.00" fill="#006d2c">voting</text>
<text text-anchor="start" x="205" y="-65.3" font-family="Helvetica,sans-Serif" font-size="14.00" fill="#006d2c">intentions</text>
<text text-anchor="start" x="201.5" y="-50.3" font-family="Helvetica,sans-Serif" font-size="14.00" fill="#006d2c">(today until</text>
<text text-anchor="start" x="208" y="-35.3" font-family="Helvetica,sans-Serif" font-size="14.00" fill="#006d2c">election)</text>
</g>
<!-- axsxdf&#45;&gt;~ Electorate: more favourable voting intentions (today until election) -->
<g id="edge3" class="edge"><title>axsxdf&#45;&gt;~ Electorate: more favourable voting intentions (today until election)</title>
<path fill="none" stroke="#41ab5d" stroke-width="0" d="M90.0993,-166.648C101.472,-165.937 114.746,-164.031 126,-159.5 142.799,-152.737 159.23,-142.624 174.018,-131.761"/>
<polygon fill="#41ab5d" stroke="#41ab5d" stroke-width="0" points="176.203,-134.497 182.056,-125.666 171.973,-128.919 176.203,-134.497"/>
</g>
<!-- ~ Electorate: more favourable voting intentions (today until election)&#45;&gt;_^ My party wins election (14 days from today &#45; very brief event with longer&#45;term consequences) -->
<g id="edge2" class="edge"><title>~ Electorate: more favourable voting intentions (today until election)&#45;&gt;_^ My party wins election (14 days from today &#45; very brief event with longer&#45;term consequences)</title>
<path fill="none" stroke="#41ab5d" stroke-width="2" d="M295.025,-76.5C307.768,-76.5 321.355,-76.5 334.431,-76.5"/>
<polygon fill="#41ab5d" stroke="#41ab5d" stroke-width="2" points="334.783,-80.0001 344.783,-76.5 334.783,-73.0001 334.783,-80.0001"/>
</g>
<!-- ~ Campaign running: (today until election) -->
<g id="node4" class="node"><title>~ Campaign running: (today until election)</title>
<polygon fill="#f7fcf5" stroke="#f7fcf5" points="117.5,-152 8.5,-152 8.5,-99 117.5,-99 117.5,-152"/>
<text text-anchor="start" x="24.5" y="-136.8" font-family="Helvetica,sans-Serif" font-size="14.00" fill="#006d2c">~ Campaign</text>
<text text-anchor="start" x="16.5" y="-121.8" font-family="Helvetica,sans-Serif" font-size="14.00" fill="#006d2c">running: (today</text>
<text text-anchor="start" x="21.5" y="-106.8" font-family="Helvetica,sans-Serif" font-size="14.00" fill="#006d2c">until election)</text>
</g>
<!-- ~ Campaign running: (today until election)&#45;&gt;~ Electorate: more favourable voting intentions (today until election) -->
<g id="edge4" class="edge"><title>~ Campaign running: (today until election)&#45;&gt;~ Electorate: more favourable voting intentions (today until election)</title>
<path fill="none" stroke="#41ab5d" stroke-width="2" d="M117.947,-109.996C133.217,-105.608 150.043,-100.772 166.046,-96.1729"/>
<polygon fill="#41ab5d" stroke="#41ab5d" stroke-width="2" points="167.239,-99.4719 175.883,-93.3459 165.305,-92.7442 167.239,-99.4719"/>
</g>
<!-- ^^ Key speeches: (in 3 &amp; 7 days&#39; time) -->
<g id="node5" class="node"><title>^^ Key speeches: (in 3 &amp; 7 days&#39; time)</title>
<polygon fill="#f7fcf5" stroke="#f7fcf5" points="126,-85 0,-85 0,-32 126,-32 126,-85"/>
<text text-anchor="start" x="8" y="-69.8" font-family="Helvetica,sans-Serif" font-size="14.00" fill="#006d2c">^^ Key speeches:</text>
<text text-anchor="start" x="18" y="-54.8" font-family="Helvetica,sans-Serif" font-size="14.00" fill="#006d2c">(in 3 &amp; 7 days&#39;</text>
<text text-anchor="start" x="47" y="-39.8" font-family="Helvetica,sans-Serif" font-size="14.00" fill="#006d2c">time)</text>
</g>
<!-- ^^ Key speeches: (in 3 &amp; 7 days&#39; time)&#45;&gt;~ Electorate: more favourable voting intentions (today until election) -->
<g id="edge5" class="edge"><title>^^ Key speeches: (in 3 &amp; 7 days&#39; time)&#45;&gt;~ Electorate: more favourable voting intentions (today until election)</title>
<path fill="none" stroke="#41ab5d" stroke-width="2" d="M126.037,-65.0493C139.011,-66.4191 152.762,-67.8708 165.958,-69.2639"/>
<polygon fill="#41ab5d" stroke="#41ab5d" stroke-width="2" points="165.605,-72.746 175.918,-70.3154 166.34,-65.7847 165.605,-72.746"/>
</g>
</g>
</svg>
