<?xml version="1.0" encoding="UTF-8" standalone="no"?>
<!DOCTYPE svg PUBLIC "-//W3C//DTD SVG 1.1//EN"
 "http://www.w3.org/Graphics/SVG/1.1/DTD/svg11.dtd">
<!-- Generated by graphviz version 2.38.0 (20140413.2041)
 -->
<!-- Title: foo Pages: 1 -->
<svg width="298pt" height="46pt"
 viewBox="0.00 0.00 298.00 46.00" xmlns="http://www.w3.org/2000/svg" xmlns:xlink="http://www.w3.org/1999/xlink">
<g id="graph0" class="graph" transform="scale(1 1) rotate(0) translate(4 42)">
<title>foo</title>
<g id="a_graph0"><a xlink:title=" ">
<polygon fill="white" stroke="none" points="-4,4 -4,-42 294,-42 294,4 -4,4"/>
</a>
</g>
<!-- Patient has been vaccinated !noyes -->
<g id="node1" class="node"><title>Patient has been vaccinated !noyes</title>
<polygon fill="#e5f5e0" stroke="#e5f5e0" stroke-width="2" points="122,-38 7.10543e-015,-38 7.10543e-015,-0 122,-0 122,-38"/>
<text text-anchor="start" x="8" y="-22.8" font-family="arial" font-size="14.00">Patient has been</text>
<text text-anchor="start" x="19.5" y="-7.8" font-family="arial" font-size="14.00">vaccinated ◨</text>
</g>
<!-- Patient dies &#160;!noyes -->
<g id="node2" class="node"><title>Patient dies &#160;!noyes</title>
<polygon fill="#e5f5e0" stroke="#e5f5e0" stroke-width="2" points="290,-37 184,-37 184,-1 290,-1 290,-37"/>
<text text-anchor="start" x="192" y="-15.3" font-family="arial" font-size="14.00">Patient dies ◨</text>
</g>
<!-- Patient has been vaccinated !noyes&#45;&gt;Patient dies &#160;!noyes -->
<g id="edge1" class="edge"><title>Patient has been vaccinated !noyes&#45;&gt;Patient dies &#160;!noyes</title>
<path fill="none" stroke="#41ab5d" d="M122.368,-19C138.95,-19 156.961,-19 173.652,-19"/>
<polygon fill="#41ab5d" stroke="#41ab5d" points="173.85,-22.5001 183.85,-19 173.849,-15.5001 173.85,-22.5001"/>
<text text-anchor="start" x="147" y="-22.8" font-family="Times New Roman,serif" font-size="14.00">⇅</text>
</g>
</g>
</svg>
