<?xml version="1.0" encoding="UTF-8" standalone="no"?>
<!DOCTYPE svg PUBLIC "-//W3C//DTD SVG 1.1//EN"
 "http://www.w3.org/Graphics/SVG/1.1/DTD/svg11.dtd">
<!-- Generated by graphviz version 2.38.0 (20140413.2041)
 -->
<!-- Title: foo Pages: 1 -->
<svg width="388pt" height="96pt"
 viewBox="0.00 0.00 388.00 96.00" xmlns="http://www.w3.org/2000/svg" xmlns:xlink="http://www.w3.org/1999/xlink">
<g id="graph0" class="graph" transform="scale(1 1) rotate(0) translate(4 92)">
<title>foo</title>
<g id="a_graph0"><a xlink:title=" ">
<polygon fill="#c7e9c0" stroke="none" points="-4,4 -4,-92 384,-92 384,4 -4,4"/>
<text text-anchor="start" x="103.5" y="-7.2" font-family="tahoma" font-size="11.00" fill="#238b45">Alternative: differences everywhere</text>
</a>
</g>
<!-- *Increased* percentage of children vaccinated -->
<g id="node1" class="node"><title>*Increased* percentage of children vaccinated</title>
<polygon fill="#f7fcf5" stroke="#f7fcf5" points="260,-88 165,-88 165,-20 260,-20 260,-88"/>
<text text-anchor="start" x="173" y="-72.8" font-family="Helvetica,sans-Serif" font-size="14.00" fill="darkgreen">*Increased* </text>
<text text-anchor="start" x="176" y="-57.8" font-family="Helvetica,sans-Serif" font-size="14.00" fill="#006d2c">percentage</text>
<text text-anchor="start" x="179" y="-42.8" font-family="Helvetica,sans-Serif" font-size="14.00" fill="#006d2c">of children</text>
<text text-anchor="start" x="178.5" y="-27.8" font-family="Helvetica,sans-Serif" font-size="14.00" fill="#006d2c">vaccinated</text>
</g>
<!-- *Lower* mortality -->
<g id="node2" class="node"><title>*Lower* mortality</title>
<polygon fill="#f7fcf5" stroke="#f7fcf5" points="380,-73 310,-73 310,-35 380,-35 380,-73"/>
<text text-anchor="start" x="318" y="-57.8" font-family="Helvetica,sans-Serif" font-size="14.00" fill="darkgreen">*Lower* </text>
<text text-anchor="start" x="318.5" y="-42.8" font-family="Helvetica,sans-Serif" font-size="14.00" fill="#006d2c">mortality</text>
</g>
<!-- *Increased* percentage of children vaccinated&#45;&gt;*Lower* mortality -->
<g id="edge1" class="edge"><title>*Increased* percentage of children vaccinated&#45;&gt;*Lower* mortality</title>
<path fill="none" stroke="#41ab5d" stroke-width="2" d="M260.245,-54C273.044,-54 286.878,-54 299.545,-54"/>
<polygon fill="#41ab5d" stroke="#41ab5d" stroke-width="2" points="299.862,-57.5001 309.862,-54 299.862,-50.5001 299.862,-57.5001"/>
</g>
<!-- *Larger* extent of vaccination programme -->
<g id="node3" class="node"><title>*Larger* extent of vaccination programme</title>
<polygon fill="#f7fcf5" stroke="#f7fcf5" points="115,-79 0,-79 0,-29 115,-29 115,-79"/>
<text text-anchor="start" x="8" y="-64.8" font-family="Helvetica,sans-Serif" font-size="14.00" fill="darkgreen">*Larger* </text>
<text text-anchor="start" x="64" y="-64.8" font-family="Helvetica,sans-Serif" font-size="14.00" fill="#006d2c"> extent</text>
<text text-anchor="start" x="14" y="-50.8" font-family="Helvetica,sans-Serif" font-size="14.00" fill="#006d2c">of vaccination</text>
<text text-anchor="start" x="20.5" y="-36.8" font-family="Helvetica,sans-Serif" font-size="14.00" fill="#006d2c">programme</text>
</g>
<!-- *Larger* extent of vaccination programme&#45;&gt;*Increased* percentage of children vaccinated -->
<g id="edge2" class="edge"><title>*Larger* extent of vaccination programme&#45;&gt;*Increased* percentage of children vaccinated</title>
<path fill="none" stroke="#41ab5d" stroke-width="2" d="M115.037,-54C127.933,-54 141.644,-54 154.557,-54"/>
<polygon fill="#41ab5d" stroke="#41ab5d" stroke-width="2" points="154.712,-57.5001 164.712,-54 154.711,-50.5001 154.712,-57.5001"/>
</g>
</g>
</svg>
