<?xml version="1.0" encoding="UTF-8" standalone="no"?>
<!DOCTYPE svg PUBLIC "-//W3C//DTD SVG 1.1//EN"
 "http://www.w3.org/Graphics/SVG/1.1/DTD/svg11.dtd">
<!-- Generated by graphviz version 2.38.0 (20140413.2041)
 -->
<!-- Title: foo Pages: 1 -->
<svg width="454pt" height="153pt"
 viewBox="0.00 0.00 454.00 153.00" xmlns="http://www.w3.org/2000/svg" xmlns:xlink="http://www.w3.org/1999/xlink">
<g id="graph0" class="graph" transform="scale(1 1) rotate(0) translate(4 149)">
<title>foo</title>
<g id="a_graph0"><a xlink:title=" ">
<polygon fill="white" stroke="none" points="-4,4 -4,-149 450,-149 450,4 -4,4"/>
</a>
</g>
<g id="clust2" class="cluster"><title>cluster_InfluenceVariables</title>
<g id="a_clust2"><a xlink:title=" ">
<path fill="#efedf5" stroke="#efedf5" d="M20,-8C20,-8 208,-8 208,-8 214,-8 220,-14 220,-20 220,-20 220,-125 220,-125 220,-131 214,-137 208,-137 208,-137 20,-137 20,-137 14,-137 8,-131 8,-125 8,-125 8,-20 8,-20 8,-14 14,-8 20,-8"/>
<text text-anchor="start" x="16" y="-121.8" font-family="arial" font-size="14.00">Influence Variables</text>
</a>
</g>
</g>
<g id="clust1" class="cluster"><title>cluster_ConsequenceVariable</title>
<g id="a_clust1"><a xlink:title=" ">
<path fill="#efedf5" stroke="#efedf5" d="M266,-24C266,-24 426,-24 426,-24 432,-24 438,-30 438,-36 438,-36 438,-105 438,-105 438,-111 432,-117 426,-117 426,-117 266,-117 266,-117 260,-117 254,-111 254,-105 254,-105 254,-36 254,-36 254,-30 260,-24 266,-24"/>
<text text-anchor="start" x="262" y="-101.8" font-family="arial" font-size="14.00">Consequence Variable</text>
</a>
</g>
</g>
<!-- Student feels they live up to expectations -->
<g id="node1" class="node"><title>Student feels they live up to expectations</title>
<polygon fill="#e5f5e0" stroke="#e5f5e0" stroke-width="2" points="209.5,-106 18.5,-106 18.5,-68 209.5,-68 209.5,-106"/>
<text text-anchor="start" x="26.5" y="-90.8" font-family="arial" font-size="14.00">Student feels they live up to</text>
<text text-anchor="start" x="73.5" y="-75.8" font-family="arial" font-size="14.00">expectations</text>
</g>
<!-- Student satisfaction with school. Function: &#39;same direction&#39; -->
<g id="node2" class="node"><title>Student satisfaction with school. Function: &#39;same direction&#39;</title>
<polygon fill="#e5f5e0" stroke="#e5f5e0" stroke-width="2" points="430,-85.5 262,-85.5 262,-32.5 430,-32.5 430,-85.5"/>
<text text-anchor="start" x="270" y="-70.3" font-family="arial" font-size="14.00">Student satisfaction with</text>
<text text-anchor="start" x="271" y="-55.3" font-family="arial" font-size="14.00">school. Function: &#39;same</text>
<text text-anchor="start" x="317" y="-40.3" font-family="arial" font-size="14.00">direction&#39;</text>
</g>
<!-- Student feels they live up to expectations&#45;&gt;Student satisfaction with school. Function: &#39;same direction&#39; -->
<g id="edge1" class="edge"><title>Student feels they live up to expectations&#45;&gt;Student satisfaction with school. Function: &#39;same direction&#39;</title>
<path fill="none" stroke="#41ab5d" d="M209.545,-75.4901C223.504,-73.7909 237.877,-72.041 251.808,-70.3452"/>
<polygon fill="#41ab5d" stroke="#41ab5d" points="252.357,-73.8042 261.861,-69.1213 251.511,-66.8555 252.357,-73.8042"/>
</g>
<!-- Student feels supported and liked -->
<g id="node3" class="node"><title>Student feels supported and liked</title>
<polygon fill="#e5f5e0" stroke="#e5f5e0" stroke-width="2" points="212,-54 16,-54 16,-16 212,-16 212,-54"/>
<text text-anchor="start" x="24" y="-38.8" font-family="arial" font-size="14.00">Student feels supported and</text>
<text text-anchor="start" x="99" y="-23.8" font-family="arial" font-size="14.00">liked</text>
</g>
<!-- Student feels supported and liked&#45;&gt;Student satisfaction with school. Function: &#39;same direction&#39; -->
<g id="edge2" class="edge"><title>Student feels supported and liked&#45;&gt;Student satisfaction with school. Function: &#39;same direction&#39;</title>
<path fill="none" stroke="#41ab5d" d="M212.207,-45.1434C225.267,-46.5062 238.641,-47.9017 251.633,-49.2573"/>
<polygon fill="#41ab5d" stroke="#41ab5d" points="251.647,-52.7778 261.956,-50.3346 252.374,-45.8156 251.647,-52.7778"/>
</g>
</g>
</svg>
