<?xml version="1.0" encoding="UTF-8" standalone="no"?>
<!DOCTYPE svg PUBLIC "-//W3C//DTD SVG 1.1//EN"
 "http://www.w3.org/Graphics/SVG/1.1/DTD/svg11.dtd">
<!-- Generated by graphviz version 2.38.0 (20140413.2041)
 -->
<!-- Title: foo Pages: 1 -->
<svg width="685pt" height="46pt"
 viewBox="0.00 0.00 685.00 46.00" xmlns="http://www.w3.org/2000/svg" xmlns:xlink="http://www.w3.org/1999/xlink">
<g id="graph0" class="graph" transform="scale(1 1) rotate(0) translate(4 42)">
<title>foo</title>
<g id="a_graph0"><a xlink:title=" ">
<polygon fill="white" stroke="none" points="-4,4 -4,-42 681,-42 681,4 -4,4"/>
</a>
</g>
<!-- Student satisfaction with school -->
<g id="node1" class="node"><title>Student satisfaction with school</title>
<polygon fill="#e5f5e0" stroke="#e5f5e0" stroke-width="2" points="424,-38 256,-38 256,-0 424,-0 424,-38"/>
<text text-anchor="start" x="264" y="-22.8" font-family="arial" font-size="14.00">Student satisfaction with</text>
<text text-anchor="start" x="318.5" y="-7.8" font-family="arial" font-size="14.00">school</text>
</g>
<!-- How much student behaves positively at school -->
<g id="node2" class="node"><title>How much student behaves positively at school</title>
<polygon fill="#e5f5e0" stroke="#e5f5e0" stroke-width="2" points="677,-38 486,-38 486,-0 677,-0 677,-38"/>
<text text-anchor="start" x="494" y="-22.8" font-family="arial" font-size="14.00">How much student behaves</text>
<text text-anchor="start" x="521.5" y="-7.8" font-family="arial" font-size="14.00">positively at school</text>
</g>
<!-- Student satisfaction with school&#45;&gt;How much student behaves positively at school -->
<g id="edge1" class="edge"><title>Student satisfaction with school&#45;&gt;How much student behaves positively at school</title>
<path fill="none" stroke="#41ab5d" d="M424.093,-19C440.695,-19 458.338,-19 475.564,-19"/>
<polygon fill="#41ab5d" stroke="#41ab5d" points="475.648,-22.5001 485.648,-19 475.648,-15.5001 475.648,-22.5001"/>
<text text-anchor="start" x="449" y="-22.8" font-family="Times New Roman,serif" font-size="14.00">⊕</text>
</g>
<!-- How much student feels that they live up to expectations -->
<g id="node3" class="node"><title>How much student feels that they live up to expectations</title>
<polygon fill="#e5f5e0" stroke="#e5f5e0" stroke-width="2" points="194,-38 0,-38 0,-0 194,-0 194,-38"/>
<text text-anchor="start" x="8" y="-22.8" font-family="arial" font-size="14.00">How much student feels that</text>
<text text-anchor="start" x="11.5" y="-7.8" font-family="arial" font-size="14.00">they live up to expectations</text>
</g>
<!-- How much student feels that they live up to expectations&#45;&gt;Student satisfaction with school -->
<g id="edge2" class="edge"><title>How much student feels that they live up to expectations&#45;&gt;Student satisfaction with school</title>
<path fill="none" stroke="#41ab5d" d="M194.289,-19C211.118,-19 228.604,-19 245.36,-19"/>
<polygon fill="#41ab5d" stroke="#41ab5d" points="245.686,-22.5001 255.686,-19 245.686,-15.5001 245.686,-22.5001"/>
<text text-anchor="start" x="219" y="-22.8" font-family="Times New Roman,serif" font-size="14.00">⊕</text>
</g>
</g>
</svg>
