<?xml version="1.0" encoding="UTF-8" standalone="no"?>
<!DOCTYPE svg PUBLIC "-//W3C//DTD SVG 1.1//EN"
 "http://www.w3.org/Graphics/SVG/1.1/DTD/svg11.dtd">
<!-- Generated by graphviz version 2.38.0 (20140413.2041)
 -->
<!-- Title: foo Pages: 1 -->
<svg width="496pt" height="183pt"
 viewBox="0.00 0.00 496.00 183.00" xmlns="http://www.w3.org/2000/svg" xmlns:xlink="http://www.w3.org/1999/xlink">
<g id="graph0" class="graph" transform="scale(1 1) rotate(0) translate(4 179)">
<title>foo</title>
<g id="a_graph0"><a xlink:title=" ">
<polygon fill="white" stroke="none" points="-4,4 -4,-179 492,-179 492,4 -4,4"/>
<text text-anchor="start" x="8" y="-148.6" font-family="arial" font-size="28.00">A flow of apples from tree to consumer</text>
</a>
</g>
<!-- Valve 3 -->
<g id="node1" class="node"><title>Valve 3</title>
<polygon fill="none" stroke="none" stroke-width="2" points="317.602,-136 263.602,-136 263.602,-100 317.602,-100 317.602,-136"/>
<text text-anchor="start" x="276.602" y="-116.1" font-family="arial" font-size="8.00">Valve 3</text>
</g>
<!-- Consumer -->
<g id="node2" class="node"><title>Consumer</title>
<ellipse fill="#e5f5e0" stroke="#e5f5e0" stroke-width="2" cx="421.547" cy="-93" rx="53.8905" ry="18"/>
<text text-anchor="start" x="388.047" y="-89.3" font-family="arial" font-size="14.00">Consumer</text>
</g>
<!-- Valve 3&#45;&gt;Consumer -->
<g id="edge1" class="edge"><title>Valve 3&#45;&gt;Consumer</title>
<path fill="none" stroke="#bdbdbd" d="M317.814,-109.256C325.243,-106.778 333.324,-104.083 340.729,-101.612"/>
<polyline fill="none" stroke="#bdbdbd" points="366.547,-93 361.804,-94.5822 "/>
<polyline fill="none" stroke="#bdbdbd" points="361.804,-94.5822 357.061,-96.1644 "/>
<polyline fill="none" stroke="#bdbdbd" points="357.061,-96.1644 352.318,-97.7466 "/>
<polygon fill="#bdbdbd" stroke="#bdbdbd" points="340.935,-101.544 345.361,-95.8507 352.318,-97.7466 347.892,-103.44 340.935,-101.544"/>
</g>
<!-- Shop -->
<g id="node3" class="node"><title>Shop</title>
<polygon fill="#e5f5e0" stroke="#e5f5e0" stroke-width="2" points="317.602,-86 263.602,-86 263.602,-50 317.602,-50 317.602,-86"/>
<text text-anchor="start" x="273.602" y="-64.3" font-family="arial" font-size="14.00">Shop</text>
</g>
<!-- Shop&#45;&gt;Consumer -->
<g id="edge2" class="edge"><title>Shop&#45;&gt;Consumer</title>
<path fill="none" stroke="#bdbdbd" stroke-width="3" d="M317.814,-76.7438C331.322,-81.2496 346.981,-86.4732 356.826,-89.7573"/>
<polygon fill="#bdbdbd" stroke="#bdbdbd" stroke-width="3" points="355.954,-93.1557 366.547,-93 358.169,-86.5154 355.954,-93.1557"/>
</g>
<!-- Valve 2 -->
<g id="node4" class="node"><title>Valve 2</title>
<polygon fill="none" stroke="none" stroke-width="2" points="195.602,-111 141.602,-111 141.602,-75 195.602,-75 195.602,-111"/>
<text text-anchor="start" x="154.602" y="-91.1" font-family="arial" font-size="8.00">Valve 2</text>
</g>
<!-- Valve 2&#45;&gt;Shop -->
<g id="edge3" class="edge"><title>Valve 2&#45;&gt;Shop</title>
<path fill="none" stroke="#bdbdbd" d="M196.003,-85.9029C208.677,-82.496 223.817,-78.4262 236.457,-75.0283"/>
<polyline fill="none" stroke="#bdbdbd" points="262.602,-68 257.773,-69.298 "/>
<polyline fill="none" stroke="#bdbdbd" points="257.773,-69.298 252.945,-70.596 "/>
<polyline fill="none" stroke="#bdbdbd" points="252.945,-70.596 248.116,-71.8941 "/>
<polygon fill="#bdbdbd" stroke="#bdbdbd" points="236.528,-75.0093 241.284,-69.5888 248.116,-71.8941 243.36,-77.3145 236.528,-75.0093"/>
</g>
<!-- Warehouse -->
<g id="node5" class="node"><title>Warehouse</title>
<polygon fill="#e5f5e0" stroke="#e5f5e0" stroke-width="2" points="213.602,-61 123.602,-61 123.602,-25 213.602,-25 213.602,-61"/>
<text text-anchor="start" x="131.602" y="-39.3" font-family="arial" font-size="14.00">Warehouse</text>
</g>
<!-- Warehouse&#45;&gt;Shop -->
<g id="edge4" class="edge"><title>Warehouse&#45;&gt;Shop</title>
<path fill="none" stroke="#bdbdbd" stroke-width="3" d="M213.651,-54.8411C228.299,-58.7787 243.272,-62.8038 252.735,-65.3475"/>
<polygon fill="#bdbdbd" stroke="#bdbdbd" stroke-width="3" points="252.036,-68.7839 262.602,-68 253.854,-62.0239 252.036,-68.7839"/>
</g>
<!-- Valve 1 -->
<g id="node6" class="node"><title>Valve 1</title>
<polygon fill="none" stroke="none" stroke-width="2" points="70.0548,-86 16.0548,-86 16.0548,-50 70.0548,-50 70.0548,-86"/>
<text text-anchor="start" x="29.0548" y="-66.1" font-family="arial" font-size="8.00">Valve 1</text>
</g>
<!-- Valve 1&#45;&gt;Warehouse -->
<g id="edge5" class="edge"><title>Valve 1&#45;&gt;Warehouse</title>
<path fill="none" stroke="#bdbdbd" d="M70.2099,-59.6754C78.7784,-56.9482 88.2882,-53.9214 96.8284,-51.2032"/>
<polyline fill="none" stroke="#bdbdbd" points="122.602,-43 117.838,-44.5165 "/>
<polyline fill="none" stroke="#bdbdbd" points="117.838,-44.5165 113.073,-46.0329 "/>
<polyline fill="none" stroke="#bdbdbd" points="113.073,-46.0329 108.309,-47.5494 "/>
<polygon fill="#bdbdbd" stroke="#bdbdbd" points="96.8738,-51.1889 101.378,-45.5575 108.309,-47.5494 103.804,-53.1807 96.8738,-51.1889"/>
</g>
<!-- Tree -->
<g id="node7" class="node"><title>Tree</title>
<ellipse fill="#e5f5e0" stroke="#e5f5e0" stroke-width="2" cx="43.0548" cy="-18" rx="30.5947" ry="18"/>
<text text-anchor="start" x="27.5548" y="-14.3" font-family="arial" font-size="14.00">Tree</text>
</g>
<!-- Tree&#45;&gt;Warehouse -->
<g id="edge6" class="edge"><title>Tree&#45;&gt;Warehouse</title>
<path fill="none" stroke="#bdbdbd" stroke-width="3" d="M70.2099,-26.3246C84.8478,-30.9836 102.233,-36.5168 112.838,-39.8922"/>
<polygon fill="#bdbdbd" stroke="#bdbdbd" stroke-width="3" points="112.012,-43.3022 122.602,-43 114.135,-36.6319 112.012,-43.3022"/>
</g>
</g>
</svg>
