<?xml version="1.0" encoding="UTF-8" standalone="no"?>
<!DOCTYPE svg PUBLIC "-//W3C//DTD SVG 1.1//EN"
 "http://www.w3.org/Graphics/SVG/1.1/DTD/svg11.dtd">
<!-- Generated by graphviz version 2.38.0 (20140413.2041)
 -->
<!-- Title: foo Pages: 1 -->
<svg width="266pt" height="114pt"
 viewBox="0.00 0.00 266.00 113.50" xmlns="http://www.w3.org/2000/svg" xmlns:xlink="http://www.w3.org/1999/xlink">
<g id="graph0" class="graph" transform="scale(1 1) rotate(0) translate(4 109.5)">
<title>foo</title>
<g id="a_graph0"><a xlink:title=" ">
<polygon fill="white" stroke="none" points="-4,4 -4,-109.5 262,-109.5 262,4 -4,4"/>
</a>
</g>
<!-- axsxdf -->
<!-- Subjective temperature !lohi -->
<g id="node2" class="node"><title>Subjective temperature !lohi</title>
<polygon fill="#e5f5e0" stroke="#e5f5e0" stroke-width="2" points="258,-64 150,-64 150,-26 258,-26 258,-64"/>
<text text-anchor="start" x="170.5" y="-48.8" font-family="arial" font-size="14.00">Subjective</text>
<text text-anchor="start" x="158" y="-33.8" font-family="arial" font-size="14.00">temperature ◪</text>
</g>
<!-- axsxdf&#45;&gt;Subjective temperature !lohi -->
<g id="edge1" class="edge"><title>axsxdf&#45;&gt;Subjective temperature !lohi</title>
<path fill="none" stroke="#41ab5d" stroke-width="0" d="M49.8644,-104.482C57.9316,-103.537 74.5252,-101.232 88,-97 111.658,-89.5702 136.872,-78.5475 157.644,-68.5604"/>
<polygon fill="#41ab5d" stroke="#41ab5d" stroke-width="0" points="159.405,-71.5955 166.853,-64.0612 156.332,-65.3059 159.405,-71.5955"/>
</g>
<!-- Strength of sunshine !lohi -->
<g id="node3" class="node"><title>Strength of sunshine !lohi</title>
<polygon fill="#e5f5e0" stroke="#e5f5e0" stroke-width="2" points="88,-90 0,-90 0,-52 88,-52 88,-90"/>
<text text-anchor="start" x="9" y="-74.8" font-family="arial" font-size="14.00">Strength of</text>
<text text-anchor="start" x="8" y="-59.8" font-family="arial" font-size="14.00">sunshine ◪</text>
</g>
<!-- Strength of sunshine !lohi&#45;&gt;Subjective temperature !lohi -->
<g id="edge2" class="edge"><title>Strength of sunshine !lohi&#45;&gt;Subjective temperature !lohi</title>
<path fill="none" stroke="#41ab5d" d="M88.1742,-63.8954C104.061,-61.2811 122.4,-58.2633 139.694,-55.4175"/>
<polygon fill="#41ab5d" stroke="#41ab5d" points="140.43,-58.8435 149.729,-53.7662 139.293,-51.9364 140.43,-58.8435"/>
<text text-anchor="start" x="113" y="-63.8" font-family="Times New Roman,serif" font-size="14.00">⇈</text>
</g>
<!-- Strength of wind !lohi -->
<g id="node4" class="node"><title>Strength of wind !lohi</title>
<polygon fill="#e5f5e0" stroke="#e5f5e0" stroke-width="2" points="87,-38 1,-38 1,-0 87,-0 87,-38"/>
<text text-anchor="start" x="9" y="-22.8" font-family="arial" font-size="14.00">Strength of</text>
<text text-anchor="start" x="22" y="-7.8" font-family="arial" font-size="14.00">wind ◪</text>
</g>
<!-- Strength of wind !lohi&#45;&gt;Subjective temperature !lohi -->
<g id="edge3" class="edge"><title>Strength of wind !lohi&#45;&gt;Subjective temperature !lohi</title>
<path fill="none" stroke="#41ab5d" d="M87.3411,-25.9675C103.388,-28.6081 122.027,-31.6753 139.595,-34.5663"/>
<polygon fill="#41ab5d" stroke="#41ab5d" points="139.352,-38.0732 149.787,-36.2435 140.488,-31.1661 139.352,-38.0732"/>
<text text-anchor="start" x="113" y="-35.8" font-family="Times New Roman,serif" font-size="14.00">⇅</text>
</g>
</g>
</svg>
