<?xml version="1.0" encoding="UTF-8" standalone="no"?>
<!DOCTYPE svg PUBLIC "-//W3C//DTD SVG 1.1//EN"
 "http://www.w3.org/Graphics/SVG/1.1/DTD/svg11.dtd">
<!-- Generated by graphviz version 2.38.0 (20140413.2041)
 -->
<!-- Title: foo Pages: 1 -->
<svg width="403pt" height="158pt"
 viewBox="0.00 0.00 403.00 158.00" xmlns="http://www.w3.org/2000/svg" xmlns:xlink="http://www.w3.org/1999/xlink">
<g id="graph0" class="graph" transform="scale(1 1) rotate(0) translate(4 154)">
<title>foo</title>
<g id="a_graph0"><a xlink:title=" ">
<polygon fill="white" stroke="none" points="-4,4 -4,-154 399,-154 399,4 -4,4"/>
</a>
</g>
<!-- cn -->
<g id="node1" class="node"><title>cn</title>
<polygon fill="#e5f5e0" stroke="#e5f5e0" stroke-width="2" points="259,-68 149,-68 149,-0 259,-0 259,-68"/>
<text text-anchor="start" x="172" y="-52.8" font-family="arial" font-size="14.00">Children&#39;s</text>
<text text-anchor="start" x="166" y="-37.8" font-family="arial" font-size="14.00">non&#45;musical</text>
<text text-anchor="start" x="176.5" y="-22.8" font-family="arial" font-size="14.00">creativity</text>
<text text-anchor="start" x="157" y="-7.8" font-family="arial" font-size="14.00">(several areas)</text>
</g>
<!-- Children&#39;s general creativity is increased -->
<g id="node2" class="node"><title>Children&#39;s general creativity is increased</title>
<polygon fill="none" stroke="#e5f5e0" stroke-width="2" stroke-dasharray="1,5" points="395,-109 309,-109 309,-41 395,-41 395,-109"/>
<text text-anchor="start" x="320" y="-93.8" font-family="arial" font-size="14.00">Children&#39;s</text>
<text text-anchor="start" x="328" y="-78.8" font-family="arial" font-size="14.00">general</text>
<text text-anchor="start" x="317" y="-63.8" font-family="arial" font-size="14.00">creativity is</text>
<text text-anchor="start" x="320.5" y="-48.8" font-family="arial" font-size="14.00">increased</text>
</g>
<!-- cn&#45;&gt;Children&#39;s general creativity is increased -->
<g id="edge1" class="edge"><title>cn&#45;&gt;Children&#39;s general creativity is increased</title>
<path fill="none" stroke="#41ab5d" d="M259.365,-49.2669C272.415,-52.9317 286.317,-56.8357 299.245,-60.4662"/>
<polygon fill="#41ab5d" stroke="#41ab5d" points="298.338,-63.8466 308.912,-63.1806 300.23,-57.1073 298.338,-63.8466"/>
</g>
<!-- cm -->
<g id="node3" class="node"><title>cm</title>
<polygon fill="#e5f5e0" stroke="#e5f5e0" stroke-width="2" points="247,-150 161,-150 161,-82 247,-82 247,-150"/>
<text text-anchor="start" x="172" y="-134.8" font-family="arial" font-size="14.00">Children&#39;s</text>
<text text-anchor="start" x="179.5" y="-119.8" font-family="arial" font-size="14.00">musical</text>
<text text-anchor="start" x="169" y="-104.8" font-family="arial" font-size="14.00">creativity is</text>
<text text-anchor="start" x="172.5" y="-89.8" font-family="arial" font-size="14.00">increased</text>
</g>
<!-- cn&#45;&gt;cm -->
<!-- cm&#45;&gt;cn -->
<g id="edge4" class="edge"><title>cm&#45;&gt;cn</title>
<path fill="none" stroke="#41ab5d" d="M244.15,-81.6965C244.517,-80.5779 244.793,-79.4594 244.976,-78.3408"/>
<polygon fill="#41ab5d" stroke="#41ab5d" points="248.456,-77.9493 244.14,-68.2734 241.48,-78.5289 248.456,-77.9493"/>
</g>
<!-- cm&#45;&gt;Children&#39;s general creativity is increased -->
<g id="edge2" class="edge"><title>cm&#45;&gt;Children&#39;s general creativity is increased</title>
<path fill="none" stroke="#41ab5d" d="M247.229,-104.141C263.421,-99.594 282.086,-94.3526 299.082,-89.5796"/>
<polygon fill="#41ab5d" stroke="#41ab5d" points="300.184,-92.9056 308.866,-86.8322 298.292,-86.1663 300.184,-92.9056"/>
</g>
<!-- Children take part in the project -->
<g id="node4" class="node"><title>Children take part in the project</title>
<polygon fill="#e5f5e0" stroke="#e5f5e0" stroke-width="2" points="99,-142.5 0,-142.5 0,-89.5 99,-89.5 99,-142.5"/>
<text text-anchor="start" x="8" y="-127.3" font-family="arial" font-size="14.00">Children take</text>
<text text-anchor="start" x="18.5" y="-112.3" font-family="arial" font-size="14.00">part in the</text>
<text text-anchor="start" x="27.5" y="-97.3" font-family="arial" font-size="14.00">project</text>
</g>
<!-- Children take part in the project&#45;&gt;cm -->
<g id="edge3" class="edge"><title>Children take part in the project&#45;&gt;cm</title>
<path fill="none" stroke="#41ab5d" d="M99.1712,-116C115.63,-116 134.069,-116 150.791,-116"/>
<polygon fill="#41ab5d" stroke="#41ab5d" points="150.947,-119.5 160.947,-116 150.947,-112.5 150.947,-119.5"/>
</g>
</g>
</svg>
