<?xml version="1.0" encoding="UTF-8" standalone="no"?>
<!DOCTYPE svg PUBLIC "-//W3C//DTD SVG 1.1//EN"
 "http://www.w3.org/Graphics/SVG/1.1/DTD/svg11.dtd">
<!-- Generated by graphviz version 2.38.0 (20140413.2041)
 -->
<!-- Title: foo Pages: 1 -->
<svg width="351pt" height="182pt"
 viewBox="0.00 0.00 351.00 182.00" xmlns="http://www.w3.org/2000/svg" xmlns:xlink="http://www.w3.org/1999/xlink">
<g id="graph0" class="graph" transform="scale(1 1) rotate(0) translate(4 178)">
<title>foo</title>
<g id="a_graph0"><a xlink:title=" ">
<polygon fill="#c7e9c0" stroke="none" points="-4,4 -4,-178 347,-178 347,4 -4,4"/>
<text text-anchor="start" x="133.5" y="-7.2" font-family="tahoma" font-size="11.00" fill="#238b45">Try this instead</text>
</a>
</g>
<g id="clust1" class="cluster"><title>cluster_Teachersintroducematerialswhichhelpchildrenimproveskills</title>
<g id="a_clust1"><a xlink:title=" ">
<path fill="#ffffff" fill-opacity="0.313725" stroke="#ffffff" stroke-opacity="0.313725" d="M20,-28C20,-28 323,-28 323,-28 329,-28 335,-34 335,-40 335,-40 335,-154 335,-154 335,-160 329,-166 323,-166 323,-166 20,-166 20,-166 14,-166 8,-160 8,-154 8,-154 8,-40 8,-40 8,-34 14,-28 20,-28"/>
<text text-anchor="start" x="18" y="-150.8" font-family="Helvetica,sans-Serif" font-size="14.00">Teachers introduce</text>
<text text-anchor="start" x="16" y="-135.8" font-family="Helvetica,sans-Serif" font-size="14.00">materials which help</text>
<text text-anchor="start" x="27" y="-120.8" font-family="Helvetica,sans-Serif" font-size="14.00">children improve</text>
<text text-anchor="start" x="64" y="-105.8" font-family="Helvetica,sans-Serif" font-size="14.00">skills</text>
</a>
</g>
</g>
<!-- A) Teachers introduce critical thinking material -->
<g id="node1" class="node"><title>A) Teachers introduce critical thinking material</title>
<polygon fill="#f7fcf5" stroke="#f7fcf5" points="135,-89.5 16,-89.5 16,-36.5 135,-36.5 135,-89.5"/>
<text text-anchor="start" x="36" y="-74.3" font-family="Helvetica,sans-Serif" font-size="14.00" fill="#006d2c">A) Teachers</text>
<text text-anchor="start" x="24" y="-59.3" font-family="Helvetica,sans-Serif" font-size="14.00" fill="#006d2c">introduce critical</text>
<text text-anchor="start" x="25" y="-44.3" font-family="Helvetica,sans-Serif" font-size="14.00" fill="#006d2c">thinking material</text>
</g>
<!-- B) Children improve critical thinking skills -->
<g id="node2" class="node"><title>B) Children improve critical thinking skills</title>
<polygon fill="#f7fcf5" stroke="#f7fcf5" points="327,-89.5 185,-89.5 185,-36.5 327,-36.5 327,-89.5"/>
<text text-anchor="start" x="193" y="-74.3" font-family="Helvetica,sans-Serif" font-size="14.00" fill="#006d2c">B) Children improve</text>
<text text-anchor="start" x="210.5" y="-59.3" font-family="Helvetica,sans-Serif" font-size="14.00" fill="#006d2c">critical thinking</text>
<text text-anchor="start" x="240.5" y="-44.3" font-family="Helvetica,sans-Serif" font-size="14.00" fill="#006d2c">skills</text>
</g>
<!-- A) Teachers introduce critical thinking material&#45;&gt;B) Children improve critical thinking skills -->
<g id="edge1" class="edge"><title>A) Teachers introduce critical thinking material&#45;&gt;B) Children improve critical thinking skills</title>
<path fill="none" stroke="#41ab5d" stroke-width="2" d="M135.442,-63C148.066,-63 161.608,-63 174.878,-63"/>
<polygon fill="#41ab5d" stroke="#41ab5d" stroke-width="2" points="174.952,-66.5001 184.952,-63 174.952,-59.5001 174.952,-66.5001"/>
</g>
</g>
</svg>
