<?xml version="1.0" encoding="UTF-8" standalone="no"?>
<!DOCTYPE svg PUBLIC "-//W3C//DTD SVG 1.1//EN"
 "http://www.w3.org/Graphics/SVG/1.1/DTD/svg11.dtd">
<!-- Generated by graphviz version 2.38.0 (20140413.2041)
 -->
<!-- Title: foo Pages: 1 -->
<svg width="533pt" height="134pt"
 viewBox="0.00 0.00 533.00 134.00" xmlns="http://www.w3.org/2000/svg" xmlns:xlink="http://www.w3.org/1999/xlink">
<g id="graph0" class="graph" transform="scale(1 1) rotate(0) translate(4 130)">
<title>foo</title>
<g id="a_graph0"><a xlink:title=" ">
<polygon fill="white" stroke="none" points="-4,4 -4,-130 529,-130 529,4 -4,4"/>
</a>
</g>
<!-- S -->
<g id="node1" class="node"><title>S</title>
<polygon fill="#e5f5e0" stroke="#e5f5e0" stroke-width="2" points="525,-93 356,-93 356,-55 525,-55 525,-93"/>
<text text-anchor="start" x="423.5" y="-77.8" font-family="arial" font-size="14.00">Shop</text>
<text text-anchor="start" x="364" y="-62.8" font-family="arial" font-size="14.00">(Influence: downstream)</text>
</g>
<!-- S&#45;&gt;S -->
<g id="edge1" class="edge"><title>S&#45;&gt;S</title>
<path fill="none" stroke="#41ab5d" d="M416.594,-93.3208C415.531,-100.791 423.5,-107 440.5,-107 449.531,-107 456.014,-105.248 459.947,-102.485"/>
<polygon fill="#41ab5d" stroke="#41ab5d" points="463.178,-103.844 464.406,-93.3208 456.884,-100.781 463.178,-103.844"/>
<text text-anchor="start" x="420.5" y="-110.8" font-family="Times New Roman,serif" font-size="14.00">delay:1</text>
</g>
<!-- W -->
<g id="node2" class="node"><title>W</title>
<polygon fill="#e5f5e0" stroke="#e5f5e0" stroke-width="2" points="266,-38 115,-38 115,-0 266,-0 266,-38"/>
<text text-anchor="start" x="153.5" y="-22.8" font-family="arial" font-size="14.00">Warehouse</text>
<text text-anchor="start" x="123" y="-7.8" font-family="arial" font-size="14.00">(Influence: upstream)</text>
</g>
<!-- W&#45;&gt;S -->
<g id="edge2" class="edge"><title>W&#45;&gt;S</title>
<path fill="none" stroke="#41ab5d" d="M266.244,-35.5764C291.284,-41.1296 319.524,-47.3925 345.825,-53.2253"/>
<polygon fill="#41ab5d" stroke="#41ab5d" points="345.279,-56.6891 355.799,-55.4373 346.794,-49.8551 345.279,-56.6891"/>
<text text-anchor="start" x="291" y="-53.8" font-family="Times New Roman,serif" font-size="14.00">delay:1</text>
</g>
<!-- W&#45;&gt;W -->
<g id="edge3" class="edge"><title>W&#45;&gt;W</title>
<path fill="none" stroke="#41ab5d" d="M171.823,-38.3208C170.993,-45.791 177.219,-52 190.5,-52 197.348,-52 202.32,-50.3492 205.417,-47.726"/>
<polygon fill="#41ab5d" stroke="#41ab5d" points="208.714,-48.9056 209.177,-38.3208 202.215,-46.307 208.714,-48.9056"/>
<text text-anchor="start" x="170.5" y="-55.8" font-family="Times New Roman,serif" font-size="14.00">delay:1</text>
</g>
<!-- Valve 2 -->
<g id="node3" class="node"><title>Valve 2</title>
<polygon fill="#e5f5e0" stroke="#e5f5e0" stroke-width="2" points="64,-87 0,-87 0,-51 64,-51 64,-87"/>
<text text-anchor="start" x="8" y="-65.3" font-family="arial" font-size="14.00">Valve 2</text>
</g>
<!-- Valve 2&#45;&gt;S -->
<g id="edge4" class="edge"><title>Valve 2&#45;&gt;S</title>
<path fill="none" stroke="#41ab5d" d="M64.0845,-73.2214C79.3855,-75.0924 98.1257,-77.0767 115,-78 192.564,-82.2438 280.704,-80.7562 345.531,-78.4798"/>
<polygon fill="#41ab5d" stroke="#41ab5d" points="345.864,-81.9701 355.73,-78.1084 345.609,-74.9747 345.864,-81.9701"/>
</g>
<!-- Valve 2&#45;&gt;W -->
<g id="edge5" class="edge"><title>Valve 2&#45;&gt;W</title>
<path fill="none" stroke="#41ab5d" d="M64.294,-59.0019C80.3187,-53.8822 100.513,-47.4305 119.977,-41.2118"/>
<polygon fill="#41ab5d" stroke="#41ab5d" points="121.296,-44.4647 129.757,-38.0873 119.166,-37.7967 121.296,-44.4647"/>
</g>
</g>
</svg>
