<?xml version="1.0" encoding="UTF-8" standalone="no"?>
<!DOCTYPE svg PUBLIC "-//W3C//DTD SVG 1.1//EN"
 "http://www.w3.org/Graphics/SVG/1.1/DTD/svg11.dtd">
<!-- Generated by graphviz version 2.38.0 (20140413.2041)
 -->
<!-- Title: foo Pages: 1 -->
<svg width="478pt" height="215pt"
 viewBox="0.00 0.00 478.00 215.00" xmlns="http://www.w3.org/2000/svg" xmlns:xlink="http://www.w3.org/1999/xlink">
<g id="graph0" class="graph" transform="scale(1 1) rotate(0) translate(4 211)">
<title>foo</title>
<g id="a_graph0"><a xlink:title=" ">
<polygon fill="#c7e9c0" stroke="none" points="-4,4 -4,-211 474,-211 474,4 -4,4"/>
<text text-anchor="start" x="102" y="-7.2" font-family="tahoma" font-size="11.00" fill="#238b45">None of the Variables are expressed using Differences</text>
</a>
</g>
<!-- Output: student classwork scores -->
<g id="node1" class="node"><title>Output: student classwork scores</title>
<polygon fill="#fdd0a2" stroke="#fdd0a2" points="291,-132.5 165,-132.5 165,-94.5 291,-94.5 291,-132.5"/>
<text text-anchor="start" x="179.5" y="-117.3" font-family="Helvetica,sans-Serif" font-size="14.00" fill="#006d2c">Output: student</text>
<text text-anchor="start" x="173" y="-102.3" font-family="Helvetica,sans-Serif" font-size="14.00" fill="#006d2c">classwork scores</text>
</g>
<!-- Outcome: student exam results -->
<g id="node2" class="node"><title>Outcome: student exam results</title>
<polygon fill="#fd8d3c" stroke="#fd8d3c" points="470,-161.5 341,-161.5 341,-123.5 470,-123.5 470,-161.5"/>
<text text-anchor="start" x="349" y="-146.3" font-family="Helvetica,sans-Serif" font-size="14.00" fill="#006d2c">Outcome: student</text>
<text text-anchor="start" x="365" y="-131.3" font-family="Helvetica,sans-Serif" font-size="14.00" fill="#006d2c">exam results</text>
</g>
<!-- Output: student classwork scores&#45;&gt;Outcome: student exam results -->
<g id="edge1" class="edge"><title>Output: student classwork scores&#45;&gt;Outcome: student exam results</title>
<path fill="none" stroke="#41ab5d" stroke-width="2" d="M291.369,-123.806C304.166,-125.921 317.751,-128.165 330.901,-130.338"/>
<polygon fill="#41ab5d" stroke="#41ab5d" stroke-width="2" points="330.415,-133.805 340.852,-131.983 331.556,-126.899 330.415,-133.805"/>
</g>
<!-- Activity: student workshop 1 held !noyes  -->
<g id="node3" class="node"><title>Activity: student workshop 1 held !noyes </title>
<polygon fill="#fff5eb" stroke="#fff5eb" points="115,-140 0,-140 0,-87 115,-87 115,-140"/>
<text text-anchor="start" x="8" y="-124.8" font-family="Helvetica,sans-Serif" font-size="14.00" fill="#006d2c">Activity: student</text>
<text text-anchor="start" x="21" y="-109.8" font-family="Helvetica,sans-Serif" font-size="14.00" fill="#006d2c">workshop 1</text>
<text text-anchor="start" x="36" y="-94.8" font-family="Helvetica,sans-Serif" font-size="14.00" fill="#006d2c">held ◨</text>
</g>
<!-- Activity: student workshop 1 held !noyes &#45;&gt;Output: student classwork scores -->
<g id="edge2" class="edge"><title>Activity: student workshop 1 held !noyes &#45;&gt;Output: student classwork scores</title>
<path fill="none" stroke="#41ab5d" stroke-width="2" d="M115.077,-113.5C127.8,-113.5 141.471,-113.5 154.736,-113.5"/>
<polygon fill="#41ab5d" stroke="#41ab5d" stroke-width="2" points="154.78,-117 164.779,-113.5 154.779,-110 154.78,-117"/>
</g>
<!-- Activity: students given laptops !noyes  -->
<g id="node4" class="node"><title>Activity: students given laptops !noyes </title>
<polygon fill="#fff5eb" stroke="#fff5eb" points="111.5,-73 3.5,-73 3.5,-20 111.5,-20 111.5,-73"/>
<text text-anchor="start" x="33" y="-57.8" font-family="Helvetica,sans-Serif" font-size="14.00" fill="#006d2c">Activity:</text>
<text text-anchor="start" x="11.5" y="-42.8" font-family="Helvetica,sans-Serif" font-size="14.00" fill="#006d2c">students given</text>
<text text-anchor="start" x="26.5" y="-27.8" font-family="Helvetica,sans-Serif" font-size="14.00" fill="#006d2c">laptops ◨</text>
</g>
<!-- Activity: students given laptops !noyes &#45;&gt;Output: student classwork scores -->
<g id="edge3" class="edge"><title>Activity: students given laptops !noyes &#45;&gt;Output: student classwork scores</title>
<path fill="none" stroke="#41ab5d" stroke-width="2" d="M111.814,-67.6992C130.29,-75.0457 151.071,-83.3087 169.843,-90.773"/>
<polygon fill="#41ab5d" stroke="#41ab5d" stroke-width="2" points="168.58,-94.0371 179.165,-94.4797 171.166,-87.5324 168.58,-94.0371"/>
</g>
<!-- Output: student exam skills -->
<g id="node5" class="node"><title>Output: student exam skills</title>
<polygon fill="#fdd0a2" stroke="#fdd0a2" points="284.5,-191.5 171.5,-191.5 171.5,-153.5 284.5,-153.5 284.5,-191.5"/>
<text text-anchor="start" x="179.5" y="-176.3" font-family="Helvetica,sans-Serif" font-size="14.00" fill="#006d2c">Output: student</text>
<text text-anchor="start" x="193" y="-161.3" font-family="Helvetica,sans-Serif" font-size="14.00" fill="#006d2c">exam skills</text>
</g>
<!-- Output: student exam skills&#45;&gt;Outcome: student exam results -->
<g id="edge4" class="edge"><title>Output: student exam skills&#45;&gt;Outcome: student exam results</title>
<path fill="none" stroke="#41ab5d" stroke-width="2" d="M284.529,-163.008C299.192,-160.501 315.25,-157.756 330.713,-155.113"/>
<polygon fill="#41ab5d" stroke="#41ab5d" stroke-width="2" points="331.501,-158.529 340.768,-153.394 330.321,-151.629 331.501,-158.529"/>
</g>
<!-- Activity: student workshop 2 held !noyes  -->
<g id="node6" class="node"><title>Activity: student workshop 2 held !noyes </title>
<polygon fill="#fff5eb" stroke="#fff5eb" points="115,-207 0,-207 0,-154 115,-154 115,-207"/>
<text text-anchor="start" x="8" y="-191.8" font-family="Helvetica,sans-Serif" font-size="14.00" fill="#006d2c">Activity: student</text>
<text text-anchor="start" x="21" y="-176.8" font-family="Helvetica,sans-Serif" font-size="14.00" fill="#006d2c">workshop 2</text>
<text text-anchor="start" x="36" y="-161.8" font-family="Helvetica,sans-Serif" font-size="14.00" fill="#006d2c">held ◨</text>
</g>
<!-- Activity: student workshop 2 held !noyes &#45;&gt;Output: student exam skills -->
<g id="edge5" class="edge"><title>Activity: student workshop 2 held !noyes &#45;&gt;Output: student exam skills</title>
<path fill="none" stroke="#41ab5d" stroke-width="2" d="M115.077,-177.814C129.836,-177.113 145.87,-176.352 161.069,-175.63"/>
<polygon fill="#41ab5d" stroke="#41ab5d" stroke-width="2" points="161.608,-179.109 171.431,-175.138 161.276,-172.117 161.608,-179.109"/>
</g>
</g>
</svg>
