<?xml version="1.0" encoding="UTF-8" standalone="no"?>
<!DOCTYPE svg PUBLIC "-//W3C//DTD SVG 1.1//EN"
 "http://www.w3.org/Graphics/SVG/1.1/DTD/svg11.dtd">
<!-- Generated by graphviz version 2.38.0 (20140413.2041)
 -->
<!-- Title: foo Pages: 1 -->
<svg width="393pt" height="252pt"
 viewBox="0.00 0.00 392.66 252.40" xmlns="http://www.w3.org/2000/svg" xmlns:xlink="http://www.w3.org/1999/xlink">
<g id="graph0" class="graph" transform="scale(1 1) rotate(0) translate(4 248.402)">
<title>foo</title>
<g id="a_graph0"><a xlink:title=" ">
<polygon fill="white" stroke="none" points="-4,4 -4,-248.402 388.656,-248.402 388.656,4 -4,4"/>
</a>
</g>
<!-- b -->
<g id="node1" class="node"><title>b</title>
<ellipse fill="#e5f5e0" stroke="#e5f5e0" stroke-width="2" cx="267.642" cy="-122.201" rx="27" ry="18"/>
<text text-anchor="start" x="263.142" y="-118.501" font-family="arial" font-size="14.00">b</text>
</g>
<!-- a -->
<g id="node2" class="node"><title>a</title>
<ellipse fill="#e5f5e0" stroke="#e5f5e0" stroke-width="2" cx="207.482" cy="-18" rx="27" ry="18"/>
<text text-anchor="start" x="203.482" y="-14.3" font-family="arial" font-size="14.00">a</text>
</g>
<!-- b&#45;&gt;a -->
<g id="edge1" class="edge"><title>b&#45;&gt;a</title>
<path fill="none" stroke="#41ab5d" d="M257.708,-104.994C248.071,-88.3033 233.329,-62.7695 222.306,-43.6756"/>
<polygon fill="#41ab5d" stroke="#41ab5d" points="225.262,-41.7968 217.231,-34.8865 219.2,-45.2968 225.262,-41.7968"/>
</g>
<!-- c -->
<g id="node3" class="node"><title>c</title>
<ellipse fill="#e5f5e0" stroke="#e5f5e0" stroke-width="2" cx="87.1606" cy="-226.402" rx="27" ry="18"/>
<text text-anchor="start" x="83.1606" y="-222.702" font-family="arial" font-size="14.00">c</text>
</g>
<!-- c&#45;&gt;a -->
<g id="edge2" class="edge"><title>c&#45;&gt;a</title>
<path fill="none" stroke="#41ab5d" d="M97.007,-209.348C118.079,-172.85 167.653,-86.9857 192.596,-43.7825"/>
<polygon fill="#41ab5d" stroke="#41ab5d" points="195.699,-45.4081 197.668,-34.9978 189.637,-41.9081 195.699,-45.4081"/>
</g>
<!-- d -->
<g id="node4" class="node"><title>d</title>
<ellipse fill="#e5f5e0" stroke="#e5f5e0" stroke-width="2" cx="207.482" cy="-226.402" rx="27" ry="18"/>
<text text-anchor="start" x="202.982" y="-222.702" font-family="arial" font-size="14.00">d</text>
</g>
<!-- d&#45;&gt;b -->
<g id="edge3" class="edge"><title>d&#45;&gt;b</title>
<path fill="none" stroke="#41ab5d" d="M217.416,-209.196C227.053,-192.504 241.795,-166.971 252.818,-147.877"/>
<polygon fill="#41ab5d" stroke="#41ab5d" points="255.924,-149.498 257.893,-139.088 249.862,-145.998 255.924,-149.498"/>
</g>
<!-- d&#45;&gt;c -->
<g id="edge4" class="edge"><title>d&#45;&gt;c</title>
<path fill="none" stroke="#41ab5d" d="M180.479,-226.402C164.03,-226.402 142.772,-226.402 124.7,-226.402"/>
<polygon fill="#41ab5d" stroke="#41ab5d" points="124.489,-222.902 114.489,-226.402 124.489,-229.902 124.489,-222.902"/>
</g>
<!-- e -->
<g id="node5" class="node"><title>e</title>
<ellipse fill="#e5f5e0" stroke="#e5f5e0" stroke-width="2" cx="87.1606" cy="-18" rx="27" ry="18"/>
<text text-anchor="start" x="82.6606" y="-14.3" font-family="arial" font-size="14.00">e</text>
</g>
<!-- e&#45;&gt;b -->
<g id="edge5" class="edge"><title>e&#45;&gt;b</title>
<path fill="none" stroke="#41ab5d" d="M107.864,-29.9532C139.959,-48.4829 201.828,-84.2035 238.448,-105.346"/>
<polygon fill="#41ab5d" stroke="#41ab5d" points="236.77,-108.418 247.18,-110.387 240.27,-102.356 236.77,-108.418"/>
</g>
<!-- e&#45;&gt;c -->
<g id="edge6" class="edge"><title>e&#45;&gt;c</title>
<path fill="none" stroke="#41ab5d" d="M87.1606,-36.1298C87.1606,-72.4642 87.1606,-154.435 87.1606,-197.976"/>
<polygon fill="#41ab5d" stroke="#41ab5d" points="83.6607,-198.166 87.1606,-208.166 90.6607,-198.166 83.6607,-198.166"/>
</g>
<!-- f -->
<g id="node6" class="node"><title>f</title>
<ellipse fill="#e5f5e0" stroke="#e5f5e0" stroke-width="2" cx="27" cy="-122.201" rx="27" ry="18"/>
<text text-anchor="start" x="24.5" y="-118.501" font-family="arial" font-size="14.00">f</text>
</g>
<!-- f&#45;&gt;b -->
<g id="edge7" class="edge"><title>f&#45;&gt;b</title>
<path fill="none" stroke="#41ab5d" d="M54.137,-122.201C97.3093,-122.201 181.723,-122.201 230.478,-122.201"/>
<polygon fill="#41ab5d" stroke="#41ab5d" points="230.605,-125.701 240.604,-122.201 230.604,-118.701 230.605,-125.701"/>
</g>
<!-- f&#45;&gt;c -->
<g id="edge8" class="edge"><title>f&#45;&gt;c</title>
<path fill="none" stroke="#41ab5d" d="M36.9343,-139.408C46.5709,-156.099 61.3129,-181.633 72.3368,-200.727"/>
<polygon fill="#41ab5d" stroke="#41ab5d" points="69.38,-202.606 77.4111,-209.516 75.4422,-199.106 69.38,-202.606"/>
</g>
<!-- g -->
<g id="node7" class="node"><title>g</title>
<ellipse fill="#e5f5e0" stroke="#e5f5e0" stroke-width="2" cx="357.656" cy="-60.064" rx="27" ry="18"/>
<text text-anchor="start" x="353.156" y="-56.364" font-family="arial" font-size="14.00">g</text>
</g>
<!-- g&#45;&gt;b -->
<g id="edge9" class="edge"><title>g&#45;&gt;b</title>
<path fill="none" stroke="#41ab5d" d="M338.566,-73.2417C325.916,-81.9742 309.122,-93.5672 295.052,-103.28"/>
<polygon fill="#41ab5d" stroke="#41ab5d" points="292.946,-100.481 286.704,-109.042 296.922,-106.242 292.946,-100.481"/>
</g>
<!-- h -->
<g id="node8" class="node"><title>h</title>
<ellipse fill="#e5f5e0" stroke="#e5f5e0" stroke-width="2" cx="357.656" cy="-184.338" rx="27" ry="18"/>
<text text-anchor="start" x="353.656" y="-180.638" font-family="arial" font-size="14.00">h</text>
</g>
<!-- h&#45;&gt;b -->
<g id="edge10" class="edge"><title>h&#45;&gt;b</title>
<path fill="none" stroke="#41ab5d" d="M338.566,-171.161C325.916,-162.428 309.122,-150.835 295.052,-141.122"/>
<polygon fill="#41ab5d" stroke="#41ab5d" points="296.922,-138.161 286.704,-135.36 292.946,-143.921 296.922,-138.161"/>
</g>
</g>
</svg>
