<?xml version="1.0" encoding="UTF-8" standalone="no"?>
<!DOCTYPE svg PUBLIC "-//W3C//DTD SVG 1.1//EN"
 "http://www.w3.org/Graphics/SVG/1.1/DTD/svg11.dtd">
<!-- Generated by graphviz version 2.38.0 (20140413.2041)
 -->
<!-- Title: foo Pages: 1 -->
<svg width="489pt" height="188pt"
 viewBox="0.00 0.00 489.00 188.00" xmlns="http://www.w3.org/2000/svg" xmlns:xlink="http://www.w3.org/1999/xlink">
<g id="graph0" class="graph" transform="scale(1 1) rotate(0) translate(4 184)">
<title>foo</title>
<g id="a_graph0"><a xlink:title=" ">
<polygon fill="#c7e9c0" stroke="none" points="-4,4 -4,-184 485,-184 485,4 -4,4"/>
<text text-anchor="start" x="202.5" y="-7.2" font-family="tahoma" font-size="11.00" fill="#238b45">Try this instead</text>
</a>
</g>
<!-- Legislators have more favourable views -->
<g id="node1" class="node"><title>Legislators have more favourable views</title>
<polygon fill="#f7fcf5" stroke="#f7fcf5" points="352,-142 266,-142 266,-74 352,-74 352,-142"/>
<text text-anchor="start" x="274" y="-126.8" font-family="Helvetica,sans-Serif" font-size="14.00" fill="#006d2c">Legislators</text>
<text text-anchor="start" x="275.5" y="-111.8" font-family="Helvetica,sans-Serif" font-size="14.00" fill="#006d2c">have more</text>
<text text-anchor="start" x="275.5" y="-96.8" font-family="Helvetica,sans-Serif" font-size="14.00" fill="#006d2c">favourable</text>
<text text-anchor="start" x="291" y="-81.8" font-family="Helvetica,sans-Serif" font-size="14.00" fill="#006d2c">views</text>
</g>
<!-- Law on same&#45;sex marriage is passed -->
<g id="node2" class="node"><title>Law on same&#45;sex marriage is passed</title>
<polygon fill="#f7fcf5" stroke="#f7fcf5" points="481,-142 402,-142 402,-74 481,-74 481,-142"/>
<text text-anchor="start" x="418.5" y="-126.8" font-family="Helvetica,sans-Serif" font-size="14.00" fill="#006d2c">Law on</text>
<text text-anchor="start" x="410" y="-111.8" font-family="Helvetica,sans-Serif" font-size="14.00" fill="#006d2c">same&#45;sex</text>
<text text-anchor="start" x="413.5" y="-96.8" font-family="Helvetica,sans-Serif" font-size="14.00" fill="#006d2c">marriage</text>
<text text-anchor="start" x="410.5" y="-81.8" font-family="Helvetica,sans-Serif" font-size="14.00" fill="#006d2c">is passed</text>
</g>
<!-- Legislators have more favourable views&#45;&gt;Law on same&#45;sex marriage is passed -->
<g id="edge1" class="edge"><title>Legislators have more favourable views&#45;&gt;Law on same&#45;sex marriage is passed</title>
<path fill="none" stroke="#41ab5d" stroke-width="2" d="M352.009,-108C364.591,-108 378.499,-108 391.49,-108"/>
<polygon fill="#41ab5d" stroke="#41ab5d" stroke-width="2" points="391.669,-111.5 401.669,-108 391.669,-104.5 391.669,-111.5"/>
</g>
<!-- Other campaign &#160;lobbies legislators -->
<g id="node3" class="node"><title>Other campaign &#160;lobbies legislators</title>
<polygon fill="#f7fcf5" stroke="#f7fcf5" points="216,-180 135,-180 135,-112 216,-112 216,-180"/>
<text text-anchor="start" x="157.5" y="-164.8" font-family="Helvetica,sans-Serif" font-size="14.00" fill="#006d2c">Other</text>
<text text-anchor="start" x="144.5" y="-149.8" font-family="Helvetica,sans-Serif" font-size="14.00" fill="#006d2c">campaign</text>
<text text-anchor="start" x="152" y="-134.8" font-family="Helvetica,sans-Serif" font-size="14.00" fill="#006d2c">lobbies</text>
<text text-anchor="start" x="143" y="-119.8" font-family="Helvetica,sans-Serif" font-size="14.00" fill="#006d2c">legislators</text>
</g>
<!-- Other campaign &#160;lobbies legislators&#45;&gt;Legislators have more favourable views -->
<g id="edge2" class="edge"><title>Other campaign &#160;lobbies legislators&#45;&gt;Legislators have more favourable views</title>
<path fill="none" stroke="#41ab5d" stroke-width="2" d="M216.311,-134.496C228.72,-130.91 242.598,-126.9 255.726,-123.106"/>
<polygon fill="#41ab5d" stroke="#41ab5d" stroke-width="2" points="256.947,-126.396 265.582,-120.258 255.004,-119.671 256.947,-126.396"/>
</g>
<!-- Public opinion improves -->
<g id="node4" class="node"><title>Public opinion improves</title>
<polygon fill="#f7fcf5" stroke="#f7fcf5" points="213,-97.5 138,-97.5 138,-44.5 213,-44.5 213,-97.5"/>
<text text-anchor="start" x="155.5" y="-82.3" font-family="Helvetica,sans-Serif" font-size="14.00" fill="#006d2c">Public</text>
<text text-anchor="start" x="152.5" y="-67.3" font-family="Helvetica,sans-Serif" font-size="14.00" fill="#006d2c">opinion</text>
<text text-anchor="start" x="146" y="-52.3" font-family="Helvetica,sans-Serif" font-size="14.00" fill="#006d2c">improves</text>
</g>
<!-- Public opinion improves&#45;&gt;Legislators have more favourable views -->
<g id="edge3" class="edge"><title>Public opinion improves&#45;&gt;Legislators have more favourable views</title>
<path fill="none" stroke="#41ab5d" stroke-width="2" d="M213.13,-81.3066C226.467,-85.0592 241.808,-89.3756 256.211,-93.4283"/>
<polygon fill="#41ab5d" stroke="#41ab5d" stroke-width="2" points="255.423,-96.8423 265.997,-96.1817 257.319,-90.1039 255.423,-96.8423"/>
</g>
<!-- !do Our campaign is launched -->
<g id="node5" class="node"><title>!do Our campaign is launched</title>
<polygon fill="#f7fcf5" stroke="#f7fcf5" points="81.5,-136 3.5,-136 3.5,-72 81.5,-72 81.5,-136"/>
<text text-anchor="start" x="20.5" y="-121.8" font-family="Helvetica,sans-Serif" font-size="14.00" fill="green">▶ </text>
<text text-anchor="start" x="36.5" y="-121.8" font-family="Helvetica,sans-Serif" font-size="14.00" fill="#006d2c"> Our</text>
<text text-anchor="start" x="11.5" y="-107.8" font-family="Helvetica,sans-Serif" font-size="14.00" fill="#006d2c">campaign</text>
<text text-anchor="start" x="37" y="-93.8" font-family="Helvetica,sans-Serif" font-size="14.00" fill="#006d2c">is</text>
<text text-anchor="start" x="13.5" y="-79.8" font-family="Helvetica,sans-Serif" font-size="14.00" fill="#006d2c">launched</text>
</g>
<!-- !do Our campaign is launched&#45;&gt;Public opinion improves -->
<g id="edge4" class="edge"><title>!do Our campaign is launched&#45;&gt;Public opinion improves</title>
<path fill="none" stroke="#41ab5d" stroke-width="2" d="M81.7428,-94.3663C96.2392,-90.7146 112.904,-86.5167 128.073,-82.6954"/>
<polygon fill="#41ab5d" stroke="#41ab5d" stroke-width="2" points="128.945,-86.085 137.787,-80.2482 127.235,-79.2971 128.945,-86.085"/>
</g>
<!-- Celebrities speak out -->
<g id="node6" class="node"><title>Celebrities speak out</title>
<polygon fill="#f7fcf5" stroke="#f7fcf5" points="85,-58 0,-58 0,-20 85,-20 85,-58"/>
<text text-anchor="start" x="8" y="-42.8" font-family="Helvetica,sans-Serif" font-size="14.00" fill="#006d2c">Celebrities</text>
<text text-anchor="start" x="11.5" y="-27.8" font-family="Helvetica,sans-Serif" font-size="14.00" fill="#006d2c">speak out</text>
</g>
<!-- Celebrities speak out&#45;&gt;Public opinion improves -->
<g id="edge5" class="edge"><title>Celebrities speak out&#45;&gt;Public opinion improves</title>
<path fill="none" stroke="#41ab5d" stroke-width="2" d="M85.3094,-49.213C98.9268,-52.5394 114.123,-56.2515 128.059,-59.6556"/>
<polygon fill="#41ab5d" stroke="#41ab5d" stroke-width="2" points="127.398,-63.0969 137.943,-62.0699 129.059,-56.2969 127.398,-63.0969"/>
</g>
</g>
</svg>
