<?xml version="1.0" encoding="UTF-8" standalone="no"?>
<!DOCTYPE svg PUBLIC "-//W3C//DTD SVG 1.1//EN"
 "http://www.w3.org/Graphics/SVG/1.1/DTD/svg11.dtd">
<!-- Generated by graphviz version 2.38.0 (20140413.2041)
 -->
<!-- Title: foo Pages: 1 -->
<svg width="1028pt" height="185pt"
 viewBox="0.00 0.00 1028.00 185.00" xmlns="http://www.w3.org/2000/svg" xmlns:xlink="http://www.w3.org/1999/xlink">
<g id="graph0" class="graph" transform="scale(1 1) rotate(0) translate(4 181)">
<title>foo</title>
<g id="a_graph0"><a xlink:title=" ">
<polygon fill="white" stroke="none" points="-4,4 -4,-181 1024,-181 1024,4 -4,4"/>
</a>
</g>
<g id="clust1" class="cluster"><title>cluster_Foreachof20teachers</title>
<g id="a_clust1"><a xlink:title=" ">
<path fill="#fcfbfd" stroke="#dadaeb" d="M66.5,-94C66.5,-94 695,-94 695,-94 701,-94 707,-100 707,-106 707,-106 707,-157 707,-157 707,-163 701,-169 695,-169 695,-169 66.5,-169 66.5,-169 60.5,-169 54.5,-163 54.5,-157 54.5,-157 54.5,-106 54.5,-106 54.5,-100 60.5,-94 66.5,-94"/>
<text text-anchor="start" x="62.5" y="-153.8" font-family="arial" font-size="14.00">For each of 20 teachers</text>
</a>
</g>
</g>
<!-- Teaching quality ((improved)) !lohi. &#160;&#160;Teacher: !heart -->
<g id="node1" class="node"><title>Teaching quality ((improved)) !lohi. &#160;&#160;Teacher: !heart</title>
<polygon fill="#e5f5e0" stroke="#e5f5e0" stroke-width="2" points="699,-138 480,-138 480,-102 699,-102 699,-138"/>
<text text-anchor="start" x="488" y="-123.8" font-family="arial" font-size="14.00">Teaching quality </text>
<text text-anchor="start" x="594" y="-123.8" font-family="arial" font-size="14.00" fill="green">((improved))</text>
<text text-anchor="start" x="672" y="-123.8" font-family="arial" font-size="14.00"> ◪.</text>
<text text-anchor="start" x="554.5" y="-109.8" font-family="arial" font-size="14.00">Teacher: </text>
<text text-anchor="start" x="615.5" y="-109.8" font-family="arial" font-size="14.00" fill="orange">♥</text>
</g>
<!-- Average teaching quality ((improved)). !noyes &#160;&#160;Ministry: !heart -->
<g id="node2" class="node"><title>Average teaching quality ((improved)). !noyes &#160;&#160;Ministry: !heart</title>
<polygon fill="none" stroke="#e5f5e0" stroke-width="2" stroke-dasharray="5,2" points="1020,-163 749,-163 749,-127 1020,-127 1020,-163"/>
<text text-anchor="start" x="757" y="-148.8" font-family="arial" font-size="14.00">Average teaching quality </text>
<text text-anchor="start" x="915" y="-148.8" font-family="arial" font-size="14.00" fill="green">((improved))</text>
<text text-anchor="start" x="993" y="-148.8" font-family="arial" font-size="14.00">. ◨</text>
<text text-anchor="start" x="852.5" y="-134.8" font-family="arial" font-size="14.00">Ministry: </text>
<text text-anchor="start" x="907.5" y="-134.8" font-family="arial" font-size="14.00" fill="orange">♥</text>
</g>
<!-- Teaching quality ((improved)) !lohi. &#160;&#160;Teacher: !heart&#45;&gt;Average teaching quality ((improved)). !noyes &#160;&#160;Ministry: !heart -->
<g id="edge1" class="edge"><title>Teaching quality ((improved)) !lohi. &#160;&#160;Teacher: !heart&#45;&gt;Average teaching quality ((improved)). !noyes &#160;&#160;Ministry: !heart</title>
<path fill="none" stroke="#41ab5d" stroke-dasharray="5,2" d="M699.186,-129.274C712.099,-130.375 725.433,-131.513 738.748,-132.649"/>
<polygon fill="#41ab5d" stroke="#41ab5d" points="738.657,-136.154 748.918,-133.517 739.252,-129.179 738.657,-136.154"/>
</g>
<!-- ((More)) outstanding teaching. !lohi &#160;&#160;Trainer: !heart -->
<g id="node3" class="node"><title>((More)) outstanding teaching. !lohi &#160;&#160;Trainer: !heart</title>
<polygon fill="none" stroke="#e5f5e0" stroke-width="2" stroke-dasharray="5,2" points="994.5,-113 774.5,-113 774.5,-77 994.5,-77 994.5,-113"/>
<text text-anchor="start" x="782.5" y="-98.8" font-family="arial" font-size="14.00" fill="green">((More))</text>
<text text-anchor="start" x="833.5" y="-98.8" font-family="arial" font-size="14.00"> outstanding teaching. ◪</text>
<text text-anchor="start" x="854" y="-84.8" font-family="arial" font-size="14.00">Trainer: </text>
<text text-anchor="start" x="906" y="-84.8" font-family="arial" font-size="14.00" fill="orange">♥</text>
</g>
<!-- Teaching quality ((improved)) !lohi. &#160;&#160;Teacher: !heart&#45;&gt;((More)) outstanding teaching. !lohi &#160;&#160;Trainer: !heart -->
<g id="edge2" class="edge"><title>Teaching quality ((improved)) !lohi. &#160;&#160;Teacher: !heart&#45;&gt;((More)) outstanding teaching. !lohi &#160;&#160;Trainer: !heart</title>
<path fill="none" stroke="#41ab5d" stroke-dasharray="5,2" d="M699.186,-110.726C720.275,-108.927 742.487,-107.032 763.904,-105.204"/>
<polygon fill="#41ab5d" stroke="#41ab5d" points="764.346,-108.68 774.012,-104.342 763.751,-101.705 764.346,-108.68"/>
</g>
<!-- tr -->
<g id="node4" class="node"><title>tr</title>
<polygon fill="#e5f5e0" stroke="#e5f5e0" stroke-width="2" points="430,-138 303,-138 303,-102 430,-102 430,-138"/>
<text text-anchor="start" x="311" y="-123.8" font-family="arial" font-size="14.00">Teacher receives</text>
<text text-anchor="start" x="336" y="-109.8" font-family="arial" font-size="14.00">training </text>
<text text-anchor="start" x="385" y="-109.8" font-family="arial" font-size="14.00" fill="green">✔</text>
</g>
<!-- tr&#45;&gt;Teaching quality ((improved)) !lohi. &#160;&#160;Teacher: !heart -->
<g id="edge3" class="edge"><title>tr&#45;&gt;Teaching quality ((improved)) !lohi. &#160;&#160;Teacher: !heart</title>
<path fill="none" stroke="#41ab5d" d="M430.239,-120C442.543,-120 455.826,-120 469.283,-120"/>
<polygon fill="#41ab5d" stroke="#41ab5d" points="469.593,-123.5 479.593,-120 469.593,-116.5 469.593,-123.5"/>
</g>
<!-- Pay increased. &#160;&#160;Teacher: !heart &#160;&#160;Ministry: !frown -->
<g id="node8" class="node"><title>Pay increased. &#160;&#160;Teacher: !heart &#160;&#160;Ministry: !frown</title>
<polygon fill="#e5f5e0" stroke="#e5f5e0" stroke-width="2" points="644.5,-86 534.5,-86 534.5,-36 644.5,-36 644.5,-86"/>
<text text-anchor="start" x="542.5" y="-71.8" font-family="arial" font-size="14.00">Pay increased.</text>
<text text-anchor="start" x="554.5" y="-57.8" font-family="arial" font-size="14.00">Teacher: </text>
<text text-anchor="start" x="615.5" y="-57.8" font-family="arial" font-size="14.00" fill="orange">♥</text>
<text text-anchor="start" x="556" y="-43.8" font-family="arial" font-size="14.00">Ministry: ☹</text>
</g>
<!-- tr&#45;&gt;Pay increased. &#160;&#160;Teacher: !heart &#160;&#160;Ministry: !frown -->
<g id="edge7" class="edge"><title>tr&#45;&gt;Pay increased. &#160;&#160;Teacher: !heart &#160;&#160;Ministry: !frown</title>
<path fill="none" stroke="#41ab5d" d="M430.239,-103.251C459.704,-95.3845 494.78,-86.0203 524.413,-78.1091"/>
<polygon fill="#41ab5d" stroke="#41ab5d" points="525.48,-81.4471 534.238,-75.4861 523.674,-74.684 525.48,-81.4471"/>
</g>
<!-- Teacher: &#160;!do &#160;&#160;Attends course !tick -->
<g id="node5" class="node"><title>Teacher: &#160;!do &#160;&#160;Attends course !tick</title>
<polygon fill="#e5f5e0" stroke="#e5f5e0" stroke-width="2" points="190.5,-138 62.5,-138 62.5,-102 190.5,-102 190.5,-138"/>
<text text-anchor="start" x="86.5" y="-123.8" font-family="arial" font-size="14.00">Teacher: &#160;</text>
<text text-anchor="start" x="150.5" y="-123.8" font-family="arial" font-size="14.00" fill="green">▶ </text>
<text text-anchor="start" x="70.5" y="-109.8" font-family="arial" font-size="14.00">Attends course </text>
<text text-anchor="start" x="170.5" y="-109.8" font-family="arial" font-size="14.00" fill="green">✔</text>
</g>
<!-- Teacher: &#160;!do &#160;&#160;Attends course !tick&#45;&gt;tr -->
<g id="edge4" class="edge"><title>Teacher: &#160;!do &#160;&#160;Attends course !tick&#45;&gt;tr</title>
<path fill="none" stroke="#41ab5d" d="M190.655,-120C221.969,-120 259.956,-120 292.512,-120"/>
<polygon fill="#41ab5d" stroke="#41ab5d" points="292.876,-123.5 302.876,-120 292.876,-116.5 292.876,-123.5"/>
</g>
<!-- Ministry: !do &#160;&#160;Provides in&#45;service teacher training !tick -->
<g id="node6" class="node"><title>Ministry: !do &#160;&#160;Provides in&#45;service teacher training !tick</title>
<polygon fill="#e5f5e0" stroke="#e5f5e0" stroke-width="2" points="253,-86 0,-86 0,-50 253,-50 253,-86"/>
<text text-anchor="start" x="91" y="-71.8" font-family="arial" font-size="14.00">Ministry: </text>
<text text-anchor="start" x="146" y="-71.8" font-family="arial" font-size="14.00" fill="green">▶ </text>
<text text-anchor="start" x="8" y="-57.8" font-family="arial" font-size="14.00">Provides in&#45;service teacher training </text>
<text text-anchor="start" x="233" y="-57.8" font-family="arial" font-size="14.00" fill="green">✔</text>
</g>
<!-- Ministry: !do &#160;&#160;Provides in&#45;service teacher training !tick&#45;&gt;tr -->
<g id="edge5" class="edge"><title>Ministry: !do &#160;&#160;Provides in&#45;service teacher training !tick&#45;&gt;tr</title>
<path fill="none" stroke="#41ab5d" d="M229.337,-86.0316C237.357,-87.6442 245.32,-89.3087 253,-91 265.95,-93.8519 279.668,-97.1516 292.905,-100.481"/>
<polygon fill="#41ab5d" stroke="#41ab5d" points="292.359,-103.954 302.913,-103.026 294.084,-97.1694 292.359,-103.954"/>
</g>
<!-- Trainer: !do &#160;&#160;Provides pro&#45;bono training !tick !heart -->
<g id="node7" class="node"><title>Trainer: !do &#160;&#160;Provides pro&#45;bono training !tick !heart</title>
<polygon fill="#e5f5e0" stroke="#e5f5e0" stroke-width="2" points="232.5,-36 20.5,-36 20.5,-0 232.5,-0 232.5,-36"/>
<text text-anchor="start" x="92.5" y="-21.8" font-family="arial" font-size="14.00">Trainer: </text>
<text text-anchor="start" x="144.5" y="-21.8" font-family="arial" font-size="14.00" fill="green">▶ </text>
<text text-anchor="start" x="28.5" y="-7.8" font-family="arial" font-size="14.00">Provides pro&#45;bono training </text>
<text text-anchor="start" x="199.5" y="-7.8" font-family="arial" font-size="14.00" fill="green">✔</text>
<text text-anchor="start" x="211.5" y="-7.8" font-family="arial" font-size="14.00"> </text>
<text text-anchor="start" x="215.5" y="-7.8" font-family="arial" font-size="14.00" fill="orange">♥</text>
</g>
<!-- Trainer: !do &#160;&#160;Provides pro&#45;bono training !tick !heart&#45;&gt;tr -->
<g id="edge6" class="edge"><title>Trainer: !do &#160;&#160;Provides pro&#45;bono training !tick !heart&#45;&gt;tr</title>
<path fill="none" stroke="#41ab5d" d="M232.557,-35.5908C239.572,-37.7827 246.448,-40.2419 253,-43 283.949,-56.0274 315.147,-78.2648 336.813,-95.5026"/>
<polygon fill="#41ab5d" stroke="#41ab5d" points="334.655,-98.2596 344.629,-101.835 339.062,-92.8204 334.655,-98.2596"/>
</g>
</g>
</svg>
