<?xml version="1.0" encoding="UTF-8" standalone="no"?>
<!DOCTYPE svg PUBLIC "-//W3C//DTD SVG 1.1//EN"
 "http://www.w3.org/Graphics/SVG/1.1/DTD/svg11.dtd">
<!-- Generated by graphviz version 2.38.0 (20140413.2041)
 -->
<!-- Title: foo Pages: 1 -->
<svg width="540pt" height="139pt"
 viewBox="0.00 0.00 539.99 138.50" xmlns="http://www.w3.org/2000/svg" xmlns:xlink="http://www.w3.org/1999/xlink">
<g id="graph0" class="graph" transform="scale(1 1) rotate(0) translate(4 134.5)">
<title>foo</title>
<g id="a_graph0"><a xlink:title=" ">
<polygon fill="white" stroke="none" points="-4,4 -4,-134.5 535.985,-134.5 535.985,4 -4,4"/>
<text text-anchor="start" x="8" y="-118.5" font-family="arial" font-size="10.00">A flow of apples from tree to consumer</text>
</a>
</g>
<!-- Valve 3 -->
<g id="node1" class="node"><title>Valve 3</title>
<polygon fill="none" stroke="none" stroke-width="2" points="346.095,-111.5 302.095,-111.5 302.095,-94.5 346.095,-94.5 346.095,-111.5"/>
<text text-anchor="start" x="310.095" y="-101.1" font-family="arial" font-size="8.00">Valve 3</text>
</g>
<!-- Consumer -->
<g id="node2" class="node"><title>Consumer</title>
<ellipse fill="#e5f5e0" stroke="#e5f5e0" stroke-width="2" cx="478.04" cy="-86" rx="53.8905" ry="18"/>
<text text-anchor="start" x="444.54" y="-82.3" font-family="arial" font-size="14.00">Consumer</text>
</g>
<!-- Valve 3&#45;&gt;Consumer -->
<g id="edge1" class="edge"><title>Valve 3&#45;&gt;Consumer</title>
<polygon fill="#bdbdbd" stroke="none" points="346.438,-99.586 350.888,-98.7386 355.574,-97.8463 360.446,-96.9187 365.453,-95.9653 370.545,-94.9957 375.672,-94.0194 380.784,-93.0459 385.831,-92.085 390.763,-91.146 395.528,-90.2385 400.078,-89.3722 404.362,-88.5564 408.33,-87.8009 411.932,-87.1151 415.117,-86.5086 417.835,-85.991 420.037,-85.5718 421.672,-85.2605 422.689,-85.0667 423.04,-85 423.04,-85 422.689,-85.0622 421.669,-85.2429 420.03,-85.5332 417.823,-85.9242 415.098,-86.4069 411.906,-86.9725 408.295,-87.612 404.318,-88.3166 400.024,-89.0773 395.463,-89.8853 390.687,-90.7316 385.744,-91.6072 380.685,-92.5034 375.561,-93.4112 370.421,-94.3217 365.317,-95.2259 360.298,-96.115 355.415,-96.9801 350.718,-97.8122 346.257,-98.6025 346.438,-99.586"/>
</g>
<!-- Shop -->
<g id="node3" class="node"><title>Shop</title>
<polygon fill="#e5f5e0" stroke="#e5f5e0" stroke-width="2" points="351.095,-80 297.095,-80 297.095,-44 351.095,-44 351.095,-80"/>
<text text-anchor="start" x="307.095" y="-58.3" font-family="arial" font-size="14.00">Shop</text>
</g>
<!-- Shop&#45;&gt;Consumer -->
<g id="edge2" class="edge"><title>Shop&#45;&gt;Consumer</title>
<path fill="none" stroke="#bdbdbd" stroke-width="3" d="M351.352,-62.5997C365.762,-63.5668 383.764,-65.8337 399.095,-71 404.571,-72.8454 410.174,-76.037 414.583,-78.9071"/>
<polygon fill="#bdbdbd" stroke="#bdbdbd" stroke-width="3" points="412.88,-81.9943 423.04,-85 416.972,-76.3147 412.88,-81.9943"/>
<text text-anchor="start" x="376.095" y="-74.8" font-family="Times New Roman,serif" font-size="14.00" fill="#bdbdbd">▶◀</text>
</g>
<!-- Valve 2 -->
<g id="node4" class="node"><title>Valve 2</title>
<polygon fill="none" stroke="none" stroke-width="2" points="201.095,-87.5 157.095,-87.5 157.095,-70.5 201.095,-70.5 201.095,-87.5"/>
<text text-anchor="start" x="165.095" y="-77.1" font-family="arial" font-size="8.00">Valve 2</text>
</g>
<!-- Valve 2&#45;&gt;Shop -->
<g id="edge3" class="edge"><title>Valve 2&#45;&gt;Shop</title>
<polygon fill="#bdbdbd" stroke="none" points="201.178,-76.2344 206.388,-75.3982 211.952,-74.5051 217.804,-73.5659 223.875,-72.5914 230.1,-71.5924 236.41,-70.5796 242.738,-69.5639 249.018,-68.556 255.181,-67.5667 261.162,-66.6068 266.891,-65.6872 272.303,-64.8186 277.33,-64.0117 281.905,-63.2774 285.961,-62.6265 289.43,-62.0697 292.245,-61.6179 294.339,-61.2818 295.644,-61.0723 296.095,-61 296.095,-61 295.644,-61.0676 294.336,-61.2635 292.239,-61.5778 289.419,-62.0003 285.945,-62.521 281.882,-63.1297 277.3,-63.8163 272.265,-64.5709 266.844,-65.3832 261.105,-66.2432 255.115,-67.1408 248.942,-68.0659 242.652,-69.0084 236.313,-69.9582 229.993,-70.9053 223.759,-71.8396 217.677,-72.7509 211.816,-73.6291 206.243,-74.4643 201.025,-75.2462 201.178,-76.2344"/>
</g>
<!-- Warehouse -->
<g id="node5" class="node"><title>Warehouse</title>
<polygon fill="#e5f5e0" stroke="#e5f5e0" stroke-width="2" points="224.095,-56 134.095,-56 134.095,-20 224.095,-20 224.095,-56"/>
<text text-anchor="start" x="142.095" y="-34.3" font-family="arial" font-size="14.00">Warehouse</text>
</g>
<!-- Warehouse&#45;&gt;Shop -->
<g id="edge4" class="edge"><title>Warehouse&#45;&gt;Shop</title>
<path fill="none" stroke="#bdbdbd" stroke-width="3" d="M224.475,-37.6571C239.872,-38.6302 257.042,-40.967 272.095,-46 277.873,-47.932 283.684,-51.5117 288.141,-54.6895"/>
<polygon fill="#bdbdbd" stroke="#bdbdbd" stroke-width="3" points="286.085,-57.5263 296.095,-61 290.436,-52.0427 286.085,-57.5263"/>
<text text-anchor="start" x="249.095" y="-49.8" font-family="Times New Roman,serif" font-size="14.00" fill="#bdbdbd">▶◀</text>
</g>
<!-- Valve 1 -->
<g id="node6" class="node"><title>Valve 1</title>
<polygon fill="none" stroke="none" stroke-width="2" points="52.5473,-67.5 8.54729,-67.5 8.54729,-50.5 52.5473,-50.5 52.5473,-67.5"/>
<text text-anchor="start" x="16.5473" y="-57.1" font-family="arial" font-size="8.00">Valve 1</text>
</g>
<!-- Valve 1&#45;&gt;Warehouse -->
<g id="edge5" class="edge"><title>Valve 1&#45;&gt;Warehouse</title>
<polygon fill="#bdbdbd" stroke="none" points="52.911,-57.3927 55.3122,-57.0923 57.7988,-56.7712 60.363,-56.4293 62.9978,-56.0661 65.6964,-55.6815 68.4519,-55.2752 71.2573,-54.8469 74.1058,-54.3964 76.9904,-53.9232 79.9043,-53.4272 82.8406,-52.9081 85.7923,-52.3657 88.7526,-51.7995 91.7145,-51.2094 94.6712,-50.595 97.6157,-49.9561 100.541,-49.2924 103.441,-48.6037 106.307,-47.8896 109.134,-47.1498 110.8,-46.683 112.484,-46.1747 114.173,-45.6321 115.859,-45.0622 117.528,-44.4721 119.17,-43.8688 120.774,-43.2595 122.329,-42.6511 123.824,-42.0508 125.247,-41.4656 126.587,-40.9026 127.834,-40.3688 128.976,-39.8714 130.002,-39.4173 130.9,-39.0137 131.66,-38.6676 132.271,-38.3861 132.721,-38.1763 132.999,-38.0453 133.095,-38 133.095,-38 132.999,-38.0441 132.719,-38.1718 132.267,-38.3762 131.653,-38.6502 130.888,-38.987 129.985,-39.3797 128.954,-39.8212 127.807,-40.3047 126.554,-40.8232 125.208,-41.3697 123.778,-41.9374 122.278,-42.5192 120.717,-43.1082 119.107,-43.6975 117.46,-44.2801 115.786,-44.8492 114.098,-45.3976 112.405,-45.9186 110.721,-46.405 109.055,-46.8502 106.224,-47.5547 103.353,-48.2332 100.449,-48.8859 97.5202,-49.5133 94.5724,-50.1158 91.6128,-50.6936 88.6482,-51.2471 85.6856,-51.7767 82.7318,-52.2828 79.7937,-52.7657 76.8782,-53.2258 73.9922,-53.6634 71.1427,-54.0789 68.3364,-54.4728 65.5803,-54.8452 62.8813,-55.1967 60.2462,-55.5275 57.682,-55.838 55.1956,-56.1286 52.7928,-56.3997 52.911,-57.3927"/>
</g>
<!-- Tree -->
<g id="node7" class="node"><title>Tree</title>
<ellipse fill="#e5f5e0" stroke="#e5f5e0" stroke-width="2" cx="30.5473" cy="-18" rx="30.5947" ry="18"/>
<text text-anchor="start" x="15.0473" y="-14.3" font-family="arial" font-size="14.00">Tree</text>
</g>
<!-- Tree&#45;&gt;Warehouse -->
<g id="edge6" class="edge"><title>Tree&#45;&gt;Warehouse</title>
<path fill="none" stroke="#bdbdbd" stroke-width="3" d="M59.927,-23.3885C74.6133,-26.2026 92.8272,-29.7324 109.095,-33 113.768,-33.9388 118.946,-35.0132 123.292,-35.9248"/>
<polygon fill="#bdbdbd" stroke="#bdbdbd" stroke-width="3" points="122.586,-39.3528 133.095,-38 124.036,-32.5046 122.586,-39.3528"/>
<text text-anchor="start" x="86.0946" y="-37.8" font-family="Times New Roman,serif" font-size="14.00" fill="#bdbdbd">▶◀</text>
</g>
</g>
</svg>
