<?xml version="1.0" encoding="UTF-8" standalone="no"?>
<!DOCTYPE svg PUBLIC "-//W3C//DTD SVG 1.1//EN"
 "http://www.w3.org/Graphics/SVG/1.1/DTD/svg11.dtd">
<!-- Generated by graphviz version 2.38.0 (20140413.2041)
 -->
<!-- Title: foo Pages: 1 -->
<svg width="507pt" height="166pt"
 viewBox="0.00 0.00 507.00 166.00" xmlns="http://www.w3.org/2000/svg" xmlns:xlink="http://www.w3.org/1999/xlink">
<g id="graph0" class="graph" transform="scale(1 1) rotate(0) translate(4 162)">
<title>foo</title>
<g id="a_graph0"><a xlink:title=" ">
<polygon fill="#d9d9d9" stroke="none" points="-4,4 -4,-162 503,-162 503,4 -4,4"/>
<text text-anchor="start" x="157.5" y="-7.2" font-family="tahoma" font-size="11.00" fill="#525252">You don&#39;t have to stick to this format</text>
</a>
</g>
<!-- improved student classwork -->
<g id="node1" class="node"><title>improved student classwork</title>
<polygon fill="#fee6ce" stroke="#fee6ce" points="323,-106 197,-106 197,-68 323,-68 323,-106"/>
<text text-anchor="start" x="205" y="-90.8" font-family="Helvetica,sans-Serif" font-size="14.00">improved student</text>
<text text-anchor="start" x="228.5" y="-75.8" font-family="Helvetica,sans-Serif" font-size="14.00">classwork</text>
</g>
<!-- improved student exam results -->
<g id="node2" class="node"><title>improved student exam results</title>
<polygon fill="#fee6ce" stroke="#fee6ce" points="499,-132 373,-132 373,-94 499,-94 499,-132"/>
<text text-anchor="start" x="381" y="-116.8" font-family="Helvetica,sans-Serif" font-size="14.00">improved student</text>
<text text-anchor="start" x="395.5" y="-101.8" font-family="Helvetica,sans-Serif" font-size="14.00">exam results</text>
</g>
<!-- improved student classwork&#45;&gt;improved student exam results -->
<g id="edge1" class="edge"><title>improved student classwork&#45;&gt;improved student exam results</title>
<path fill="none" stroke="#737373" stroke-width="2" d="M323.327,-96.3132C336.148,-98.229 349.749,-100.261 362.884,-102.224"/>
<polygon fill="#737373" stroke="#737373" stroke-width="2" points="362.409,-105.692 372.816,-103.708 363.443,-98.7687 362.409,-105.692"/>
</g>
<!-- !do student workshop 1 held -->
<g id="node3" class="node"><title>!do student workshop 1 held</title>
<polygon fill="#fee6ce" stroke="#fee6ce" points="147,-106 0,-106 0,-70 147,-70 147,-106"/>
<text text-anchor="start" x="8" y="-91.8" font-family="Helvetica,sans-Serif" font-size="14.00" fill="green">▶ </text>
<text text-anchor="start" x="24" y="-91.8" font-family="Helvetica,sans-Serif" font-size="14.00"> student workshop</text>
<text text-anchor="start" x="53.5" y="-77.8" font-family="Helvetica,sans-Serif" font-size="14.00">1 held</text>
</g>
<!-- !do student workshop 1 held&#45;&gt;improved student classwork -->
<g id="edge2" class="edge"><title>!do student workshop 1 held&#45;&gt;improved student classwork</title>
<path fill="none" stroke="#737373" stroke-width="2" d="M147.154,-87.6062C160.124,-87.5359 173.636,-87.4627 186.598,-87.3924"/>
<polygon fill="#737373" stroke="#737373" stroke-width="2" points="186.875,-90.8911 196.856,-87.3368 186.837,-83.8912 186.875,-90.8911"/>
</g>
<!-- !do students receive laptops -->
<g id="node4" class="node"><title>!do students receive laptops</title>
<polygon fill="#fee6ce" stroke="#fee6ce" points="144,-56 3,-56 3,-20 144,-20 144,-56"/>
<text text-anchor="start" x="11" y="-41.8" font-family="Helvetica,sans-Serif" font-size="14.00" fill="green">▶ </text>
<text text-anchor="start" x="27" y="-41.8" font-family="Helvetica,sans-Serif" font-size="14.00"> students receive</text>
<text text-anchor="start" x="50" y="-27.8" font-family="Helvetica,sans-Serif" font-size="14.00">laptops</text>
</g>
<!-- !do students receive laptops&#45;&gt;improved student classwork -->
<g id="edge3" class="edge"><title>!do students receive laptops&#45;&gt;improved student classwork</title>
<path fill="none" stroke="#737373" stroke-width="2" d="M142.415,-56.037C156.857,-59.8727 172.157,-63.936 186.755,-67.8129"/>
<polygon fill="#737373" stroke="#737373" stroke-width="2" points="186.166,-71.2778 196.729,-70.4619 187.963,-64.5123 186.166,-71.2778"/>
</g>
<!-- improved student exam skills -->
<g id="node5" class="node"><title>improved student exam skills</title>
<polygon fill="#fee6ce" stroke="#fee6ce" points="323,-158 197,-158 197,-120 323,-120 323,-158"/>
<text text-anchor="start" x="205" y="-142.8" font-family="Helvetica,sans-Serif" font-size="14.00">improved student</text>
<text text-anchor="start" x="225" y="-127.8" font-family="Helvetica,sans-Serif" font-size="14.00">exam skills</text>
</g>
<!-- improved student exam skills&#45;&gt;improved student exam results -->
<g id="edge4" class="edge"><title>improved student exam skills&#45;&gt;improved student exam results</title>
<path fill="none" stroke="#737373" stroke-width="2" d="M323.327,-129.687C336.148,-127.771 349.749,-125.739 362.884,-123.776"/>
<polygon fill="#737373" stroke="#737373" stroke-width="2" points="363.443,-127.231 372.816,-122.292 362.409,-120.308 363.443,-127.231"/>
</g>
<!-- !do student workshop 2 held -->
<g id="node6" class="node"><title>!do student workshop 2 held</title>
<polygon fill="#fee6ce" stroke="#fee6ce" points="147,-157 0,-157 0,-121 147,-121 147,-157"/>
<text text-anchor="start" x="8" y="-142.8" font-family="Helvetica,sans-Serif" font-size="14.00" fill="green">▶ </text>
<text text-anchor="start" x="24" y="-142.8" font-family="Helvetica,sans-Serif" font-size="14.00"> student workshop</text>
<text text-anchor="start" x="53.5" y="-128.8" font-family="Helvetica,sans-Serif" font-size="14.00">2 held</text>
</g>
<!-- !do student workshop 2 held&#45;&gt;improved student exam skills -->
<g id="edge5" class="edge"><title>!do student workshop 2 held&#45;&gt;improved student exam skills</title>
<path fill="none" stroke="#737373" stroke-width="2" d="M147.154,-139C160.124,-139 173.636,-139 186.598,-139"/>
<polygon fill="#737373" stroke="#737373" stroke-width="2" points="186.856,-142.5 196.856,-139 186.856,-135.5 186.856,-142.5"/>
</g>
</g>
</svg>
