<?xml version="1.0" encoding="UTF-8" standalone="no"?>
<!DOCTYPE svg PUBLIC "-//W3C//DTD SVG 1.1//EN"
 "http://www.w3.org/Graphics/SVG/1.1/DTD/svg11.dtd">
<!-- Generated by graphviz version 2.38.0 (20140413.2041)
 -->
<!-- Title: foo Pages: 1 -->
<svg width="499pt" height="164pt"
 viewBox="0.00 0.00 499.00 164.00" xmlns="http://www.w3.org/2000/svg" xmlns:xlink="http://www.w3.org/1999/xlink">
<g id="graph0" class="graph" transform="scale(1 1) rotate(0) translate(4 160)">
<title>foo</title>
<g id="a_graph0"><a xlink:title=" ">
<polygon fill="#d9d9d9" stroke="none" points="-4,4 -4,-160 495,-160 495,4 -4,4"/>
<text text-anchor="start" x="153.5" y="-7.2" font-family="tahoma" font-size="11.00" fill="#525252">You don&#39;t have to stick to this format</text>
</a>
</g>
<!-- Student 1: Achievement -->
<g id="node1" class="node"><title>Student 1: Achievement</title>
<polygon fill="#fee6ce" stroke="#fee6ce" points="331,-156 164,-156 164,-120 331,-120 331,-156"/>
<text text-anchor="start" x="172" y="-134.3" font-family="Helvetica,sans-Serif" font-size="14.00">Student 1: Achievement</text>
</g>
<!-- Teacher: Pride -->
<g id="node2" class="node"><title>Teacher: Pride</title>
<polygon fill="#fee6ce" stroke="#fee6ce" points="491,-106 381,-106 381,-70 491,-70 491,-106"/>
<text text-anchor="start" x="389" y="-84.3" font-family="Helvetica,sans-Serif" font-size="14.00">Teacher: Pride</text>
</g>
<!-- Student 1: Achievement&#45;&gt;Teacher: Pride -->
<g id="edge1" class="edge"><title>Student 1: Achievement&#45;&gt;Teacher: Pride</title>
<path fill="none" stroke="#737373" stroke-width="2" d="M315.831,-119.949C333.878,-115.11 353.332,-109.895 371.183,-105.109"/>
<polygon fill="#737373" stroke="#737373" stroke-width="2" points="372.163,-108.47 380.916,-102.5 370.35,-101.709 372.163,-108.47"/>
</g>
<!-- Teacher: Ability -->
<g id="node3" class="node"><title>Teacher: Ability</title>
<polygon fill="#fee6ce" stroke="#fee6ce" points="114,-106 0,-106 0,-70 114,-70 114,-106"/>
<text text-anchor="start" x="8" y="-84.3" font-family="Helvetica,sans-Serif" font-size="14.00">Teacher: Ability</text>
</g>
<!-- Teacher: Ability&#45;&gt;Student 1: Achievement -->
<g id="edge2" class="edge"><title>Teacher: Ability&#45;&gt;Student 1: Achievement</title>
<path fill="none" stroke="#737373" stroke-width="2" d="M114.046,-102.866C131.156,-107.405 150.289,-112.48 168.576,-117.33"/>
<polygon fill="#737373" stroke="#737373" stroke-width="2" points="167.774,-120.739 178.337,-119.92 169.568,-113.973 167.774,-120.739"/>
</g>
<!-- Student 2: Achievement -->
<g id="node4" class="node"><title>Student 2: Achievement</title>
<polygon fill="#fee6ce" stroke="#fee6ce" points="331,-106 164,-106 164,-70 331,-70 331,-106"/>
<text text-anchor="start" x="172" y="-84.3" font-family="Helvetica,sans-Serif" font-size="14.00">Student 2: Achievement</text>
</g>
<!-- Teacher: Ability&#45;&gt;Student 2: Achievement -->
<g id="edge4" class="edge"><title>Teacher: Ability&#45;&gt;Student 2: Achievement</title>
<path fill="none" stroke="#737373" stroke-width="2" d="M114.046,-88C126.499,-88 140.023,-88 153.513,-88"/>
<polygon fill="#737373" stroke="#737373" stroke-width="2" points="153.804,-91.5001 163.804,-88 153.804,-84.5001 153.804,-91.5001"/>
</g>
<!-- Student 3: Achievement -->
<g id="node5" class="node"><title>Student 3: Achievement</title>
<polygon fill="#fee6ce" stroke="#fee6ce" points="331,-56 164,-56 164,-20 331,-20 331,-56"/>
<text text-anchor="start" x="172" y="-34.3" font-family="Helvetica,sans-Serif" font-size="14.00">Student 3: Achievement</text>
</g>
<!-- Teacher: Ability&#45;&gt;Student 3: Achievement -->
<g id="edge6" class="edge"><title>Teacher: Ability&#45;&gt;Student 3: Achievement</title>
<path fill="none" stroke="#737373" stroke-width="2" d="M114.046,-73.1337C131.156,-68.5951 150.289,-63.5202 168.576,-58.6696"/>
<polygon fill="#737373" stroke="#737373" stroke-width="2" points="169.568,-62.0274 178.337,-56.0804 167.774,-55.2613 169.568,-62.0274"/>
</g>
<!-- Student 2: Achievement&#45;&gt;Teacher: Pride -->
<g id="edge3" class="edge"><title>Student 2: Achievement&#45;&gt;Teacher: Pride</title>
<path fill="none" stroke="#737373" stroke-width="2" d="M331.116,-88C344.416,-88 358.009,-88 370.793,-88"/>
<polygon fill="#737373" stroke="#737373" stroke-width="2" points="370.851,-91.5001 380.851,-88 370.85,-84.5001 370.851,-91.5001"/>
</g>
<!-- Student 3: Achievement&#45;&gt;Teacher: Pride -->
<g id="edge5" class="edge"><title>Student 3: Achievement&#45;&gt;Teacher: Pride</title>
<path fill="none" stroke="#737373" stroke-width="2" d="M315.831,-56.0511C333.878,-60.8895 353.332,-66.1051 371.183,-70.8908"/>
<polygon fill="#737373" stroke="#737373" stroke-width="2" points="370.35,-74.2912 380.916,-73.5002 372.163,-67.53 370.35,-74.2912"/>
</g>
</g>
</svg>
