<?xml version="1.0" encoding="UTF-8" standalone="no"?>
<!DOCTYPE svg PUBLIC "-//W3C//DTD SVG 1.1//EN"
 "http://www.w3.org/Graphics/SVG/1.1/DTD/svg11.dtd">
<!-- Generated by graphviz version 2.38.0 (20140413.2041)
 -->
<!-- Title: foo Pages: 1 -->
<svg width="595pt" height="119pt"
 viewBox="0.00 0.00 595.00 119.00" xmlns="http://www.w3.org/2000/svg" xmlns:xlink="http://www.w3.org/1999/xlink">
<g id="graph0" class="graph" transform="scale(1 1) rotate(0) translate(4 115)">
<title>foo</title>
<g id="a_graph0"><a xlink:title=" ">
<polygon fill="white" stroke="none" points="-4,4 -4,-115 591,-115 591,4 -4,4"/>
</a>
</g>
<!-- Log fire is lit &#160;!tick -->
<g id="node1" class="node"><title>Log fire is lit &#160;!tick</title>
<polygon fill="#fdae6b" stroke="#fdae6b" stroke-width="2" points="360,-61 251,-61 251,-25 360,-25 360,-61"/>
<text text-anchor="start" x="259" y="-40.3" font-family="arial" font-size="14.00">Log fire is lit </text>
<text text-anchor="start" x="340" y="-40.3" font-family="arial" font-size="14.00" fill="green">✔</text>
</g>
<!-- Clothes are dried !tick -->
<g id="node2" class="node"><title>Clothes are dried !tick</title>
<polygon fill="#fdae6b" stroke="#fdae6b" stroke-width="2" points="587,-86 446,-86 446,-50 587,-50 587,-86"/>
<text text-anchor="start" x="454" y="-65.3" font-family="arial" font-size="14.00">Clothes are dried </text>
<text text-anchor="start" x="567" y="-65.3" font-family="arial" font-size="14.00" fill="green">✔</text>
</g>
<!-- Log fire is lit &#160;!tick&#45;&gt;Clothes are dried !tick -->
<g id="edge1" class="edge"><title>Log fire is lit &#160;!tick&#45;&gt;Clothes are dried !tick</title>
<path fill="none" stroke="#41ab5d" d="M360.25,-52.7372C387.948,-57.7551 419.099,-63.3983 434.612,-66.2086"/>
<polygon fill="#41ab5d" stroke="#41ab5d" points="434.036,-69.6613 444.5,-68 435.284,-62.7734 434.036,-69.6613"/>
</g>
<!-- Match is struck &#160;!do !tick -->
<g id="node3" class="node"><title>Match is struck &#160;!do !tick</title>
<polygon fill="#fdae6b" stroke="#fdae6b" stroke-width="2" points="155,-86 10,-86 10,-50 155,-50 155,-86"/>
<text text-anchor="start" x="18" y="-65.3" font-family="arial" font-size="14.00">Match is struck </text>
<text text-anchor="start" x="115" y="-65.3" font-family="arial" font-size="14.00" fill="green">▶ </text>
<text text-anchor="start" x="131" y="-65.3" font-family="arial" font-size="14.00"> </text>
<text text-anchor="start" x="135" y="-65.3" font-family="arial" font-size="14.00" fill="green">✔</text>
</g>
<!-- Match is struck &#160;!do !tick&#45;&gt;Log fire is lit &#160;!tick -->
<g id="edge2" class="edge"><title>Match is struck &#160;!do !tick&#45;&gt;Log fire is lit &#160;!tick</title>
<path fill="none" stroke="#41ab5d" d="M155.345,-57.18C187.941,-52.271 222.875,-47.0099 239.542,-44.4997"/>
<polygon fill="#41ab5d" stroke="#41ab5d" points="240.133,-47.9503 249.5,-43 239.09,-41.0283 240.133,-47.9503"/>
<text text-anchor="middle" x="237.001" y="-47.5931" font-family="Times New Roman,serif" font-size="14.00">AND</text>
</g>
<!-- Dry wood is available &#160;!tick -->
<g id="node4" class="node"><title>Dry wood is available &#160;!tick</title>
<polygon fill="#e5f5e0" stroke="#e5f5e0" stroke-width="2" points="165,-36 0,-36 0,-0 165,-0 165,-36"/>
<text text-anchor="start" x="8" y="-15.3" font-family="arial" font-size="14.00">Dry wood is available </text>
<text text-anchor="start" x="145" y="-15.3" font-family="arial" font-size="14.00" fill="green">✔</text>
</g>
<!-- Dry wood is available &#160;!tick&#45;&gt;Log fire is lit &#160;!tick -->
<g id="edge3" class="edge"><title>Dry wood is available &#160;!tick&#45;&gt;Log fire is lit &#160;!tick</title>
<path fill="none" stroke="#41ab5d" d="M165.041,-30.2803C194.559,-34.7257 224.322,-39.2082 239.393,-41.4779"/>
<polygon fill="#41ab5d" stroke="#41ab5d" points="239.09,-44.9717 249.5,-43 240.133,-38.0497 239.09,-44.9717"/>
</g>
<!-- Electric heater is switched on !cross -->
<g id="node5" class="node"><title>Electric heater is switched on !cross</title>
<polygon fill="#e5f5e0" stroke="#e5f5e0" stroke-width="2" points="396,-111 215,-111 215,-75 396,-75 396,-111"/>
<text text-anchor="start" x="223" y="-96.8" font-family="arial" font-size="14.00">Electric heater is switched</text>
<text text-anchor="start" x="289.5" y="-82.8" font-family="arial" font-size="14.00">on </text>
<text text-anchor="start" x="309.5" y="-82.8" font-family="arial" font-size="14.00" fill="orange">✘</text>
</g>
<!-- Electric heater is switched on !cross&#45;&gt;Clothes are dried !tick -->
<g id="edge4" class="edge"><title>Electric heater is switched on !cross&#45;&gt;Clothes are dried !tick</title>
<path fill="none" stroke="#41ab5d" d="M396.234,-76.7438C411.678,-73.9459 425.595,-71.4249 434.471,-69.8168"/>
<polygon fill="#41ab5d" stroke="#41ab5d" points="435.284,-73.2266 444.5,-68 434.036,-66.3387 435.284,-73.2266"/>
<text text-anchor="middle" x="432.253" y="-72.9611" font-family="Times New Roman,serif" font-size="14.00">OR</text>
</g>
</g>
</svg>
