<?xml version="1.0" encoding="UTF-8" standalone="no"?>
<!DOCTYPE svg PUBLIC "-//W3C//DTD SVG 1.1//EN"
 "http://www.w3.org/Graphics/SVG/1.1/DTD/svg11.dtd">
<!-- Generated by graphviz version 2.38.0 (20140413.2041)
 -->
<!-- Title: foo Pages: 1 -->
<svg width="664pt" height="46pt"
 viewBox="0.00 0.00 664.00 46.00" xmlns="http://www.w3.org/2000/svg" xmlns:xlink="http://www.w3.org/1999/xlink">
<g id="graph0" class="graph" transform="scale(1 1) rotate(0) translate(4 42)">
<title>foo</title>
<g id="a_graph0"><a xlink:title=" ">
<polygon fill="white" stroke="none" points="-4,4 -4,-42 660,-42 660,4 -4,4"/>
</a>
</g>
<!-- Weight of straw on camel ///Influence: !memory -->
<g id="node1" class="node"><title>Weight of straw on camel ///Influence: !memory</title>
<polygon fill="#e5f5e0" stroke="#e5f5e0" stroke-width="2" points="439,-38 259,-38 259,-0 439,-0 439,-38"/>
<text text-anchor="start" x="267" y="-22.8" font-family="arial" font-size="14.00">Weight of straw on camel </text>
<text text-anchor="start" x="310" y="-7.8" font-family="arial" font-size="14.00">Influence: ↺</text>
</g>
<!-- Camel&#39;s back breaks !noyes ///Influence: threshold -->
<g id="node2" class="node"><title>Camel&#39;s back breaks !noyes ///Influence: threshold</title>
<polygon fill="#e5f5e0" stroke="#e5f5e0" stroke-width="2" points="656,-38 489,-38 489,-0 656,-0 656,-38"/>
<text text-anchor="start" x="497" y="-22.8" font-family="arial" font-size="14.00">Camel&#39;s back breaks ◨ </text>
<text text-anchor="start" x="510" y="-7.8" font-family="arial" font-size="14.00">Influence: threshold</text>
</g>
<!-- Weight of straw on camel ///Influence: !memory&#45;&gt;Camel&#39;s back breaks !noyes ///Influence: threshold -->
<g id="edge1" class="edge"><title>Weight of straw on camel ///Influence: !memory&#45;&gt;Camel&#39;s back breaks !noyes ///Influence: threshold</title>
<path fill="none" stroke="#41ab5d" d="M439.135,-19C452.259,-19 465.804,-19 478.994,-19"/>
<polygon fill="#41ab5d" stroke="#41ab5d" points="478.999,-22.5001 488.999,-19 478.999,-15.5001 478.999,-22.5001"/>
</g>
<!-- Weight of extra straw added to camel&#39;s load -->
<g id="node3" class="node"><title>Weight of extra straw added to camel&#39;s load</title>
<polygon fill="#e5f5e0" stroke="#e5f5e0" stroke-width="2" points="209,-38 0,-38 0,-0 209,-0 209,-38"/>
<text text-anchor="start" x="8" y="-22.8" font-family="arial" font-size="14.00">Weight of extra straw added to</text>
<text text-anchor="start" x="64.5" y="-7.8" font-family="arial" font-size="14.00">camel&#39;s load</text>
</g>
<!-- Weight of extra straw added to camel&#39;s load&#45;&gt;Weight of straw on camel ///Influence: !memory -->
<g id="edge2" class="edge"><title>Weight of extra straw added to camel&#39;s load&#45;&gt;Weight of straw on camel ///Influence: !memory</title>
<path fill="none" stroke="#41ab5d" d="M209.045,-19C222.149,-19 235.534,-19 248.572,-19"/>
<polygon fill="#41ab5d" stroke="#41ab5d" points="248.941,-22.5001 258.941,-19 248.941,-15.5001 248.941,-22.5001"/>
</g>
</g>
</svg>
