<?xml version="1.0" encoding="UTF-8" standalone="no"?>
<!DOCTYPE svg PUBLIC "-//W3C//DTD SVG 1.1//EN"
 "http://www.w3.org/Graphics/SVG/1.1/DTD/svg11.dtd">
<!-- Generated by graphviz version 2.38.0 (20140413.2041)
 -->
<!-- Title: foo Pages: 1 -->
<svg width="386pt" height="81pt"
 viewBox="0.00 0.00 386.00 81.00" xmlns="http://www.w3.org/2000/svg" xmlns:xlink="http://www.w3.org/1999/xlink">
<g id="graph0" class="graph" transform="scale(1 1) rotate(0) translate(4 77)">
<title>foo</title>
<g id="a_graph0"><a xlink:title=" ">
<polygon fill="#d9d9d9" stroke="none" points="-4,4 -4,-77 382,-77 382,4 -4,4"/>
<text text-anchor="start" x="138.5" y="-7.2" font-family="tahoma" font-size="11.00" fill="#525252">We can improve this</text>
</a>
</g>
<!-- City mayors&#39; activities are monitored -->
<g id="node1" class="node"><title>City mayors&#39; activities are monitored</title>
<polygon fill="#fee6ce" stroke="#fee6ce" points="176,-65.5 0,-65.5 0,-27.5 176,-27.5 176,-65.5"/>
<text text-anchor="start" x="8" y="-50.3" font-family="Helvetica,sans-Serif" font-size="14.00">City mayors&#39; activities are</text>
<text text-anchor="start" x="56" y="-35.3" font-family="Helvetica,sans-Serif" font-size="14.00">monitored</text>
</g>
<!-- City mayors are more transparent in policy implementation -->
<g id="node2" class="node"><title>City mayors are more transparent in policy implementation</title>
<polygon fill="#fee6ce" stroke="#fee6ce" points="378,-73 226,-73 226,-20 378,-20 378,-73"/>
<text text-anchor="start" x="234" y="-57.8" font-family="Helvetica,sans-Serif" font-size="14.00">City mayors are more</text>
<text text-anchor="start" x="239" y="-42.8" font-family="Helvetica,sans-Serif" font-size="14.00">transparent in policy</text>
<text text-anchor="start" x="253.5" y="-27.8" font-family="Helvetica,sans-Serif" font-size="14.00">implementation</text>
</g>
<!-- City mayors&#39; activities are monitored&#45;&gt;City mayors are more transparent in policy implementation -->
<g id="edge1" class="edge"><title>City mayors&#39; activities are monitored&#45;&gt;City mayors are more transparent in policy implementation</title>
<path fill="none" stroke="#737373" stroke-width="2" d="M176.146,-46.5C189.123,-46.5 202.489,-46.5 215.432,-46.5"/>
<polygon fill="#737373" stroke="#737373" stroke-width="2" points="215.707,-50.0001 225.706,-46.5 215.706,-43.0001 215.707,-50.0001"/>
</g>
</g>
</svg>
