<?xml version="1.0" encoding="UTF-8" standalone="no"?>
<!DOCTYPE svg PUBLIC "-//W3C//DTD SVG 1.1//EN"
 "http://www.w3.org/Graphics/SVG/1.1/DTD/svg11.dtd">
<!-- Generated by graphviz version 2.38.0 (20140413.2041)
 -->
<!-- Title: foo Pages: 1 -->
<svg width="650pt" height="182pt"
 viewBox="0.00 0.00 650.00 182.00" xmlns="http://www.w3.org/2000/svg" xmlns:xlink="http://www.w3.org/1999/xlink">
<g id="graph0" class="graph" transform="scale(1 1) rotate(0) translate(4 178)">
<title>foo</title>
<g id="a_graph0"><a xlink:title=" ">
<polygon fill="white" stroke="none" points="-4,4 -4,-178 646,-178 646,4 -4,4"/>
</a>
</g>
<g id="clust1" class="cluster"><title>cluster_Contentsubproject</title>
<g id="a_clust1"><a xlink:title=" ">
<path fill="#fcfbfd" stroke="#dadaeb" d="M20,-8C20,-8 369,-8 369,-8 375,-8 381,-14 381,-20 381,-20 381,-71 381,-71 381,-77 375,-83 369,-83 369,-83 20,-83 20,-83 14,-83 8,-77 8,-71 8,-71 8,-20 8,-20 8,-14 14,-8 20,-8"/>
<text text-anchor="start" x="16" y="-67.8" font-family="arial" font-size="14.00">Content sub&#45;project</text>
</a>
</g>
</g>
<g id="clust2" class="cluster"><title>cluster_Anxietysubproject</title>
<g id="a_clust2"><a xlink:title=" ">
<path fill="#fcfbfd" stroke="#dadaeb" d="M20.5,-91C20.5,-91 365.5,-91 365.5,-91 371.5,-91 377.5,-97 377.5,-103 377.5,-103 377.5,-154 377.5,-154 377.5,-160 371.5,-166 365.5,-166 365.5,-166 20.5,-166 20.5,-166 14.5,-166 8.5,-160 8.5,-154 8.5,-154 8.5,-103 8.5,-103 8.5,-97 14.5,-91 20.5,-91"/>
<text text-anchor="start" x="16.5" y="-150.8" font-family="arial" font-size="14.00">Anxiety sub&#45;project</text>
</a>
</g>
</g>
<!-- ((Increased)) &#160;subject knowledge -->
<g id="node1" class="node"><title>((Increased)) &#160;subject knowledge</title>
<polygon fill="#e5f5e0" stroke="#e5f5e0" stroke-width="2" points="373,-52 225,-52 225,-16 373,-16 373,-52"/>
<text text-anchor="start" x="233" y="-37.8" font-family="arial" font-size="14.00" fill="green">((Increased))</text>
<text text-anchor="start" x="315" y="-37.8" font-family="arial" font-size="14.00"> subject</text>
<text text-anchor="start" x="264.5" y="-23.8" font-family="arial" font-size="14.00">knowledge</text>
</g>
<!-- ((Improved)) &#160;exam performance -->
<g id="node2" class="node"><title>((Improved)) &#160;exam performance</title>
<polygon fill="#e5f5e0" stroke="#e5f5e0" stroke-width="2" points="642,-93 423,-93 423,-57 642,-57 642,-93"/>
<text text-anchor="start" x="431" y="-72.3" font-family="arial" font-size="14.00" fill="green">((Improved))</text>
<text text-anchor="start" x="510" y="-72.3" font-family="arial" font-size="14.00"> exam performance</text>
</g>
<!-- ((Increased)) &#160;subject knowledge&#45;&gt;((Improved)) &#160;exam performance -->
<g id="edge1" class="edge"><title>((Increased)) &#160;subject knowledge&#45;&gt;((Improved)) &#160;exam performance</title>
<path fill="none" stroke="#41ab5d" d="M373.248,-46.9727C387.918,-49.5707 403.645,-52.3561 419.286,-55.1262"/>
<polygon fill="#41ab5d" stroke="#41ab5d" points="419.082,-58.6446 429.54,-56.9422 420.303,-51.7519 419.082,-58.6446"/>
</g>
<!-- !do content intervention -->
<g id="node3" class="node"><title>!do content intervention</title>
<polygon fill="#e5f5e0" stroke="#e5f5e0" stroke-width="2" points="175,-52 16,-52 16,-16 175,-16 175,-52"/>
<text text-anchor="start" x="24" y="-31.3" font-family="arial" font-size="14.00" fill="green">▶ </text>
<text text-anchor="start" x="40" y="-31.3" font-family="arial" font-size="14.00"> content intervention</text>
</g>
<!-- !do content intervention&#45;&gt;((Increased)) &#160;subject knowledge -->
<g id="edge2" class="edge"><title>!do content intervention&#45;&gt;((Increased)) &#160;subject knowledge</title>
<path fill="none" stroke="#41ab5d" d="M175.271,-34C188.161,-34 201.556,-34 214.555,-34"/>
<polygon fill="#41ab5d" stroke="#41ab5d" points="214.878,-37.5001 224.878,-34 214.878,-30.5001 214.878,-37.5001"/>
</g>
<!-- ((Reduced)) &#160;anxiety -->
<g id="node4" class="node"><title>((Reduced)) &#160;anxiety</title>
<polygon fill="#e5f5e0" stroke="#e5f5e0" stroke-width="2" points="369.5,-135 228.5,-135 228.5,-99 369.5,-99 369.5,-135"/>
<text text-anchor="start" x="236.5" y="-114.3" font-family="arial" font-size="14.00" fill="green">((Reduced))</text>
<text text-anchor="start" x="313.5" y="-114.3" font-family="arial" font-size="14.00"> anxiety</text>
</g>
<!-- ((Reduced)) &#160;anxiety&#45;&gt;((Improved)) &#160;exam performance -->
<g id="edge3" class="edge"><title>((Reduced)) &#160;anxiety&#45;&gt;((Improved)) &#160;exam performance</title>
<path fill="none" stroke="#41ab5d" d="M369.772,-104.342C386.284,-101.346 404.287,-98.0796 422.09,-94.8498"/>
<polygon fill="#41ab5d" stroke="#41ab5d" points="422.734,-98.2901 431.949,-93.0611 421.485,-91.4025 422.734,-98.2901"/>
</g>
<!-- !do Anxiety intervention -->
<g id="node5" class="node"><title>!do Anxiety intervention</title>
<polygon fill="#e5f5e0" stroke="#e5f5e0" stroke-width="2" points="174.5,-135 16.5,-135 16.5,-99 174.5,-99 174.5,-135"/>
<text text-anchor="start" x="24.5" y="-114.3" font-family="arial" font-size="14.00" fill="green">▶ </text>
<text text-anchor="start" x="40.5" y="-114.3" font-family="arial" font-size="14.00"> Anxiety intervention</text>
</g>
<!-- !do Anxiety intervention&#45;&gt;((Reduced)) &#160;anxiety -->
<g id="edge4" class="edge"><title>!do Anxiety intervention&#45;&gt;((Reduced)) &#160;anxiety</title>
<path fill="none" stroke="#41ab5d" d="M174.694,-117C188.937,-117 203.814,-117 218.105,-117"/>
<polygon fill="#41ab5d" stroke="#41ab5d" points="218.391,-120.5 228.391,-117 218.391,-113.5 218.391,-120.5"/>
</g>
</g>
</svg>
