<?xml version="1.0" encoding="UTF-8" standalone="no"?>
<!DOCTYPE svg PUBLIC "-//W3C//DTD SVG 1.1//EN"
 "http://www.w3.org/Graphics/SVG/1.1/DTD/svg11.dtd">
<!-- Generated by graphviz version 2.38.0 (20140413.2041)
 -->
<!-- Title: foo Pages: 1 -->
<svg width="337pt" height="144pt"
 viewBox="0.00 0.00 337.00 144.00" xmlns="http://www.w3.org/2000/svg" xmlns:xlink="http://www.w3.org/1999/xlink">
<g id="graph0" class="graph" transform="scale(1 1) rotate(0) translate(4 140)">
<title>foo</title>
<g id="a_graph0"><a xlink:title=" ">
<polygon fill="white" stroke="none" points="-4,4 -4,-140 333,-140 333,4 -4,4"/>
</a>
</g>
<!-- Number of staff -->
<g id="node1" class="node"><title>Number of staff</title>
<polygon fill="#e5f5e0" stroke="#e5f5e0" stroke-width="2" points="115,-136 0,-136 0,-100 115,-100 115,-136"/>
<text text-anchor="start" x="8" y="-114.3" font-family="arial" font-size="14.00">Number of staff</text>
</g>
<!-- Success of intervention -->
<g id="node2" class="node"><title>Success of intervention</title>
<polygon fill="#e5f5e0" stroke="#e5f5e0" stroke-width="2" points="329,-86 165,-86 165,-50 329,-50 329,-86"/>
<text text-anchor="start" x="173" y="-64.3" font-family="arial" font-size="14.00">Success of intervention</text>
</g>
<!-- Number of staff&#45;&gt;Success of intervention -->
<g id="edge1" class="edge"><title>Number of staff&#45;&gt;Success of intervention</title>
<path fill="none" stroke="#41ab5d" d="M107.235,-99.9841C125.16,-93.3579 143.707,-86.5018 154.532,-82.5001"/>
<polygon fill="#41ab5d" stroke="#41ab5d" points="155.834,-85.7503 164,-79 153.407,-79.1845 155.834,-85.7503"/>
</g>
<!-- Quality of staff -->
<g id="node3" class="node"><title>Quality of staff</title>
<polygon fill="#e5f5e0" stroke="#e5f5e0" stroke-width="2" points="111,-86 4,-86 4,-50 111,-50 111,-86"/>
<text text-anchor="start" x="12" y="-64.3" font-family="arial" font-size="14.00">Quality of staff</text>
</g>
<!-- Quality of staff&#45;&gt;Success of intervention -->
<g id="edge2" class="edge"><title>Quality of staff&#45;&gt;Success of intervention</title>
<path fill="none" stroke="#41ab5d" d="M111.25,-73.5C127.528,-75.1973 143.807,-76.8945 153.884,-77.9453"/>
<polygon fill="#41ab5d" stroke="#41ab5d" points="153.691,-81.444 164,-79 154.417,-74.4818 153.691,-81.444"/>
</g>
<!-- Other factors -->
<g id="node4" class="node"><title>Other factors</title>
<polygon fill="#e5f5e0" stroke="#e5f5e0" stroke-width="2" points="107,-36 8,-36 8,-0 107,-0 107,-36"/>
<text text-anchor="start" x="16" y="-14.3" font-family="arial" font-size="14.00">Other factors</text>
</g>
<!-- Other factors&#45;&gt;Success of intervention -->
<g id="edge3" class="edge"><title>Other factors&#45;&gt;Success of intervention</title>
<path fill="none" stroke="#41ab5d" d="M107.274,-31.0064C126.008,-36.0022 147.883,-41.8355 168.65,-47.3732"/>
<polygon fill="#41ab5d" stroke="#41ab5d" points="167.852,-50.7827 178.416,-49.9776 169.655,-44.019 167.852,-50.7827"/>
</g>
</g>
</svg>
