<?xml version="1.0" encoding="UTF-8" standalone="no"?>
<!DOCTYPE svg PUBLIC "-//W3C//DTD SVG 1.1//EN"
 "http://www.w3.org/Graphics/SVG/1.1/DTD/svg11.dtd">
<!-- Generated by graphviz version 2.38.0 (20140413.2041)
 -->
<!-- Title: foo Pages: 1 -->
<svg width="613pt" height="112pt"
 viewBox="0.00 0.00 613.00 111.50" xmlns="http://www.w3.org/2000/svg" xmlns:xlink="http://www.w3.org/1999/xlink">
<g id="graph0" class="graph" transform="scale(1 1) rotate(0) translate(4 107.5)">
<title>foo</title>
<g id="a_graph0"><a xlink:title=" ">
<polygon fill="white" stroke="none" points="-4,4 -4,-107.5 609,-107.5 609,4 -4,4"/>
</a>
</g>
<!-- Teacher attends course -->
<g id="node1" class="node"><title>Teacher attends course</title>
<polygon fill="#e5f5e0" stroke="#e5f5e0" stroke-width="2" points="408,-65 241,-65 241,-29 408,-29 408,-65"/>
<text text-anchor="start" x="249" y="-43.3" font-family="arial" font-size="14.00">Teacher attends course</text>
</g>
<!-- Better teaching Ministry: !heart Teacher: !heart -->
<g id="node2" class="node"><title>Better teaching Ministry: !heart Teacher: !heart</title>
<polygon fill="#e5f5e0" stroke="#e5f5e0" stroke-width="2" points="587.5,-103.5 475.5,-103.5 475.5,-50.5 587.5,-50.5 587.5,-103.5"/>
<text text-anchor="start" x="483.5" y="-88.3" font-family="arial" font-size="14.00">Better teaching</text>
<text text-anchor="start" x="499.5" y="-73.3" font-family="arial" font-size="14.00">Ministry: ♥</text>
<text text-anchor="start" x="497" y="-58.3" font-family="arial" font-size="14.00">Teacher: ♥</text>
</g>
<!-- Teacher attends course&#45;&gt;Better teaching Ministry: !heart Teacher: !heart -->
<g id="edge1" class="edge"><title>Teacher attends course&#45;&gt;Better teaching Ministry: !heart Teacher: !heart</title>
<path fill="none" stroke="#41ab5d" d="M408.29,-59.1157C427.236,-61.8881 447.114,-64.7972 465.204,-67.4445"/>
<polygon fill="#41ab5d" stroke="#41ab5d" points="464.938,-70.9428 475.339,-68.9277 465.952,-64.0165 464.938,-70.9428"/>
</g>
<!-- More pay Teacher: !heart -->
<g id="node3" class="node"><title>More pay Teacher: !heart</title>
<polygon fill="#e5f5e0" stroke="#e5f5e0" stroke-width="2" points="605,-36 458,-36 458,-0 605,-0 605,-36"/>
<text text-anchor="start" x="466" y="-14.3" font-family="arial" font-size="14.00">More pay Teacher: ♥</text>
</g>
<!-- Teacher attends course&#45;&gt;More pay Teacher: !heart -->
<g id="edge2" class="edge"><title>Teacher attends course&#45;&gt;More pay Teacher: !heart</title>
<path fill="none" stroke="#41ab5d" d="M408.29,-35.2882C421.396,-33.4342 434.948,-31.5171 448.046,-29.6642"/>
<polygon fill="#41ab5d" stroke="#41ab5d" points="448.548,-33.1282 457.959,-28.2619 447.567,-26.1972 448.548,-33.1282"/>
</g>
<!-- Ministry: !do Provides in&#45;service teacher training -->
<g id="node4" class="node"><title>Ministry: !do Provides in&#45;service teacher training</title>
<polygon fill="#e5f5e0" stroke="#e5f5e0" stroke-width="2" points="184,-90 7,-90 7,-54 184,-54 184,-90"/>
<text text-anchor="start" x="29.5" y="-75.8" font-family="arial" font-size="14.00">Ministry: </text>
<text text-anchor="start" x="84.5" y="-75.8" font-family="arial" font-size="14.00" fill="green">▶ </text>
<text text-anchor="start" x="100.5" y="-75.8" font-family="arial" font-size="14.00"> Provides</text>
<text text-anchor="start" x="15" y="-61.8" font-family="arial" font-size="14.00">in&#45;service teacher training</text>
</g>
<!-- Ministry: !do Provides in&#45;service teacher training&#45;&gt;Teacher attends course -->
<g id="edge3" class="edge"><title>Ministry: !do Provides in&#45;service teacher training&#45;&gt;Teacher attends course</title>
<path fill="none" stroke="#41ab5d" d="M184.264,-62.3343C199.513,-60.6549 215.417,-58.9035 230.793,-57.21"/>
<polygon fill="#41ab5d" stroke="#41ab5d" points="231.252,-60.6807 240.809,-56.1069 230.486,-53.7228 231.252,-60.6807"/>
</g>
<!-- Teacher: !do Effort to attend course -->
<g id="node5" class="node"><title>Teacher: !do Effort to attend course</title>
<polygon fill="#e5f5e0" stroke="#e5f5e0" stroke-width="2" points="191,-40 0,-40 0,-4 191,-4 191,-40"/>
<text text-anchor="start" x="8" y="-25.8" font-family="arial" font-size="14.00">Teacher: </text>
<text text-anchor="start" x="69" y="-25.8" font-family="arial" font-size="14.00" fill="green">▶ </text>
<text text-anchor="start" x="85" y="-25.8" font-family="arial" font-size="14.00"> Effort to attend</text>
<text text-anchor="start" x="73.5" y="-11.8" font-family="arial" font-size="14.00">course</text>
</g>
<!-- Teacher: !do Effort to attend course&#45;&gt;Teacher attends course -->
<g id="edge4" class="edge"><title>Teacher: !do Effort to attend course&#45;&gt;Teacher attends course</title>
<path fill="none" stroke="#41ab5d" d="M191.125,-32.4212C204.309,-33.8732 217.843,-35.3637 230.987,-36.8114"/>
<polygon fill="#41ab5d" stroke="#41ab5d" points="230.628,-40.2929 240.951,-37.9087 231.394,-33.3349 230.628,-40.2929"/>
</g>
</g>
</svg>
