<?xml version="1.0" encoding="UTF-8" standalone="no"?>
<!DOCTYPE svg PUBLIC "-//W3C//DTD SVG 1.1//EN"
 "http://www.w3.org/Graphics/SVG/1.1/DTD/svg11.dtd">
<!-- Generated by graphviz version 2.38.0 (20140413.2041)
 -->
<!-- Title: foo Pages: 1 -->
<svg width="474pt" height="98pt"
 viewBox="0.00 0.00 474.00 97.80" xmlns="http://www.w3.org/2000/svg" xmlns:xlink="http://www.w3.org/1999/xlink">
<g id="graph0" class="graph" transform="scale(1 1) rotate(0) translate(4 93.8)">
<title>foo</title>
<g id="a_graph0"><a xlink:title=" ">
<polygon fill="#c7e9c0" stroke="none" points="-4,4 -4,-93.8 470,-93.8 470,4 -4,4"/>
<text text-anchor="start" x="195" y="-7.2" font-family="tahoma" font-size="11.00" fill="#238b45">Try this instead</text>
</a>
</g>
<!-- Achievement, ///!for&#45;each student ///(students 1, 2, 3) -->
<g id="node1" class="node"><title>Achievement, ///!for&#45;each student ///(students 1, 2, 3)</title>
<polygon fill="#f7fcf5" stroke="#f7fcf5" points="306,-89.7003 164,-89.7003 164,-20.0997 306,-20.0997 306,-89.7003"/>
<text text-anchor="start" x="189.5" y="-74.6" font-family="Helvetica,sans-Serif" font-size="14.00" fill="#006d2c">Achievement, </text>
<text text-anchor="start" x="172" y="-42.8" font-family="Helvetica,sans-Serif" font-size="14.00" fill="#006d2c">For each... &#160;student </text>
<text text-anchor="start" x="181.5" y="-27.8" font-family="Helvetica,sans-Serif" font-size="14.00" fill="#006d2c">(students 1, 2, 3)</text>
</g>
<!-- Teacher: Pride -->
<g id="node2" class="node"><title>Teacher: Pride</title>
<polygon fill="#f7fcf5" stroke="#f7fcf5" points="466,-72.9 356,-72.9 356,-36.9 466,-36.9 466,-72.9"/>
<text text-anchor="start" x="364" y="-51.2" font-family="Helvetica,sans-Serif" font-size="14.00" fill="#006d2c">Teacher: Pride</text>
</g>
<!-- Achievement, ///!for&#45;each student ///(students 1, 2, 3)&#45;&gt;Teacher: Pride -->
<g id="edge1" class="edge"><title>Achievement, ///!for&#45;each student ///(students 1, 2, 3)&#45;&gt;Teacher: Pride</title>
<path fill="none" stroke="#41ab5d" stroke-width="2" d="M306.02,-54.9C319.135,-54.9 332.785,-54.9 345.715,-54.9"/>
<polygon fill="#41ab5d" stroke="#41ab5d" stroke-width="2" points="345.907,-58.4001 355.907,-54.9 345.907,-51.4001 345.907,-58.4001"/>
</g>
<!-- Teacher: Ability -->
<g id="node3" class="node"><title>Teacher: Ability</title>
<polygon fill="#f7fcf5" stroke="#f7fcf5" points="114,-72.9 0,-72.9 0,-36.9 114,-36.9 114,-72.9"/>
<text text-anchor="start" x="8" y="-51.2" font-family="Helvetica,sans-Serif" font-size="14.00" fill="#006d2c">Teacher: Ability</text>
</g>
<!-- Teacher: Ability&#45;&gt;Achievement, ///!for&#45;each student ///(students 1, 2, 3) -->
<g id="edge2" class="edge"><title>Teacher: Ability&#45;&gt;Achievement, ///!for&#45;each student ///(students 1, 2, 3)</title>
<path fill="none" stroke="#41ab5d" stroke-width="2" d="M114.171,-54.9C126.758,-54.9 140.348,-54.9 153.699,-54.9"/>
<polygon fill="#41ab5d" stroke="#41ab5d" stroke-width="2" points="153.843,-58.4001 163.843,-54.9 153.842,-51.4001 153.843,-58.4001"/>
</g>
</g>
</svg>
