<?xml version="1.0" encoding="UTF-8" standalone="no"?>
<!DOCTYPE svg PUBLIC "-//W3C//DTD SVG 1.1//EN"
 "http://www.w3.org/Graphics/SVG/1.1/DTD/svg11.dtd">
<!-- Generated by graphviz version 2.38.0 (20140413.2041)
 -->
<!-- Title: foo Pages: 1 -->
<svg width="178pt" height="94pt"
 viewBox="0.00 0.00 178.00 94.00" xmlns="http://www.w3.org/2000/svg" xmlns:xlink="http://www.w3.org/1999/xlink">
<g id="graph0" class="graph" transform="scale(1 1) rotate(0) translate(4 90)">
<title>foo</title>
<g id="a_graph0"><a xlink:title=" ">
<polygon fill="white" stroke="none" points="-4,4 -4,-90 174,-90 174,4 -4,4"/>
</a>
</g>
<!-- Y -->
<g id="node1" class="node"><title>Y</title>
<polygon fill="#e5f5e0" stroke="#e5f5e0" stroke-width="2" points="54,-61 0,-61 0,-25 54,-25 54,-61"/>
<text text-anchor="start" x="22.5" y="-39.3" font-family="arial" font-size="14.00">b</text>
</g>
<!-- X !plus -->
<g id="node2" class="node"><title>X !plus</title>
<polygon fill="#e5f5e0" stroke="#e5f5e0" stroke-width="2" points="170,-86 116,-86 116,-50 170,-50 170,-86"/>
<text text-anchor="start" x="130.5" y="-64.3" font-family="arial" font-size="14.00">X ⊕</text>
</g>
<!-- Y&#45;&gt;X !plus -->
<g id="edge1" class="edge"><title>Y&#45;&gt;X !plus</title>
<path fill="none" stroke="#41ab5d" d="M54.1539,-48.7355C69.5053,-52.102 89.1283,-56.4053 105.932,-60.0905"/>
<polygon fill="#41ab5d" stroke="#41ab5d" points="105.45,-63.5678 115.968,-62.2912 106.95,-56.7303 105.45,-63.5678"/>
</g>
<!-- X -->
<g id="node3" class="node"><title>X</title>
<polygon fill="#e5f5e0" stroke="#e5f5e0" stroke-width="2" points="170,-36 116,-36 116,-0 170,-0 170,-36"/>
<text text-anchor="start" x="139" y="-14.3" font-family="arial" font-size="14.00">a</text>
</g>
<!-- Y&#45;&gt;X -->
<g id="edge2" class="edge"><title>Y&#45;&gt;X</title>
<path fill="none" stroke="#41ab5d" d="M54.1539,-37.2645C69.5053,-33.898 89.1283,-29.5947 105.932,-25.9095"/>
<polygon fill="#41ab5d" stroke="#41ab5d" points="106.95,-29.2697 115.968,-23.7088 105.45,-22.4322 106.95,-29.2697"/>
<text text-anchor="start" x="79" y="-34.8" font-family="Times New Roman,serif" font-size="14.00">⊕</text>
</g>
</g>
</svg>
