<?xml version="1.0" encoding="UTF-8" standalone="no"?>
<!DOCTYPE svg PUBLIC "-//W3C//DTD SVG 1.1//EN"
 "http://www.w3.org/Graphics/SVG/1.1/DTD/svg11.dtd">
<!-- Generated by graphviz version 2.38.0 (20140413.2041)
 -->
<!-- Title: foo Pages: 1 -->
<svg width="308pt" height="105pt"
 viewBox="0.00 0.00 308.00 105.00" xmlns="http://www.w3.org/2000/svg" xmlns:xlink="http://www.w3.org/1999/xlink">
<g id="graph0" class="graph" transform="scale(1 1) rotate(0) translate(4 101)">
<title>foo</title>
<g id="a_graph0"><a xlink:title=" ">
<polygon fill="white" stroke="none" points="-4,4 -4,-101 304,-101 304,4 -4,4"/>
</a>
</g>
<!-- Smoking -->
<g id="node1" class="node"><title>Smoking</title>
<polygon fill="#e5f5e0" stroke="#e5f5e0" stroke-width="2" points="125.5,-97 53.5,-97 53.5,-74 125.5,-74 125.5,-97"/>
<text text-anchor="start" x="61.5" y="-81.8" font-family="arial" font-size="14.00">Smoking</text>
</g>
<!-- Health !minus -->
<g id="node2" class="node"><title>Health !minus</title>
<polygon fill="#e5f5e0" stroke="#e5f5e0" stroke-width="2" points="300,-60 229,-60 229,-37 300,-37 300,-60"/>
<text text-anchor="start" x="237" y="-44.8" font-family="arial" font-size="14.00">Health ⊖</text>
</g>
<!-- Smoking&#45;&gt;Health !minus -->
<g id="edge1" class="edge"><title>Smoking&#45;&gt;Health !minus</title>
<path fill="none" stroke="#41ab5d" d="M125.848,-78.4833C142.06,-75.2208 161.522,-71.242 179,-67.5 191.878,-64.7429 205.835,-61.6483 218.626,-58.7699"/>
<polygon fill="#41ab5d" stroke="#41ab5d" points="219.607,-62.1364 228.59,-56.5185 218.065,-55.3085 219.607,-62.1364"/>
</g>
<!-- Drinking too much alcohol -->
<g id="node3" class="node"><title>Drinking too much alcohol</title>
<polygon fill="#e5f5e0" stroke="#e5f5e0" stroke-width="2" points="179,-60 0,-60 0,-37 179,-37 179,-60"/>
<text text-anchor="start" x="8" y="-44.8" font-family="arial" font-size="14.00">Drinking too much alcohol</text>
</g>
<!-- Drinking too much alcohol&#45;&gt;Health !minus -->
<g id="edge2" class="edge"><title>Drinking too much alcohol&#45;&gt;Health !minus</title>
<path fill="none" stroke="#41ab5d" d="M179.027,-48.5C192.658,-48.5 206.222,-48.5 218.364,-48.5"/>
<polygon fill="#41ab5d" stroke="#41ab5d" points="218.634,-52.0001 228.634,-48.5 218.634,-45.0001 218.634,-52.0001"/>
</g>
<!-- Eating too much -->
<g id="node4" class="node"><title>Eating too much</title>
<polygon fill="#e5f5e0" stroke="#e5f5e0" stroke-width="2" points="149,-23 30,-23 30,-0 149,-0 149,-23"/>
<text text-anchor="start" x="38" y="-7.8" font-family="arial" font-size="14.00">Eating too much</text>
</g>
<!-- Eating too much&#45;&gt;Health !minus -->
<g id="edge3" class="edge"><title>Eating too much&#45;&gt;Health !minus</title>
<path fill="none" stroke="#41ab5d" d="M144.29,-23.0042C168.202,-28.1184 196.025,-34.069 218.775,-38.9346"/>
<polygon fill="#41ab5d" stroke="#41ab5d" points="218.328,-42.418 228.839,-41.0869 219.792,-35.5728 218.328,-42.418"/>
</g>
</g>
</svg>
