<?xml version="1.0" encoding="UTF-8" standalone="no"?>
<!DOCTYPE svg PUBLIC "-//W3C//DTD SVG 1.1//EN"
 "http://www.w3.org/Graphics/SVG/1.1/DTD/svg11.dtd">
<!-- Generated by graphviz version 2.38.0 (20140413.2041)
 -->
<!-- Title: foo Pages: 1 -->
<svg width="444pt" height="76pt"
 viewBox="0.00 0.00 444.00 76.00" xmlns="http://www.w3.org/2000/svg" xmlns:xlink="http://www.w3.org/1999/xlink">
<g id="graph0" class="graph" transform="scale(1 1) rotate(0) translate(4 72)">
<title>foo</title>
<g id="a_graph0"><a xlink:title=" ">
<polygon fill="white" stroke="none" points="-4,4 -4,-72 440,-72 440,4 -4,4"/>
</a>
</g>
<!-- More innovation at Universities in Croatia !spiral -->
<g id="node1" class="node"><title>More innovation at Universities in Croatia !spiral</title>
<polygon fill="#e5f5e0" stroke="#e5f5e0" stroke-width="2" points="264,-68 160,-68 160,-0 264,-0 264,-68"/>
<text text-anchor="start" x="195.5" y="-52.8" font-family="arial" font-size="14.00">More</text>
<text text-anchor="start" x="172.5" y="-37.8" font-family="arial" font-size="14.00">innovation at</text>
<text text-anchor="start" x="168" y="-22.8" font-family="arial" font-size="14.00">Universities in</text>
<text text-anchor="start" x="180.5" y="-7.8" font-family="arial" font-size="14.00">Croatia ֍</text>
</g>
<!-- Universities in Croatia are more successful -->
<g id="node2" class="node"><title>Universities in Croatia are more successful</title>
<polygon fill="#e5f5e0" stroke="#e5f5e0" stroke-width="2" points="436,-60.5 314,-60.5 314,-7.5 436,-7.5 436,-60.5"/>
<text text-anchor="start" x="331" y="-45.3" font-family="arial" font-size="14.00">Universities in</text>
<text text-anchor="start" x="322" y="-30.3" font-family="arial" font-size="14.00">Croatia are more</text>
<text text-anchor="start" x="340.5" y="-15.3" font-family="arial" font-size="14.00">successful</text>
</g>
<!-- More innovation at Universities in Croatia !spiral&#45;&gt;Universities in Croatia are more successful -->
<g id="edge1" class="edge"><title>More innovation at Universities in Croatia !spiral&#45;&gt;Universities in Croatia are more successful</title>
<path fill="none" stroke="#41ab5d" d="M264.384,-34C276.924,-34 290.554,-34 303.805,-34"/>
<polygon fill="#41ab5d" stroke="#41ab5d" points="303.839,-37.5001 313.839,-34 303.839,-30.5001 303.839,-37.5001"/>
</g>
<!-- Support given to innovation at Universities in Croatia -->
<g id="node3" class="node"><title>Support given to innovation at Universities in Croatia</title>
<polygon fill="#e5f5e0" stroke="#e5f5e0" stroke-width="2" points="110,-68 0,-68 0,-0 110,-0 110,-68"/>
<text text-anchor="start" x="11" y="-52.8" font-family="arial" font-size="14.00">Support given</text>
<text text-anchor="start" x="8" y="-37.8" font-family="arial" font-size="14.00">to innovation at</text>
<text text-anchor="start" x="11" y="-22.8" font-family="arial" font-size="14.00">Universities in</text>
<text text-anchor="start" x="32" y="-7.8" font-family="arial" font-size="14.00">Croatia</text>
</g>
<!-- Support given to innovation at Universities in Croatia&#45;&gt;More innovation at Universities in Croatia !spiral -->
<g id="edge2" class="edge"><title>Support given to innovation at Universities in Croatia&#45;&gt;More innovation at Universities in Croatia !spiral</title>
<path fill="none" stroke="#41ab5d" d="M110.211,-34C122.955,-34 136.625,-34 149.657,-34"/>
<polygon fill="#41ab5d" stroke="#41ab5d" points="149.942,-37.5001 159.942,-34 149.942,-30.5001 149.942,-37.5001"/>
</g>
</g>
</svg>
