<?xml version="1.0" encoding="UTF-8" standalone="no"?>
<!DOCTYPE svg PUBLIC "-//W3C//DTD SVG 1.1//EN"
 "http://www.w3.org/Graphics/SVG/1.1/DTD/svg11.dtd">
<!-- Generated by graphviz version 2.38.0 (20140413.2041)
 -->
<!-- Title: foo Pages: 1 -->
<svg width="1027pt" height="235pt"
 viewBox="0.00 0.00 1027.00 235.00" xmlns="http://www.w3.org/2000/svg" xmlns:xlink="http://www.w3.org/1999/xlink">
<g id="graph0" class="graph" transform="scale(1 1) rotate(0) translate(4 231)">
<title>foo</title>
<g id="a_graph0"><a xlink:title=" ">
<polygon fill="white" stroke="none" points="-4,4 -4,-231 1023,-231 1023,4 -4,4"/>
</a>
</g>
<g id="clust1" class="cluster"><title>cluster_Foreachof20teachers</title>
<g id="a_clust1"><a xlink:title=" ">
<path fill="#fcfbfd" stroke="#dadaeb" d="M66,-94C66,-94 694,-94 694,-94 700,-94 706,-100 706,-106 706,-106 706,-207 706,-207 706,-213 700,-219 694,-219 694,-219 66,-219 66,-219 60,-219 54,-213 54,-207 54,-207 54,-106 54,-106 54,-100 60,-94 66,-94"/>
<text text-anchor="start" x="62" y="-203.8" font-family="arial" font-size="14.00">For each of 20 teachers</text>
</a>
</g>
</g>
<!-- Teaching quality ((improved)) !lohi. &#160;&#160;Teacher: !heart -->
<g id="node1" class="node"><title>Teaching quality ((improved)) !lohi. &#160;&#160;Teacher: !heart</title>
<polygon fill="#e5f5e0" stroke="#e5f5e0" stroke-width="2" points="698,-138 479,-138 479,-102 698,-102 698,-138"/>
<text text-anchor="start" x="487" y="-123.8" font-family="arial" font-size="14.00">Teaching quality </text>
<text text-anchor="start" x="593" y="-123.8" font-family="arial" font-size="14.00" fill="green">((improved))</text>
<text text-anchor="start" x="671" y="-123.8" font-family="arial" font-size="14.00"> ◪.</text>
<text text-anchor="start" x="553.5" y="-109.8" font-family="arial" font-size="14.00">Teacher: </text>
<text text-anchor="start" x="614.5" y="-109.8" font-family="arial" font-size="14.00" fill="orange">♥</text>
</g>
<!-- Average teaching quality ((improved)). !noyes &#160;&#160;Ministry: !heart -->
<g id="node2" class="node"><title>Average teaching quality ((improved)). !noyes &#160;&#160;Ministry: !heart</title>
<polygon fill="none" stroke="#e5f5e0" stroke-width="2" stroke-dasharray="5,2" points="1019,-163 748,-163 748,-127 1019,-127 1019,-163"/>
<text text-anchor="start" x="756" y="-148.8" font-family="arial" font-size="14.00">Average teaching quality </text>
<text text-anchor="start" x="914" y="-148.8" font-family="arial" font-size="14.00" fill="green">((improved))</text>
<text text-anchor="start" x="992" y="-148.8" font-family="arial" font-size="14.00">. ◨</text>
<text text-anchor="start" x="851.5" y="-134.8" font-family="arial" font-size="14.00">Ministry: </text>
<text text-anchor="start" x="906.5" y="-134.8" font-family="arial" font-size="14.00" fill="orange">♥</text>
</g>
<!-- Teaching quality ((improved)) !lohi. &#160;&#160;Teacher: !heart&#45;&gt;Average teaching quality ((improved)). !noyes &#160;&#160;Ministry: !heart -->
<g id="edge1" class="edge"><title>Teaching quality ((improved)) !lohi. &#160;&#160;Teacher: !heart&#45;&gt;Average teaching quality ((improved)). !noyes &#160;&#160;Ministry: !heart</title>
<path fill="none" stroke="#41ab5d" stroke-dasharray="5,2" d="M698.186,-129.274C711.099,-130.375 724.433,-131.513 737.748,-132.649"/>
<polygon fill="#41ab5d" stroke="#41ab5d" points="737.657,-136.154 747.918,-133.517 738.252,-129.179 737.657,-136.154"/>
</g>
<!-- ((More)) outstanding teaching. !lohi &#160;&#160;Trainer: !heart -->
<g id="node3" class="node"><title>((More)) outstanding teaching. !lohi &#160;&#160;Trainer: !heart</title>
<polygon fill="none" stroke="#e5f5e0" stroke-width="2" stroke-dasharray="5,2" points="993.5,-113 773.5,-113 773.5,-77 993.5,-77 993.5,-113"/>
<text text-anchor="start" x="781.5" y="-98.8" font-family="arial" font-size="14.00" fill="green">((More))</text>
<text text-anchor="start" x="832.5" y="-98.8" font-family="arial" font-size="14.00"> outstanding teaching. ◪</text>
<text text-anchor="start" x="853" y="-84.8" font-family="arial" font-size="14.00">Trainer: </text>
<text text-anchor="start" x="905" y="-84.8" font-family="arial" font-size="14.00" fill="orange">♥</text>
</g>
<!-- Teaching quality ((improved)) !lohi. &#160;&#160;Teacher: !heart&#45;&gt;((More)) outstanding teaching. !lohi &#160;&#160;Trainer: !heart -->
<g id="edge2" class="edge"><title>Teaching quality ((improved)) !lohi. &#160;&#160;Teacher: !heart&#45;&gt;((More)) outstanding teaching. !lohi &#160;&#160;Trainer: !heart</title>
<path fill="none" stroke="#41ab5d" stroke-dasharray="5,2" d="M698.186,-110.726C719.275,-108.927 741.487,-107.032 762.904,-105.204"/>
<polygon fill="#41ab5d" stroke="#41ab5d" points="763.346,-108.68 773.012,-104.342 762.751,-101.705 763.346,-108.68"/>
</g>
<!-- tr -->
<g id="node4" class="node"><title>tr</title>
<polygon fill="#e5f5e0" stroke="#e5f5e0" stroke-width="2" points="429,-140 302,-140 302,-102 429,-102 429,-140"/>
<text text-anchor="start" x="310" y="-124.8" font-family="arial" font-size="14.00">Teacher receives</text>
<text text-anchor="start" x="335" y="-109.8" font-family="arial" font-size="14.00">training ◨</text>
</g>
<!-- tr&#45;&gt;Teaching quality ((improved)) !lohi. &#160;&#160;Teacher: !heart -->
<g id="edge3" class="edge"><title>tr&#45;&gt;Teaching quality ((improved)) !lohi. &#160;&#160;Teacher: !heart</title>
<path fill="none" stroke="#41ab5d" d="M429.239,-120.716C441.543,-120.66 454.826,-120.6 468.283,-120.539"/>
<polygon fill="#41ab5d" stroke="#41ab5d" points="468.609,-124.038 478.593,-120.493 468.578,-117.038 468.609,-124.038"/>
</g>
<!-- Pay ((increased)) !lohi &#160;&#160;Teacher: !heart -->
<g id="node6" class="node"><title>Pay ((increased)) !lohi &#160;&#160;Teacher: !heart</title>
<polygon fill="#e5f5e0" stroke="#e5f5e0" stroke-width="2" points="659,-188 518,-188 518,-152 659,-152 659,-188"/>
<text text-anchor="start" x="526" y="-173.8" font-family="arial" font-size="14.00">Pay </text>
<text text-anchor="start" x="554" y="-173.8" font-family="arial" font-size="14.00" fill="green">((increased))</text>
<text text-anchor="start" x="635" y="-173.8" font-family="arial" font-size="14.00"> ◪</text>
<text text-anchor="start" x="553.5" y="-159.8" font-family="arial" font-size="14.00">Teacher: </text>
<text text-anchor="start" x="614.5" y="-159.8" font-family="arial" font-size="14.00" fill="orange">♥</text>
</g>
<!-- tr&#45;&gt;Pay ((increased)) !lohi &#160;&#160;Teacher: !heart -->
<g id="edge5" class="edge"><title>tr&#45;&gt;Pay ((increased)) !lohi &#160;&#160;Teacher: !heart</title>
<path fill="none" stroke="#41ab5d" d="M429.239,-134.91C453.68,-140.33 481.982,-146.605 507.836,-152.337"/>
<polygon fill="#41ab5d" stroke="#41ab5d" points="507.092,-155.757 517.612,-154.505 508.607,-148.923 507.092,-155.757"/>
</g>
<!-- Total pay ((increased)) &#160;&#160;Ministry: !frown -->
<g id="node9" class="node"><title>Total pay ((increased)) &#160;&#160;Ministry: !frown</title>
<polygon fill="#e5f5e0" stroke="#e5f5e0" stroke-width="2" points="668,-86 509,-86 509,-50 668,-50 668,-86"/>
<text text-anchor="start" x="517" y="-71.8" font-family="arial" font-size="14.00">Total pay </text>
<text text-anchor="start" x="579" y="-71.8" font-family="arial" font-size="14.00" fill="green">((increased))</text>
<text text-anchor="start" x="555" y="-57.8" font-family="arial" font-size="14.00">Ministry: ☹</text>
</g>
<!-- tr&#45;&gt;Total pay ((increased)) &#160;&#160;Ministry: !frown -->
<g id="edge8" class="edge"><title>tr&#45;&gt;Total pay ((increased)) &#160;&#160;Ministry: !frown</title>
<path fill="none" stroke="#41ab5d" d="M429.13,-103.684C445.332,-99.3733 462.781,-94.8789 479,-91 485.48,-89.4503 492.19,-87.8993 498.951,-86.3758"/>
<polygon fill="#41ab5d" stroke="#41ab5d" points="499.87,-89.7569 508.87,-84.1665 498.348,-82.9243 499.87,-89.7569"/>
</g>
<!-- Teacher: &#160;!do &#160;&#160;Attends course !noyes -->
<g id="node5" class="node"><title>Teacher: &#160;!do &#160;&#160;Attends course !noyes</title>
<polygon fill="#e5f5e0" stroke="#e5f5e0" stroke-width="2" points="190,-139 62,-139 62,-103 190,-103 190,-139"/>
<text text-anchor="start" x="86" y="-124.8" font-family="arial" font-size="14.00">Teacher: &#160;</text>
<text text-anchor="start" x="150" y="-124.8" font-family="arial" font-size="14.00" fill="green">▶ </text>
<text text-anchor="start" x="70" y="-110.8" font-family="arial" font-size="14.00">Attends course ◨</text>
</g>
<!-- Teacher: &#160;!do &#160;&#160;Attends course !noyes&#45;&gt;tr -->
<g id="edge4" class="edge"><title>Teacher: &#160;!do &#160;&#160;Attends course !noyes&#45;&gt;tr</title>
<path fill="none" stroke="#41ab5d" d="M190.022,-121C221.147,-121 258.877,-121 291.278,-121"/>
<polygon fill="#41ab5d" stroke="#41ab5d" points="291.596,-124.5 301.596,-121 291.596,-117.5 291.596,-124.5"/>
</g>
<!-- Ministry: !do &#160;&#160;Provides in&#45;service teacher training !noyes -->
<g id="node7" class="node"><title>Ministry: !do &#160;&#160;Provides in&#45;service teacher training !noyes</title>
<polygon fill="#e5f5e0" stroke="#e5f5e0" stroke-width="2" points="252,-86 0,-86 0,-50 252,-50 252,-86"/>
<text text-anchor="start" x="90.5" y="-71.8" font-family="arial" font-size="14.00">Ministry: </text>
<text text-anchor="start" x="145.5" y="-71.8" font-family="arial" font-size="14.00" fill="green">▶ </text>
<text text-anchor="start" x="8" y="-57.8" font-family="arial" font-size="14.00">Provides in&#45;service teacher training ◨</text>
</g>
<!-- Ministry: !do &#160;&#160;Provides in&#45;service teacher training !noyes&#45;&gt;tr -->
<g id="edge6" class="edge"><title>Ministry: !do &#160;&#160;Provides in&#45;service teacher training !noyes&#45;&gt;tr</title>
<path fill="none" stroke="#41ab5d" d="M228.784,-86.0381C236.654,-87.6435 244.465,-89.3049 252,-91 264.965,-93.9167 278.69,-97.3138 291.93,-100.752"/>
<polygon fill="#41ab5d" stroke="#41ab5d" points="291.379,-104.226 301.94,-103.382 293.158,-97.4559 291.379,-104.226"/>
</g>
<!-- Trainer: !do &#160;&#160;Provides pro&#45;bono training !noyes !heart -->
<g id="node8" class="node"><title>Trainer: !do &#160;&#160;Provides pro&#45;bono training !noyes !heart</title>
<polygon fill="#e5f5e0" stroke="#e5f5e0" stroke-width="2" points="231.5,-36 20.5,-36 20.5,-0 231.5,-0 231.5,-36"/>
<text text-anchor="start" x="92" y="-21.8" font-family="arial" font-size="14.00">Trainer: </text>
<text text-anchor="start" x="144" y="-21.8" font-family="arial" font-size="14.00" fill="green">▶ </text>
<text text-anchor="start" x="28.5" y="-7.8" font-family="arial" font-size="14.00">Provides pro&#45;bono training ◨ </text>
<text text-anchor="start" x="214.5" y="-7.8" font-family="arial" font-size="14.00" fill="orange">♥</text>
</g>
<!-- Trainer: !do &#160;&#160;Provides pro&#45;bono training !noyes !heart&#45;&gt;tr -->
<g id="edge7" class="edge"><title>Trainer: !do &#160;&#160;Provides pro&#45;bono training !noyes !heart&#45;&gt;tr</title>
<path fill="none" stroke="#41ab5d" d="M231.658,-35.5641C238.641,-37.7624 245.482,-40.2303 252,-43 282.645,-56.0222 313.442,-78.1526 335.047,-95.5215"/>
<polygon fill="#41ab5d" stroke="#41ab5d" points="332.902,-98.2894 342.857,-101.916 337.337,-92.8732 332.902,-98.2894"/>
</g>
</g>
</svg>
