<?xml version="1.0" encoding="UTF-8" standalone="no"?>
<!DOCTYPE svg PUBLIC "-//W3C//DTD SVG 1.1//EN"
 "http://www.w3.org/Graphics/SVG/1.1/DTD/svg11.dtd">
<!-- Generated by graphviz version 2.38.0 (20140413.2041)
 -->
<!-- Title: foo Pages: 1 -->
<svg width="249pt" height="134pt"
 viewBox="0.00 0.00 249.00 133.50" xmlns="http://www.w3.org/2000/svg" xmlns:xlink="http://www.w3.org/1999/xlink">
<g id="graph0" class="graph" transform="scale(1 1) rotate(0) translate(4 129.5)">
<title>foo</title>
<g id="a_graph0"><a xlink:title=" ">
<polygon fill="#c7e9c0" stroke="none" points="-4,4 -4,-129.5 245,-129.5 245,4 -4,4"/>
<text text-anchor="start" x="82.5" y="-7.2" font-family="tahoma" font-size="11.00" fill="#238b45">Try this instead</text>
</a>
</g>
<!-- axsxdf -->
<!-- Subjective temperature -->
<g id="node2" class="node"><title>Subjective temperature</title>
<polygon fill="#f7fcf5" stroke="#f7fcf5" points="241,-84 148,-84 148,-46 241,-46 241,-84"/>
<text text-anchor="start" x="161" y="-68.8" font-family="Helvetica,sans-Serif" font-size="14.00" fill="#006d2c">Subjective</text>
<text text-anchor="start" x="156" y="-53.8" font-family="Helvetica,sans-Serif" font-size="14.00" fill="#006d2c">temperature</text>
</g>
<!-- axsxdf&#45;&gt;Subjective temperature -->
<g id="edge1" class="edge"><title>axsxdf&#45;&gt;Subjective temperature</title>
<path fill="none" stroke="#41ab5d" stroke-width="0" d="M49.0208,-124.475C57.0087,-123.545 73.0328,-121.288 86,-117 107.99,-109.728 131.26,-98.8996 150.505,-89.004"/>
<polygon fill="#41ab5d" stroke="#41ab5d" stroke-width="0" points="152.369,-91.9789 159.606,-84.2408 149.123,-85.777 152.369,-91.9789"/>
</g>
<!-- Strength of sunshine -->
<g id="node3" class="node"><title>Strength of sunshine</title>
<polygon fill="#f7fcf5" stroke="#f7fcf5" points="86,-110 0,-110 0,-72 86,-72 86,-110"/>
<text text-anchor="start" x="8" y="-94.8" font-family="Helvetica,sans-Serif" font-size="14.00" fill="#006d2c">Strength of</text>
<text text-anchor="start" x="14.5" y="-79.8" font-family="Helvetica,sans-Serif" font-size="14.00" fill="#006d2c">sunshine</text>
</g>
<!-- Strength of sunshine&#45;&gt;Subjective temperature -->
<g id="edge2" class="edge"><title>Strength of sunshine&#45;&gt;Subjective temperature</title>
<path fill="none" stroke="#41ab5d" stroke-width="2" d="M86.0419,-83.6884C102.141,-80.8885 120.762,-77.65 137.935,-74.6636"/>
<polygon fill="#41ab5d" stroke="#41ab5d" stroke-width="2" points="138.595,-78.1012 147.848,-72.9395 137.396,-71.2048 138.595,-78.1012"/>
</g>
<!-- Strength of wind -->
<g id="node4" class="node"><title>Strength of wind</title>
<polygon fill="#f7fcf5" stroke="#f7fcf5" points="86,-58 0,-58 0,-20 86,-20 86,-58"/>
<text text-anchor="start" x="8" y="-42.8" font-family="Helvetica,sans-Serif" font-size="14.00" fill="#006d2c">Strength of</text>
<text text-anchor="start" x="28.5" y="-27.8" font-family="Helvetica,sans-Serif" font-size="14.00" fill="#006d2c">wind</text>
</g>
<!-- Strength of wind&#45;&gt;Subjective temperature -->
<g id="edge3" class="edge"><title>Strength of wind&#45;&gt;Subjective temperature</title>
<path fill="none" stroke="#41ab5d" stroke-width="2" d="M86.0419,-46.3116C102.141,-49.1115 120.762,-52.35 137.935,-55.3364"/>
<polygon fill="#41ab5d" stroke="#41ab5d" stroke-width="2" points="137.396,-58.7952 147.848,-57.0605 138.595,-51.8988 137.396,-58.7952"/>
<text text-anchor="start" x="111" y="-55.8" font-family="Helvetica,sans-Serif" font-size="14.00" fill="#cd5c5c">⇅</text>
</g>
</g>
</svg>
