<?xml version="1.0" encoding="UTF-8" standalone="no"?>
<!DOCTYPE svg PUBLIC "-//W3C//DTD SVG 1.1//EN"
 "http://www.w3.org/Graphics/SVG/1.1/DTD/svg11.dtd">
<!-- Generated by graphviz version 2.38.0 (20140413.2041)
 -->
<!-- Title: foo Pages: 1 -->
<svg width="374pt" height="244pt"
 viewBox="0.00 0.00 374.00 244.00" xmlns="http://www.w3.org/2000/svg" xmlns:xlink="http://www.w3.org/1999/xlink">
<g id="graph0" class="graph" transform="scale(1 1) rotate(0) translate(4 240)">
<title>foo</title>
<g id="a_graph0"><a xlink:title=" ">
<polygon fill="white" stroke="none" points="-4,4 -4,-240 370,-240 370,4 -4,4"/>
</a>
</g>
<!-- b -->
<g id="node1" class="node"><title>b</title>
<polygon fill="#e5f5e0" stroke="#e5f5e0" stroke-width="2" points="262,-136 208,-136 208,-100 262,-100 262,-136"/>
<text text-anchor="start" x="230.5" y="-114.3" font-family="arial" font-size="14.00">b</text>
</g>
<!-- a -->
<g id="node2" class="node"><title>a</title>
<polygon fill="#e5f5e0" stroke="#e5f5e0" stroke-width="2" points="366,-86 312,-86 312,-50 366,-50 366,-86"/>
<text text-anchor="start" x="335" y="-64.3" font-family="arial" font-size="14.00">a</text>
</g>
<!-- b&#45;&gt;a -->
<g id="edge1" class="edge"><title>b&#45;&gt;a</title>
<path fill="none" stroke="#41ab5d" d="M262.003,-105.254C274.257,-99.2467 289.068,-91.9861 302.349,-85.476"/>
<polygon fill="#41ab5d" stroke="#41ab5d" points="304.251,-88.4414 311.69,-80.8971 301.17,-82.156 304.251,-88.4414"/>
</g>
<!-- c -->
<g id="node3" class="node"><title>c</title>
<polygon fill="#e5f5e0" stroke="#e5f5e0" stroke-width="2" points="262,-86 208,-86 208,-50 262,-50 262,-86"/>
<text text-anchor="start" x="231" y="-64.3" font-family="arial" font-size="14.00">c</text>
</g>
<!-- c&#45;&gt;a -->
<g id="edge2" class="edge"><title>c&#45;&gt;a</title>
<path fill="none" stroke="#41ab5d" d="M262.003,-68C274.019,-68 288.494,-68 301.574,-68"/>
<polygon fill="#41ab5d" stroke="#41ab5d" points="301.69,-71.5001 311.69,-68 301.69,-64.5001 301.69,-71.5001"/>
</g>
<!-- d -->
<g id="node4" class="node"><title>d</title>
<polygon fill="#e5f5e0" stroke="#e5f5e0" stroke-width="2" points="158,-136 104,-136 104,-100 158,-100 158,-136"/>
<text text-anchor="start" x="126.5" y="-114.3" font-family="arial" font-size="14.00">d</text>
</g>
<!-- d&#45;&gt;b -->
<g id="edge3" class="edge"><title>d&#45;&gt;b</title>
<path fill="none" stroke="#41ab5d" d="M158.003,-118C170.019,-118 184.494,-118 197.574,-118"/>
<polygon fill="#41ab5d" stroke="#41ab5d" points="197.69,-121.5 207.69,-118 197.69,-114.5 197.69,-121.5"/>
</g>
<!-- d&#45;&gt;c -->
<g id="edge4" class="edge"><title>d&#45;&gt;c</title>
<path fill="none" stroke="#41ab5d" d="M158.003,-105.254C170.257,-99.2467 185.068,-91.9861 198.349,-85.476"/>
<polygon fill="#41ab5d" stroke="#41ab5d" points="200.251,-88.4414 207.69,-80.8971 197.17,-82.156 200.251,-88.4414"/>
</g>
<!-- e -->
<g id="node5" class="node"><title>e</title>
<polygon fill="#e5f5e0" stroke="#e5f5e0" stroke-width="2" points="158,-36 104,-36 104,-0 158,-0 158,-36"/>
<text text-anchor="start" x="126.5" y="-14.3" font-family="arial" font-size="14.00">e</text>
</g>
<!-- e&#45;&gt;b -->
<g id="edge5" class="edge"><title>e&#45;&gt;b</title>
<path fill="none" stroke="#41ab5d" d="M151.069,-36.2531C153.41,-38.5183 155.764,-40.8078 158,-43 178.423,-63.0265 184.501,-69.7905 207.572,-92.5208"/>
<polygon fill="#41ab5d" stroke="#41ab5d" points="205.343,-95.2379 214.931,-99.7469 210.248,-90.2432 205.343,-95.2379"/>
</g>
<!-- e&#45;&gt;a -->
<g id="edge9" class="edge"><title>e&#45;&gt;a</title>
<path fill="none" stroke="#41ab5d" d="M158.117,-22.0136C184.523,-26.3071 226.406,-33.7636 262,-43 275.261,-46.4411 289.585,-50.9417 302.185,-55.1746"/>
<polygon fill="#41ab5d" stroke="#41ab5d" points="301.272,-58.5614 311.866,-58.4865 303.538,-51.9382 301.272,-58.5614"/>
</g>
<!-- e&#45;&gt;c -->
<g id="edge6" class="edge"><title>e&#45;&gt;c</title>
<path fill="none" stroke="#41ab5d" d="M158.003,-30.7465C170.257,-36.7533 185.068,-44.0139 198.349,-50.524"/>
<polygon fill="#41ab5d" stroke="#41ab5d" points="197.17,-53.844 207.69,-55.1029 200.251,-47.5586 197.17,-53.844"/>
</g>
<!-- f -->
<g id="node6" class="node"><title>f</title>
<polygon fill="#e5f5e0" stroke="#e5f5e0" stroke-width="2" points="158,-86 104,-86 104,-50 158,-50 158,-86"/>
<text text-anchor="start" x="128.5" y="-64.3" font-family="arial" font-size="14.00">f</text>
</g>
<!-- f&#45;&gt;b -->
<g id="edge7" class="edge"><title>f&#45;&gt;b</title>
<path fill="none" stroke="#41ab5d" d="M158.003,-80.7465C170.257,-86.7533 185.068,-94.0139 198.349,-100.524"/>
<polygon fill="#41ab5d" stroke="#41ab5d" points="197.17,-103.844 207.69,-105.103 200.251,-97.5586 197.17,-103.844"/>
</g>
<!-- f&#45;&gt;c -->
<g id="edge8" class="edge"><title>f&#45;&gt;c</title>
<path fill="none" stroke="#41ab5d" d="M158.003,-68C170.019,-68 184.494,-68 197.574,-68"/>
<polygon fill="#41ab5d" stroke="#41ab5d" points="197.69,-71.5001 207.69,-68 197.69,-64.5001 197.69,-71.5001"/>
</g>
<!-- g -->
<g id="node7" class="node"><title>g</title>
<polygon fill="#e5f5e0" stroke="#e5f5e0" stroke-width="2" points="158,-236 104,-236 104,-200 158,-200 158,-236"/>
<text text-anchor="start" x="126.5" y="-214.3" font-family="arial" font-size="14.00">g</text>
</g>
<!-- g&#45;&gt;b -->
<g id="edge10" class="edge"><title>g&#45;&gt;b</title>
<path fill="none" stroke="#41ab5d" d="M151.055,-199.733C153.399,-197.47 155.757,-195.185 158,-193 174.848,-176.588 193.665,-158.02 208.36,-143.466"/>
<polygon fill="#41ab5d" stroke="#41ab5d" points="210.999,-145.779 215.637,-136.253 206.071,-140.807 210.999,-145.779"/>
</g>
<!-- h -->
<g id="node8" class="node"><title>h</title>
<polygon fill="#e5f5e0" stroke="#e5f5e0" stroke-width="2" points="158,-186 104,-186 104,-150 158,-150 158,-186"/>
<text text-anchor="start" x="127" y="-164.3" font-family="arial" font-size="14.00">h</text>
</g>
<!-- h&#45;&gt;b -->
<g id="edge11" class="edge"><title>h&#45;&gt;b</title>
<path fill="none" stroke="#41ab5d" d="M158.003,-155.254C170.257,-149.247 185.068,-141.986 198.349,-135.476"/>
<polygon fill="#41ab5d" stroke="#41ab5d" points="200.251,-138.441 207.69,-130.897 197.17,-132.156 200.251,-138.441"/>
</g>
<!-- i -->
<g id="node9" class="node"><title>i</title>
<polygon fill="#e5f5e0" stroke="#e5f5e0" stroke-width="2" points="54,-86 0,-86 0,-50 54,-50 54,-86"/>
<text text-anchor="start" x="25" y="-64.3" font-family="arial" font-size="14.00">i</text>
</g>
<!-- i&#45;&gt;e -->
<g id="edge14" class="edge"><title>i&#45;&gt;e</title>
<path fill="none" stroke="#41ab5d" d="M54.0028,-55.2535C66.2567,-49.2467 81.0684,-41.9861 94.3489,-35.476"/>
<polygon fill="#41ab5d" stroke="#41ab5d" points="96.2513,-38.4414 103.69,-30.8971 93.1702,-32.156 96.2513,-38.4414"/>
</g>
<!-- i&#45;&gt;f -->
<g id="edge13" class="edge"><title>i&#45;&gt;f</title>
<path fill="none" stroke="#41ab5d" d="M54.0028,-68C66.0187,-68 80.4941,-68 93.5735,-68"/>
<polygon fill="#41ab5d" stroke="#41ab5d" points="93.69,-71.5001 103.69,-68 93.69,-64.5001 93.69,-71.5001"/>
</g>
<!-- i&#45;&gt;h -->
<g id="edge12" class="edge"><title>i&#45;&gt;h</title>
<path fill="none" stroke="#41ab5d" d="M46.363,-86.2534C60.2757,-100.054 80.0589,-119.618 103.541,-142.52"/>
<polygon fill="#41ab5d" stroke="#41ab5d" points="101.339,-145.262 110.945,-149.733 106.224,-140.248 101.339,-145.262"/>
</g>
</g>
</svg>
