<?xml version="1.0" encoding="UTF-8" standalone="no"?>
<!DOCTYPE svg PUBLIC "-//W3C//DTD SVG 1.1//EN"
 "http://www.w3.org/Graphics/SVG/1.1/DTD/svg11.dtd">
<!-- Generated by graphviz version 2.38.0 (20140413.2041)
 -->
<!-- Title: foo Pages: 1 -->
<svg width="850pt" height="219pt"
 viewBox="0.00 0.00 850.00 219.00" xmlns="http://www.w3.org/2000/svg" xmlns:xlink="http://www.w3.org/1999/xlink">
<g id="graph0" class="graph" transform="scale(1 1) rotate(0) translate(4 215)">
<title>foo</title>
<g id="a_graph0"><a xlink:title=" ">
<polygon fill="#deebf7" stroke="none" points="-4,4 -4,-215 846,-215 846,4 -4,4"/>
</a>
</g>
<!-- Ordered -->
<g id="node1" class="node"><title>Ordered</title>
<polygon fill="#000000" fill-opacity="0.062745" stroke="#000000" stroke-opacity="0.062745" points="695.5,-61 621.5,-61 621.5,-25 695.5,-25 695.5,-61"/>
<text text-anchor="start" x="629.5" y="-39.3" font-family="verdana" font-size="14.00">Ordered</text>
</g>
<!-- Variables -->
<g id="node2" class="node"><title>Variables</title>
<polygon fill="#000000" fill-opacity="0.062745" stroke="#000000" stroke-opacity="0.062745" points="842,-136 759,-136 759,-100 842,-100 842,-136"/>
<text text-anchor="start" x="767" y="-114.3" font-family="verdana" font-size="14.00">Variables</text>
</g>
<!-- Ordered&#45;&gt;Variables -->
<g id="edge1" class="edge"><title>Ordered&#45;&gt;Variables</title>
<path fill="none" stroke="#6baed6" d="M695.538,-61.0049C700.083,-63.3332 704.659,-65.7056 709,-68 728.52,-78.3171 750.175,-90.2626 767.406,-99.89"/>
</g>
<!-- Continuous -->
<g id="node3" class="node"><title>Continuous</title>
<polygon fill="#000000" fill-opacity="0.062745" stroke="#000000" stroke-opacity="0.062745" points="517.5,-61 419.5,-61 419.5,-25 517.5,-25 517.5,-61"/>
<text text-anchor="start" x="427.5" y="-39.3" font-family="verdana" font-size="14.00">Continuous</text>
</g>
<!-- Continuous&#45;&gt;Ordered -->
<g id="edge2" class="edge"><title>Continuous&#45;&gt;Ordered</title>
<path fill="none" stroke="#6baed6" d="M517.915,-43C550.227,-43 592.021,-43 621.424,-43"/>
</g>
<!-- Lo&#45;hi -->
<g id="node4" class="node"><title>Lo&#45;hi</title>
<polygon fill="#000000" fill-opacity="0.062745" stroke="#000000" stroke-opacity="0.062745" points="291,-86 237,-86 237,-50 291,-50 291,-86"/>
<text text-anchor="start" x="245" y="-64.3" font-family="verdana" font-size="14.00">Lo&#45;hi</text>
</g>
<!-- Lo&#45;hi&#45;&gt;Continuous -->
<g id="edge3" class="edge"><title>Lo&#45;hi&#45;&gt;Continuous</title>
<path fill="none" stroke="#6baed6" d="M291.059,-64.7829C323.425,-60.787 379.277,-53.8917 419.481,-48.9282"/>
</g>
<!-- Anchored lo&#45;hi -->
<g id="node5" class="node"><title>Anchored lo&#45;hi</title>
<polygon fill="#000000" fill-opacity="0.062745" stroke="#000000" stroke-opacity="0.062745" points="136,-136 13,-136 13,-100 136,-100 136,-136"/>
<text text-anchor="start" x="21" y="-114.3" font-family="verdana" font-size="14.00">Anchored lo&#45;hi</text>
</g>
<!-- Anchored lo&#45;hi&#45;&gt;Lo&#45;hi -->
<g id="edge4" class="edge"><title>Anchored lo&#45;hi&#45;&gt;Lo&#45;hi</title>
<path fill="none" stroke="#6baed6" d="M136.117,-101.835C170.141,-92.7624 210.847,-81.9075 236.809,-74.9841"/>
</g>
<!-- Counting numbers -->
<g id="node6" class="node"><title>Counting numbers</title>
<polygon fill="#000000" fill-opacity="0.062745" stroke="#000000" stroke-opacity="0.062745" points="149,-86 0,-86 0,-50 149,-50 149,-86"/>
<text text-anchor="start" x="8" y="-64.3" font-family="verdana" font-size="14.00">Counting numbers</text>
</g>
<!-- Counting numbers&#45;&gt;Lo&#45;hi -->
<g id="edge5" class="edge"><title>Counting numbers&#45;&gt;Lo&#45;hi</title>
<path fill="none" stroke="#6baed6" d="M149.067,-68C180.051,-68 214.123,-68 236.86,-68"/>
</g>
<!-- Rational numbers -->
<g id="node7" class="node"><title>Rational numbers</title>
<polygon fill="#000000" fill-opacity="0.062745" stroke="#000000" stroke-opacity="0.062745" points="146,-36 3,-36 3,-0 146,-0 146,-36"/>
<text text-anchor="start" x="11" y="-14.3" font-family="verdana" font-size="14.00">Rational numbers</text>
</g>
<!-- Rational numbers&#45;&gt;Lo&#45;hi -->
<g id="edge6" class="edge"><title>Rational numbers&#45;&gt;Lo&#45;hi</title>
<path fill="none" stroke="#6baed6" d="M143.192,-36.0511C175.71,-44.7226 212.771,-54.6057 236.954,-61.0543"/>
</g>
<!-- Binary (no/yes) -->
<g id="node8" class="node"><title>Binary (no/yes)</title>
<polygon fill="#000000" fill-opacity="0.062745" stroke="#000000" stroke-opacity="0.062745" points="329,-36 199,-36 199,-0 329,-0 329,-36"/>
<text text-anchor="start" x="207" y="-14.3" font-family="verdana" font-size="14.00">Binary (no/yes)</text>
</g>
<!-- Binary (no/yes)&#45;&gt;Continuous -->
<g id="edge7" class="edge"><title>Binary (no/yes)&#45;&gt;Continuous</title>
<path fill="none" stroke="#6baed6" d="M329.072,-25.9102C358.272,-29.515 392.262,-33.7114 419.253,-37.0436"/>
</g>
<!-- Cyclic -->
<g id="node9" class="node"><title>Cyclic</title>
<polygon fill="#000000" fill-opacity="0.062745" stroke="#000000" stroke-opacity="0.062745" points="688,-211 629,-211 629,-175 688,-175 688,-211"/>
<text text-anchor="start" x="637" y="-189.3" font-family="verdana" font-size="14.00">Cyclic</text>
</g>
<!-- Cyclic&#45;&gt;Variables -->
<g id="edge8" class="edge"><title>Cyclic&#45;&gt;Variables</title>
<path fill="none" stroke="#6baed6" d="M688.124,-178.77C694.988,-175.295 702.276,-171.554 709,-168 728.52,-157.683 750.175,-145.737 767.406,-136.11"/>
</g>
<!-- Hierarchical -->
<g id="node10" class="node"><title>Hierarchical</title>
<polygon fill="#000000" fill-opacity="0.062745" stroke="#000000" stroke-opacity="0.062745" points="709,-161 608,-161 608,-125 709,-125 709,-161"/>
<text text-anchor="start" x="616" y="-139.3" font-family="verdana" font-size="14.00">Hierarchical</text>
</g>
<!-- Hierarchical&#45;&gt;Variables -->
<g id="edge9" class="edge"><title>Hierarchical&#45;&gt;Variables</title>
<path fill="none" stroke="#6baed6" d="M709.253,-134.116C725.443,-131.224 743.215,-128.051 758.674,-125.29"/>
</g>
<!-- Nominal -->
<g id="node11" class="node"><title>Nominal</title>
<polygon fill="#000000" fill-opacity="0.062745" stroke="#000000" stroke-opacity="0.062745" points="696.5,-111 620.5,-111 620.5,-75 696.5,-75 696.5,-111"/>
<text text-anchor="start" x="628.5" y="-89.3" font-family="verdana" font-size="14.00">Nominal</text>
</g>
<!-- Nominal&#45;&gt;Variables -->
<g id="edge10" class="edge"><title>Nominal&#45;&gt;Variables</title>
<path fill="none" stroke="#6baed6" d="M696.65,-99.6339C715.768,-103.048 739.113,-107.217 758.727,-110.719"/>
</g>
<!-- Binary e.g. heads/tails -->
<g id="node12" class="node"><title>Binary e.g. heads/tails</title>
<polygon fill="#000000" fill-opacity="0.062745" stroke="#000000" stroke-opacity="0.062745" points="558,-111 379,-111 379,-75 558,-75 558,-111"/>
<text text-anchor="start" x="387" y="-89.3" font-family="verdana" font-size="14.00">Binary e.g. heads/tails</text>
</g>
<!-- Binary e.g. heads/tails&#45;&gt;Nominal -->
<g id="edge11" class="edge"><title>Binary e.g. heads/tails&#45;&gt;Nominal</title>
<path fill="none" stroke="#6baed6" d="M558.27,-93C580.137,-93 602.382,-93 620.253,-93"/>
</g>
</g>
</svg>
