<?xml version="1.0" encoding="UTF-8" standalone="no"?>
<!DOCTYPE svg PUBLIC "-//W3C//DTD SVG 1.1//EN"
 "http://www.w3.org/Graphics/SVG/1.1/DTD/svg11.dtd">
<!-- Generated by graphviz version 2.38.0 (20140413.2041)
 -->
<!-- Title: foo Pages: 1 -->
<svg width="393pt" height="252pt"
 viewBox="0.00 0.00 392.66 252.40" xmlns="http://www.w3.org/2000/svg" xmlns:xlink="http://www.w3.org/1999/xlink">
<g id="graph0" class="graph" transform="scale(1 1) rotate(0) translate(4 248.402)">
<title>foo</title>
<g id="a_graph0"><a xlink:title=" ">
<polygon fill="white" stroke="none" points="-4,4 -4,-248.402 388.656,-248.402 388.656,4 -4,4"/>
</a>
</g>
<!-- b -->
<g id="node1" class="node"><title>b</title>
<polygon fill="#e5f5e0" stroke="#e5f5e0" stroke-width="2" points="294.642,-140.201 240.642,-140.201 240.642,-104.201 294.642,-104.201 294.642,-140.201"/>
<text text-anchor="start" x="263.142" y="-118.501" font-family="arial" font-size="14.00">b</text>
</g>
<!-- a -->
<g id="node2" class="node"><title>a</title>
<polygon fill="#e5f5e0" stroke="#e5f5e0" stroke-width="2" points="234.482,-244.402 180.482,-244.402 180.482,-208.402 234.482,-208.402 234.482,-244.402"/>
<text text-anchor="start" x="203.482" y="-222.702" font-family="arial" font-size="14.00">a</text>
</g>
<!-- b&#45;&gt;a -->
<g id="edge1" class="edge"><title>b&#45;&gt;a</title>
<path fill="none" stroke="#41ab5d" d="M257.163,-140.352C247.775,-156.613 233.874,-180.69 223.162,-199.244"/>
<polygon fill="#41ab5d" stroke="#41ab5d" points="220.012,-197.7 218.043,-208.11 226.074,-201.2 220.012,-197.7"/>
</g>
<!-- c -->
<g id="node3" class="node"><title>c</title>
<polygon fill="#e5f5e0" stroke="#e5f5e0" stroke-width="2" points="54,-140.201 0,-140.201 0,-104.201 54,-104.201 54,-140.201"/>
<text text-anchor="start" x="23" y="-118.501" font-family="arial" font-size="14.00">c</text>
</g>
<!-- c&#45;&gt;a -->
<g id="edge2" class="edge"><title>c&#45;&gt;a</title>
<path fill="none" stroke="#41ab5d" d="M54.0199,-137.801C85.2533,-155.834 136.792,-185.59 171.424,-205.585"/>
<polygon fill="#41ab5d" stroke="#41ab5d" points="169.867,-208.727 180.277,-210.696 173.367,-202.665 169.867,-208.727"/>
</g>
<!-- d -->
<g id="node4" class="node"><title>d</title>
<polygon fill="#e5f5e0" stroke="#e5f5e0" stroke-width="2" points="234.482,-36 180.482,-36 180.482,-0 234.482,-0 234.482,-36"/>
<text text-anchor="start" x="202.982" y="-14.3" font-family="arial" font-size="14.00">d</text>
</g>
<!-- d&#45;&gt;b -->
<g id="edge3" class="edge"><title>d&#45;&gt;b</title>
<path fill="none" stroke="#41ab5d" d="M217.961,-36.1505C227.349,-52.4119 241.25,-76.4888 251.962,-95.0424"/>
<polygon fill="#41ab5d" stroke="#41ab5d" points="249.05,-96.9988 257.081,-103.909 255.112,-93.4988 249.05,-96.9988"/>
</g>
<!-- d&#45;&gt;c -->
<g id="edge4" class="edge"><title>d&#45;&gt;c</title>
<path fill="none" stroke="#41ab5d" d="M180.462,-33.6C149.228,-51.6326 97.6894,-81.3886 63.0574,-101.383"/>
<polygon fill="#41ab5d" stroke="#41ab5d" points="61.1149,-98.4634 54.2046,-106.495 64.6149,-104.526 61.1149,-98.4634"/>
</g>
<!-- e -->
<g id="node5" class="node"><title>e</title>
<polygon fill="#e5f5e0" stroke="#e5f5e0" stroke-width="2" points="114.161,-244.402 60.1606,-244.402 60.1606,-208.402 114.161,-208.402 114.161,-244.402"/>
<text text-anchor="start" x="82.6606" y="-222.702" font-family="arial" font-size="14.00">e</text>
</g>
<!-- e&#45;&gt;b -->
<g id="edge5" class="edge"><title>e&#45;&gt;b</title>
<path fill="none" stroke="#41ab5d" d="M114.181,-210.802C145.414,-192.77 196.953,-163.014 231.585,-143.019"/>
<polygon fill="#41ab5d" stroke="#41ab5d" points="233.527,-145.939 240.438,-137.908 230.027,-139.877 233.527,-145.939"/>
</g>
<!-- e&#45;&gt;a -->
<g id="edge9" class="edge"><title>e&#45;&gt;a</title>
<path fill="none" stroke="#41ab5d" d="M114.163,-226.402C130.612,-226.402 151.871,-226.402 169.942,-226.402"/>
<polygon fill="#41ab5d" stroke="#41ab5d" points="170.153,-229.902 180.153,-226.402 170.153,-222.902 170.153,-229.902"/>
</g>
<!-- e&#45;&gt;c -->
<g id="edge6" class="edge"><title>e&#45;&gt;c</title>
<path fill="none" stroke="#41ab5d" d="M76.6814,-208.252C67.2928,-191.99 53.3921,-167.914 42.6801,-149.36"/>
<polygon fill="#41ab5d" stroke="#41ab5d" points="45.5921,-147.403 37.5609,-140.493 39.5299,-150.904 45.5921,-147.403"/>
</g>
<!-- f -->
<g id="node6" class="node"><title>f</title>
<polygon fill="#e5f5e0" stroke="#e5f5e0" stroke-width="2" points="114.161,-36 60.1606,-36 60.1606,-7.81597e-014 114.161,-7.81597e-014 114.161,-36"/>
<text text-anchor="start" x="84.6606" y="-14.3" font-family="arial" font-size="14.00">f</text>
</g>
<!-- f&#45;&gt;b -->
<g id="edge7" class="edge"><title>f&#45;&gt;b</title>
<path fill="none" stroke="#41ab5d" d="M114.181,-33.6C145.414,-51.6326 196.953,-81.3886 231.585,-101.383"/>
<polygon fill="#41ab5d" stroke="#41ab5d" points="230.027,-104.526 240.438,-106.495 233.527,-98.4634 230.027,-104.526"/>
</g>
<!-- f&#45;&gt;c -->
<g id="edge8" class="edge"><title>f&#45;&gt;c</title>
<path fill="none" stroke="#41ab5d" d="M76.6814,-36.1505C67.2928,-52.4119 53.3921,-76.4888 42.6801,-95.0424"/>
<polygon fill="#41ab5d" stroke="#41ab5d" points="39.5299,-93.4988 37.5609,-103.909 45.5921,-96.9988 39.5299,-93.4988"/>
</g>
<!-- g -->
<g id="node7" class="node"><title>g</title>
<polygon fill="#e5f5e0" stroke="#e5f5e0" stroke-width="2" points="384.656,-78.064 330.656,-78.064 330.656,-42.064 384.656,-42.064 384.656,-78.064"/>
<text text-anchor="start" x="353.156" y="-56.364" font-family="arial" font-size="14.00">g</text>
</g>
<!-- g&#45;&gt;b -->
<g id="edge10" class="edge"><title>g&#45;&gt;b</title>
<path fill="none" stroke="#41ab5d" d="M331.136,-78.3711C322.162,-84.5654 312.003,-91.5788 302.483,-98.1503"/>
<polygon fill="#41ab5d" stroke="#41ab5d" points="300.214,-95.4635 293.973,-104.025 304.191,-101.224 300.214,-95.4635"/>
</g>
<!-- h -->
<g id="node8" class="node"><title>h</title>
<polygon fill="#e5f5e0" stroke="#e5f5e0" stroke-width="2" points="384.656,-202.338 330.656,-202.338 330.656,-166.338 384.656,-166.338 384.656,-202.338"/>
<text text-anchor="start" x="353.656" y="-180.638" font-family="arial" font-size="14.00">h</text>
</g>
<!-- h&#45;&gt;b -->
<g id="edge11" class="edge"><title>h&#45;&gt;b</title>
<path fill="none" stroke="#41ab5d" d="M331.136,-166.031C322.162,-159.837 312.003,-152.823 302.483,-146.252"/>
<polygon fill="#41ab5d" stroke="#41ab5d" points="304.191,-143.178 293.973,-140.377 300.214,-148.939 304.191,-143.178"/>
</g>
</g>
</svg>
