<?xml version="1.0" encoding="UTF-8" standalone="no"?>
<!DOCTYPE svg PUBLIC "-//W3C//DTD SVG 1.1//EN"
 "http://www.w3.org/Graphics/SVG/1.1/DTD/svg11.dtd">
<!-- Generated by graphviz version 2.38.0 (20140413.2041)
 -->
<!-- Title: foo Pages: 1 -->
<svg width="546pt" height="164pt"
 viewBox="0.00 0.00 546.00 163.50" xmlns="http://www.w3.org/2000/svg" xmlns:xlink="http://www.w3.org/1999/xlink">
<g id="graph0" class="graph" transform="scale(1 1) rotate(0) translate(4 159.5)">
<title>foo</title>
<g id="a_graph0"><a xlink:title=" ">
<polygon fill="#c7e9c0" stroke="none" points="-4,4 -4,-159.5 542,-159.5 542,4 -4,4"/>
<text text-anchor="start" x="231" y="-7.2" font-family="tahoma" font-size="11.00" fill="#238b45">Try this instead</text>
</a>
</g>
<!-- improved student exam results -->
<g id="node1" class="node"><title>improved student exam results</title>
<polygon fill="#f7fcf5" stroke="#f7fcf5" points="393,-110 292,-110 292,-57 393,-57 393,-110"/>
<text text-anchor="start" x="312.5" y="-94.8" font-family="Helvetica,sans-Serif" font-size="14.00" fill="#006d2c">improved</text>
<text text-anchor="start" x="300" y="-79.8" font-family="Helvetica,sans-Serif" font-size="14.00" fill="#006d2c">student exam</text>
<text text-anchor="start" x="321" y="-64.8" font-family="Helvetica,sans-Serif" font-size="14.00" fill="#006d2c">results</text>
</g>
<!-- improved student employment prospects//!smile -->
<g id="node2" class="node"><title>improved student employment prospects//!smile</title>
<polygon fill="#f7fcf5" stroke="#f7fcf5" points="538,-125 443,-125 443,-42 538,-42 538,-125"/>
<text text-anchor="start" x="460.5" y="-109.8" font-family="Helvetica,sans-Serif" font-size="14.00" fill="#006d2c">improved</text>
<text text-anchor="start" x="467" y="-94.8" font-family="Helvetica,sans-Serif" font-size="14.00" fill="#006d2c">student</text>
<text text-anchor="start" x="451" y="-79.8" font-family="Helvetica,sans-Serif" font-size="14.00" fill="#006d2c">employment</text>
<text text-anchor="start" x="458.5" y="-64.8" font-family="Helvetica,sans-Serif" font-size="14.00" fill="#006d2c">prospects</text>
<text text-anchor="start" x="484.5" y="-49.8" font-family="Helvetica,sans-Serif" font-size="14.00" fill="#006d2c">🙂</text>
</g>
<!-- improved student exam results&#45;&gt;improved student employment prospects//!smile -->
<g id="edge1" class="edge"><title>improved student exam results&#45;&gt;improved student employment prospects//!smile</title>
<path fill="none" stroke="#41ab5d" stroke-width="2" d="M393.337,-83.5C405.982,-83.5 419.662,-83.5 432.627,-83.5"/>
<polygon fill="#41ab5d" stroke="#41ab5d" stroke-width="2" points="432.839,-87.0001 442.839,-83.5 432.839,-80.0001 432.839,-87.0001"/>
</g>
<!-- improved student self&#45;confidence//!smile -->
<g id="node3" class="node"><title>improved student self&#45;confidence//!smile</title>
<polygon fill="#f7fcf5" stroke="#f7fcf5" points="242,-155.5 127,-155.5 127,-87.5 242,-87.5 242,-155.5"/>
<text text-anchor="start" x="154.5" y="-140.3" font-family="Helvetica,sans-Serif" font-size="14.00" fill="#006d2c">improved</text>
<text text-anchor="start" x="161" y="-125.3" font-family="Helvetica,sans-Serif" font-size="14.00" fill="#006d2c">student</text>
<text text-anchor="start" x="135" y="-110.3" font-family="Helvetica,sans-Serif" font-size="14.00" fill="#006d2c">self&#45;confidence</text>
<text text-anchor="start" x="178.5" y="-95.3" font-family="Helvetica,sans-Serif" font-size="14.00" fill="#006d2c">🙂</text>
</g>
<!-- improved student self&#45;confidence//!smile&#45;&gt;improved student exam results -->
<g id="edge2" class="edge"><title>improved student self&#45;confidence//!smile&#45;&gt;improved student exam results</title>
<path fill="none" stroke="#41ab5d" stroke-width="2" d="M242.261,-107.674C255.243,-104.511 269.074,-101.142 282.161,-97.9543"/>
<polygon fill="#41ab5d" stroke="#41ab5d" stroke-width="2" points="283.11,-101.326 291.997,-95.5583 281.453,-94.5245 283.11,-101.326"/>
</g>
<!-- students attend workshop -->
<g id="node4" class="node"><title>students attend workshop</title>
<polygon fill="#f7fcf5" stroke="#f7fcf5" points="77,-148 0,-148 0,-95 77,-95 77,-148"/>
<text text-anchor="start" x="11" y="-132.8" font-family="Helvetica,sans-Serif" font-size="14.00" fill="#006d2c">students</text>
<text text-anchor="start" x="18.5" y="-117.8" font-family="Helvetica,sans-Serif" font-size="14.00" fill="#006d2c">attend</text>
<text text-anchor="start" x="8" y="-102.8" font-family="Helvetica,sans-Serif" font-size="14.00" fill="#006d2c">workshop</text>
</g>
<!-- students attend workshop&#45;&gt;improved student self&#45;confidence//!smile -->
<g id="edge3" class="edge"><title>students attend workshop&#45;&gt;improved student self&#45;confidence//!smile</title>
<path fill="none" stroke="#41ab5d" stroke-width="2" d="M77.3343,-121.5C89.4197,-121.5 103.177,-121.5 116.689,-121.5"/>
<polygon fill="#41ab5d" stroke="#41ab5d" stroke-width="2" points="116.943,-125 126.943,-121.5 116.943,-118 116.943,-125"/>
</g>
<!-- improved teacher skills -->
<g id="node5" class="node"><title>improved teacher skills</title>
<polygon fill="#f7fcf5" stroke="#f7fcf5" points="222.5,-73 146.5,-73 146.5,-20 222.5,-20 222.5,-73"/>
<text text-anchor="start" x="154.5" y="-57.8" font-family="Helvetica,sans-Serif" font-size="14.00" fill="#006d2c">improved</text>
<text text-anchor="start" x="160.5" y="-42.8" font-family="Helvetica,sans-Serif" font-size="14.00" fill="#006d2c">teacher</text>
<text text-anchor="start" x="169" y="-27.8" font-family="Helvetica,sans-Serif" font-size="14.00" fill="#006d2c">skills</text>
</g>
<!-- improved teacher skills&#45;&gt;improved student exam results -->
<g id="edge4" class="edge"><title>improved teacher skills&#45;&gt;improved student exam results</title>
<path fill="none" stroke="#41ab5d" stroke-width="2" d="M222.866,-55.3624C240.524,-59.5506 262.038,-64.6532 281.871,-69.3572"/>
<polygon fill="#41ab5d" stroke="#41ab5d" stroke-width="2" points="281.215,-72.7987 291.753,-71.701 282.83,-65.9876 281.215,-72.7987"/>
</g>
<!-- teachers attend workshop -->
<g id="node6" class="node"><title>teachers attend workshop</title>
<polygon fill="#f7fcf5" stroke="#f7fcf5" points="77,-73 0,-73 0,-20 77,-20 77,-73"/>
<text text-anchor="start" x="11" y="-57.8" font-family="Helvetica,sans-Serif" font-size="14.00" fill="#006d2c">teachers</text>
<text text-anchor="start" x="18.5" y="-42.8" font-family="Helvetica,sans-Serif" font-size="14.00" fill="#006d2c">attend</text>
<text text-anchor="start" x="8" y="-27.8" font-family="Helvetica,sans-Serif" font-size="14.00" fill="#006d2c">workshop</text>
</g>
<!-- teachers attend workshop&#45;&gt;improved teacher skills -->
<g id="edge5" class="edge"><title>teachers attend workshop&#45;&gt;improved teacher skills</title>
<path fill="none" stroke="#41ab5d" stroke-width="2" d="M77.3343,-46.5C95.4168,-46.5 117.242,-46.5 136.39,-46.5"/>
<polygon fill="#41ab5d" stroke="#41ab5d" stroke-width="2" points="136.416,-50.0001 146.416,-46.5 136.416,-43.0001 136.416,-50.0001"/>
</g>
</g>
</svg>
