<?xml version="1.0" encoding="UTF-8" standalone="no"?>
<!DOCTYPE svg PUBLIC "-//W3C//DTD SVG 1.1//EN"
 "http://www.w3.org/Graphics/SVG/1.1/DTD/svg11.dtd">
<!-- Generated by graphviz version 2.38.0 (20140413.2041)
 -->
<!-- Title: foo Pages: 1 -->
<svg width="778pt" height="129pt"
 viewBox="0.00 0.00 778.00 129.26" xmlns="http://www.w3.org/2000/svg" xmlns:xlink="http://www.w3.org/1999/xlink">
<g id="graph0" class="graph" transform="scale(1 1) rotate(0) translate(4 125.257)">
<title>foo</title>
<g id="a_graph0"><a xlink:title=" ">
<polygon fill="white" stroke="none" points="-4,4 -4,-125.257 774,-125.257 774,4 -4,4"/>
</a>
</g>
<!-- c -->
<g id="node1" class="node"><title>c</title>
<polygon fill="#e5f5e0" stroke="#e5f5e0" stroke-width="2" points="314,-103.629 106,-103.629 106,-67.6287 314,-67.6287 314,-103.629"/>
<text text-anchor="start" x="114" y="-81.9287" font-family="arial" font-size="14.00">Some intermediate outcome 1</text>
</g>
<!-- a -->
<g id="node2" class="node"><title>a</title>
<polygon fill="#e5f5e0" stroke="#e5f5e0" stroke-width="2" points="548,-103.629 399,-103.629 399,-67.6287 548,-67.6287 548,-103.629"/>
<text text-anchor="start" x="407" y="-89.4287" font-family="arial" font-size="14.00">Official program goal</text>
<text text-anchor="start" x="438" y="-75.4287" font-family="arial" font-size="14.00">Officially: </text>
<text text-anchor="start" x="500" y="-75.4287" font-family="arial" font-size="14.00" fill="orange">♥</text>
</g>
<!-- c&#45;&gt;a -->
<g id="edge1" class="edge"><title>c&#45;&gt;a</title>
<path fill="none" stroke="#41ab5d" d="M314.352,-85.6287C339.085,-85.6287 365.188,-85.6287 388.902,-85.6287"/>
<polygon fill="#41ab5d" stroke="#41ab5d" points="388.907,-89.1288 398.907,-85.6287 388.907,-82.1288 388.907,-89.1288"/>
</g>
<!-- b -->
<g id="node3" class="node"><title>b</title>
<polygon fill="#e5f5e0" stroke="#e5f5e0" stroke-width="2" points="583,-53.6287 364,-53.6287 364,-17.6287 583,-17.6287 583,-53.6287"/>
<text text-anchor="start" x="372" y="-31.9287" font-family="arial" font-size="14.00">Some other interesting outcome</text>
</g>
<!-- c&#45;&gt;b -->
<g id="edge2" class="edge"><title>c&#45;&gt;b</title>
<path fill="none" stroke="#41ab5d" d="M305.408,-67.5776C325.775,-63.6833 347.42,-59.5446 368.142,-55.5824"/>
<polygon fill="#41ab5d" stroke="#41ab5d" points="369.066,-58.9692 378.231,-53.6534 367.752,-52.0937 369.066,-58.9692"/>
</g>
<!-- Shared values !heart !emergent -->
<g id="node6" class="node"><title>Shared values !heart !emergent</title>
<polygon fill="none" stroke="#e5f5e0" stroke-width="2" stroke-dasharray="5,2" points="770,-78.6287 633,-78.6287 633,-42.6287 770,-42.6287 770,-78.6287"/>
<text text-anchor="start" x="641" y="-57.9287" font-family="arial" font-size="14.00">Shared values </text>
<text text-anchor="start" x="735" y="-57.9287" font-family="arial" font-size="14.00" fill="orange">♥</text>
<text text-anchor="start" x="744" y="-57.9287" font-family="arial" font-size="14.00"> ֍</text>
</g>
<!-- c&#45;&gt;Shared values !heart !emergent -->
<g id="edge9" class="edge"><title>c&#45;&gt;Shared values !heart !emergent</title>
<path fill="none" stroke="#41ab5d" stroke-dasharray="5,2" d="M293.483,-103.66C369.43,-117.325 484.852,-130.643 583,-110.629 609.23,-105.28 636.857,-93.8529 658.728,-83.2716"/>
<polygon fill="#41ab5d" stroke="#41ab5d" points="660.324,-86.387 667.728,-78.8087 657.214,-80.1157 660.324,-86.387"/>
<text text-anchor="middle" x="658.365" y="-86.8276" font-family="Times New Roman,serif" font-size="14.00">֍</text>
</g>
<!-- a&#45;&gt;Shared values !heart !emergent -->
<g id="edge7" class="edge"><title>a&#45;&gt;Shared values !heart !emergent</title>
<path fill="none" stroke="#41ab5d" stroke-dasharray="5,2" d="M548.188,-77.4774C571.97,-74.8467 598.405,-71.9224 622.489,-69.2583"/>
<polygon fill="#41ab5d" stroke="#41ab5d" points="623.097,-72.7125 632.651,-68.1341 622.327,-65.7549 623.097,-72.7125"/>
<text text-anchor="middle" x="619.836" y="-72.2297" font-family="Times New Roman,serif" font-size="14.00">֍</text>
</g>
<!-- b&#45;&gt;Shared values !heart !emergent -->
<g id="edge8" class="edge"><title>b&#45;&gt;Shared values !heart !emergent</title>
<path fill="none" stroke="#41ab5d" stroke-dasharray="5,2" d="M583.197,-47.6527C596.581,-49.1333 610.046,-50.6228 622.839,-52.0379"/>
<polygon fill="#41ab5d" stroke="#41ab5d" points="622.616,-55.5345 632.94,-53.1553 623.386,-48.5769 622.616,-55.5345"/>
<text text-anchor="middle" x="618.731" y="-54.2614" font-family="Times New Roman,serif" font-size="14.00">֍</text>
</g>
<!-- d -->
<g id="node4" class="node"><title>d</title>
<polygon fill="#e5f5e0" stroke="#e5f5e0" stroke-width="2" points="314,-53.6287 106,-53.6287 106,-17.6287 314,-17.6287 314,-53.6287"/>
<text text-anchor="start" x="114" y="-31.9287" font-family="arial" font-size="14.00">Some intermediate outcome 2</text>
</g>
<!-- d&#45;&gt;a -->
<g id="edge3" class="edge"><title>d&#45;&gt;a</title>
<path fill="none" stroke="#41ab5d" d="M305.408,-53.6799C332.649,-58.8886 362.178,-64.5346 388.726,-69.6107"/>
<polygon fill="#41ab5d" stroke="#41ab5d" points="388.265,-73.0858 398.744,-71.5262 389.579,-66.2104 388.265,-73.0858"/>
</g>
<!-- d&#45;&gt;b -->
<g id="edge4" class="edge"><title>d&#45;&gt;b</title>
<path fill="none" stroke="#41ab5d" d="M314.352,-35.6287C327.321,-35.6287 340.666,-35.6287 353.846,-35.6287"/>
<polygon fill="#41ab5d" stroke="#41ab5d" points="353.884,-39.1288 363.884,-35.6287 353.884,-32.1288 353.884,-39.1288"/>
</g>
<!-- d&#45;&gt;Shared values !heart !emergent -->
<g id="edge10" class="edge"><title>d&#45;&gt;Shared values !heart !emergent</title>
<path fill="none" stroke="#41ab5d" stroke-dasharray="5,2" d="M293.483,-17.5979C369.43,-3.9324 484.852,9.38554 583,-10.6287 609.23,-15.9775 636.857,-27.4045 658.728,-37.9858"/>
<polygon fill="#41ab5d" stroke="#41ab5d" points="657.214,-41.1417 667.728,-42.4487 660.324,-34.8704 657.214,-41.1417"/>
<text text-anchor="middle" x="652.732" y="-38.3885" font-family="Times New Roman,serif" font-size="14.00">֍</text>
</g>
<!-- Inputs -->
<g id="node5" class="node"><title>Inputs</title>
<polygon fill="#e5f5e0" stroke="#e5f5e0" stroke-width="2" points="56,-78.6287 3.55271e-015,-78.6287 3.55271e-015,-42.6287 56,-42.6287 56,-78.6287"/>
<text text-anchor="start" x="8" y="-56.9287" font-family="arial" font-size="14.00">Inputs</text>
</g>
<!-- Inputs&#45;&gt;c -->
<g id="edge5" class="edge"><title>Inputs&#45;&gt;c</title>
<path fill="none" stroke="#41ab5d" d="M56.3381,-64.4257C67.4454,-65.9684 81.0804,-67.8621 95.5877,-69.877"/>
<polygon fill="#41ab5d" stroke="#41ab5d" points="95.3637,-73.3794 105.75,-71.2885 96.3268,-66.446 95.3637,-73.3794"/>
</g>
<!-- Inputs&#45;&gt;d -->
<g id="edge6" class="edge"><title>Inputs&#45;&gt;d</title>
<path fill="none" stroke="#41ab5d" d="M56.3381,-56.8318C67.4454,-55.2891 81.0804,-53.3953 95.5877,-51.3804"/>
<polygon fill="#41ab5d" stroke="#41ab5d" points="96.3268,-54.8115 105.75,-49.969 95.3637,-47.878 96.3268,-54.8115"/>
</g>
</g>
</svg>
