<?xml version="1.0" encoding="UTF-8" standalone="no"?>
<!DOCTYPE svg PUBLIC "-//W3C//DTD SVG 1.1//EN"
 "http://www.w3.org/Graphics/SVG/1.1/DTD/svg11.dtd">
<!-- Generated by graphviz version 2.38.0 (20140413.2041)
 -->
<!-- Title: foo Pages: 1 -->
<svg width="384pt" height="204pt"
 viewBox="0.00 0.00 384.00 203.50" xmlns="http://www.w3.org/2000/svg" xmlns:xlink="http://www.w3.org/1999/xlink">
<g id="graph0" class="graph" transform="scale(1 1) rotate(0) translate(4 199.5)">
<title>foo</title>
<g id="a_graph0"><a xlink:title=" ">
<polygon fill="white" stroke="none" points="-4,4 -4,-199.5 380,-199.5 380,4 -4,4"/>
</a>
</g>
<!-- How much student feels that they live up to expectations -->
<g id="node1" class="node"><title>How much student feels that they live up to expectations</title>
<polygon fill="#e5f5e0" stroke="#e5f5e0" stroke-width="2" points="97,-195.5 0,-195.5 0,-97.5 97,-97.5 97,-195.5"/>
<text text-anchor="start" x="15" y="-180.3" font-family="arial" font-size="14.00">How much</text>
<text text-anchor="start" x="25" y="-165.3" font-family="arial" font-size="14.00">student</text>
<text text-anchor="start" x="32.5" y="-150.3" font-family="arial" font-size="14.00">feels</text>
<text text-anchor="start" x="22" y="-135.3" font-family="arial" font-size="14.00">that they</text>
<text text-anchor="start" x="20" y="-120.3" font-family="arial" font-size="14.00">live up to</text>
<text text-anchor="start" x="8" y="-105.3" font-family="arial" font-size="14.00">expectations</text>
</g>
<!-- Student satisfaction with school at age 15 -->
<g id="node2" class="node"><title>Student satisfaction with school at age 15</title>
<polygon fill="#e5f5e0" stroke="#e5f5e0" stroke-width="2" points="235,-127.5 147,-127.5 147,-59.5 235,-59.5 235,-127.5"/>
<text text-anchor="start" x="166.5" y="-112.3" font-family="arial" font-size="14.00">Student</text>
<text text-anchor="start" x="155" y="-97.3" font-family="arial" font-size="14.00">satisfaction</text>
<text text-anchor="start" x="156" y="-82.3" font-family="arial" font-size="14.00">with school</text>
<text text-anchor="start" x="161" y="-67.3" font-family="arial" font-size="14.00">at age 15</text>
</g>
<!-- How much student feels that they live up to expectations&#45;&gt;Student satisfaction with school at age 15 -->
<g id="edge1" class="edge"><title>How much student feels that they live up to expectations&#45;&gt;Student satisfaction with school at age 15</title>
<path fill="none" stroke="#41ab5d" d="M97.0669,-128.557C110.007,-123.675 124.098,-118.36 137.304,-113.378"/>
<polygon fill="#41ab5d" stroke="#41ab5d" points="138.614,-116.625 146.735,-109.821 136.143,-110.075 138.614,-116.625"/>
</g>
<!-- Student wellbeing at age 25 -->
<g id="node4" class="node"><title>Student wellbeing at age 25</title>
<polygon fill="#e5f5e0" stroke="#e5f5e0" stroke-width="2" points="376,-120 285,-120 285,-67 376,-67 376,-120"/>
<text text-anchor="start" x="306" y="-104.8" font-family="arial" font-size="14.00">Student</text>
<text text-anchor="start" x="293" y="-89.8" font-family="arial" font-size="14.00">wellbeing at</text>
<text text-anchor="start" x="308" y="-74.8" font-family="arial" font-size="14.00">age 25</text>
</g>
<!-- Student satisfaction with school at age 15&#45;&gt;Student wellbeing at age 25 -->
<g id="edge3" class="edge"><title>Student satisfaction with school at age 15&#45;&gt;Student wellbeing at age 25</title>
<path fill="none" stroke="#41ab5d" d="M235.129,-93.5C247.558,-93.5 261.29,-93.5 274.342,-93.5"/>
<polygon fill="#41ab5d" stroke="#41ab5d" points="274.626,-97.0001 284.626,-93.5 274.626,-90.0001 274.626,-97.0001"/>
</g>
<!-- How much student feels supported and liked -->
<g id="node3" class="node"><title>How much student feels supported and liked</title>
<polygon fill="#e5f5e0" stroke="#e5f5e0" stroke-width="2" points="90,-83 7,-83 7,-0 90,-0 90,-83"/>
<text text-anchor="start" x="15" y="-67.8" font-family="arial" font-size="14.00">How much</text>
<text text-anchor="start" x="25" y="-52.8" font-family="arial" font-size="14.00">student</text>
<text text-anchor="start" x="32.5" y="-37.8" font-family="arial" font-size="14.00">feels</text>
<text text-anchor="start" x="16" y="-22.8" font-family="arial" font-size="14.00">supported</text>
<text text-anchor="start" x="20" y="-7.8" font-family="arial" font-size="14.00">and liked</text>
</g>
<!-- How much student feels supported and liked&#45;&gt;Student satisfaction with school at age 15 -->
<g id="edge2" class="edge"><title>How much student feels supported and liked&#45;&gt;Student satisfaction with school at age 15</title>
<path fill="none" stroke="#41ab5d" d="M90.1384,-56.5406C104.77,-61.9556 121.498,-68.1471 137.026,-73.8941"/>
<polygon fill="#41ab5d" stroke="#41ab5d" points="135.917,-77.2155 146.51,-77.4041 138.347,-70.6507 135.917,-77.2155"/>
</g>
</g>
</svg>
