<?xml version="1.0" encoding="UTF-8" standalone="no"?>
<!DOCTYPE svg PUBLIC "-//W3C//DTD SVG 1.1//EN"
 "http://www.w3.org/Graphics/SVG/1.1/DTD/svg11.dtd">
<!-- Generated by graphviz version 2.38.0 (20140413.2041)
 -->
<!-- Title: foo Pages: 1 -->
<svg width="640pt" height="182pt"
 viewBox="0.00 0.00 640.00 182.00" xmlns="http://www.w3.org/2000/svg" xmlns:xlink="http://www.w3.org/1999/xlink">
<g id="graph0" class="graph" transform="scale(1 1) rotate(0) translate(4 178)">
<title>foo</title>
<g id="a_graph0"><a xlink:title=" ">
<polygon fill="white" stroke="none" points="-4,4 -4,-178 636,-178 636,4 -4,4"/>
</a>
</g>
<g id="clust1" class="cluster"><title>cluster_Floodingsubproject</title>
<g id="a_clust1"><a xlink:title=" ">
<path fill="#fcfbfd" stroke="#fdd0a2" d="M20,-8C20,-8 413.5,-8 413.5,-8 419.5,-8 425.5,-14 425.5,-20 425.5,-20 425.5,-71 425.5,-71 425.5,-77 419.5,-83 413.5,-83 413.5,-83 20,-83 20,-83 14,-83 8,-77 8,-71 8,-71 8,-20 8,-20 8,-14 14,-8 20,-8"/>
<text text-anchor="start" x="16" y="-67.8" font-family="arial" font-size="14.00">Flooding sub&#45;project</text>
</a>
</g>
</g>
<g id="clust2" class="cluster"><title>cluster_Livelihoodssubproject</title>
<g id="a_clust2"><a xlink:title=" ">
<path fill="#fcfbfd" stroke="#fdd0a2" d="M29,-91C29,-91 427,-91 427,-91 433,-91 439,-97 439,-103 439,-103 439,-154 439,-154 439,-160 433,-166 427,-166 427,-166 29,-166 29,-166 23,-166 17,-160 17,-154 17,-154 17,-103 17,-103 17,-97 23,-91 29,-91"/>
<text text-anchor="start" x="25" y="-150.8" font-family="arial" font-size="14.00">Livelihoods sub&#45;project</text>
</a>
</g>
</g>
<!--  Flood risk !lohi !frown -->
<g id="node1" class="node"><title> Flood risk !lohi !frown</title>
<polygon fill="#e5f5e0" stroke="#e5f5e0" stroke-width="2" points="417.5,-52 308.5,-52 308.5,-16 417.5,-16 417.5,-52"/>
<text text-anchor="start" x="316.5" y="-30.3" font-family="arial" font-size="14.00">Flood risk ◪ ☹</text>
</g>
<!-- Village resilience !lohi -->
<g id="node2" class="node"><title>Village resilience !lohi</title>
<polygon fill="none" stroke="#41ab5d" stroke-width="2" stroke-dasharray="5,2" points="632,-99 493,-99 493,-63 632,-63 632,-99"/>
<text text-anchor="start" x="501" y="-77.3" font-family="arial" font-size="14.00">Village resilience ◪</text>
</g>
<!--  Flood risk !lohi !frown&#45;&gt;Village resilience !lohi -->
<g id="edge1" class="edge"><title> Flood risk !lohi !frown&#45;&gt;Village resilience !lohi</title>
<path fill="none" stroke="#41ab5d" stroke-dasharray="5,2" d="M417.707,-46.7809C437.815,-51.5661 461.095,-57.106 482.987,-62.316"/>
<polygon fill="#41ab5d" stroke="#41ab5d" points="482.394,-65.7724 492.932,-64.6826 484.014,-58.9626 482.394,-65.7724"/>
<text text-anchor="start" x="456" y="-61.8" font-family="Times New Roman,serif" font-size="14.00">⊖</text>
</g>
<!--  !do Preparedness intervention !noyes -->
<g id="node3" class="node"><title> !do Preparedness intervention !noyes</title>
<polygon fill="#e5f5e0" stroke="#e5f5e0" stroke-width="2" points="233,-52 16,-52 16,-16 233,-16 233,-52"/>
<text text-anchor="start" x="24" y="-31.3" font-family="arial" font-size="14.00" fill="green">▶ </text>
<text text-anchor="start" x="40" y="-31.3" font-family="arial" font-size="14.00"> Preparedness intervention ◨</text>
</g>
<!--  !do Preparedness intervention !noyes&#45;&gt; Flood risk !lohi !frown -->
<g id="edge2" class="edge"><title> !do Preparedness intervention !noyes&#45;&gt; Flood risk !lohi !frown</title>
<path fill="none" stroke="#41ab5d" d="M233.024,-34C255.26,-34 278.007,-34 298.083,-34"/>
<polygon fill="#41ab5d" stroke="#41ab5d" points="298.322,-37.5001 308.322,-34 298.322,-30.5001 298.322,-37.5001"/>
<text text-anchor="start" x="258" y="-37.8" font-family="Times New Roman,serif" font-size="14.00">⊖</text>
</g>
<!--  Family income !lohi !heart -->
<g id="node4" class="node"><title> Family income !lohi !heart</title>
<polygon fill="#e5f5e0" stroke="#e5f5e0" stroke-width="2" points="431,-135 295,-135 295,-99 431,-99 431,-135"/>
<text text-anchor="start" x="303" y="-114.3" font-family="arial" font-size="14.00">Family income ◪ </text>
<text text-anchor="start" x="414" y="-114.3" font-family="arial" font-size="14.00" fill="orange">♥</text>
</g>
<!--  Family income !lohi !heart&#45;&gt;Village resilience !lohi -->
<g id="edge3" class="edge"><title> Family income !lohi !heart&#45;&gt;Village resilience !lohi</title>
<path fill="none" stroke="#41ab5d" stroke-dasharray="5,2" d="M431.14,-104.762C447.78,-101.729 465.758,-98.4518 482.891,-95.3287"/>
<polygon fill="#41ab5d" stroke="#41ab5d" points="483.655,-98.7473 492.865,-93.5107 482.399,-91.8608 483.655,-98.7473"/>
<text text-anchor="start" x="456" y="-104.8" font-family="Times New Roman,serif" font-size="14.00">⊕</text>
</g>
<!-- !do Livelihoods intervention !noyes -->
<g id="node5" class="node"><title>!do Livelihoods intervention !noyes</title>
<polygon fill="#e5f5e0" stroke="#e5f5e0" stroke-width="2" points="224,-135 25,-135 25,-99 224,-99 224,-135"/>
<text text-anchor="start" x="33" y="-114.3" font-family="arial" font-size="14.00" fill="green">▶ </text>
<text text-anchor="start" x="49" y="-114.3" font-family="arial" font-size="14.00"> Livelihoods intervention ◨</text>
</g>
<!-- !do Livelihoods intervention !noyes&#45;&gt; Family income !lohi !heart -->
<g id="edge4" class="edge"><title>!do Livelihoods intervention !noyes&#45;&gt; Family income !lohi !heart</title>
<path fill="none" stroke="#41ab5d" d="M224.085,-117C244.283,-117 265.268,-117 284.594,-117"/>
<polygon fill="#41ab5d" stroke="#41ab5d" points="284.839,-120.5 294.839,-117 284.839,-113.5 284.839,-120.5"/>
<text text-anchor="start" x="258" y="-120.8" font-family="Times New Roman,serif" font-size="14.00">⊕</text>
</g>
</g>
</svg>
