<?xml version="1.0" encoding="UTF-8" standalone="no"?>
<!DOCTYPE svg PUBLIC "-//W3C//DTD SVG 1.1//EN"
 "http://www.w3.org/Graphics/SVG/1.1/DTD/svg11.dtd">
<!-- Generated by graphviz version 2.38.0 (20140413.2041)
 -->
<!-- Title: foo Pages: 1 -->
<svg width="435pt" height="366pt"
 viewBox="0.00 0.00 435.00 366.00" xmlns="http://www.w3.org/2000/svg" xmlns:xlink="http://www.w3.org/1999/xlink">
<g id="graph0" class="graph" transform="scale(1 1) rotate(0) translate(4 362)">
<title>foo</title>
<g id="a_graph0"><a xlink:title=" ">
<polygon fill="white" stroke="none" points="-4,4 -4,-362 431,-362 431,4 -4,4"/>
</a>
</g>
<g id="clust1" class="cluster"><title>cluster_Volunteers</title>
<g id="a_clust1"><a xlink:title=" ">
<path fill="#fcfbfd" stroke="#dadaeb" d="M20,-183C20,-183 265,-183 265,-183 271,-183 277,-189 277,-195 277,-195 277,-338 277,-338 277,-344 271,-350 265,-350 265,-350 20,-350 20,-350 14,-350 8,-344 8,-338 8,-338 8,-195 8,-195 8,-189 14,-183 20,-183"/>
<text text-anchor="start" x="16" y="-334.8" font-family="arial" font-size="14.00">Volunteers</text>
</a>
</g>
</g>
<g id="clust2" class="cluster"><title>cluster_Staff</title>
<g id="a_clust2"><a xlink:title=" ">
<path fill="#fcfbfd" stroke="#dadaeb" d="M170,-8C170,-8 407,-8 407,-8 413,-8 419,-14 419,-20 419,-20 419,-163 419,-163 419,-169 413,-175 407,-175 407,-175 170,-175 170,-175 164,-175 158,-169 158,-163 158,-163 158,-20 158,-20 158,-14 164,-8 170,-8"/>
<text text-anchor="start" x="166" y="-159.8" font-family="arial" font-size="14.00">Staff</text>
</a>
</g>
</g>
<!-- axsxdf -->
<!-- ~ Effectiveness of volunteer work (Influence: medium excitement level is best) -->
<g id="node2" class="node"><title>~ Effectiveness of volunteer work (Influence: medium excitement level is best)</title>
<polygon fill="#e5f5e0" stroke="#e5f5e0" stroke-width="2" points="269,-319 165,-319 165,-191 269,-191 269,-319"/>
<text text-anchor="start" x="212.5" y="-303.8" font-family="arial" font-size="14.00">~</text>
<text text-anchor="start" x="173" y="-288.8" font-family="arial" font-size="14.00">Effectiveness</text>
<text text-anchor="start" x="179.5" y="-273.8" font-family="arial" font-size="14.00">of volunteer</text>
<text text-anchor="start" x="202" y="-258.8" font-family="arial" font-size="14.00">work</text>
<text text-anchor="start" x="183.5" y="-243.8" font-family="arial" font-size="14.00">(Influence:</text>
<text text-anchor="start" x="191" y="-228.8" font-family="arial" font-size="14.00">medium</text>
<text text-anchor="start" x="182" y="-213.8" font-family="arial" font-size="14.00">excitement</text>
<text text-anchor="start" x="177" y="-198.8" font-family="arial" font-size="14.00">level is best)</text>
</g>
<!-- axsxdf&#45;&gt;~ Effectiveness of volunteer work (Influence: medium excitement level is best) -->
<g id="edge1" class="edge"><title>axsxdf&#45;&gt;~ Effectiveness of volunteer work (Influence: medium excitement level is best)</title>
<path fill="none" stroke="#41ab5d" stroke-width="0" d="M69.0949,-287.427C79.5146,-285.127 119.467,-276.308 155.08,-268.447"/>
<polygon fill="#41ab5d" stroke="#41ab5d" stroke-width="0" points="155.971,-271.835 164.982,-266.262 154.462,-264.999 155.971,-271.835"/>
</g>
<!-- ~ Excitement level of volunteers !self -->
<g id="node3" class="node"><title>~ Excitement level of volunteers !self</title>
<polygon fill="#e5f5e0" stroke="#e5f5e0" stroke-width="2" points="115,-244.5 16,-244.5 16,-191.5 115,-191.5 115,-244.5"/>
<text text-anchor="start" x="24" y="-229.3" font-family="arial" font-size="14.00">~ Excitement</text>
<text text-anchor="start" x="42.5" y="-214.3" font-family="arial" font-size="14.00">level of</text>
<text text-anchor="start" x="25" y="-199.3" font-family="arial" font-size="14.00">volunteers ↺</text>
</g>
<!-- ~ Excitement level of volunteers !self&#45;&gt;~ Effectiveness of volunteer work (Influence: medium excitement level is best) -->
<g id="edge2" class="edge"><title>~ Excitement level of volunteers !self&#45;&gt;~ Effectiveness of volunteer work (Influence: medium excitement level is best)</title>
<path fill="none" stroke="#41ab5d" d="M115.038,-230.013C127.743,-233.157 141.605,-236.588 154.874,-239.872"/>
<polygon fill="#41ab5d" stroke="#41ab5d" points="154.328,-243.342 164.876,-242.347 156.01,-236.547 154.328,-243.342"/>
</g>
<!-- ~ Staff observation of excitement level -->
<g id="node5" class="node"><title>~ Staff observation of excitement level</title>
<polygon fill="#e5f5e0" stroke="#e5f5e0" stroke-width="2" points="268,-144 166,-144 166,-76 268,-76 268,-144"/>
<text text-anchor="start" x="195.5" y="-128.8" font-family="arial" font-size="14.00">~ Staff</text>
<text text-anchor="start" x="180" y="-113.8" font-family="arial" font-size="14.00">observation</text>
<text text-anchor="start" x="174" y="-98.8" font-family="arial" font-size="14.00">of excitement</text>
<text text-anchor="start" x="202" y="-83.8" font-family="arial" font-size="14.00">level</text>
</g>
<!-- ~ Excitement level of volunteers !self&#45;&gt;~ Staff observation of excitement level -->
<g id="edge5" class="edge"><title>~ Excitement level of volunteers !self&#45;&gt;~ Staff observation of excitement level</title>
<path fill="none" stroke="#41ab5d" d="M103.455,-191.303C120.628,-178.897 141.413,-163.882 160.424,-150.149"/>
<polygon fill="#41ab5d" stroke="#41ab5d" points="162.673,-152.842 168.729,-144.149 158.574,-147.168 162.673,-152.842"/>
</g>
<!-- ~ Inspirational input from staff (Influence: optimise excitement level) !optimise -->
<g id="node4" class="node"><title>~ Inspirational input from staff (Influence: optimise excitement level) !optimise</title>
<polygon fill="#e5f5e0" stroke="#e5f5e0" stroke-width="2" points="411,-144 319,-144 319,-16 411,-16 411,-144"/>
<text text-anchor="start" x="360.5" y="-128.8" font-family="arial" font-size="14.00">~</text>
<text text-anchor="start" x="327" y="-113.8" font-family="arial" font-size="14.00">Inspirational</text>
<text text-anchor="start" x="349.5" y="-98.8" font-family="arial" font-size="14.00">input</text>
<text text-anchor="start" x="334.5" y="-83.8" font-family="arial" font-size="14.00">from staff</text>
<text text-anchor="start" x="331.5" y="-68.8" font-family="arial" font-size="14.00">(Influence:</text>
<text text-anchor="start" x="337.5" y="-53.8" font-family="arial" font-size="14.00">optimise</text>
<text text-anchor="start" x="330" y="-38.8" font-family="arial" font-size="14.00">excitement</text>
<text text-anchor="start" x="340.5" y="-23.8" font-family="arial" font-size="14.00">level) 🞕</text>
</g>
<!-- ~ Inspirational input from staff (Influence: optimise excitement level) !optimise&#45;&gt;~ Excitement level of volunteers !self -->
<g id="edge3" class="edge"><title>~ Inspirational input from staff (Influence: optimise excitement level) !optimise&#45;&gt;~ Excitement level of volunteers !self</title>
<path fill="none" stroke="#41ab5d" d="M318.676,-64.3685C274.704,-52.1064 207.542,-41.2859 158,-69 115.259,-92.9098 90.0491,-145.86 77.249,-181.752"/>
<polygon fill="#41ab5d" stroke="#41ab5d" points="73.8791,-180.79 73.9636,-191.384 80.5044,-183.05 73.8791,-180.79"/>
</g>
<!-- ~ Staff observation of excitement level&#45;&gt;~ Inspirational input from staff (Influence: optimise excitement level) !optimise -->
<g id="edge4" class="edge"><title>~ Staff observation of excitement level&#45;&gt;~ Inspirational input from staff (Influence: optimise excitement level) !optimise</title>
<path fill="none" stroke="#41ab5d" d="M268.245,-99.6757C281.26,-97.0015 295.346,-94.1069 308.609,-91.3818"/>
<polygon fill="#41ab5d" stroke="#41ab5d" points="309.467,-94.7786 318.558,-89.3374 308.058,-87.9218 309.467,-94.7786"/>
</g>
</g>
</svg>
