<?xml version="1.0" encoding="UTF-8" standalone="no"?>
<!DOCTYPE svg PUBLIC "-//W3C//DTD SVG 1.1//EN"
 "http://www.w3.org/Graphics/SVG/1.1/DTD/svg11.dtd">
<!-- Generated by graphviz version 2.38.0 (20140413.2041)
 -->
<!-- Title: foo Pages: 1 -->
<svg width="458pt" height="112pt"
 viewBox="0.00 0.00 458.00 111.50" xmlns="http://www.w3.org/2000/svg" xmlns:xlink="http://www.w3.org/1999/xlink">
<g id="graph0" class="graph" transform="scale(1 1) rotate(0) translate(4 107.5)">
<title>foo</title>
<g id="a_graph0"><a xlink:title=" ">
<polygon fill="white" stroke="none" points="-4,4 -4,-107.5 454,-107.5 454,4 -4,4"/>
</a>
</g>
<!-- axsxdf -->
<!-- C: Support among legislators -->
<g id="node2" class="node"><title>C: Support among legislators</title>
<polygon fill="#e5f5e0" stroke="#e5f5e0" stroke-width="2" points="450,-62 250,-62 250,-26 450,-26 450,-62"/>
<text text-anchor="start" x="258" y="-40.3" font-family="arial" font-size="14.00">C: Support among legislators</text>
</g>
<!-- axsxdf&#45;&gt;C: Support among legislators -->
<g id="edge1" class="edge"><title>axsxdf&#45;&gt;C: Support among legislators</title>
<path fill="none" stroke="#41ab5d" stroke-width="0" d="M127.308,-102.652C147.405,-101.959 175.69,-100.06 200,-95 232.565,-88.2221 267.828,-76.3686 295.87,-65.7943"/>
<polygon fill="#41ab5d" stroke="#41ab5d" stroke-width="0" points="297.385,-68.9623 305.472,-62.1178 294.882,-62.4252 297.385,-68.9623"/>
</g>
<!-- A: Support among population -->
<g id="node3" class="node"><title>A: Support among population</title>
<polygon fill="#e5f5e0" stroke="#e5f5e0" stroke-width="2" points="200,-88 0,-88 0,-52 200,-52 200,-88"/>
<text text-anchor="start" x="8" y="-66.3" font-family="arial" font-size="14.00">A: Support among population</text>
</g>
<!-- A: Support among population&#45;&gt;C: Support among legislators -->
<g id="edge2" class="edge"><title>A: Support among population&#45;&gt;C: Support among legislators</title>
<path fill="none" stroke="#41ab5d" d="M200.085,-59.612C213.094,-58.2482 226.485,-56.8443 239.652,-55.4639"/>
<polygon fill="#41ab5d" stroke="#41ab5d" points="240.087,-58.9376 249.667,-54.4139 239.357,-51.9758 240.087,-58.9376"/>
</g>
<!-- B: Pressure from party leadership -->
<g id="node4" class="node"><title>B: Pressure from party leadership</title>
<polygon fill="#e5f5e0" stroke="#e5f5e0" stroke-width="2" points="179.5,-38 20.5,-38 20.5,-0 179.5,-0 179.5,-38"/>
<text text-anchor="start" x="28.5" y="-22.8" font-family="arial" font-size="14.00">B: Pressure from party</text>
<text text-anchor="start" x="66.5" y="-7.8" font-family="arial" font-size="14.00">leadership</text>
</g>
<!-- B: Pressure from party leadership&#45;&gt;C: Support among legislators -->
<g id="edge3" class="edge"><title>B: Pressure from party leadership&#45;&gt;C: Support among legislators</title>
<path fill="none" stroke="#41ab5d" d="M179.81,-26.9445C198.859,-28.8648 219.556,-30.9512 239.727,-32.9846"/>
<polygon fill="#41ab5d" stroke="#41ab5d" points="239.594,-36.4888 249.894,-34.0095 240.296,-29.5241 239.594,-36.4888"/>
</g>
</g>
</svg>
