<?xml version="1.0" encoding="UTF-8" standalone="no"?>
<!DOCTYPE svg PUBLIC "-//W3C//DTD SVG 1.1//EN"
 "http://www.w3.org/Graphics/SVG/1.1/DTD/svg11.dtd">
<!-- Generated by graphviz version 2.38.0 (20140413.2041)
 -->
<!-- Title: foo Pages: 1 -->
<svg width="266pt" height="62pt"
 viewBox="0.00 0.00 266.00 61.50" xmlns="http://www.w3.org/2000/svg" xmlns:xlink="http://www.w3.org/1999/xlink">
<g id="graph0" class="graph" transform="scale(1 1) rotate(0) translate(4 57.5)">
<title>foo</title>
<g id="a_graph0"><a xlink:title=" ">
<polygon fill="white" stroke="none" points="-4,4 -4,-57.5 262,-57.5 262,4 -4,4"/>
</a>
</g>
<!-- axsxdf -->
<!-- Sweating !noyes -->
<g id="node2" class="node"><title>Sweating !noyes</title>
<polygon fill="#e5f5e0" stroke="#e5f5e0" stroke-width="2" points="258,-37 169,-37 169,-1 258,-1 258,-37"/>
<text text-anchor="start" x="177" y="-15.3" font-family="arial" font-size="14.00">Sweating ◨</text>
</g>
<!-- axsxdf&#45;&gt;Sweating !noyes -->
<g id="edge1" class="edge"><title>axsxdf&#45;&gt;Sweating !noyes</title>
<path fill="none" stroke="#41ab5d" stroke-width="0" d="M58.3342,-52.4984C67.0226,-51.3436 88.8652,-48.3389 107,-45 123.977,-41.8743 142.297,-37.6611 158.83,-33.5372"/>
<polygon fill="#41ab5d" stroke="#41ab5d" stroke-width="0" points="160.034,-36.8429 168.866,-30.9916 158.313,-30.0578 160.034,-36.8429"/>
</g>
<!-- Wearing warm clothes !noyes -->
<g id="node3" class="node"><title>Wearing warm clothes !noyes</title>
<polygon fill="#e5f5e0" stroke="#e5f5e0" stroke-width="2" points="107,-38 0,-38 0,-0 107,-0 107,-38"/>
<text text-anchor="start" x="8" y="-22.8" font-family="arial" font-size="14.00">Wearing warm</text>
<text text-anchor="start" x="23" y="-7.8" font-family="arial" font-size="14.00">clothes ◨</text>
</g>
<!-- Wearing warm clothes !noyes&#45;&gt;Sweating !noyes -->
<g id="edge2" class="edge"><title>Wearing warm clothes !noyes&#45;&gt;Sweating !noyes</title>
<path fill="none" stroke="#41ab5d" d="M107.112,-19C123.69,-19 142.019,-19 158.68,-19"/>
<polygon fill="#41ab5d" stroke="#41ab5d" points="158.808,-22.5001 168.808,-19 158.808,-15.5001 158.808,-22.5001"/>
<text text-anchor="start" x="132" y="-22.8" font-family="Times New Roman,serif" font-size="14.00">⇈</text>
</g>
</g>
</svg>
