<?xml version="1.0" encoding="UTF-8" standalone="no"?>
<!DOCTYPE svg PUBLIC "-//W3C//DTD SVG 1.1//EN"
 "http://www.w3.org/Graphics/SVG/1.1/DTD/svg11.dtd">
<!-- Generated by graphviz version 2.38.0 (20140413.2041)
 -->
<!-- Title: foo Pages: 1 -->
<svg width="381pt" height="214pt"
 viewBox="0.00 0.00 381.00 214.00" xmlns="http://www.w3.org/2000/svg" xmlns:xlink="http://www.w3.org/1999/xlink">
<g id="graph0" class="graph" transform="scale(1 1) rotate(0) translate(4 210)">
<title>foo</title>
<g id="a_graph0"><a xlink:title=" ">
<polygon fill="#d9d9d9" stroke="none" points="-4,4 -4,-210 377,-210 377,4 -4,4"/>
<text text-anchor="start" x="94.5" y="-7.2" font-family="tahoma" font-size="11.00" fill="#525252">You don&#39;t have to stick to this format</text>
</a>
</g>
<!-- A.1 Outcome 1 -->
<g id="node1" class="node"><title>A.1 Outcome 1</title>
<polygon fill="#fee6ce" stroke="#fee6ce" points="259,-106 146,-106 146,-70 259,-70 259,-106"/>
<text text-anchor="start" x="154" y="-84.3" font-family="Helvetica,sans-Serif" font-size="14.00">A.1 Outcome 1</text>
</g>
<!-- A. Goal -->
<g id="node2" class="node"><title>A. Goal</title>
<polygon fill="#fee6ce" stroke="#fee6ce" points="373,-131 309,-131 309,-95 373,-95 373,-131"/>
<text text-anchor="start" x="317" y="-109.3" font-family="Helvetica,sans-Serif" font-size="14.00">A. Goal</text>
</g>
<!-- A.1 Outcome 1&#45;&gt;A. Goal -->
<g id="edge1" class="edge"><title>A.1 Outcome 1&#45;&gt;A. Goal</title>
<path fill="none" stroke="#737373" stroke-width="2" d="M259.02,-98.1685C272.283,-100.598 286.21,-103.148 298.703,-105.436"/>
<polygon fill="#737373" stroke="#737373" stroke-width="2" points="298.346,-108.929 308.812,-107.288 299.607,-102.044 298.346,-108.929"/>
</g>
<!-- A.1.a Output -->
<g id="node3" class="node"><title>A.1.a Output</title>
<polygon fill="#fee6ce" stroke="#fee6ce" points="95.5,-106 0.5,-106 0.5,-70 95.5,-70 95.5,-106"/>
<text text-anchor="start" x="8.5" y="-84.3" font-family="Helvetica,sans-Serif" font-size="14.00">A.1.a Output</text>
</g>
<!-- A.1.a Output&#45;&gt;A.1 Outcome 1 -->
<g id="edge2" class="edge"><title>A.1.a Output&#45;&gt;A.1 Outcome 1</title>
<path fill="none" stroke="#737373" stroke-width="2" d="M95.5837,-88C108.218,-88 122.139,-88 135.619,-88"/>
<polygon fill="#737373" stroke="#737373" stroke-width="2" points="135.814,-91.5001 145.814,-88 135.814,-84.5001 135.814,-91.5001"/>
</g>
<!-- A.1.b Output -->
<g id="node4" class="node"><title>A.1.b Output</title>
<polygon fill="#fee6ce" stroke="#fee6ce" points="96,-56 0,-56 0,-20 96,-20 96,-56"/>
<text text-anchor="start" x="8" y="-34.3" font-family="Helvetica,sans-Serif" font-size="14.00">A.1.b Output</text>
</g>
<!-- A.1.b Output&#45;&gt;A.1 Outcome 1 -->
<g id="edge3" class="edge"><title>A.1.b Output&#45;&gt;A.1 Outcome 1</title>
<path fill="none" stroke="#737373" stroke-width="2" d="M96.416,-53.5462C109.151,-57.7216 123.144,-62.3095 136.649,-66.7374"/>
<polygon fill="#737373" stroke="#737373" stroke-width="2" points="135.779,-70.1353 146.372,-69.9251 137.96,-63.4837 135.779,-70.1353"/>
</g>
<!-- A.2 Outcome 2 -->
<g id="node5" class="node"><title>A.2 Outcome 2</title>
<polygon fill="#fee6ce" stroke="#fee6ce" points="259,-156 146,-156 146,-120 259,-120 259,-156"/>
<text text-anchor="start" x="154" y="-134.3" font-family="Helvetica,sans-Serif" font-size="14.00">A.2 Outcome 2</text>
</g>
<!-- A.2 Outcome 2&#45;&gt;A. Goal -->
<g id="edge4" class="edge"><title>A.2 Outcome 2&#45;&gt;A. Goal</title>
<path fill="none" stroke="#737373" stroke-width="2" d="M259.02,-127.832C272.283,-125.402 286.21,-122.852 298.703,-120.564"/>
<polygon fill="#737373" stroke="#737373" stroke-width="2" points="299.607,-123.956 308.812,-118.712 298.346,-117.071 299.607,-123.956"/>
</g>
<!-- A.2.a Output -->
<g id="node6" class="node"><title>A.2.a Output</title>
<polygon fill="#fee6ce" stroke="#fee6ce" points="95.5,-206 0.5,-206 0.5,-170 95.5,-170 95.5,-206"/>
<text text-anchor="start" x="8.5" y="-184.3" font-family="Helvetica,sans-Serif" font-size="14.00">A.2.a Output</text>
</g>
<!-- A.2.a Output&#45;&gt;A.2 Outcome 2 -->
<g id="edge5" class="edge"><title>A.2.a Output&#45;&gt;A.2 Outcome 2</title>
<path fill="none" stroke="#737373" stroke-width="2" d="M95.5837,-172.727C108.482,-168.498 122.723,-163.829 136.466,-159.322"/>
<polygon fill="#737373" stroke="#737373" stroke-width="2" points="137.948,-162.52 146.36,-156.079 135.767,-155.869 137.948,-162.52"/>
</g>
<!-- A.2.b Output -->
<g id="node7" class="node"><title>A.2.b Output</title>
<polygon fill="#fee6ce" stroke="#fee6ce" points="96,-156 0,-156 0,-120 96,-120 96,-156"/>
<text text-anchor="start" x="8" y="-134.3" font-family="Helvetica,sans-Serif" font-size="14.00">A.2.b Output</text>
</g>
<!-- A.2.b Output&#45;&gt;A.2 Outcome 2 -->
<g id="edge6" class="edge"><title>A.2.b Output&#45;&gt;A.2 Outcome 2</title>
<path fill="none" stroke="#737373" stroke-width="2" d="M96.416,-138C108.888,-138 122.567,-138 135.812,-138"/>
<polygon fill="#737373" stroke="#737373" stroke-width="2" points="135.829,-141.5 145.829,-138 135.829,-134.5 135.829,-141.5"/>
</g>
</g>
</svg>
