<?xml version="1.0" encoding="UTF-8" standalone="no"?>
<!DOCTYPE svg PUBLIC "-//W3C//DTD SVG 1.1//EN"
 "http://www.w3.org/Graphics/SVG/1.1/DTD/svg11.dtd">
<!-- Generated by graphviz version 2.38.0 (20140413.2041)
 -->
<!-- Title: foo Pages: 1 -->
<svg width="685pt" height="182pt"
 viewBox="0.00 0.00 685.00 182.00" xmlns="http://www.w3.org/2000/svg" xmlns:xlink="http://www.w3.org/1999/xlink">
<g id="graph0" class="graph" transform="scale(1 1) rotate(0) translate(4 178)">
<title>foo</title>
<g id="a_graph0"><a xlink:title=" ">
<polygon fill="white" stroke="none" points="-4,4 -4,-178 681,-178 681,4 -4,4"/>
</a>
</g>
<g id="clust1" class="cluster"><title>cluster_Floodingsubproject</title>
<g id="a_clust1"><a xlink:title=" ">
<path fill="#fcfbfd" stroke="#dadaeb" d="M20,-8C20,-8 354,-8 354,-8 360,-8 366,-14 366,-20 366,-20 366,-71 366,-71 366,-77 360,-83 354,-83 354,-83 20,-83 20,-83 14,-83 8,-77 8,-71 8,-71 8,-20 8,-20 8,-14 14,-8 20,-8"/>
<text text-anchor="start" x="16" y="-67.8" font-family="arial" font-size="14.00">Flooding sub&#45;project</text>
</a>
</g>
</g>
<g id="clust2" class="cluster"><title>cluster_Livelihoodssubproject</title>
<g id="a_clust2"><a xlink:title=" ">
<path fill="#fcfbfd" stroke="#dadaeb" d="M29,-91C29,-91 339,-91 339,-91 345,-91 351,-97 351,-103 351,-103 351,-154 351,-154 351,-160 345,-166 339,-166 339,-166 29,-166 29,-166 23,-166 17,-160 17,-154 17,-154 17,-103 17,-103 17,-97 23,-91 29,-91"/>
<text text-anchor="start" x="25" y="-150.8" font-family="arial" font-size="14.00">Livelihoods sub&#45;project</text>
</a>
</g>
</g>
<!-- *Reduced* flood risk !lohi -->
<g id="node1" class="node"><title>*Reduced* flood risk !lohi</title>
<polygon fill="#e5f5e0" stroke="#e5f5e0" stroke-width="2" points="358,-52 192,-52 192,-16 358,-16 358,-52"/>
<text text-anchor="start" x="200" y="-31.3" font-family="arial" font-size="14.00" fill="darkgreen">*Reduced* </text>
<text text-anchor="start" x="273" y="-31.3" font-family="arial" font-size="14.00"> flood risk ◪</text>
</g>
<!-- Village sufficiently resilient !noyes !heart &#160;&#160;(influence: both have to reach threshold) -->
<g id="node2" class="node"><title>Village sufficiently resilient !noyes !heart &#160;&#160;(influence: both have to reach threshold)</title>
<polygon fill="none" stroke="#41ab5d" stroke-width="2" stroke-dasharray="5,2" points="677,-93 408,-93 408,-57 677,-57 677,-93"/>
<text text-anchor="start" x="445.5" y="-78.8" font-family="arial" font-size="14.00">Village sufficiently resilient ◨ </text>
<text text-anchor="start" x="630.5" y="-78.8" font-family="arial" font-size="14.00" fill="orange">♥</text>
<text text-anchor="start" x="416" y="-64.8" font-family="arial" font-size="14.00">(influence: both have to reach threshold)</text>
</g>
<!-- *Reduced* flood risk !lohi&#45;&gt;Village sufficiently resilient !noyes !heart &#160;&#160;(influence: both have to reach threshold) -->
<g id="edge1" class="edge"><title>*Reduced* flood risk !lohi&#45;&gt;Village sufficiently resilient !noyes !heart &#160;&#160;(influence: both have to reach threshold)</title>
<path fill="none" stroke="#41ab5d" stroke-dasharray="5,2" d="M358.188,-46.6919C376.085,-49.4556 395.423,-52.442 414.598,-55.4032"/>
<polygon fill="#41ab5d" stroke="#41ab5d" points="414.186,-58.8808 424.603,-56.948 415.254,-51.9628 414.186,-58.8808"/>
</g>
<!-- !do Preparedness intervention !noyes -->
<g id="node3" class="node"><title>!do Preparedness intervention !noyes</title>
<polygon fill="#e5f5e0" stroke="#e5f5e0" stroke-width="2" points="142,-52 16,-52 16,-16 142,-16 142,-52"/>
<text text-anchor="start" x="24" y="-37.8" font-family="arial" font-size="14.00" fill="green">▶ </text>
<text text-anchor="start" x="40" y="-37.8" font-family="arial" font-size="14.00"> Preparedness</text>
<text text-anchor="start" x="35" y="-23.8" font-family="arial" font-size="14.00">intervention ◨</text>
</g>
<!-- !do Preparedness intervention !noyes&#45;&gt;*Reduced* flood risk !lohi -->
<g id="edge2" class="edge"><title>!do Preparedness intervention !noyes&#45;&gt;*Reduced* flood risk !lohi</title>
<path fill="none" stroke="#41ab5d" d="M142.183,-34C154.813,-34 168.35,-34 181.765,-34"/>
<polygon fill="#41ab5d" stroke="#41ab5d" points="181.983,-37.5001 191.983,-34 181.983,-30.5001 181.983,-37.5001"/>
</g>
<!-- *Increased* family income !lohi -->
<g id="node4" class="node"><title>*Increased* family income !lohi</title>
<polygon fill="#e5f5e0" stroke="#e5f5e0" stroke-width="2" points="343,-135 207,-135 207,-99 343,-99 343,-135"/>
<text text-anchor="start" x="215" y="-120.8" font-family="arial" font-size="14.00" fill="darkgreen">*Increased* </text>
<text text-anchor="start" x="294" y="-120.8" font-family="arial" font-size="14.00"> family</text>
<text text-anchor="start" x="244" y="-106.8" font-family="arial" font-size="14.00">income ◪</text>
</g>
<!-- *Increased* family income !lohi&#45;&gt;Village sufficiently resilient !noyes !heart &#160;&#160;(influence: both have to reach threshold) -->
<g id="edge3" class="edge"><title>*Increased* family income !lohi&#45;&gt;Village sufficiently resilient !noyes !heart &#160;&#160;(influence: both have to reach threshold)</title>
<path fill="none" stroke="#41ab5d" stroke-dasharray="5,2" d="M343.34,-106.347C365.921,-102.775 391.869,-98.6704 417.39,-94.6333"/>
<polygon fill="#41ab5d" stroke="#41ab5d" points="418.191,-98.0502 427.521,-93.0306 417.097,-91.1361 418.191,-98.0502"/>
</g>
<!-- !do Livelihoods intervention !noyes -->
<g id="node5" class="node"><title>!do Livelihoods intervention !noyes</title>
<polygon fill="#e5f5e0" stroke="#e5f5e0" stroke-width="2" points="133,-135 25,-135 25,-99 133,-99 133,-135"/>
<text text-anchor="start" x="33" y="-120.8" font-family="arial" font-size="14.00" fill="green">▶ </text>
<text text-anchor="start" x="49" y="-120.8" font-family="arial" font-size="14.00"> Livelihoods</text>
<text text-anchor="start" x="35" y="-106.8" font-family="arial" font-size="14.00">intervention ◨</text>
</g>
<!-- !do Livelihoods intervention !noyes&#45;&gt;*Increased* family income !lohi -->
<g id="edge4" class="edge"><title>!do Livelihoods intervention !noyes&#45;&gt;*Increased* family income !lohi</title>
<path fill="none" stroke="#41ab5d" d="M133.011,-117C152.672,-117 175.391,-117 196.772,-117"/>
<polygon fill="#41ab5d" stroke="#41ab5d" points="196.812,-120.5 206.812,-117 196.812,-113.5 196.812,-120.5"/>
</g>
</g>
</svg>
