<?xml version="1.0" encoding="UTF-8" standalone="no"?>
<!DOCTYPE svg PUBLIC "-//W3C//DTD SVG 1.1//EN"
 "http://www.w3.org/Graphics/SVG/1.1/DTD/svg11.dtd">
<!-- Generated by graphviz version 2.38.0 (20140413.2041)
 -->
<!-- Title: foo Pages: 1 -->
<svg width="237pt" height="82pt"
 viewBox="0.00 0.00 237.00 81.50" xmlns="http://www.w3.org/2000/svg" xmlns:xlink="http://www.w3.org/1999/xlink">
<g id="graph0" class="graph" transform="scale(1 1) rotate(0) translate(4 77.5)">
<title>foo</title>
<g id="a_graph0"><a xlink:title=" ">
<polygon fill="#d9d9d9" stroke="none" points="-4,4 -4,-77.5 233,-77.5 233,4 -4,4"/>
<text text-anchor="start" x="72" y="-7.2" font-family="tahoma" font-size="11.00" fill="#525252">This is misleading</text>
</a>
</g>
<!-- axsxdf -->
<!-- Subjective temperature -->
<g id="node2" class="node"><title>Subjective temperature</title>
<polygon fill="#fee6ce" stroke="#fee6ce" points="229,-58 136,-58 136,-20 229,-20 229,-58"/>
<text text-anchor="start" x="149" y="-42.8" font-family="Helvetica,sans-Serif" font-size="14.00">Subjective</text>
<text text-anchor="start" x="144" y="-27.8" font-family="Helvetica,sans-Serif" font-size="14.00">temperature</text>
</g>
<!-- axsxdf&#45;&gt;Subjective temperature -->
<g id="edge1" class="edge"><title>axsxdf&#45;&gt;Subjective temperature</title>
<path fill="none" stroke="#737373" stroke-width="0" d="M47.0736,-72.4987C54.037,-71.3446 71.5354,-68.3413 86,-65 98.9414,-62.0106 112.774,-58.456 125.78,-54.9502"/>
<polygon fill="#737373" stroke="#737373" stroke-width="0" points="126.81,-58.2972 135.537,-52.2889 124.968,-51.5439 126.81,-58.2972"/>
</g>
<!-- Strength of wind -->
<g id="node3" class="node"><title>Strength of wind</title>
<polygon fill="#fee6ce" stroke="#fee6ce" points="86,-58 0,-58 0,-20 86,-20 86,-58"/>
<text text-anchor="start" x="8" y="-42.8" font-family="Helvetica,sans-Serif" font-size="14.00">Strength of</text>
<text text-anchor="start" x="28.5" y="-27.8" font-family="Helvetica,sans-Serif" font-size="14.00">wind</text>
</g>
<!-- Strength of wind&#45;&gt;Subjective temperature -->
<g id="edge2" class="edge"><title>Strength of wind&#45;&gt;Subjective temperature</title>
<path fill="none" stroke="#737373" stroke-width="2" d="M86.0017,-39C98.5886,-39 112.593,-39 125.912,-39"/>
<polygon fill="#737373" stroke="#737373" stroke-width="2" points="125.929,-42.5001 135.929,-39 125.929,-35.5001 125.929,-42.5001"/>
</g>
</g>
</svg>
