<?xml version="1.0" encoding="UTF-8" standalone="no"?>
<!DOCTYPE svg PUBLIC "-//W3C//DTD SVG 1.1//EN"
 "http://www.w3.org/Graphics/SVG/1.1/DTD/svg11.dtd">
<!-- Generated by graphviz version 2.38.0 (20140413.2041)
 -->
<!-- Title: foo Pages: 1 -->
<svg width="354pt" height="106pt"
 viewBox="0.00 0.00 354.00 106.00" xmlns="http://www.w3.org/2000/svg" xmlns:xlink="http://www.w3.org/1999/xlink">
<g id="graph0" class="graph" transform="scale(1 1) rotate(0) translate(4 102)">
<title>foo</title>
<g id="a_graph0"><a xlink:title=" ">
<polygon fill="white" stroke="none" points="-4,4 -4,-102 350,-102 350,4 -4,4"/>
</a>
</g>
<!-- *12&#45;10* teacher training weekends -->
<g id="node1" class="node"><title>*12&#45;10* teacher training weekends</title>
<polygon fill="#e5f5e0" stroke="#e5f5e0" stroke-width="2" points="211,-83 130,-83 130,-15 211,-15 211,-83"/>
<text text-anchor="start" x="144.5" y="-67.8" font-family="arial" font-size="14.00" fill="darkgreen">*12&#45;10* </text>
<text text-anchor="start" x="146.5" y="-52.8" font-family="arial" font-size="14.00">teacher</text>
<text text-anchor="start" x="147.5" y="-37.8" font-family="arial" font-size="14.00">training</text>
<text text-anchor="start" x="138" y="-22.8" font-family="arial" font-size="14.00">weekends</text>
</g>
<!-- *20% improved* teaching quality -->
<g id="node2" class="node"><title>*20% improved* teaching quality</title>
<polygon fill="#e5f5e0" stroke="#e5f5e0" stroke-width="2" points="346,-83 261,-83 261,-15 346,-15 346,-83"/>
<text text-anchor="start" x="286" y="-67.8" font-family="arial" font-size="14.00" fill="darkgreen">*20%</text>
<text text-anchor="start" x="269" y="-52.8" font-family="arial" font-size="14.00" fill="darkgreen">improved* </text>
<text text-anchor="start" x="276.5" y="-37.8" font-family="arial" font-size="14.00">teaching</text>
<text text-anchor="start" x="283.5" y="-22.8" font-family="arial" font-size="14.00">quality</text>
</g>
<!-- *12&#45;10* teacher training weekends&#45;&gt;*20% improved* teaching quality -->
<g id="edge1" class="edge"><title>*12&#45;10* teacher training weekends&#45;&gt;*20% improved* teaching quality</title>
<path fill="none" stroke="#41ab5d" d="M211.16,-49C223.519,-49 237.341,-49 250.417,-49"/>
<polygon fill="#41ab5d" stroke="#41ab5d" points="250.702,-52.5001 260.702,-49 250.702,-45.5001 250.702,-52.5001"/>
</g>
<!-- *1000 EUR extra* NGO financial resources -->
<g id="node3" class="node"><title>*1000 EUR extra* NGO financial resources</title>
<polygon fill="#e5f5e0" stroke="#e5f5e0" stroke-width="2" points="80,-98 0,-98 0,-0 80,-0 80,-98"/>
<text text-anchor="start" x="20.5" y="-82.8" font-family="arial" font-size="14.00" fill="darkgreen">*1000</text>
<text text-anchor="start" x="24.5" y="-67.8" font-family="arial" font-size="14.00" fill="darkgreen">EUR</text>
<text text-anchor="start" x="20" y="-52.8" font-family="arial" font-size="14.00" fill="darkgreen">extra* </text>
<text text-anchor="start" x="23.5" y="-37.8" font-family="arial" font-size="14.00">NGO</text>
<text text-anchor="start" x="14" y="-22.8" font-family="arial" font-size="14.00">financial</text>
<text text-anchor="start" x="8" y="-7.8" font-family="arial" font-size="14.00">resources</text>
</g>
<!-- *1000 EUR extra* NGO financial resources&#45;&gt;*12&#45;10* teacher training weekends -->
<g id="edge2" class="edge"><title>*1000 EUR extra* NGO financial resources&#45;&gt;*12&#45;10* teacher training weekends</title>
<path fill="none" stroke="#41ab5d" d="M80.2525,-49C92.5991,-49 106.405,-49 119.398,-49"/>
<polygon fill="#41ab5d" stroke="#41ab5d" points="119.601,-52.5001 129.601,-49 119.601,-45.5001 119.601,-52.5001"/>
</g>
</g>
</svg>
