<?xml version="1.0" encoding="UTF-8" standalone="no"?>
<!DOCTYPE svg PUBLIC "-//W3C//DTD SVG 1.1//EN"
 "http://www.w3.org/Graphics/SVG/1.1/DTD/svg11.dtd">
<!-- Generated by graphviz version 2.38.0 (20140413.2041)
 -->
<!-- Title: foo Pages: 1 -->
<svg width="592pt" height="125pt"
 viewBox="0.00 0.00 592.00 124.50" xmlns="http://www.w3.org/2000/svg" xmlns:xlink="http://www.w3.org/1999/xlink">
<g id="graph0" class="graph" transform="scale(1 1) rotate(0) translate(4 120.5)">
<title>foo</title>
<g id="a_graph0"><a xlink:title=" ">
<polygon fill="white" stroke="none" points="-4,4 -4,-120.5 588,-120.5 588,4 -4,4"/>
</a>
</g>
<!-- Legislators have more favourable views -->
<g id="node1" class="node"><title>Legislators have more favourable views</title>
<polygon fill="#e5f5e0" stroke="#e5f5e0" stroke-width="2" points="454,-83 368,-83 368,-0 454,-0 454,-83"/>
<text text-anchor="start" x="376" y="-67.8" font-family="arial" font-size="14.00">Legislators</text>
<text text-anchor="start" x="395.5" y="-52.8" font-family="arial" font-size="14.00">have</text>
<text text-anchor="start" x="394" y="-37.8" font-family="arial" font-size="14.00">more</text>
<text text-anchor="start" x="377.5" y="-22.8" font-family="arial" font-size="14.00">favourable</text>
<text text-anchor="start" x="393" y="-7.8" font-family="arial" font-size="14.00">views</text>
</g>
<!-- Law on same&#45;sex marriage is passed -->
<g id="node2" class="node"><title>Law on same&#45;sex marriage is passed</title>
<polygon fill="#e5f5e0" stroke="#e5f5e0" stroke-width="2" points="584,-83 505,-83 505,-0 584,-0 584,-83"/>
<text text-anchor="start" x="521.5" y="-67.8" font-family="arial" font-size="14.00">Law on</text>
<text text-anchor="start" x="513" y="-52.8" font-family="arial" font-size="14.00">same&#45;sex</text>
<text text-anchor="start" x="516.5" y="-37.8" font-family="arial" font-size="14.00">marriage</text>
<text text-anchor="start" x="539" y="-22.8" font-family="arial" font-size="14.00">is</text>
<text text-anchor="start" x="520.5" y="-7.8" font-family="arial" font-size="14.00">passed</text>
</g>
<!-- Legislators have more favourable views&#45;&gt;Law on same&#45;sex marriage is passed -->
<g id="edge1" class="edge"><title>Legislators have more favourable views&#45;&gt;Law on same&#45;sex marriage is passed</title>
<path fill="none" stroke="#41ab5d" d="M454.331,-41.5C467.128,-41.5 481.286,-41.5 494.481,-41.5"/>
<polygon fill="#41ab5d" stroke="#41ab5d" points="494.812,-45.0001 504.812,-41.5 494.812,-38.0001 494.812,-45.0001"/>
</g>
<!-- Public opinion improves -->
<g id="node3" class="node"><title>Public opinion improves</title>
<polygon fill="#e5f5e0" stroke="#e5f5e0" stroke-width="2" points="262,-68 187,-68 187,-15 262,-15 262,-68"/>
<text text-anchor="start" x="204.5" y="-52.8" font-family="arial" font-size="14.00">Public</text>
<text text-anchor="start" x="201.5" y="-37.8" font-family="arial" font-size="14.00">opinion</text>
<text text-anchor="start" x="195" y="-22.8" font-family="arial" font-size="14.00">improves</text>
</g>
<!-- Public opinion improves&#45;&gt;Legislators have more favourable views -->
<g id="edge2" class="edge"><title>Public opinion improves&#45;&gt;Legislators have more favourable views</title>
<path fill="none" stroke="#41ab5d" d="M262.393,-41.5C289.697,-41.5 327.269,-41.5 357.673,-41.5"/>
<polygon fill="#41ab5d" stroke="#41ab5d" points="357.684,-45.0001 367.684,-41.5 357.684,-38.0001 357.684,-45.0001"/>
<text text-anchor="start" x="290.5" y="-105.3" font-family="Times New Roman,serif" font-size="14.00">Assume:</text>
<text text-anchor="start" x="299" y="-90.3" font-family="Times New Roman,serif" font-size="14.00">Other</text>
<text text-anchor="start" x="288" y="-75.3" font-family="Times New Roman,serif" font-size="14.00">campaign</text>
<text text-anchor="start" x="294.5" y="-60.3" font-family="Times New Roman,serif" font-size="14.00">lobbies</text>
<text text-anchor="start" x="287" y="-45.3" font-family="Times New Roman,serif" font-size="14.00">legislators</text>
</g>
<!-- !do Our campaign is launched -->
<g id="node4" class="node"><title>!do Our campaign is launched</title>
<polygon fill="#e5f5e0" stroke="#e5f5e0" stroke-width="2" points="78,-73.5 0,-73.5 0,-9.5 78,-9.5 78,-73.5"/>
<text text-anchor="start" x="17" y="-59.3" font-family="arial" font-size="14.00" fill="green">▶ </text>
<text text-anchor="start" x="33" y="-59.3" font-family="arial" font-size="14.00"> Our</text>
<text text-anchor="start" x="8" y="-45.3" font-family="arial" font-size="14.00">campaign</text>
<text text-anchor="start" x="33.5" y="-31.3" font-family="arial" font-size="14.00">is</text>
<text text-anchor="start" x="10" y="-17.3" font-family="arial" font-size="14.00">launched</text>
</g>
<!-- !do Our campaign is launched&#45;&gt;Public opinion improves -->
<g id="edge3" class="edge"><title>!do Our campaign is launched&#45;&gt;Public opinion improves</title>
<path fill="none" stroke="#41ab5d" d="M78.0213,-41.5C106.693,-41.5 146.173,-41.5 176.772,-41.5"/>
<polygon fill="#41ab5d" stroke="#41ab5d" points="176.78,-45.0001 186.78,-41.5 176.78,-38.0001 176.78,-45.0001"/>
<text text-anchor="start" x="108" y="-90.3" font-family="Times New Roman,serif" font-size="14.00">Assume:</text>
<text text-anchor="start" x="103" y="-75.3" font-family="Times New Roman,serif" font-size="14.00">Celebrities</text>
<text text-anchor="start" x="116" y="-60.3" font-family="Times New Roman,serif" font-size="14.00">speak</text>
<text text-anchor="start" x="123" y="-45.3" font-family="Times New Roman,serif" font-size="14.00">out</text>
</g>
</g>
</svg>
