<?xml version="1.0" encoding="UTF-8" standalone="no"?>
<!DOCTYPE svg PUBLIC "-//W3C//DTD SVG 1.1//EN"
 "http://www.w3.org/Graphics/SVG/1.1/DTD/svg11.dtd">
<!-- Generated by graphviz version 2.38.0 (20140413.2041)
 -->
<!-- Title: foo Pages: 1 -->
<svg width="355pt" height="64pt"
 viewBox="0.00 0.00 355.00 64.00" xmlns="http://www.w3.org/2000/svg" xmlns:xlink="http://www.w3.org/1999/xlink">
<g id="graph0" class="graph" transform="scale(1 1) rotate(0) translate(4 60)">
<title>foo</title>
<g id="a_graph0"><a xlink:title=" ">
<polygon fill="#c7e9c0" stroke="none" points="-4,4 -4,-60 351,-60 351,4 -4,4"/>
<text text-anchor="start" x="135.5" y="-7.2" font-family="tahoma" font-size="11.00" fill="#238b45">Try this instead</text>
</a>
</g>
<!-- Patient has been vaccinated -->
<g id="node1" class="node"><title>Patient has been vaccinated</title>
<polygon fill="#f7fcf5" stroke="#f7fcf5" points="194,-56 0,-56 0,-20 194,-20 194,-56"/>
<text text-anchor="start" x="8" y="-34.3" font-family="Helvetica,sans-Serif" font-size="14.00" fill="#006d2c">Patient has been vaccinated</text>
</g>
<!-- Patient dies -->
<g id="node2" class="node"><title>Patient dies</title>
<polygon fill="#f7fcf5" stroke="#f7fcf5" points="347,-56 256,-56 256,-20 347,-20 347,-56"/>
<text text-anchor="start" x="264" y="-34.3" font-family="Helvetica,sans-Serif" font-size="14.00" fill="#006d2c">Patient dies</text>
</g>
<!-- Patient has been vaccinated&#45;&gt;Patient dies -->
<g id="edge1" class="edge"><title>Patient has been vaccinated&#45;&gt;Patient dies</title>
<path fill="none" stroke="#41ab5d" stroke-width="2" d="M194.209,-38C211.872,-38 229.74,-38 245.656,-38"/>
<polygon fill="#41ab5d" stroke="#41ab5d" stroke-width="2" points="245.811,-41.5001 255.811,-38 245.811,-34.5001 245.811,-41.5001"/>
<text text-anchor="start" x="219" y="-41.8" font-family="Helvetica,sans-Serif" font-size="14.00" fill="#cd5c5c">⇅</text>
</g>
</g>
</svg>
