<?xml version="1.0" encoding="UTF-8" standalone="no"?>
<!DOCTYPE svg PUBLIC "-//W3C//DTD SVG 1.1//EN"
 "http://www.w3.org/Graphics/SVG/1.1/DTD/svg11.dtd">
<!-- Generated by graphviz version 2.38.0 (20140413.2041)
 -->
<!-- Title: foo Pages: 1 -->
<svg width="243pt" height="158pt"
 viewBox="0.00 0.00 243.00 158.00" xmlns="http://www.w3.org/2000/svg" xmlns:xlink="http://www.w3.org/1999/xlink">
<g id="graph0" class="graph" transform="scale(1 1) rotate(0) translate(4 154)">
<title>foo</title>
<g id="a_graph0"><a xlink:title=" ">
<polygon fill="white" stroke="none" points="-4,4 -4,-154 239,-154 239,4 -4,4"/>
</a>
</g>
<!-- Student feels they live up to expectations -->
<g id="node1" class="node"><title>Student feels they live up to expectations</title>
<polygon fill="#e5f5e0" stroke="#e5f5e0" stroke-width="2" points="97,-150 0,-150 0,-82 97,-82 97,-150"/>
<text text-anchor="start" x="24" y="-134.8" font-family="arial" font-size="14.00">Student</text>
<text text-anchor="start" x="17.5" y="-119.8" font-family="arial" font-size="14.00">feels they</text>
<text text-anchor="start" x="20" y="-104.8" font-family="arial" font-size="14.00">live up to</text>
<text text-anchor="start" x="8" y="-89.8" font-family="arial" font-size="14.00">expectations</text>
</g>
<!-- Student satisfaction with school at age 15 -->
<g id="node2" class="node"><title>Student satisfaction with school at age 15</title>
<polygon fill="#e5f5e0" stroke="#e5f5e0" stroke-width="2" points="235,-109 147,-109 147,-41 235,-41 235,-109"/>
<text text-anchor="start" x="166.5" y="-93.8" font-family="arial" font-size="14.00">Student</text>
<text text-anchor="start" x="155" y="-78.8" font-family="arial" font-size="14.00">satisfaction</text>
<text text-anchor="start" x="156" y="-63.8" font-family="arial" font-size="14.00">with school</text>
<text text-anchor="start" x="161" y="-48.8" font-family="arial" font-size="14.00">at age 15</text>
</g>
<!-- Student feels they live up to expectations&#45;&gt;Student satisfaction with school at age 15 -->
<g id="edge1" class="edge"><title>Student feels they live up to expectations&#45;&gt;Student satisfaction with school at age 15</title>
<path fill="none" stroke="#41ab5d" d="M97.0669,-102.119C109.882,-98.3798 123.824,-94.3111 136.919,-90.4898"/>
<polygon fill="#41ab5d" stroke="#41ab5d" points="138.116,-93.7867 146.735,-87.6254 136.155,-87.0669 138.116,-93.7867"/>
</g>
<!-- Student feels supported and liked -->
<g id="node3" class="node"><title>Student feels supported and liked</title>
<polygon fill="#e5f5e0" stroke="#e5f5e0" stroke-width="2" points="89,-68 8,-68 8,-0 89,-0 89,-68"/>
<text text-anchor="start" x="24" y="-52.8" font-family="arial" font-size="14.00">Student</text>
<text text-anchor="start" x="32.5" y="-37.8" font-family="arial" font-size="14.00">feels</text>
<text text-anchor="start" x="16" y="-22.8" font-family="arial" font-size="14.00">supported</text>
<text text-anchor="start" x="20" y="-7.8" font-family="arial" font-size="14.00">and liked</text>
</g>
<!-- Student feels supported and liked&#45;&gt;Student satisfaction with school at age 15 -->
<g id="edge2" class="edge"><title>Student feels supported and liked&#45;&gt;Student satisfaction with school at age 15</title>
<path fill="none" stroke="#41ab5d" d="M89.011,-45.5299C103.933,-49.8843 121.159,-54.9112 137.111,-59.5663"/>
<polygon fill="#41ab5d" stroke="#41ab5d" points="136.267,-62.9658 146.847,-62.4074 138.228,-56.2461 136.267,-62.9658"/>
</g>
</g>
</svg>
