<?xml version="1.0" encoding="UTF-8" standalone="no"?>
<!DOCTYPE svg PUBLIC "-//W3C//DTD SVG 1.1//EN"
 "http://www.w3.org/Graphics/SVG/1.1/DTD/svg11.dtd">
<!-- Generated by graphviz version 2.38.0 (20140413.2041)
 -->
<!-- Title: foo Pages: 1 -->
<svg width="638pt" height="148pt"
 viewBox="0.00 0.00 638.00 148.00" xmlns="http://www.w3.org/2000/svg" xmlns:xlink="http://www.w3.org/1999/xlink">
<g id="graph0" class="graph" transform="scale(1 1) rotate(0) translate(4 144)">
<title>foo</title>
<g id="a_graph0"><a xlink:title=" ">
<polygon fill="white" stroke="none" points="-4,4 -4,-144 634,-144 634,4 -4,4"/>
</a>
</g>
<!-- tr -->
<g id="node1" class="node"><title>tr</title>
<polygon fill="#e5f5e0" stroke="#e5f5e0" stroke-width="2" points="463,-86 287,-86 287,-50 463,-50 463,-86"/>
<text text-anchor="start" x="295" y="-64.3" font-family="arial" font-size="14.00">Teacher receives training</text>
</g>
<!-- Better teaching. &#160;&#160;Teacher: !smile &#160;&#160;Ministry: !smile &#160;&#160;Trainer: !smile -->
<g id="node2" class="node"><title>Better teaching. &#160;&#160;Teacher: !smile &#160;&#160;Ministry: !smile &#160;&#160;Trainer: !smile</title>
<polygon fill="#e5f5e0" stroke="#e5f5e0" stroke-width="2" points="629.5,-140 513.5,-140 513.5,-72 629.5,-72 629.5,-140"/>
<text text-anchor="start" x="521.5" y="-124.8" font-family="arial" font-size="14.00">Better teaching.</text>
<text text-anchor="start" x="536.5" y="-109.8" font-family="arial" font-size="14.00">Teacher: 🙂</text>
<text text-anchor="start" x="538.5" y="-94.8" font-family="arial" font-size="14.00">Ministry: 🙂</text>
<text text-anchor="start" x="540" y="-79.8" font-family="arial" font-size="14.00">Trainer: 🙂</text>
</g>
<!-- tr&#45;&gt;Better teaching. &#160;&#160;Teacher: !smile &#160;&#160;Ministry: !smile &#160;&#160;Trainer: !smile -->
<g id="edge1" class="edge"><title>tr&#45;&gt;Better teaching. &#160;&#160;Teacher: !smile &#160;&#160;Ministry: !smile &#160;&#160;Trainer: !smile</title>
<path fill="none" stroke="#41ab5d" d="M463.01,-84.9994C476.632,-87.6607 490.524,-90.3749 503.603,-92.9301"/>
<polygon fill="#41ab5d" stroke="#41ab5d" points="502.941,-96.367 513.427,-94.8495 504.284,-89.4969 502.941,-96.367"/>
</g>
<!-- Pay increased. &#160;&#160;Teacher: !smile &#160;&#160;Ministry: !2frown -->
<g id="node6" class="node"><title>Pay increased. &#160;&#160;Teacher: !smile &#160;&#160;Ministry: !2frown</title>
<polygon fill="#e5f5e0" stroke="#e5f5e0" stroke-width="2" points="630,-57.5 513,-57.5 513,-4.5 630,-4.5 630,-57.5"/>
<text text-anchor="start" x="524.5" y="-42.3" font-family="arial" font-size="14.00">Pay increased.</text>
<text text-anchor="start" x="536.5" y="-27.3" font-family="arial" font-size="14.00">Teacher: 🙂</text>
<text text-anchor="start" x="521" y="-12.3" font-family="arial" font-size="14.00">Ministry: ▃frown</text>
</g>
<!-- tr&#45;&gt;Pay increased. &#160;&#160;Teacher: !smile &#160;&#160;Ministry: !2frown -->
<g id="edge5" class="edge"><title>tr&#45;&gt;Pay increased. &#160;&#160;Teacher: !smile &#160;&#160;Ministry: !2frown</title>
<path fill="none" stroke="#41ab5d" d="M463.01,-51.448C476.338,-48.9125 489.926,-46.3277 502.757,-43.8869"/>
<polygon fill="#41ab5d" stroke="#41ab5d" points="503.696,-47.2711 512.865,-41.9639 502.387,-40.3945 503.696,-47.2711"/>
</g>
<!-- Teacher: &#160;!do &#160;&#160;Makes effort to attend course -->
<g id="node3" class="node"><title>Teacher: &#160;!do &#160;&#160;Makes effort to attend course</title>
<polygon fill="#e5f5e0" stroke="#e5f5e0" stroke-width="2" points="219,-136 18,-136 18,-100 219,-100 219,-136"/>
<text text-anchor="start" x="78.5" y="-121.8" font-family="arial" font-size="14.00">Teacher: &#160;</text>
<text text-anchor="start" x="142.5" y="-121.8" font-family="arial" font-size="14.00" fill="green">▶ </text>
<text text-anchor="start" x="26" y="-107.8" font-family="arial" font-size="14.00">Makes effort to attend course</text>
</g>
<!-- Teacher: &#160;!do &#160;&#160;Makes effort to attend course&#45;&gt;tr -->
<g id="edge2" class="edge"><title>Teacher: &#160;!do &#160;&#160;Makes effort to attend course&#45;&gt;tr</title>
<path fill="none" stroke="#41ab5d" d="M211.38,-99.9489C232.741,-95.7523 255.545,-91.272 277.114,-87.0346"/>
<polygon fill="#41ab5d" stroke="#41ab5d" points="277.79,-90.4688 286.927,-85.1066 276.44,-83.6001 277.79,-90.4688"/>
</g>
<!-- Ministry: !do &#160;&#160;Provides in&#45;service teacher training -->
<g id="node4" class="node"><title>Ministry: !do &#160;&#160;Provides in&#45;service teacher training</title>
<polygon fill="#e5f5e0" stroke="#e5f5e0" stroke-width="2" points="237,-86 0,-86 0,-50 237,-50 237,-86"/>
<text text-anchor="start" x="83" y="-71.8" font-family="arial" font-size="14.00">Ministry: </text>
<text text-anchor="start" x="138" y="-71.8" font-family="arial" font-size="14.00" fill="green">▶ </text>
<text text-anchor="start" x="8" y="-57.8" font-family="arial" font-size="14.00">Provides in&#45;service teacher training</text>
</g>
<!-- Ministry: !do &#160;&#160;Provides in&#45;service teacher training&#45;&gt;tr -->
<g id="edge3" class="edge"><title>Ministry: !do &#160;&#160;Provides in&#45;service teacher training&#45;&gt;tr</title>
<path fill="none" stroke="#41ab5d" d="M237.065,-68C250.323,-68 263.721,-68 276.68,-68"/>
<polygon fill="#41ab5d" stroke="#41ab5d" points="276.968,-71.5001 286.968,-68 276.968,-64.5001 276.968,-71.5001"/>
</g>
<!-- Trainer: !do &#160;&#160;Provides pro&#45;bono training &#160;!smile -->
<g id="node5" class="node"><title>Trainer: !do &#160;&#160;Provides pro&#45;bono training &#160;!smile</title>
<polygon fill="#e5f5e0" stroke="#e5f5e0" stroke-width="2" points="219.5,-36 17.5,-36 17.5,-0 219.5,-0 219.5,-36"/>
<text text-anchor="start" x="84.5" y="-21.8" font-family="arial" font-size="14.00">Trainer: </text>
<text text-anchor="start" x="136.5" y="-21.8" font-family="arial" font-size="14.00" fill="green">▶ </text>
<text text-anchor="start" x="25.5" y="-7.8" font-family="arial" font-size="14.00">Provides pro&#45;bono training &#160;🙂</text>
</g>
<!-- Trainer: !do &#160;&#160;Provides pro&#45;bono training &#160;!smile&#45;&gt;tr -->
<g id="edge4" class="edge"><title>Trainer: !do &#160;&#160;Provides pro&#45;bono training &#160;!smile&#45;&gt;tr</title>
<path fill="none" stroke="#41ab5d" d="M211.38,-36.0511C232.741,-40.2477 255.545,-44.728 277.114,-48.9654"/>
<polygon fill="#41ab5d" stroke="#41ab5d" points="276.44,-52.3999 286.927,-50.8934 277.79,-45.5312 276.44,-52.3999"/>
</g>
</g>
</svg>
