<?xml version="1.0" encoding="UTF-8" standalone="no"?>
<!DOCTYPE svg PUBLIC "-//W3C//DTD SVG 1.1//EN"
 "http://www.w3.org/Graphics/SVG/1.1/DTD/svg11.dtd">
<!-- Generated by graphviz version 2.38.0 (20140413.2041)
 -->
<!-- Title: foo Pages: 1 -->
<svg width="390pt" height="114pt"
 viewBox="0.00 0.00 390.00 114.00" xmlns="http://www.w3.org/2000/svg" xmlns:xlink="http://www.w3.org/1999/xlink">
<g id="graph0" class="graph" transform="scale(1 1) rotate(0) translate(4 110)">
<title>foo</title>
<g id="a_graph0"><a xlink:title=" ">
<polygon fill="#d9d9d9" stroke="none" points="-4,4 -4,-110 386,-110 386,4 -4,4"/>
<text text-anchor="start" x="167" y="-7.2" font-family="tahoma" font-size="11.00" fill="#525252">Confusing</text>
</a>
</g>
<!-- Intervention -->
<g id="node1" class="node"><title>Intervention</title>
<polygon fill="#fee6ce" stroke="#fee6ce" points="119.5,-106 29.5,-106 29.5,-70 119.5,-70 119.5,-106"/>
<text text-anchor="start" x="37.5" y="-84.3" font-family="Helvetica,sans-Serif" font-size="14.00">Intervention</text>
</g>
<!-- Mortality -->
<g id="node2" class="node"><title>Mortality</title>
<polygon fill="#fee6ce" stroke="#fee6ce" points="382,-81 314,-81 314,-45 382,-45 382,-81"/>
<text text-anchor="start" x="322" y="-59.3" font-family="Helvetica,sans-Serif" font-size="14.00">Mortality</text>
</g>
<!-- Intervention&#45;&gt;Mortality -->
<g id="edge1" class="edge"><title>Intervention&#45;&gt;Mortality</title>
<path fill="none" stroke="#737373" stroke-width="2" d="M119.725,-83.9277C170.507,-79.2516 253.274,-71.6304 303.674,-66.9895"/>
<polygon fill="#737373" stroke="#737373" stroke-width="2" points="304.278,-70.4488 313.915,-66.0465 303.636,-63.4783 304.278,-70.4488"/>
<text text-anchor="start" x="174" y="-81.8" font-family="Helvetica,sans-Serif" font-size="14.00" fill="#cd5c5c">negative influence</text>
</g>
<!-- Presence of bacteria -->
<g id="node3" class="node"><title>Presence of bacteria</title>
<polygon fill="#fee6ce" stroke="#fee6ce" points="149,-56 0,-56 0,-20 149,-20 149,-56"/>
<text text-anchor="start" x="8" y="-34.3" font-family="Helvetica,sans-Serif" font-size="14.00">Presence of bacteria</text>
</g>
<!-- Presence of bacteria&#45;&gt;Mortality -->
<g id="edge2" class="edge"><title>Presence of bacteria&#45;&gt;Mortality</title>
<path fill="none" stroke="#737373" stroke-width="2" d="M149.402,-39.1677C190.642,-40.5666 242.854,-43.576 289,-50 293.794,-50.6674 298.779,-51.5267 303.723,-52.4851"/>
<polygon fill="#737373" stroke="#737373" stroke-width="2" points="303.238,-55.959 313.741,-54.5619 304.659,-49.1047 303.238,-55.959"/>
<text text-anchor="start" x="176.5" y="-53.8" font-family="Helvetica,sans-Serif" font-size="14.00" fill="#cd5c5c">positive influence</text>
</g>
</g>
</svg>
