<?xml version="1.0" encoding="UTF-8" standalone="no"?>
<!DOCTYPE svg PUBLIC "-//W3C//DTD SVG 1.1//EN"
 "http://www.w3.org/Graphics/SVG/1.1/DTD/svg11.dtd">
<!-- Generated by graphviz version 2.38.0 (20140413.2041)
 -->
<!-- Title: foo Pages: 1 -->
<svg width="518pt" height="364pt"
 viewBox="0.00 0.00 518.00 364.00" xmlns="http://www.w3.org/2000/svg" xmlns:xlink="http://www.w3.org/1999/xlink">
<g id="graph0" class="graph" transform="scale(1 1) rotate(0) translate(4 360)">
<title>foo</title>
<g id="a_graph0"><a xlink:title=" ">
<polygon fill="#c7e9c0" stroke="none" points="-4,4 -4,-360 514,-360 514,4 -4,4"/>
<text text-anchor="start" x="217" y="-7.2" font-family="tahoma" font-size="11.00" fill="#238b45">Try this instead</text>
</a>
</g>
<!-- students receive laptops -->
<g id="node1" class="node"><title>students receive laptops</title>
<polygon fill="#f7fcf5" stroke="#f7fcf5" points="130.5,-259 9.5,-259 9.5,-221 130.5,-221 130.5,-259"/>
<text text-anchor="start" x="17.5" y="-243.8" font-family="Helvetica,sans-Serif" font-size="14.00" fill="#006d2c">students receive</text>
<text text-anchor="start" x="46.5" y="-228.8" font-family="Helvetica,sans-Serif" font-size="14.00" fill="#006d2c">laptops</text>
</g>
<!-- students can pursue own study interests better//!smile  -->
<g id="node2" class="node"><title>students can pursue own study interests better//!smile </title>
<polygon fill="#f7fcf5" stroke="#f7fcf5" points="334,-274 190,-274 190,-206 334,-206 334,-274"/>
<text text-anchor="start" x="198" y="-258.8" font-family="Helvetica,sans-Serif" font-size="14.00" fill="#006d2c">students can pursue</text>
<text text-anchor="start" x="201.5" y="-243.8" font-family="Helvetica,sans-Serif" font-size="14.00" fill="#006d2c">own study interests</text>
<text text-anchor="start" x="243.5" y="-228.8" font-family="Helvetica,sans-Serif" font-size="14.00" fill="#006d2c">better</text>
<text text-anchor="start" x="254.5" y="-213.8" font-family="Helvetica,sans-Serif" font-size="14.00" fill="#006d2c">☺</text>
</g>
<!-- students receive laptops&#45;&gt;students can pursue own study interests better//!smile  -->
<g id="edge1" class="edge"><title>students receive laptops&#45;&gt;students can pursue own study interests better//!smile </title>
<path fill="none" stroke="#41ab5d" stroke-width="2" d="M130.596,-240C146.187,-240 163.264,-240 179.773,-240"/>
<polygon fill="#41ab5d" stroke="#41ab5d" stroke-width="2" points="179.961,-243.5 189.961,-240 179.961,-236.5 179.961,-243.5"/>
</g>
<!-- students better able to apply for jobs //!smile -->
<g id="node3" class="node"><title>students better able to apply for jobs //!smile</title>
<polygon fill="#f7fcf5" stroke="#f7fcf5" points="321,-356 203,-356 203,-288 321,-288 321,-356"/>
<text text-anchor="start" x="214.5" y="-340.8" font-family="Helvetica,sans-Serif" font-size="14.00" fill="#006d2c">students better</text>
<text text-anchor="start" x="211" y="-325.8" font-family="Helvetica,sans-Serif" font-size="14.00" fill="#006d2c">able to apply for</text>
<text text-anchor="start" x="246.5" y="-310.8" font-family="Helvetica,sans-Serif" font-size="14.00" fill="#006d2c">jobs </text>
<text text-anchor="start" x="254.5" y="-295.8" font-family="Helvetica,sans-Serif" font-size="14.00" fill="#006d2c">☺</text>
</g>
<!-- students receive laptops&#45;&gt;students better able to apply for jobs //!smile -->
<g id="edge2" class="edge"><title>students receive laptops&#45;&gt;students better able to apply for jobs //!smile</title>
<path fill="none" stroke="#41ab5d" stroke-width="2" d="M115.067,-259.019C138.304,-269.047 167.314,-281.567 193.333,-292.796"/>
<polygon fill="#41ab5d" stroke="#41ab5d" stroke-width="2" points="192.199,-296.119 202.767,-296.868 194.973,-289.692 192.199,-296.119"/>
</g>
<!-- improved student classwork -->
<g id="node4" class="node"><title>improved student classwork</title>
<polygon fill="#f7fcf5" stroke="#f7fcf5" points="325,-192 199,-192 199,-154 325,-154 325,-192"/>
<text text-anchor="start" x="207" y="-176.8" font-family="Helvetica,sans-Serif" font-size="14.00" fill="#006d2c">improved student</text>
<text text-anchor="start" x="230.5" y="-161.8" font-family="Helvetica,sans-Serif" font-size="14.00" fill="#006d2c">classwork</text>
</g>
<!-- students receive laptops&#45;&gt;improved student classwork -->
<g id="edge5" class="edge"><title>students receive laptops&#45;&gt;improved student classwork</title>
<path fill="none" stroke="#41ab5d" stroke-width="2" d="M124.938,-220.98C147.502,-213.023 173.892,-203.717 197.395,-195.429"/>
<polygon fill="#41ab5d" stroke="#41ab5d" stroke-width="2" points="198.66,-198.694 206.927,-192.068 196.332,-192.093 198.66,-198.694"/>
</g>
<!-- improved student exam results//!smile -->
<g id="node5" class="node"><title>improved student exam results//!smile</title>
<polygon fill="#f7fcf5" stroke="#f7fcf5" points="510,-132.5 384,-132.5 384,-79.5 510,-79.5 510,-132.5"/>
<text text-anchor="start" x="392" y="-117.3" font-family="Helvetica,sans-Serif" font-size="14.00" fill="#006d2c">improved student</text>
<text text-anchor="start" x="406.5" y="-102.3" font-family="Helvetica,sans-Serif" font-size="14.00" fill="#006d2c">exam results</text>
<text text-anchor="start" x="439.5" y="-87.3" font-family="Helvetica,sans-Serif" font-size="14.00" fill="#006d2c">☺</text>
</g>
<!-- improved student classwork&#45;&gt;improved student exam results//!smile -->
<g id="edge3" class="edge"><title>improved student classwork&#45;&gt;improved student exam results//!smile</title>
<path fill="none" stroke="#41ab5d" stroke-width="2" d="M314.951,-153.98C333.385,-147.231 354.472,-139.51 374.263,-132.264"/>
<polygon fill="#41ab5d" stroke="#41ab5d" stroke-width="2" points="375.67,-135.477 383.857,-128.752 373.263,-128.903 375.67,-135.477"/>
</g>
<!-- student workshop 1 -->
<g id="node6" class="node"><title>student workshop 1</title>
<polygon fill="#f7fcf5" stroke="#f7fcf5" points="140,-158 0,-158 0,-122 140,-122 140,-158"/>
<text text-anchor="start" x="8" y="-136.3" font-family="Helvetica,sans-Serif" font-size="14.00" fill="#006d2c">student workshop 1</text>
</g>
<!-- student workshop 1&#45;&gt;improved student classwork -->
<g id="edge4" class="edge"><title>student workshop 1&#45;&gt;improved student classwork</title>
<path fill="none" stroke="#41ab5d" stroke-width="2" d="M140.132,-152.007C155.886,-154.743 172.667,-157.658 188.556,-160.418"/>
<polygon fill="#41ab5d" stroke="#41ab5d" stroke-width="2" points="188.396,-163.942 198.848,-162.205 189.594,-157.045 188.396,-163.942"/>
</g>
<!-- students can pursue own study interests better//!smile -->
<g id="node9" class="node"><title>students can pursue own study interests better//!smile</title>
<polygon fill="#f7fcf5" stroke="#f7fcf5" points="334,-140 190,-140 190,-72 334,-72 334,-140"/>
<text text-anchor="start" x="198" y="-124.8" font-family="Helvetica,sans-Serif" font-size="14.00" fill="#006d2c">students can pursue</text>
<text text-anchor="start" x="201.5" y="-109.8" font-family="Helvetica,sans-Serif" font-size="14.00" fill="#006d2c">own study interests</text>
<text text-anchor="start" x="243.5" y="-94.8" font-family="Helvetica,sans-Serif" font-size="14.00" fill="#006d2c">better</text>
<text text-anchor="start" x="254.5" y="-79.8" font-family="Helvetica,sans-Serif" font-size="14.00" fill="#006d2c">☺</text>
</g>
<!-- student workshop 1&#45;&gt;students can pursue own study interests better//!smile -->
<g id="edge8" class="edge"><title>student workshop 1&#45;&gt;students can pursue own study interests better//!smile</title>
<path fill="none" stroke="#41ab5d" stroke-width="2" d="M140.132,-127.629C152.984,-125.329 166.519,-122.907 179.696,-120.549"/>
<polygon fill="#41ab5d" stroke="#41ab5d" stroke-width="2" points="180.458,-123.968 189.685,-118.762 179.225,-117.078 180.458,-123.968"/>
</g>
<!-- improved student exam skills -->
<g id="node7" class="node"><title>improved student exam skills</title>
<polygon fill="#f7fcf5" stroke="#f7fcf5" points="325,-58 199,-58 199,-20 325,-20 325,-58"/>
<text text-anchor="start" x="207" y="-42.8" font-family="Helvetica,sans-Serif" font-size="14.00" fill="#006d2c">improved student</text>
<text text-anchor="start" x="227" y="-27.8" font-family="Helvetica,sans-Serif" font-size="14.00" fill="#006d2c">exam skills</text>
</g>
<!-- improved student exam skills&#45;&gt;improved student exam results//!smile -->
<g id="edge6" class="edge"><title>improved student exam skills&#45;&gt;improved student exam results//!smile</title>
<path fill="none" stroke="#41ab5d" stroke-width="2" d="M314.951,-58.0203C333.385,-64.7695 354.472,-72.4897 374.263,-79.7356"/>
<polygon fill="#41ab5d" stroke="#41ab5d" stroke-width="2" points="373.263,-83.0968 383.857,-83.2482 375.67,-76.5235 373.263,-83.0968"/>
</g>
<!-- student workshop 2 -->
<g id="node8" class="node"><title>student workshop 2</title>
<polygon fill="#f7fcf5" stroke="#f7fcf5" points="140,-57 0,-57 0,-21 140,-21 140,-57"/>
<text text-anchor="start" x="8" y="-35.3" font-family="Helvetica,sans-Serif" font-size="14.00" fill="#006d2c">student workshop 2</text>
</g>
<!-- student workshop 2&#45;&gt;improved student exam skills -->
<g id="edge7" class="edge"><title>student workshop 2&#45;&gt;improved student exam skills</title>
<path fill="none" stroke="#41ab5d" stroke-width="2" d="M140.132,-39C155.886,-39 172.667,-39 188.556,-39"/>
<polygon fill="#41ab5d" stroke="#41ab5d" stroke-width="2" points="188.848,-42.5001 198.848,-39 188.847,-35.5001 188.848,-42.5001"/>
</g>
</g>
</svg>
