<?xml version="1.0" encoding="UTF-8" standalone="no"?>
<!DOCTYPE svg PUBLIC "-//W3C//DTD SVG 1.1//EN"
 "http://www.w3.org/Graphics/SVG/1.1/DTD/svg11.dtd">
<!-- Generated by graphviz version 2.38.0 (20140413.2041)
 -->
<!-- Title: foo Pages: 1 -->
<svg width="410pt" height="82pt"
 viewBox="0.00 0.00 410.00 82.00" xmlns="http://www.w3.org/2000/svg" xmlns:xlink="http://www.w3.org/1999/xlink">
<g id="graph0" class="graph" transform="scale(1 1) rotate(0) translate(4 78)">
<title>foo</title>
<g id="a_graph0"><a xlink:title=" ">
<polygon fill="#c7e9c0" stroke="none" points="-4,4 -4,-78 406,-78 406,4 -4,4"/>
<text text-anchor="start" x="163" y="-7.2" font-family="tahoma" font-size="11.00" fill="#238b45">Try this instead</text>
</a>
</g>
<!-- axsxdf -->
<!-- ~Temperature of sea -->
<g id="node2" class="node"><title>~Temperature of sea</title>
<polygon fill="#f7fcf5" stroke="#f7fcf5" points="402,-56 252,-56 252,-20 402,-20 402,-56"/>
<text text-anchor="start" x="260" y="-34.3" font-family="Helvetica,sans-Serif" font-size="14.00" fill="#006d2c">~Temperature of sea</text>
</g>
<!-- axsxdf&#45;&gt;~Temperature of sea -->
<g id="edge1" class="edge"><title>axsxdf&#45;&gt;~Temperature of sea</title>
<path fill="none" stroke="#41ab5d" stroke-width="0" d="M114.057,-70.4997C132.899,-69.6135 170.437,-67.4282 202,-63 214.911,-61.1886 228.503,-58.8729 241.765,-56.3841"/>
<polygon fill="#41ab5d" stroke="#41ab5d" stroke-width="0" points="242.664,-59.7754 251.825,-54.4527 241.344,-52.9009 242.664,-59.7754"/>
</g>
<!-- ~Temperature of sea&#45;&gt;~Temperature of sea -->
<g id="edge3" class="edge"><title>~Temperature of sea&#45;&gt;~Temperature of sea</title>
<path fill="none" stroke="#41ab5d" stroke-width="2" d="M284.997,-56.0931C282.101,-63.6198 296.102,-70 327,-70 344.863,-70 357.079,-67.8676 363.647,-64.614"/>
<polygon fill="#41ab5d" stroke="#41ab5d" stroke-width="2" points="366.644,-66.4221 369.003,-56.0931 360.718,-62.6968 366.644,-66.4221"/>
</g>
<!-- ~Incoming sunshine onto sea -->
<g id="node3" class="node"><title>~Incoming sunshine onto sea</title>
<polygon fill="#f7fcf5" stroke="#f7fcf5" points="202,-56 0,-56 0,-20 202,-20 202,-56"/>
<text text-anchor="start" x="8" y="-34.3" font-family="Helvetica,sans-Serif" font-size="14.00" fill="#006d2c">~Incoming sunshine onto sea</text>
</g>
<!-- ~Incoming sunshine onto sea&#45;&gt;~Temperature of sea -->
<g id="edge2" class="edge"><title>~Incoming sunshine onto sea&#45;&gt;~Temperature of sea</title>
<path fill="none" stroke="#41ab5d" stroke-width="2" d="M202.207,-38C215.351,-38 228.714,-38 241.561,-38"/>
<polygon fill="#41ab5d" stroke="#41ab5d" stroke-width="2" points="241.739,-41.5001 251.739,-38 241.739,-34.5001 241.739,-41.5001"/>
</g>
</g>
</svg>
