<?xml version="1.0" encoding="UTF-8" standalone="no"?>
<!DOCTYPE svg PUBLIC "-//W3C//DTD SVG 1.1//EN"
 "http://www.w3.org/Graphics/SVG/1.1/DTD/svg11.dtd">
<!-- Generated by graphviz version 2.38.0 (20140413.2041)
 -->
<!-- Title: foo Pages: 1 -->
<svg width="414pt" height="62pt"
 viewBox="0.00 0.00 414.00 61.50" xmlns="http://www.w3.org/2000/svg" xmlns:xlink="http://www.w3.org/1999/xlink">
<g id="graph0" class="graph" transform="scale(1 1) rotate(0) translate(4 57.5)">
<title>foo</title>
<g id="a_graph0"><a xlink:title=" ">
<polygon fill="white" stroke="none" points="-4,4 -4,-57.5 410,-57.5 410,4 -4,4"/>
</a>
</g>
<!-- Graduate&#39;s personality, skills etc !multi -->
<g id="node1" class="node"><title>Graduate&#39;s personality, skills etc !multi</title>
<polygon fill="#e5f5e0" stroke="#e5f5e0" stroke-width="2" points="196,-53.5 0,-53.5 0,-15.5 196,-15.5 196,-53.5"/>
<text text-anchor="start" x="8" y="-38.3" font-family="arial" font-size="14.00">Graduate&#39;s personality, skills</text>
<text text-anchor="start" x="80.5" y="-23.3" font-family="arial" font-size="14.00">etc ▤</text>
</g>
<!-- Graduate wins Nobel Prize !noyes -->
<g id="node2" class="node"><title>Graduate wins Nobel Prize !noyes</title>
<polygon fill="#e5f5e0" stroke="#e5f5e0" stroke-width="2" points="406,-53.5 258,-53.5 258,-15.5 406,-15.5 406,-53.5"/>
<text text-anchor="start" x="266" y="-38.3" font-family="arial" font-size="14.00">Graduate wins Nobel</text>
<text text-anchor="start" x="308" y="-23.3" font-family="arial" font-size="14.00">Prize ◨</text>
</g>
<!-- Graduate&#39;s personality, skills etc !multi&#45;&gt;Graduate wins Nobel Prize !noyes -->
<g id="edge1" class="edge"><title>Graduate&#39;s personality, skills etc !multi&#45;&gt;Graduate wins Nobel Prize !noyes</title>
<path fill="none" stroke="#41ab5d" d="M196.045,-34.5C213.217,-34.5 230.958,-34.5 247.709,-34.5"/>
<polygon fill="#41ab5d" stroke="#41ab5d" points="247.997,-38.0001 257.997,-34.5 247.997,-31.0001 247.997,-38.0001"/>
<text text-anchor="start" x="221" y="-38.3" font-family="Times New Roman,serif" font-size="14.00">⚡</text>
</g>
<!-- axsxdf -->
<!-- axsxdf&#45;&gt;Graduate wins Nobel Prize !noyes -->
<g id="edge2" class="edge"><title>axsxdf&#45;&gt;Graduate wins Nobel Prize !noyes</title>
<path fill="none" stroke="#41ab5d" stroke-width="0" d="M109.807,-1.00959C127.766,-1.94181 164.862,-4.23021 196,-8.5 212.802,-10.804 230.677,-13.832 247.736,-17.0046"/>
<polygon fill="#41ab5d" stroke="#41ab5d" stroke-width="0" points="247.194,-20.4642 257.67,-18.885 248.496,-13.5863 247.194,-20.4642"/>
</g>
</g>
</svg>
