<?xml version="1.0" encoding="UTF-8" standalone="no"?>
<!DOCTYPE svg PUBLIC "-//W3C//DTD SVG 1.1//EN"
 "http://www.w3.org/Graphics/SVG/1.1/DTD/svg11.dtd">
<!-- Generated by graphviz version 2.38.0 (20140413.2041)
 -->
<!-- Title: foo Pages: 1 -->
<svg width="493pt" height="290pt"
 viewBox="0.00 0.00 493.00 290.00" xmlns="http://www.w3.org/2000/svg" xmlns:xlink="http://www.w3.org/1999/xlink">
<g id="graph0" class="graph" transform="scale(1 1) rotate(0) translate(4 286)">
<title>foo</title>
<g id="a_graph0"><a xlink:title=" ">
<polygon fill="#c7e9c0" stroke="none" points="-4,4 -4,-286 489,-286 489,4 -4,4"/>
<text text-anchor="start" x="204.5" y="-7.2" font-family="tahoma" font-size="11.00" fill="#238b45">Try this instead</text>
</a>
</g>
<!-- students receive laptops -->
<g id="node1" class="node"><title>students receive laptops</title>
<polygon fill="#f7fcf5" stroke="#f7fcf5" points="130.5,-196 9.5,-196 9.5,-158 130.5,-158 130.5,-196"/>
<text text-anchor="start" x="17.5" y="-180.8" font-family="Helvetica,sans-Serif" font-size="14.00" fill="#006d2c">students receive</text>
<text text-anchor="start" x="46.5" y="-165.8" font-family="Helvetica,sans-Serif" font-size="14.00" fill="#006d2c">laptops</text>
</g>
<!-- students can pursue own study interests better//!valued -->
<g id="node2" class="node"><title>students can pursue own study interests better//!valued</title>
<polygon fill="#f7fcf5" stroke="#f7fcf5" points="334,-282 190,-282 190,-210 334,-210 334,-282"/>
<text text-anchor="start" x="198" y="-267.8" font-family="Helvetica,sans-Serif" font-size="14.00" fill="#006d2c">students can pursue</text>
<text text-anchor="start" x="201.5" y="-253.8" font-family="Helvetica,sans-Serif" font-size="14.00" fill="#006d2c">own study interests</text>
<text text-anchor="start" x="243.5" y="-239.8" font-family="Helvetica,sans-Serif" font-size="14.00" fill="#006d2c">better</text>
<text text-anchor="start" x="255.5" y="-219.4" font-family="Helvetica,sans-Serif" font-size="22.00" fill="orange">♥</text>
</g>
<!-- students receive laptops&#45;&gt;students can pursue own study interests better//!valued -->
<g id="edge1" class="edge"><title>students receive laptops&#45;&gt;students can pursue own study interests better//!valued</title>
<path fill="none" stroke="#41ab5d" stroke-width="2" d="M123.421,-196.037C140.993,-202.418 161.015,-209.69 180.241,-216.672"/>
<polygon fill="#41ab5d" stroke="#41ab5d" stroke-width="2" points="179.308,-220.056 189.902,-220.18 181.697,-213.477 179.308,-220.056"/>
</g>
<!-- students can apply for jobs better//!valued -->
<g id="node3" class="node"><title>students can apply for jobs better//!valued</title>
<polygon fill="#f7fcf5" stroke="#f7fcf5" points="313,-144 211,-144 211,-72 313,-72 313,-144"/>
<text text-anchor="start" x="221.5" y="-129.8" font-family="Helvetica,sans-Serif" font-size="14.00" fill="#006d2c">students can</text>
<text text-anchor="start" x="219" y="-115.8" font-family="Helvetica,sans-Serif" font-size="14.00" fill="#006d2c">apply for jobs</text>
<text text-anchor="start" x="243.5" y="-101.8" font-family="Helvetica,sans-Serif" font-size="14.00" fill="#006d2c">better</text>
<text text-anchor="start" x="255.5" y="-81.4" font-family="Helvetica,sans-Serif" font-size="22.00" fill="orange">♥</text>
</g>
<!-- students receive laptops&#45;&gt;students can apply for jobs better//!valued -->
<g id="edge2" class="edge"><title>students receive laptops&#45;&gt;students can apply for jobs better//!valued</title>
<path fill="none" stroke="#41ab5d" stroke-width="2" d="M123.421,-157.963C147.47,-149.229 176.108,-138.829 201.013,-129.785"/>
<polygon fill="#41ab5d" stroke="#41ab5d" stroke-width="2" points="202.51,-132.965 210.715,-126.262 200.12,-126.385 202.51,-132.965"/>
</g>
<!-- improved student classwork -->
<g id="node4" class="node"><title>improved student classwork</title>
<polygon fill="#f7fcf5" stroke="#f7fcf5" points="325,-196 199,-196 199,-158 325,-158 325,-196"/>
<text text-anchor="start" x="207" y="-180.8" font-family="Helvetica,sans-Serif" font-size="14.00" fill="#006d2c">improved student</text>
<text text-anchor="start" x="230.5" y="-165.8" font-family="Helvetica,sans-Serif" font-size="14.00" fill="#006d2c">classwork</text>
</g>
<!-- students receive laptops&#45;&gt;improved student classwork -->
<g id="edge5" class="edge"><title>students receive laptops&#45;&gt;improved student classwork</title>
<path fill="none" stroke="#41ab5d" stroke-width="2" d="M130.596,-177C149.046,-177 169.575,-177 188.783,-177"/>
<polygon fill="#41ab5d" stroke="#41ab5d" stroke-width="2" points="188.992,-180.5 198.992,-177 188.992,-173.5 188.992,-180.5"/>
</g>
<!-- improved student exam results//!valued -->
<g id="node5" class="node"><title>improved student exam results//!valued</title>
<polygon fill="#f7fcf5" stroke="#f7fcf5" points="485,-144 384,-144 384,-72 485,-72 485,-144"/>
<text text-anchor="start" x="404.5" y="-129.8" font-family="Helvetica,sans-Serif" font-size="14.00" fill="#006d2c">improved</text>
<text text-anchor="start" x="392" y="-115.8" font-family="Helvetica,sans-Serif" font-size="14.00" fill="#006d2c">student exam</text>
<text text-anchor="start" x="413" y="-101.8" font-family="Helvetica,sans-Serif" font-size="14.00" fill="#006d2c">results</text>
<text text-anchor="start" x="428" y="-81.4" font-family="Helvetica,sans-Serif" font-size="22.00" fill="orange">♥</text>
</g>
<!-- improved student classwork&#45;&gt;improved student exam results//!valued -->
<g id="edge3" class="edge"><title>improved student classwork&#45;&gt;improved student exam results//!valued</title>
<path fill="none" stroke="#41ab5d" stroke-width="2" d="M316.24,-157.877C322.25,-155.608 328.269,-153.285 334,-151 347.151,-145.755 361.167,-139.879 374.403,-134.196"/>
<polygon fill="#41ab5d" stroke="#41ab5d" stroke-width="2" points="376.086,-137.281 383.879,-130.103 373.311,-130.855 376.086,-137.281"/>
</g>
<!-- student workshop 1 -->
<g id="node6" class="node"><title>student workshop 1</title>
<polygon fill="#f7fcf5" stroke="#f7fcf5" points="140,-255 0,-255 0,-219 140,-219 140,-255"/>
<text text-anchor="start" x="8" y="-233.3" font-family="Helvetica,sans-Serif" font-size="14.00" fill="#006d2c">student workshop 1</text>
</g>
<!-- student workshop 1&#45;&gt;students can pursue own study interests better//!valued -->
<g id="edge8" class="edge"><title>student workshop 1&#45;&gt;students can pursue own study interests better//!valued</title>
<path fill="none" stroke="#41ab5d" stroke-width="2" d="M140.132,-240.275C152.984,-240.883 166.519,-241.525 179.696,-242.149"/>
<polygon fill="#41ab5d" stroke="#41ab5d" stroke-width="2" points="179.531,-245.645 189.685,-242.622 179.862,-238.653 179.531,-245.645"/>
</g>
<!-- student workshop 1&#45;&gt;improved student classwork -->
<g id="edge4" class="edge"><title>student workshop 1&#45;&gt;improved student classwork</title>
<path fill="none" stroke="#41ab5d" stroke-width="2" d="M128.006,-218.998C147.823,-212.74 170.28,-205.649 191.023,-199.098"/>
<polygon fill="#41ab5d" stroke="#41ab5d" stroke-width="2" points="192.25,-202.381 200.732,-196.032 190.142,-195.706 192.25,-202.381"/>
</g>
<!-- improved student exam skills -->
<g id="node7" class="node"><title>improved student exam skills</title>
<polygon fill="#f7fcf5" stroke="#f7fcf5" points="325,-58 199,-58 199,-20 325,-20 325,-58"/>
<text text-anchor="start" x="207" y="-42.8" font-family="Helvetica,sans-Serif" font-size="14.00" fill="#006d2c">improved student</text>
<text text-anchor="start" x="227" y="-27.8" font-family="Helvetica,sans-Serif" font-size="14.00" fill="#006d2c">exam skills</text>
</g>
<!-- improved student exam skills&#45;&gt;improved student exam results//!valued -->
<g id="edge6" class="edge"><title>improved student exam skills&#45;&gt;improved student exam results//!valued</title>
<path fill="none" stroke="#41ab5d" stroke-width="2" d="M316.24,-58.1228C322.25,-60.3919 328.269,-62.7146 334,-65 347.151,-70.2448 361.167,-76.121 374.403,-81.8043"/>
<polygon fill="#41ab5d" stroke="#41ab5d" stroke-width="2" points="373.311,-85.1452 383.879,-85.8968 376.086,-78.7188 373.311,-85.1452"/>
</g>
<!-- student workshop 2 -->
<g id="node8" class="node"><title>student workshop 2</title>
<polygon fill="#f7fcf5" stroke="#f7fcf5" points="140,-57 0,-57 0,-21 140,-21 140,-57"/>
<text text-anchor="start" x="8" y="-35.3" font-family="Helvetica,sans-Serif" font-size="14.00" fill="#006d2c">student workshop 2</text>
</g>
<!-- student workshop 2&#45;&gt;improved student exam skills -->
<g id="edge7" class="edge"><title>student workshop 2&#45;&gt;improved student exam skills</title>
<path fill="none" stroke="#41ab5d" stroke-width="2" d="M140.132,-39C155.886,-39 172.667,-39 188.556,-39"/>
<polygon fill="#41ab5d" stroke="#41ab5d" stroke-width="2" points="188.848,-42.5001 198.848,-39 188.847,-35.5001 188.848,-42.5001"/>
</g>
</g>
</svg>
