<?xml version="1.0" encoding="UTF-8" standalone="no"?>
<!DOCTYPE svg PUBLIC "-//W3C//DTD SVG 1.1//EN"
 "http://www.w3.org/Graphics/SVG/1.1/DTD/svg11.dtd">
<!-- Generated by graphviz version 2.38.0 (20140413.2041)
 -->
<!-- Title: foo Pages: 1 -->
<svg width="538pt" height="166pt"
 viewBox="0.00 0.00 538.00 166.00" xmlns="http://www.w3.org/2000/svg" xmlns:xlink="http://www.w3.org/1999/xlink">
<g id="graph0" class="graph" transform="scale(1 1) rotate(0) translate(4 162)">
<title>foo</title>
<g id="a_graph0"><a xlink:title=" ">
<polygon fill="#d9d9d9" stroke="none" points="-4,4 -4,-162 534,-162 534,4 -4,4"/>
<text text-anchor="start" x="173" y="-7.2" font-family="tahoma" font-size="11.00" fill="#525252">You don&#39;t have to stick to this format</text>
</a>
</g>
<!-- Student 1 (Ana): Achievement -->
<g id="node1" class="node"><title>Student 1 (Ana): Achievement</title>
<polygon fill="#fee6ce" stroke="#fee6ce" points="369.5,-158 164.5,-158 164.5,-122 369.5,-122 369.5,-158"/>
<text text-anchor="start" x="172.5" y="-136.3" font-family="Helvetica,sans-Serif" font-size="14.00">Student 1 (Ana): Achievement</text>
</g>
<!-- Teacher: Pride -->
<g id="node2" class="node"><title>Teacher: Pride</title>
<polygon fill="#fee6ce" stroke="#fee6ce" points="530,-108 420,-108 420,-72 530,-72 530,-108"/>
<text text-anchor="start" x="428" y="-86.3" font-family="Helvetica,sans-Serif" font-size="14.00">Teacher: Pride</text>
</g>
<!-- Student 1 (Ana): Achievement&#45;&gt;Teacher: Pride -->
<g id="edge1" class="edge"><title>Student 1 (Ana): Achievement&#45;&gt;Teacher: Pride</title>
<path fill="none" stroke="#737373" stroke-width="2" d="M342.371,-121.949C364.458,-116.588 388.452,-110.764 409.832,-105.575"/>
<polygon fill="#737373" stroke="#737373" stroke-width="2" points="410.883,-108.921 419.775,-103.161 409.232,-102.119 410.883,-108.921"/>
</g>
<!-- Teacher: Ability -->
<g id="node3" class="node"><title>Teacher: Ability</title>
<polygon fill="#fee6ce" stroke="#fee6ce" points="114,-108 0,-108 0,-72 114,-72 114,-108"/>
<text text-anchor="start" x="8" y="-86.3" font-family="Helvetica,sans-Serif" font-size="14.00">Teacher: Ability</text>
</g>
<!-- Teacher: Ability&#45;&gt;Student 1 (Ana): Achievement -->
<g id="edge2" class="edge"><title>Teacher: Ability&#45;&gt;Student 1 (Ana): Achievement</title>
<path fill="none" stroke="#737373" stroke-width="2" d="M114.014,-103.465C134.662,-108.428 158.543,-114.169 181.17,-119.608"/>
<polygon fill="#737373" stroke="#737373" stroke-width="2" points="180.577,-123.065 191.118,-121.999 182.213,-116.259 180.577,-123.065"/>
</g>
<!-- Student 2 (Bob): Achievement -->
<g id="node4" class="node"><title>Student 2 (Bob): Achievement</title>
<polygon fill="#fee6ce" stroke="#fee6ce" points="370,-108 164,-108 164,-72 370,-72 370,-108"/>
<text text-anchor="start" x="172" y="-86.3" font-family="Helvetica,sans-Serif" font-size="14.00">Student 2 (Bob): Achievement</text>
</g>
<!-- Teacher: Ability&#45;&gt;Student 2 (Bob): Achievement -->
<g id="edge4" class="edge"><title>Teacher: Ability&#45;&gt;Student 2 (Bob): Achievement</title>
<path fill="none" stroke="#737373" stroke-width="2" d="M114.014,-90C126.407,-90 139.965,-90 153.718,-90"/>
<polygon fill="#737373" stroke="#737373" stroke-width="2" points="153.752,-93.5001 163.752,-90 153.752,-86.5001 153.752,-93.5001"/>
</g>
<!-- Student 3: (Carla): Achievement -->
<g id="node5" class="node"><title>Student 3: (Carla): Achievement</title>
<polygon fill="#fee6ce" stroke="#fee6ce" points="332.5,-58 201.5,-58 201.5,-20 332.5,-20 332.5,-58"/>
<text text-anchor="start" x="209.5" y="-42.8" font-family="Helvetica,sans-Serif" font-size="14.00">Student 3: (Carla):</text>
<text text-anchor="start" x="225.5" y="-27.8" font-family="Helvetica,sans-Serif" font-size="14.00">Achievement</text>
</g>
<!-- Teacher: Ability&#45;&gt;Student 3: (Carla): Achievement -->
<g id="edge6" class="edge"><title>Teacher: Ability&#45;&gt;Student 3: (Carla): Achievement</title>
<path fill="none" stroke="#737373" stroke-width="2" d="M114.014,-76.2658C137.808,-70.4317 165.895,-63.5451 191.408,-57.2893"/>
<polygon fill="#737373" stroke="#737373" stroke-width="2" points="192.538,-60.6161 201.417,-54.8354 190.871,-53.8175 192.538,-60.6161"/>
</g>
<!-- Student 2 (Bob): Achievement&#45;&gt;Teacher: Pride -->
<g id="edge3" class="edge"><title>Student 2 (Bob): Achievement&#45;&gt;Teacher: Pride</title>
<path fill="none" stroke="#737373" stroke-width="2" d="M370.095,-90C383.532,-90 396.989,-90 409.552,-90"/>
<polygon fill="#737373" stroke="#737373" stroke-width="2" points="409.875,-93.5001 419.875,-90 409.875,-86.5001 409.875,-93.5001"/>
</g>
<!-- Student 3: (Carla): Achievement&#45;&gt;Teacher: Pride -->
<g id="edge5" class="edge"><title>Student 3: (Carla): Achievement&#45;&gt;Teacher: Pride</title>
<path fill="none" stroke="#737373" stroke-width="2" d="M332.614,-54.9968C357.296,-61.1074 385.41,-68.0676 410.032,-74.1632"/>
<polygon fill="#737373" stroke="#737373" stroke-width="2" points="409.444,-77.6232 419.992,-76.629 411.126,-70.8283 409.444,-77.6232"/>
</g>
</g>
</svg>
