<?xml version="1.0" encoding="UTF-8" standalone="no"?>
<!DOCTYPE svg PUBLIC "-//W3C//DTD SVG 1.1//EN"
 "http://www.w3.org/Graphics/SVG/1.1/DTD/svg11.dtd">
<!-- Generated by graphviz version 2.38.0 (20140413.2041)
 -->
<!-- Title: foo Pages: 1 -->
<svg width="536pt" height="118pt"
 viewBox="0.00 0.00 536.00 118.00" xmlns="http://www.w3.org/2000/svg" xmlns:xlink="http://www.w3.org/1999/xlink">
<g id="graph0" class="graph" transform="scale(1 1) rotate(0) translate(4 114)">
<title>foo</title>
<g id="a_graph0"><a xlink:title=" ">
<polygon fill="#d9d9d9" stroke="none" points="-4,4 -4,-114 532,-114 532,4 -4,4"/>
<text text-anchor="start" x="254.5" y="-7.2" font-family="tahoma" font-size="11.00" fill="#525252">NO!</text>
</a>
</g>
<!-- Teachers have skills in North Region -->
<g id="node1" class="node"><title>Teachers have skills in North Region</title>
<polygon fill="#fee6ce" stroke="#fee6ce" points="347,-58 202,-58 202,-20 347,-20 347,-58"/>
<text text-anchor="start" x="210" y="-42.8" font-family="Helvetica,sans-Serif" font-size="14.00">Teachers have skills</text>
<text text-anchor="start" x="225.5" y="-27.8" font-family="Helvetica,sans-Serif" font-size="14.00">in North Region</text>
</g>
<!-- Teachers in whole country have skills -->
<g id="node2" class="node"><title>Teachers in whole country have skills</title>
<polygon fill="#fc9272" stroke="#fc9272" points="528,-84 397,-84 397,-46 528,-46 528,-84"/>
<text text-anchor="start" x="405" y="-68.8" font-family="Helvetica,sans-Serif" font-size="14.00">Teachers in whole</text>
<text text-anchor="start" x="405" y="-53.8" font-family="Helvetica,sans-Serif" font-size="14.00">country have skills</text>
</g>
<!-- Teachers have skills in North Region&#45;&gt;Teachers in whole country have skills -->
<g id="edge1" class="edge"><title>Teachers have skills in North Region&#45;&gt;Teachers in whole country have skills</title>
<path fill="none" stroke="#737373" stroke-width="2" d="M347.146,-49.0151C360.194,-50.839 373.835,-52.7458 386.965,-54.5811"/>
<polygon fill="#737373" stroke="#737373" stroke-width="2" points="386.498,-58.0499 396.887,-55.968 387.468,-51.1173 386.498,-58.0499"/>
</g>
<!-- Workshops delivered in North Region -->
<g id="node3" class="node"><title>Workshops delivered in North Region</title>
<polygon fill="#fee6ce" stroke="#fee6ce" points="152,-58 0,-58 0,-20 152,-20 152,-58"/>
<text text-anchor="start" x="8" y="-42.8" font-family="Helvetica,sans-Serif" font-size="14.00">Workshops delivered</text>
<text text-anchor="start" x="27" y="-27.8" font-family="Helvetica,sans-Serif" font-size="14.00">in North Region</text>
</g>
<!-- Workshops delivered in North Region&#45;&gt;Teachers have skills in North Region -->
<g id="edge2" class="edge"><title>Workshops delivered in North Region&#45;&gt;Teachers have skills in North Region</title>
<path fill="none" stroke="#737373" stroke-width="2" d="M152.129,-39C165.038,-39 178.512,-39 191.589,-39"/>
<polygon fill="#737373" stroke="#737373" stroke-width="2" points="191.972,-42.5001 201.972,-39 191.972,-35.5001 191.972,-42.5001"/>
</g>
<!-- Teachers have skills in South Region -->
<g id="node4" class="node"><title>Teachers have skills in South Region</title>
<polygon fill="#fee6ce" stroke="#fee6ce" points="347,-110 202,-110 202,-72 347,-72 347,-110"/>
<text text-anchor="start" x="210" y="-94.8" font-family="Helvetica,sans-Serif" font-size="14.00">Teachers have skills</text>
<text text-anchor="start" x="224" y="-79.8" font-family="Helvetica,sans-Serif" font-size="14.00">in South Region</text>
</g>
<!-- Teachers have skills in South Region&#45;&gt;Teachers in whole country have skills -->
<g id="edge3" class="edge"><title>Teachers have skills in South Region&#45;&gt;Teachers in whole country have skills</title>
<path fill="none" stroke="#737373" stroke-width="2" d="M347.146,-80.9849C360.194,-79.161 373.835,-77.2542 386.965,-75.4189"/>
<polygon fill="#737373" stroke="#737373" stroke-width="2" points="387.468,-78.8827 396.887,-74.032 386.498,-71.9501 387.468,-78.8827"/>
</g>
<!-- Workshops delivered in South Region -->
<g id="node5" class="node"><title>Workshops delivered in South Region</title>
<polygon fill="#fee6ce" stroke="#fee6ce" points="152,-110 0,-110 0,-72 152,-72 152,-110"/>
<text text-anchor="start" x="8" y="-94.8" font-family="Helvetica,sans-Serif" font-size="14.00">Workshops delivered</text>
<text text-anchor="start" x="25.5" y="-79.8" font-family="Helvetica,sans-Serif" font-size="14.00">in South Region</text>
</g>
<!-- Workshops delivered in South Region&#45;&gt;Teachers have skills in South Region -->
<g id="edge4" class="edge"><title>Workshops delivered in South Region&#45;&gt;Teachers have skills in South Region</title>
<path fill="none" stroke="#737373" stroke-width="2" d="M152.129,-91C165.038,-91 178.512,-91 191.589,-91"/>
<polygon fill="#737373" stroke="#737373" stroke-width="2" points="191.972,-94.5001 201.972,-91 191.972,-87.5001 191.972,-94.5001"/>
</g>
</g>
</svg>
