<?xml version="1.0" encoding="UTF-8" standalone="no"?>
<!DOCTYPE svg PUBLIC "-//W3C//DTD SVG 1.1//EN"
 "http://www.w3.org/Graphics/SVG/1.1/DTD/svg11.dtd">
<!-- Generated by graphviz version 2.38.0 (20140413.2041)
 -->
<!-- Title: foo Pages: 1 -->
<svg width="403pt" height="276pt"
 viewBox="0.00 0.00 403.00 276.00" xmlns="http://www.w3.org/2000/svg" xmlns:xlink="http://www.w3.org/1999/xlink">
<g id="graph0" class="graph" transform="scale(1 1) rotate(0) translate(4 272)">
<title>foo</title>
<g id="a_graph0"><a xlink:title=" ">
<polygon fill="white" stroke="none" points="-4,4 -4,-272 399,-272 399,4 -4,4"/>
</a>
</g>
<!-- axsxdf -->
<!-- ~ Effectiveness of volunteer work (Influence: medium excitement level is best) -->
<g id="node2" class="node"><title>~ Effectiveness of volunteer work (Influence: medium excitement level is best)</title>
<polygon fill="#e5f5e0" stroke="#e5f5e0" stroke-width="2" points="253,-268 149,-268 149,-140 253,-140 253,-268"/>
<text text-anchor="start" x="196.5" y="-252.8" font-family="arial" font-size="14.00">~</text>
<text text-anchor="start" x="157" y="-237.8" font-family="arial" font-size="14.00">Effectiveness</text>
<text text-anchor="start" x="163.5" y="-222.8" font-family="arial" font-size="14.00">of volunteer</text>
<text text-anchor="start" x="186" y="-207.8" font-family="arial" font-size="14.00">work</text>
<text text-anchor="start" x="167.5" y="-192.8" font-family="arial" font-size="14.00">(Influence:</text>
<text text-anchor="start" x="175" y="-177.8" font-family="arial" font-size="14.00">medium</text>
<text text-anchor="start" x="166" y="-162.8" font-family="arial" font-size="14.00">excitement</text>
<text text-anchor="start" x="161" y="-147.8" font-family="arial" font-size="14.00">level is best)</text>
</g>
<!-- axsxdf&#45;&gt;~ Effectiveness of volunteer work (Influence: medium excitement level is best) -->
<g id="edge1" class="edge"><title>axsxdf&#45;&gt;~ Effectiveness of volunteer work (Influence: medium excitement level is best)</title>
<path fill="none" stroke="#41ab5d" stroke-width="0" d="M52.6134,-168.509C62.1832,-170.813 102.553,-180.535 138.627,-189.221"/>
<polygon fill="#41ab5d" stroke="#41ab5d" stroke-width="0" points="138.117,-192.698 148.658,-191.637 139.756,-185.893 138.117,-192.698"/>
</g>
<!-- ~ Excitement level of volunteers !self -->
<g id="node3" class="node"><title>~ Excitement level of volunteers !self</title>
<polygon fill="#e5f5e0" stroke="#e5f5e0" stroke-width="2" points="99,-118.5 0,-118.5 0,-65.5 99,-65.5 99,-118.5"/>
<text text-anchor="start" x="8" y="-103.3" font-family="arial" font-size="14.00">~ Excitement</text>
<text text-anchor="start" x="26.5" y="-88.3" font-family="arial" font-size="14.00">level of</text>
<text text-anchor="start" x="9" y="-73.3" font-family="arial" font-size="14.00">volunteers ↺</text>
</g>
<!-- ~ Excitement level of volunteers !self&#45;&gt;~ Effectiveness of volunteer work (Influence: medium excitement level is best) -->
<g id="edge2" class="edge"><title>~ Excitement level of volunteers !self&#45;&gt;~ Effectiveness of volunteer work (Influence: medium excitement level is best)</title>
<path fill="none" stroke="#41ab5d" d="M85.9294,-118.542C102.326,-130.826 122.252,-145.754 140.834,-159.675"/>
<polygon fill="#41ab5d" stroke="#41ab5d" points="138.877,-162.582 148.979,-165.777 143.074,-156.98 138.877,-162.582"/>
</g>
<!-- ~ Staff observation of excitement level -->
<g id="node5" class="node"><title>~ Staff observation of excitement level</title>
<polygon fill="#e5f5e0" stroke="#e5f5e0" stroke-width="2" points="252,-126 150,-126 150,-58 252,-58 252,-126"/>
<text text-anchor="start" x="179.5" y="-110.8" font-family="arial" font-size="14.00">~ Staff</text>
<text text-anchor="start" x="164" y="-95.8" font-family="arial" font-size="14.00">observation</text>
<text text-anchor="start" x="158" y="-80.8" font-family="arial" font-size="14.00">of excitement</text>
<text text-anchor="start" x="186" y="-65.8" font-family="arial" font-size="14.00">level</text>
</g>
<!-- ~ Excitement level of volunteers !self&#45;&gt;~ Staff observation of excitement level -->
<g id="edge5" class="edge"><title>~ Excitement level of volunteers !self&#45;&gt;~ Staff observation of excitement level</title>
<path fill="none" stroke="#41ab5d" d="M99.0384,-92C112.015,-92 126.199,-92 139.725,-92"/>
<polygon fill="#41ab5d" stroke="#41ab5d" points="139.909,-95.5001 149.909,-92 139.909,-88.5001 139.909,-95.5001"/>
</g>
<!-- ~ Inspirational input from staff (Influence: optimise excitement level) !optimise -->
<g id="node4" class="node"><title>~ Inspirational input from staff (Influence: optimise excitement level) !optimise</title>
<polygon fill="#e5f5e0" stroke="#e5f5e0" stroke-width="2" points="395,-128 303,-128 303,-0 395,-0 395,-128"/>
<text text-anchor="start" x="344.5" y="-112.8" font-family="arial" font-size="14.00">~</text>
<text text-anchor="start" x="311" y="-97.8" font-family="arial" font-size="14.00">Inspirational</text>
<text text-anchor="start" x="333.5" y="-82.8" font-family="arial" font-size="14.00">input</text>
<text text-anchor="start" x="318.5" y="-67.8" font-family="arial" font-size="14.00">from staff</text>
<text text-anchor="start" x="315.5" y="-52.8" font-family="arial" font-size="14.00">(Influence:</text>
<text text-anchor="start" x="321.5" y="-37.8" font-family="arial" font-size="14.00">optimise</text>
<text text-anchor="start" x="314" y="-22.8" font-family="arial" font-size="14.00">excitement</text>
<text text-anchor="start" x="324.5" y="-7.8" font-family="arial" font-size="14.00">level) 🞕</text>
</g>
<!-- ~ Inspirational input from staff (Influence: optimise excitement level) !optimise&#45;&gt;~ Excitement level of volunteers !self -->
<g id="edge3" class="edge"><title>~ Inspirational input from staff (Influence: optimise excitement level) !optimise&#45;&gt;~ Excitement level of volunteers !self</title>
<path fill="none" stroke="#41ab5d" d="M302.904,-54.4086C262.279,-47.3352 201.115,-40.5868 149,-51 135.48,-53.7015 121.495,-58.2981 108.458,-63.4595"/>
<polygon fill="#41ab5d" stroke="#41ab5d" points="107.062,-60.2491 99.1532,-67.2985 109.732,-66.72 107.062,-60.2491"/>
</g>
<!-- ~ Staff observation of excitement level&#45;&gt;~ Inspirational input from staff (Influence: optimise excitement level) !optimise -->
<g id="edge4" class="edge"><title>~ Staff observation of excitement level&#45;&gt;~ Inspirational input from staff (Influence: optimise excitement level) !optimise</title>
<path fill="none" stroke="#41ab5d" d="M252.245,-82.364C265.26,-79.868 279.346,-77.1664 292.609,-74.623"/>
<polygon fill="#41ab5d" stroke="#41ab5d" points="293.396,-78.0358 302.558,-72.7149 292.078,-71.1611 293.396,-78.0358"/>
</g>
</g>
</svg>
