<?xml version="1.0" encoding="UTF-8" standalone="no"?>
<!DOCTYPE svg PUBLIC "-//W3C//DTD SVG 1.1//EN"
 "http://www.w3.org/Graphics/SVG/1.1/DTD/svg11.dtd">
<!-- Generated by graphviz version 2.38.0 (20140413.2041)
 -->
<!-- Title: foo Pages: 1 -->
<svg width="369pt" height="81pt"
 viewBox="0.00 0.00 369.00 81.00" xmlns="http://www.w3.org/2000/svg" xmlns:xlink="http://www.w3.org/1999/xlink">
<g id="graph0" class="graph" transform="scale(1 1) rotate(0) translate(4 77)">
<title>foo</title>
<g id="a_graph0"><a xlink:title=" ">
<polygon fill="#c7e9c0" stroke="none" points="-4,4 -4,-77 365,-77 365,4 -4,4"/>
<text text-anchor="start" x="30.5" y="-7.2" font-family="tahoma" font-size="11.00" fill="#238b45">Now we are not mixing Variables with and without Differences</text>
</a>
</g>
<!-- Percentage of children vaccinated -->
<g id="node1" class="node"><title>Percentage of children vaccinated</title>
<polygon fill="#f7fcf5" stroke="#f7fcf5" points="231,-73 141,-73 141,-20 231,-20 231,-73"/>
<text text-anchor="start" x="149" y="-57.8" font-family="Helvetica,sans-Serif" font-size="14.00" fill="#006d2c">Percentage</text>
<text text-anchor="start" x="152.5" y="-42.8" font-family="Helvetica,sans-Serif" font-size="14.00" fill="#006d2c">of children</text>
<text text-anchor="start" x="152" y="-27.8" font-family="Helvetica,sans-Serif" font-size="14.00" fill="#006d2c">vaccinated</text>
</g>
<!-- Mortality -->
<g id="node2" class="node"><title>Mortality</title>
<polygon fill="#f7fcf5" stroke="#f7fcf5" points="361,-64.5 293,-64.5 293,-28.5 361,-28.5 361,-64.5"/>
<text text-anchor="start" x="301" y="-42.8" font-family="Helvetica,sans-Serif" font-size="14.00" fill="#006d2c">Mortality</text>
</g>
<!-- Percentage of children vaccinated&#45;&gt;Mortality -->
<g id="edge1" class="edge"><title>Percentage of children vaccinated&#45;&gt;Mortality</title>
<path fill="none" stroke="#41ab5d" stroke-width="2" d="M231.363,-46.5C247.656,-46.5 266.081,-46.5 282.315,-46.5"/>
<polygon fill="#41ab5d" stroke="#41ab5d" stroke-width="2" points="282.622,-50.0001 292.622,-46.5 282.622,-43.0001 282.622,-50.0001"/>
<text text-anchor="start" x="256" y="-50.3" font-family="Helvetica,sans-Serif" font-size="14.00" fill="#cd5c5c">⇅</text>
</g>
<!-- Extent of vaccination programme -->
<g id="node3" class="node"><title>Extent of vaccination programme</title>
<polygon fill="#f7fcf5" stroke="#f7fcf5" points="90,-73 0,-73 0,-20 90,-20 90,-73"/>
<text text-anchor="start" x="16.5" y="-57.8" font-family="Helvetica,sans-Serif" font-size="14.00" fill="#006d2c">Extent of</text>
<text text-anchor="start" x="10" y="-42.8" font-family="Helvetica,sans-Serif" font-size="14.00" fill="#006d2c">vaccination</text>
<text text-anchor="start" x="8" y="-27.8" font-family="Helvetica,sans-Serif" font-size="14.00" fill="#006d2c">programme</text>
</g>
<!-- Extent of vaccination programme&#45;&gt;Percentage of children vaccinated -->
<g id="edge2" class="edge"><title>Extent of vaccination programme&#45;&gt;Percentage of children vaccinated</title>
<path fill="none" stroke="#41ab5d" stroke-width="2" d="M90.3626,-46.5C103.152,-46.5 117.254,-46.5 130.579,-46.5"/>
<polygon fill="#41ab5d" stroke="#41ab5d" stroke-width="2" points="130.582,-50.0001 140.582,-46.5 130.582,-43.0001 130.582,-50.0001"/>
</g>
</g>
</svg>
