<?xml version="1.0" encoding="UTF-8" standalone="no"?>
<!DOCTYPE svg PUBLIC "-//W3C//DTD SVG 1.1//EN"
 "http://www.w3.org/Graphics/SVG/1.1/DTD/svg11.dtd">
<!-- Generated by graphviz version 2.38.0 (20140413.2041)
 -->
<!-- Title: foo Pages: 1 -->
<svg width="564pt" height="148pt"
 viewBox="0.00 0.00 564.00 148.00" xmlns="http://www.w3.org/2000/svg" xmlns:xlink="http://www.w3.org/1999/xlink">
<g id="graph0" class="graph" transform="scale(1 1) rotate(0) translate(4 144)">
<title>foo</title>
<g id="a_graph0"><a xlink:title=" ">
<polygon fill="#d9d9d9" stroke="none" points="-4,4 -4,-144 560,-144 560,4 -4,4"/>
<text text-anchor="start" x="186" y="-7.2" font-family="tahoma" font-size="11.00" fill="#525252">You don&#39;t have to stick to this format</text>
</a>
</g>
<!-- improved student exam results -->
<g id="node1" class="node"><title>improved student exam results</title>
<polygon fill="#fee6ce" stroke="#fee6ce" points="411,-106 310,-106 310,-53 411,-53 411,-106"/>
<text text-anchor="start" x="330.5" y="-90.8" font-family="Helvetica,sans-Serif" font-size="14.00">improved</text>
<text text-anchor="start" x="318" y="-75.8" font-family="Helvetica,sans-Serif" font-size="14.00">student exam</text>
<text text-anchor="start" x="339" y="-60.8" font-family="Helvetica,sans-Serif" font-size="14.00">results</text>
</g>
<!-- improved student employment prospects//!heart -->
<g id="node2" class="node"><title>improved student employment prospects//!heart</title>
<polygon fill="#fee6ce" stroke="#fee6ce" points="556,-121 461,-121 461,-38 556,-38 556,-121"/>
<text text-anchor="start" x="478.5" y="-105.8" font-family="Helvetica,sans-Serif" font-size="14.00">improved</text>
<text text-anchor="start" x="485" y="-90.8" font-family="Helvetica,sans-Serif" font-size="14.00">student</text>
<text text-anchor="start" x="469" y="-75.8" font-family="Helvetica,sans-Serif" font-size="14.00">employment</text>
<text text-anchor="start" x="476.5" y="-60.8" font-family="Helvetica,sans-Serif" font-size="14.00">prospects</text>
<text text-anchor="start" x="504" y="-45.8" font-family="Helvetica,sans-Serif" font-size="14.00" fill="orange">♥</text>
</g>
<!-- improved student exam results&#45;&gt;improved student employment prospects//!heart -->
<g id="edge1" class="edge"><title>improved student exam results&#45;&gt;improved student employment prospects//!heart</title>
<path fill="none" stroke="#737373" stroke-width="2" d="M411.337,-79.5C423.982,-79.5 437.662,-79.5 450.627,-79.5"/>
<polygon fill="#737373" stroke="#737373" stroke-width="2" points="450.839,-83.0001 460.839,-79.5 450.839,-76.0001 450.839,-83.0001"/>
</g>
<!-- improved student self&#45;confidence -->
<g id="node3" class="node"><title>improved student self&#45;confidence</title>
<polygon fill="#fee6ce" stroke="#fee6ce" points="260,-140 145,-140 145,-87 260,-87 260,-140"/>
<text text-anchor="start" x="172.5" y="-124.8" font-family="Helvetica,sans-Serif" font-size="14.00">improved</text>
<text text-anchor="start" x="179" y="-109.8" font-family="Helvetica,sans-Serif" font-size="14.00">student</text>
<text text-anchor="start" x="153" y="-94.8" font-family="Helvetica,sans-Serif" font-size="14.00">self&#45;confidence</text>
</g>
<!-- improved student self&#45;confidence&#45;&gt;improved student exam results -->
<g id="edge2" class="edge"><title>improved student self&#45;confidence&#45;&gt;improved student exam results</title>
<path fill="none" stroke="#737373" stroke-width="2" d="M260.261,-101.129C273.243,-98.2997 287.074,-95.2851 300.161,-92.4328"/>
<polygon fill="#737373" stroke="#737373" stroke-width="2" points="300.972,-95.8383 309.997,-90.289 299.481,-88.9989 300.972,-95.8383"/>
</g>
<!-- !do students attend workshop -->
<g id="node4" class="node"><title>!do students attend workshop</title>
<polygon fill="#fee6ce" stroke="#fee6ce" points="94.5,-138.5 0.5,-138.5 0.5,-88.5 94.5,-88.5 94.5,-138.5"/>
<text text-anchor="start" x="8.5" y="-124.3" font-family="Courier,monospace" font-size="14.00">▶ </text>
<text text-anchor="start" x="28.5" y="-124.3" font-family="Helvetica,sans-Serif" font-size="14.00"> students</text>
<text text-anchor="start" x="27.5" y="-110.3" font-family="Helvetica,sans-Serif" font-size="14.00">attend</text>
<text text-anchor="start" x="17" y="-96.3" font-family="Helvetica,sans-Serif" font-size="14.00">workshop</text>
</g>
<!-- !do students attend workshop&#45;&gt;improved student self&#45;confidence -->
<g id="edge3" class="edge"><title>!do students attend workshop&#45;&gt;improved student self&#45;confidence</title>
<path fill="none" stroke="#737373" stroke-width="2" d="M94.8202,-113.5C107.366,-113.5 121.201,-113.5 134.634,-113.5"/>
<polygon fill="#737373" stroke="#737373" stroke-width="2" points="134.799,-117 144.799,-113.5 134.799,-110 134.799,-117"/>
</g>
<!-- improved teacher skills -->
<g id="node5" class="node"><title>improved teacher skills</title>
<polygon fill="#fee6ce" stroke="#fee6ce" points="240.5,-73 164.5,-73 164.5,-20 240.5,-20 240.5,-73"/>
<text text-anchor="start" x="172.5" y="-57.8" font-family="Helvetica,sans-Serif" font-size="14.00">improved</text>
<text text-anchor="start" x="178.5" y="-42.8" font-family="Helvetica,sans-Serif" font-size="14.00">teacher</text>
<text text-anchor="start" x="187" y="-27.8" font-family="Helvetica,sans-Serif" font-size="14.00">skills</text>
</g>
<!-- improved teacher skills&#45;&gt;improved student exam results -->
<g id="edge4" class="edge"><title>improved teacher skills&#45;&gt;improved student exam results</title>
<path fill="none" stroke="#737373" stroke-width="2" d="M240.866,-54.4043C258.524,-58.1398 280.038,-62.6907 299.871,-66.8862"/>
<polygon fill="#737373" stroke="#737373" stroke-width="2" points="299.245,-70.3311 309.753,-68.9766 300.694,-63.4827 299.245,-70.3311"/>
</g>
<!-- !do teachers attend workshop -->
<g id="node6" class="node"><title>!do teachers attend workshop</title>
<polygon fill="#fee6ce" stroke="#fee6ce" points="95,-71.5 0,-71.5 0,-21.5 95,-21.5 95,-71.5"/>
<text text-anchor="start" x="8" y="-57.3" font-family="Courier,monospace" font-size="14.00">▶ </text>
<text text-anchor="start" x="28" y="-57.3" font-family="Helvetica,sans-Serif" font-size="14.00"> teachers</text>
<text text-anchor="start" x="27.5" y="-43.3" font-family="Helvetica,sans-Serif" font-size="14.00">attend</text>
<text text-anchor="start" x="17" y="-29.3" font-family="Helvetica,sans-Serif" font-size="14.00">workshop</text>
</g>
<!-- !do teachers attend workshop&#45;&gt;improved teacher skills -->
<g id="edge5" class="edge"><title>!do teachers attend workshop&#45;&gt;improved teacher skills</title>
<path fill="none" stroke="#737373" stroke-width="2" d="M95.2364,-46.5C113.922,-46.5 135.414,-46.5 154.159,-46.5"/>
<polygon fill="#737373" stroke="#737373" stroke-width="2" points="154.255,-50.0001 164.255,-46.5 154.255,-43.0001 154.255,-50.0001"/>
</g>
</g>
</svg>
