<?xml version="1.0" encoding="UTF-8" standalone="no"?>
<!DOCTYPE svg PUBLIC "-//W3C//DTD SVG 1.1//EN"
 "http://www.w3.org/Graphics/SVG/1.1/DTD/svg11.dtd">
<!-- Generated by graphviz version 2.38.0 (20140413.2041)
 -->
<!-- Title: foo Pages: 1 -->
<svg width="482pt" height="365pt"
 viewBox="0.00 0.00 481.86 364.86" xmlns="http://www.w3.org/2000/svg" xmlns:xlink="http://www.w3.org/1999/xlink">
<g id="graph0" class="graph" transform="scale(1 1) rotate(0) translate(4 360.856)">
<title>foo</title>
<g id="a_graph0"><a xlink:title=" ">
<polygon fill="white" stroke="none" points="-4,4 -4,-360.856 477.856,-360.856 477.856,4 -4,4"/>
</a>
</g>
<!-- b -->
<g id="node1" class="node"><title>b</title>
<polygon fill="#e5f5e0" stroke="#e5f5e0" stroke-width="2" points="374.856,-196.428 320.856,-196.428 320.856,-160.428 374.856,-160.428 374.856,-196.428"/>
<text text-anchor="start" x="343.356" y="-174.728" font-family="arial" font-size="14.00">b</text>
</g>
<!-- a -->
<g id="node2" class="node"><title>a</title>
<polygon fill="#e5f5e0" stroke="#e5f5e0" stroke-width="2" points="214.428,-356.856 160.428,-356.856 160.428,-320.856 214.428,-320.856 214.428,-356.856"/>
<text text-anchor="start" x="183.428" y="-335.156" font-family="arial" font-size="14.00">a</text>
</g>
<!-- b&#45;&gt;a -->
<g id="edge1" class="edge"><title>b&#45;&gt;a</title>
<path fill="none" stroke="#41ab5d" d="M329.765,-196.519C301.24,-225.044 245.71,-280.574 213.08,-313.204"/>
<polygon fill="#41ab5d" stroke="#41ab5d" points="210.296,-311.039 205.7,-320.585 215.245,-315.989 210.296,-311.039"/>
</g>
<!-- c -->
<g id="node3" class="node"><title>c</title>
<polygon fill="#e5f5e0" stroke="#e5f5e0" stroke-width="2" points="100.988,-309.868 46.9883,-309.868 46.9883,-273.868 100.988,-273.868 100.988,-309.868"/>
<text text-anchor="start" x="69.9883" y="-288.168" font-family="arial" font-size="14.00">c</text>
</g>
<!-- c&#45;&gt;a -->
<g id="edge2" class="edge"><title>c&#45;&gt;a</title>
<path fill="none" stroke="#41ab5d" d="M101.16,-303.123C115.925,-309.239 134.395,-316.889 150.453,-323.541"/>
<polygon fill="#41ab5d" stroke="#41ab5d" points="149.507,-326.937 160.085,-327.53 152.186,-320.47 149.507,-326.937"/>
</g>
<!-- d -->
<g id="node4" class="node"><title>d</title>
<polygon fill="#e5f5e0" stroke="#e5f5e0" stroke-width="2" points="54,-196.428 0,-196.428 0,-160.428 54,-160.428 54,-196.428"/>
<text text-anchor="start" x="22.5" y="-174.728" font-family="arial" font-size="14.00">d</text>
</g>
<!-- d&#45;&gt;b -->
<g id="edge3" class="edge"><title>d&#45;&gt;b</title>
<path fill="none" stroke="#41ab5d" d="M54.0795,-178.428C111.326,-178.428 244.736,-178.428 310.228,-178.428"/>
<polygon fill="#41ab5d" stroke="#41ab5d" points="310.509,-181.928 320.509,-178.428 310.509,-174.928 310.509,-181.928"/>
</g>
<!-- d&#45;&gt;c -->
<g id="edge4" class="edge"><title>d&#45;&gt;c</title>
<path fill="none" stroke="#41ab5d" d="M34.5495,-196.654C42.1192,-214.929 53.8702,-243.298 62.578,-264.321"/>
<polygon fill="#41ab5d" stroke="#41ab5d" points="59.3971,-265.788 66.4576,-273.687 65.8643,-263.109 59.3971,-265.788"/>
</g>
<!-- e -->
<g id="node5" class="node"><title>e</title>
<polygon fill="#e5f5e0" stroke="#e5f5e0" stroke-width="2" points="327.868,-309.868 273.868,-309.868 273.868,-273.868 327.868,-273.868 327.868,-309.868"/>
<text text-anchor="start" x="296.368" y="-288.168" font-family="arial" font-size="14.00">e</text>
</g>
<!-- e&#45;&gt;b -->
<g id="edge5" class="edge"><title>e&#45;&gt;b</title>
<path fill="none" stroke="#41ab5d" d="M308.418,-273.642C315.987,-255.367 327.738,-226.998 336.446,-205.975"/>
<polygon fill="#41ab5d" stroke="#41ab5d" points="339.732,-207.187 340.326,-196.609 333.265,-204.508 339.732,-207.187"/>
</g>
<!-- e&#45;&gt;a -->
<g id="edge9" class="edge"><title>e&#45;&gt;a</title>
<path fill="none" stroke="#41ab5d" d="M273.696,-303.123C258.932,-309.239 240.461,-316.889 224.403,-323.541"/>
<polygon fill="#41ab5d" stroke="#41ab5d" points="222.671,-320.47 214.771,-327.53 225.35,-326.937 222.671,-320.47"/>
</g>
<!-- e&#45;&gt;c -->
<g id="edge6" class="edge"><title>e&#45;&gt;c</title>
<path fill="none" stroke="#41ab5d" d="M273.501,-291.868C232.936,-291.868 156.748,-291.868 111.163,-291.868"/>
<polygon fill="#41ab5d" stroke="#41ab5d" points="111.099,-288.368 101.099,-291.868 111.099,-295.368 111.099,-288.368"/>
</g>
<!-- f -->
<g id="node6" class="node"><title>f</title>
<polygon fill="#e5f5e0" stroke="#e5f5e0" stroke-width="2" points="327.868,-82.9883 273.868,-82.9883 273.868,-46.9883 327.868,-46.9883 327.868,-82.9883"/>
<text text-anchor="start" x="298.368" y="-61.2883" font-family="arial" font-size="14.00">f</text>
</g>
<!-- f&#45;&gt;b -->
<g id="edge7" class="edge"><title>f&#45;&gt;b</title>
<path fill="none" stroke="#41ab5d" d="M308.418,-83.2144C315.987,-101.489 327.738,-129.859 336.446,-150.881"/>
<polygon fill="#41ab5d" stroke="#41ab5d" points="333.265,-152.348 340.326,-160.247 339.732,-149.669 333.265,-152.348"/>
</g>
<!-- f&#45;&gt;c -->
<g id="edge8" class="edge"><title>f&#45;&gt;c</title>
<path fill="none" stroke="#41ab5d" d="M282.685,-83.1713C242.444,-123.412 145.764,-220.093 99.4977,-266.359"/>
<polygon fill="#41ab5d" stroke="#41ab5d" points="96.8541,-264.052 92.2579,-273.598 101.804,-269.002 96.8541,-264.052"/>
</g>
<!-- g -->
<g id="node7" class="node"><title>g</title>
<polygon fill="#e5f5e0" stroke="#e5f5e0" stroke-width="2" points="473.856,-196.428 419.856,-196.428 419.856,-160.428 473.856,-160.428 473.856,-196.428"/>
<text text-anchor="start" x="442.356" y="-174.728" font-family="arial" font-size="14.00">g</text>
</g>
<!-- g&#45;&gt;b -->
<g id="edge10" class="edge"><title>g&#45;&gt;b</title>
<path fill="none" stroke="#41ab5d" d="M419.804,-178.428C409.109,-178.428 396.64,-178.428 385.116,-178.428"/>
<polygon fill="#41ab5d" stroke="#41ab5d" points="384.876,-174.928 374.876,-178.428 384.876,-181.928 384.876,-174.928"/>
</g>
<!-- h -->
<g id="node8" class="node"><title>h</title>
<polygon fill="#e5f5e0" stroke="#e5f5e0" stroke-width="2" points="214.428,-36 160.428,-36 160.428,-0 214.428,-0 214.428,-36"/>
<text text-anchor="start" x="183.428" y="-14.3" font-family="arial" font-size="14.00">h</text>
</g>
<!-- h&#45;&gt;b -->
<g id="edge11" class="edge"><title>h&#45;&gt;b</title>
<path fill="none" stroke="#41ab5d" d="M205.519,-36.0913C234.044,-64.616 289.574,-120.146 322.204,-152.776"/>
<polygon fill="#41ab5d" stroke="#41ab5d" points="320.039,-155.561 329.585,-160.157 324.989,-150.611 320.039,-155.561"/>
</g>
<!-- i -->
<g id="node9" class="node"><title>i</title>
<polygon fill="#e5f5e0" stroke="#e5f5e0" stroke-width="2" points="100.988,-82.9883 46.9883,-82.9883 46.9883,-46.9883 100.988,-46.9883 100.988,-82.9883"/>
<text text-anchor="start" x="71.9883" y="-61.2883" font-family="arial" font-size="14.00">i</text>
</g>
<!-- i&#45;&gt;e -->
<g id="edge14" class="edge"><title>i&#45;&gt;e</title>
<path fill="none" stroke="#41ab5d" d="M92.1713,-83.1713C132.412,-123.412 229.093,-220.093 275.359,-266.359"/>
<polygon fill="#41ab5d" stroke="#41ab5d" points="273.052,-269.002 282.598,-273.598 278.002,-264.052 273.052,-269.002"/>
</g>
<!-- i&#45;&gt;f -->
<g id="edge13" class="edge"><title>i&#45;&gt;f</title>
<path fill="none" stroke="#41ab5d" d="M101.355,-64.9883C141.921,-64.9883 218.109,-64.9883 263.693,-64.9883"/>
<polygon fill="#41ab5d" stroke="#41ab5d" points="263.757,-68.4884 273.757,-64.9883 263.757,-61.4884 263.757,-68.4884"/>
</g>
<!-- i&#45;&gt;h -->
<g id="edge12" class="edge"><title>i&#45;&gt;h</title>
<path fill="none" stroke="#41ab5d" d="M101.16,-53.7335C115.925,-47.6178 134.395,-39.967 150.453,-33.3156"/>
<polygon fill="#41ab5d" stroke="#41ab5d" points="152.186,-36.3864 160.085,-29.3259 149.507,-29.9192 152.186,-36.3864"/>
</g>
</g>
</svg>
