<?xml version="1.0" encoding="UTF-8" standalone="no"?>
<!DOCTYPE svg PUBLIC "-//W3C//DTD SVG 1.1//EN"
 "http://www.w3.org/Graphics/SVG/1.1/DTD/svg11.dtd">
<!-- Generated by graphviz version 2.38.0 (20140413.2041)
 -->
<!-- Title: foo Pages: 1 -->
<svg width="398pt" height="61pt"
 viewBox="0.00 0.00 398.00 61.00" xmlns="http://www.w3.org/2000/svg" xmlns:xlink="http://www.w3.org/1999/xlink">
<g id="graph0" class="graph" transform="scale(1 1) rotate(0) translate(4 57)">
<title>foo</title>
<g id="a_graph0"><a xlink:title=" ">
<polygon fill="white" stroke="none" points="-4,4 -4,-57 394,-57 394,4 -4,4"/>
</a>
</g>
<!-- ^ Continuous additional intervention by teacher to help student focus -->
<g id="node1" class="node"><title>^ Continuous additional intervention by teacher to help student focus</title>
<polygon fill="#e5f5e0" stroke="#e5f5e0" stroke-width="2" points="174,-53 0,-53 0,-0 174,-0 174,-53"/>
<text text-anchor="start" x="14.5" y="-37.8" font-family="arial" font-size="14.00">^ Continuous additional</text>
<text text-anchor="start" x="8" y="-22.8" font-family="arial" font-size="14.00">intervention by teacher to</text>
<text text-anchor="start" x="28.5" y="-7.8" font-family="arial" font-size="14.00">help student focus</text>
</g>
<!-- ~ Student concentration (Delay: ??) -->
<g id="node2" class="node"><title>~ Student concentration (Delay: ??)</title>
<polygon fill="#e5f5e0" stroke="#e5f5e0" stroke-width="2" points="390,-45.5 224,-45.5 224,-7.5 390,-7.5 390,-45.5"/>
<text text-anchor="start" x="232" y="-30.3" font-family="arial" font-size="14.00">~ Student concentration</text>
<text text-anchor="start" x="272" y="-15.3" font-family="arial" font-size="14.00">(Delay: ??)</text>
</g>
<!-- ^ Continuous additional intervention by teacher to help student focus&#45;&gt;~ Student concentration (Delay: ??) -->
<g id="edge1" class="edge"><title>^ Continuous additional intervention by teacher to help student focus&#45;&gt;~ Student concentration (Delay: ??)</title>
<path fill="none" stroke="#41ab5d" d="M174.159,-26.5C187.025,-26.5 200.335,-26.5 213.328,-26.5"/>
<polygon fill="#41ab5d" stroke="#41ab5d" points="213.666,-30.0001 223.666,-26.5 213.666,-23.0001 213.666,-30.0001"/>
</g>
</g>
</svg>
